<svg height="377pt" viewBox="0.00 0.00 300.00 377.00" width="300pt" xmlns="http://www.w3.org/2000/svg" xmlns:xlink="http://www.w3.org/1999/xlink">
<g class="graph" id="graph0" transform="scale(1 1) rotate(0) translate(4 373)">
<title>G</title>
<polygon fill="white" points="-4,4 -4,-373 296,-373 296,4 -4,4" stroke="none"/>
<!-- 2063407210280 -->
<g class="node" id="node1"><title>2063407210280</title>
<polygon fill="none" points="19,-249.5 19,-295.5 273,-295.5 273,-249.5 19,-249.5" stroke="black"/>
<text font-family="Times New Roman,serif" font-size="14.00" text-anchor="middle" x="59" y="-268.8">Embedding</text>
<polyline fill="none" points="99,-249.5 99,-295.5 " stroke="black"/>
<text font-family="Times New Roman,serif" font-size="14.00" text-anchor="middle" x="127" y="-280.3">input:</text>
<polyline fill="none" points="99,-272.5 155,-272.5 " stroke="black"/>
<text font-family="Times New Roman,serif" font-size="14.00" text-anchor="middle" x="127" y="-257.3">output:</text>
<polyline fill="none" points="155,-249.5 155,-295.5 " stroke="black"/>
<text font-family="Times New Roman,serif" font-size="14.00" text-anchor="middle" x="214" y="-280.3">(None, 1442)</text>
<polyline fill="none" points="155,-272.5 273,-272.5 " stroke="black"/>
<text font-family="Times New Roman,serif" font-size="14.00" text-anchor="middle" x="214" y="-257.3">(None, 1442, 128)</text>
</g>
<!-- 2063407170000 -->
<g class="node" id="node2"><title>2063407170000</title>
<polygon fill="none" points="0,-166.5 0,-212.5 292,-212.5 292,-166.5 0,-166.5" stroke="black"/>
<text font-family="Times New Roman,serif" font-size="14.00" text-anchor="middle" x="59" y="-185.8">SpatialDropout1D</text>
<polyline fill="none" points="118,-166.5 118,-212.5 " stroke="black"/>
<text font-family="Times New Roman,serif" font-size="14.00" text-anchor="middle" x="146" y="-197.3">input:</text>
<polyline fill="none" points="118,-189.5 174,-189.5 " stroke="black"/>
<text font-family="Times New Roman,serif" font-size="14.00" text-anchor="middle" x="146" y="-174.3">output:</text>
<polyline fill="none" points="174,-166.5 174,-212.5 " stroke="black"/>
<text font-family="Times New Roman,serif" font-size="14.00" text-anchor="middle" x="233" y="-197.3">(None, 1442, 128)</text>
<polyline fill="none" points="174,-189.5 292,-189.5 " stroke="black"/>
<text font-family="Times New Roman,serif" font-size="14.00" text-anchor="middle" x="233" y="-174.3">(None, 1442, 128)</text>
</g>
<!-- 2063407210280&#45;&gt;2063407170000 -->
<g class="edge" id="edge2"><title>2063407210280-&gt;2063407170000</title>
<path d="M146,-249.366C146,-241.152 146,-231.658 146,-222.725" fill="none" stroke="black"/>
<polygon fill="black" points="149.5,-222.607 146,-212.607 142.5,-222.607 149.5,-222.607" stroke="black"/>
</g>
<!-- 2063407879168 -->
<g class="node" id="node3"><title>2063407879168</title>
<polygon fill="none" points="32,-83.5 32,-129.5 260,-129.5 260,-83.5 32,-83.5" stroke="black"/>
<text font-family="Times New Roman,serif" font-size="14.00" text-anchor="middle" x="59" y="-102.8">LSTM</text>
<polyline fill="none" points="86,-83.5 86,-129.5 " stroke="black"/>
<text font-family="Times New Roman,serif" font-size="14.00" text-anchor="middle" x="114" y="-114.3">input:</text>
<polyline fill="none" points="86,-106.5 142,-106.5 " stroke="black"/>
<text font-family="Times New Roman,serif" font-size="14.00" text-anchor="middle" x="114" y="-91.3">output:</text>
<polyline fill="none" points="142,-83.5 142,-129.5 " stroke="black"/>
<text font-family="Times New Roman,serif" font-size="14.00" text-anchor="middle" x="201" y="-114.3">(None, 1442, 128)</text>
<polyline fill="none" points="142,-106.5 260,-106.5 " stroke="black"/>
<text font-family="Times New Roman,serif" font-size="14.00" text-anchor="middle" x="201" y="-91.3">(None, 64)</text>
</g>
<!-- 2063407170000&#45;&gt;2063407879168 -->
<g class="edge" id="edge3"><title>2063407170000-&gt;2063407879168</title>
<path d="M146,-166.366C146,-158.152 146,-148.658 146,-139.725" fill="none" stroke="black"/>
<polygon fill="black" points="149.5,-139.607 146,-129.607 142.5,-139.607 149.5,-139.607" stroke="black"/>
</g>
<!-- 2063407878328 -->
<g class="node" id="node4"><title>2063407878328</title>
<polygon fill="none" points="54,-0.5 54,-46.5 238,-46.5 238,-0.5 54,-0.5" stroke="black"/>
<text font-family="Times New Roman,serif" font-size="14.00" text-anchor="middle" x="79.5" y="-19.8">Dense</text>
<polyline fill="none" points="105,-0.5 105,-46.5 " stroke="black"/>
<text font-family="Times New Roman,serif" font-size="14.00" text-anchor="middle" x="133" y="-31.3">input:</text>
<polyline fill="none" points="105,-23.5 161,-23.5 " stroke="black"/>
<text font-family="Times New Roman,serif" font-size="14.00" text-anchor="middle" x="133" y="-8.3">output:</text>
<polyline fill="none" points="161,-0.5 161,-46.5 " stroke="black"/>
<text font-family="Times New Roman,serif" font-size="14.00" text-anchor="middle" x="199.5" y="-31.3">(None, 64)</text>
<polyline fill="none" points="161,-23.5 238,-23.5 " stroke="black"/>
<text font-family="Times New Roman,serif" font-size="14.00" text-anchor="middle" x="199.5" y="-8.3">(None, 1)</text>
</g>
<!-- 2063407879168&#45;&gt;2063407878328 -->
<g class="edge" id="edge4"><title>2063407879168-&gt;2063407878328</title>
<path d="M146,-83.3664C146,-75.1516 146,-65.6579 146,-56.7252" fill="none" stroke="black"/>
<polygon fill="black" points="149.5,-56.6068 146,-46.6068 142.5,-56.6069 149.5,-56.6068" stroke="black"/>
</g>
<!-- 2063407210448 -->
<g class="node" id="node5"><title>2063407210448</title>
<polygon fill="none" points="94,-332.5 94,-368.5 198,-368.5 198,-332.5 94,-332.5" stroke="black"/>
<text font-family="Times New Roman,serif" font-size="14.00" text-anchor="middle" x="146" y="-346.8">2063407210448</text>
</g>
<!-- 2063407210448&#45;&gt;2063407210280 -->
<g class="edge" id="edge1"><title>2063407210448-&gt;2063407210280</title>
<path d="M146,-332.254C146,-324.363 146,-314.749 146,-305.602" fill="none" stroke="black"/>
<polygon fill="black" points="149.5,-305.591 146,-295.591 142.5,-305.591 149.5,-305.591" stroke="black"/>
</g>
</g>
</svg>