<?xml version="1.0" encoding="UTF-8"?>
<svg xmlns="http://www.w3.org/2000/svg" xmlns:xlink="http://www.w3.org/1999/xlink" width="200pt" height="200pt" viewBox="0 0 200 200" version="1.1">
<g id="surface20">
<rect x="0" y="0" width="200" height="200" style="fill:rgb(100%,100%,100%);fill-opacity:1;stroke:none;"/>
<path style="fill:none;stroke-width:1;stroke-linecap:butt;stroke-linejoin:miter;stroke:rgb(26.666667%,26.666667%,26.666667%);stroke-opacity:1;stroke-miterlimit:10;" d="M 82.417969 124.859375 L 117.582031 75.140625 "/>
<path style="fill:none;stroke-width:1;stroke-linecap:butt;stroke-linejoin:miter;stroke:rgb(26.666667%,26.666667%,26.666667%);stroke-opacity:1;stroke-miterlimit:10;" d="M 82.417969 124.859375 L 102.003906 180 "/>
<path style="fill:none;stroke-width:1;stroke-linecap:butt;stroke-linejoin:miter;stroke:rgb(26.666667%,26.666667%,26.666667%);stroke-opacity:1;stroke-miterlimit:10;" d="M 82.417969 124.859375 L 20 130.269531 "/>
<path style="fill:none;stroke-width:1;stroke-linecap:butt;stroke-linejoin:miter;stroke:rgb(26.666667%,26.666667%,26.666667%);stroke-opacity:1;stroke-miterlimit:10;" d="M 117.582031 75.140625 L 97.996094 20 "/>
<path style="fill:none;stroke-width:1;stroke-linecap:butt;stroke-linejoin:miter;stroke:rgb(26.666667%,26.666667%,26.666667%);stroke-opacity:1;stroke-miterlimit:10;" d="M 117.582031 75.140625 L 180 69.730469 "/>
<path style="fill-rule:nonzero;fill:rgb(100%,0%,0%);fill-opacity:1;stroke-width:1;stroke-linecap:butt;stroke-linejoin:miter;stroke:rgb(0%,0%,0%);stroke-opacity:1;stroke-miterlimit:10;" d="M 92.417969 124.859375 C 92.417969 130.382812 87.9375 134.859375 82.417969 134.859375 C 76.894531 134.859375 72.417969 130.382812 72.417969 124.859375 C 72.417969 119.335938 76.894531 114.859375 82.417969 114.859375 C 87.9375 114.859375 92.417969 119.335938 92.417969 124.859375 "/>
<path style="fill-rule:nonzero;fill:rgb(100%,0%,0%);fill-opacity:1;stroke-width:1;stroke-linecap:butt;stroke-linejoin:miter;stroke:rgb(0%,0%,0%);stroke-opacity:1;stroke-miterlimit:10;" d="M 127.582031 75.140625 C 127.582031 80.664062 123.105469 85.140625 117.582031 85.140625 C 112.0625 85.140625 107.582031 80.664062 107.582031 75.140625 C 107.582031 69.617188 112.0625 65.140625 117.582031 65.140625 C 123.105469 65.140625 127.582031 69.617188 127.582031 75.140625 "/>
<path style="fill-rule:nonzero;fill:rgb(100%,0%,0%);fill-opacity:1;stroke-width:1;stroke-linecap:butt;stroke-linejoin:miter;stroke:rgb(0%,0%,0%);stroke-opacity:1;stroke-miterlimit:10;" d="M 112.003906 180 C 112.003906 185.523438 107.527344 190 102.003906 190 C 96.480469 190 92.003906 185.523438 92.003906 180 C 92.003906 174.476562 96.480469 170 102.003906 170 C 107.527344 170 112.003906 174.476562 112.003906 180 "/>
<path style="fill-rule:nonzero;fill:rgb(100%,0%,0%);fill-opacity:1;stroke-width:1;stroke-linecap:butt;stroke-linejoin:miter;stroke:rgb(0%,0%,0%);stroke-opacity:1;stroke-miterlimit:10;" d="M 30 130.269531 C 30 135.792969 25.523438 140.269531 20 140.269531 C 14.476562 140.269531 10 135.792969 10 130.269531 C 10 124.746094 14.476562 120.269531 20 120.269531 C 25.523438 120.269531 30 124.746094 30 130.269531 "/>
<path style="fill-rule:nonzero;fill:rgb(100%,0%,0%);fill-opacity:1;stroke-width:1;stroke-linecap:butt;stroke-linejoin:miter;stroke:rgb(0%,0%,0%);stroke-opacity:1;stroke-miterlimit:10;" d="M 107.996094 20 C 107.996094 25.523438 103.519531 30 97.996094 30 C 92.472656 30 87.996094 25.523438 87.996094 20 C 87.996094 14.476562 92.472656 10 97.996094 10 C 103.519531 10 107.996094 14.476562 107.996094 20 "/>
<path style="fill-rule:nonzero;fill:rgb(100%,0%,0%);fill-opacity:1;stroke-width:1;stroke-linecap:butt;stroke-linejoin:miter;stroke:rgb(0%,0%,0%);stroke-opacity:1;stroke-miterlimit:10;" d="M 190 69.730469 C 190 75.253906 185.523438 79.730469 180 79.730469 C 174.476562 79.730469 170 75.253906 170 69.730469 C 170 64.207031 174.476562 59.730469 180 59.730469 C 185.523438 59.730469 190 64.207031 190 69.730469 "/>
</g>
</svg>