<?xml version="1.0" encoding="UTF-8"?>
<svg xmlns="http://www.w3.org/2000/svg" xmlns:xlink="http://www.w3.org/1999/xlink" width="200pt" height="200pt" viewBox="0 0 200 200" version="1.1">
<g id="surface8">
<rect x="0" y="0" width="200" height="200" style="fill:rgb(100%,100%,100%);fill-opacity:1;stroke:none;"/>
<path style="fill:none;stroke-width:1;stroke-linecap:butt;stroke-linejoin:miter;stroke:rgb(26.666667%,26.666667%,26.666667%);stroke-opacity:1;stroke-miterlimit:10;" d="M 20 133.152344 L 23.824219 173.832031 "/>
<path style="fill:none;stroke-width:1;stroke-linecap:butt;stroke-linejoin:miter;stroke:rgb(26.666667%,26.666667%,26.666667%);stroke-opacity:1;stroke-miterlimit:10;" d="M 20 133.152344 L 36.023438 153 "/>
<path style="fill:none;stroke-width:1;stroke-linecap:butt;stroke-linejoin:miter;stroke:rgb(26.666667%,26.666667%,26.666667%);stroke-opacity:1;stroke-miterlimit:10;" d="M 20 133.152344 L 47.289062 140.726562 "/>
<path style="fill:none;stroke-width:1;stroke-linecap:butt;stroke-linejoin:miter;stroke:rgb(26.666667%,26.666667%,26.666667%);stroke-opacity:1;stroke-miterlimit:10;" d="M 20 133.152344 L 62.789062 101.058594 "/>
<path style="fill:none;stroke-width:1;stroke-linecap:butt;stroke-linejoin:miter;stroke:rgb(26.666667%,26.666667%,26.666667%);stroke-opacity:1;stroke-miterlimit:10;" d="M 20 133.152344 L 63.347656 101.304688 "/>
<path style="fill:none;stroke-width:1;stroke-linecap:butt;stroke-linejoin:miter;stroke:rgb(26.666667%,26.666667%,26.666667%);stroke-opacity:1;stroke-miterlimit:10;" d="M 23.824219 173.832031 L 36.023438 153 "/>
<path style="fill:none;stroke-width:1;stroke-linecap:butt;stroke-linejoin:miter;stroke:rgb(26.666667%,26.666667%,26.666667%);stroke-opacity:1;stroke-miterlimit:10;" d="M 23.824219 173.832031 L 47.289062 140.726562 "/>
<path style="fill:none;stroke-width:1;stroke-linecap:butt;stroke-linejoin:miter;stroke:rgb(26.666667%,26.666667%,26.666667%);stroke-opacity:1;stroke-miterlimit:10;" d="M 23.824219 173.832031 L 48.078125 180 "/>
<path style="fill:none;stroke-width:1;stroke-linecap:butt;stroke-linejoin:miter;stroke:rgb(26.666667%,26.666667%,26.666667%);stroke-opacity:1;stroke-miterlimit:10;" d="M 33.402344 73.839844 L 62.789062 101.058594 "/>
<path style="fill:none;stroke-width:1;stroke-linecap:butt;stroke-linejoin:miter;stroke:rgb(26.666667%,26.666667%,26.666667%);stroke-opacity:1;stroke-miterlimit:10;" d="M 33.402344 73.839844 L 63.347656 101.304688 "/>
<path style="fill:none;stroke-width:1;stroke-linecap:butt;stroke-linejoin:miter;stroke:rgb(26.666667%,26.666667%,26.666667%);stroke-opacity:1;stroke-miterlimit:10;" d="M 36.023438 153 L 47.289062 140.726562 "/>
<path style="fill:none;stroke-width:1;stroke-linecap:butt;stroke-linejoin:miter;stroke:rgb(26.666667%,26.666667%,26.666667%);stroke-opacity:1;stroke-miterlimit:10;" d="M 36.023438 153 L 48.078125 180 "/>
<path style="fill:none;stroke-width:1;stroke-linecap:butt;stroke-linejoin:miter;stroke:rgb(26.666667%,26.666667%,26.666667%);stroke-opacity:1;stroke-miterlimit:10;" d="M 36.023438 153 L 84.695312 160.535156 "/>
<path style="fill:none;stroke-width:1;stroke-linecap:butt;stroke-linejoin:miter;stroke:rgb(26.666667%,26.666667%,26.666667%);stroke-opacity:1;stroke-miterlimit:10;" d="M 36.023438 153 L 88.464844 164.746094 "/>
<path style="fill:none;stroke-width:1;stroke-linecap:butt;stroke-linejoin:miter;stroke:rgb(26.666667%,26.666667%,26.666667%);stroke-opacity:1;stroke-miterlimit:10;" d="M 47.289062 140.726562 L 48.078125 180 "/>
<path style="fill:none;stroke-width:1;stroke-linecap:butt;stroke-linejoin:miter;stroke:rgb(26.666667%,26.666667%,26.666667%);stroke-opacity:1;stroke-miterlimit:10;" d="M 47.289062 140.726562 L 62.789062 101.058594 "/>
<path style="fill:none;stroke-width:1;stroke-linecap:butt;stroke-linejoin:miter;stroke:rgb(26.666667%,26.666667%,26.666667%);stroke-opacity:1;stroke-miterlimit:10;" d="M 47.289062 140.726562 L 63.347656 101.304688 "/>
<path style="fill:none;stroke-width:1;stroke-linecap:butt;stroke-linejoin:miter;stroke:rgb(26.666667%,26.666667%,26.666667%);stroke-opacity:1;stroke-miterlimit:10;" d="M 47.289062 140.726562 L 84.695312 160.535156 "/>
<path style="fill:none;stroke-width:1;stroke-linecap:butt;stroke-linejoin:miter;stroke:rgb(26.666667%,26.666667%,26.666667%);stroke-opacity:1;stroke-miterlimit:10;" d="M 47.289062 140.726562 L 88.464844 164.746094 "/>
<path style="fill:none;stroke-width:1;stroke-linecap:butt;stroke-linejoin:miter;stroke:rgb(26.666667%,26.666667%,26.666667%);stroke-opacity:1;stroke-miterlimit:10;" d="M 47.289062 140.726562 L 93.683594 132.421875 "/>
<path style="fill:none;stroke-width:1;stroke-linecap:butt;stroke-linejoin:miter;stroke:rgb(26.666667%,26.666667%,26.666667%);stroke-opacity:1;stroke-miterlimit:10;" d="M 48.078125 180 L 84.695312 160.535156 "/>
<path style="fill:none;stroke-width:1;stroke-linecap:butt;stroke-linejoin:miter;stroke:rgb(26.666667%,26.666667%,26.666667%);stroke-opacity:1;stroke-miterlimit:10;" d="M 48.078125 180 L 88.464844 164.746094 "/>
<path style="fill:none;stroke-width:1;stroke-linecap:butt;stroke-linejoin:miter;stroke:rgb(26.666667%,26.666667%,26.666667%);stroke-opacity:1;stroke-miterlimit:10;" d="M 62.789062 101.058594 L 63.347656 101.304688 "/>
<path style="fill:none;stroke-width:1;stroke-linecap:butt;stroke-linejoin:miter;stroke:rgb(26.666667%,26.666667%,26.666667%);stroke-opacity:1;stroke-miterlimit:10;" d="M 62.789062 101.058594 L 93.683594 132.421875 "/>
<path style="fill:none;stroke-width:1;stroke-linecap:butt;stroke-linejoin:miter;stroke:rgb(26.666667%,26.666667%,26.666667%);stroke-opacity:1;stroke-miterlimit:10;" d="M 63.347656 101.304688 L 93.683594 132.421875 "/>
<path style="fill:none;stroke-width:1;stroke-linecap:butt;stroke-linejoin:miter;stroke:rgb(26.666667%,26.666667%,26.666667%);stroke-opacity:1;stroke-miterlimit:10;" d="M 83.292969 36.695312 L 111.378906 20 "/>
<path style="fill:none;stroke-width:1;stroke-linecap:butt;stroke-linejoin:miter;stroke:rgb(26.666667%,26.666667%,26.666667%);stroke-opacity:1;stroke-miterlimit:10;" d="M 83.292969 36.695312 L 130.640625 57.730469 "/>
<path style="fill:none;stroke-width:1;stroke-linecap:butt;stroke-linejoin:miter;stroke:rgb(26.666667%,26.666667%,26.666667%);stroke-opacity:1;stroke-miterlimit:10;" d="M 84.695312 160.535156 L 88.464844 164.746094 "/>
<path style="fill:none;stroke-width:1;stroke-linecap:butt;stroke-linejoin:miter;stroke:rgb(26.666667%,26.666667%,26.666667%);stroke-opacity:1;stroke-miterlimit:10;" d="M 84.695312 160.535156 L 93.683594 132.421875 "/>
<path style="fill:none;stroke-width:1;stroke-linecap:butt;stroke-linejoin:miter;stroke:rgb(26.666667%,26.666667%,26.666667%);stroke-opacity:1;stroke-miterlimit:10;" d="M 88.464844 164.746094 L 93.683594 132.421875 "/>
<path style="fill:none;stroke-width:1;stroke-linecap:butt;stroke-linejoin:miter;stroke:rgb(26.666667%,26.666667%,26.666667%);stroke-opacity:1;stroke-miterlimit:10;" d="M 111.378906 20 L 130.640625 57.730469 "/>
<path style="fill:none;stroke-width:1;stroke-linecap:butt;stroke-linejoin:miter;stroke:rgb(26.666667%,26.666667%,26.666667%);stroke-opacity:1;stroke-miterlimit:10;" d="M 119.964844 81.195312 L 130.0625 74.777344 "/>
<path style="fill:none;stroke-width:1;stroke-linecap:butt;stroke-linejoin:miter;stroke:rgb(26.666667%,26.666667%,26.666667%);stroke-opacity:1;stroke-miterlimit:10;" d="M 119.964844 81.195312 L 130.640625 57.730469 "/>
<path style="fill:none;stroke-width:1;stroke-linecap:butt;stroke-linejoin:miter;stroke:rgb(26.666667%,26.666667%,26.666667%);stroke-opacity:1;stroke-miterlimit:10;" d="M 119.964844 81.195312 L 156.4375 65.28125 "/>
<path style="fill:none;stroke-width:1;stroke-linecap:butt;stroke-linejoin:miter;stroke:rgb(26.666667%,26.666667%,26.666667%);stroke-opacity:1;stroke-miterlimit:10;" d="M 130.0625 74.777344 L 130.640625 57.730469 "/>
<path style="fill:none;stroke-width:1;stroke-linecap:butt;stroke-linejoin:miter;stroke:rgb(26.666667%,26.666667%,26.666667%);stroke-opacity:1;stroke-miterlimit:10;" d="M 130.0625 74.777344 L 156.4375 65.28125 "/>
<path style="fill:none;stroke-width:1;stroke-linecap:butt;stroke-linejoin:miter;stroke:rgb(26.666667%,26.666667%,26.666667%);stroke-opacity:1;stroke-miterlimit:10;" d="M 130.0625 74.777344 L 179.109375 68.578125 "/>
<path style="fill:none;stroke-width:1;stroke-linecap:butt;stroke-linejoin:miter;stroke:rgb(26.666667%,26.666667%,26.666667%);stroke-opacity:1;stroke-miterlimit:10;" d="M 130.640625 57.730469 L 156.4375 65.28125 "/>
<path style="fill:none;stroke-width:1;stroke-linecap:butt;stroke-linejoin:miter;stroke:rgb(26.666667%,26.666667%,26.666667%);stroke-opacity:1;stroke-miterlimit:10;" d="M 130.640625 57.730469 L 179.109375 68.578125 "/>
<path style="fill:none;stroke-width:1;stroke-linecap:butt;stroke-linejoin:miter;stroke:rgb(26.666667%,26.666667%,26.666667%);stroke-opacity:1;stroke-miterlimit:10;" d="M 156.4375 65.28125 L 179.109375 68.578125 "/>
<path style="fill:none;stroke-width:1;stroke-linecap:butt;stroke-linejoin:miter;stroke:rgb(26.666667%,26.666667%,26.666667%);stroke-opacity:1;stroke-miterlimit:10;" d="M 156.4375 65.28125 L 180 20.640625 "/>
<path style="fill:none;stroke-width:1;stroke-linecap:butt;stroke-linejoin:miter;stroke:rgb(26.666667%,26.666667%,26.666667%);stroke-opacity:1;stroke-miterlimit:10;" d="M 179.109375 68.578125 L 180 20.640625 "/>
<path style="fill-rule:nonzero;fill:rgb(100%,0%,0%);fill-opacity:1;stroke-width:1;stroke-linecap:butt;stroke-linejoin:miter;stroke:rgb(0%,0%,0%);stroke-opacity:1;stroke-miterlimit:10;" d="M 30 133.152344 C 30 138.671875 25.523438 143.152344 20 143.152344 C 14.476562 143.152344 10 138.671875 10 133.152344 C 10 127.628906 14.476562 123.152344 20 123.152344 C 25.523438 123.152344 30 127.628906 30 133.152344 "/>
<path style="fill-rule:nonzero;fill:rgb(100%,0%,0%);fill-opacity:1;stroke-width:1;stroke-linecap:butt;stroke-linejoin:miter;stroke:rgb(0%,0%,0%);stroke-opacity:1;stroke-miterlimit:10;" d="M 33.824219 173.832031 C 33.824219 179.355469 29.347656 183.832031 23.824219 183.832031 C 18.300781 183.832031 13.824219 179.355469 13.824219 173.832031 C 13.824219 168.308594 18.300781 163.832031 23.824219 163.832031 C 29.347656 163.832031 33.824219 168.308594 33.824219 173.832031 "/>
<path style="fill-rule:nonzero;fill:rgb(100%,0%,0%);fill-opacity:1;stroke-width:1;stroke-linecap:butt;stroke-linejoin:miter;stroke:rgb(0%,0%,0%);stroke-opacity:1;stroke-miterlimit:10;" d="M 43.402344 73.839844 C 43.402344 79.363281 38.925781 83.839844 33.402344 83.839844 C 27.882812 83.839844 23.402344 79.363281 23.402344 73.839844 C 23.402344 68.316406 27.882812 63.839844 33.402344 63.839844 C 38.925781 63.839844 43.402344 68.316406 43.402344 73.839844 "/>
<path style="fill-rule:nonzero;fill:rgb(100%,0%,0%);fill-opacity:1;stroke-width:1;stroke-linecap:butt;stroke-linejoin:miter;stroke:rgb(0%,0%,0%);stroke-opacity:1;stroke-miterlimit:10;" d="M 46.023438 153 C 46.023438 158.523438 41.546875 163 36.023438 163 C 30.5 163 26.023438 158.523438 26.023438 153 C 26.023438 147.476562 30.5 143 36.023438 143 C 41.546875 143 46.023438 147.476562 46.023438 153 "/>
<path style="fill-rule:nonzero;fill:rgb(100%,0%,0%);fill-opacity:1;stroke-width:1;stroke-linecap:butt;stroke-linejoin:miter;stroke:rgb(0%,0%,0%);stroke-opacity:1;stroke-miterlimit:10;" d="M 57.289062 140.726562 C 57.289062 146.25 52.808594 150.726562 47.289062 150.726562 C 41.765625 150.726562 37.289062 146.25 37.289062 140.726562 C 37.289062 135.203125 41.765625 130.726562 47.289062 130.726562 C 52.808594 130.726562 57.289062 135.203125 57.289062 140.726562 "/>
<path style="fill-rule:nonzero;fill:rgb(100%,0%,0%);fill-opacity:1;stroke-width:1;stroke-linecap:butt;stroke-linejoin:miter;stroke:rgb(0%,0%,0%);stroke-opacity:1;stroke-miterlimit:10;" d="M 58.078125 180 C 58.078125 185.523438 53.601562 190 48.078125 190 C 42.554688 190 38.078125 185.523438 38.078125 180 C 38.078125 174.476562 42.554688 170 48.078125 170 C 53.601562 170 58.078125 174.476562 58.078125 180 "/>
<path style="fill-rule:nonzero;fill:rgb(100%,0%,0%);fill-opacity:1;stroke-width:1;stroke-linecap:butt;stroke-linejoin:miter;stroke:rgb(0%,0%,0%);stroke-opacity:1;stroke-miterlimit:10;" d="M 72.789062 101.058594 C 72.789062 106.582031 68.3125 111.058594 62.789062 111.058594 C 57.265625 111.058594 52.789062 106.582031 52.789062 101.058594 C 52.789062 95.535156 57.265625 91.058594 62.789062 91.058594 C 68.3125 91.058594 72.789062 95.535156 72.789062 101.058594 "/>
<path style="fill-rule:nonzero;fill:rgb(100%,0%,0%);fill-opacity:1;stroke-width:1;stroke-linecap:butt;stroke-linejoin:miter;stroke:rgb(0%,0%,0%);stroke-opacity:1;stroke-miterlimit:10;" d="M 73.347656 101.304688 C 73.347656 106.828125 68.871094 111.304688 63.347656 111.304688 C 57.828125 111.304688 53.347656 106.828125 53.347656 101.304688 C 53.347656 95.78125 57.828125 91.304688 63.347656 91.304688 C 68.871094 91.304688 73.347656 95.78125 73.347656 101.304688 "/>
<path style="fill-rule:nonzero;fill:rgb(100%,0%,0%);fill-opacity:1;stroke-width:1;stroke-linecap:butt;stroke-linejoin:miter;stroke:rgb(0%,0%,0%);stroke-opacity:1;stroke-miterlimit:10;" d="M 93.292969 36.695312 C 93.292969 42.21875 88.8125 46.695312 83.292969 46.695312 C 77.769531 46.695312 73.292969 42.21875 73.292969 36.695312 C 73.292969 31.171875 77.769531 26.695312 83.292969 26.695312 C 88.8125 26.695312 93.292969 31.171875 93.292969 36.695312 "/>
<path style="fill-rule:nonzero;fill:rgb(100%,0%,0%);fill-opacity:1;stroke-width:1;stroke-linecap:butt;stroke-linejoin:miter;stroke:rgb(0%,0%,0%);stroke-opacity:1;stroke-miterlimit:10;" d="M 94.695312 160.535156 C 94.695312 166.058594 90.21875 170.535156 84.695312 170.535156 C 79.171875 170.535156 74.695312 166.058594 74.695312 160.535156 C 74.695312 155.011719 79.171875 150.535156 84.695312 150.535156 C 90.21875 150.535156 94.695312 155.011719 94.695312 160.535156 "/>
<path style="fill-rule:nonzero;fill:rgb(100%,0%,0%);fill-opacity:1;stroke-width:1;stroke-linecap:butt;stroke-linejoin:miter;stroke:rgb(0%,0%,0%);stroke-opacity:1;stroke-miterlimit:10;" d="M 98.464844 164.746094 C 98.464844 170.269531 93.988281 174.746094 88.464844 174.746094 C 82.941406 174.746094 78.464844 170.269531 78.464844 164.746094 C 78.464844 159.222656 82.941406 154.746094 88.464844 154.746094 C 93.988281 154.746094 98.464844 159.222656 98.464844 164.746094 "/>
<path style="fill-rule:nonzero;fill:rgb(100%,0%,0%);fill-opacity:1;stroke-width:1;stroke-linecap:butt;stroke-linejoin:miter;stroke:rgb(0%,0%,0%);stroke-opacity:1;stroke-miterlimit:10;" d="M 103.683594 132.421875 C 103.683594 137.945312 99.207031 142.421875 93.683594 142.421875 C 88.160156 142.421875 83.683594 137.945312 83.683594 132.421875 C 83.683594 126.898438 88.160156 122.421875 93.683594 122.421875 C 99.207031 122.421875 103.683594 126.898438 103.683594 132.421875 "/>
<path style="fill-rule:nonzero;fill:rgb(100%,0%,0%);fill-opacity:1;stroke-width:1;stroke-linecap:butt;stroke-linejoin:miter;stroke:rgb(0%,0%,0%);stroke-opacity:1;stroke-miterlimit:10;" d="M 121.378906 20 C 121.378906 25.523438 116.902344 30 111.378906 30 C 105.855469 30 101.378906 25.523438 101.378906 20 C 101.378906 14.476562 105.855469 10 111.378906 10 C 116.902344 10 121.378906 14.476562 121.378906 20 "/>
<path style="fill-rule:nonzero;fill:rgb(100%,0%,0%);fill-opacity:1;stroke-width:1;stroke-linecap:butt;stroke-linejoin:miter;stroke:rgb(0%,0%,0%);stroke-opacity:1;stroke-miterlimit:10;" d="M 129.964844 81.195312 C 129.964844 86.71875 125.488281 91.195312 119.964844 91.195312 C 114.445312 91.195312 109.964844 86.71875 109.964844 81.195312 C 109.964844 75.671875 114.445312 71.195312 119.964844 71.195312 C 125.488281 71.195312 129.964844 75.671875 129.964844 81.195312 "/>
<path style="fill-rule:nonzero;fill:rgb(100%,0%,0%);fill-opacity:1;stroke-width:1;stroke-linecap:butt;stroke-linejoin:miter;stroke:rgb(0%,0%,0%);stroke-opacity:1;stroke-miterlimit:10;" d="M 140.0625 74.777344 C 140.0625 80.300781 135.585938 84.777344 130.0625 84.777344 C 124.539062 84.777344 120.0625 80.300781 120.0625 74.777344 C 120.0625 69.253906 124.539062 64.777344 130.0625 64.777344 C 135.585938 64.777344 140.0625 69.253906 140.0625 74.777344 "/>
<path style="fill-rule:nonzero;fill:rgb(100%,0%,0%);fill-opacity:1;stroke-width:1;stroke-linecap:butt;stroke-linejoin:miter;stroke:rgb(0%,0%,0%);stroke-opacity:1;stroke-miterlimit:10;" d="M 140.640625 57.730469 C 140.640625 63.253906 136.160156 67.730469 130.640625 67.730469 C 125.117188 67.730469 120.640625 63.253906 120.640625 57.730469 C 120.640625 52.210938 125.117188 47.730469 130.640625 47.730469 C 136.160156 47.730469 140.640625 52.210938 140.640625 57.730469 "/>
<path style="fill-rule:nonzero;fill:rgb(100%,0%,0%);fill-opacity:1;stroke-width:1;stroke-linecap:butt;stroke-linejoin:miter;stroke:rgb(0%,0%,0%);stroke-opacity:1;stroke-miterlimit:10;" d="M 166.4375 65.28125 C 166.4375 70.804688 161.960938 75.28125 156.4375 75.28125 C 150.914062 75.28125 146.4375 70.804688 146.4375 65.28125 C 146.4375 59.757812 150.914062 55.28125 156.4375 55.28125 C 161.960938 55.28125 166.4375 59.757812 166.4375 65.28125 "/>
<path style="fill-rule:nonzero;fill:rgb(100%,0%,0%);fill-opacity:1;stroke-width:1;stroke-linecap:butt;stroke-linejoin:miter;stroke:rgb(0%,0%,0%);stroke-opacity:1;stroke-miterlimit:10;" d="M 188.109375 128.511719 C 188.109375 134.035156 183.628906 138.511719 178.109375 138.511719 C 172.585938 138.511719 168.109375 134.035156 168.109375 128.511719 C 168.109375 122.988281 172.585938 118.511719 178.109375 118.511719 C 183.628906 118.511719 188.109375 122.988281 188.109375 128.511719 "/>
<path style="fill-rule:nonzero;fill:rgb(100%,0%,0%);fill-opacity:1;stroke-width:1;stroke-linecap:butt;stroke-linejoin:miter;stroke:rgb(0%,0%,0%);stroke-opacity:1;stroke-miterlimit:10;" d="M 189.109375 68.578125 C 189.109375 74.101562 184.632812 78.578125 179.109375 78.578125 C 173.585938 78.578125 169.109375 74.101562 169.109375 68.578125 C 169.109375 63.054688 173.585938 58.578125 179.109375 58.578125 C 184.632812 58.578125 189.109375 63.054688 189.109375 68.578125 "/>
<path style="fill-rule:nonzero;fill:rgb(100%,0%,0%);fill-opacity:1;stroke-width:1;stroke-linecap:butt;stroke-linejoin:miter;stroke:rgb(0%,0%,0%);stroke-opacity:1;stroke-miterlimit:10;" d="M 190 20.640625 C 190 26.164062 185.523438 30.640625 180 30.640625 C 174.476562 30.640625 170 26.164062 170 20.640625 C 170 15.117188 174.476562 10.640625 180 10.640625 C 185.523438 10.640625 190 15.117188 190 20.640625 "/>
</g>
</svg>
