<?xml version="1.0" encoding="UTF-8"?>
<svg xmlns="http://www.w3.org/2000/svg" xmlns:xlink="http://www.w3.org/1999/xlink" width="200pt" height="200pt" viewBox="0 0 200 200" version="1.1">
<g id="surface8">
<rect x="0" y="0" width="200" height="200" style="fill:rgb(100%,100%,100%);fill-opacity:1;stroke:none;"/>
<path style="fill:none;stroke-width:1;stroke-linecap:butt;stroke-linejoin:miter;stroke:rgb(26.666667%,26.666667%,26.666667%);stroke-opacity:1;stroke-miterlimit:10;" d="M 20 180 L 36.816406 138.535156 "/>
<path style="fill:none;stroke-width:1;stroke-linecap:butt;stroke-linejoin:miter;stroke:rgb(26.666667%,26.666667%,26.666667%);stroke-opacity:1;stroke-miterlimit:10;" d="M 20 180 L 50.226562 160.003906 "/>
<path style="fill:none;stroke-width:1;stroke-linecap:butt;stroke-linejoin:miter;stroke:rgb(26.666667%,26.666667%,26.666667%);stroke-opacity:1;stroke-miterlimit:10;" d="M 26.371094 106.039062 L 31.242188 94.027344 "/>
<path style="fill:none;stroke-width:1;stroke-linecap:butt;stroke-linejoin:miter;stroke:rgb(26.666667%,26.666667%,26.666667%);stroke-opacity:1;stroke-miterlimit:10;" d="M 26.371094 106.039062 L 36.816406 138.535156 "/>
<path style="fill:none;stroke-width:1;stroke-linecap:butt;stroke-linejoin:miter;stroke:rgb(26.666667%,26.666667%,26.666667%);stroke-opacity:1;stroke-miterlimit:10;" d="M 26.371094 106.039062 L 66.902344 117.523438 "/>
<path style="fill:none;stroke-width:1;stroke-linecap:butt;stroke-linejoin:miter;stroke:rgb(26.666667%,26.666667%,26.666667%);stroke-opacity:1;stroke-miterlimit:10;" d="M 31.242188 94.027344 L 36.816406 138.535156 "/>
<path style="fill:none;stroke-width:1;stroke-linecap:butt;stroke-linejoin:miter;stroke:rgb(26.666667%,26.666667%,26.666667%);stroke-opacity:1;stroke-miterlimit:10;" d="M 31.242188 94.027344 L 66.902344 117.523438 "/>
<path style="fill:none;stroke-width:1;stroke-linecap:butt;stroke-linejoin:miter;stroke:rgb(26.666667%,26.666667%,26.666667%);stroke-opacity:1;stroke-miterlimit:10;" d="M 36.816406 138.535156 L 50.226562 160.003906 "/>
<path style="fill:none;stroke-width:1;stroke-linecap:butt;stroke-linejoin:miter;stroke:rgb(26.666667%,26.666667%,26.666667%);stroke-opacity:1;stroke-miterlimit:10;" d="M 36.816406 138.535156 L 66.902344 117.523438 "/>
<path style="fill:none;stroke-width:1;stroke-linecap:butt;stroke-linejoin:miter;stroke:rgb(26.666667%,26.666667%,26.666667%);stroke-opacity:1;stroke-miterlimit:10;" d="M 40.1875 33.027344 L 45.558594 32.535156 "/>
<path style="fill:none;stroke-width:1;stroke-linecap:butt;stroke-linejoin:miter;stroke:rgb(26.666667%,26.666667%,26.666667%);stroke-opacity:1;stroke-miterlimit:10;" d="M 40.1875 33.027344 L 58.359375 35.703125 "/>
<path style="fill:none;stroke-width:1;stroke-linecap:butt;stroke-linejoin:miter;stroke:rgb(26.666667%,26.666667%,26.666667%);stroke-opacity:1;stroke-miterlimit:10;" d="M 45.558594 32.535156 L 58.359375 35.703125 "/>
<path style="fill:none;stroke-width:1;stroke-linecap:butt;stroke-linejoin:miter;stroke:rgb(26.666667%,26.666667%,26.666667%);stroke-opacity:1;stroke-miterlimit:10;" d="M 50.226562 160.003906 L 66.902344 117.523438 "/>
<path style="fill:none;stroke-width:1;stroke-linecap:butt;stroke-linejoin:miter;stroke:rgb(26.666667%,26.666667%,26.666667%);stroke-opacity:1;stroke-miterlimit:10;" d="M 58.359375 35.703125 L 92.382812 69.914062 "/>
<path style="fill:none;stroke-width:1;stroke-linecap:butt;stroke-linejoin:miter;stroke:rgb(26.666667%,26.666667%,26.666667%);stroke-opacity:1;stroke-miterlimit:10;" d="M 92.382812 69.914062 L 115.929688 70.800781 "/>
<path style="fill:none;stroke-width:1;stroke-linecap:butt;stroke-linejoin:miter;stroke:rgb(26.666667%,26.666667%,26.666667%);stroke-opacity:1;stroke-miterlimit:10;" d="M 119.613281 161.695312 L 124.25 139.644531 "/>
<path style="fill:none;stroke-width:1;stroke-linecap:butt;stroke-linejoin:miter;stroke:rgb(26.666667%,26.666667%,26.666667%);stroke-opacity:1;stroke-miterlimit:10;" d="M 119.613281 161.695312 L 144.421875 138.324219 "/>
<path style="fill:none;stroke-width:1;stroke-linecap:butt;stroke-linejoin:miter;stroke:rgb(26.666667%,26.666667%,26.666667%);stroke-opacity:1;stroke-miterlimit:10;" d="M 124.25 139.644531 L 144.421875 138.324219 "/>
<path style="fill:none;stroke-width:1;stroke-linecap:butt;stroke-linejoin:miter;stroke:rgb(26.666667%,26.666667%,26.666667%);stroke-opacity:1;stroke-miterlimit:10;" d="M 124.25 139.644531 L 173.75 149.425781 "/>
<path style="fill:none;stroke-width:1;stroke-linecap:butt;stroke-linejoin:miter;stroke:rgb(26.666667%,26.666667%,26.666667%);stroke-opacity:1;stroke-miterlimit:10;" d="M 144.421875 138.324219 L 173.75 149.425781 "/>
<path style="fill:none;stroke-width:1;stroke-linecap:butt;stroke-linejoin:miter;stroke:rgb(26.666667%,26.666667%,26.666667%);stroke-opacity:1;stroke-miterlimit:10;" d="M 144.421875 138.324219 L 174.65625 105.878906 "/>
<path style="fill:none;stroke-width:1;stroke-linecap:butt;stroke-linejoin:miter;stroke:rgb(26.666667%,26.666667%,26.666667%);stroke-opacity:1;stroke-miterlimit:10;" d="M 144.421875 138.324219 L 180 134.957031 "/>
<path style="fill:none;stroke-width:1;stroke-linecap:butt;stroke-linejoin:miter;stroke:rgb(26.666667%,26.666667%,26.666667%);stroke-opacity:1;stroke-miterlimit:10;" d="M 149.679688 20 L 151.191406 20.425781 "/>
<path style="fill:none;stroke-width:1;stroke-linecap:butt;stroke-linejoin:miter;stroke:rgb(26.666667%,26.666667%,26.666667%);stroke-opacity:1;stroke-miterlimit:10;" d="M 149.679688 20 L 170.15625 35.828125 "/>
<path style="fill:none;stroke-width:1;stroke-linecap:butt;stroke-linejoin:miter;stroke:rgb(26.666667%,26.666667%,26.666667%);stroke-opacity:1;stroke-miterlimit:10;" d="M 151.191406 20.425781 L 170.15625 35.828125 "/>
<path style="fill:none;stroke-width:1;stroke-linecap:butt;stroke-linejoin:miter;stroke:rgb(26.666667%,26.666667%,26.666667%);stroke-opacity:1;stroke-miterlimit:10;" d="M 173.75 149.425781 L 174.65625 105.878906 "/>
<path style="fill:none;stroke-width:1;stroke-linecap:butt;stroke-linejoin:miter;stroke:rgb(26.666667%,26.666667%,26.666667%);stroke-opacity:1;stroke-miterlimit:10;" d="M 173.75 149.425781 L 180 134.957031 "/>
<path style="fill:none;stroke-width:1;stroke-linecap:butt;stroke-linejoin:miter;stroke:rgb(26.666667%,26.666667%,26.666667%);stroke-opacity:1;stroke-miterlimit:10;" d="M 174.65625 105.878906 L 180 134.957031 "/>
<path style="fill-rule:nonzero;fill:rgb(100%,0%,0%);fill-opacity:1;stroke-width:1;stroke-linecap:butt;stroke-linejoin:miter;stroke:rgb(0%,0%,0%);stroke-opacity:1;stroke-miterlimit:10;" d="M 30 180 C 30 185.523438 25.523438 190 20 190 C 14.476562 190 10 185.523438 10 180 C 10 174.476562 14.476562 170 20 170 C 25.523438 170 30 174.476562 30 180 "/>
<path style="fill-rule:nonzero;fill:rgb(100%,0%,0%);fill-opacity:1;stroke-width:1;stroke-linecap:butt;stroke-linejoin:miter;stroke:rgb(0%,0%,0%);stroke-opacity:1;stroke-miterlimit:10;" d="M 36.371094 106.039062 C 36.371094 111.5625 31.894531 116.039062 26.371094 116.039062 C 20.847656 116.039062 16.371094 111.5625 16.371094 106.039062 C 16.371094 100.515625 20.847656 96.039062 26.371094 96.039062 C 31.894531 96.039062 36.371094 100.515625 36.371094 106.039062 "/>
<path style="fill-rule:nonzero;fill:rgb(100%,0%,0%);fill-opacity:1;stroke-width:1;stroke-linecap:butt;stroke-linejoin:miter;stroke:rgb(0%,0%,0%);stroke-opacity:1;stroke-miterlimit:10;" d="M 41.242188 94.027344 C 41.242188 99.550781 36.765625 104.027344 31.242188 104.027344 C 25.71875 104.027344 21.242188 99.550781 21.242188 94.027344 C 21.242188 88.503906 25.71875 84.027344 31.242188 84.027344 C 36.765625 84.027344 41.242188 88.503906 41.242188 94.027344 "/>
<path style="fill-rule:nonzero;fill:rgb(100%,0%,0%);fill-opacity:1;stroke-width:1;stroke-linecap:butt;stroke-linejoin:miter;stroke:rgb(0%,0%,0%);stroke-opacity:1;stroke-miterlimit:10;" d="M 46.816406 138.535156 C 46.816406 144.058594 42.339844 148.535156 36.816406 148.535156 C 31.296875 148.535156 26.816406 144.058594 26.816406 138.535156 C 26.816406 133.011719 31.296875 128.535156 36.816406 128.535156 C 42.339844 128.535156 46.816406 133.011719 46.816406 138.535156 "/>
<path style="fill-rule:nonzero;fill:rgb(100%,0%,0%);fill-opacity:1;stroke-width:1;stroke-linecap:butt;stroke-linejoin:miter;stroke:rgb(0%,0%,0%);stroke-opacity:1;stroke-miterlimit:10;" d="M 50.1875 33.027344 C 50.1875 38.550781 45.710938 43.027344 40.1875 43.027344 C 34.664062 43.027344 30.1875 38.550781 30.1875 33.027344 C 30.1875 27.503906 34.664062 23.027344 40.1875 23.027344 C 45.710938 23.027344 50.1875 27.503906 50.1875 33.027344 "/>
<path style="fill-rule:nonzero;fill:rgb(100%,0%,0%);fill-opacity:1;stroke-width:1;stroke-linecap:butt;stroke-linejoin:miter;stroke:rgb(0%,0%,0%);stroke-opacity:1;stroke-miterlimit:10;" d="M 55.558594 32.535156 C 55.558594 38.058594 51.082031 42.535156 45.558594 42.535156 C 40.039062 42.535156 35.558594 38.058594 35.558594 32.535156 C 35.558594 27.015625 40.039062 22.535156 45.558594 22.535156 C 51.082031 22.535156 55.558594 27.015625 55.558594 32.535156 "/>
<path style="fill-rule:nonzero;fill:rgb(100%,0%,0%);fill-opacity:1;stroke-width:1;stroke-linecap:butt;stroke-linejoin:miter;stroke:rgb(0%,0%,0%);stroke-opacity:1;stroke-miterlimit:10;" d="M 60.226562 160.003906 C 60.226562 165.527344 55.75 170.003906 50.226562 170.003906 C 44.703125 170.003906 40.226562 165.527344 40.226562 160.003906 C 40.226562 154.480469 44.703125 150.003906 50.226562 150.003906 C 55.75 150.003906 60.226562 154.480469 60.226562 160.003906 "/>
<path style="fill-rule:nonzero;fill:rgb(100%,0%,0%);fill-opacity:1;stroke-width:1;stroke-linecap:butt;stroke-linejoin:miter;stroke:rgb(0%,0%,0%);stroke-opacity:1;stroke-miterlimit:10;" d="M 68.359375 35.703125 C 68.359375 41.226562 63.882812 45.703125 58.359375 45.703125 C 52.839844 45.703125 48.359375 41.226562 48.359375 35.703125 C 48.359375 30.179688 52.839844 25.703125 58.359375 25.703125 C 63.882812 25.703125 68.359375 30.179688 68.359375 35.703125 "/>
<path style="fill-rule:nonzero;fill:rgb(100%,0%,0%);fill-opacity:1;stroke-width:1;stroke-linecap:butt;stroke-linejoin:miter;stroke:rgb(0%,0%,0%);stroke-opacity:1;stroke-miterlimit:10;" d="M 76.902344 117.523438 C 76.902344 123.042969 72.425781 127.523438 66.902344 127.523438 C 61.378906 127.523438 56.902344 123.042969 56.902344 117.523438 C 56.902344 112 61.378906 107.523438 66.902344 107.523438 C 72.425781 107.523438 76.902344 112 76.902344 117.523438 "/>
<path style="fill-rule:nonzero;fill:rgb(100%,0%,0%);fill-opacity:1;stroke-width:1;stroke-linecap:butt;stroke-linejoin:miter;stroke:rgb(0%,0%,0%);stroke-opacity:1;stroke-miterlimit:10;" d="M 102.382812 69.914062 C 102.382812 75.433594 97.90625 79.914062 92.382812 79.914062 C 86.859375 79.914062 82.382812 75.433594 82.382812 69.914062 C 82.382812 64.390625 86.859375 59.914062 92.382812 59.914062 C 97.90625 59.914062 102.382812 64.390625 102.382812 69.914062 "/>
<path style="fill-rule:nonzero;fill:rgb(100%,0%,0%);fill-opacity:1;stroke-width:1;stroke-linecap:butt;stroke-linejoin:miter;stroke:rgb(0%,0%,0%);stroke-opacity:1;stroke-miterlimit:10;" d="M 125.929688 70.800781 C 125.929688 76.324219 121.453125 80.800781 115.929688 80.800781 C 110.410156 80.800781 105.929688 76.324219 105.929688 70.800781 C 105.929688 65.277344 110.410156 60.800781 115.929688 60.800781 C 121.453125 60.800781 125.929688 65.277344 125.929688 70.800781 "/>
<path style="fill-rule:nonzero;fill:rgb(100%,0%,0%);fill-opacity:1;stroke-width:1;stroke-linecap:butt;stroke-linejoin:miter;stroke:rgb(0%,0%,0%);stroke-opacity:1;stroke-miterlimit:10;" d="M 129.613281 161.695312 C 129.613281 167.21875 125.136719 171.695312 119.613281 171.695312 C 114.089844 171.695312 109.613281 167.21875 109.613281 161.695312 C 109.613281 156.171875 114.089844 151.695312 119.613281 151.695312 C 125.136719 151.695312 129.613281 156.171875 129.613281 161.695312 "/>
<path style="fill-rule:nonzero;fill:rgb(100%,0%,0%);fill-opacity:1;stroke-width:1;stroke-linecap:butt;stroke-linejoin:miter;stroke:rgb(0%,0%,0%);stroke-opacity:1;stroke-miterlimit:10;" d="M 134.25 139.644531 C 134.25 145.167969 129.773438 149.644531 124.25 149.644531 C 118.730469 149.644531 114.25 145.167969 114.25 139.644531 C 114.25 134.125 118.730469 129.644531 124.25 129.644531 C 129.773438 129.644531 134.25 134.125 134.25 139.644531 "/>
<path style="fill-rule:nonzero;fill:rgb(100%,0%,0%);fill-opacity:1;stroke-width:1;stroke-linecap:butt;stroke-linejoin:miter;stroke:rgb(0%,0%,0%);stroke-opacity:1;stroke-miterlimit:10;" d="M 154.421875 138.324219 C 154.421875 143.847656 149.945312 148.324219 144.421875 148.324219 C 138.902344 148.324219 134.421875 143.847656 134.421875 138.324219 C 134.421875 132.800781 138.902344 128.324219 144.421875 128.324219 C 149.945312 128.324219 154.421875 132.800781 154.421875 138.324219 "/>
<path style="fill-rule:nonzero;fill:rgb(100%,0%,0%);fill-opacity:1;stroke-width:1;stroke-linecap:butt;stroke-linejoin:miter;stroke:rgb(0%,0%,0%);stroke-opacity:1;stroke-miterlimit:10;" d="M 159.679688 20 C 159.679688 25.523438 155.203125 30 149.679688 30 C 144.15625 30 139.679688 25.523438 139.679688 20 C 139.679688 14.476562 144.15625 10 149.679688 10 C 155.203125 10 159.679688 14.476562 159.679688 20 "/>
<path style="fill-rule:nonzero;fill:rgb(100%,0%,0%);fill-opacity:1;stroke-width:1;stroke-linecap:butt;stroke-linejoin:miter;stroke:rgb(0%,0%,0%);stroke-opacity:1;stroke-miterlimit:10;" d="M 161.191406 20.425781 C 161.191406 25.945312 156.714844 30.425781 151.191406 30.425781 C 145.667969 30.425781 141.191406 25.945312 141.191406 20.425781 C 141.191406 14.902344 145.667969 10.425781 151.191406 10.425781 C 156.714844 10.425781 161.191406 14.902344 161.191406 20.425781 "/>
<path style="fill-rule:nonzero;fill:rgb(100%,0%,0%);fill-opacity:1;stroke-width:1;stroke-linecap:butt;stroke-linejoin:miter;stroke:rgb(0%,0%,0%);stroke-opacity:1;stroke-miterlimit:10;" d="M 180.15625 35.828125 C 180.15625 41.351562 175.675781 45.828125 170.15625 45.828125 C 164.632812 45.828125 160.15625 41.351562 160.15625 35.828125 C 160.15625 30.304688 164.632812 25.828125 170.15625 25.828125 C 175.675781 25.828125 180.15625 30.304688 180.15625 35.828125 "/>
<path style="fill-rule:nonzero;fill:rgb(100%,0%,0%);fill-opacity:1;stroke-width:1;stroke-linecap:butt;stroke-linejoin:miter;stroke:rgb(0%,0%,0%);stroke-opacity:1;stroke-miterlimit:10;" d="M 183.75 149.425781 C 183.75 154.945312 179.273438 159.425781 173.75 159.425781 C 168.230469 159.425781 163.75 154.945312 163.75 149.425781 C 163.75 143.902344 168.230469 139.425781 173.75 139.425781 C 179.273438 139.425781 183.75 143.902344 183.75 149.425781 "/>
<path style="fill-rule:nonzero;fill:rgb(100%,0%,0%);fill-opacity:1;stroke-width:1;stroke-linecap:butt;stroke-linejoin:miter;stroke:rgb(0%,0%,0%);stroke-opacity:1;stroke-miterlimit:10;" d="M 184.65625 105.878906 C 184.65625 111.402344 180.179688 115.878906 174.65625 115.878906 C 169.132812 115.878906 164.65625 111.402344 164.65625 105.878906 C 164.65625 100.359375 169.132812 95.878906 174.65625 95.878906 C 180.179688 95.878906 184.65625 100.359375 184.65625 105.878906 "/>
<path style="fill-rule:nonzero;fill:rgb(100%,0%,0%);fill-opacity:1;stroke-width:1;stroke-linecap:butt;stroke-linejoin:miter;stroke:rgb(0%,0%,0%);stroke-opacity:1;stroke-miterlimit:10;" d="M 190 134.957031 C 190 140.480469 185.523438 144.957031 180 144.957031 C 174.476562 144.957031 170 140.480469 170 134.957031 C 170 129.4375 174.476562 124.957031 180 124.957031 C 185.523438 124.957031 190 129.4375 190 134.957031 "/>
</g>
</svg>
