<?xml version="1.0" encoding="UTF-8"?>
<svg xmlns="http://www.w3.org/2000/svg" xmlns:xlink="http://www.w3.org/1999/xlink" width="200pt" height="200pt" viewBox="0 0 200 200" version="1.1">
<g id="surface14">
<rect x="0" y="0" width="200" height="200" style="fill:rgb(100%,100%,100%);fill-opacity:1;stroke:none;"/>
<path style="fill:none;stroke-width:1;stroke-linecap:butt;stroke-linejoin:miter;stroke:rgb(26.666667%,26.666667%,26.666667%);stroke-opacity:1;stroke-miterlimit:10;" d="M 171.222656 91.183594 L 166.238281 141.234375 "/>
<path style="fill:none;stroke-width:1;stroke-linecap:butt;stroke-linejoin:miter;stroke:rgb(26.666667%,26.666667%,26.666667%);stroke-opacity:1;stroke-miterlimit:10;" d="M 65.867188 99.84375 L 135.957031 102.394531 "/>
<path style="fill:none;stroke-width:1;stroke-linecap:butt;stroke-linejoin:miter;stroke:rgb(26.666667%,26.666667%,26.666667%);stroke-opacity:1;stroke-miterlimit:10;" d="M 166.238281 141.234375 L 135.957031 102.394531 "/>
<path style="fill:none;stroke-width:1;stroke-linecap:butt;stroke-linejoin:miter;stroke:rgb(26.666667%,26.666667%,26.666667%);stroke-opacity:1;stroke-miterlimit:10;" d="M 166.238281 141.234375 L 132.109375 147.320312 "/>
<path style="fill:none;stroke-width:1;stroke-linecap:butt;stroke-linejoin:miter;stroke:rgb(26.666667%,26.666667%,26.666667%);stroke-opacity:1;stroke-miterlimit:10;" d="M 135.957031 102.394531 L 132.109375 147.320312 "/>
<path style="fill:none;stroke-width:1;stroke-linecap:butt;stroke-linejoin:miter;stroke:rgb(26.666667%,26.666667%,26.666667%);stroke-opacity:1;stroke-miterlimit:10;" d="M 46.945312 143.089844 L 111.917969 128.699219 "/>
<path style="fill:none;stroke-width:1;stroke-linecap:butt;stroke-linejoin:miter;stroke:rgb(26.666667%,26.666667%,26.666667%);stroke-opacity:1;stroke-miterlimit:10;" d="M 171.222656 91.183594 L 111.917969 128.699219 "/>
<path style="fill:none;stroke-width:1;stroke-linecap:butt;stroke-linejoin:miter;stroke:rgb(26.666667%,26.666667%,26.666667%);stroke-opacity:1;stroke-miterlimit:10;" d="M 166.238281 141.234375 L 111.917969 128.699219 "/>
<path style="fill:none;stroke-width:1;stroke-linecap:butt;stroke-linejoin:miter;stroke:rgb(26.666667%,26.666667%,26.666667%);stroke-opacity:1;stroke-miterlimit:10;" d="M 132.109375 147.320312 L 111.917969 128.699219 "/>
<path style="fill:none;stroke-width:1;stroke-linecap:butt;stroke-linejoin:miter;stroke:rgb(26.666667%,26.666667%,26.666667%);stroke-opacity:1;stroke-miterlimit:10;" d="M 65.867188 99.84375 L 81.214844 146.320312 "/>
<path style="fill:none;stroke-width:1;stroke-linecap:butt;stroke-linejoin:miter;stroke:rgb(26.666667%,26.666667%,26.666667%);stroke-opacity:1;stroke-miterlimit:10;" d="M 132.109375 147.320312 L 81.214844 146.320312 "/>
<path style="fill:none;stroke-width:1;stroke-linecap:butt;stroke-linejoin:miter;stroke:rgb(26.666667%,26.666667%,26.666667%);stroke-opacity:1;stroke-miterlimit:10;" d="M 111.917969 128.699219 L 64.855469 75.449219 "/>
<path style="fill:none;stroke-width:1;stroke-linecap:butt;stroke-linejoin:miter;stroke:rgb(26.666667%,26.666667%,26.666667%);stroke-opacity:1;stroke-miterlimit:10;" d="M 171.222656 91.183594 L 180 63.453125 "/>
<path style="fill:none;stroke-width:1;stroke-linecap:butt;stroke-linejoin:miter;stroke:rgb(26.666667%,26.666667%,26.666667%);stroke-opacity:1;stroke-miterlimit:10;" d="M 135.957031 102.394531 L 180 63.453125 "/>
<path style="fill:none;stroke-width:1;stroke-linecap:butt;stroke-linejoin:miter;stroke:rgb(26.666667%,26.666667%,26.666667%);stroke-opacity:1;stroke-miterlimit:10;" d="M 171.222656 91.183594 L 126.25 70.015625 "/>
<path style="fill:none;stroke-width:1;stroke-linecap:butt;stroke-linejoin:miter;stroke:rgb(26.666667%,26.666667%,26.666667%);stroke-opacity:1;stroke-miterlimit:10;" d="M 64.855469 75.449219 L 126.25 70.015625 "/>
<path style="fill:none;stroke-width:1;stroke-linecap:butt;stroke-linejoin:miter;stroke:rgb(26.666667%,26.666667%,26.666667%);stroke-opacity:1;stroke-miterlimit:10;" d="M 180 63.453125 L 126.25 70.015625 "/>
<path style="fill:none;stroke-width:1;stroke-linecap:butt;stroke-linejoin:miter;stroke:rgb(26.666667%,26.666667%,26.666667%);stroke-opacity:1;stroke-miterlimit:10;" d="M 65.867188 99.84375 L 104.414062 89.191406 "/>
<path style="fill:none;stroke-width:1;stroke-linecap:butt;stroke-linejoin:miter;stroke:rgb(26.666667%,26.666667%,26.666667%);stroke-opacity:1;stroke-miterlimit:10;" d="M 132.109375 147.320312 L 104.414062 89.191406 "/>
<path style="fill:none;stroke-width:1;stroke-linecap:butt;stroke-linejoin:miter;stroke:rgb(26.666667%,26.666667%,26.666667%);stroke-opacity:1;stroke-miterlimit:10;" d="M 81.214844 146.320312 L 104.414062 89.191406 "/>
<path style="fill:none;stroke-width:1;stroke-linecap:butt;stroke-linejoin:miter;stroke:rgb(26.666667%,26.666667%,26.666667%);stroke-opacity:1;stroke-miterlimit:10;" d="M 109.0625 24.046875 L 104.414062 89.191406 "/>
<path style="fill:none;stroke-width:1;stroke-linecap:butt;stroke-linejoin:miter;stroke:rgb(26.666667%,26.666667%,26.666667%);stroke-opacity:1;stroke-miterlimit:10;" d="M 46.945312 143.089844 L 85.644531 118.578125 "/>
<path style="fill:none;stroke-width:1;stroke-linecap:butt;stroke-linejoin:miter;stroke:rgb(26.666667%,26.666667%,26.666667%);stroke-opacity:1;stroke-miterlimit:10;" d="M 65.867188 99.84375 L 85.644531 118.578125 "/>
<path style="fill:none;stroke-width:1;stroke-linecap:butt;stroke-linejoin:miter;stroke:rgb(26.666667%,26.666667%,26.666667%);stroke-opacity:1;stroke-miterlimit:10;" d="M 81.214844 146.320312 L 85.644531 118.578125 "/>
<path style="fill:none;stroke-width:1;stroke-linecap:butt;stroke-linejoin:miter;stroke:rgb(26.666667%,26.666667%,26.666667%);stroke-opacity:1;stroke-miterlimit:10;" d="M 126.25 70.015625 L 85.644531 118.578125 "/>
<path style="fill:none;stroke-width:1;stroke-linecap:butt;stroke-linejoin:miter;stroke:rgb(26.666667%,26.666667%,26.666667%);stroke-opacity:1;stroke-miterlimit:10;" d="M 104.414062 89.191406 L 85.644531 118.578125 "/>
<path style="fill:none;stroke-width:1;stroke-linecap:butt;stroke-linejoin:miter;stroke:rgb(26.666667%,26.666667%,26.666667%);stroke-opacity:1;stroke-miterlimit:10;" d="M 132.109375 147.320312 L 104.085938 180 "/>
<path style="fill:none;stroke-width:1;stroke-linecap:butt;stroke-linejoin:miter;stroke:rgb(26.666667%,26.666667%,26.666667%);stroke-opacity:1;stroke-miterlimit:10;" d="M 85.644531 118.578125 L 104.085938 180 "/>
<path style="fill:none;stroke-width:1;stroke-linecap:butt;stroke-linejoin:miter;stroke:rgb(26.666667%,26.666667%,26.666667%);stroke-opacity:1;stroke-miterlimit:10;" d="M 109.0625 24.046875 L 70.058594 20 "/>
<path style="fill:none;stroke-width:1;stroke-linecap:butt;stroke-linejoin:miter;stroke:rgb(26.666667%,26.666667%,26.666667%);stroke-opacity:1;stroke-miterlimit:10;" d="M 46.945312 143.089844 L 20 101.023438 "/>
<path style="fill:none;stroke-width:1;stroke-linecap:butt;stroke-linejoin:miter;stroke:rgb(26.666667%,26.666667%,26.666667%);stroke-opacity:1;stroke-miterlimit:10;" d="M 65.867188 99.84375 L 20 101.023438 "/>
<path style="fill:none;stroke-width:1;stroke-linecap:butt;stroke-linejoin:miter;stroke:rgb(26.666667%,26.666667%,26.666667%);stroke-opacity:1;stroke-miterlimit:10;" d="M 64.855469 75.449219 L 20 101.023438 "/>
<path style="fill:none;stroke-width:1;stroke-linecap:butt;stroke-linejoin:miter;stroke:rgb(26.666667%,26.666667%,26.666667%);stroke-opacity:1;stroke-miterlimit:10;" d="M 171.222656 91.183594 L 148.253906 44.304688 "/>
<path style="fill:none;stroke-width:1;stroke-linecap:butt;stroke-linejoin:miter;stroke:rgb(26.666667%,26.666667%,26.666667%);stroke-opacity:1;stroke-miterlimit:10;" d="M 109.0625 24.046875 L 148.253906 44.304688 "/>
<path style="fill:none;stroke-width:1;stroke-linecap:butt;stroke-linejoin:miter;stroke:rgb(26.666667%,26.666667%,26.666667%);stroke-opacity:1;stroke-miterlimit:10;" d="M 104.414062 89.191406 L 148.253906 44.304688 "/>
<path style="fill:none;stroke-width:1;stroke-linecap:butt;stroke-linejoin:miter;stroke:rgb(26.666667%,26.666667%,26.666667%);stroke-opacity:1;stroke-miterlimit:10;" d="M 171.222656 91.183594 L 161.429688 114.84375 "/>
<path style="fill:none;stroke-width:1;stroke-linecap:butt;stroke-linejoin:miter;stroke:rgb(26.666667%,26.666667%,26.666667%);stroke-opacity:1;stroke-miterlimit:10;" d="M 166.238281 141.234375 L 161.429688 114.84375 "/>
<path style="fill:none;stroke-width:1;stroke-linecap:butt;stroke-linejoin:miter;stroke:rgb(26.666667%,26.666667%,26.666667%);stroke-opacity:1;stroke-miterlimit:10;" d="M 132.109375 147.320312 L 161.429688 114.84375 "/>
<path style="fill:none;stroke-width:1;stroke-linecap:butt;stroke-linejoin:miter;stroke:rgb(26.666667%,26.666667%,26.666667%);stroke-opacity:1;stroke-miterlimit:10;" d="M 65.867188 99.84375 L 97.578125 70.835938 "/>
<path style="fill:none;stroke-width:1;stroke-linecap:butt;stroke-linejoin:miter;stroke:rgb(26.666667%,26.666667%,26.666667%);stroke-opacity:1;stroke-miterlimit:10;" d="M 135.957031 102.394531 L 97.578125 70.835938 "/>
<path style="fill:none;stroke-width:1;stroke-linecap:butt;stroke-linejoin:miter;stroke:rgb(26.666667%,26.666667%,26.666667%);stroke-opacity:1;stroke-miterlimit:10;" d="M 64.855469 75.449219 L 97.578125 70.835938 "/>
<path style="fill:none;stroke-width:1;stroke-linecap:butt;stroke-linejoin:miter;stroke:rgb(26.666667%,26.666667%,26.666667%);stroke-opacity:1;stroke-miterlimit:10;" d="M 85.644531 118.578125 L 97.578125 70.835938 "/>
<path style="fill:none;stroke-width:1;stroke-linecap:butt;stroke-linejoin:miter;stroke:rgb(26.666667%,26.666667%,26.666667%);stroke-opacity:1;stroke-miterlimit:10;" d="M 70.058594 20 L 97.578125 70.835938 "/>
<path style="fill:none;stroke-width:1;stroke-linecap:butt;stroke-linejoin:miter;stroke:rgb(26.666667%,26.666667%,26.666667%);stroke-opacity:1;stroke-miterlimit:10;" d="M 161.429688 114.84375 L 97.578125 70.835938 "/>
<path style="fill-rule:nonzero;fill:rgb(100%,0%,0%);fill-opacity:1;stroke-width:1;stroke-linecap:butt;stroke-linejoin:miter;stroke:rgb(0%,0%,0%);stroke-opacity:1;stroke-miterlimit:10;" d="M 56.945312 143.089844 C 56.945312 148.613281 52.464844 153.089844 46.945312 153.089844 C 41.421875 153.089844 36.945312 148.613281 36.945312 143.089844 C 36.945312 137.566406 41.421875 133.089844 46.945312 133.089844 C 52.464844 133.089844 56.945312 137.566406 56.945312 143.089844 "/>
<path style="fill-rule:nonzero;fill:rgb(100%,0%,0%);fill-opacity:1;stroke-width:1;stroke-linecap:butt;stroke-linejoin:miter;stroke:rgb(0%,0%,0%);stroke-opacity:1;stroke-miterlimit:10;" d="M 181.222656 91.183594 C 181.222656 96.707031 176.742188 101.183594 171.222656 101.183594 C 165.699219 101.183594 161.222656 96.707031 161.222656 91.183594 C 161.222656 85.660156 165.699219 81.183594 171.222656 81.183594 C 176.742188 81.183594 181.222656 85.660156 181.222656 91.183594 "/>
<path style="fill-rule:nonzero;fill:rgb(100%,0%,0%);fill-opacity:1;stroke-width:1;stroke-linecap:butt;stroke-linejoin:miter;stroke:rgb(0%,0%,0%);stroke-opacity:1;stroke-miterlimit:10;" d="M 75.867188 99.84375 C 75.867188 105.367188 71.390625 109.84375 65.867188 109.84375 C 60.34375 109.84375 55.867188 105.367188 55.867188 99.84375 C 55.867188 94.324219 60.34375 89.84375 65.867188 89.84375 C 71.390625 89.84375 75.867188 94.324219 75.867188 99.84375 "/>
<path style="fill-rule:nonzero;fill:rgb(100%,0%,0%);fill-opacity:1;stroke-width:1;stroke-linecap:butt;stroke-linejoin:miter;stroke:rgb(0%,0%,0%);stroke-opacity:1;stroke-miterlimit:10;" d="M 176.238281 141.234375 C 176.238281 146.757812 171.757812 151.234375 166.238281 151.234375 C 160.714844 151.234375 156.238281 146.757812 156.238281 141.234375 C 156.238281 135.714844 160.714844 131.234375 166.238281 131.234375 C 171.757812 131.234375 176.238281 135.714844 176.238281 141.234375 "/>
<path style="fill-rule:nonzero;fill:rgb(100%,0%,0%);fill-opacity:1;stroke-width:1;stroke-linecap:butt;stroke-linejoin:miter;stroke:rgb(0%,0%,0%);stroke-opacity:1;stroke-miterlimit:10;" d="M 145.957031 102.394531 C 145.957031 107.917969 141.476562 112.394531 135.957031 112.394531 C 130.433594 112.394531 125.957031 107.917969 125.957031 102.394531 C 125.957031 96.871094 130.433594 92.394531 135.957031 92.394531 C 141.476562 92.394531 145.957031 96.871094 145.957031 102.394531 "/>
<path style="fill-rule:nonzero;fill:rgb(100%,0%,0%);fill-opacity:1;stroke-width:1;stroke-linecap:butt;stroke-linejoin:miter;stroke:rgb(0%,0%,0%);stroke-opacity:1;stroke-miterlimit:10;" d="M 142.109375 147.320312 C 142.109375 152.84375 137.632812 157.320312 132.109375 157.320312 C 126.585938 157.320312 122.109375 152.84375 122.109375 147.320312 C 122.109375 141.800781 126.585938 137.320312 132.109375 137.320312 C 137.632812 137.320312 142.109375 141.800781 142.109375 147.320312 "/>
<path style="fill-rule:nonzero;fill:rgb(100%,0%,0%);fill-opacity:1;stroke-width:1;stroke-linecap:butt;stroke-linejoin:miter;stroke:rgb(0%,0%,0%);stroke-opacity:1;stroke-miterlimit:10;" d="M 121.917969 128.699219 C 121.917969 134.222656 117.441406 138.699219 111.917969 138.699219 C 106.394531 138.699219 101.917969 134.222656 101.917969 128.699219 C 101.917969 123.175781 106.394531 118.699219 111.917969 118.699219 C 117.441406 118.699219 121.917969 123.175781 121.917969 128.699219 "/>
<path style="fill-rule:nonzero;fill:rgb(100%,0%,0%);fill-opacity:1;stroke-width:1;stroke-linecap:butt;stroke-linejoin:miter;stroke:rgb(0%,0%,0%);stroke-opacity:1;stroke-miterlimit:10;" d="M 91.214844 146.320312 C 91.214844 151.84375 86.738281 156.320312 81.214844 156.320312 C 75.691406 156.320312 71.214844 151.84375 71.214844 146.320312 C 71.214844 140.796875 75.691406 136.320312 81.214844 136.320312 C 86.738281 136.320312 91.214844 140.796875 91.214844 146.320312 "/>
<path style="fill-rule:nonzero;fill:rgb(100%,0%,0%);fill-opacity:1;stroke-width:1;stroke-linecap:butt;stroke-linejoin:miter;stroke:rgb(0%,0%,0%);stroke-opacity:1;stroke-miterlimit:10;" d="M 74.855469 75.449219 C 74.855469 80.972656 70.378906 85.449219 64.855469 85.449219 C 59.332031 85.449219 54.855469 80.972656 54.855469 75.449219 C 54.855469 69.925781 59.332031 65.449219 64.855469 65.449219 C 70.378906 65.449219 74.855469 69.925781 74.855469 75.449219 "/>
<path style="fill-rule:nonzero;fill:rgb(100%,0%,0%);fill-opacity:1;stroke-width:1;stroke-linecap:butt;stroke-linejoin:miter;stroke:rgb(0%,0%,0%);stroke-opacity:1;stroke-miterlimit:10;" d="M 119.0625 24.046875 C 119.0625 29.570312 114.585938 34.046875 109.0625 34.046875 C 103.539062 34.046875 99.0625 29.570312 99.0625 24.046875 C 99.0625 18.523438 103.539062 14.046875 109.0625 14.046875 C 114.585938 14.046875 119.0625 18.523438 119.0625 24.046875 "/>
<path style="fill-rule:nonzero;fill:rgb(100%,0%,0%);fill-opacity:1;stroke-width:1;stroke-linecap:butt;stroke-linejoin:miter;stroke:rgb(0%,0%,0%);stroke-opacity:1;stroke-miterlimit:10;" d="M 190 63.453125 C 190 68.976562 185.523438 73.453125 180 73.453125 C 174.476562 73.453125 170 68.976562 170 63.453125 C 170 57.929688 174.476562 53.453125 180 53.453125 C 185.523438 53.453125 190 57.929688 190 63.453125 "/>
<path style="fill-rule:nonzero;fill:rgb(100%,0%,0%);fill-opacity:1;stroke-width:1;stroke-linecap:butt;stroke-linejoin:miter;stroke:rgb(0%,0%,0%);stroke-opacity:1;stroke-miterlimit:10;" d="M 136.25 70.015625 C 136.25 75.539062 131.773438 80.015625 126.25 80.015625 C 120.730469 80.015625 116.25 75.539062 116.25 70.015625 C 116.25 64.492188 120.730469 60.015625 126.25 60.015625 C 131.773438 60.015625 136.25 64.492188 136.25 70.015625 "/>
<path style="fill-rule:nonzero;fill:rgb(100%,0%,0%);fill-opacity:1;stroke-width:1;stroke-linecap:butt;stroke-linejoin:miter;stroke:rgb(0%,0%,0%);stroke-opacity:1;stroke-miterlimit:10;" d="M 114.414062 89.191406 C 114.414062 94.714844 109.9375 99.191406 104.414062 99.191406 C 98.890625 99.191406 94.414062 94.714844 94.414062 89.191406 C 94.414062 83.667969 98.890625 79.191406 104.414062 79.191406 C 109.9375 79.191406 114.414062 83.667969 114.414062 89.191406 "/>
<path style="fill-rule:nonzero;fill:rgb(100%,0%,0%);fill-opacity:1;stroke-width:1;stroke-linecap:butt;stroke-linejoin:miter;stroke:rgb(0%,0%,0%);stroke-opacity:1;stroke-miterlimit:10;" d="M 95.644531 118.578125 C 95.644531 124.097656 91.167969 128.578125 85.644531 128.578125 C 80.121094 128.578125 75.644531 124.097656 75.644531 118.578125 C 75.644531 113.054688 80.121094 108.578125 85.644531 108.578125 C 91.167969 108.578125 95.644531 113.054688 95.644531 118.578125 "/>
<path style="fill-rule:nonzero;fill:rgb(100%,0%,0%);fill-opacity:1;stroke-width:1;stroke-linecap:butt;stroke-linejoin:miter;stroke:rgb(0%,0%,0%);stroke-opacity:1;stroke-miterlimit:10;" d="M 114.085938 180 C 114.085938 185.523438 109.609375 190 104.085938 190 C 98.5625 190 94.085938 185.523438 94.085938 180 C 94.085938 174.476562 98.5625 170 104.085938 170 C 109.609375 170 114.085938 174.476562 114.085938 180 "/>
<path style="fill-rule:nonzero;fill:rgb(100%,0%,0%);fill-opacity:1;stroke-width:1;stroke-linecap:butt;stroke-linejoin:miter;stroke:rgb(0%,0%,0%);stroke-opacity:1;stroke-miterlimit:10;" d="M 80.058594 20 C 80.058594 25.523438 75.582031 30 70.058594 30 C 64.539062 30 60.058594 25.523438 60.058594 20 C 60.058594 14.476562 64.539062 10 70.058594 10 C 75.582031 10 80.058594 14.476562 80.058594 20 "/>
<path style="fill-rule:nonzero;fill:rgb(100%,0%,0%);fill-opacity:1;stroke-width:1;stroke-linecap:butt;stroke-linejoin:miter;stroke:rgb(0%,0%,0%);stroke-opacity:1;stroke-miterlimit:10;" d="M 30 101.023438 C 30 106.546875 25.523438 111.023438 20 111.023438 C 14.476562 111.023438 10 106.546875 10 101.023438 C 10 95.503906 14.476562 91.023438 20 91.023438 C 25.523438 91.023438 30 95.503906 30 101.023438 "/>
<path style="fill-rule:nonzero;fill:rgb(100%,0%,0%);fill-opacity:1;stroke-width:1;stroke-linecap:butt;stroke-linejoin:miter;stroke:rgb(0%,0%,0%);stroke-opacity:1;stroke-miterlimit:10;" d="M 158.253906 44.304688 C 158.253906 49.828125 153.777344 54.304688 148.253906 54.304688 C 142.730469 54.304688 138.253906 49.828125 138.253906 44.304688 C 138.253906 38.78125 142.730469 34.304688 148.253906 34.304688 C 153.777344 34.304688 158.253906 38.78125 158.253906 44.304688 "/>
<path style="fill-rule:nonzero;fill:rgb(100%,0%,0%);fill-opacity:1;stroke-width:1;stroke-linecap:butt;stroke-linejoin:miter;stroke:rgb(0%,0%,0%);stroke-opacity:1;stroke-miterlimit:10;" d="M 171.429688 114.84375 C 171.429688 120.367188 166.953125 124.84375 161.429688 124.84375 C 155.90625 124.84375 151.429688 120.367188 151.429688 114.84375 C 151.429688 109.320312 155.90625 104.84375 161.429688 104.84375 C 166.953125 104.84375 171.429688 109.320312 171.429688 114.84375 "/>
<path style="fill-rule:nonzero;fill:rgb(100%,0%,0%);fill-opacity:1;stroke-width:1;stroke-linecap:butt;stroke-linejoin:miter;stroke:rgb(0%,0%,0%);stroke-opacity:1;stroke-miterlimit:10;" d="M 107.578125 70.835938 C 107.578125 76.359375 103.101562 80.835938 97.578125 80.835938 C 92.054688 80.835938 87.578125 76.359375 87.578125 70.835938 C 87.578125 65.3125 92.054688 60.835938 97.578125 60.835938 C 103.101562 60.835938 107.578125 65.3125 107.578125 70.835938 "/>
</g>
</svg>
