<?xml version="1.0" encoding="UTF-8"?>
<svg xmlns="http://www.w3.org/2000/svg" xmlns:xlink="http://www.w3.org/1999/xlink" width="200pt" height="200pt" viewBox="0 0 200 200" version="1.1">
<g id="surface8">
<rect x="0" y="0" width="200" height="200" style="fill:rgb(100%,100%,100%);fill-opacity:1;stroke:none;"/>
<path style="fill:none;stroke-width:1;stroke-linecap:butt;stroke-linejoin:miter;stroke:rgb(26.666667%,26.666667%,26.666667%);stroke-opacity:1;stroke-miterlimit:10;" d="M 20 51.464844 L 57.871094 84.929688 "/>
<path style="fill:none;stroke-width:1;stroke-linecap:butt;stroke-linejoin:miter;stroke:rgb(26.666667%,26.666667%,26.666667%);stroke-opacity:1;stroke-miterlimit:10;" d="M 31.246094 180 L 57.753906 166.875 "/>
<path style="fill:none;stroke-width:1;stroke-linecap:butt;stroke-linejoin:miter;stroke:rgb(26.666667%,26.666667%,26.666667%);stroke-opacity:1;stroke-miterlimit:10;" d="M 44.007812 103 L 56.625 100.652344 "/>
<path style="fill:none;stroke-width:1;stroke-linecap:butt;stroke-linejoin:miter;stroke:rgb(26.666667%,26.666667%,26.666667%);stroke-opacity:1;stroke-miterlimit:10;" d="M 44.007812 103 L 57.871094 84.929688 "/>
<path style="fill:none;stroke-width:1;stroke-linecap:butt;stroke-linejoin:miter;stroke:rgb(26.666667%,26.666667%,26.666667%);stroke-opacity:1;stroke-miterlimit:10;" d="M 44.007812 103 L 66.214844 76.933594 "/>
<path style="fill:none;stroke-width:1;stroke-linecap:butt;stroke-linejoin:miter;stroke:rgb(26.666667%,26.666667%,26.666667%);stroke-opacity:1;stroke-miterlimit:10;" d="M 44.007812 103 L 66.386719 112.382812 "/>
<path style="fill:none;stroke-width:1;stroke-linecap:butt;stroke-linejoin:miter;stroke:rgb(26.666667%,26.666667%,26.666667%);stroke-opacity:1;stroke-miterlimit:10;" d="M 56.625 100.652344 L 57.871094 84.929688 "/>
<path style="fill:none;stroke-width:1;stroke-linecap:butt;stroke-linejoin:miter;stroke:rgb(26.666667%,26.666667%,26.666667%);stroke-opacity:1;stroke-miterlimit:10;" d="M 56.625 100.652344 L 66.214844 76.933594 "/>
<path style="fill:none;stroke-width:1;stroke-linecap:butt;stroke-linejoin:miter;stroke:rgb(26.666667%,26.666667%,26.666667%);stroke-opacity:1;stroke-miterlimit:10;" d="M 56.625 100.652344 L 66.386719 112.382812 "/>
<path style="fill:none;stroke-width:1;stroke-linecap:butt;stroke-linejoin:miter;stroke:rgb(26.666667%,26.666667%,26.666667%);stroke-opacity:1;stroke-miterlimit:10;" d="M 57.753906 166.875 L 88.207031 169.335938 "/>
<path style="fill:none;stroke-width:1;stroke-linecap:butt;stroke-linejoin:miter;stroke:rgb(26.666667%,26.666667%,26.666667%);stroke-opacity:1;stroke-miterlimit:10;" d="M 57.871094 84.929688 L 66.214844 76.933594 "/>
<path style="fill:none;stroke-width:1;stroke-linecap:butt;stroke-linejoin:miter;stroke:rgb(26.666667%,26.666667%,26.666667%);stroke-opacity:1;stroke-miterlimit:10;" d="M 57.871094 84.929688 L 66.386719 112.382812 "/>
<path style="fill:none;stroke-width:1;stroke-linecap:butt;stroke-linejoin:miter;stroke:rgb(26.666667%,26.666667%,26.666667%);stroke-opacity:1;stroke-miterlimit:10;" d="M 66.214844 76.933594 L 66.386719 112.382812 "/>
<path style="fill:none;stroke-width:1;stroke-linecap:butt;stroke-linejoin:miter;stroke:rgb(26.666667%,26.666667%,26.666667%);stroke-opacity:1;stroke-miterlimit:10;" d="M 88.207031 169.335938 L 131.324219 150.5 "/>
<path style="fill:none;stroke-width:1;stroke-linecap:butt;stroke-linejoin:miter;stroke:rgb(26.666667%,26.666667%,26.666667%);stroke-opacity:1;stroke-miterlimit:10;" d="M 88.207031 169.335938 L 131.605469 141.09375 "/>
<path style="fill:none;stroke-width:1;stroke-linecap:butt;stroke-linejoin:miter;stroke:rgb(26.666667%,26.666667%,26.666667%);stroke-opacity:1;stroke-miterlimit:10;" d="M 131.324219 150.5 L 131.605469 141.09375 "/>
<path style="fill:none;stroke-width:1;stroke-linecap:butt;stroke-linejoin:miter;stroke:rgb(26.666667%,26.666667%,26.666667%);stroke-opacity:1;stroke-miterlimit:10;" d="M 131.324219 150.5 L 172.191406 118.351562 "/>
<path style="fill:none;stroke-width:1;stroke-linecap:butt;stroke-linejoin:miter;stroke:rgb(26.666667%,26.666667%,26.666667%);stroke-opacity:1;stroke-miterlimit:10;" d="M 131.324219 150.5 L 180 153.121094 "/>
<path style="fill:none;stroke-width:1;stroke-linecap:butt;stroke-linejoin:miter;stroke:rgb(26.666667%,26.666667%,26.666667%);stroke-opacity:1;stroke-miterlimit:10;" d="M 131.605469 141.09375 L 172.191406 118.351562 "/>
<path style="fill:none;stroke-width:1;stroke-linecap:butt;stroke-linejoin:miter;stroke:rgb(26.666667%,26.666667%,26.666667%);stroke-opacity:1;stroke-miterlimit:10;" d="M 131.605469 141.09375 L 180 153.121094 "/>
<path style="fill:none;stroke-width:1;stroke-linecap:butt;stroke-linejoin:miter;stroke:rgb(26.666667%,26.666667%,26.666667%);stroke-opacity:1;stroke-miterlimit:10;" d="M 135.019531 33.5625 L 139.382812 20 "/>
<path style="fill:none;stroke-width:1;stroke-linecap:butt;stroke-linejoin:miter;stroke:rgb(26.666667%,26.666667%,26.666667%);stroke-opacity:1;stroke-miterlimit:10;" d="M 135.019531 33.5625 L 146.996094 72.386719 "/>
<path style="fill:none;stroke-width:1;stroke-linecap:butt;stroke-linejoin:miter;stroke:rgb(26.666667%,26.666667%,26.666667%);stroke-opacity:1;stroke-miterlimit:10;" d="M 135.019531 33.5625 L 148.394531 70.25 "/>
<path style="fill:none;stroke-width:1;stroke-linecap:butt;stroke-linejoin:miter;stroke:rgb(26.666667%,26.666667%,26.666667%);stroke-opacity:1;stroke-miterlimit:10;" d="M 135.019531 33.5625 L 150.777344 59 "/>
<path style="fill:none;stroke-width:1;stroke-linecap:butt;stroke-linejoin:miter;stroke:rgb(26.666667%,26.666667%,26.666667%);stroke-opacity:1;stroke-miterlimit:10;" d="M 135.019531 33.5625 L 152.425781 35.289062 "/>
<path style="fill:none;stroke-width:1;stroke-linecap:butt;stroke-linejoin:miter;stroke:rgb(26.666667%,26.666667%,26.666667%);stroke-opacity:1;stroke-miterlimit:10;" d="M 139.382812 20 L 150.777344 59 "/>
<path style="fill:none;stroke-width:1;stroke-linecap:butt;stroke-linejoin:miter;stroke:rgb(26.666667%,26.666667%,26.666667%);stroke-opacity:1;stroke-miterlimit:10;" d="M 139.382812 20 L 152.425781 35.289062 "/>
<path style="fill:none;stroke-width:1;stroke-linecap:butt;stroke-linejoin:miter;stroke:rgb(26.666667%,26.666667%,26.666667%);stroke-opacity:1;stroke-miterlimit:10;" d="M 146.996094 72.386719 L 148.394531 70.25 "/>
<path style="fill:none;stroke-width:1;stroke-linecap:butt;stroke-linejoin:miter;stroke:rgb(26.666667%,26.666667%,26.666667%);stroke-opacity:1;stroke-miterlimit:10;" d="M 146.996094 72.386719 L 150.777344 59 "/>
<path style="fill:none;stroke-width:1;stroke-linecap:butt;stroke-linejoin:miter;stroke:rgb(26.666667%,26.666667%,26.666667%);stroke-opacity:1;stroke-miterlimit:10;" d="M 146.996094 72.386719 L 152.425781 35.289062 "/>
<path style="fill:none;stroke-width:1;stroke-linecap:butt;stroke-linejoin:miter;stroke:rgb(26.666667%,26.666667%,26.666667%);stroke-opacity:1;stroke-miterlimit:10;" d="M 146.996094 72.386719 L 172.785156 93.007812 "/>
<path style="fill:none;stroke-width:1;stroke-linecap:butt;stroke-linejoin:miter;stroke:rgb(26.666667%,26.666667%,26.666667%);stroke-opacity:1;stroke-miterlimit:10;" d="M 148.394531 70.25 L 150.777344 59 "/>
<path style="fill:none;stroke-width:1;stroke-linecap:butt;stroke-linejoin:miter;stroke:rgb(26.666667%,26.666667%,26.666667%);stroke-opacity:1;stroke-miterlimit:10;" d="M 148.394531 70.25 L 152.425781 35.289062 "/>
<path style="fill:none;stroke-width:1;stroke-linecap:butt;stroke-linejoin:miter;stroke:rgb(26.666667%,26.666667%,26.666667%);stroke-opacity:1;stroke-miterlimit:10;" d="M 148.394531 70.25 L 172.785156 93.007812 "/>
<path style="fill:none;stroke-width:1;stroke-linecap:butt;stroke-linejoin:miter;stroke:rgb(26.666667%,26.666667%,26.666667%);stroke-opacity:1;stroke-miterlimit:10;" d="M 150.777344 59 L 152.425781 35.289062 "/>
<path style="fill:none;stroke-width:1;stroke-linecap:butt;stroke-linejoin:miter;stroke:rgb(26.666667%,26.666667%,26.666667%);stroke-opacity:1;stroke-miterlimit:10;" d="M 150.777344 59 L 172.785156 93.007812 "/>
<path style="fill:none;stroke-width:1;stroke-linecap:butt;stroke-linejoin:miter;stroke:rgb(26.666667%,26.666667%,26.666667%);stroke-opacity:1;stroke-miterlimit:10;" d="M 172.191406 118.351562 L 172.785156 93.007812 "/>
<path style="fill:none;stroke-width:1;stroke-linecap:butt;stroke-linejoin:miter;stroke:rgb(26.666667%,26.666667%,26.666667%);stroke-opacity:1;stroke-miterlimit:10;" d="M 172.191406 118.351562 L 180 153.121094 "/>
<path style="fill-rule:nonzero;fill:rgb(100%,0%,0%);fill-opacity:1;stroke-width:1;stroke-linecap:butt;stroke-linejoin:miter;stroke:rgb(0%,0%,0%);stroke-opacity:1;stroke-miterlimit:10;" d="M 30 51.464844 C 30 56.988281 25.523438 61.464844 20 61.464844 C 14.476562 61.464844 10 56.988281 10 51.464844 C 10 45.941406 14.476562 41.464844 20 41.464844 C 25.523438 41.464844 30 45.941406 30 51.464844 "/>
<path style="fill-rule:nonzero;fill:rgb(100%,0%,0%);fill-opacity:1;stroke-width:1;stroke-linecap:butt;stroke-linejoin:miter;stroke:rgb(0%,0%,0%);stroke-opacity:1;stroke-miterlimit:10;" d="M 41.246094 180 C 41.246094 185.523438 36.769531 190 31.246094 190 C 25.722656 190 21.246094 185.523438 21.246094 180 C 21.246094 174.476562 25.722656 170 31.246094 170 C 36.769531 170 41.246094 174.476562 41.246094 180 "/>
<path style="fill-rule:nonzero;fill:rgb(100%,0%,0%);fill-opacity:1;stroke-width:1;stroke-linecap:butt;stroke-linejoin:miter;stroke:rgb(0%,0%,0%);stroke-opacity:1;stroke-miterlimit:10;" d="M 54.007812 103 C 54.007812 108.519531 49.53125 113 44.007812 113 C 38.488281 113 34.007812 108.519531 34.007812 103 C 34.007812 97.476562 38.488281 93 44.007812 93 C 49.53125 93 54.007812 97.476562 54.007812 103 "/>
<path style="fill-rule:nonzero;fill:rgb(100%,0%,0%);fill-opacity:1;stroke-width:1;stroke-linecap:butt;stroke-linejoin:miter;stroke:rgb(0%,0%,0%);stroke-opacity:1;stroke-miterlimit:10;" d="M 66.625 100.652344 C 66.625 106.175781 62.148438 110.652344 56.625 110.652344 C 51.105469 110.652344 46.625 106.175781 46.625 100.652344 C 46.625 95.132812 51.105469 90.652344 56.625 90.652344 C 62.148438 90.652344 66.625 95.132812 66.625 100.652344 "/>
<path style="fill-rule:nonzero;fill:rgb(100%,0%,0%);fill-opacity:1;stroke-width:1;stroke-linecap:butt;stroke-linejoin:miter;stroke:rgb(0%,0%,0%);stroke-opacity:1;stroke-miterlimit:10;" d="M 67.753906 166.875 C 67.753906 172.398438 63.277344 176.875 57.753906 176.875 C 52.230469 176.875 47.753906 172.398438 47.753906 166.875 C 47.753906 161.351562 52.230469 156.875 57.753906 156.875 C 63.277344 156.875 67.753906 161.351562 67.753906 166.875 "/>
<path style="fill-rule:nonzero;fill:rgb(100%,0%,0%);fill-opacity:1;stroke-width:1;stroke-linecap:butt;stroke-linejoin:miter;stroke:rgb(0%,0%,0%);stroke-opacity:1;stroke-miterlimit:10;" d="M 67.871094 84.929688 C 67.871094 90.453125 63.394531 94.929688 57.871094 94.929688 C 52.347656 94.929688 47.871094 90.453125 47.871094 84.929688 C 47.871094 79.40625 52.347656 74.929688 57.871094 74.929688 C 63.394531 74.929688 67.871094 79.40625 67.871094 84.929688 "/>
<path style="fill-rule:nonzero;fill:rgb(100%,0%,0%);fill-opacity:1;stroke-width:1;stroke-linecap:butt;stroke-linejoin:miter;stroke:rgb(0%,0%,0%);stroke-opacity:1;stroke-miterlimit:10;" d="M 76.214844 76.933594 C 76.214844 82.453125 71.734375 86.933594 66.214844 86.933594 C 60.691406 86.933594 56.214844 82.453125 56.214844 76.933594 C 56.214844 71.410156 60.691406 66.933594 66.214844 66.933594 C 71.734375 66.933594 76.214844 71.410156 76.214844 76.933594 "/>
<path style="fill-rule:nonzero;fill:rgb(100%,0%,0%);fill-opacity:1;stroke-width:1;stroke-linecap:butt;stroke-linejoin:miter;stroke:rgb(0%,0%,0%);stroke-opacity:1;stroke-miterlimit:10;" d="M 76.386719 112.382812 C 76.386719 117.90625 71.910156 122.382812 66.386719 122.382812 C 60.863281 122.382812 56.386719 117.90625 56.386719 112.382812 C 56.386719 106.859375 60.863281 102.382812 66.386719 102.382812 C 71.910156 102.382812 76.386719 106.859375 76.386719 112.382812 "/>
<path style="fill-rule:nonzero;fill:rgb(100%,0%,0%);fill-opacity:1;stroke-width:1;stroke-linecap:butt;stroke-linejoin:miter;stroke:rgb(0%,0%,0%);stroke-opacity:1;stroke-miterlimit:10;" d="M 98.207031 169.335938 C 98.207031 174.855469 93.730469 179.335938 88.207031 179.335938 C 82.683594 179.335938 78.207031 174.855469 78.207031 169.335938 C 78.207031 163.8125 82.683594 159.335938 88.207031 159.335938 C 93.730469 159.335938 98.207031 163.8125 98.207031 169.335938 "/>
<path style="fill-rule:nonzero;fill:rgb(100%,0%,0%);fill-opacity:1;stroke-width:1;stroke-linecap:butt;stroke-linejoin:miter;stroke:rgb(0%,0%,0%);stroke-opacity:1;stroke-miterlimit:10;" d="M 141.324219 150.5 C 141.324219 156.023438 136.847656 160.5 131.324219 160.5 C 125.800781 160.5 121.324219 156.023438 121.324219 150.5 C 121.324219 144.976562 125.800781 140.5 131.324219 140.5 C 136.847656 140.5 141.324219 144.976562 141.324219 150.5 "/>
<path style="fill-rule:nonzero;fill:rgb(100%,0%,0%);fill-opacity:1;stroke-width:1;stroke-linecap:butt;stroke-linejoin:miter;stroke:rgb(0%,0%,0%);stroke-opacity:1;stroke-miterlimit:10;" d="M 141.605469 141.09375 C 141.605469 146.613281 137.128906 151.09375 131.605469 151.09375 C 126.082031 151.09375 121.605469 146.613281 121.605469 141.09375 C 121.605469 135.570312 126.082031 131.09375 131.605469 131.09375 C 137.128906 131.09375 141.605469 135.570312 141.605469 141.09375 "/>
<path style="fill-rule:nonzero;fill:rgb(100%,0%,0%);fill-opacity:1;stroke-width:1;stroke-linecap:butt;stroke-linejoin:miter;stroke:rgb(0%,0%,0%);stroke-opacity:1;stroke-miterlimit:10;" d="M 145.019531 33.5625 C 145.019531 39.085938 140.539062 43.5625 135.019531 43.5625 C 129.496094 43.5625 125.019531 39.085938 125.019531 33.5625 C 125.019531 28.039062 129.496094 23.5625 135.019531 23.5625 C 140.539062 23.5625 145.019531 28.039062 145.019531 33.5625 "/>
<path style="fill-rule:nonzero;fill:rgb(100%,0%,0%);fill-opacity:1;stroke-width:1;stroke-linecap:butt;stroke-linejoin:miter;stroke:rgb(0%,0%,0%);stroke-opacity:1;stroke-miterlimit:10;" d="M 149.382812 20 C 149.382812 25.523438 144.90625 30 139.382812 30 C 133.859375 30 129.382812 25.523438 129.382812 20 C 129.382812 14.476562 133.859375 10 139.382812 10 C 144.90625 10 149.382812 14.476562 149.382812 20 "/>
<path style="fill-rule:nonzero;fill:rgb(100%,0%,0%);fill-opacity:1;stroke-width:1;stroke-linecap:butt;stroke-linejoin:miter;stroke:rgb(0%,0%,0%);stroke-opacity:1;stroke-miterlimit:10;" d="M 156.996094 72.386719 C 156.996094 77.910156 152.519531 82.386719 146.996094 82.386719 C 141.476562 82.386719 136.996094 77.910156 136.996094 72.386719 C 136.996094 66.863281 141.476562 62.386719 146.996094 62.386719 C 152.519531 62.386719 156.996094 66.863281 156.996094 72.386719 "/>
<path style="fill-rule:nonzero;fill:rgb(100%,0%,0%);fill-opacity:1;stroke-width:1;stroke-linecap:butt;stroke-linejoin:miter;stroke:rgb(0%,0%,0%);stroke-opacity:1;stroke-miterlimit:10;" d="M 158.394531 70.25 C 158.394531 75.769531 153.917969 80.25 148.394531 80.25 C 142.871094 80.25 138.394531 75.769531 138.394531 70.25 C 138.394531 64.726562 142.871094 60.25 148.394531 60.25 C 153.917969 60.25 158.394531 64.726562 158.394531 70.25 "/>
<path style="fill-rule:nonzero;fill:rgb(100%,0%,0%);fill-opacity:1;stroke-width:1;stroke-linecap:butt;stroke-linejoin:miter;stroke:rgb(0%,0%,0%);stroke-opacity:1;stroke-miterlimit:10;" d="M 160.777344 59 C 160.777344 64.523438 156.300781 69 150.777344 69 C 145.253906 69 140.777344 64.523438 140.777344 59 C 140.777344 53.476562 145.253906 49 150.777344 49 C 156.300781 49 160.777344 53.476562 160.777344 59 "/>
<path style="fill-rule:nonzero;fill:rgb(100%,0%,0%);fill-opacity:1;stroke-width:1;stroke-linecap:butt;stroke-linejoin:miter;stroke:rgb(0%,0%,0%);stroke-opacity:1;stroke-miterlimit:10;" d="M 162.425781 35.289062 C 162.425781 40.808594 157.949219 45.289062 152.425781 45.289062 C 146.902344 45.289062 142.425781 40.808594 142.425781 35.289062 C 142.425781 29.765625 146.902344 25.289062 152.425781 25.289062 C 157.949219 25.289062 162.425781 29.765625 162.425781 35.289062 "/>
<path style="fill-rule:nonzero;fill:rgb(100%,0%,0%);fill-opacity:1;stroke-width:1;stroke-linecap:butt;stroke-linejoin:miter;stroke:rgb(0%,0%,0%);stroke-opacity:1;stroke-miterlimit:10;" d="M 182.191406 118.351562 C 182.191406 123.875 177.710938 128.351562 172.191406 128.351562 C 166.667969 128.351562 162.191406 123.875 162.191406 118.351562 C 162.191406 112.828125 166.667969 108.351562 172.191406 108.351562 C 177.710938 108.351562 182.191406 112.828125 182.191406 118.351562 "/>
<path style="fill-rule:nonzero;fill:rgb(100%,0%,0%);fill-opacity:1;stroke-width:1;stroke-linecap:butt;stroke-linejoin:miter;stroke:rgb(0%,0%,0%);stroke-opacity:1;stroke-miterlimit:10;" d="M 182.785156 93.007812 C 182.785156 98.53125 178.308594 103.007812 172.785156 103.007812 C 167.265625 103.007812 162.785156 98.53125 162.785156 93.007812 C 162.785156 87.484375 167.265625 83.007812 172.785156 83.007812 C 178.308594 83.007812 182.785156 87.484375 182.785156 93.007812 "/>
<path style="fill-rule:nonzero;fill:rgb(100%,0%,0%);fill-opacity:1;stroke-width:1;stroke-linecap:butt;stroke-linejoin:miter;stroke:rgb(0%,0%,0%);stroke-opacity:1;stroke-miterlimit:10;" d="M 190 153.121094 C 190 158.644531 185.523438 163.121094 180 163.121094 C 174.476562 163.121094 170 158.644531 170 153.121094 C 170 147.601562 174.476562 143.121094 180 143.121094 C 185.523438 143.121094 190 147.601562 190 153.121094 "/>
</g>
</svg>
