<?xml version="1.0" encoding="UTF-8"?>
<svg xmlns="http://www.w3.org/2000/svg" xmlns:xlink="http://www.w3.org/1999/xlink" width="400pt" height="800pt" viewBox="0 0 400 800" version="1.1">
<g id="surface38">
<rect x="0" y="0" width="400" height="800" style="fill:rgb(100%,100%,100%);fill-opacity:1;stroke:none;"/>
<path style="fill:none;stroke-width:1;stroke-linecap:butt;stroke-linejoin:miter;stroke:rgb(26.666667%,26.666667%,26.666667%);stroke-opacity:1;stroke-miterlimit:10;" d="M 142.816406 632.199219 L 137.226562 696.40625 "/>
<path style="fill:none;stroke-width:1;stroke-linecap:butt;stroke-linejoin:miter;stroke:rgb(26.666667%,26.666667%,26.666667%);stroke-opacity:1;stroke-miterlimit:10;" d="M 142.816406 632.199219 L 191.402344 536.9375 "/>
<path style="fill:none;stroke-width:1;stroke-linecap:butt;stroke-linejoin:miter;stroke:rgb(26.666667%,26.666667%,26.666667%);stroke-opacity:1;stroke-miterlimit:10;" d="M 198.136719 314.371094 L 162.578125 365.089844 "/>
<path style="fill:none;stroke-width:1;stroke-linecap:butt;stroke-linejoin:miter;stroke:rgb(26.666667%,26.666667%,26.666667%);stroke-opacity:1;stroke-miterlimit:10;" d="M 198.136719 314.371094 L 228.640625 523.179688 "/>
<path style="fill:none;stroke-width:1;stroke-linecap:butt;stroke-linejoin:miter;stroke:rgb(26.666667%,26.666667%,26.666667%);stroke-opacity:1;stroke-miterlimit:10;" d="M 223.105469 233.742188 L 251.390625 406.253906 "/>
<path style="fill:none;stroke-width:1;stroke-linecap:butt;stroke-linejoin:miter;stroke:rgb(26.666667%,26.666667%,26.666667%);stroke-opacity:1;stroke-miterlimit:10;" d="M 251.390625 406.253906 L 228.640625 523.179688 "/>
<path style="fill:none;stroke-width:1;stroke-linecap:butt;stroke-linejoin:miter;stroke:rgb(26.666667%,26.666667%,26.666667%);stroke-opacity:1;stroke-miterlimit:10;" d="M 251.390625 406.253906 L 211.808594 465.234375 "/>
<path style="fill:none;stroke-width:1;stroke-linecap:butt;stroke-linejoin:miter;stroke:rgb(26.666667%,26.666667%,26.666667%);stroke-opacity:1;stroke-miterlimit:10;" d="M 162.578125 365.089844 L 120.804688 432.617188 "/>
<path style="fill:none;stroke-width:1;stroke-linecap:butt;stroke-linejoin:miter;stroke:rgb(26.666667%,26.666667%,26.666667%);stroke-opacity:1;stroke-miterlimit:10;" d="M 120.804688 432.617188 L 156.882812 467.640625 "/>
<path style="fill:none;stroke-width:1;stroke-linecap:butt;stroke-linejoin:miter;stroke:rgb(26.666667%,26.666667%,26.666667%);stroke-opacity:1;stroke-miterlimit:10;" d="M 120.804688 432.617188 L 211.808594 465.234375 "/>
<path style="fill:none;stroke-width:1;stroke-linecap:butt;stroke-linejoin:miter;stroke:rgb(26.666667%,26.666667%,26.666667%);stroke-opacity:1;stroke-miterlimit:10;" d="M 169.347656 571.523438 L 228.640625 523.179688 "/>
<path style="fill:none;stroke-width:1;stroke-linecap:butt;stroke-linejoin:miter;stroke:rgb(26.666667%,26.666667%,26.666667%);stroke-opacity:1;stroke-miterlimit:10;" d="M 169.347656 571.523438 L 191.402344 536.9375 "/>
<path style="fill:none;stroke-width:1;stroke-linecap:butt;stroke-linejoin:miter;stroke:rgb(26.666667%,26.666667%,26.666667%);stroke-opacity:1;stroke-miterlimit:10;" d="M 169.347656 571.523438 L 173.414062 583.539062 "/>
<path style="fill:none;stroke-width:1;stroke-linecap:butt;stroke-linejoin:miter;stroke:rgb(26.666667%,26.666667%,26.666667%);stroke-opacity:1;stroke-miterlimit:10;" d="M 169.347656 571.523438 L 211.808594 465.234375 "/>
<path style="fill:none;stroke-width:1;stroke-linecap:butt;stroke-linejoin:miter;stroke:rgb(26.666667%,26.666667%,26.666667%);stroke-opacity:1;stroke-miterlimit:10;" d="M 127.792969 182.777344 L 89.703125 292.011719 "/>
<path style="fill:none;stroke-width:1;stroke-linecap:butt;stroke-linejoin:miter;stroke:rgb(26.666667%,26.666667%,26.666667%);stroke-opacity:1;stroke-miterlimit:10;" d="M 127.792969 182.777344 L 129.542969 276.046875 "/>
<path style="fill:none;stroke-width:1;stroke-linecap:butt;stroke-linejoin:miter;stroke:rgb(26.666667%,26.666667%,26.666667%);stroke-opacity:1;stroke-miterlimit:10;" d="M 260.679688 760 L 168.714844 669.675781 "/>
<path style="fill:none;stroke-width:1;stroke-linecap:butt;stroke-linejoin:miter;stroke:rgb(26.666667%,26.666667%,26.666667%);stroke-opacity:1;stroke-miterlimit:10;" d="M 204.171875 492.285156 L 191.402344 536.9375 "/>
<path style="fill:none;stroke-width:1;stroke-linecap:butt;stroke-linejoin:miter;stroke:rgb(26.666667%,26.666667%,26.666667%);stroke-opacity:1;stroke-miterlimit:10;" d="M 204.171875 492.285156 L 226.273438 423.714844 "/>
<path style="fill:none;stroke-width:1;stroke-linecap:butt;stroke-linejoin:miter;stroke:rgb(26.666667%,26.666667%,26.666667%);stroke-opacity:1;stroke-miterlimit:10;" d="M 337.054688 403.863281 L 161.410156 502.949219 "/>
<path style="fill:none;stroke-width:1;stroke-linecap:butt;stroke-linejoin:miter;stroke:rgb(26.666667%,26.666667%,26.666667%);stroke-opacity:1;stroke-miterlimit:10;" d="M 337.054688 403.863281 L 190 395.640625 "/>
<path style="fill:none;stroke-width:1;stroke-linecap:butt;stroke-linejoin:miter;stroke:rgb(26.666667%,26.666667%,26.666667%);stroke-opacity:1;stroke-miterlimit:10;" d="M 251.390625 406.253906 L 133.371094 510.964844 "/>
<path style="fill:none;stroke-width:1;stroke-linecap:butt;stroke-linejoin:miter;stroke:rgb(26.666667%,26.666667%,26.666667%);stroke-opacity:1;stroke-miterlimit:10;" d="M 133.371094 510.964844 L 186.460938 484.507812 "/>
<path style="fill:none;stroke-width:1;stroke-linecap:butt;stroke-linejoin:miter;stroke:rgb(26.666667%,26.666667%,26.666667%);stroke-opacity:1;stroke-miterlimit:10;" d="M 133.371094 510.964844 L 106.789062 647.605469 "/>
<path style="fill:none;stroke-width:1;stroke-linecap:butt;stroke-linejoin:miter;stroke:rgb(26.666667%,26.666667%,26.666667%);stroke-opacity:1;stroke-miterlimit:10;" d="M 251.390625 406.253906 L 161.410156 502.949219 "/>
<path style="fill:none;stroke-width:1;stroke-linecap:butt;stroke-linejoin:miter;stroke:rgb(26.666667%,26.666667%,26.666667%);stroke-opacity:1;stroke-miterlimit:10;" d="M 104.164062 559.027344 L 190 395.640625 "/>
<path style="fill:none;stroke-width:1;stroke-linecap:butt;stroke-linejoin:miter;stroke:rgb(26.666667%,26.666667%,26.666667%);stroke-opacity:1;stroke-miterlimit:10;" d="M 230.78125 566.359375 L 228.640625 523.179688 "/>
<path style="fill:none;stroke-width:1;stroke-linecap:butt;stroke-linejoin:miter;stroke:rgb(26.666667%,26.666667%,26.666667%);stroke-opacity:1;stroke-miterlimit:10;" d="M 230.78125 566.359375 L 191.402344 536.9375 "/>
<path style="fill:none;stroke-width:1;stroke-linecap:butt;stroke-linejoin:miter;stroke:rgb(26.666667%,26.666667%,26.666667%);stroke-opacity:1;stroke-miterlimit:10;" d="M 230.78125 566.359375 L 164.039062 449.628906 "/>
<path style="fill:none;stroke-width:1;stroke-linecap:butt;stroke-linejoin:miter;stroke:rgb(26.666667%,26.666667%,26.666667%);stroke-opacity:1;stroke-miterlimit:10;" d="M 230.78125 566.359375 L 211.808594 465.234375 "/>
<path style="fill:none;stroke-width:1;stroke-linecap:butt;stroke-linejoin:miter;stroke:rgb(26.666667%,26.666667%,26.666667%);stroke-opacity:1;stroke-miterlimit:10;" d="M 168.714844 669.675781 L 209.054688 657.429688 "/>
<path style="fill:none;stroke-width:1;stroke-linecap:butt;stroke-linejoin:miter;stroke:rgb(26.666667%,26.666667%,26.666667%);stroke-opacity:1;stroke-miterlimit:10;" d="M 137.226562 696.40625 L 50.296875 629.558594 "/>
<path style="fill:none;stroke-width:1;stroke-linecap:butt;stroke-linejoin:miter;stroke:rgb(26.666667%,26.666667%,26.666667%);stroke-opacity:1;stroke-miterlimit:10;" d="M 47.859375 436.691406 L 127.382812 451.292969 "/>
<path style="fill:none;stroke-width:1;stroke-linecap:butt;stroke-linejoin:miter;stroke:rgb(26.666667%,26.666667%,26.666667%);stroke-opacity:1;stroke-miterlimit:10;" d="M 47.859375 436.691406 L 89.703125 292.011719 "/>
<path style="fill:none;stroke-width:1;stroke-linecap:butt;stroke-linejoin:miter;stroke:rgb(26.666667%,26.666667%,26.666667%);stroke-opacity:1;stroke-miterlimit:10;" d="M 186.460938 484.507812 L 211.808594 465.234375 "/>
<path style="fill:none;stroke-width:1;stroke-linecap:butt;stroke-linejoin:miter;stroke:rgb(26.666667%,26.666667%,26.666667%);stroke-opacity:1;stroke-miterlimit:10;" d="M 268.121094 578.253906 L 209.589844 751.980469 "/>
<path style="fill:none;stroke-width:1;stroke-linecap:butt;stroke-linejoin:miter;stroke:rgb(26.666667%,26.666667%,26.666667%);stroke-opacity:1;stroke-miterlimit:10;" d="M 268.121094 578.253906 L 211.808594 465.234375 "/>
<path style="fill:none;stroke-width:1;stroke-linecap:butt;stroke-linejoin:miter;stroke:rgb(26.666667%,26.666667%,26.666667%);stroke-opacity:1;stroke-miterlimit:10;" d="M 268.121094 578.253906 L 209.054688 657.429688 "/>
<path style="fill:none;stroke-width:1;stroke-linecap:butt;stroke-linejoin:miter;stroke:rgb(26.666667%,26.666667%,26.666667%);stroke-opacity:1;stroke-miterlimit:10;" d="M 162.578125 365.089844 L 156.882812 467.640625 "/>
<path style="fill:none;stroke-width:1;stroke-linecap:butt;stroke-linejoin:miter;stroke:rgb(26.666667%,26.666667%,26.666667%);stroke-opacity:1;stroke-miterlimit:10;" d="M 156.882812 467.640625 L 191.402344 536.9375 "/>
<path style="fill:none;stroke-width:1;stroke-linecap:butt;stroke-linejoin:miter;stroke:rgb(26.666667%,26.666667%,26.666667%);stroke-opacity:1;stroke-miterlimit:10;" d="M 156.882812 467.640625 L 211.808594 465.234375 "/>
<path style="fill:none;stroke-width:1;stroke-linecap:butt;stroke-linejoin:miter;stroke:rgb(26.666667%,26.666667%,26.666667%);stroke-opacity:1;stroke-miterlimit:10;" d="M 209.589844 751.980469 L 209.054688 657.429688 "/>
<path style="fill:none;stroke-width:1;stroke-linecap:butt;stroke-linejoin:miter;stroke:rgb(26.666667%,26.666667%,26.666667%);stroke-opacity:1;stroke-miterlimit:10;" d="M 228.640625 523.179688 L 191.402344 536.9375 "/>
<path style="fill:none;stroke-width:1;stroke-linecap:butt;stroke-linejoin:miter;stroke:rgb(26.666667%,26.666667%,26.666667%);stroke-opacity:1;stroke-miterlimit:10;" d="M 104.164062 559.027344 L 145.753906 621.308594 "/>
<path style="fill:none;stroke-width:1;stroke-linecap:butt;stroke-linejoin:miter;stroke:rgb(26.666667%,26.666667%,26.666667%);stroke-opacity:1;stroke-miterlimit:10;" d="M 137.226562 696.40625 L 145.753906 621.308594 "/>
<path style="fill:none;stroke-width:1;stroke-linecap:butt;stroke-linejoin:miter;stroke:rgb(26.666667%,26.666667%,26.666667%);stroke-opacity:1;stroke-miterlimit:10;" d="M 145.753906 621.308594 L 191.402344 536.9375 "/>
<path style="fill:none;stroke-width:1;stroke-linecap:butt;stroke-linejoin:miter;stroke:rgb(26.666667%,26.666667%,26.666667%);stroke-opacity:1;stroke-miterlimit:10;" d="M 145.753906 621.308594 L 173.414062 583.539062 "/>
<path style="fill:none;stroke-width:1;stroke-linecap:butt;stroke-linejoin:miter;stroke:rgb(26.666667%,26.666667%,26.666667%);stroke-opacity:1;stroke-miterlimit:10;" d="M 137.226562 696.40625 L 106.789062 647.605469 "/>
<path style="fill:none;stroke-width:1;stroke-linecap:butt;stroke-linejoin:miter;stroke:rgb(26.666667%,26.666667%,26.666667%);stroke-opacity:1;stroke-miterlimit:10;" d="M 106.789062 647.605469 L 50.296875 629.558594 "/>
<path style="fill:none;stroke-width:1;stroke-linecap:butt;stroke-linejoin:miter;stroke:rgb(26.666667%,26.666667%,26.666667%);stroke-opacity:1;stroke-miterlimit:10;" d="M 106.789062 647.605469 L 209.054688 657.429688 "/>
<path style="fill:none;stroke-width:1;stroke-linecap:butt;stroke-linejoin:miter;stroke:rgb(26.666667%,26.666667%,26.666667%);stroke-opacity:1;stroke-miterlimit:10;" d="M 40 433.148438 L 50.296875 629.558594 "/>
<path style="fill:none;stroke-width:1;stroke-linecap:butt;stroke-linejoin:miter;stroke:rgb(26.666667%,26.666667%,26.666667%);stroke-opacity:1;stroke-miterlimit:10;" d="M 40 433.148438 L 106.125 359.316406 "/>
<path style="fill:none;stroke-width:1;stroke-linecap:butt;stroke-linejoin:miter;stroke:rgb(26.666667%,26.666667%,26.666667%);stroke-opacity:1;stroke-miterlimit:10;" d="M 228.640625 523.179688 L 255.253906 599.855469 "/>
<path style="fill:none;stroke-width:1;stroke-linecap:butt;stroke-linejoin:miter;stroke:rgb(26.666667%,26.666667%,26.666667%);stroke-opacity:1;stroke-miterlimit:10;" d="M 191.402344 536.9375 L 255.253906 599.855469 "/>
<path style="fill:none;stroke-width:1;stroke-linecap:butt;stroke-linejoin:miter;stroke:rgb(26.666667%,26.666667%,26.666667%);stroke-opacity:1;stroke-miterlimit:10;" d="M 255.253906 599.855469 L 209.054688 657.429688 "/>
<path style="fill:none;stroke-width:1;stroke-linecap:butt;stroke-linejoin:miter;stroke:rgb(26.666667%,26.666667%,26.666667%);stroke-opacity:1;stroke-miterlimit:10;" d="M 198.816406 470.949219 L 278.339844 438.871094 "/>
<path style="fill:none;stroke-width:1;stroke-linecap:butt;stroke-linejoin:miter;stroke:rgb(26.666667%,26.666667%,26.666667%);stroke-opacity:1;stroke-miterlimit:10;" d="M 191.402344 536.9375 L 120.945312 530.632812 "/>
<path style="fill:none;stroke-width:1;stroke-linecap:butt;stroke-linejoin:miter;stroke:rgb(26.666667%,26.666667%,26.666667%);stroke-opacity:1;stroke-miterlimit:10;" d="M 120.945312 530.632812 L 127.382812 451.292969 "/>
<path style="fill:none;stroke-width:1;stroke-linecap:butt;stroke-linejoin:miter;stroke:rgb(26.666667%,26.666667%,26.666667%);stroke-opacity:1;stroke-miterlimit:10;" d="M 120.945312 530.632812 L 242.105469 315.386719 "/>
<path style="fill:none;stroke-width:1;stroke-linecap:butt;stroke-linejoin:miter;stroke:rgb(26.666667%,26.666667%,26.666667%);stroke-opacity:1;stroke-miterlimit:10;" d="M 162.578125 365.089844 L 226.273438 423.714844 "/>
<path style="fill:none;stroke-width:1;stroke-linecap:butt;stroke-linejoin:miter;stroke:rgb(26.666667%,26.666667%,26.666667%);stroke-opacity:1;stroke-miterlimit:10;" d="M 191.402344 536.9375 L 226.273438 423.714844 "/>
<path style="fill:none;stroke-width:1;stroke-linecap:butt;stroke-linejoin:miter;stroke:rgb(26.666667%,26.666667%,26.666667%);stroke-opacity:1;stroke-miterlimit:10;" d="M 226.273438 423.714844 L 211.808594 465.234375 "/>
<path style="fill:none;stroke-width:1;stroke-linecap:butt;stroke-linejoin:miter;stroke:rgb(26.666667%,26.666667%,26.666667%);stroke-opacity:1;stroke-miterlimit:10;" d="M 228.640625 523.179688 L 127.382812 451.292969 "/>
<path style="fill:none;stroke-width:1;stroke-linecap:butt;stroke-linejoin:miter;stroke:rgb(26.666667%,26.666667%,26.666667%);stroke-opacity:1;stroke-miterlimit:10;" d="M 127.382812 451.292969 L 211.808594 465.234375 "/>
<path style="fill:none;stroke-width:1;stroke-linecap:butt;stroke-linejoin:miter;stroke:rgb(26.666667%,26.666667%,26.666667%);stroke-opacity:1;stroke-miterlimit:10;" d="M 186.460938 484.507812 L 241.101562 333.347656 "/>
<path style="fill:none;stroke-width:1;stroke-linecap:butt;stroke-linejoin:miter;stroke:rgb(26.666667%,26.666667%,26.666667%);stroke-opacity:1;stroke-miterlimit:10;" d="M 241.101562 333.347656 L 211.808594 465.234375 "/>
<path style="fill:none;stroke-width:1;stroke-linecap:butt;stroke-linejoin:miter;stroke:rgb(26.666667%,26.666667%,26.666667%);stroke-opacity:1;stroke-miterlimit:10;" d="M 40 433.148438 L 84.386719 274.753906 "/>
<path style="fill:none;stroke-width:1;stroke-linecap:butt;stroke-linejoin:miter;stroke:rgb(26.666667%,26.666667%,26.666667%);stroke-opacity:1;stroke-miterlimit:10;" d="M 84.386719 274.753906 L 106.125 359.316406 "/>
<path style="fill:none;stroke-width:1;stroke-linecap:butt;stroke-linejoin:miter;stroke:rgb(26.666667%,26.666667%,26.666667%);stroke-opacity:1;stroke-miterlimit:10;" d="M 162.578125 365.089844 L 164.039062 449.628906 "/>
<path style="fill:none;stroke-width:1;stroke-linecap:butt;stroke-linejoin:miter;stroke:rgb(26.666667%,26.666667%,26.666667%);stroke-opacity:1;stroke-miterlimit:10;" d="M 156.882812 467.640625 L 164.039062 449.628906 "/>
<path style="fill:none;stroke-width:1;stroke-linecap:butt;stroke-linejoin:miter;stroke:rgb(26.666667%,26.666667%,26.666667%);stroke-opacity:1;stroke-miterlimit:10;" d="M 228.640625 523.179688 L 164.039062 449.628906 "/>
<path style="fill:none;stroke-width:1;stroke-linecap:butt;stroke-linejoin:miter;stroke:rgb(26.666667%,26.666667%,26.666667%);stroke-opacity:1;stroke-miterlimit:10;" d="M 191.402344 536.9375 L 164.039062 449.628906 "/>
<path style="fill:none;stroke-width:1;stroke-linecap:butt;stroke-linejoin:miter;stroke:rgb(26.666667%,26.666667%,26.666667%);stroke-opacity:1;stroke-miterlimit:10;" d="M 164.039062 449.628906 L 211.808594 465.234375 "/>
<path style="fill:none;stroke-width:1;stroke-linecap:butt;stroke-linejoin:miter;stroke:rgb(26.666667%,26.666667%,26.666667%);stroke-opacity:1;stroke-miterlimit:10;" d="M 89.703125 292.011719 L 129.542969 276.046875 "/>
<path style="fill:none;stroke-width:1;stroke-linecap:butt;stroke-linejoin:miter;stroke:rgb(26.666667%,26.666667%,26.666667%);stroke-opacity:1;stroke-miterlimit:10;" d="M 89.703125 292.011719 L 106.125 359.316406 "/>
<path style="fill:none;stroke-width:1;stroke-linecap:butt;stroke-linejoin:miter;stroke:rgb(26.666667%,26.666667%,26.666667%);stroke-opacity:1;stroke-miterlimit:10;" d="M 242.105469 315.386719 L 211.808594 465.234375 "/>
<path style="fill:none;stroke-width:1;stroke-linecap:butt;stroke-linejoin:miter;stroke:rgb(26.666667%,26.666667%,26.666667%);stroke-opacity:1;stroke-miterlimit:10;" d="M 162.578125 365.089844 L 129.542969 276.046875 "/>
<path style="fill:none;stroke-width:1;stroke-linecap:butt;stroke-linejoin:miter;stroke:rgb(26.666667%,26.666667%,26.666667%);stroke-opacity:1;stroke-miterlimit:10;" d="M 84.386719 274.753906 L 129.542969 276.046875 "/>
<path style="fill:none;stroke-width:1;stroke-linecap:butt;stroke-linejoin:miter;stroke:rgb(26.666667%,26.666667%,26.666667%);stroke-opacity:1;stroke-miterlimit:10;" d="M 129.542969 276.046875 L 106.125 359.316406 "/>
<path style="fill:none;stroke-width:1;stroke-linecap:butt;stroke-linejoin:miter;stroke:rgb(26.666667%,26.666667%,26.666667%);stroke-opacity:1;stroke-miterlimit:10;" d="M 114.445312 578.207031 L 211.808594 465.234375 "/>
<path style="fill:none;stroke-width:1;stroke-linecap:butt;stroke-linejoin:miter;stroke:rgb(26.666667%,26.666667%,26.666667%);stroke-opacity:1;stroke-miterlimit:10;" d="M 199.863281 40 L 179.539062 172.53125 "/>
<path style="fill:none;stroke-width:1;stroke-linecap:butt;stroke-linejoin:miter;stroke:rgb(26.666667%,26.666667%,26.666667%);stroke-opacity:1;stroke-miterlimit:10;" d="M 179.539062 172.53125 L 106.125 359.316406 "/>
<path style="fill:none;stroke-width:1;stroke-linecap:butt;stroke-linejoin:miter;stroke:rgb(26.666667%,26.666667%,26.666667%);stroke-opacity:1;stroke-miterlimit:10;" d="M 156.882812 467.640625 L 53.957031 457.265625 "/>
<path style="fill:none;stroke-width:1;stroke-linecap:butt;stroke-linejoin:miter;stroke:rgb(26.666667%,26.666667%,26.666667%);stroke-opacity:1;stroke-miterlimit:10;" d="M 50.296875 629.558594 L 117.566406 755.246094 "/>
<path style="fill:none;stroke-width:1;stroke-linecap:butt;stroke-linejoin:miter;stroke:rgb(26.666667%,26.666667%,26.666667%);stroke-opacity:1;stroke-miterlimit:10;" d="M 186.460938 484.507812 L 278.339844 438.871094 "/>
<path style="fill:none;stroke-width:1;stroke-linecap:butt;stroke-linejoin:miter;stroke:rgb(26.666667%,26.666667%,26.666667%);stroke-opacity:1;stroke-miterlimit:10;" d="M 278.339844 438.871094 L 211.808594 465.234375 "/>
<path style="fill:none;stroke-width:1;stroke-linecap:butt;stroke-linejoin:miter;stroke:rgb(26.666667%,26.666667%,26.666667%);stroke-opacity:1;stroke-miterlimit:10;" d="M 148.339844 170.550781 L 358.382812 632.492188 "/>
<path style="fill:none;stroke-width:1;stroke-linecap:butt;stroke-linejoin:miter;stroke:rgb(26.666667%,26.666667%,26.666667%);stroke-opacity:1;stroke-miterlimit:10;" d="M 360 467.511719 L 182.632812 489.28125 "/>
<path style="fill:none;stroke-width:1;stroke-linecap:butt;stroke-linejoin:miter;stroke:rgb(26.666667%,26.666667%,26.666667%);stroke-opacity:1;stroke-miterlimit:10;" d="M 228.640625 523.179688 L 267.273438 670.996094 "/>
<path style="fill:none;stroke-width:1;stroke-linecap:butt;stroke-linejoin:miter;stroke:rgb(26.666667%,26.666667%,26.666667%);stroke-opacity:1;stroke-miterlimit:10;" d="M 228.640625 523.179688 L 295.402344 560.9375 "/>
<path style="fill:none;stroke-width:1;stroke-linecap:butt;stroke-linejoin:miter;stroke:rgb(26.666667%,26.666667%,26.666667%);stroke-opacity:1;stroke-miterlimit:10;" d="M 191.402344 536.9375 L 295.402344 560.9375 "/>
<path style="fill:none;stroke-width:1;stroke-linecap:butt;stroke-linejoin:miter;stroke:rgb(26.666667%,26.666667%,26.666667%);stroke-opacity:1;stroke-miterlimit:10;" d="M 186.460938 484.507812 L 153.785156 352.675781 "/>
<path style="fill:none;stroke-width:1;stroke-linecap:butt;stroke-linejoin:miter;stroke:rgb(26.666667%,26.666667%,26.666667%);stroke-opacity:1;stroke-miterlimit:10;" d="M 153.785156 352.675781 L 211.808594 465.234375 "/>
<path style="fill:none;stroke-width:1;stroke-linecap:butt;stroke-linejoin:miter;stroke:rgb(26.666667%,26.666667%,26.666667%);stroke-opacity:1;stroke-miterlimit:10;" d="M 106.125 359.316406 L 173.414062 583.539062 "/>
<path style="fill:none;stroke-width:1;stroke-linecap:butt;stroke-linejoin:miter;stroke:rgb(26.666667%,26.666667%,26.666667%);stroke-opacity:1;stroke-miterlimit:10;" d="M 360 467.511719 L 170.917969 511.917969 "/>
<path style="fill:none;stroke-width:1;stroke-linecap:butt;stroke-linejoin:miter;stroke:rgb(26.666667%,26.666667%,26.666667%);stroke-opacity:1;stroke-miterlimit:10;" d="M 64.90625 473.316406 L 275.160156 505.496094 "/>
<path style="fill:none;stroke-width:1;stroke-linecap:butt;stroke-linejoin:miter;stroke:rgb(26.666667%,26.666667%,26.666667%);stroke-opacity:1;stroke-miterlimit:10;" d="M 228.640625 523.179688 L 184.355469 486.933594 "/>
<path style="fill:none;stroke-width:1;stroke-linecap:butt;stroke-linejoin:miter;stroke:rgb(26.666667%,26.666667%,26.666667%);stroke-opacity:1;stroke-miterlimit:10;" d="M 191.402344 536.9375 L 232.625 413.46875 "/>
<path style="fill:none;stroke-width:1;stroke-linecap:butt;stroke-linejoin:miter;stroke:rgb(26.666667%,26.666667%,26.666667%);stroke-opacity:1;stroke-miterlimit:10;" d="M 232.625 413.46875 L 190 395.640625 "/>
<path style="fill:none;stroke-width:1;stroke-linecap:butt;stroke-linejoin:miter;stroke:rgb(26.666667%,26.666667%,26.666667%);stroke-opacity:1;stroke-miterlimit:10;" d="M 232.625 413.46875 L 211.808594 465.234375 "/>
<path style="fill:none;stroke-width:1;stroke-linecap:butt;stroke-linejoin:miter;stroke:rgb(26.666667%,26.666667%,26.666667%);stroke-opacity:1;stroke-miterlimit:10;" d="M 191.402344 536.9375 L 276.136719 490.011719 "/>
<path style="fill:none;stroke-width:1;stroke-linecap:butt;stroke-linejoin:miter;stroke:rgb(26.666667%,26.666667%,26.666667%);stroke-opacity:1;stroke-miterlimit:10;" d="M 232.625 413.46875 L 276.136719 490.011719 "/>
<path style="fill:none;stroke-width:1;stroke-linecap:butt;stroke-linejoin:miter;stroke:rgb(26.666667%,26.666667%,26.666667%);stroke-opacity:1;stroke-miterlimit:10;" d="M 276.136719 490.011719 L 173.414062 583.539062 "/>
<path style="fill:none;stroke-width:1;stroke-linecap:butt;stroke-linejoin:miter;stroke:rgb(26.666667%,26.666667%,26.666667%);stroke-opacity:1;stroke-miterlimit:10;" d="M 156.882812 467.640625 L 238.675781 421.960938 "/>
<path style="fill:none;stroke-width:1;stroke-linecap:butt;stroke-linejoin:miter;stroke:rgb(26.666667%,26.666667%,26.666667%);stroke-opacity:1;stroke-miterlimit:10;" d="M 238.675781 421.960938 L 209.054688 657.429688 "/>
<path style="fill:none;stroke-width:1;stroke-linecap:butt;stroke-linejoin:miter;stroke:rgb(26.666667%,26.666667%,26.666667%);stroke-opacity:1;stroke-miterlimit:10;" d="M 162.578125 365.089844 L 243.753906 432.082031 "/>
<path style="fill:none;stroke-width:1;stroke-linecap:butt;stroke-linejoin:miter;stroke:rgb(26.666667%,26.666667%,26.666667%);stroke-opacity:1;stroke-miterlimit:10;" d="M 156.882812 467.640625 L 243.753906 432.082031 "/>
<path style="fill:none;stroke-width:1;stroke-linecap:butt;stroke-linejoin:miter;stroke:rgb(26.666667%,26.666667%,26.666667%);stroke-opacity:1;stroke-miterlimit:10;" d="M 127.382812 451.292969 L 243.753906 432.082031 "/>
<path style="fill:none;stroke-width:1;stroke-linecap:butt;stroke-linejoin:miter;stroke:rgb(26.666667%,26.666667%,26.666667%);stroke-opacity:1;stroke-miterlimit:10;" d="M 156.882812 467.640625 L 86.132812 356.820312 "/>
<path style="fill:none;stroke-width:1;stroke-linecap:butt;stroke-linejoin:miter;stroke:rgb(26.666667%,26.666667%,26.666667%);stroke-opacity:1;stroke-miterlimit:10;" d="M 117.566406 755.246094 L 209.054688 657.429688 "/>
<path style="fill:none;stroke-width:1;stroke-linecap:butt;stroke-linejoin:miter;stroke:rgb(26.666667%,26.666667%,26.666667%);stroke-opacity:1;stroke-miterlimit:10;" d="M 168.714844 669.675781 L 173.414062 583.539062 "/>
<path style="fill:none;stroke-width:1;stroke-linecap:butt;stroke-linejoin:miter;stroke:rgb(26.666667%,26.666667%,26.666667%);stroke-opacity:1;stroke-miterlimit:10;" d="M 137.226562 696.40625 L 173.414062 583.539062 "/>
<path style="fill:none;stroke-width:1;stroke-linecap:butt;stroke-linejoin:miter;stroke:rgb(26.666667%,26.666667%,26.666667%);stroke-opacity:1;stroke-miterlimit:10;" d="M 191.402344 536.9375 L 173.414062 583.539062 "/>
<path style="fill:none;stroke-width:1;stroke-linecap:butt;stroke-linejoin:miter;stroke:rgb(26.666667%,26.666667%,26.666667%);stroke-opacity:1;stroke-miterlimit:10;" d="M 191.402344 536.9375 L 211.808594 465.234375 "/>
<path style="fill:none;stroke-width:1;stroke-linecap:butt;stroke-linejoin:miter;stroke:rgb(26.666667%,26.666667%,26.666667%);stroke-opacity:1;stroke-miterlimit:10;" d="M 162.578125 365.089844 L 228.640625 523.179688 "/>
<path style="fill:none;stroke-width:1;stroke-linecap:butt;stroke-linejoin:miter;stroke:rgb(26.666667%,26.666667%,26.666667%);stroke-opacity:1;stroke-miterlimit:10;" d="M 104.164062 559.027344 L 168.714844 669.675781 "/>
<path style="fill:none;stroke-width:1;stroke-linecap:butt;stroke-linejoin:miter;stroke:rgb(26.666667%,26.666667%,26.666667%);stroke-opacity:1;stroke-miterlimit:10;" d="M 241.101562 333.347656 L 278.339844 438.871094 "/>
<path style="fill:none;stroke-width:1;stroke-linecap:butt;stroke-linejoin:miter;stroke:rgb(26.666667%,26.666667%,26.666667%);stroke-opacity:1;stroke-miterlimit:10;" d="M 298.214844 375.566406 L 211.808594 465.234375 "/>
<path style="fill-rule:nonzero;fill:rgb(100%,75.294118%,79.607843%);fill-opacity:1;stroke-width:1;stroke-linecap:butt;stroke-linejoin:miter;stroke:rgb(0%,0%,0%);stroke-opacity:1;stroke-miterlimit:10;" d="M 152.816406 632.199219 C 152.816406 637.71875 148.339844 642.199219 142.816406 642.199219 C 137.292969 642.199219 132.816406 637.71875 132.816406 632.199219 C 132.816406 626.675781 137.292969 622.199219 142.816406 622.199219 C 148.339844 622.199219 152.816406 626.675781 152.816406 632.199219 "/>
<path style="fill-rule:nonzero;fill:rgb(100%,75.294118%,79.607843%);fill-opacity:1;stroke-width:1;stroke-linecap:butt;stroke-linejoin:miter;stroke:rgb(0%,0%,0%);stroke-opacity:1;stroke-miterlimit:10;" d="M 208.136719 314.371094 C 208.136719 319.894531 203.65625 324.371094 198.136719 324.371094 C 192.613281 324.371094 188.136719 319.894531 188.136719 314.371094 C 188.136719 308.847656 192.613281 304.371094 198.136719 304.371094 C 203.65625 304.371094 208.136719 308.847656 208.136719 314.371094 "/>
<path style="fill-rule:nonzero;fill:rgb(100%,75.294118%,79.607843%);fill-opacity:1;stroke-width:1;stroke-linecap:butt;stroke-linejoin:miter;stroke:rgb(0%,0%,0%);stroke-opacity:1;stroke-miterlimit:10;" d="M 233.105469 233.742188 C 233.105469 239.261719 228.628906 243.742188 223.105469 243.742188 C 217.585938 243.742188 213.105469 239.261719 213.105469 233.742188 C 213.105469 228.21875 217.585938 223.742188 223.105469 223.742188 C 228.628906 223.742188 233.105469 228.21875 233.105469 233.742188 "/>
<path style="fill-rule:nonzero;fill:rgb(100%,75.294118%,79.607843%);fill-opacity:1;stroke-width:1;stroke-linecap:butt;stroke-linejoin:miter;stroke:rgb(0%,0%,0%);stroke-opacity:1;stroke-miterlimit:10;" d="M 261.390625 406.253906 C 261.390625 411.777344 256.914062 416.253906 251.390625 416.253906 C 245.871094 416.253906 241.390625 411.777344 241.390625 406.253906 C 241.390625 400.730469 245.871094 396.253906 251.390625 396.253906 C 256.914062 396.253906 261.390625 400.730469 261.390625 406.253906 "/>
<path style="fill-rule:nonzero;fill:rgb(100%,75.294118%,79.607843%);fill-opacity:1;stroke-width:1;stroke-linecap:butt;stroke-linejoin:miter;stroke:rgb(0%,0%,0%);stroke-opacity:1;stroke-miterlimit:10;" d="M 191.328125 448.96875 C 191.328125 454.492188 186.851562 458.96875 181.328125 458.96875 C 175.804688 458.96875 171.328125 454.492188 171.328125 448.96875 C 171.328125 443.445312 175.804688 438.96875 181.328125 438.96875 C 186.851562 438.96875 191.328125 443.445312 191.328125 448.96875 "/>
<path style="fill-rule:nonzero;fill:rgb(67.843137%,84.705882%,90.196078%);fill-opacity:1;stroke-width:1;stroke-linecap:butt;stroke-linejoin:miter;stroke:rgb(0%,0%,0%);stroke-opacity:1;stroke-miterlimit:10;" d="M 172.578125 365.089844 C 172.578125 370.613281 168.097656 375.089844 162.578125 375.089844 C 157.054688 375.089844 152.578125 370.613281 152.578125 365.089844 C 152.578125 359.566406 157.054688 355.089844 162.578125 355.089844 C 168.097656 355.089844 172.578125 359.566406 172.578125 365.089844 "/>
<path style="fill-rule:nonzero;fill:rgb(100%,75.294118%,79.607843%);fill-opacity:1;stroke-width:1;stroke-linecap:butt;stroke-linejoin:miter;stroke:rgb(0%,0%,0%);stroke-opacity:1;stroke-miterlimit:10;" d="M 130.804688 432.617188 C 130.804688 438.136719 126.328125 442.617188 120.804688 442.617188 C 115.28125 442.617188 110.804688 438.136719 110.804688 432.617188 C 110.804688 427.09375 115.28125 422.617188 120.804688 422.617188 C 126.328125 422.617188 130.804688 427.09375 130.804688 432.617188 "/>
<path style="fill-rule:nonzero;fill:rgb(100%,75.294118%,79.607843%);fill-opacity:1;stroke-width:1;stroke-linecap:butt;stroke-linejoin:miter;stroke:rgb(0%,0%,0%);stroke-opacity:1;stroke-miterlimit:10;" d="M 179.347656 571.523438 C 179.347656 577.046875 174.867188 581.523438 169.347656 581.523438 C 163.824219 581.523438 159.347656 577.046875 159.347656 571.523438 C 159.347656 566 163.824219 561.523438 169.347656 561.523438 C 174.867188 561.523438 179.347656 566 179.347656 571.523438 "/>
<path style="fill-rule:nonzero;fill:rgb(100%,75.294118%,79.607843%);fill-opacity:1;stroke-width:1;stroke-linecap:butt;stroke-linejoin:miter;stroke:rgb(0%,0%,0%);stroke-opacity:1;stroke-miterlimit:10;" d="M 158.339844 170.550781 C 158.339844 176.074219 153.859375 180.550781 148.339844 180.550781 C 142.816406 180.550781 138.339844 176.074219 138.339844 170.550781 C 138.339844 165.027344 142.816406 160.550781 148.339844 160.550781 C 153.859375 160.550781 158.339844 165.027344 158.339844 170.550781 "/>
<path style="fill-rule:nonzero;fill:rgb(100%,75.294118%,79.607843%);fill-opacity:1;stroke-width:1;stroke-linecap:butt;stroke-linejoin:miter;stroke:rgb(0%,0%,0%);stroke-opacity:1;stroke-miterlimit:10;" d="M 137.792969 182.777344 C 137.792969 188.300781 133.3125 192.777344 127.792969 192.777344 C 122.269531 192.777344 117.792969 188.300781 117.792969 182.777344 C 117.792969 177.257812 122.269531 172.777344 127.792969 172.777344 C 133.3125 172.777344 137.792969 177.257812 137.792969 182.777344 "/>
<path style="fill-rule:nonzero;fill:rgb(100%,75.294118%,79.607843%);fill-opacity:1;stroke-width:1;stroke-linecap:butt;stroke-linejoin:miter;stroke:rgb(0%,0%,0%);stroke-opacity:1;stroke-miterlimit:10;" d="M 270.679688 760 C 270.679688 765.523438 266.203125 770 260.679688 770 C 255.15625 770 250.679688 765.523438 250.679688 760 C 250.679688 754.476562 255.15625 750 260.679688 750 C 266.203125 750 270.679688 754.476562 270.679688 760 "/>
<path style="fill-rule:nonzero;fill:rgb(100%,75.294118%,79.607843%);fill-opacity:1;stroke-width:1;stroke-linecap:butt;stroke-linejoin:miter;stroke:rgb(0%,0%,0%);stroke-opacity:1;stroke-miterlimit:10;" d="M 209.863281 40 C 209.863281 45.523438 205.386719 50 199.863281 50 C 194.339844 50 189.863281 45.523438 189.863281 40 C 189.863281 34.476562 194.339844 30 199.863281 30 C 205.386719 30 209.863281 34.476562 209.863281 40 "/>
<path style="fill-rule:nonzero;fill:rgb(100%,75.294118%,79.607843%);fill-opacity:1;stroke-width:1;stroke-linecap:butt;stroke-linejoin:miter;stroke:rgb(0%,0%,0%);stroke-opacity:1;stroke-miterlimit:10;" d="M 214.171875 492.285156 C 214.171875 497.804688 209.695312 502.285156 204.171875 502.285156 C 198.648438 502.285156 194.171875 497.804688 194.171875 492.285156 C 194.171875 486.761719 198.648438 482.285156 204.171875 482.285156 C 209.695312 482.285156 214.171875 486.761719 214.171875 492.285156 "/>
<path style="fill-rule:nonzero;fill:rgb(100%,75.294118%,79.607843%);fill-opacity:1;stroke-width:1;stroke-linecap:butt;stroke-linejoin:miter;stroke:rgb(0%,0%,0%);stroke-opacity:1;stroke-miterlimit:10;" d="M 347.054688 403.863281 C 347.054688 409.386719 342.578125 413.863281 337.054688 413.863281 C 331.53125 413.863281 327.054688 409.386719 327.054688 403.863281 C 327.054688 398.339844 331.53125 393.863281 337.054688 393.863281 C 342.578125 393.863281 347.054688 398.339844 347.054688 403.863281 "/>
<path style="fill-rule:nonzero;fill:rgb(100%,75.294118%,79.607843%);fill-opacity:1;stroke-width:1;stroke-linecap:butt;stroke-linejoin:miter;stroke:rgb(0%,0%,0%);stroke-opacity:1;stroke-miterlimit:10;" d="M 143.371094 510.964844 C 143.371094 516.488281 138.894531 520.964844 133.371094 520.964844 C 127.847656 520.964844 123.371094 516.488281 123.371094 510.964844 C 123.371094 505.445312 127.847656 500.964844 133.371094 500.964844 C 138.894531 500.964844 143.371094 505.445312 143.371094 510.964844 "/>
<path style="fill-rule:nonzero;fill:rgb(100%,75.294118%,79.607843%);fill-opacity:1;stroke-width:1;stroke-linecap:butt;stroke-linejoin:miter;stroke:rgb(0%,0%,0%);stroke-opacity:1;stroke-miterlimit:10;" d="M 171.410156 502.949219 C 171.410156 508.472656 166.933594 512.949219 161.410156 512.949219 C 155.890625 512.949219 151.410156 508.472656 151.410156 502.949219 C 151.410156 497.425781 155.890625 492.949219 161.410156 492.949219 C 166.933594 492.949219 171.410156 497.425781 171.410156 502.949219 "/>
<path style="fill-rule:nonzero;fill:rgb(100%,75.294118%,79.607843%);fill-opacity:1;stroke-width:1;stroke-linecap:butt;stroke-linejoin:miter;stroke:rgb(0%,0%,0%);stroke-opacity:1;stroke-miterlimit:10;" d="M 114.164062 559.027344 C 114.164062 564.550781 109.6875 569.027344 104.164062 569.027344 C 98.644531 569.027344 94.164062 564.550781 94.164062 559.027344 C 94.164062 553.503906 98.644531 549.027344 104.164062 549.027344 C 109.6875 549.027344 114.164062 553.503906 114.164062 559.027344 "/>
<path style="fill-rule:nonzero;fill:rgb(100%,75.294118%,79.607843%);fill-opacity:1;stroke-width:1;stroke-linecap:butt;stroke-linejoin:miter;stroke:rgb(0%,0%,0%);stroke-opacity:1;stroke-miterlimit:10;" d="M 240.78125 566.359375 C 240.78125 571.882812 236.304688 576.359375 230.78125 576.359375 C 225.257812 576.359375 220.78125 571.882812 220.78125 566.359375 C 220.78125 560.835938 225.257812 556.359375 230.78125 556.359375 C 236.304688 556.359375 240.78125 560.835938 240.78125 566.359375 "/>
<path style="fill-rule:nonzero;fill:rgb(100%,75.294118%,79.607843%);fill-opacity:1;stroke-width:1;stroke-linecap:butt;stroke-linejoin:miter;stroke:rgb(0%,0%,0%);stroke-opacity:1;stroke-miterlimit:10;" d="M 178.714844 669.675781 C 178.714844 675.199219 174.234375 679.675781 168.714844 679.675781 C 163.191406 679.675781 158.714844 675.199219 158.714844 669.675781 C 158.714844 664.152344 163.191406 659.675781 168.714844 659.675781 C 174.234375 659.675781 178.714844 664.152344 178.714844 669.675781 "/>
<path style="fill-rule:nonzero;fill:rgb(100%,75.294118%,79.607843%);fill-opacity:1;stroke-width:1;stroke-linecap:butt;stroke-linejoin:miter;stroke:rgb(0%,0%,0%);stroke-opacity:1;stroke-miterlimit:10;" d="M 147.226562 696.40625 C 147.226562 701.929688 142.75 706.40625 137.226562 706.40625 C 131.703125 706.40625 127.226562 701.929688 127.226562 696.40625 C 127.226562 690.886719 131.703125 686.40625 137.226562 686.40625 C 142.75 686.40625 147.226562 690.886719 147.226562 696.40625 "/>
<path style="fill-rule:nonzero;fill:rgb(100%,75.294118%,79.607843%);fill-opacity:1;stroke-width:1;stroke-linecap:butt;stroke-linejoin:miter;stroke:rgb(0%,0%,0%);stroke-opacity:1;stroke-miterlimit:10;" d="M 57.859375 436.691406 C 57.859375 442.214844 53.382812 446.691406 47.859375 446.691406 C 42.335938 446.691406 37.859375 442.214844 37.859375 436.691406 C 37.859375 431.167969 42.335938 426.691406 47.859375 426.691406 C 53.382812 426.691406 57.859375 431.167969 57.859375 436.691406 "/>
<path style="fill-rule:nonzero;fill:rgb(100%,75.294118%,79.607843%);fill-opacity:1;stroke-width:1;stroke-linecap:butt;stroke-linejoin:miter;stroke:rgb(0%,0%,0%);stroke-opacity:1;stroke-miterlimit:10;" d="M 196.460938 484.507812 C 196.460938 490.027344 191.984375 494.507812 186.460938 494.507812 C 180.9375 494.507812 176.460938 490.027344 176.460938 484.507812 C 176.460938 478.984375 180.9375 474.507812 186.460938 474.507812 C 191.984375 474.507812 196.460938 478.984375 196.460938 484.507812 "/>
<path style="fill-rule:nonzero;fill:rgb(100%,75.294118%,79.607843%);fill-opacity:1;stroke-width:1;stroke-linecap:butt;stroke-linejoin:miter;stroke:rgb(0%,0%,0%);stroke-opacity:1;stroke-miterlimit:10;" d="M 206.765625 446.078125 C 206.765625 451.601562 202.285156 456.078125 196.765625 456.078125 C 191.242188 456.078125 186.765625 451.601562 186.765625 446.078125 C 186.765625 440.554688 191.242188 436.078125 196.765625 436.078125 C 202.285156 436.078125 206.765625 440.554688 206.765625 446.078125 "/>
<path style="fill-rule:nonzero;fill:rgb(100%,75.294118%,79.607843%);fill-opacity:1;stroke-width:1;stroke-linecap:butt;stroke-linejoin:miter;stroke:rgb(0%,0%,0%);stroke-opacity:1;stroke-miterlimit:10;" d="M 211.886719 450.160156 C 211.886719 455.679688 207.410156 460.160156 201.886719 460.160156 C 196.363281 460.160156 191.886719 455.679688 191.886719 450.160156 C 191.886719 444.636719 196.363281 440.160156 201.886719 440.160156 C 207.410156 440.160156 211.886719 444.636719 211.886719 450.160156 "/>
<path style="fill-rule:nonzero;fill:rgb(100%,75.294118%,79.607843%);fill-opacity:1;stroke-width:1;stroke-linecap:butt;stroke-linejoin:miter;stroke:rgb(0%,0%,0%);stroke-opacity:1;stroke-miterlimit:10;" d="M 278.121094 578.253906 C 278.121094 583.777344 273.644531 588.253906 268.121094 588.253906 C 262.597656 588.253906 258.121094 583.777344 258.121094 578.253906 C 258.121094 572.730469 262.597656 568.253906 268.121094 568.253906 C 273.644531 568.253906 278.121094 572.730469 278.121094 578.253906 "/>
<path style="fill-rule:nonzero;fill:rgb(67.843137%,84.705882%,90.196078%);fill-opacity:1;stroke-width:1;stroke-linecap:butt;stroke-linejoin:miter;stroke:rgb(0%,0%,0%);stroke-opacity:1;stroke-miterlimit:10;" d="M 166.882812 467.640625 C 166.882812 473.164062 162.40625 477.640625 156.882812 477.640625 C 151.359375 477.640625 146.882812 473.164062 146.882812 467.640625 C 146.882812 462.117188 151.359375 457.640625 156.882812 457.640625 C 162.40625 457.640625 166.882812 462.117188 166.882812 467.640625 "/>
<path style="fill-rule:nonzero;fill:rgb(100%,75.294118%,79.607843%);fill-opacity:1;stroke-width:1;stroke-linecap:butt;stroke-linejoin:miter;stroke:rgb(0%,0%,0%);stroke-opacity:1;stroke-miterlimit:10;" d="M 219.589844 751.980469 C 219.589844 757.503906 215.113281 761.980469 209.589844 761.980469 C 204.066406 761.980469 199.589844 757.503906 199.589844 751.980469 C 199.589844 746.457031 204.066406 741.980469 209.589844 741.980469 C 215.113281 741.980469 219.589844 746.457031 219.589844 751.980469 "/>
<path style="fill-rule:nonzero;fill:rgb(67.843137%,84.705882%,90.196078%);fill-opacity:1;stroke-width:1;stroke-linecap:butt;stroke-linejoin:miter;stroke:rgb(0%,0%,0%);stroke-opacity:1;stroke-miterlimit:10;" d="M 238.640625 523.179688 C 238.640625 528.703125 234.164062 533.179688 228.640625 533.179688 C 223.121094 533.179688 218.640625 528.703125 218.640625 523.179688 C 218.640625 517.660156 223.121094 513.179688 228.640625 513.179688 C 234.164062 513.179688 238.640625 517.660156 238.640625 523.179688 "/>
<path style="fill-rule:nonzero;fill:rgb(100%,75.294118%,79.607843%);fill-opacity:1;stroke-width:1;stroke-linecap:butt;stroke-linejoin:miter;stroke:rgb(0%,0%,0%);stroke-opacity:1;stroke-miterlimit:10;" d="M 155.753906 621.308594 C 155.753906 626.832031 151.277344 631.308594 145.753906 631.308594 C 140.230469 631.308594 135.753906 626.832031 135.753906 621.308594 C 135.753906 615.789062 140.230469 611.308594 145.753906 611.308594 C 151.277344 611.308594 155.753906 615.789062 155.753906 621.308594 "/>
<path style="fill-rule:nonzero;fill:rgb(67.843137%,84.705882%,90.196078%);fill-opacity:1;stroke-width:1;stroke-linecap:butt;stroke-linejoin:miter;stroke:rgb(0%,0%,0%);stroke-opacity:1;stroke-miterlimit:10;" d="M 201.402344 536.9375 C 201.402344 542.460938 196.925781 546.9375 191.402344 546.9375 C 185.882812 546.9375 181.402344 542.460938 181.402344 536.9375 C 181.402344 531.417969 185.882812 526.9375 191.402344 526.9375 C 196.925781 526.9375 201.402344 531.417969 201.402344 536.9375 "/>
<path style="fill-rule:nonzero;fill:rgb(100%,75.294118%,79.607843%);fill-opacity:1;stroke-width:1;stroke-linecap:butt;stroke-linejoin:miter;stroke:rgb(0%,0%,0%);stroke-opacity:1;stroke-miterlimit:10;" d="M 116.789062 647.605469 C 116.789062 653.128906 112.3125 657.605469 106.789062 657.605469 C 101.269531 657.605469 96.789062 653.128906 96.789062 647.605469 C 96.789062 642.082031 101.269531 637.605469 106.789062 637.605469 C 112.3125 637.605469 116.789062 642.082031 116.789062 647.605469 "/>
<path style="fill-rule:nonzero;fill:rgb(100%,75.294118%,79.607843%);fill-opacity:1;stroke-width:1;stroke-linecap:butt;stroke-linejoin:miter;stroke:rgb(0%,0%,0%);stroke-opacity:1;stroke-miterlimit:10;" d="M 50 433.148438 C 50 438.671875 45.523438 443.148438 40 443.148438 C 34.476562 443.148438 30 438.671875 30 433.148438 C 30 427.625 34.476562 423.148438 40 423.148438 C 45.523438 423.148438 50 427.625 50 433.148438 "/>
<path style="fill-rule:nonzero;fill:rgb(100%,75.294118%,79.607843%);fill-opacity:1;stroke-width:1;stroke-linecap:butt;stroke-linejoin:miter;stroke:rgb(0%,0%,0%);stroke-opacity:1;stroke-miterlimit:10;" d="M 265.253906 599.855469 C 265.253906 605.378906 260.777344 609.855469 255.253906 609.855469 C 249.734375 609.855469 245.253906 605.378906 245.253906 599.855469 C 245.253906 594.335938 249.734375 589.855469 255.253906 589.855469 C 260.777344 589.855469 265.253906 594.335938 265.253906 599.855469 "/>
<path style="fill-rule:nonzero;fill:rgb(100%,75.294118%,79.607843%);fill-opacity:1;stroke-width:1;stroke-linecap:butt;stroke-linejoin:miter;stroke:rgb(0%,0%,0%);stroke-opacity:1;stroke-miterlimit:10;" d="M 215.679688 489.574219 C 215.679688 495.097656 211.203125 499.574219 205.679688 499.574219 C 200.15625 499.574219 195.679688 495.097656 195.679688 489.574219 C 195.679688 484.050781 200.15625 479.574219 205.679688 479.574219 C 211.203125 479.574219 215.679688 484.050781 215.679688 489.574219 "/>
<path style="fill-rule:nonzero;fill:rgb(100%,75.294118%,79.607843%);fill-opacity:1;stroke-width:1;stroke-linecap:butt;stroke-linejoin:miter;stroke:rgb(0%,0%,0%);stroke-opacity:1;stroke-miterlimit:10;" d="M 208.816406 470.949219 C 208.816406 476.472656 204.339844 480.949219 198.816406 480.949219 C 193.292969 480.949219 188.816406 476.472656 188.816406 470.949219 C 188.816406 465.429688 193.292969 460.949219 198.816406 460.949219 C 204.339844 460.949219 208.816406 465.429688 208.816406 470.949219 "/>
<path style="fill-rule:nonzero;fill:rgb(100%,75.294118%,79.607843%);fill-opacity:1;stroke-width:1;stroke-linecap:butt;stroke-linejoin:miter;stroke:rgb(0%,0%,0%);stroke-opacity:1;stroke-miterlimit:10;" d="M 130.945312 530.632812 C 130.945312 536.15625 126.46875 540.632812 120.945312 540.632812 C 115.421875 540.632812 110.945312 536.15625 110.945312 530.632812 C 110.945312 525.109375 115.421875 520.632812 120.945312 520.632812 C 126.46875 520.632812 130.945312 525.109375 130.945312 530.632812 "/>
<path style="fill-rule:nonzero;fill:rgb(100%,75.294118%,79.607843%);fill-opacity:1;stroke-width:1;stroke-linecap:butt;stroke-linejoin:miter;stroke:rgb(0%,0%,0%);stroke-opacity:1;stroke-miterlimit:10;" d="M 236.273438 423.714844 C 236.273438 429.238281 231.792969 433.714844 226.273438 433.714844 C 220.75 433.714844 216.273438 429.238281 216.273438 423.714844 C 216.273438 418.191406 220.75 413.714844 226.273438 413.714844 C 231.792969 413.714844 236.273438 418.191406 236.273438 423.714844 "/>
<path style="fill-rule:nonzero;fill:rgb(100%,75.294118%,79.607843%);fill-opacity:1;stroke-width:1;stroke-linecap:butt;stroke-linejoin:miter;stroke:rgb(0%,0%,0%);stroke-opacity:1;stroke-miterlimit:10;" d="M 137.382812 451.292969 C 137.382812 456.816406 132.90625 461.292969 127.382812 461.292969 C 121.859375 461.292969 117.382812 456.816406 117.382812 451.292969 C 117.382812 445.769531 121.859375 441.292969 127.382812 441.292969 C 132.90625 441.292969 137.382812 445.769531 137.382812 451.292969 "/>
<path style="fill-rule:nonzero;fill:rgb(100%,75.294118%,79.607843%);fill-opacity:1;stroke-width:1;stroke-linecap:butt;stroke-linejoin:miter;stroke:rgb(0%,0%,0%);stroke-opacity:1;stroke-miterlimit:10;" d="M 251.101562 333.347656 C 251.101562 338.871094 246.621094 343.347656 241.101562 343.347656 C 235.578125 343.347656 231.101562 338.871094 231.101562 333.347656 C 231.101562 327.828125 235.578125 323.347656 241.101562 323.347656 C 246.621094 323.347656 251.101562 327.828125 251.101562 333.347656 "/>
<path style="fill-rule:nonzero;fill:rgb(100%,75.294118%,79.607843%);fill-opacity:1;stroke-width:1;stroke-linecap:butt;stroke-linejoin:miter;stroke:rgb(0%,0%,0%);stroke-opacity:1;stroke-miterlimit:10;" d="M 94.386719 274.753906 C 94.386719 280.277344 89.910156 284.753906 84.386719 284.753906 C 78.863281 284.753906 74.386719 280.277344 74.386719 274.753906 C 74.386719 269.230469 78.863281 264.753906 84.386719 264.753906 C 89.910156 264.753906 94.386719 269.230469 94.386719 274.753906 "/>
<path style="fill-rule:nonzero;fill:rgb(100%,75.294118%,79.607843%);fill-opacity:1;stroke-width:1;stroke-linecap:butt;stroke-linejoin:miter;stroke:rgb(0%,0%,0%);stroke-opacity:1;stroke-miterlimit:10;" d="M 174.039062 449.628906 C 174.039062 455.152344 169.5625 459.628906 164.039062 459.628906 C 158.519531 459.628906 154.039062 455.152344 154.039062 449.628906 C 154.039062 444.109375 158.519531 439.628906 164.039062 439.628906 C 169.5625 439.628906 174.039062 444.109375 174.039062 449.628906 "/>
<path style="fill-rule:nonzero;fill:rgb(100%,75.294118%,79.607843%);fill-opacity:1;stroke-width:1;stroke-linecap:butt;stroke-linejoin:miter;stroke:rgb(0%,0%,0%);stroke-opacity:1;stroke-miterlimit:10;" d="M 99.703125 292.011719 C 99.703125 297.535156 95.226562 302.011719 89.703125 302.011719 C 84.179688 302.011719 79.703125 297.535156 79.703125 292.011719 C 79.703125 286.488281 84.179688 282.011719 89.703125 282.011719 C 95.226562 282.011719 99.703125 286.488281 99.703125 292.011719 "/>
<path style="fill-rule:nonzero;fill:rgb(100%,75.294118%,79.607843%);fill-opacity:1;stroke-width:1;stroke-linecap:butt;stroke-linejoin:miter;stroke:rgb(0%,0%,0%);stroke-opacity:1;stroke-miterlimit:10;" d="M 370 467.511719 C 370 473.035156 365.523438 477.511719 360 477.511719 C 354.476562 477.511719 350 473.035156 350 467.511719 C 350 461.988281 354.476562 457.511719 360 457.511719 C 365.523438 457.511719 370 461.988281 370 467.511719 "/>
<path style="fill-rule:nonzero;fill:rgb(100%,75.294118%,79.607843%);fill-opacity:1;stroke-width:1;stroke-linecap:butt;stroke-linejoin:miter;stroke:rgb(0%,0%,0%);stroke-opacity:1;stroke-miterlimit:10;" d="M 252.105469 315.386719 C 252.105469 320.910156 247.628906 325.386719 242.105469 325.386719 C 236.582031 325.386719 232.105469 320.910156 232.105469 315.386719 C 232.105469 309.867188 236.582031 305.386719 242.105469 305.386719 C 247.628906 305.386719 252.105469 309.867188 252.105469 315.386719 "/>
<path style="fill-rule:nonzero;fill:rgb(100%,75.294118%,79.607843%);fill-opacity:1;stroke-width:1;stroke-linecap:butt;stroke-linejoin:miter;stroke:rgb(0%,0%,0%);stroke-opacity:1;stroke-miterlimit:10;" d="M 308.214844 375.566406 C 308.214844 381.089844 303.738281 385.566406 298.214844 385.566406 C 292.691406 385.566406 288.214844 381.089844 288.214844 375.566406 C 288.214844 370.042969 292.691406 365.566406 298.214844 365.566406 C 303.738281 365.566406 308.214844 370.042969 308.214844 375.566406 "/>
<path style="fill-rule:nonzero;fill:rgb(100%,75.294118%,79.607843%);fill-opacity:1;stroke-width:1;stroke-linecap:butt;stroke-linejoin:miter;stroke:rgb(0%,0%,0%);stroke-opacity:1;stroke-miterlimit:10;" d="M 139.542969 276.046875 C 139.542969 281.570312 135.066406 286.046875 129.542969 286.046875 C 124.019531 286.046875 119.542969 281.570312 119.542969 276.046875 C 119.542969 270.527344 124.019531 266.046875 129.542969 266.046875 C 135.066406 266.046875 139.542969 270.527344 139.542969 276.046875 "/>
<path style="fill-rule:nonzero;fill:rgb(100%,75.294118%,79.607843%);fill-opacity:1;stroke-width:1;stroke-linecap:butt;stroke-linejoin:miter;stroke:rgb(0%,0%,0%);stroke-opacity:1;stroke-miterlimit:10;" d="M 124.445312 578.207031 C 124.445312 583.730469 119.96875 588.207031 114.445312 588.207031 C 108.921875 588.207031 104.445312 583.730469 104.445312 578.207031 C 104.445312 572.6875 108.921875 568.207031 114.445312 568.207031 C 119.96875 568.207031 124.445312 572.6875 124.445312 578.207031 "/>
<path style="fill-rule:nonzero;fill:rgb(100%,75.294118%,79.607843%);fill-opacity:1;stroke-width:1;stroke-linecap:butt;stroke-linejoin:miter;stroke:rgb(0%,0%,0%);stroke-opacity:1;stroke-miterlimit:10;" d="M 189.539062 172.53125 C 189.539062 178.054688 185.0625 182.53125 179.539062 182.53125 C 174.015625 182.53125 169.539062 178.054688 169.539062 172.53125 C 169.539062 167.007812 174.015625 162.53125 179.539062 162.53125 C 185.0625 162.53125 189.539062 167.007812 189.539062 172.53125 "/>
<path style="fill-rule:nonzero;fill:rgb(100%,75.294118%,79.607843%);fill-opacity:1;stroke-width:1;stroke-linecap:butt;stroke-linejoin:miter;stroke:rgb(0%,0%,0%);stroke-opacity:1;stroke-miterlimit:10;" d="M 63.957031 457.265625 C 63.957031 462.789062 59.480469 467.265625 53.957031 467.265625 C 48.433594 467.265625 43.957031 462.789062 43.957031 457.265625 C 43.957031 451.742188 48.433594 447.265625 53.957031 447.265625 C 59.480469 447.265625 63.957031 451.742188 63.957031 457.265625 "/>
<path style="fill-rule:nonzero;fill:rgb(100%,75.294118%,79.607843%);fill-opacity:1;stroke-width:1;stroke-linecap:butt;stroke-linejoin:miter;stroke:rgb(0%,0%,0%);stroke-opacity:1;stroke-miterlimit:10;" d="M 74.90625 473.316406 C 74.90625 478.835938 70.425781 483.316406 64.90625 483.316406 C 59.382812 483.316406 54.90625 478.835938 54.90625 473.316406 C 54.90625 467.792969 59.382812 463.316406 64.90625 463.316406 C 70.425781 463.316406 74.90625 467.792969 74.90625 473.316406 "/>
<path style="fill-rule:nonzero;fill:rgb(100%,75.294118%,79.607843%);fill-opacity:1;stroke-width:1;stroke-linecap:butt;stroke-linejoin:miter;stroke:rgb(0%,0%,0%);stroke-opacity:1;stroke-miterlimit:10;" d="M 60.296875 629.558594 C 60.296875 635.082031 55.820312 639.558594 50.296875 639.558594 C 44.773438 639.558594 40.296875 635.082031 40.296875 629.558594 C 40.296875 624.039062 44.773438 619.558594 50.296875 619.558594 C 55.820312 619.558594 60.296875 624.039062 60.296875 629.558594 "/>
<path style="fill-rule:nonzero;fill:rgb(100%,75.294118%,79.607843%);fill-opacity:1;stroke-width:1;stroke-linecap:butt;stroke-linejoin:miter;stroke:rgb(0%,0%,0%);stroke-opacity:1;stroke-miterlimit:10;" d="M 288.339844 438.871094 C 288.339844 444.394531 283.863281 448.871094 278.339844 448.871094 C 272.816406 448.871094 268.339844 444.394531 268.339844 438.871094 C 268.339844 433.347656 272.816406 428.871094 278.339844 428.871094 C 283.863281 428.871094 288.339844 433.347656 288.339844 438.871094 "/>
<path style="fill-rule:nonzero;fill:rgb(100%,75.294118%,79.607843%);fill-opacity:1;stroke-width:1;stroke-linecap:butt;stroke-linejoin:miter;stroke:rgb(0%,0%,0%);stroke-opacity:1;stroke-miterlimit:10;" d="M 368.382812 632.492188 C 368.382812 638.015625 363.90625 642.492188 358.382812 642.492188 C 352.859375 642.492188 348.382812 638.015625 348.382812 632.492188 C 348.382812 626.96875 352.859375 622.492188 358.382812 622.492188 C 363.90625 622.492188 368.382812 626.96875 368.382812 632.492188 "/>
<path style="fill-rule:nonzero;fill:rgb(100%,75.294118%,79.607843%);fill-opacity:1;stroke-width:1;stroke-linecap:butt;stroke-linejoin:miter;stroke:rgb(0%,0%,0%);stroke-opacity:1;stroke-miterlimit:10;" d="M 192.632812 489.28125 C 192.632812 494.804688 188.15625 499.28125 182.632812 499.28125 C 177.109375 499.28125 172.632812 494.804688 172.632812 489.28125 C 172.632812 483.757812 177.109375 479.28125 182.632812 479.28125 C 188.15625 479.28125 192.632812 483.757812 192.632812 489.28125 "/>
<path style="fill-rule:nonzero;fill:rgb(100%,75.294118%,79.607843%);fill-opacity:1;stroke-width:1;stroke-linecap:butt;stroke-linejoin:miter;stroke:rgb(0%,0%,0%);stroke-opacity:1;stroke-miterlimit:10;" d="M 277.273438 670.996094 C 277.273438 676.519531 272.796875 680.996094 267.273438 680.996094 C 261.75 680.996094 257.273438 676.519531 257.273438 670.996094 C 257.273438 665.476562 261.75 660.996094 267.273438 660.996094 C 272.796875 660.996094 277.273438 665.476562 277.273438 670.996094 "/>
<path style="fill-rule:nonzero;fill:rgb(100%,75.294118%,79.607843%);fill-opacity:1;stroke-width:1;stroke-linecap:butt;stroke-linejoin:miter;stroke:rgb(0%,0%,0%);stroke-opacity:1;stroke-miterlimit:10;" d="M 305.402344 560.9375 C 305.402344 566.460938 300.925781 570.9375 295.402344 570.9375 C 289.878906 570.9375 285.402344 566.460938 285.402344 560.9375 C 285.402344 555.414062 289.878906 550.9375 295.402344 550.9375 C 300.925781 550.9375 305.402344 555.414062 305.402344 560.9375 "/>
<path style="fill-rule:nonzero;fill:rgb(100%,75.294118%,79.607843%);fill-opacity:1;stroke-width:1;stroke-linecap:butt;stroke-linejoin:miter;stroke:rgb(0%,0%,0%);stroke-opacity:1;stroke-miterlimit:10;" d="M 163.785156 352.675781 C 163.785156 358.195312 159.308594 362.675781 153.785156 362.675781 C 148.265625 362.675781 143.785156 358.195312 143.785156 352.675781 C 143.785156 347.152344 148.265625 342.675781 153.785156 342.675781 C 159.308594 342.675781 163.785156 347.152344 163.785156 352.675781 "/>
<path style="fill-rule:nonzero;fill:rgb(100%,75.294118%,79.607843%);fill-opacity:1;stroke-width:1;stroke-linecap:butt;stroke-linejoin:miter;stroke:rgb(0%,0%,0%);stroke-opacity:1;stroke-miterlimit:10;" d="M 116.125 359.316406 C 116.125 364.839844 111.648438 369.316406 106.125 369.316406 C 100.601562 369.316406 96.125 364.839844 96.125 359.316406 C 96.125 353.792969 100.601562 349.316406 106.125 349.316406 C 111.648438 349.316406 116.125 353.792969 116.125 359.316406 "/>
<path style="fill-rule:nonzero;fill:rgb(100%,75.294118%,79.607843%);fill-opacity:1;stroke-width:1;stroke-linecap:butt;stroke-linejoin:miter;stroke:rgb(0%,0%,0%);stroke-opacity:1;stroke-miterlimit:10;" d="M 180.917969 511.917969 C 180.917969 517.441406 176.441406 521.917969 170.917969 521.917969 C 165.398438 521.917969 160.917969 517.441406 160.917969 511.917969 C 160.917969 506.394531 165.398438 501.917969 170.917969 501.917969 C 176.441406 501.917969 180.917969 506.394531 180.917969 511.917969 "/>
<path style="fill-rule:nonzero;fill:rgb(100%,75.294118%,79.607843%);fill-opacity:1;stroke-width:1;stroke-linecap:butt;stroke-linejoin:miter;stroke:rgb(0%,0%,0%);stroke-opacity:1;stroke-miterlimit:10;" d="M 285.160156 505.496094 C 285.160156 511.019531 280.683594 515.496094 275.160156 515.496094 C 269.640625 515.496094 265.160156 511.019531 265.160156 505.496094 C 265.160156 499.972656 269.640625 495.496094 275.160156 495.496094 C 280.683594 495.496094 285.160156 499.972656 285.160156 505.496094 "/>
<path style="fill-rule:nonzero;fill:rgb(100%,75.294118%,79.607843%);fill-opacity:1;stroke-width:1;stroke-linecap:butt;stroke-linejoin:miter;stroke:rgb(0%,0%,0%);stroke-opacity:1;stroke-miterlimit:10;" d="M 194.355469 486.933594 C 194.355469 492.457031 189.878906 496.933594 184.355469 496.933594 C 178.835938 496.933594 174.355469 492.457031 174.355469 486.933594 C 174.355469 481.410156 178.835938 476.933594 184.355469 476.933594 C 189.878906 476.933594 194.355469 481.410156 194.355469 486.933594 "/>
<path style="fill-rule:nonzero;fill:rgb(100%,75.294118%,79.607843%);fill-opacity:1;stroke-width:1;stroke-linecap:butt;stroke-linejoin:miter;stroke:rgb(0%,0%,0%);stroke-opacity:1;stroke-miterlimit:10;" d="M 242.625 413.46875 C 242.625 418.992188 238.148438 423.46875 232.625 423.46875 C 227.101562 423.46875 222.625 418.992188 222.625 413.46875 C 222.625 407.945312 227.101562 403.46875 232.625 403.46875 C 238.148438 403.46875 242.625 407.945312 242.625 413.46875 "/>
<path style="fill-rule:nonzero;fill:rgb(100%,75.294118%,79.607843%);fill-opacity:1;stroke-width:1;stroke-linecap:butt;stroke-linejoin:miter;stroke:rgb(0%,0%,0%);stroke-opacity:1;stroke-miterlimit:10;" d="M 286.136719 490.011719 C 286.136719 495.535156 281.660156 500.011719 276.136719 500.011719 C 270.613281 500.011719 266.136719 495.535156 266.136719 490.011719 C 266.136719 484.488281 270.613281 480.011719 276.136719 480.011719 C 281.660156 480.011719 286.136719 484.488281 286.136719 490.011719 "/>
<path style="fill-rule:nonzero;fill:rgb(100%,75.294118%,79.607843%);fill-opacity:1;stroke-width:1;stroke-linecap:butt;stroke-linejoin:miter;stroke:rgb(0%,0%,0%);stroke-opacity:1;stroke-miterlimit:10;" d="M 248.675781 421.960938 C 248.675781 427.484375 244.199219 431.960938 238.675781 431.960938 C 233.152344 431.960938 228.675781 427.484375 228.675781 421.960938 C 228.675781 416.4375 233.152344 411.960938 238.675781 411.960938 C 244.199219 411.960938 248.675781 416.4375 248.675781 421.960938 "/>
<path style="fill-rule:nonzero;fill:rgb(100%,75.294118%,79.607843%);fill-opacity:1;stroke-width:1;stroke-linecap:butt;stroke-linejoin:miter;stroke:rgb(0%,0%,0%);stroke-opacity:1;stroke-miterlimit:10;" d="M 200 395.640625 C 200 401.164062 195.519531 405.640625 190 405.640625 C 184.476562 405.640625 180 401.164062 180 395.640625 C 180 390.117188 184.476562 385.640625 190 385.640625 C 195.519531 385.640625 200 390.117188 200 395.640625 "/>
<path style="fill-rule:nonzero;fill:rgb(100%,75.294118%,79.607843%);fill-opacity:1;stroke-width:1;stroke-linecap:butt;stroke-linejoin:miter;stroke:rgb(0%,0%,0%);stroke-opacity:1;stroke-miterlimit:10;" d="M 253.753906 432.082031 C 253.753906 437.605469 249.277344 442.082031 243.753906 442.082031 C 238.230469 442.082031 233.753906 437.605469 233.753906 432.082031 C 233.753906 426.558594 238.230469 422.082031 243.753906 422.082031 C 249.277344 422.082031 253.753906 426.558594 253.753906 432.082031 "/>
<path style="fill-rule:nonzero;fill:rgb(100%,75.294118%,79.607843%);fill-opacity:1;stroke-width:1;stroke-linecap:butt;stroke-linejoin:miter;stroke:rgb(0%,0%,0%);stroke-opacity:1;stroke-miterlimit:10;" d="M 96.132812 356.820312 C 96.132812 362.339844 91.65625 366.820312 86.132812 366.820312 C 80.609375 366.820312 76.132812 362.339844 76.132812 356.820312 C 76.132812 351.296875 80.609375 346.820312 86.132812 346.820312 C 91.65625 346.820312 96.132812 351.296875 96.132812 356.820312 "/>
<path style="fill-rule:nonzero;fill:rgb(100%,75.294118%,79.607843%);fill-opacity:1;stroke-width:1;stroke-linecap:butt;stroke-linejoin:miter;stroke:rgb(0%,0%,0%);stroke-opacity:1;stroke-miterlimit:10;" d="M 127.566406 755.246094 C 127.566406 760.769531 123.089844 765.246094 117.566406 765.246094 C 112.046875 765.246094 107.566406 760.769531 107.566406 755.246094 C 107.566406 749.726562 112.046875 745.246094 117.566406 745.246094 C 123.089844 745.246094 127.566406 749.726562 127.566406 755.246094 "/>
<path style="fill-rule:nonzero;fill:rgb(67.843137%,84.705882%,90.196078%);fill-opacity:1;stroke-width:1;stroke-linecap:butt;stroke-linejoin:miter;stroke:rgb(0%,0%,0%);stroke-opacity:1;stroke-miterlimit:10;" d="M 183.414062 583.539062 C 183.414062 589.0625 178.9375 593.539062 173.414062 593.539062 C 167.890625 593.539062 163.414062 589.0625 163.414062 583.539062 C 163.414062 578.019531 167.890625 573.539062 173.414062 573.539062 C 178.9375 573.539062 183.414062 578.019531 183.414062 583.539062 "/>
<path style="fill-rule:nonzero;fill:rgb(100%,75.294118%,79.607843%);fill-opacity:1;stroke-width:1;stroke-linecap:butt;stroke-linejoin:miter;stroke:rgb(0%,0%,0%);stroke-opacity:1;stroke-miterlimit:10;" d="M 199.320312 472.574219 C 199.320312 478.097656 194.84375 482.574219 189.320312 482.574219 C 183.796875 482.574219 179.320312 478.097656 179.320312 472.574219 C 179.320312 467.050781 183.796875 462.574219 189.320312 462.574219 C 194.84375 462.574219 199.320312 467.050781 199.320312 472.574219 "/>
<path style="fill-rule:nonzero;fill:rgb(67.843137%,84.705882%,90.196078%);fill-opacity:1;stroke-width:1;stroke-linecap:butt;stroke-linejoin:miter;stroke:rgb(0%,0%,0%);stroke-opacity:1;stroke-miterlimit:10;" d="M 221.808594 465.234375 C 221.808594 470.757812 217.328125 475.234375 211.808594 475.234375 C 206.285156 475.234375 201.808594 470.757812 201.808594 465.234375 C 201.808594 459.710938 206.285156 455.234375 211.808594 455.234375 C 217.328125 455.234375 221.808594 459.710938 221.808594 465.234375 "/>
<path style="fill-rule:nonzero;fill:rgb(67.843137%,84.705882%,90.196078%);fill-opacity:1;stroke-width:1;stroke-linecap:butt;stroke-linejoin:miter;stroke:rgb(0%,0%,0%);stroke-opacity:1;stroke-miterlimit:10;" d="M 219.054688 657.429688 C 219.054688 662.949219 214.578125 667.429688 209.054688 667.429688 C 203.53125 667.429688 199.054688 662.949219 199.054688 657.429688 C 199.054688 651.90625 203.53125 647.429688 209.054688 647.429688 C 214.578125 647.429688 219.054688 651.90625 219.054688 657.429688 "/>
</g>
</svg>
