<?xml version="1.0" encoding="UTF-8"?>
<svg xmlns="http://www.w3.org/2000/svg" xmlns:xlink="http://www.w3.org/1999/xlink" width="200pt" height="200pt" viewBox="0 0 200 200" version="1.1">
<g id="surface14">
<rect x="0" y="0" width="200" height="200" style="fill:rgb(100%,100%,100%);fill-opacity:1;stroke:none;"/>
<path style="fill:none;stroke-width:1;stroke-linecap:butt;stroke-linejoin:miter;stroke:rgb(26.666667%,26.666667%,26.666667%);stroke-opacity:1;stroke-miterlimit:10;" d="M 80.621094 137.800781 L 65.378906 169.257812 "/>
<path style="fill:none;stroke-width:1;stroke-linecap:butt;stroke-linejoin:miter;stroke:rgb(26.666667%,26.666667%,26.666667%);stroke-opacity:1;stroke-miterlimit:10;" d="M 45.910156 142.539062 L 65.378906 169.257812 "/>
<path style="fill:none;stroke-width:1;stroke-linecap:butt;stroke-linejoin:miter;stroke:rgb(26.666667%,26.666667%,26.666667%);stroke-opacity:1;stroke-miterlimit:10;" d="M 80.621094 137.800781 L 68.519531 124.292969 "/>
<path style="fill:none;stroke-width:1;stroke-linecap:butt;stroke-linejoin:miter;stroke:rgb(26.666667%,26.666667%,26.666667%);stroke-opacity:1;stroke-miterlimit:10;" d="M 45.910156 142.539062 L 68.519531 124.292969 "/>
<path style="fill:none;stroke-width:1;stroke-linecap:butt;stroke-linejoin:miter;stroke:rgb(26.666667%,26.666667%,26.666667%);stroke-opacity:1;stroke-miterlimit:10;" d="M 65.378906 169.257812 L 68.519531 124.292969 "/>
<path style="fill:none;stroke-width:1;stroke-linecap:butt;stroke-linejoin:miter;stroke:rgb(26.666667%,26.666667%,26.666667%);stroke-opacity:1;stroke-miterlimit:10;" d="M 80.621094 137.800781 L 109.792969 115.542969 "/>
<path style="fill:none;stroke-width:1;stroke-linecap:butt;stroke-linejoin:miter;stroke:rgb(26.666667%,26.666667%,26.666667%);stroke-opacity:1;stroke-miterlimit:10;" d="M 126.453125 73.011719 L 109.792969 115.542969 "/>
<path style="fill:none;stroke-width:1;stroke-linecap:butt;stroke-linejoin:miter;stroke:rgb(26.666667%,26.666667%,26.666667%);stroke-opacity:1;stroke-miterlimit:10;" d="M 68.519531 124.292969 L 109.792969 115.542969 "/>
<path style="fill:none;stroke-width:1;stroke-linecap:butt;stroke-linejoin:miter;stroke:rgb(26.666667%,26.666667%,26.666667%);stroke-opacity:1;stroke-miterlimit:10;" d="M 55.945312 60.097656 L 46.425781 20 "/>
<path style="fill:none;stroke-width:1;stroke-linecap:butt;stroke-linejoin:miter;stroke:rgb(26.666667%,26.666667%,26.666667%);stroke-opacity:1;stroke-miterlimit:10;" d="M 68.519531 124.292969 L 115.265625 143.386719 "/>
<path style="fill:none;stroke-width:1;stroke-linecap:butt;stroke-linejoin:miter;stroke:rgb(26.666667%,26.666667%,26.666667%);stroke-opacity:1;stroke-miterlimit:10;" d="M 45.910156 142.539062 L 86.773438 106.835938 "/>
<path style="fill:none;stroke-width:1;stroke-linecap:butt;stroke-linejoin:miter;stroke:rgb(26.666667%,26.666667%,26.666667%);stroke-opacity:1;stroke-miterlimit:10;" d="M 55.945312 60.097656 L 86.773438 106.835938 "/>
<path style="fill:none;stroke-width:1;stroke-linecap:butt;stroke-linejoin:miter;stroke:rgb(26.666667%,26.666667%,26.666667%);stroke-opacity:1;stroke-miterlimit:10;" d="M 68.519531 124.292969 L 86.773438 106.835938 "/>
<path style="fill:none;stroke-width:1;stroke-linecap:butt;stroke-linejoin:miter;stroke:rgb(26.666667%,26.666667%,26.666667%);stroke-opacity:1;stroke-miterlimit:10;" d="M 115.265625 143.386719 L 86.773438 106.835938 "/>
<path style="fill:none;stroke-width:1;stroke-linecap:butt;stroke-linejoin:miter;stroke:rgb(26.666667%,26.666667%,26.666667%);stroke-opacity:1;stroke-miterlimit:10;" d="M 65.378906 169.257812 L 92.191406 147.246094 "/>
<path style="fill:none;stroke-width:1;stroke-linecap:butt;stroke-linejoin:miter;stroke:rgb(26.666667%,26.666667%,26.666667%);stroke-opacity:1;stroke-miterlimit:10;" d="M 109.792969 115.542969 L 92.191406 147.246094 "/>
<path style="fill:none;stroke-width:1;stroke-linecap:butt;stroke-linejoin:miter;stroke:rgb(26.666667%,26.666667%,26.666667%);stroke-opacity:1;stroke-miterlimit:10;" d="M 115.265625 143.386719 L 92.191406 147.246094 "/>
<path style="fill:none;stroke-width:1;stroke-linecap:butt;stroke-linejoin:miter;stroke:rgb(26.666667%,26.666667%,26.666667%);stroke-opacity:1;stroke-miterlimit:10;" d="M 86.773438 106.835938 L 92.191406 147.246094 "/>
<path style="fill:none;stroke-width:1;stroke-linecap:butt;stroke-linejoin:miter;stroke:rgb(26.666667%,26.666667%,26.666667%);stroke-opacity:1;stroke-miterlimit:10;" d="M 45.910156 142.539062 L 57.421875 110.195312 "/>
<path style="fill:none;stroke-width:1;stroke-linecap:butt;stroke-linejoin:miter;stroke:rgb(26.666667%,26.666667%,26.666667%);stroke-opacity:1;stroke-miterlimit:10;" d="M 109.792969 115.542969 L 57.421875 110.195312 "/>
<path style="fill:none;stroke-width:1;stroke-linecap:butt;stroke-linejoin:miter;stroke:rgb(26.666667%,26.666667%,26.666667%);stroke-opacity:1;stroke-miterlimit:10;" d="M 92.191406 147.246094 L 57.421875 110.195312 "/>
<path style="fill:none;stroke-width:1;stroke-linecap:butt;stroke-linejoin:miter;stroke:rgb(26.666667%,26.666667%,26.666667%);stroke-opacity:1;stroke-miterlimit:10;" d="M 126.453125 73.011719 L 138.710938 102.992188 "/>
<path style="fill:none;stroke-width:1;stroke-linecap:butt;stroke-linejoin:miter;stroke:rgb(26.666667%,26.666667%,26.666667%);stroke-opacity:1;stroke-miterlimit:10;" d="M 180 104.222656 L 138.710938 102.992188 "/>
<path style="fill:none;stroke-width:1;stroke-linecap:butt;stroke-linejoin:miter;stroke:rgb(26.666667%,26.666667%,26.666667%);stroke-opacity:1;stroke-miterlimit:10;" d="M 109.792969 115.542969 L 138.710938 102.992188 "/>
<path style="fill:none;stroke-width:1;stroke-linecap:butt;stroke-linejoin:miter;stroke:rgb(26.666667%,26.666667%,26.666667%);stroke-opacity:1;stroke-miterlimit:10;" d="M 86.773438 106.835938 L 138.710938 102.992188 "/>
<path style="fill:none;stroke-width:1;stroke-linecap:butt;stroke-linejoin:miter;stroke:rgb(26.666667%,26.666667%,26.666667%);stroke-opacity:1;stroke-miterlimit:10;" d="M 80.621094 137.800781 L 28.277344 125.6875 "/>
<path style="fill:none;stroke-width:1;stroke-linecap:butt;stroke-linejoin:miter;stroke:rgb(26.666667%,26.666667%,26.666667%);stroke-opacity:1;stroke-miterlimit:10;" d="M 68.519531 124.292969 L 28.277344 125.6875 "/>
<path style="fill:none;stroke-width:1;stroke-linecap:butt;stroke-linejoin:miter;stroke:rgb(26.666667%,26.666667%,26.666667%);stroke-opacity:1;stroke-miterlimit:10;" d="M 57.421875 110.195312 L 28.277344 125.6875 "/>
<path style="fill:none;stroke-width:1;stroke-linecap:butt;stroke-linejoin:miter;stroke:rgb(26.666667%,26.666667%,26.666667%);stroke-opacity:1;stroke-miterlimit:10;" d="M 80.621094 137.800781 L 100.664062 86.027344 "/>
<path style="fill:none;stroke-width:1;stroke-linecap:butt;stroke-linejoin:miter;stroke:rgb(26.666667%,26.666667%,26.666667%);stroke-opacity:1;stroke-miterlimit:10;" d="M 109.792969 115.542969 L 100.664062 86.027344 "/>
<path style="fill:none;stroke-width:1;stroke-linecap:butt;stroke-linejoin:miter;stroke:rgb(26.666667%,26.666667%,26.666667%);stroke-opacity:1;stroke-miterlimit:10;" d="M 86.773438 106.835938 L 100.664062 86.027344 "/>
<path style="fill:none;stroke-width:1;stroke-linecap:butt;stroke-linejoin:miter;stroke:rgb(26.666667%,26.666667%,26.666667%);stroke-opacity:1;stroke-miterlimit:10;" d="M 45.910156 142.539062 L 30.746094 180 "/>
<path style="fill:none;stroke-width:1;stroke-linecap:butt;stroke-linejoin:miter;stroke:rgb(26.666667%,26.666667%,26.666667%);stroke-opacity:1;stroke-miterlimit:10;" d="M 65.378906 169.257812 L 30.746094 180 "/>
<path style="fill:none;stroke-width:1;stroke-linecap:butt;stroke-linejoin:miter;stroke:rgb(26.666667%,26.666667%,26.666667%);stroke-opacity:1;stroke-miterlimit:10;" d="M 55.945312 60.097656 L 20 39.375 "/>
<path style="fill:none;stroke-width:1;stroke-linecap:butt;stroke-linejoin:miter;stroke:rgb(26.666667%,26.666667%,26.666667%);stroke-opacity:1;stroke-miterlimit:10;" d="M 46.425781 20 L 20 39.375 "/>
<path style="fill:none;stroke-width:1;stroke-linecap:butt;stroke-linejoin:miter;stroke:rgb(26.666667%,26.666667%,26.666667%);stroke-opacity:1;stroke-miterlimit:10;" d="M 55.945312 60.097656 L 75.691406 78.371094 "/>
<path style="fill:none;stroke-width:1;stroke-linecap:butt;stroke-linejoin:miter;stroke:rgb(26.666667%,26.666667%,26.666667%);stroke-opacity:1;stroke-miterlimit:10;" d="M 126.453125 73.011719 L 75.691406 78.371094 "/>
<path style="fill:none;stroke-width:1;stroke-linecap:butt;stroke-linejoin:miter;stroke:rgb(26.666667%,26.666667%,26.666667%);stroke-opacity:1;stroke-miterlimit:10;" d="M 68.519531 124.292969 L 75.691406 78.371094 "/>
<path style="fill:none;stroke-width:1;stroke-linecap:butt;stroke-linejoin:miter;stroke:rgb(26.666667%,26.666667%,26.666667%);stroke-opacity:1;stroke-miterlimit:10;" d="M 57.421875 110.195312 L 75.691406 78.371094 "/>
<path style="fill:none;stroke-width:1;stroke-linecap:butt;stroke-linejoin:miter;stroke:rgb(26.666667%,26.666667%,26.666667%);stroke-opacity:1;stroke-miterlimit:10;" d="M 55.945312 60.097656 L 88.695312 45.664062 "/>
<path style="fill:none;stroke-width:1;stroke-linecap:butt;stroke-linejoin:miter;stroke:rgb(26.666667%,26.666667%,26.666667%);stroke-opacity:1;stroke-miterlimit:10;" d="M 100.664062 86.027344 L 88.695312 45.664062 "/>
<path style="fill:none;stroke-width:1;stroke-linecap:butt;stroke-linejoin:miter;stroke:rgb(26.666667%,26.666667%,26.666667%);stroke-opacity:1;stroke-miterlimit:10;" d="M 75.691406 78.371094 L 88.695312 45.664062 "/>
<path style="fill-rule:nonzero;fill:rgb(100%,0%,0%);fill-opacity:1;stroke-width:1;stroke-linecap:butt;stroke-linejoin:miter;stroke:rgb(0%,0%,0%);stroke-opacity:1;stroke-miterlimit:10;" d="M 90.621094 137.800781 C 90.621094 143.324219 86.144531 147.800781 80.621094 147.800781 C 75.097656 147.800781 70.621094 143.324219 70.621094 137.800781 C 70.621094 132.277344 75.097656 127.800781 80.621094 127.800781 C 86.144531 127.800781 90.621094 132.277344 90.621094 137.800781 "/>
<path style="fill-rule:nonzero;fill:rgb(100%,0%,0%);fill-opacity:1;stroke-width:1;stroke-linecap:butt;stroke-linejoin:miter;stroke:rgb(0%,0%,0%);stroke-opacity:1;stroke-miterlimit:10;" d="M 55.910156 142.539062 C 55.910156 148.0625 51.433594 152.539062 45.910156 152.539062 C 40.386719 152.539062 35.910156 148.0625 35.910156 142.539062 C 35.910156 137.015625 40.386719 132.539062 45.910156 132.539062 C 51.433594 132.539062 55.910156 137.015625 55.910156 142.539062 "/>
<path style="fill-rule:nonzero;fill:rgb(100%,0%,0%);fill-opacity:1;stroke-width:1;stroke-linecap:butt;stroke-linejoin:miter;stroke:rgb(0%,0%,0%);stroke-opacity:1;stroke-miterlimit:10;" d="M 65.945312 60.097656 C 65.945312 65.621094 61.46875 70.097656 55.945312 70.097656 C 50.421875 70.097656 45.945312 65.621094 45.945312 60.097656 C 45.945312 54.574219 50.421875 50.097656 55.945312 50.097656 C 61.46875 50.097656 65.945312 54.574219 65.945312 60.097656 "/>
<path style="fill-rule:nonzero;fill:rgb(100%,0%,0%);fill-opacity:1;stroke-width:1;stroke-linecap:butt;stroke-linejoin:miter;stroke:rgb(0%,0%,0%);stroke-opacity:1;stroke-miterlimit:10;" d="M 136.453125 73.011719 C 136.453125 78.535156 131.976562 83.011719 126.453125 83.011719 C 120.929688 83.011719 116.453125 78.535156 116.453125 73.011719 C 116.453125 67.488281 120.929688 63.011719 126.453125 63.011719 C 131.976562 63.011719 136.453125 67.488281 136.453125 73.011719 "/>
<path style="fill-rule:nonzero;fill:rgb(100%,0%,0%);fill-opacity:1;stroke-width:1;stroke-linecap:butt;stroke-linejoin:miter;stroke:rgb(0%,0%,0%);stroke-opacity:1;stroke-miterlimit:10;" d="M 75.378906 169.257812 C 75.378906 174.78125 70.902344 179.257812 65.378906 179.257812 C 59.855469 179.257812 55.378906 174.78125 55.378906 169.257812 C 55.378906 163.734375 59.855469 159.257812 65.378906 159.257812 C 70.902344 159.257812 75.378906 163.734375 75.378906 169.257812 "/>
<path style="fill-rule:nonzero;fill:rgb(100%,0%,0%);fill-opacity:1;stroke-width:1;stroke-linecap:butt;stroke-linejoin:miter;stroke:rgb(0%,0%,0%);stroke-opacity:1;stroke-miterlimit:10;" d="M 190 104.222656 C 190 109.746094 185.523438 114.222656 180 114.222656 C 174.476562 114.222656 170 109.746094 170 104.222656 C 170 98.699219 174.476562 94.222656 180 94.222656 C 185.523438 94.222656 190 98.699219 190 104.222656 "/>
<path style="fill-rule:nonzero;fill:rgb(100%,0%,0%);fill-opacity:1;stroke-width:1;stroke-linecap:butt;stroke-linejoin:miter;stroke:rgb(0%,0%,0%);stroke-opacity:1;stroke-miterlimit:10;" d="M 78.519531 124.292969 C 78.519531 129.816406 74.042969 134.292969 68.519531 134.292969 C 62.996094 134.292969 58.519531 129.816406 58.519531 124.292969 C 58.519531 118.769531 62.996094 114.292969 68.519531 114.292969 C 74.042969 114.292969 78.519531 118.769531 78.519531 124.292969 "/>
<path style="fill-rule:nonzero;fill:rgb(100%,0%,0%);fill-opacity:1;stroke-width:1;stroke-linecap:butt;stroke-linejoin:miter;stroke:rgb(0%,0%,0%);stroke-opacity:1;stroke-miterlimit:10;" d="M 119.792969 115.542969 C 119.792969 121.066406 115.316406 125.542969 109.792969 125.542969 C 104.273438 125.542969 99.792969 121.066406 99.792969 115.542969 C 99.792969 110.019531 104.273438 105.542969 109.792969 105.542969 C 115.316406 105.542969 119.792969 110.019531 119.792969 115.542969 "/>
<path style="fill-rule:nonzero;fill:rgb(100%,0%,0%);fill-opacity:1;stroke-width:1;stroke-linecap:butt;stroke-linejoin:miter;stroke:rgb(0%,0%,0%);stroke-opacity:1;stroke-miterlimit:10;" d="M 56.425781 20 C 56.425781 25.523438 51.949219 30 46.425781 30 C 40.902344 30 36.425781 25.523438 36.425781 20 C 36.425781 14.476562 40.902344 10 46.425781 10 C 51.949219 10 56.425781 14.476562 56.425781 20 "/>
<path style="fill-rule:nonzero;fill:rgb(100%,0%,0%);fill-opacity:1;stroke-width:1;stroke-linecap:butt;stroke-linejoin:miter;stroke:rgb(0%,0%,0%);stroke-opacity:1;stroke-miterlimit:10;" d="M 125.265625 143.386719 C 125.265625 148.910156 120.789062 153.386719 115.265625 153.386719 C 109.742188 153.386719 105.265625 148.910156 105.265625 143.386719 C 105.265625 137.863281 109.742188 133.386719 115.265625 133.386719 C 120.789062 133.386719 125.265625 137.863281 125.265625 143.386719 "/>
<path style="fill-rule:nonzero;fill:rgb(100%,0%,0%);fill-opacity:1;stroke-width:1;stroke-linecap:butt;stroke-linejoin:miter;stroke:rgb(0%,0%,0%);stroke-opacity:1;stroke-miterlimit:10;" d="M 96.773438 106.835938 C 96.773438 112.359375 92.292969 116.835938 86.773438 116.835938 C 81.25 116.835938 76.773438 112.359375 76.773438 106.835938 C 76.773438 101.3125 81.25 96.835938 86.773438 96.835938 C 92.292969 96.835938 96.773438 101.3125 96.773438 106.835938 "/>
<path style="fill-rule:nonzero;fill:rgb(100%,0%,0%);fill-opacity:1;stroke-width:1;stroke-linecap:butt;stroke-linejoin:miter;stroke:rgb(0%,0%,0%);stroke-opacity:1;stroke-miterlimit:10;" d="M 102.191406 147.246094 C 102.191406 152.765625 97.714844 157.246094 92.191406 157.246094 C 86.667969 157.246094 82.191406 152.765625 82.191406 147.246094 C 82.191406 141.722656 86.667969 137.246094 92.191406 137.246094 C 97.714844 137.246094 102.191406 141.722656 102.191406 147.246094 "/>
<path style="fill-rule:nonzero;fill:rgb(100%,0%,0%);fill-opacity:1;stroke-width:1;stroke-linecap:butt;stroke-linejoin:miter;stroke:rgb(0%,0%,0%);stroke-opacity:1;stroke-miterlimit:10;" d="M 67.421875 110.195312 C 67.421875 115.71875 62.945312 120.195312 57.421875 120.195312 C 51.898438 120.195312 47.421875 115.71875 47.421875 110.195312 C 47.421875 104.671875 51.898438 100.195312 57.421875 100.195312 C 62.945312 100.195312 67.421875 104.671875 67.421875 110.195312 "/>
<path style="fill-rule:nonzero;fill:rgb(100%,0%,0%);fill-opacity:1;stroke-width:1;stroke-linecap:butt;stroke-linejoin:miter;stroke:rgb(0%,0%,0%);stroke-opacity:1;stroke-miterlimit:10;" d="M 148.710938 102.992188 C 148.710938 108.515625 144.234375 112.992188 138.710938 112.992188 C 133.1875 112.992188 128.710938 108.515625 128.710938 102.992188 C 128.710938 97.46875 133.1875 92.992188 138.710938 92.992188 C 144.234375 92.992188 148.710938 97.46875 148.710938 102.992188 "/>
<path style="fill-rule:nonzero;fill:rgb(100%,0%,0%);fill-opacity:1;stroke-width:1;stroke-linecap:butt;stroke-linejoin:miter;stroke:rgb(0%,0%,0%);stroke-opacity:1;stroke-miterlimit:10;" d="M 38.277344 125.6875 C 38.277344 131.210938 33.800781 135.6875 28.277344 135.6875 C 22.753906 135.6875 18.277344 131.210938 18.277344 125.6875 C 18.277344 120.164062 22.753906 115.6875 28.277344 115.6875 C 33.800781 115.6875 38.277344 120.164062 38.277344 125.6875 "/>
<path style="fill-rule:nonzero;fill:rgb(100%,0%,0%);fill-opacity:1;stroke-width:1;stroke-linecap:butt;stroke-linejoin:miter;stroke:rgb(0%,0%,0%);stroke-opacity:1;stroke-miterlimit:10;" d="M 110.664062 86.027344 C 110.664062 91.550781 106.1875 96.027344 100.664062 96.027344 C 95.140625 96.027344 90.664062 91.550781 90.664062 86.027344 C 90.664062 80.503906 95.140625 76.027344 100.664062 76.027344 C 106.1875 76.027344 110.664062 80.503906 110.664062 86.027344 "/>
<path style="fill-rule:nonzero;fill:rgb(100%,0%,0%);fill-opacity:1;stroke-width:1;stroke-linecap:butt;stroke-linejoin:miter;stroke:rgb(0%,0%,0%);stroke-opacity:1;stroke-miterlimit:10;" d="M 40.746094 180 C 40.746094 185.523438 36.269531 190 30.746094 190 C 25.222656 190 20.746094 185.523438 20.746094 180 C 20.746094 174.476562 25.222656 170 30.746094 170 C 36.269531 170 40.746094 174.476562 40.746094 180 "/>
<path style="fill-rule:nonzero;fill:rgb(100%,0%,0%);fill-opacity:1;stroke-width:1;stroke-linecap:butt;stroke-linejoin:miter;stroke:rgb(0%,0%,0%);stroke-opacity:1;stroke-miterlimit:10;" d="M 30 39.375 C 30 44.898438 25.523438 49.375 20 49.375 C 14.476562 49.375 10 44.898438 10 39.375 C 10 33.851562 14.476562 29.375 20 29.375 C 25.523438 29.375 30 33.851562 30 39.375 "/>
<path style="fill-rule:nonzero;fill:rgb(100%,0%,0%);fill-opacity:1;stroke-width:1;stroke-linecap:butt;stroke-linejoin:miter;stroke:rgb(0%,0%,0%);stroke-opacity:1;stroke-miterlimit:10;" d="M 85.691406 78.371094 C 85.691406 83.894531 81.210938 88.371094 75.691406 88.371094 C 70.167969 88.371094 65.691406 83.894531 65.691406 78.371094 C 65.691406 72.847656 70.167969 68.371094 75.691406 68.371094 C 81.210938 68.371094 85.691406 72.847656 85.691406 78.371094 "/>
<path style="fill-rule:nonzero;fill:rgb(100%,0%,0%);fill-opacity:1;stroke-width:1;stroke-linecap:butt;stroke-linejoin:miter;stroke:rgb(0%,0%,0%);stroke-opacity:1;stroke-miterlimit:10;" d="M 98.695312 45.664062 C 98.695312 51.183594 94.21875 55.664062 88.695312 55.664062 C 83.175781 55.664062 78.695312 51.183594 78.695312 45.664062 C 78.695312 40.140625 83.175781 35.664062 88.695312 35.664062 C 94.21875 35.664062 98.695312 40.140625 98.695312 45.664062 "/>
</g>
</svg>
