<?xml version="1.0" encoding="UTF-8"?>
<svg xmlns="http://www.w3.org/2000/svg" xmlns:xlink="http://www.w3.org/1999/xlink" width="200pt" height="200pt" viewBox="0 0 200 200" version="1.1">
<g id="surface8">
<rect x="0" y="0" width="200" height="200" style="fill:rgb(100%,100%,100%);fill-opacity:1;stroke:none;"/>
<path style="fill:none;stroke-width:1;stroke-linecap:butt;stroke-linejoin:miter;stroke:rgb(26.666667%,26.666667%,26.666667%);stroke-opacity:1;stroke-miterlimit:10;" d="M 20 95.027344 L 33.5625 74.949219 "/>
<path style="fill:none;stroke-width:1;stroke-linecap:butt;stroke-linejoin:miter;stroke:rgb(26.666667%,26.666667%,26.666667%);stroke-opacity:1;stroke-miterlimit:10;" d="M 20 95.027344 L 44.722656 76.132812 "/>
<path style="fill:none;stroke-width:1;stroke-linecap:butt;stroke-linejoin:miter;stroke:rgb(26.666667%,26.666667%,26.666667%);stroke-opacity:1;stroke-miterlimit:10;" d="M 23.695312 179.972656 L 28.765625 157.148438 "/>
<path style="fill:none;stroke-width:1;stroke-linecap:butt;stroke-linejoin:miter;stroke:rgb(26.666667%,26.666667%,26.666667%);stroke-opacity:1;stroke-miterlimit:10;" d="M 33.5625 74.949219 L 44.722656 76.132812 "/>
<path style="fill:none;stroke-width:1;stroke-linecap:butt;stroke-linejoin:miter;stroke:rgb(26.666667%,26.666667%,26.666667%);stroke-opacity:1;stroke-miterlimit:10;" d="M 71.0625 125.339844 L 92.789062 112.117188 "/>
<path style="fill:none;stroke-width:1;stroke-linecap:butt;stroke-linejoin:miter;stroke:rgb(26.666667%,26.666667%,26.666667%);stroke-opacity:1;stroke-miterlimit:10;" d="M 71.0625 125.339844 L 97.003906 112.574219 "/>
<path style="fill:none;stroke-width:1;stroke-linecap:butt;stroke-linejoin:miter;stroke:rgb(26.666667%,26.666667%,26.666667%);stroke-opacity:1;stroke-miterlimit:10;" d="M 92.789062 112.117188 L 97.003906 112.574219 "/>
<path style="fill:none;stroke-width:1;stroke-linecap:butt;stroke-linejoin:miter;stroke:rgb(26.666667%,26.666667%,26.666667%);stroke-opacity:1;stroke-miterlimit:10;" d="M 92.789062 112.117188 L 120.125 135.617188 "/>
<path style="fill:none;stroke-width:1;stroke-linecap:butt;stroke-linejoin:miter;stroke:rgb(26.666667%,26.666667%,26.666667%);stroke-opacity:1;stroke-miterlimit:10;" d="M 92.789062 112.117188 L 120.835938 79.371094 "/>
<path style="fill:none;stroke-width:1;stroke-linecap:butt;stroke-linejoin:miter;stroke:rgb(26.666667%,26.666667%,26.666667%);stroke-opacity:1;stroke-miterlimit:10;" d="M 92.789062 112.117188 L 121.46875 104.050781 "/>
<path style="fill:none;stroke-width:1;stroke-linecap:butt;stroke-linejoin:miter;stroke:rgb(26.666667%,26.666667%,26.666667%);stroke-opacity:1;stroke-miterlimit:10;" d="M 92.789062 112.117188 L 134.707031 119.316406 "/>
<path style="fill:none;stroke-width:1;stroke-linecap:butt;stroke-linejoin:miter;stroke:rgb(26.666667%,26.666667%,26.666667%);stroke-opacity:1;stroke-miterlimit:10;" d="M 92.789062 112.117188 L 135.066406 126.976562 "/>
<path style="fill:none;stroke-width:1;stroke-linecap:butt;stroke-linejoin:miter;stroke:rgb(26.666667%,26.666667%,26.666667%);stroke-opacity:1;stroke-miterlimit:10;" d="M 92.789062 112.117188 L 139.980469 124.800781 "/>
<path style="fill:none;stroke-width:1;stroke-linecap:butt;stroke-linejoin:miter;stroke:rgb(26.666667%,26.666667%,26.666667%);stroke-opacity:1;stroke-miterlimit:10;" d="M 97.003906 112.574219 L 120.125 135.617188 "/>
<path style="fill:none;stroke-width:1;stroke-linecap:butt;stroke-linejoin:miter;stroke:rgb(26.666667%,26.666667%,26.666667%);stroke-opacity:1;stroke-miterlimit:10;" d="M 97.003906 112.574219 L 120.835938 79.371094 "/>
<path style="fill:none;stroke-width:1;stroke-linecap:butt;stroke-linejoin:miter;stroke:rgb(26.666667%,26.666667%,26.666667%);stroke-opacity:1;stroke-miterlimit:10;" d="M 97.003906 112.574219 L 121.46875 104.050781 "/>
<path style="fill:none;stroke-width:1;stroke-linecap:butt;stroke-linejoin:miter;stroke:rgb(26.666667%,26.666667%,26.666667%);stroke-opacity:1;stroke-miterlimit:10;" d="M 97.003906 112.574219 L 134.707031 119.316406 "/>
<path style="fill:none;stroke-width:1;stroke-linecap:butt;stroke-linejoin:miter;stroke:rgb(26.666667%,26.666667%,26.666667%);stroke-opacity:1;stroke-miterlimit:10;" d="M 97.003906 112.574219 L 135.066406 126.976562 "/>
<path style="fill:none;stroke-width:1;stroke-linecap:butt;stroke-linejoin:miter;stroke:rgb(26.666667%,26.666667%,26.666667%);stroke-opacity:1;stroke-miterlimit:10;" d="M 97.003906 112.574219 L 139.980469 124.800781 "/>
<path style="fill:none;stroke-width:1;stroke-linecap:butt;stroke-linejoin:miter;stroke:rgb(26.666667%,26.666667%,26.666667%);stroke-opacity:1;stroke-miterlimit:10;" d="M 120.125 135.617188 L 121.46875 104.050781 "/>
<path style="fill:none;stroke-width:1;stroke-linecap:butt;stroke-linejoin:miter;stroke:rgb(26.666667%,26.666667%,26.666667%);stroke-opacity:1;stroke-miterlimit:10;" d="M 120.125 135.617188 L 126.867188 164.390625 "/>
<path style="fill:none;stroke-width:1;stroke-linecap:butt;stroke-linejoin:miter;stroke:rgb(26.666667%,26.666667%,26.666667%);stroke-opacity:1;stroke-miterlimit:10;" d="M 120.125 135.617188 L 134.707031 119.316406 "/>
<path style="fill:none;stroke-width:1;stroke-linecap:butt;stroke-linejoin:miter;stroke:rgb(26.666667%,26.666667%,26.666667%);stroke-opacity:1;stroke-miterlimit:10;" d="M 120.125 135.617188 L 135.066406 126.976562 "/>
<path style="fill:none;stroke-width:1;stroke-linecap:butt;stroke-linejoin:miter;stroke:rgb(26.666667%,26.666667%,26.666667%);stroke-opacity:1;stroke-miterlimit:10;" d="M 120.125 135.617188 L 139.980469 124.800781 "/>
<path style="fill:none;stroke-width:1;stroke-linecap:butt;stroke-linejoin:miter;stroke:rgb(26.666667%,26.666667%,26.666667%);stroke-opacity:1;stroke-miterlimit:10;" d="M 120.835938 79.371094 L 121.46875 104.050781 "/>
<path style="fill:none;stroke-width:1;stroke-linecap:butt;stroke-linejoin:miter;stroke:rgb(26.666667%,26.666667%,26.666667%);stroke-opacity:1;stroke-miterlimit:10;" d="M 120.835938 79.371094 L 130.222656 62.390625 "/>
<path style="fill:none;stroke-width:1;stroke-linecap:butt;stroke-linejoin:miter;stroke:rgb(26.666667%,26.666667%,26.666667%);stroke-opacity:1;stroke-miterlimit:10;" d="M 120.835938 79.371094 L 134.707031 119.316406 "/>
<path style="fill:none;stroke-width:1;stroke-linecap:butt;stroke-linejoin:miter;stroke:rgb(26.666667%,26.666667%,26.666667%);stroke-opacity:1;stroke-miterlimit:10;" d="M 120.835938 79.371094 L 139.980469 124.800781 "/>
<path style="fill:none;stroke-width:1;stroke-linecap:butt;stroke-linejoin:miter;stroke:rgb(26.666667%,26.666667%,26.666667%);stroke-opacity:1;stroke-miterlimit:10;" d="M 120.835938 79.371094 L 142.226562 67.722656 "/>
<path style="fill:none;stroke-width:1;stroke-linecap:butt;stroke-linejoin:miter;stroke:rgb(26.666667%,26.666667%,26.666667%);stroke-opacity:1;stroke-miterlimit:10;" d="M 121.46875 104.050781 L 130.222656 62.390625 "/>
<path style="fill:none;stroke-width:1;stroke-linecap:butt;stroke-linejoin:miter;stroke:rgb(26.666667%,26.666667%,26.666667%);stroke-opacity:1;stroke-miterlimit:10;" d="M 121.46875 104.050781 L 134.707031 119.316406 "/>
<path style="fill:none;stroke-width:1;stroke-linecap:butt;stroke-linejoin:miter;stroke:rgb(26.666667%,26.666667%,26.666667%);stroke-opacity:1;stroke-miterlimit:10;" d="M 121.46875 104.050781 L 135.066406 126.976562 "/>
<path style="fill:none;stroke-width:1;stroke-linecap:butt;stroke-linejoin:miter;stroke:rgb(26.666667%,26.666667%,26.666667%);stroke-opacity:1;stroke-miterlimit:10;" d="M 121.46875 104.050781 L 139.980469 124.800781 "/>
<path style="fill:none;stroke-width:1;stroke-linecap:butt;stroke-linejoin:miter;stroke:rgb(26.666667%,26.666667%,26.666667%);stroke-opacity:1;stroke-miterlimit:10;" d="M 121.46875 104.050781 L 142.226562 67.722656 "/>
<path style="fill:none;stroke-width:1;stroke-linecap:butt;stroke-linejoin:miter;stroke:rgb(26.666667%,26.666667%,26.666667%);stroke-opacity:1;stroke-miterlimit:10;" d="M 126.867188 164.390625 L 134.707031 119.316406 "/>
<path style="fill:none;stroke-width:1;stroke-linecap:butt;stroke-linejoin:miter;stroke:rgb(26.666667%,26.666667%,26.666667%);stroke-opacity:1;stroke-miterlimit:10;" d="M 126.867188 164.390625 L 135.066406 126.976562 "/>
<path style="fill:none;stroke-width:1;stroke-linecap:butt;stroke-linejoin:miter;stroke:rgb(26.666667%,26.666667%,26.666667%);stroke-opacity:1;stroke-miterlimit:10;" d="M 126.867188 164.390625 L 139.980469 124.800781 "/>
<path style="fill:none;stroke-width:1;stroke-linecap:butt;stroke-linejoin:miter;stroke:rgb(26.666667%,26.666667%,26.666667%);stroke-opacity:1;stroke-miterlimit:10;" d="M 130.222656 62.390625 L 142.226562 67.722656 "/>
<path style="fill:none;stroke-width:1;stroke-linecap:butt;stroke-linejoin:miter;stroke:rgb(26.666667%,26.666667%,26.666667%);stroke-opacity:1;stroke-miterlimit:10;" d="M 134.707031 119.316406 L 135.066406 126.976562 "/>
<path style="fill:none;stroke-width:1;stroke-linecap:butt;stroke-linejoin:miter;stroke:rgb(26.666667%,26.666667%,26.666667%);stroke-opacity:1;stroke-miterlimit:10;" d="M 134.707031 119.316406 L 139.980469 124.800781 "/>
<path style="fill:none;stroke-width:1;stroke-linecap:butt;stroke-linejoin:miter;stroke:rgb(26.666667%,26.666667%,26.666667%);stroke-opacity:1;stroke-miterlimit:10;" d="M 135.066406 126.976562 L 139.980469 124.800781 "/>
<path style="fill-rule:nonzero;fill:rgb(100%,0%,0%);fill-opacity:1;stroke-width:1;stroke-linecap:butt;stroke-linejoin:miter;stroke:rgb(0%,0%,0%);stroke-opacity:1;stroke-miterlimit:10;" d="M 30 95.027344 C 30 100.550781 25.523438 105.027344 20 105.027344 C 14.476562 105.027344 10 100.550781 10 95.027344 C 10 89.507812 14.476562 85.027344 20 85.027344 C 25.523438 85.027344 30 89.507812 30 95.027344 "/>
<path style="fill-rule:nonzero;fill:rgb(100%,0%,0%);fill-opacity:1;stroke-width:1;stroke-linecap:butt;stroke-linejoin:miter;stroke:rgb(0%,0%,0%);stroke-opacity:1;stroke-miterlimit:10;" d="M 33.695312 179.972656 C 33.695312 185.492188 29.21875 189.972656 23.695312 189.972656 C 18.171875 189.972656 13.695312 185.492188 13.695312 179.972656 C 13.695312 174.449219 18.171875 169.972656 23.695312 169.972656 C 29.21875 169.972656 33.695312 174.449219 33.695312 179.972656 "/>
<path style="fill-rule:nonzero;fill:rgb(100%,0%,0%);fill-opacity:1;stroke-width:1;stroke-linecap:butt;stroke-linejoin:miter;stroke:rgb(0%,0%,0%);stroke-opacity:1;stroke-miterlimit:10;" d="M 38.765625 157.148438 C 38.765625 162.671875 34.289062 167.148438 28.765625 167.148438 C 23.242188 167.148438 18.765625 162.671875 18.765625 157.148438 C 18.765625 151.625 23.242188 147.148438 28.765625 147.148438 C 34.289062 147.148438 38.765625 151.625 38.765625 157.148438 "/>
<path style="fill-rule:nonzero;fill:rgb(100%,0%,0%);fill-opacity:1;stroke-width:1;stroke-linecap:butt;stroke-linejoin:miter;stroke:rgb(0%,0%,0%);stroke-opacity:1;stroke-miterlimit:10;" d="M 43.5625 74.949219 C 43.5625 80.46875 39.085938 84.949219 33.5625 84.949219 C 28.039062 84.949219 23.5625 80.46875 23.5625 74.949219 C 23.5625 69.425781 28.039062 64.949219 33.5625 64.949219 C 39.085938 64.949219 43.5625 69.425781 43.5625 74.949219 "/>
<path style="fill-rule:nonzero;fill:rgb(100%,0%,0%);fill-opacity:1;stroke-width:1;stroke-linecap:butt;stroke-linejoin:miter;stroke:rgb(0%,0%,0%);stroke-opacity:1;stroke-miterlimit:10;" d="M 48.414062 20 C 48.414062 25.523438 43.9375 30 38.414062 30 C 32.890625 30 28.414062 25.523438 28.414062 20 C 28.414062 14.476562 32.890625 10 38.414062 10 C 43.9375 10 48.414062 14.476562 48.414062 20 "/>
<path style="fill-rule:nonzero;fill:rgb(100%,0%,0%);fill-opacity:1;stroke-width:1;stroke-linecap:butt;stroke-linejoin:miter;stroke:rgb(0%,0%,0%);stroke-opacity:1;stroke-miterlimit:10;" d="M 54.722656 76.132812 C 54.722656 81.65625 50.246094 86.132812 44.722656 86.132812 C 39.203125 86.132812 34.722656 81.65625 34.722656 76.132812 C 34.722656 70.609375 39.203125 66.132812 44.722656 66.132812 C 50.246094 66.132812 54.722656 70.609375 54.722656 76.132812 "/>
<path style="fill-rule:nonzero;fill:rgb(100%,0%,0%);fill-opacity:1;stroke-width:1;stroke-linecap:butt;stroke-linejoin:miter;stroke:rgb(0%,0%,0%);stroke-opacity:1;stroke-miterlimit:10;" d="M 81.0625 125.339844 C 81.0625 130.863281 76.585938 135.339844 71.0625 135.339844 C 65.539062 135.339844 61.0625 130.863281 61.0625 125.339844 C 61.0625 119.816406 65.539062 115.339844 71.0625 115.339844 C 76.585938 115.339844 81.0625 119.816406 81.0625 125.339844 "/>
<path style="fill-rule:nonzero;fill:rgb(100%,0%,0%);fill-opacity:1;stroke-width:1;stroke-linecap:butt;stroke-linejoin:miter;stroke:rgb(0%,0%,0%);stroke-opacity:1;stroke-miterlimit:10;" d="M 85.910156 180 C 85.910156 185.523438 81.433594 190 75.910156 190 C 70.386719 190 65.910156 185.523438 65.910156 180 C 65.910156 174.476562 70.386719 170 75.910156 170 C 81.433594 170 85.910156 174.476562 85.910156 180 "/>
<path style="fill-rule:nonzero;fill:rgb(100%,0%,0%);fill-opacity:1;stroke-width:1;stroke-linecap:butt;stroke-linejoin:miter;stroke:rgb(0%,0%,0%);stroke-opacity:1;stroke-miterlimit:10;" d="M 102.789062 112.117188 C 102.789062 117.640625 98.3125 122.117188 92.789062 122.117188 C 87.265625 122.117188 82.789062 117.640625 82.789062 112.117188 C 82.789062 106.59375 87.265625 102.117188 92.789062 102.117188 C 98.3125 102.117188 102.789062 106.59375 102.789062 112.117188 "/>
<path style="fill-rule:nonzero;fill:rgb(100%,0%,0%);fill-opacity:1;stroke-width:1;stroke-linecap:butt;stroke-linejoin:miter;stroke:rgb(0%,0%,0%);stroke-opacity:1;stroke-miterlimit:10;" d="M 107.003906 112.574219 C 107.003906 118.097656 102.527344 122.574219 97.003906 122.574219 C 91.484375 122.574219 87.003906 118.097656 87.003906 112.574219 C 87.003906 107.050781 91.484375 102.574219 97.003906 102.574219 C 102.527344 102.574219 107.003906 107.050781 107.003906 112.574219 "/>
<path style="fill-rule:nonzero;fill:rgb(100%,0%,0%);fill-opacity:1;stroke-width:1;stroke-linecap:butt;stroke-linejoin:miter;stroke:rgb(0%,0%,0%);stroke-opacity:1;stroke-miterlimit:10;" d="M 130.125 135.617188 C 130.125 141.136719 125.648438 145.617188 120.125 145.617188 C 114.601562 145.617188 110.125 141.136719 110.125 135.617188 C 110.125 130.09375 114.601562 125.617188 120.125 125.617188 C 125.648438 125.617188 130.125 130.09375 130.125 135.617188 "/>
<path style="fill-rule:nonzero;fill:rgb(100%,0%,0%);fill-opacity:1;stroke-width:1;stroke-linecap:butt;stroke-linejoin:miter;stroke:rgb(0%,0%,0%);stroke-opacity:1;stroke-miterlimit:10;" d="M 130.835938 79.371094 C 130.835938 84.894531 126.355469 89.371094 120.835938 89.371094 C 115.3125 89.371094 110.835938 84.894531 110.835938 79.371094 C 110.835938 73.847656 115.3125 69.371094 120.835938 69.371094 C 126.355469 69.371094 130.835938 73.847656 130.835938 79.371094 "/>
<path style="fill-rule:nonzero;fill:rgb(100%,0%,0%);fill-opacity:1;stroke-width:1;stroke-linecap:butt;stroke-linejoin:miter;stroke:rgb(0%,0%,0%);stroke-opacity:1;stroke-miterlimit:10;" d="M 131.46875 104.050781 C 131.46875 109.570312 126.988281 114.050781 121.46875 114.050781 C 115.945312 114.050781 111.46875 109.570312 111.46875 104.050781 C 111.46875 98.527344 115.945312 94.050781 121.46875 94.050781 C 126.988281 94.050781 131.46875 98.527344 131.46875 104.050781 "/>
<path style="fill-rule:nonzero;fill:rgb(100%,0%,0%);fill-opacity:1;stroke-width:1;stroke-linecap:butt;stroke-linejoin:miter;stroke:rgb(0%,0%,0%);stroke-opacity:1;stroke-miterlimit:10;" d="M 136.867188 164.390625 C 136.867188 169.914062 132.390625 174.390625 126.867188 174.390625 C 121.34375 174.390625 116.867188 169.914062 116.867188 164.390625 C 116.867188 158.867188 121.34375 154.390625 126.867188 154.390625 C 132.390625 154.390625 136.867188 158.867188 136.867188 164.390625 "/>
<path style="fill-rule:nonzero;fill:rgb(100%,0%,0%);fill-opacity:1;stroke-width:1;stroke-linecap:butt;stroke-linejoin:miter;stroke:rgb(0%,0%,0%);stroke-opacity:1;stroke-miterlimit:10;" d="M 140.222656 62.390625 C 140.222656 67.914062 135.746094 72.390625 130.222656 72.390625 C 124.699219 72.390625 120.222656 67.914062 120.222656 62.390625 C 120.222656 56.871094 124.699219 52.390625 130.222656 52.390625 C 135.746094 52.390625 140.222656 56.871094 140.222656 62.390625 "/>
<path style="fill-rule:nonzero;fill:rgb(100%,0%,0%);fill-opacity:1;stroke-width:1;stroke-linecap:butt;stroke-linejoin:miter;stroke:rgb(0%,0%,0%);stroke-opacity:1;stroke-miterlimit:10;" d="M 144.707031 119.316406 C 144.707031 124.835938 140.226562 129.316406 134.707031 129.316406 C 129.183594 129.316406 124.707031 124.835938 124.707031 119.316406 C 124.707031 113.792969 129.183594 109.316406 134.707031 109.316406 C 140.226562 109.316406 144.707031 113.792969 144.707031 119.316406 "/>
<path style="fill-rule:nonzero;fill:rgb(100%,0%,0%);fill-opacity:1;stroke-width:1;stroke-linecap:butt;stroke-linejoin:miter;stroke:rgb(0%,0%,0%);stroke-opacity:1;stroke-miterlimit:10;" d="M 145.066406 126.976562 C 145.066406 132.5 140.589844 136.976562 135.066406 136.976562 C 129.542969 136.976562 125.066406 132.5 125.066406 126.976562 C 125.066406 121.457031 129.542969 116.976562 135.066406 116.976562 C 140.589844 116.976562 145.066406 121.457031 145.066406 126.976562 "/>
<path style="fill-rule:nonzero;fill:rgb(100%,0%,0%);fill-opacity:1;stroke-width:1;stroke-linecap:butt;stroke-linejoin:miter;stroke:rgb(0%,0%,0%);stroke-opacity:1;stroke-miterlimit:10;" d="M 149.980469 124.800781 C 149.980469 130.324219 145.503906 134.800781 139.980469 134.800781 C 134.460938 134.800781 129.980469 130.324219 129.980469 124.800781 C 129.980469 119.277344 134.460938 114.800781 139.980469 114.800781 C 145.503906 114.800781 149.980469 119.277344 149.980469 124.800781 "/>
<path style="fill-rule:nonzero;fill:rgb(100%,0%,0%);fill-opacity:1;stroke-width:1;stroke-linecap:butt;stroke-linejoin:miter;stroke:rgb(0%,0%,0%);stroke-opacity:1;stroke-miterlimit:10;" d="M 152.226562 67.722656 C 152.226562 73.246094 147.75 77.722656 142.226562 77.722656 C 136.703125 77.722656 132.226562 73.246094 132.226562 67.722656 C 132.226562 62.199219 136.703125 57.722656 142.226562 57.722656 C 147.75 57.722656 152.226562 62.199219 152.226562 67.722656 "/>
<path style="fill-rule:nonzero;fill:rgb(100%,0%,0%);fill-opacity:1;stroke-width:1;stroke-linecap:butt;stroke-linejoin:miter;stroke:rgb(0%,0%,0%);stroke-opacity:1;stroke-miterlimit:10;" d="M 190 22.792969 C 190 28.316406 185.523438 32.792969 180 32.792969 C 174.476562 32.792969 170 28.316406 170 22.792969 C 170 17.269531 174.476562 12.792969 180 12.792969 C 185.523438 12.792969 190 17.269531 190 22.792969 "/>
</g>
</svg>
