<?xml version="1.0" encoding="UTF-8"?>
<svg xmlns="http://www.w3.org/2000/svg" xmlns:xlink="http://www.w3.org/1999/xlink" width="200pt" height="200pt" viewBox="0 0 200 200" version="1.1">
<g id="surface8">
<rect x="0" y="0" width="200" height="200" style="fill:rgb(100%,100%,100%);fill-opacity:1;stroke:none;"/>
<path style="fill:none;stroke-width:1;stroke-linecap:butt;stroke-linejoin:miter;stroke:rgb(26.666667%,26.666667%,26.666667%);stroke-opacity:1;stroke-miterlimit:10;" d="M 20 46.621094 L 65.585938 60.207031 "/>
<path style="fill:none;stroke-width:1;stroke-linecap:butt;stroke-linejoin:miter;stroke:rgb(26.666667%,26.666667%,26.666667%);stroke-opacity:1;stroke-miterlimit:10;" d="M 49.617188 161.242188 L 64.601562 180 "/>
<path style="fill:none;stroke-width:1;stroke-linecap:butt;stroke-linejoin:miter;stroke:rgb(26.666667%,26.666667%,26.666667%);stroke-opacity:1;stroke-miterlimit:10;" d="M 49.617188 161.242188 L 81.289062 140.703125 "/>
<path style="fill:none;stroke-width:1;stroke-linecap:butt;stroke-linejoin:miter;stroke:rgb(26.666667%,26.666667%,26.666667%);stroke-opacity:1;stroke-miterlimit:10;" d="M 49.617188 161.242188 L 87.527344 148.933594 "/>
<path style="fill:none;stroke-width:1;stroke-linecap:butt;stroke-linejoin:miter;stroke:rgb(26.666667%,26.666667%,26.666667%);stroke-opacity:1;stroke-miterlimit:10;" d="M 64.601562 180 L 81.289062 140.703125 "/>
<path style="fill:none;stroke-width:1;stroke-linecap:butt;stroke-linejoin:miter;stroke:rgb(26.666667%,26.666667%,26.666667%);stroke-opacity:1;stroke-miterlimit:10;" d="M 64.601562 180 L 87.527344 148.933594 "/>
<path style="fill:none;stroke-width:1;stroke-linecap:butt;stroke-linejoin:miter;stroke:rgb(26.666667%,26.666667%,26.666667%);stroke-opacity:1;stroke-miterlimit:10;" d="M 64.601562 180 L 111.929688 176.074219 "/>
<path style="fill:none;stroke-width:1;stroke-linecap:butt;stroke-linejoin:miter;stroke:rgb(26.666667%,26.666667%,26.666667%);stroke-opacity:1;stroke-miterlimit:10;" d="M 65.585938 60.207031 L 70.164062 20.265625 "/>
<path style="fill:none;stroke-width:1;stroke-linecap:butt;stroke-linejoin:miter;stroke:rgb(26.666667%,26.666667%,26.666667%);stroke-opacity:1;stroke-miterlimit:10;" d="M 65.585938 60.207031 L 76.46875 22.550781 "/>
<path style="fill:none;stroke-width:1;stroke-linecap:butt;stroke-linejoin:miter;stroke:rgb(26.666667%,26.666667%,26.666667%);stroke-opacity:1;stroke-miterlimit:10;" d="M 65.585938 60.207031 L 76.699219 20.109375 "/>
<path style="fill:none;stroke-width:1;stroke-linecap:butt;stroke-linejoin:miter;stroke:rgb(26.666667%,26.666667%,26.666667%);stroke-opacity:1;stroke-miterlimit:10;" d="M 65.585938 60.207031 L 84.679688 41.460938 "/>
<path style="fill:none;stroke-width:1;stroke-linecap:butt;stroke-linejoin:miter;stroke:rgb(26.666667%,26.666667%,26.666667%);stroke-opacity:1;stroke-miterlimit:10;" d="M 65.585938 60.207031 L 94.054688 24.355469 "/>
<path style="fill:none;stroke-width:1;stroke-linecap:butt;stroke-linejoin:miter;stroke:rgb(26.666667%,26.666667%,26.666667%);stroke-opacity:1;stroke-miterlimit:10;" d="M 65.585938 60.207031 L 96.960938 36.324219 "/>
<path style="fill:none;stroke-width:1;stroke-linecap:butt;stroke-linejoin:miter;stroke:rgb(26.666667%,26.666667%,26.666667%);stroke-opacity:1;stroke-miterlimit:10;" d="M 70.164062 20.265625 L 76.46875 22.550781 "/>
<path style="fill:none;stroke-width:1;stroke-linecap:butt;stroke-linejoin:miter;stroke:rgb(26.666667%,26.666667%,26.666667%);stroke-opacity:1;stroke-miterlimit:10;" d="M 70.164062 20.265625 L 76.699219 20.109375 "/>
<path style="fill:none;stroke-width:1;stroke-linecap:butt;stroke-linejoin:miter;stroke:rgb(26.666667%,26.666667%,26.666667%);stroke-opacity:1;stroke-miterlimit:10;" d="M 70.164062 20.265625 L 84.679688 41.460938 "/>
<path style="fill:none;stroke-width:1;stroke-linecap:butt;stroke-linejoin:miter;stroke:rgb(26.666667%,26.666667%,26.666667%);stroke-opacity:1;stroke-miterlimit:10;" d="M 70.164062 20.265625 L 94.054688 24.355469 "/>
<path style="fill:none;stroke-width:1;stroke-linecap:butt;stroke-linejoin:miter;stroke:rgb(26.666667%,26.666667%,26.666667%);stroke-opacity:1;stroke-miterlimit:10;" d="M 70.164062 20.265625 L 96.960938 36.324219 "/>
<path style="fill:none;stroke-width:1;stroke-linecap:butt;stroke-linejoin:miter;stroke:rgb(26.666667%,26.666667%,26.666667%);stroke-opacity:1;stroke-miterlimit:10;" d="M 70.164062 20.265625 L 102.191406 20 "/>
<path style="fill:none;stroke-width:1;stroke-linecap:butt;stroke-linejoin:miter;stroke:rgb(26.666667%,26.666667%,26.666667%);stroke-opacity:1;stroke-miterlimit:10;" d="M 76.46875 22.550781 L 76.699219 20.109375 "/>
<path style="fill:none;stroke-width:1;stroke-linecap:butt;stroke-linejoin:miter;stroke:rgb(26.666667%,26.666667%,26.666667%);stroke-opacity:1;stroke-miterlimit:10;" d="M 76.46875 22.550781 L 84.679688 41.460938 "/>
<path style="fill:none;stroke-width:1;stroke-linecap:butt;stroke-linejoin:miter;stroke:rgb(26.666667%,26.666667%,26.666667%);stroke-opacity:1;stroke-miterlimit:10;" d="M 76.46875 22.550781 L 94.054688 24.355469 "/>
<path style="fill:none;stroke-width:1;stroke-linecap:butt;stroke-linejoin:miter;stroke:rgb(26.666667%,26.666667%,26.666667%);stroke-opacity:1;stroke-miterlimit:10;" d="M 76.46875 22.550781 L 96.960938 36.324219 "/>
<path style="fill:none;stroke-width:1;stroke-linecap:butt;stroke-linejoin:miter;stroke:rgb(26.666667%,26.666667%,26.666667%);stroke-opacity:1;stroke-miterlimit:10;" d="M 76.46875 22.550781 L 102.191406 20 "/>
<path style="fill:none;stroke-width:1;stroke-linecap:butt;stroke-linejoin:miter;stroke:rgb(26.666667%,26.666667%,26.666667%);stroke-opacity:1;stroke-miterlimit:10;" d="M 76.699219 20.109375 L 84.679688 41.460938 "/>
<path style="fill:none;stroke-width:1;stroke-linecap:butt;stroke-linejoin:miter;stroke:rgb(26.666667%,26.666667%,26.666667%);stroke-opacity:1;stroke-miterlimit:10;" d="M 76.699219 20.109375 L 94.054688 24.355469 "/>
<path style="fill:none;stroke-width:1;stroke-linecap:butt;stroke-linejoin:miter;stroke:rgb(26.666667%,26.666667%,26.666667%);stroke-opacity:1;stroke-miterlimit:10;" d="M 76.699219 20.109375 L 96.960938 36.324219 "/>
<path style="fill:none;stroke-width:1;stroke-linecap:butt;stroke-linejoin:miter;stroke:rgb(26.666667%,26.666667%,26.666667%);stroke-opacity:1;stroke-miterlimit:10;" d="M 76.699219 20.109375 L 102.191406 20 "/>
<path style="fill:none;stroke-width:1;stroke-linecap:butt;stroke-linejoin:miter;stroke:rgb(26.666667%,26.666667%,26.666667%);stroke-opacity:1;stroke-miterlimit:10;" d="M 81.289062 140.703125 L 87.527344 148.933594 "/>
<path style="fill:none;stroke-width:1;stroke-linecap:butt;stroke-linejoin:miter;stroke:rgb(26.666667%,26.666667%,26.666667%);stroke-opacity:1;stroke-miterlimit:10;" d="M 81.289062 140.703125 L 111.929688 176.074219 "/>
<path style="fill:none;stroke-width:1;stroke-linecap:butt;stroke-linejoin:miter;stroke:rgb(26.666667%,26.666667%,26.666667%);stroke-opacity:1;stroke-miterlimit:10;" d="M 84.679688 41.460938 L 94.054688 24.355469 "/>
<path style="fill:none;stroke-width:1;stroke-linecap:butt;stroke-linejoin:miter;stroke:rgb(26.666667%,26.666667%,26.666667%);stroke-opacity:1;stroke-miterlimit:10;" d="M 84.679688 41.460938 L 96.960938 36.324219 "/>
<path style="fill:none;stroke-width:1;stroke-linecap:butt;stroke-linejoin:miter;stroke:rgb(26.666667%,26.666667%,26.666667%);stroke-opacity:1;stroke-miterlimit:10;" d="M 84.679688 41.460938 L 102.191406 20 "/>
<path style="fill:none;stroke-width:1;stroke-linecap:butt;stroke-linejoin:miter;stroke:rgb(26.666667%,26.666667%,26.666667%);stroke-opacity:1;stroke-miterlimit:10;" d="M 87.527344 148.933594 L 111.929688 176.074219 "/>
<path style="fill:none;stroke-width:1;stroke-linecap:butt;stroke-linejoin:miter;stroke:rgb(26.666667%,26.666667%,26.666667%);stroke-opacity:1;stroke-miterlimit:10;" d="M 94.054688 24.355469 L 96.960938 36.324219 "/>
<path style="fill:none;stroke-width:1;stroke-linecap:butt;stroke-linejoin:miter;stroke:rgb(26.666667%,26.666667%,26.666667%);stroke-opacity:1;stroke-miterlimit:10;" d="M 94.054688 24.355469 L 102.191406 20 "/>
<path style="fill:none;stroke-width:1;stroke-linecap:butt;stroke-linejoin:miter;stroke:rgb(26.666667%,26.666667%,26.666667%);stroke-opacity:1;stroke-miterlimit:10;" d="M 96.960938 36.324219 L 102.191406 20 "/>
<path style="fill:none;stroke-width:1;stroke-linecap:butt;stroke-linejoin:miter;stroke:rgb(26.666667%,26.666667%,26.666667%);stroke-opacity:1;stroke-miterlimit:10;" d="M 145.132812 87.429688 L 152.832031 55.253906 "/>
<path style="fill:none;stroke-width:1;stroke-linecap:butt;stroke-linejoin:miter;stroke:rgb(26.666667%,26.666667%,26.666667%);stroke-opacity:1;stroke-miterlimit:10;" d="M 145.132812 87.429688 L 155.4375 56.304688 "/>
<path style="fill:none;stroke-width:1;stroke-linecap:butt;stroke-linejoin:miter;stroke:rgb(26.666667%,26.666667%,26.666667%);stroke-opacity:1;stroke-miterlimit:10;" d="M 145.132812 87.429688 L 157.253906 53.8125 "/>
<path style="fill:none;stroke-width:1;stroke-linecap:butt;stroke-linejoin:miter;stroke:rgb(26.666667%,26.666667%,26.666667%);stroke-opacity:1;stroke-miterlimit:10;" d="M 152.832031 55.253906 L 155.4375 56.304688 "/>
<path style="fill:none;stroke-width:1;stroke-linecap:butt;stroke-linejoin:miter;stroke:rgb(26.666667%,26.666667%,26.666667%);stroke-opacity:1;stroke-miterlimit:10;" d="M 152.832031 55.253906 L 157.253906 53.8125 "/>
<path style="fill:none;stroke-width:1;stroke-linecap:butt;stroke-linejoin:miter;stroke:rgb(26.666667%,26.666667%,26.666667%);stroke-opacity:1;stroke-miterlimit:10;" d="M 155.4375 56.304688 L 157.253906 53.8125 "/>
<path style="fill:none;stroke-width:1;stroke-linecap:butt;stroke-linejoin:miter;stroke:rgb(26.666667%,26.666667%,26.666667%);stroke-opacity:1;stroke-miterlimit:10;" d="M 157.839844 141.183594 L 180 151.878906 "/>
<path style="fill-rule:nonzero;fill:rgb(100%,0%,0%);fill-opacity:1;stroke-width:1;stroke-linecap:butt;stroke-linejoin:miter;stroke:rgb(0%,0%,0%);stroke-opacity:1;stroke-miterlimit:10;" d="M 30 46.621094 C 30 52.144531 25.523438 56.621094 20 56.621094 C 14.476562 56.621094 10 52.144531 10 46.621094 C 10 41.097656 14.476562 36.621094 20 36.621094 C 25.523438 36.621094 30 41.097656 30 46.621094 "/>
<path style="fill-rule:nonzero;fill:rgb(100%,0%,0%);fill-opacity:1;stroke-width:1;stroke-linecap:butt;stroke-linejoin:miter;stroke:rgb(0%,0%,0%);stroke-opacity:1;stroke-miterlimit:10;" d="M 59.617188 161.242188 C 59.617188 166.765625 55.140625 171.242188 49.617188 171.242188 C 44.09375 171.242188 39.617188 166.765625 39.617188 161.242188 C 39.617188 155.71875 44.09375 151.242188 49.617188 151.242188 C 55.140625 151.242188 59.617188 155.71875 59.617188 161.242188 "/>
<path style="fill-rule:nonzero;fill:rgb(100%,0%,0%);fill-opacity:1;stroke-width:1;stroke-linecap:butt;stroke-linejoin:miter;stroke:rgb(0%,0%,0%);stroke-opacity:1;stroke-miterlimit:10;" d="M 74.601562 180 C 74.601562 185.523438 70.125 190 64.601562 190 C 59.082031 190 54.601562 185.523438 54.601562 180 C 54.601562 174.476562 59.082031 170 64.601562 170 C 70.125 170 74.601562 174.476562 74.601562 180 "/>
<path style="fill-rule:nonzero;fill:rgb(100%,0%,0%);fill-opacity:1;stroke-width:1;stroke-linecap:butt;stroke-linejoin:miter;stroke:rgb(0%,0%,0%);stroke-opacity:1;stroke-miterlimit:10;" d="M 75.585938 60.207031 C 75.585938 65.730469 71.109375 70.207031 65.585938 70.207031 C 60.0625 70.207031 55.585938 65.730469 55.585938 60.207031 C 55.585938 54.683594 60.0625 50.207031 65.585938 50.207031 C 71.109375 50.207031 75.585938 54.683594 75.585938 60.207031 "/>
<path style="fill-rule:nonzero;fill:rgb(100%,0%,0%);fill-opacity:1;stroke-width:1;stroke-linecap:butt;stroke-linejoin:miter;stroke:rgb(0%,0%,0%);stroke-opacity:1;stroke-miterlimit:10;" d="M 80.164062 20.265625 C 80.164062 25.785156 75.6875 30.265625 70.164062 30.265625 C 64.640625 30.265625 60.164062 25.785156 60.164062 20.265625 C 60.164062 14.742188 64.640625 10.265625 70.164062 10.265625 C 75.6875 10.265625 80.164062 14.742188 80.164062 20.265625 "/>
<path style="fill-rule:nonzero;fill:rgb(100%,0%,0%);fill-opacity:1;stroke-width:1;stroke-linecap:butt;stroke-linejoin:miter;stroke:rgb(0%,0%,0%);stroke-opacity:1;stroke-miterlimit:10;" d="M 86.46875 22.550781 C 86.46875 28.074219 81.992188 32.550781 76.46875 32.550781 C 70.945312 32.550781 66.46875 28.074219 66.46875 22.550781 C 66.46875 17.027344 70.945312 12.550781 76.46875 12.550781 C 81.992188 12.550781 86.46875 17.027344 86.46875 22.550781 "/>
<path style="fill-rule:nonzero;fill:rgb(100%,0%,0%);fill-opacity:1;stroke-width:1;stroke-linecap:butt;stroke-linejoin:miter;stroke:rgb(0%,0%,0%);stroke-opacity:1;stroke-miterlimit:10;" d="M 86.699219 20.109375 C 86.699219 25.632812 82.222656 30.109375 76.699219 30.109375 C 71.175781 30.109375 66.699219 25.632812 66.699219 20.109375 C 66.699219 14.585938 71.175781 10.109375 76.699219 10.109375 C 82.222656 10.109375 86.699219 14.585938 86.699219 20.109375 "/>
<path style="fill-rule:nonzero;fill:rgb(100%,0%,0%);fill-opacity:1;stroke-width:1;stroke-linecap:butt;stroke-linejoin:miter;stroke:rgb(0%,0%,0%);stroke-opacity:1;stroke-miterlimit:10;" d="M 91.289062 140.703125 C 91.289062 146.226562 86.8125 150.703125 81.289062 150.703125 C 75.765625 150.703125 71.289062 146.226562 71.289062 140.703125 C 71.289062 135.183594 75.765625 130.703125 81.289062 130.703125 C 86.8125 130.703125 91.289062 135.183594 91.289062 140.703125 "/>
<path style="fill-rule:nonzero;fill:rgb(100%,0%,0%);fill-opacity:1;stroke-width:1;stroke-linecap:butt;stroke-linejoin:miter;stroke:rgb(0%,0%,0%);stroke-opacity:1;stroke-miterlimit:10;" d="M 94.679688 41.460938 C 94.679688 46.984375 90.203125 51.460938 84.679688 51.460938 C 79.15625 51.460938 74.679688 46.984375 74.679688 41.460938 C 74.679688 35.9375 79.15625 31.460938 84.679688 31.460938 C 90.203125 31.460938 94.679688 35.9375 94.679688 41.460938 "/>
<path style="fill-rule:nonzero;fill:rgb(100%,0%,0%);fill-opacity:1;stroke-width:1;stroke-linecap:butt;stroke-linejoin:miter;stroke:rgb(0%,0%,0%);stroke-opacity:1;stroke-miterlimit:10;" d="M 97.527344 148.933594 C 97.527344 154.457031 93.050781 158.933594 87.527344 158.933594 C 82.003906 158.933594 77.527344 154.457031 77.527344 148.933594 C 77.527344 143.414062 82.003906 138.933594 87.527344 138.933594 C 93.050781 138.933594 97.527344 143.414062 97.527344 148.933594 "/>
<path style="fill-rule:nonzero;fill:rgb(100%,0%,0%);fill-opacity:1;stroke-width:1;stroke-linecap:butt;stroke-linejoin:miter;stroke:rgb(0%,0%,0%);stroke-opacity:1;stroke-miterlimit:10;" d="M 104.054688 24.355469 C 104.054688 29.875 99.578125 34.355469 94.054688 34.355469 C 88.53125 34.355469 84.054688 29.875 84.054688 24.355469 C 84.054688 18.832031 88.53125 14.355469 94.054688 14.355469 C 99.578125 14.355469 104.054688 18.832031 104.054688 24.355469 "/>
<path style="fill-rule:nonzero;fill:rgb(100%,0%,0%);fill-opacity:1;stroke-width:1;stroke-linecap:butt;stroke-linejoin:miter;stroke:rgb(0%,0%,0%);stroke-opacity:1;stroke-miterlimit:10;" d="M 106.960938 36.324219 C 106.960938 41.847656 102.484375 46.324219 96.960938 46.324219 C 91.4375 46.324219 86.960938 41.847656 86.960938 36.324219 C 86.960938 30.800781 91.4375 26.324219 96.960938 26.324219 C 102.484375 26.324219 106.960938 30.800781 106.960938 36.324219 "/>
<path style="fill-rule:nonzero;fill:rgb(100%,0%,0%);fill-opacity:1;stroke-width:1;stroke-linecap:butt;stroke-linejoin:miter;stroke:rgb(0%,0%,0%);stroke-opacity:1;stroke-miterlimit:10;" d="M 112.191406 20 C 112.191406 25.523438 107.710938 30 102.191406 30 C 96.667969 30 92.191406 25.523438 92.191406 20 C 92.191406 14.476562 96.667969 10 102.191406 10 C 107.710938 10 112.191406 14.476562 112.191406 20 "/>
<path style="fill-rule:nonzero;fill:rgb(100%,0%,0%);fill-opacity:1;stroke-width:1;stroke-linecap:butt;stroke-linejoin:miter;stroke:rgb(0%,0%,0%);stroke-opacity:1;stroke-miterlimit:10;" d="M 121.929688 176.074219 C 121.929688 181.597656 117.453125 186.074219 111.929688 186.074219 C 106.410156 186.074219 101.929688 181.597656 101.929688 176.074219 C 101.929688 170.554688 106.410156 166.074219 111.929688 166.074219 C 117.453125 166.074219 121.929688 170.554688 121.929688 176.074219 "/>
<path style="fill-rule:nonzero;fill:rgb(100%,0%,0%);fill-opacity:1;stroke-width:1;stroke-linecap:butt;stroke-linejoin:miter;stroke:rgb(0%,0%,0%);stroke-opacity:1;stroke-miterlimit:10;" d="M 155.132812 87.429688 C 155.132812 92.953125 150.65625 97.429688 145.132812 97.429688 C 139.609375 97.429688 135.132812 92.953125 135.132812 87.429688 C 135.132812 81.90625 139.609375 77.429688 145.132812 77.429688 C 150.65625 77.429688 155.132812 81.90625 155.132812 87.429688 "/>
<path style="fill-rule:nonzero;fill:rgb(100%,0%,0%);fill-opacity:1;stroke-width:1;stroke-linecap:butt;stroke-linejoin:miter;stroke:rgb(0%,0%,0%);stroke-opacity:1;stroke-miterlimit:10;" d="M 162.832031 55.253906 C 162.832031 60.777344 158.355469 65.253906 152.832031 65.253906 C 147.308594 65.253906 142.832031 60.777344 142.832031 55.253906 C 142.832031 49.734375 147.308594 45.253906 152.832031 45.253906 C 158.355469 45.253906 162.832031 49.734375 162.832031 55.253906 "/>
<path style="fill-rule:nonzero;fill:rgb(100%,0%,0%);fill-opacity:1;stroke-width:1;stroke-linecap:butt;stroke-linejoin:miter;stroke:rgb(0%,0%,0%);stroke-opacity:1;stroke-miterlimit:10;" d="M 165.4375 56.304688 C 165.4375 61.828125 160.960938 66.304688 155.4375 66.304688 C 149.917969 66.304688 145.4375 61.828125 145.4375 56.304688 C 145.4375 50.785156 149.917969 46.304688 155.4375 46.304688 C 160.960938 46.304688 165.4375 50.785156 165.4375 56.304688 "/>
<path style="fill-rule:nonzero;fill:rgb(100%,0%,0%);fill-opacity:1;stroke-width:1;stroke-linecap:butt;stroke-linejoin:miter;stroke:rgb(0%,0%,0%);stroke-opacity:1;stroke-miterlimit:10;" d="M 167.253906 53.8125 C 167.253906 59.335938 162.777344 63.8125 157.253906 63.8125 C 151.730469 63.8125 147.253906 59.335938 147.253906 53.8125 C 147.253906 48.292969 151.730469 43.8125 157.253906 43.8125 C 162.777344 43.8125 167.253906 48.292969 167.253906 53.8125 "/>
<path style="fill-rule:nonzero;fill:rgb(100%,0%,0%);fill-opacity:1;stroke-width:1;stroke-linecap:butt;stroke-linejoin:miter;stroke:rgb(0%,0%,0%);stroke-opacity:1;stroke-miterlimit:10;" d="M 167.839844 141.183594 C 167.839844 146.707031 163.363281 151.183594 157.839844 151.183594 C 152.316406 151.183594 147.839844 146.707031 147.839844 141.183594 C 147.839844 135.660156 152.316406 131.183594 157.839844 131.183594 C 163.363281 131.183594 167.839844 135.660156 167.839844 141.183594 "/>
<path style="fill-rule:nonzero;fill:rgb(100%,0%,0%);fill-opacity:1;stroke-width:1;stroke-linecap:butt;stroke-linejoin:miter;stroke:rgb(0%,0%,0%);stroke-opacity:1;stroke-miterlimit:10;" d="M 190 151.878906 C 190 157.402344 185.523438 161.878906 180 161.878906 C 174.476562 161.878906 170 157.402344 170 151.878906 C 170 146.355469 174.476562 141.878906 180 141.878906 C 185.523438 141.878906 190 146.355469 190 151.878906 "/>
</g>
</svg>
