<?xml version="1.0" encoding="UTF-8"?>
<svg xmlns="http://www.w3.org/2000/svg" xmlns:xlink="http://www.w3.org/1999/xlink" width="200pt" height="200pt" viewBox="0 0 200 200" version="1.1">
<g id="surface14">
<rect x="0" y="0" width="200" height="200" style="fill:rgb(100%,100%,100%);fill-opacity:1;stroke:none;"/>
<path style="fill:none;stroke-width:1;stroke-linecap:butt;stroke-linejoin:miter;stroke:rgb(26.666667%,26.666667%,26.666667%);stroke-opacity:1;stroke-miterlimit:10;" d="M 64.714844 119.046875 L 115.765625 151.339844 "/>
<path style="fill:none;stroke-width:1;stroke-linecap:butt;stroke-linejoin:miter;stroke:rgb(26.666667%,26.666667%,26.666667%);stroke-opacity:1;stroke-miterlimit:10;" d="M 93.730469 75.261719 L 116.425781 45.632812 "/>
<path style="fill:none;stroke-width:1;stroke-linecap:butt;stroke-linejoin:miter;stroke:rgb(26.666667%,26.666667%,26.666667%);stroke-opacity:1;stroke-miterlimit:10;" d="M 78.457031 25.402344 L 116.425781 45.632812 "/>
<path style="fill:none;stroke-width:1;stroke-linecap:butt;stroke-linejoin:miter;stroke:rgb(26.666667%,26.666667%,26.666667%);stroke-opacity:1;stroke-miterlimit:10;" d="M 64.714844 119.046875 L 91.589844 161.800781 "/>
<path style="fill:none;stroke-width:1;stroke-linecap:butt;stroke-linejoin:miter;stroke:rgb(26.666667%,26.666667%,26.666667%);stroke-opacity:1;stroke-miterlimit:10;" d="M 64.714844 119.046875 L 106.078125 119.476562 "/>
<path style="fill:none;stroke-width:1;stroke-linecap:butt;stroke-linejoin:miter;stroke:rgb(26.666667%,26.666667%,26.666667%);stroke-opacity:1;stroke-miterlimit:10;" d="M 93.730469 75.261719 L 106.078125 119.476562 "/>
<path style="fill:none;stroke-width:1;stroke-linecap:butt;stroke-linejoin:miter;stroke:rgb(26.666667%,26.666667%,26.666667%);stroke-opacity:1;stroke-miterlimit:10;" d="M 116.425781 45.632812 L 106.078125 119.476562 "/>
<path style="fill:none;stroke-width:1;stroke-linecap:butt;stroke-linejoin:miter;stroke:rgb(26.666667%,26.666667%,26.666667%);stroke-opacity:1;stroke-miterlimit:10;" d="M 93.730469 75.261719 L 80.046875 109.679688 "/>
<path style="fill:none;stroke-width:1;stroke-linecap:butt;stroke-linejoin:miter;stroke:rgb(26.666667%,26.666667%,26.666667%);stroke-opacity:1;stroke-miterlimit:10;" d="M 78.457031 25.402344 L 80.046875 109.679688 "/>
<path style="fill:none;stroke-width:1;stroke-linecap:butt;stroke-linejoin:miter;stroke:rgb(26.666667%,26.666667%,26.666667%);stroke-opacity:1;stroke-miterlimit:10;" d="M 139.585938 130.671875 L 80.046875 109.679688 "/>
<path style="fill:none;stroke-width:1;stroke-linecap:butt;stroke-linejoin:miter;stroke:rgb(26.666667%,26.666667%,26.666667%);stroke-opacity:1;stroke-miterlimit:10;" d="M 64.714844 119.046875 L 57.527344 46.097656 "/>
<path style="fill:none;stroke-width:1;stroke-linecap:butt;stroke-linejoin:miter;stroke:rgb(26.666667%,26.666667%,26.666667%);stroke-opacity:1;stroke-miterlimit:10;" d="M 78.457031 25.402344 L 57.527344 46.097656 "/>
<path style="fill:none;stroke-width:1;stroke-linecap:butt;stroke-linejoin:miter;stroke:rgb(26.666667%,26.666667%,26.666667%);stroke-opacity:1;stroke-miterlimit:10;" d="M 106.078125 119.476562 L 70.335938 166.3125 "/>
<path style="fill:none;stroke-width:1;stroke-linecap:butt;stroke-linejoin:miter;stroke:rgb(26.666667%,26.666667%,26.666667%);stroke-opacity:1;stroke-miterlimit:10;" d="M 80.046875 109.679688 L 70.335938 166.3125 "/>
<path style="fill:none;stroke-width:1;stroke-linecap:butt;stroke-linejoin:miter;stroke:rgb(26.666667%,26.666667%,26.666667%);stroke-opacity:1;stroke-miterlimit:10;" d="M 64.714844 119.046875 L 47.886719 71.886719 "/>
<path style="fill:none;stroke-width:1;stroke-linecap:butt;stroke-linejoin:miter;stroke:rgb(26.666667%,26.666667%,26.666667%);stroke-opacity:1;stroke-miterlimit:10;" d="M 57.527344 46.097656 L 47.886719 71.886719 "/>
<path style="fill:none;stroke-width:1;stroke-linecap:butt;stroke-linejoin:miter;stroke:rgb(26.666667%,26.666667%,26.666667%);stroke-opacity:1;stroke-miterlimit:10;" d="M 115.765625 151.339844 L 150.753906 100.902344 "/>
<path style="fill:none;stroke-width:1;stroke-linecap:butt;stroke-linejoin:miter;stroke:rgb(26.666667%,26.666667%,26.666667%);stroke-opacity:1;stroke-miterlimit:10;" d="M 180 72.074219 L 150.753906 100.902344 "/>
<path style="fill:none;stroke-width:1;stroke-linecap:butt;stroke-linejoin:miter;stroke:rgb(26.666667%,26.666667%,26.666667%);stroke-opacity:1;stroke-miterlimit:10;" d="M 106.078125 119.476562 L 150.753906 100.902344 "/>
<path style="fill:none;stroke-width:1;stroke-linecap:butt;stroke-linejoin:miter;stroke:rgb(26.666667%,26.666667%,26.666667%);stroke-opacity:1;stroke-miterlimit:10;" d="M 139.585938 130.671875 L 143.09375 62.789062 "/>
<path style="fill:none;stroke-width:1;stroke-linecap:butt;stroke-linejoin:miter;stroke:rgb(26.666667%,26.666667%,26.666667%);stroke-opacity:1;stroke-miterlimit:10;" d="M 116.425781 45.632812 L 143.09375 62.789062 "/>
<path style="fill:none;stroke-width:1;stroke-linecap:butt;stroke-linejoin:miter;stroke:rgb(26.666667%,26.666667%,26.666667%);stroke-opacity:1;stroke-miterlimit:10;" d="M 180 72.074219 L 143.09375 62.789062 "/>
<path style="fill:none;stroke-width:1;stroke-linecap:butt;stroke-linejoin:miter;stroke:rgb(26.666667%,26.666667%,26.666667%);stroke-opacity:1;stroke-miterlimit:10;" d="M 57.527344 46.097656 L 20 31.210938 "/>
<path style="fill:none;stroke-width:1;stroke-linecap:butt;stroke-linejoin:miter;stroke:rgb(26.666667%,26.666667%,26.666667%);stroke-opacity:1;stroke-miterlimit:10;" d="M 47.886719 71.886719 L 20 31.210938 "/>
<path style="fill:none;stroke-width:1;stroke-linecap:butt;stroke-linejoin:miter;stroke:rgb(26.666667%,26.666667%,26.666667%);stroke-opacity:1;stroke-miterlimit:10;" d="M 93.730469 75.261719 L 98.640625 37.445312 "/>
<path style="fill:none;stroke-width:1;stroke-linecap:butt;stroke-linejoin:miter;stroke:rgb(26.666667%,26.666667%,26.666667%);stroke-opacity:1;stroke-miterlimit:10;" d="M 57.527344 46.097656 L 98.640625 37.445312 "/>
<path style="fill:none;stroke-width:1;stroke-linecap:butt;stroke-linejoin:miter;stroke:rgb(26.666667%,26.666667%,26.666667%);stroke-opacity:1;stroke-miterlimit:10;" d="M 47.886719 71.886719 L 98.640625 37.445312 "/>
<path style="fill:none;stroke-width:1;stroke-linecap:butt;stroke-linejoin:miter;stroke:rgb(26.666667%,26.666667%,26.666667%);stroke-opacity:1;stroke-miterlimit:10;" d="M 143.09375 62.789062 L 98.640625 37.445312 "/>
<path style="fill:none;stroke-width:1;stroke-linecap:butt;stroke-linejoin:miter;stroke:rgb(26.666667%,26.666667%,26.666667%);stroke-opacity:1;stroke-miterlimit:10;" d="M 93.730469 75.261719 L 121.144531 94.871094 "/>
<path style="fill:none;stroke-width:1;stroke-linecap:butt;stroke-linejoin:miter;stroke:rgb(26.666667%,26.666667%,26.666667%);stroke-opacity:1;stroke-miterlimit:10;" d="M 139.585938 130.671875 L 121.144531 94.871094 "/>
<path style="fill:none;stroke-width:1;stroke-linecap:butt;stroke-linejoin:miter;stroke:rgb(26.666667%,26.666667%,26.666667%);stroke-opacity:1;stroke-miterlimit:10;" d="M 91.589844 161.800781 L 121.144531 94.871094 "/>
<path style="fill:none;stroke-width:1;stroke-linecap:butt;stroke-linejoin:miter;stroke:rgb(26.666667%,26.666667%,26.666667%);stroke-opacity:1;stroke-miterlimit:10;" d="M 150.753906 100.902344 L 121.144531 94.871094 "/>
<path style="fill:none;stroke-width:1;stroke-linecap:butt;stroke-linejoin:miter;stroke:rgb(26.666667%,26.666667%,26.666667%);stroke-opacity:1;stroke-miterlimit:10;" d="M 143.09375 62.789062 L 121.144531 94.871094 "/>
<path style="fill:none;stroke-width:1;stroke-linecap:butt;stroke-linejoin:miter;stroke:rgb(26.666667%,26.666667%,26.666667%);stroke-opacity:1;stroke-miterlimit:10;" d="M 98.640625 37.445312 L 121.144531 94.871094 "/>
<path style="fill:none;stroke-width:1;stroke-linecap:butt;stroke-linejoin:miter;stroke:rgb(26.666667%,26.666667%,26.666667%);stroke-opacity:1;stroke-miterlimit:10;" d="M 115.765625 151.339844 L 127.722656 180 "/>
<path style="fill:none;stroke-width:1;stroke-linecap:butt;stroke-linejoin:miter;stroke:rgb(26.666667%,26.666667%,26.666667%);stroke-opacity:1;stroke-miterlimit:10;" d="M 139.585938 130.671875 L 127.722656 180 "/>
<path style="fill:none;stroke-width:1;stroke-linecap:butt;stroke-linejoin:miter;stroke:rgb(26.666667%,26.666667%,26.666667%);stroke-opacity:1;stroke-miterlimit:10;" d="M 91.589844 161.800781 L 127.722656 180 "/>
<path style="fill:none;stroke-width:1;stroke-linecap:butt;stroke-linejoin:miter;stroke:rgb(26.666667%,26.666667%,26.666667%);stroke-opacity:1;stroke-miterlimit:10;" d="M 106.078125 119.476562 L 127.722656 180 "/>
<path style="fill:none;stroke-width:1;stroke-linecap:butt;stroke-linejoin:miter;stroke:rgb(26.666667%,26.666667%,26.666667%);stroke-opacity:1;stroke-miterlimit:10;" d="M 116.425781 45.632812 L 138.035156 20 "/>
<path style="fill:none;stroke-width:1;stroke-linecap:butt;stroke-linejoin:miter;stroke:rgb(26.666667%,26.666667%,26.666667%);stroke-opacity:1;stroke-miterlimit:10;" d="M 150.753906 100.902344 L 138.035156 20 "/>
<path style="fill:none;stroke-width:1;stroke-linecap:butt;stroke-linejoin:miter;stroke:rgb(26.666667%,26.666667%,26.666667%);stroke-opacity:1;stroke-miterlimit:10;" d="M 98.640625 37.445312 L 138.035156 20 "/>
<path style="fill-rule:nonzero;fill:rgb(100%,0%,0%);fill-opacity:1;stroke-width:1;stroke-linecap:butt;stroke-linejoin:miter;stroke:rgb(0%,0%,0%);stroke-opacity:1;stroke-miterlimit:10;" d="M 74.714844 119.046875 C 74.714844 124.566406 70.238281 129.046875 64.714844 129.046875 C 59.191406 129.046875 54.714844 124.566406 54.714844 119.046875 C 54.714844 113.523438 59.191406 109.046875 64.714844 109.046875 C 70.238281 109.046875 74.714844 113.523438 74.714844 119.046875 "/>
<path style="fill-rule:nonzero;fill:rgb(100%,0%,0%);fill-opacity:1;stroke-width:1;stroke-linecap:butt;stroke-linejoin:miter;stroke:rgb(0%,0%,0%);stroke-opacity:1;stroke-miterlimit:10;" d="M 125.765625 151.339844 C 125.765625 156.863281 121.285156 161.339844 115.765625 161.339844 C 110.242188 161.339844 105.765625 156.863281 105.765625 151.339844 C 105.765625 145.816406 110.242188 141.339844 115.765625 141.339844 C 121.285156 141.339844 125.765625 145.816406 125.765625 151.339844 "/>
<path style="fill-rule:nonzero;fill:rgb(100%,0%,0%);fill-opacity:1;stroke-width:1;stroke-linecap:butt;stroke-linejoin:miter;stroke:rgb(0%,0%,0%);stroke-opacity:1;stroke-miterlimit:10;" d="M 103.730469 75.261719 C 103.730469 80.78125 99.253906 85.261719 93.730469 85.261719 C 88.210938 85.261719 83.730469 80.78125 83.730469 75.261719 C 83.730469 69.738281 88.210938 65.261719 93.730469 65.261719 C 99.253906 65.261719 103.730469 69.738281 103.730469 75.261719 "/>
<path style="fill-rule:nonzero;fill:rgb(100%,0%,0%);fill-opacity:1;stroke-width:1;stroke-linecap:butt;stroke-linejoin:miter;stroke:rgb(0%,0%,0%);stroke-opacity:1;stroke-miterlimit:10;" d="M 88.457031 25.402344 C 88.457031 30.925781 83.980469 35.402344 78.457031 35.402344 C 72.933594 35.402344 68.457031 30.925781 68.457031 25.402344 C 68.457031 19.878906 72.933594 15.402344 78.457031 15.402344 C 83.980469 15.402344 88.457031 19.878906 88.457031 25.402344 "/>
<path style="fill-rule:nonzero;fill:rgb(100%,0%,0%);fill-opacity:1;stroke-width:1;stroke-linecap:butt;stroke-linejoin:miter;stroke:rgb(0%,0%,0%);stroke-opacity:1;stroke-miterlimit:10;" d="M 149.585938 130.671875 C 149.585938 136.195312 145.109375 140.671875 139.585938 140.671875 C 134.066406 140.671875 129.585938 136.195312 129.585938 130.671875 C 129.585938 125.148438 134.066406 120.671875 139.585938 120.671875 C 145.109375 120.671875 149.585938 125.148438 149.585938 130.671875 "/>
<path style="fill-rule:nonzero;fill:rgb(100%,0%,0%);fill-opacity:1;stroke-width:1;stroke-linecap:butt;stroke-linejoin:miter;stroke:rgb(0%,0%,0%);stroke-opacity:1;stroke-miterlimit:10;" d="M 126.425781 45.632812 C 126.425781 51.15625 121.949219 55.632812 116.425781 55.632812 C 110.902344 55.632812 106.425781 51.15625 106.425781 45.632812 C 106.425781 40.109375 110.902344 35.632812 116.425781 35.632812 C 121.949219 35.632812 126.425781 40.109375 126.425781 45.632812 "/>
<path style="fill-rule:nonzero;fill:rgb(100%,0%,0%);fill-opacity:1;stroke-width:1;stroke-linecap:butt;stroke-linejoin:miter;stroke:rgb(0%,0%,0%);stroke-opacity:1;stroke-miterlimit:10;" d="M 101.589844 161.800781 C 101.589844 167.324219 97.113281 171.800781 91.589844 171.800781 C 86.066406 171.800781 81.589844 167.324219 81.589844 161.800781 C 81.589844 156.277344 86.066406 151.800781 91.589844 151.800781 C 97.113281 151.800781 101.589844 156.277344 101.589844 161.800781 "/>
<path style="fill-rule:nonzero;fill:rgb(100%,0%,0%);fill-opacity:1;stroke-width:1;stroke-linecap:butt;stroke-linejoin:miter;stroke:rgb(0%,0%,0%);stroke-opacity:1;stroke-miterlimit:10;" d="M 190 72.074219 C 190 77.597656 185.523438 82.074219 180 82.074219 C 174.476562 82.074219 170 77.597656 170 72.074219 C 170 66.550781 174.476562 62.074219 180 62.074219 C 185.523438 62.074219 190 66.550781 190 72.074219 "/>
<path style="fill-rule:nonzero;fill:rgb(100%,0%,0%);fill-opacity:1;stroke-width:1;stroke-linecap:butt;stroke-linejoin:miter;stroke:rgb(0%,0%,0%);stroke-opacity:1;stroke-miterlimit:10;" d="M 116.078125 119.476562 C 116.078125 125 111.601562 129.476562 106.078125 129.476562 C 100.554688 129.476562 96.078125 125 96.078125 119.476562 C 96.078125 113.957031 100.554688 109.476562 106.078125 109.476562 C 111.601562 109.476562 116.078125 113.957031 116.078125 119.476562 "/>
<path style="fill-rule:nonzero;fill:rgb(100%,0%,0%);fill-opacity:1;stroke-width:1;stroke-linecap:butt;stroke-linejoin:miter;stroke:rgb(0%,0%,0%);stroke-opacity:1;stroke-miterlimit:10;" d="M 90.046875 109.679688 C 90.046875 115.203125 85.570312 119.679688 80.046875 119.679688 C 74.527344 119.679688 70.046875 115.203125 70.046875 109.679688 C 70.046875 104.160156 74.527344 99.679688 80.046875 99.679688 C 85.570312 99.679688 90.046875 104.160156 90.046875 109.679688 "/>
<path style="fill-rule:nonzero;fill:rgb(100%,0%,0%);fill-opacity:1;stroke-width:1;stroke-linecap:butt;stroke-linejoin:miter;stroke:rgb(0%,0%,0%);stroke-opacity:1;stroke-miterlimit:10;" d="M 67.527344 46.097656 C 67.527344 51.621094 63.050781 56.097656 57.527344 56.097656 C 52.003906 56.097656 47.527344 51.621094 47.527344 46.097656 C 47.527344 40.574219 52.003906 36.097656 57.527344 36.097656 C 63.050781 36.097656 67.527344 40.574219 67.527344 46.097656 "/>
<path style="fill-rule:nonzero;fill:rgb(100%,0%,0%);fill-opacity:1;stroke-width:1;stroke-linecap:butt;stroke-linejoin:miter;stroke:rgb(0%,0%,0%);stroke-opacity:1;stroke-miterlimit:10;" d="M 80.335938 166.3125 C 80.335938 171.835938 75.859375 176.3125 70.335938 176.3125 C 64.8125 176.3125 60.335938 171.835938 60.335938 166.3125 C 60.335938 160.789062 64.8125 156.3125 70.335938 156.3125 C 75.859375 156.3125 80.335938 160.789062 80.335938 166.3125 "/>
<path style="fill-rule:nonzero;fill:rgb(100%,0%,0%);fill-opacity:1;stroke-width:1;stroke-linecap:butt;stroke-linejoin:miter;stroke:rgb(0%,0%,0%);stroke-opacity:1;stroke-miterlimit:10;" d="M 57.886719 71.886719 C 57.886719 77.410156 53.410156 81.886719 47.886719 81.886719 C 42.363281 81.886719 37.886719 77.410156 37.886719 71.886719 C 37.886719 66.363281 42.363281 61.886719 47.886719 61.886719 C 53.410156 61.886719 57.886719 66.363281 57.886719 71.886719 "/>
<path style="fill-rule:nonzero;fill:rgb(100%,0%,0%);fill-opacity:1;stroke-width:1;stroke-linecap:butt;stroke-linejoin:miter;stroke:rgb(0%,0%,0%);stroke-opacity:1;stroke-miterlimit:10;" d="M 160.753906 100.902344 C 160.753906 106.425781 156.277344 110.902344 150.753906 110.902344 C 145.234375 110.902344 140.753906 106.425781 140.753906 100.902344 C 140.753906 95.378906 145.234375 90.902344 150.753906 90.902344 C 156.277344 90.902344 160.753906 95.378906 160.753906 100.902344 "/>
<path style="fill-rule:nonzero;fill:rgb(100%,0%,0%);fill-opacity:1;stroke-width:1;stroke-linecap:butt;stroke-linejoin:miter;stroke:rgb(0%,0%,0%);stroke-opacity:1;stroke-miterlimit:10;" d="M 153.09375 62.789062 C 153.09375 68.308594 148.617188 72.789062 143.09375 72.789062 C 137.570312 72.789062 133.09375 68.308594 133.09375 62.789062 C 133.09375 57.265625 137.570312 52.789062 143.09375 52.789062 C 148.617188 52.789062 153.09375 57.265625 153.09375 62.789062 "/>
<path style="fill-rule:nonzero;fill:rgb(100%,0%,0%);fill-opacity:1;stroke-width:1;stroke-linecap:butt;stroke-linejoin:miter;stroke:rgb(0%,0%,0%);stroke-opacity:1;stroke-miterlimit:10;" d="M 30 31.210938 C 30 36.734375 25.523438 41.210938 20 41.210938 C 14.476562 41.210938 10 36.734375 10 31.210938 C 10 25.6875 14.476562 21.210938 20 21.210938 C 25.523438 21.210938 30 25.6875 30 31.210938 "/>
<path style="fill-rule:nonzero;fill:rgb(100%,0%,0%);fill-opacity:1;stroke-width:1;stroke-linecap:butt;stroke-linejoin:miter;stroke:rgb(0%,0%,0%);stroke-opacity:1;stroke-miterlimit:10;" d="M 108.640625 37.445312 C 108.640625 42.96875 104.160156 47.445312 98.640625 47.445312 C 93.117188 47.445312 88.640625 42.96875 88.640625 37.445312 C 88.640625 31.921875 93.117188 27.445312 98.640625 27.445312 C 104.160156 27.445312 108.640625 31.921875 108.640625 37.445312 "/>
<path style="fill-rule:nonzero;fill:rgb(100%,0%,0%);fill-opacity:1;stroke-width:1;stroke-linecap:butt;stroke-linejoin:miter;stroke:rgb(0%,0%,0%);stroke-opacity:1;stroke-miterlimit:10;" d="M 131.144531 94.871094 C 131.144531 100.394531 126.667969 104.871094 121.144531 104.871094 C 115.621094 104.871094 111.144531 100.394531 111.144531 94.871094 C 111.144531 89.347656 115.621094 84.871094 121.144531 84.871094 C 126.667969 84.871094 131.144531 89.347656 131.144531 94.871094 "/>
<path style="fill-rule:nonzero;fill:rgb(100%,0%,0%);fill-opacity:1;stroke-width:1;stroke-linecap:butt;stroke-linejoin:miter;stroke:rgb(0%,0%,0%);stroke-opacity:1;stroke-miterlimit:10;" d="M 137.722656 180 C 137.722656 185.523438 133.246094 190 127.722656 190 C 122.199219 190 117.722656 185.523438 117.722656 180 C 117.722656 174.476562 122.199219 170 127.722656 170 C 133.246094 170 137.722656 174.476562 137.722656 180 "/>
<path style="fill-rule:nonzero;fill:rgb(100%,0%,0%);fill-opacity:1;stroke-width:1;stroke-linecap:butt;stroke-linejoin:miter;stroke:rgb(0%,0%,0%);stroke-opacity:1;stroke-miterlimit:10;" d="M 148.035156 20 C 148.035156 25.523438 143.558594 30 138.035156 30 C 132.515625 30 128.035156 25.523438 128.035156 20 C 128.035156 14.476562 132.515625 10 138.035156 10 C 143.558594 10 148.035156 14.476562 148.035156 20 "/>
</g>
</svg>
