<?xml version="1.0" encoding="UTF-8"?>
<svg xmlns="http://www.w3.org/2000/svg" xmlns:xlink="http://www.w3.org/1999/xlink" width="200pt" height="200pt" viewBox="0 0 200 200" version="1.1">
<g id="surface8">
<rect x="0" y="0" width="200" height="200" style="fill:rgb(100%,100%,100%);fill-opacity:1;stroke:none;"/>
<path style="fill:none;stroke-width:1;stroke-linecap:butt;stroke-linejoin:miter;stroke:rgb(26.666667%,26.666667%,26.666667%);stroke-opacity:1;stroke-miterlimit:10;" d="M 20 121.25 L 22.464844 137.042969 "/>
<path style="fill:none;stroke-width:1;stroke-linecap:butt;stroke-linejoin:miter;stroke:rgb(26.666667%,26.666667%,26.666667%);stroke-opacity:1;stroke-miterlimit:10;" d="M 20 121.25 L 25.335938 68.980469 "/>
<path style="fill:none;stroke-width:1;stroke-linecap:butt;stroke-linejoin:miter;stroke:rgb(26.666667%,26.666667%,26.666667%);stroke-opacity:1;stroke-miterlimit:10;" d="M 20 121.25 L 65.078125 97.988281 "/>
<path style="fill:none;stroke-width:1;stroke-linecap:butt;stroke-linejoin:miter;stroke:rgb(26.666667%,26.666667%,26.666667%);stroke-opacity:1;stroke-miterlimit:10;" d="M 20 121.25 L 66.398438 115.792969 "/>
<path style="fill:none;stroke-width:1;stroke-linecap:butt;stroke-linejoin:miter;stroke:rgb(26.666667%,26.666667%,26.666667%);stroke-opacity:1;stroke-miterlimit:10;" d="M 22.464844 137.042969 L 66.398438 115.792969 "/>
<path style="fill:none;stroke-width:1;stroke-linecap:butt;stroke-linejoin:miter;stroke:rgb(26.666667%,26.666667%,26.666667%);stroke-opacity:1;stroke-miterlimit:10;" d="M 25.335938 68.980469 L 25.933594 38.199219 "/>
<path style="fill:none;stroke-width:1;stroke-linecap:butt;stroke-linejoin:miter;stroke:rgb(26.666667%,26.666667%,26.666667%);stroke-opacity:1;stroke-miterlimit:10;" d="M 25.335938 68.980469 L 54.839844 40.644531 "/>
<path style="fill:none;stroke-width:1;stroke-linecap:butt;stroke-linejoin:miter;stroke:rgb(26.666667%,26.666667%,26.666667%);stroke-opacity:1;stroke-miterlimit:10;" d="M 25.335938 68.980469 L 65.078125 97.988281 "/>
<path style="fill:none;stroke-width:1;stroke-linecap:butt;stroke-linejoin:miter;stroke:rgb(26.666667%,26.666667%,26.666667%);stroke-opacity:1;stroke-miterlimit:10;" d="M 25.933594 38.199219 L 50.734375 20 "/>
<path style="fill:none;stroke-width:1;stroke-linecap:butt;stroke-linejoin:miter;stroke:rgb(26.666667%,26.666667%,26.666667%);stroke-opacity:1;stroke-miterlimit:10;" d="M 25.933594 38.199219 L 54.839844 40.644531 "/>
<path style="fill:none;stroke-width:1;stroke-linecap:butt;stroke-linejoin:miter;stroke:rgb(26.666667%,26.666667%,26.666667%);stroke-opacity:1;stroke-miterlimit:10;" d="M 50.734375 20 L 54.839844 40.644531 "/>
<path style="fill:none;stroke-width:1;stroke-linecap:butt;stroke-linejoin:miter;stroke:rgb(26.666667%,26.666667%,26.666667%);stroke-opacity:1;stroke-miterlimit:10;" d="M 54.839844 40.644531 L 102.402344 27.5625 "/>
<path style="fill:none;stroke-width:1;stroke-linecap:butt;stroke-linejoin:miter;stroke:rgb(26.666667%,26.666667%,26.666667%);stroke-opacity:1;stroke-miterlimit:10;" d="M 54.839844 40.644531 L 104.050781 32.96875 "/>
<path style="fill:none;stroke-width:1;stroke-linecap:butt;stroke-linejoin:miter;stroke:rgb(26.666667%,26.666667%,26.666667%);stroke-opacity:1;stroke-miterlimit:10;" d="M 65.078125 97.988281 L 66.398438 115.792969 "/>
<path style="fill:none;stroke-width:1;stroke-linecap:butt;stroke-linejoin:miter;stroke:rgb(26.666667%,26.666667%,26.666667%);stroke-opacity:1;stroke-miterlimit:10;" d="M 66.398438 115.792969 L 89.082031 146.414062 "/>
<path style="fill:none;stroke-width:1;stroke-linecap:butt;stroke-linejoin:miter;stroke:rgb(26.666667%,26.666667%,26.666667%);stroke-opacity:1;stroke-miterlimit:10;" d="M 88.625 180 L 89.082031 146.414062 "/>
<path style="fill:none;stroke-width:1;stroke-linecap:butt;stroke-linejoin:miter;stroke:rgb(26.666667%,26.666667%,26.666667%);stroke-opacity:1;stroke-miterlimit:10;" d="M 88.625 180 L 119.496094 158.914062 "/>
<path style="fill:none;stroke-width:1;stroke-linecap:butt;stroke-linejoin:miter;stroke:rgb(26.666667%,26.666667%,26.666667%);stroke-opacity:1;stroke-miterlimit:10;" d="M 88.625 180 L 136.757812 171.484375 "/>
<path style="fill:none;stroke-width:1;stroke-linecap:butt;stroke-linejoin:miter;stroke:rgb(26.666667%,26.666667%,26.666667%);stroke-opacity:1;stroke-miterlimit:10;" d="M 89.082031 146.414062 L 119.496094 158.914062 "/>
<path style="fill:none;stroke-width:1;stroke-linecap:butt;stroke-linejoin:miter;stroke:rgb(26.666667%,26.666667%,26.666667%);stroke-opacity:1;stroke-miterlimit:10;" d="M 89.082031 146.414062 L 119.859375 108.402344 "/>
<path style="fill:none;stroke-width:1;stroke-linecap:butt;stroke-linejoin:miter;stroke:rgb(26.666667%,26.666667%,26.666667%);stroke-opacity:1;stroke-miterlimit:10;" d="M 89.082031 146.414062 L 127.296875 131.894531 "/>
<path style="fill:none;stroke-width:1;stroke-linecap:butt;stroke-linejoin:miter;stroke:rgb(26.666667%,26.666667%,26.666667%);stroke-opacity:1;stroke-miterlimit:10;" d="M 102.402344 27.5625 L 104.050781 32.96875 "/>
<path style="fill:none;stroke-width:1;stroke-linecap:butt;stroke-linejoin:miter;stroke:rgb(26.666667%,26.666667%,26.666667%);stroke-opacity:1;stroke-miterlimit:10;" d="M 102.402344 27.5625 L 125.671875 67.273438 "/>
<path style="fill:none;stroke-width:1;stroke-linecap:butt;stroke-linejoin:miter;stroke:rgb(26.666667%,26.666667%,26.666667%);stroke-opacity:1;stroke-miterlimit:10;" d="M 104.050781 32.96875 L 125.671875 67.273438 "/>
<path style="fill:none;stroke-width:1;stroke-linecap:butt;stroke-linejoin:miter;stroke:rgb(26.666667%,26.666667%,26.666667%);stroke-opacity:1;stroke-miterlimit:10;" d="M 119.496094 158.914062 L 119.859375 108.402344 "/>
<path style="fill:none;stroke-width:1;stroke-linecap:butt;stroke-linejoin:miter;stroke:rgb(26.666667%,26.666667%,26.666667%);stroke-opacity:1;stroke-miterlimit:10;" d="M 119.496094 158.914062 L 127.296875 131.894531 "/>
<path style="fill:none;stroke-width:1;stroke-linecap:butt;stroke-linejoin:miter;stroke:rgb(26.666667%,26.666667%,26.666667%);stroke-opacity:1;stroke-miterlimit:10;" d="M 119.496094 158.914062 L 136.757812 171.484375 "/>
<path style="fill:none;stroke-width:1;stroke-linecap:butt;stroke-linejoin:miter;stroke:rgb(26.666667%,26.666667%,26.666667%);stroke-opacity:1;stroke-miterlimit:10;" d="M 119.859375 108.402344 L 125.671875 67.273438 "/>
<path style="fill:none;stroke-width:1;stroke-linecap:butt;stroke-linejoin:miter;stroke:rgb(26.666667%,26.666667%,26.666667%);stroke-opacity:1;stroke-miterlimit:10;" d="M 119.859375 108.402344 L 127.296875 131.894531 "/>
<path style="fill:none;stroke-width:1;stroke-linecap:butt;stroke-linejoin:miter;stroke:rgb(26.666667%,26.666667%,26.666667%);stroke-opacity:1;stroke-miterlimit:10;" d="M 127.296875 131.894531 L 136.757812 171.484375 "/>
<path style="fill:none;stroke-width:1;stroke-linecap:butt;stroke-linejoin:miter;stroke:rgb(26.666667%,26.666667%,26.666667%);stroke-opacity:1;stroke-miterlimit:10;" d="M 167.609375 30.070312 L 172.421875 28.289062 "/>
<path style="fill-rule:nonzero;fill:rgb(100%,0%,0%);fill-opacity:1;stroke-width:1;stroke-linecap:butt;stroke-linejoin:miter;stroke:rgb(0%,0%,0%);stroke-opacity:1;stroke-miterlimit:10;" d="M 30 121.25 C 30 126.773438 25.523438 131.25 20 131.25 C 14.476562 131.25 10 126.773438 10 121.25 C 10 115.726562 14.476562 111.25 20 111.25 C 25.523438 111.25 30 115.726562 30 121.25 "/>
<path style="fill-rule:nonzero;fill:rgb(100%,0%,0%);fill-opacity:1;stroke-width:1;stroke-linecap:butt;stroke-linejoin:miter;stroke:rgb(0%,0%,0%);stroke-opacity:1;stroke-miterlimit:10;" d="M 32.464844 137.042969 C 32.464844 142.566406 27.988281 147.042969 22.464844 147.042969 C 16.941406 147.042969 12.464844 142.566406 12.464844 137.042969 C 12.464844 131.519531 16.941406 127.042969 22.464844 127.042969 C 27.988281 127.042969 32.464844 131.519531 32.464844 137.042969 "/>
<path style="fill-rule:nonzero;fill:rgb(100%,0%,0%);fill-opacity:1;stroke-width:1;stroke-linecap:butt;stroke-linejoin:miter;stroke:rgb(0%,0%,0%);stroke-opacity:1;stroke-miterlimit:10;" d="M 35.335938 68.980469 C 35.335938 74.503906 30.859375 78.980469 25.335938 78.980469 C 19.8125 78.980469 15.335938 74.503906 15.335938 68.980469 C 15.335938 63.457031 19.8125 58.980469 25.335938 58.980469 C 30.859375 58.980469 35.335938 63.457031 35.335938 68.980469 "/>
<path style="fill-rule:nonzero;fill:rgb(100%,0%,0%);fill-opacity:1;stroke-width:1;stroke-linecap:butt;stroke-linejoin:miter;stroke:rgb(0%,0%,0%);stroke-opacity:1;stroke-miterlimit:10;" d="M 35.933594 38.199219 C 35.933594 43.722656 31.457031 48.199219 25.933594 48.199219 C 20.410156 48.199219 15.933594 43.722656 15.933594 38.199219 C 15.933594 32.679688 20.410156 28.199219 25.933594 28.199219 C 31.457031 28.199219 35.933594 32.679688 35.933594 38.199219 "/>
<path style="fill-rule:nonzero;fill:rgb(100%,0%,0%);fill-opacity:1;stroke-width:1;stroke-linecap:butt;stroke-linejoin:miter;stroke:rgb(0%,0%,0%);stroke-opacity:1;stroke-miterlimit:10;" d="M 60.734375 20 C 60.734375 25.523438 56.257812 30 50.734375 30 C 45.210938 30 40.734375 25.523438 40.734375 20 C 40.734375 14.476562 45.210938 10 50.734375 10 C 56.257812 10 60.734375 14.476562 60.734375 20 "/>
<path style="fill-rule:nonzero;fill:rgb(100%,0%,0%);fill-opacity:1;stroke-width:1;stroke-linecap:butt;stroke-linejoin:miter;stroke:rgb(0%,0%,0%);stroke-opacity:1;stroke-miterlimit:10;" d="M 64.839844 40.644531 C 64.839844 46.167969 60.363281 50.644531 54.839844 50.644531 C 49.316406 50.644531 44.839844 46.167969 44.839844 40.644531 C 44.839844 35.121094 49.316406 30.644531 54.839844 30.644531 C 60.363281 30.644531 64.839844 35.121094 64.839844 40.644531 "/>
<path style="fill-rule:nonzero;fill:rgb(100%,0%,0%);fill-opacity:1;stroke-width:1;stroke-linecap:butt;stroke-linejoin:miter;stroke:rgb(0%,0%,0%);stroke-opacity:1;stroke-miterlimit:10;" d="M 75.078125 97.988281 C 75.078125 103.511719 70.601562 107.988281 65.078125 107.988281 C 59.554688 107.988281 55.078125 103.511719 55.078125 97.988281 C 55.078125 92.464844 59.554688 87.988281 65.078125 87.988281 C 70.601562 87.988281 75.078125 92.464844 75.078125 97.988281 "/>
<path style="fill-rule:nonzero;fill:rgb(100%,0%,0%);fill-opacity:1;stroke-width:1;stroke-linecap:butt;stroke-linejoin:miter;stroke:rgb(0%,0%,0%);stroke-opacity:1;stroke-miterlimit:10;" d="M 76.398438 115.792969 C 76.398438 121.3125 71.921875 125.792969 66.398438 125.792969 C 60.875 125.792969 56.398438 121.3125 56.398438 115.792969 C 56.398438 110.269531 60.875 105.792969 66.398438 105.792969 C 71.921875 105.792969 76.398438 110.269531 76.398438 115.792969 "/>
<path style="fill-rule:nonzero;fill:rgb(100%,0%,0%);fill-opacity:1;stroke-width:1;stroke-linecap:butt;stroke-linejoin:miter;stroke:rgb(0%,0%,0%);stroke-opacity:1;stroke-miterlimit:10;" d="M 98.625 180 C 98.625 185.523438 94.148438 190 88.625 190 C 83.101562 190 78.625 185.523438 78.625 180 C 78.625 174.476562 83.101562 170 88.625 170 C 94.148438 170 98.625 174.476562 98.625 180 "/>
<path style="fill-rule:nonzero;fill:rgb(100%,0%,0%);fill-opacity:1;stroke-width:1;stroke-linecap:butt;stroke-linejoin:miter;stroke:rgb(0%,0%,0%);stroke-opacity:1;stroke-miterlimit:10;" d="M 99.082031 146.414062 C 99.082031 151.9375 94.605469 156.414062 89.082031 156.414062 C 83.5625 156.414062 79.082031 151.9375 79.082031 146.414062 C 79.082031 140.894531 83.5625 136.414062 89.082031 136.414062 C 94.605469 136.414062 99.082031 140.894531 99.082031 146.414062 "/>
<path style="fill-rule:nonzero;fill:rgb(100%,0%,0%);fill-opacity:1;stroke-width:1;stroke-linecap:butt;stroke-linejoin:miter;stroke:rgb(0%,0%,0%);stroke-opacity:1;stroke-miterlimit:10;" d="M 112.402344 27.5625 C 112.402344 33.085938 107.925781 37.5625 102.402344 37.5625 C 96.878906 37.5625 92.402344 33.085938 92.402344 27.5625 C 92.402344 22.039062 96.878906 17.5625 102.402344 17.5625 C 107.925781 17.5625 112.402344 22.039062 112.402344 27.5625 "/>
<path style="fill-rule:nonzero;fill:rgb(100%,0%,0%);fill-opacity:1;stroke-width:1;stroke-linecap:butt;stroke-linejoin:miter;stroke:rgb(0%,0%,0%);stroke-opacity:1;stroke-miterlimit:10;" d="M 114.050781 32.96875 C 114.050781 38.488281 109.574219 42.96875 104.050781 42.96875 C 98.527344 42.96875 94.050781 38.488281 94.050781 32.96875 C 94.050781 27.445312 98.527344 22.96875 104.050781 22.96875 C 109.574219 22.96875 114.050781 27.445312 114.050781 32.96875 "/>
<path style="fill-rule:nonzero;fill:rgb(100%,0%,0%);fill-opacity:1;stroke-width:1;stroke-linecap:butt;stroke-linejoin:miter;stroke:rgb(0%,0%,0%);stroke-opacity:1;stroke-miterlimit:10;" d="M 129.496094 158.914062 C 129.496094 164.4375 125.019531 168.914062 119.496094 168.914062 C 113.972656 168.914062 109.496094 164.4375 109.496094 158.914062 C 109.496094 153.390625 113.972656 148.914062 119.496094 148.914062 C 125.019531 148.914062 129.496094 153.390625 129.496094 158.914062 "/>
<path style="fill-rule:nonzero;fill:rgb(100%,0%,0%);fill-opacity:1;stroke-width:1;stroke-linecap:butt;stroke-linejoin:miter;stroke:rgb(0%,0%,0%);stroke-opacity:1;stroke-miterlimit:10;" d="M 129.859375 108.402344 C 129.859375 113.925781 125.382812 118.402344 119.859375 118.402344 C 114.335938 118.402344 109.859375 113.925781 109.859375 108.402344 C 109.859375 102.878906 114.335938 98.402344 119.859375 98.402344 C 125.382812 98.402344 129.859375 102.878906 129.859375 108.402344 "/>
<path style="fill-rule:nonzero;fill:rgb(100%,0%,0%);fill-opacity:1;stroke-width:1;stroke-linecap:butt;stroke-linejoin:miter;stroke:rgb(0%,0%,0%);stroke-opacity:1;stroke-miterlimit:10;" d="M 135.671875 67.273438 C 135.671875 72.796875 131.195312 77.273438 125.671875 77.273438 C 120.148438 77.273438 115.671875 72.796875 115.671875 67.273438 C 115.671875 61.753906 120.148438 57.273438 125.671875 57.273438 C 131.195312 57.273438 135.671875 61.753906 135.671875 67.273438 "/>
<path style="fill-rule:nonzero;fill:rgb(100%,0%,0%);fill-opacity:1;stroke-width:1;stroke-linecap:butt;stroke-linejoin:miter;stroke:rgb(0%,0%,0%);stroke-opacity:1;stroke-miterlimit:10;" d="M 137.296875 131.894531 C 137.296875 137.417969 132.820312 141.894531 127.296875 141.894531 C 121.777344 141.894531 117.296875 137.417969 117.296875 131.894531 C 117.296875 126.371094 121.777344 121.894531 127.296875 121.894531 C 132.820312 121.894531 137.296875 126.371094 137.296875 131.894531 "/>
<path style="fill-rule:nonzero;fill:rgb(100%,0%,0%);fill-opacity:1;stroke-width:1;stroke-linecap:butt;stroke-linejoin:miter;stroke:rgb(0%,0%,0%);stroke-opacity:1;stroke-miterlimit:10;" d="M 146.757812 171.484375 C 146.757812 177.007812 142.28125 181.484375 136.757812 181.484375 C 131.234375 181.484375 126.757812 177.007812 126.757812 171.484375 C 126.757812 165.960938 131.234375 161.484375 136.757812 161.484375 C 142.28125 161.484375 146.757812 165.960938 146.757812 171.484375 "/>
<path style="fill-rule:nonzero;fill:rgb(100%,0%,0%);fill-opacity:1;stroke-width:1;stroke-linecap:butt;stroke-linejoin:miter;stroke:rgb(0%,0%,0%);stroke-opacity:1;stroke-miterlimit:10;" d="M 177.609375 30.070312 C 177.609375 35.59375 173.132812 40.070312 167.609375 40.070312 C 162.085938 40.070312 157.609375 35.59375 157.609375 30.070312 C 157.609375 24.546875 162.085938 20.070312 167.609375 20.070312 C 173.132812 20.070312 177.609375 24.546875 177.609375 30.070312 "/>
<path style="fill-rule:nonzero;fill:rgb(100%,0%,0%);fill-opacity:1;stroke-width:1;stroke-linecap:butt;stroke-linejoin:miter;stroke:rgb(0%,0%,0%);stroke-opacity:1;stroke-miterlimit:10;" d="M 182.421875 28.289062 C 182.421875 33.8125 177.945312 38.289062 172.421875 38.289062 C 166.898438 38.289062 162.421875 33.8125 162.421875 28.289062 C 162.421875 22.765625 166.898438 18.289062 172.421875 18.289062 C 177.945312 18.289062 182.421875 22.765625 182.421875 28.289062 "/>
<path style="fill-rule:nonzero;fill:rgb(100%,0%,0%);fill-opacity:1;stroke-width:1;stroke-linecap:butt;stroke-linejoin:miter;stroke:rgb(0%,0%,0%);stroke-opacity:1;stroke-miterlimit:10;" d="M 190 126.445312 C 190 131.96875 185.523438 136.445312 180 136.445312 C 174.476562 136.445312 170 131.96875 170 126.445312 C 170 120.921875 174.476562 116.445312 180 116.445312 C 185.523438 116.445312 190 120.921875 190 126.445312 "/>
</g>
</svg>
