<?xml version="1.0" encoding="UTF-8"?>
<svg xmlns="http://www.w3.org/2000/svg" xmlns:xlink="http://www.w3.org/1999/xlink" width="200pt" height="200pt" viewBox="0 0 200 200" version="1.1">
<g id="surface14">
<rect x="0" y="0" width="200" height="200" style="fill:rgb(100%,100%,100%);fill-opacity:1;stroke:none;"/>
<path style="fill:none;stroke-width:1;stroke-linecap:butt;stroke-linejoin:miter;stroke:rgb(26.666667%,26.666667%,26.666667%);stroke-opacity:1;stroke-miterlimit:10;" d="M 159.261719 54.300781 L 118.15625 53.34375 "/>
<path style="fill:none;stroke-width:1;stroke-linecap:butt;stroke-linejoin:miter;stroke:rgb(26.666667%,26.666667%,26.666667%);stroke-opacity:1;stroke-miterlimit:10;" d="M 118.15625 53.34375 L 135.976562 65.707031 "/>
<path style="fill:none;stroke-width:1;stroke-linecap:butt;stroke-linejoin:miter;stroke:rgb(26.666667%,26.666667%,26.666667%);stroke-opacity:1;stroke-miterlimit:10;" d="M 135.976562 65.707031 L 112 93.566406 "/>
<path style="fill:none;stroke-width:1;stroke-linecap:butt;stroke-linejoin:miter;stroke:rgb(26.666667%,26.666667%,26.666667%);stroke-opacity:1;stroke-miterlimit:10;" d="M 98.941406 115.960938 L 112 93.566406 "/>
<path style="fill:none;stroke-width:1;stroke-linecap:butt;stroke-linejoin:miter;stroke:rgb(26.666667%,26.666667%,26.666667%);stroke-opacity:1;stroke-miterlimit:10;" d="M 159.261719 54.300781 L 139.878906 97.011719 "/>
<path style="fill:none;stroke-width:1;stroke-linecap:butt;stroke-linejoin:miter;stroke:rgb(26.666667%,26.666667%,26.666667%);stroke-opacity:1;stroke-miterlimit:10;" d="M 135.976562 65.707031 L 139.878906 97.011719 "/>
<path style="fill:none;stroke-width:1;stroke-linecap:butt;stroke-linejoin:miter;stroke:rgb(26.666667%,26.666667%,26.666667%);stroke-opacity:1;stroke-miterlimit:10;" d="M 98.941406 115.960938 L 139.878906 97.011719 "/>
<path style="fill:none;stroke-width:1;stroke-linecap:butt;stroke-linejoin:miter;stroke:rgb(26.666667%,26.666667%,26.666667%);stroke-opacity:1;stroke-miterlimit:10;" d="M 112 93.566406 L 139.878906 97.011719 "/>
<path style="fill:none;stroke-width:1;stroke-linecap:butt;stroke-linejoin:miter;stroke:rgb(26.666667%,26.666667%,26.666667%);stroke-opacity:1;stroke-miterlimit:10;" d="M 118.15625 53.34375 L 73.832031 60.863281 "/>
<path style="fill:none;stroke-width:1;stroke-linecap:butt;stroke-linejoin:miter;stroke:rgb(26.666667%,26.666667%,26.666667%);stroke-opacity:1;stroke-miterlimit:10;" d="M 112 93.566406 L 73.832031 60.863281 "/>
<path style="fill:none;stroke-width:1;stroke-linecap:butt;stroke-linejoin:miter;stroke:rgb(26.666667%,26.666667%,26.666667%);stroke-opacity:1;stroke-miterlimit:10;" d="M 135.976562 65.707031 L 98.054688 44.980469 "/>
<path style="fill:none;stroke-width:1;stroke-linecap:butt;stroke-linejoin:miter;stroke:rgb(26.666667%,26.666667%,26.666667%);stroke-opacity:1;stroke-miterlimit:10;" d="M 73.832031 60.863281 L 98.054688 44.980469 "/>
<path style="fill:none;stroke-width:1;stroke-linecap:butt;stroke-linejoin:miter;stroke:rgb(26.666667%,26.666667%,26.666667%);stroke-opacity:1;stroke-miterlimit:10;" d="M 118.15625 53.34375 L 90.65625 74.738281 "/>
<path style="fill:none;stroke-width:1;stroke-linecap:butt;stroke-linejoin:miter;stroke:rgb(26.666667%,26.666667%,26.666667%);stroke-opacity:1;stroke-miterlimit:10;" d="M 112 93.566406 L 90.65625 74.738281 "/>
<path style="fill:none;stroke-width:1;stroke-linecap:butt;stroke-linejoin:miter;stroke:rgb(26.666667%,26.666667%,26.666667%);stroke-opacity:1;stroke-miterlimit:10;" d="M 98.054688 44.980469 L 90.65625 74.738281 "/>
<path style="fill:none;stroke-width:1;stroke-linecap:butt;stroke-linejoin:miter;stroke:rgb(26.666667%,26.666667%,26.666667%);stroke-opacity:1;stroke-miterlimit:10;" d="M 98.941406 115.960938 L 75.742188 99.09375 "/>
<path style="fill:none;stroke-width:1;stroke-linecap:butt;stroke-linejoin:miter;stroke:rgb(26.666667%,26.666667%,26.666667%);stroke-opacity:1;stroke-miterlimit:10;" d="M 73.832031 60.863281 L 75.742188 99.09375 "/>
<path style="fill:none;stroke-width:1;stroke-linecap:butt;stroke-linejoin:miter;stroke:rgb(26.666667%,26.666667%,26.666667%);stroke-opacity:1;stroke-miterlimit:10;" d="M 90.65625 74.738281 L 75.742188 99.09375 "/>
<path style="fill:none;stroke-width:1;stroke-linecap:butt;stroke-linejoin:miter;stroke:rgb(26.666667%,26.666667%,26.666667%);stroke-opacity:1;stroke-miterlimit:10;" d="M 73.832031 60.863281 L 71.320312 21.792969 "/>
<path style="fill:none;stroke-width:1;stroke-linecap:butt;stroke-linejoin:miter;stroke:rgb(26.666667%,26.666667%,26.666667%);stroke-opacity:1;stroke-miterlimit:10;" d="M 98.941406 115.960938 L 56.964844 118.597656 "/>
<path style="fill:none;stroke-width:1;stroke-linecap:butt;stroke-linejoin:miter;stroke:rgb(26.666667%,26.666667%,26.666667%);stroke-opacity:1;stroke-miterlimit:10;" d="M 75.742188 99.09375 L 56.964844 118.597656 "/>
<path style="fill:none;stroke-width:1;stroke-linecap:butt;stroke-linejoin:miter;stroke:rgb(26.666667%,26.666667%,26.666667%);stroke-opacity:1;stroke-miterlimit:10;" d="M 118.15625 53.34375 L 104.535156 76.902344 "/>
<path style="fill:none;stroke-width:1;stroke-linecap:butt;stroke-linejoin:miter;stroke:rgb(26.666667%,26.666667%,26.666667%);stroke-opacity:1;stroke-miterlimit:10;" d="M 98.941406 115.960938 L 104.535156 76.902344 "/>
<path style="fill:none;stroke-width:1;stroke-linecap:butt;stroke-linejoin:miter;stroke:rgb(26.666667%,26.666667%,26.666667%);stroke-opacity:1;stroke-miterlimit:10;" d="M 90.65625 74.738281 L 104.535156 76.902344 "/>
<path style="fill:none;stroke-width:1;stroke-linecap:butt;stroke-linejoin:miter;stroke:rgb(26.666667%,26.666667%,26.666667%);stroke-opacity:1;stroke-miterlimit:10;" d="M 75.742188 99.09375 L 104.535156 76.902344 "/>
<path style="fill:none;stroke-width:1;stroke-linecap:butt;stroke-linejoin:miter;stroke:rgb(26.666667%,26.666667%,26.666667%);stroke-opacity:1;stroke-miterlimit:10;" d="M 135.976562 65.707031 L 175.148438 85.273438 "/>
<path style="fill:none;stroke-width:1;stroke-linecap:butt;stroke-linejoin:miter;stroke:rgb(26.666667%,26.666667%,26.666667%);stroke-opacity:1;stroke-miterlimit:10;" d="M 73.832031 60.863281 L 41.929688 41.976562 "/>
<path style="fill:none;stroke-width:1;stroke-linecap:butt;stroke-linejoin:miter;stroke:rgb(26.666667%,26.666667%,26.666667%);stroke-opacity:1;stroke-miterlimit:10;" d="M 71.320312 21.792969 L 41.929688 41.976562 "/>
<path style="fill:none;stroke-width:1;stroke-linecap:butt;stroke-linejoin:miter;stroke:rgb(26.666667%,26.666667%,26.666667%);stroke-opacity:1;stroke-miterlimit:10;" d="M 41.929688 41.976562 L 20 20 "/>
<path style="fill:none;stroke-width:1;stroke-linecap:butt;stroke-linejoin:miter;stroke:rgb(26.666667%,26.666667%,26.666667%);stroke-opacity:1;stroke-miterlimit:10;" d="M 118.15625 53.34375 L 111.902344 30.59375 "/>
<path style="fill:none;stroke-width:1;stroke-linecap:butt;stroke-linejoin:miter;stroke:rgb(26.666667%,26.666667%,26.666667%);stroke-opacity:1;stroke-miterlimit:10;" d="M 135.976562 65.707031 L 111.902344 30.59375 "/>
<path style="fill:none;stroke-width:1;stroke-linecap:butt;stroke-linejoin:miter;stroke:rgb(26.666667%,26.666667%,26.666667%);stroke-opacity:1;stroke-miterlimit:10;" d="M 71.320312 21.792969 L 111.902344 30.59375 "/>
<path style="fill:none;stroke-width:1;stroke-linecap:butt;stroke-linejoin:miter;stroke:rgb(26.666667%,26.666667%,26.666667%);stroke-opacity:1;stroke-miterlimit:10;" d="M 104.535156 76.902344 L 111.902344 30.59375 "/>
<path style="fill:none;stroke-width:1;stroke-linecap:butt;stroke-linejoin:miter;stroke:rgb(26.666667%,26.666667%,26.666667%);stroke-opacity:1;stroke-miterlimit:10;" d="M 159.261719 54.300781 L 180 26.054688 "/>
<path style="fill:none;stroke-width:1;stroke-linecap:butt;stroke-linejoin:miter;stroke:rgb(26.666667%,26.666667%,26.666667%);stroke-opacity:1;stroke-miterlimit:10;" d="M 73.832031 60.863281 L 39.777344 80.535156 "/>
<path style="fill:none;stroke-width:1;stroke-linecap:butt;stroke-linejoin:miter;stroke:rgb(26.666667%,26.666667%,26.666667%);stroke-opacity:1;stroke-miterlimit:10;" d="M 56.964844 118.597656 L 39.777344 80.535156 "/>
<path style="fill:none;stroke-width:1;stroke-linecap:butt;stroke-linejoin:miter;stroke:rgb(26.666667%,26.666667%,26.666667%);stroke-opacity:1;stroke-miterlimit:10;" d="M 41.929688 41.976562 L 39.777344 80.535156 "/>
<path style="fill-rule:nonzero;fill:rgb(100%,0%,0%);fill-opacity:1;stroke-width:1;stroke-linecap:butt;stroke-linejoin:miter;stroke:rgb(0%,0%,0%);stroke-opacity:1;stroke-miterlimit:10;" d="M 169.261719 54.300781 C 169.261719 59.824219 164.785156 64.300781 159.261719 64.300781 C 153.738281 64.300781 149.261719 59.824219 149.261719 54.300781 C 149.261719 48.78125 153.738281 44.300781 159.261719 44.300781 C 164.785156 44.300781 169.261719 48.78125 169.261719 54.300781 "/>
<path style="fill-rule:nonzero;fill:rgb(100%,0%,0%);fill-opacity:1;stroke-width:1;stroke-linecap:butt;stroke-linejoin:miter;stroke:rgb(0%,0%,0%);stroke-opacity:1;stroke-miterlimit:10;" d="M 128.15625 53.34375 C 128.15625 58.867188 123.679688 63.34375 118.15625 63.34375 C 112.632812 63.34375 108.15625 58.867188 108.15625 53.34375 C 108.15625 47.820312 112.632812 43.34375 118.15625 43.34375 C 123.679688 43.34375 128.15625 47.820312 128.15625 53.34375 "/>
<path style="fill-rule:nonzero;fill:rgb(100%,0%,0%);fill-opacity:1;stroke-width:1;stroke-linecap:butt;stroke-linejoin:miter;stroke:rgb(0%,0%,0%);stroke-opacity:1;stroke-miterlimit:10;" d="M 145.976562 65.707031 C 145.976562 71.230469 141.5 75.707031 135.976562 75.707031 C 130.453125 75.707031 125.976562 71.230469 125.976562 65.707031 C 125.976562 60.183594 130.453125 55.707031 135.976562 55.707031 C 141.5 55.707031 145.976562 60.183594 145.976562 65.707031 "/>
<path style="fill-rule:nonzero;fill:rgb(100%,0%,0%);fill-opacity:1;stroke-width:1;stroke-linecap:butt;stroke-linejoin:miter;stroke:rgb(0%,0%,0%);stroke-opacity:1;stroke-miterlimit:10;" d="M 108.941406 115.960938 C 108.941406 121.480469 104.460938 125.960938 98.941406 125.960938 C 93.417969 125.960938 88.941406 121.480469 88.941406 115.960938 C 88.941406 110.4375 93.417969 105.960938 98.941406 105.960938 C 104.460938 105.960938 108.941406 110.4375 108.941406 115.960938 "/>
<path style="fill-rule:nonzero;fill:rgb(100%,0%,0%);fill-opacity:1;stroke-width:1;stroke-linecap:butt;stroke-linejoin:miter;stroke:rgb(0%,0%,0%);stroke-opacity:1;stroke-miterlimit:10;" d="M 122 93.566406 C 122 99.089844 117.523438 103.566406 112 103.566406 C 106.476562 103.566406 102 99.089844 102 93.566406 C 102 88.042969 106.476562 83.566406 112 83.566406 C 117.523438 83.566406 122 88.042969 122 93.566406 "/>
<path style="fill-rule:nonzero;fill:rgb(100%,0%,0%);fill-opacity:1;stroke-width:1;stroke-linecap:butt;stroke-linejoin:miter;stroke:rgb(0%,0%,0%);stroke-opacity:1;stroke-miterlimit:10;" d="M 149.878906 97.011719 C 149.878906 102.53125 145.402344 107.011719 139.878906 107.011719 C 134.355469 107.011719 129.878906 102.53125 129.878906 97.011719 C 129.878906 91.488281 134.355469 87.011719 139.878906 87.011719 C 145.402344 87.011719 149.878906 91.488281 149.878906 97.011719 "/>
<path style="fill-rule:nonzero;fill:rgb(100%,0%,0%);fill-opacity:1;stroke-width:1;stroke-linecap:butt;stroke-linejoin:miter;stroke:rgb(0%,0%,0%);stroke-opacity:1;stroke-miterlimit:10;" d="M 83.832031 60.863281 C 83.832031 66.386719 79.355469 70.863281 73.832031 70.863281 C 68.308594 70.863281 63.832031 66.386719 63.832031 60.863281 C 63.832031 55.339844 68.308594 50.863281 73.832031 50.863281 C 79.355469 50.863281 83.832031 55.339844 83.832031 60.863281 "/>
<path style="fill-rule:nonzero;fill:rgb(100%,0%,0%);fill-opacity:1;stroke-width:1;stroke-linecap:butt;stroke-linejoin:miter;stroke:rgb(0%,0%,0%);stroke-opacity:1;stroke-miterlimit:10;" d="M 108.054688 44.980469 C 108.054688 50.503906 103.578125 54.980469 98.054688 54.980469 C 92.53125 54.980469 88.054688 50.503906 88.054688 44.980469 C 88.054688 39.457031 92.53125 34.980469 98.054688 34.980469 C 103.578125 34.980469 108.054688 39.457031 108.054688 44.980469 "/>
<path style="fill-rule:nonzero;fill:rgb(100%,0%,0%);fill-opacity:1;stroke-width:1;stroke-linecap:butt;stroke-linejoin:miter;stroke:rgb(0%,0%,0%);stroke-opacity:1;stroke-miterlimit:10;" d="M 100.65625 74.738281 C 100.65625 80.261719 96.179688 84.738281 90.65625 84.738281 C 85.132812 84.738281 80.65625 80.261719 80.65625 74.738281 C 80.65625 69.214844 85.132812 64.738281 90.65625 64.738281 C 96.179688 64.738281 100.65625 69.214844 100.65625 74.738281 "/>
<path style="fill-rule:nonzero;fill:rgb(100%,0%,0%);fill-opacity:1;stroke-width:1;stroke-linecap:butt;stroke-linejoin:miter;stroke:rgb(0%,0%,0%);stroke-opacity:1;stroke-miterlimit:10;" d="M 85.742188 99.09375 C 85.742188 104.617188 81.265625 109.09375 75.742188 109.09375 C 70.222656 109.09375 65.742188 104.617188 65.742188 99.09375 C 65.742188 93.570312 70.222656 89.09375 75.742188 89.09375 C 81.265625 89.09375 85.742188 93.570312 85.742188 99.09375 "/>
<path style="fill-rule:nonzero;fill:rgb(100%,0%,0%);fill-opacity:1;stroke-width:1;stroke-linecap:butt;stroke-linejoin:miter;stroke:rgb(0%,0%,0%);stroke-opacity:1;stroke-miterlimit:10;" d="M 81.320312 21.792969 C 81.320312 27.316406 76.84375 31.792969 71.320312 31.792969 C 65.796875 31.792969 61.320312 27.316406 61.320312 21.792969 C 61.320312 16.273438 65.796875 11.792969 71.320312 11.792969 C 76.84375 11.792969 81.320312 16.273438 81.320312 21.792969 "/>
<path style="fill-rule:nonzero;fill:rgb(100%,0%,0%);fill-opacity:1;stroke-width:1;stroke-linecap:butt;stroke-linejoin:miter;stroke:rgb(0%,0%,0%);stroke-opacity:1;stroke-miterlimit:10;" d="M 66.964844 118.597656 C 66.964844 124.121094 62.488281 128.597656 56.964844 128.597656 C 51.441406 128.597656 46.964844 124.121094 46.964844 118.597656 C 46.964844 113.074219 51.441406 108.597656 56.964844 108.597656 C 62.488281 108.597656 66.964844 113.074219 66.964844 118.597656 "/>
<path style="fill-rule:nonzero;fill:rgb(100%,0%,0%);fill-opacity:1;stroke-width:1;stroke-linecap:butt;stroke-linejoin:miter;stroke:rgb(0%,0%,0%);stroke-opacity:1;stroke-miterlimit:10;" d="M 114.535156 76.902344 C 114.535156 82.425781 110.058594 86.902344 104.535156 86.902344 C 99.011719 86.902344 94.535156 82.425781 94.535156 76.902344 C 94.535156 71.378906 99.011719 66.902344 104.535156 66.902344 C 110.058594 66.902344 114.535156 71.378906 114.535156 76.902344 "/>
<path style="fill-rule:nonzero;fill:rgb(100%,0%,0%);fill-opacity:1;stroke-width:1;stroke-linecap:butt;stroke-linejoin:miter;stroke:rgb(0%,0%,0%);stroke-opacity:1;stroke-miterlimit:10;" d="M 185.148438 85.273438 C 185.148438 90.796875 180.671875 95.273438 175.148438 95.273438 C 169.625 95.273438 165.148438 90.796875 165.148438 85.273438 C 165.148438 79.75 169.625 75.273438 175.148438 75.273438 C 180.671875 75.273438 185.148438 79.75 185.148438 85.273438 "/>
<path style="fill-rule:nonzero;fill:rgb(100%,0%,0%);fill-opacity:1;stroke-width:1;stroke-linecap:butt;stroke-linejoin:miter;stroke:rgb(0%,0%,0%);stroke-opacity:1;stroke-miterlimit:10;" d="M 51.929688 41.976562 C 51.929688 47.5 47.453125 51.976562 41.929688 51.976562 C 36.410156 51.976562 31.929688 47.5 31.929688 41.976562 C 31.929688 36.453125 36.410156 31.976562 41.929688 31.976562 C 47.453125 31.976562 51.929688 36.453125 51.929688 41.976562 "/>
<path style="fill-rule:nonzero;fill:rgb(100%,0%,0%);fill-opacity:1;stroke-width:1;stroke-linecap:butt;stroke-linejoin:miter;stroke:rgb(0%,0%,0%);stroke-opacity:1;stroke-miterlimit:10;" d="M 30 20 C 30 25.523438 25.523438 30 20 30 C 14.476562 30 10 25.523438 10 20 C 10 14.476562 14.476562 10 20 10 C 25.523438 10 30 14.476562 30 20 "/>
<path style="fill-rule:nonzero;fill:rgb(100%,0%,0%);fill-opacity:1;stroke-width:1;stroke-linecap:butt;stroke-linejoin:miter;stroke:rgb(0%,0%,0%);stroke-opacity:1;stroke-miterlimit:10;" d="M 121.902344 30.59375 C 121.902344 36.117188 117.425781 40.59375 111.902344 40.59375 C 106.378906 40.59375 101.902344 36.117188 101.902344 30.59375 C 101.902344 25.070312 106.378906 20.59375 111.902344 20.59375 C 117.425781 20.59375 121.902344 25.070312 121.902344 30.59375 "/>
<path style="fill-rule:nonzero;fill:rgb(100%,0%,0%);fill-opacity:1;stroke-width:1;stroke-linecap:butt;stroke-linejoin:miter;stroke:rgb(0%,0%,0%);stroke-opacity:1;stroke-miterlimit:10;" d="M 123.140625 180 C 123.140625 185.523438 118.664062 190 113.140625 190 C 107.617188 190 103.140625 185.523438 103.140625 180 C 103.140625 174.476562 107.617188 170 113.140625 170 C 118.664062 170 123.140625 174.476562 123.140625 180 "/>
<path style="fill-rule:nonzero;fill:rgb(100%,0%,0%);fill-opacity:1;stroke-width:1;stroke-linecap:butt;stroke-linejoin:miter;stroke:rgb(0%,0%,0%);stroke-opacity:1;stroke-miterlimit:10;" d="M 190 26.054688 C 190 31.578125 185.523438 36.054688 180 36.054688 C 174.476562 36.054688 170 31.578125 170 26.054688 C 170 20.535156 174.476562 16.054688 180 16.054688 C 185.523438 16.054688 190 20.535156 190 26.054688 "/>
<path style="fill-rule:nonzero;fill:rgb(100%,0%,0%);fill-opacity:1;stroke-width:1;stroke-linecap:butt;stroke-linejoin:miter;stroke:rgb(0%,0%,0%);stroke-opacity:1;stroke-miterlimit:10;" d="M 49.777344 80.535156 C 49.777344 86.054688 45.300781 90.535156 39.777344 90.535156 C 34.257812 90.535156 29.777344 86.054688 29.777344 80.535156 C 29.777344 75.011719 34.257812 70.535156 39.777344 70.535156 C 45.300781 70.535156 49.777344 75.011719 49.777344 80.535156 "/>
</g>
</svg>
