<?xml version="1.0" encoding="UTF-8"?>
<svg xmlns="http://www.w3.org/2000/svg" xmlns:xlink="http://www.w3.org/1999/xlink" width="200pt" height="200pt" viewBox="0 0 200 200" version="1.1">
<g id="surface8">
<rect x="0" y="0" width="200" height="200" style="fill:rgb(100%,100%,100%);fill-opacity:1;stroke:none;"/>
<path style="fill:none;stroke-width:1;stroke-linecap:butt;stroke-linejoin:miter;stroke:rgb(26.666667%,26.666667%,26.666667%);stroke-opacity:1;stroke-miterlimit:10;" d="M 20 43.199219 L 42.375 20 "/>
<path style="fill:none;stroke-width:1;stroke-linecap:butt;stroke-linejoin:miter;stroke:rgb(26.666667%,26.666667%,26.666667%);stroke-opacity:1;stroke-miterlimit:10;" d="M 20 43.199219 L 58.230469 38.742188 "/>
<path style="fill:none;stroke-width:1;stroke-linecap:butt;stroke-linejoin:miter;stroke:rgb(26.666667%,26.666667%,26.666667%);stroke-opacity:1;stroke-miterlimit:10;" d="M 20 43.199219 L 63.101562 54.183594 "/>
<path style="fill:none;stroke-width:1;stroke-linecap:butt;stroke-linejoin:miter;stroke:rgb(26.666667%,26.666667%,26.666667%);stroke-opacity:1;stroke-miterlimit:10;" d="M 42.375 20 L 58.230469 38.742188 "/>
<path style="fill:none;stroke-width:1;stroke-linecap:butt;stroke-linejoin:miter;stroke:rgb(26.666667%,26.666667%,26.666667%);stroke-opacity:1;stroke-miterlimit:10;" d="M 42.375 20 L 63.101562 54.183594 "/>
<path style="fill:none;stroke-width:1;stroke-linecap:butt;stroke-linejoin:miter;stroke:rgb(26.666667%,26.666667%,26.666667%);stroke-opacity:1;stroke-miterlimit:10;" d="M 42.375 20 L 87.4375 46.128906 "/>
<path style="fill:none;stroke-width:1;stroke-linecap:butt;stroke-linejoin:miter;stroke:rgb(26.666667%,26.666667%,26.666667%);stroke-opacity:1;stroke-miterlimit:10;" d="M 58.230469 38.742188 L 63.101562 54.183594 "/>
<path style="fill:none;stroke-width:1;stroke-linecap:butt;stroke-linejoin:miter;stroke:rgb(26.666667%,26.666667%,26.666667%);stroke-opacity:1;stroke-miterlimit:10;" d="M 58.230469 38.742188 L 84.746094 73.828125 "/>
<path style="fill:none;stroke-width:1;stroke-linecap:butt;stroke-linejoin:miter;stroke:rgb(26.666667%,26.666667%,26.666667%);stroke-opacity:1;stroke-miterlimit:10;" d="M 58.230469 38.742188 L 87.4375 46.128906 "/>
<path style="fill:none;stroke-width:1;stroke-linecap:butt;stroke-linejoin:miter;stroke:rgb(26.666667%,26.666667%,26.666667%);stroke-opacity:1;stroke-miterlimit:10;" d="M 58.230469 38.742188 L 98.683594 56.550781 "/>
<path style="fill:none;stroke-width:1;stroke-linecap:butt;stroke-linejoin:miter;stroke:rgb(26.666667%,26.666667%,26.666667%);stroke-opacity:1;stroke-miterlimit:10;" d="M 63.101562 54.183594 L 84.746094 73.828125 "/>
<path style="fill:none;stroke-width:1;stroke-linecap:butt;stroke-linejoin:miter;stroke:rgb(26.666667%,26.666667%,26.666667%);stroke-opacity:1;stroke-miterlimit:10;" d="M 63.101562 54.183594 L 87.4375 46.128906 "/>
<path style="fill:none;stroke-width:1;stroke-linecap:butt;stroke-linejoin:miter;stroke:rgb(26.666667%,26.666667%,26.666667%);stroke-opacity:1;stroke-miterlimit:10;" d="M 63.101562 54.183594 L 98.683594 56.550781 "/>
<path style="fill:none;stroke-width:1;stroke-linecap:butt;stroke-linejoin:miter;stroke:rgb(26.666667%,26.666667%,26.666667%);stroke-opacity:1;stroke-miterlimit:10;" d="M 84.746094 73.828125 L 87.4375 46.128906 "/>
<path style="fill:none;stroke-width:1;stroke-linecap:butt;stroke-linejoin:miter;stroke:rgb(26.666667%,26.666667%,26.666667%);stroke-opacity:1;stroke-miterlimit:10;" d="M 84.746094 73.828125 L 98.683594 56.550781 "/>
<path style="fill:none;stroke-width:1;stroke-linecap:butt;stroke-linejoin:miter;stroke:rgb(26.666667%,26.666667%,26.666667%);stroke-opacity:1;stroke-miterlimit:10;" d="M 87.4375 46.128906 L 98.683594 56.550781 "/>
<path style="fill:none;stroke-width:1;stroke-linecap:butt;stroke-linejoin:miter;stroke:rgb(26.666667%,26.666667%,26.666667%);stroke-opacity:1;stroke-miterlimit:10;" d="M 87.4375 46.128906 L 139.324219 47.136719 "/>
<path style="fill:none;stroke-width:1;stroke-linecap:butt;stroke-linejoin:miter;stroke:rgb(26.666667%,26.666667%,26.666667%);stroke-opacity:1;stroke-miterlimit:10;" d="M 90.660156 154.742188 L 91.296875 180 "/>
<path style="fill:none;stroke-width:1;stroke-linecap:butt;stroke-linejoin:miter;stroke:rgb(26.666667%,26.666667%,26.666667%);stroke-opacity:1;stroke-miterlimit:10;" d="M 90.660156 154.742188 L 108.011719 123.757812 "/>
<path style="fill:none;stroke-width:1;stroke-linecap:butt;stroke-linejoin:miter;stroke:rgb(26.666667%,26.666667%,26.666667%);stroke-opacity:1;stroke-miterlimit:10;" d="M 90.660156 154.742188 L 120.390625 123.578125 "/>
<path style="fill:none;stroke-width:1;stroke-linecap:butt;stroke-linejoin:miter;stroke:rgb(26.666667%,26.666667%,26.666667%);stroke-opacity:1;stroke-miterlimit:10;" d="M 90.660156 154.742188 L 134.886719 142.367188 "/>
<path style="fill:none;stroke-width:1;stroke-linecap:butt;stroke-linejoin:miter;stroke:rgb(26.666667%,26.666667%,26.666667%);stroke-opacity:1;stroke-miterlimit:10;" d="M 90.660156 154.742188 L 140.703125 140.246094 "/>
<path style="fill:none;stroke-width:1;stroke-linecap:butt;stroke-linejoin:miter;stroke:rgb(26.666667%,26.666667%,26.666667%);stroke-opacity:1;stroke-miterlimit:10;" d="M 98.683594 56.550781 L 139.324219 47.136719 "/>
<path style="fill:none;stroke-width:1;stroke-linecap:butt;stroke-linejoin:miter;stroke:rgb(26.666667%,26.666667%,26.666667%);stroke-opacity:1;stroke-miterlimit:10;" d="M 108.011719 123.757812 L 120.390625 123.578125 "/>
<path style="fill:none;stroke-width:1;stroke-linecap:butt;stroke-linejoin:miter;stroke:rgb(26.666667%,26.666667%,26.666667%);stroke-opacity:1;stroke-miterlimit:10;" d="M 108.011719 123.757812 L 134.886719 142.367188 "/>
<path style="fill:none;stroke-width:1;stroke-linecap:butt;stroke-linejoin:miter;stroke:rgb(26.666667%,26.666667%,26.666667%);stroke-opacity:1;stroke-miterlimit:10;" d="M 108.011719 123.757812 L 140.703125 140.246094 "/>
<path style="fill:none;stroke-width:1;stroke-linecap:butt;stroke-linejoin:miter;stroke:rgb(26.666667%,26.666667%,26.666667%);stroke-opacity:1;stroke-miterlimit:10;" d="M 108.011719 123.757812 L 142.789062 112.410156 "/>
<path style="fill:none;stroke-width:1;stroke-linecap:butt;stroke-linejoin:miter;stroke:rgb(26.666667%,26.666667%,26.666667%);stroke-opacity:1;stroke-miterlimit:10;" d="M 120.390625 123.578125 L 134.886719 142.367188 "/>
<path style="fill:none;stroke-width:1;stroke-linecap:butt;stroke-linejoin:miter;stroke:rgb(26.666667%,26.666667%,26.666667%);stroke-opacity:1;stroke-miterlimit:10;" d="M 120.390625 123.578125 L 140.703125 140.246094 "/>
<path style="fill:none;stroke-width:1;stroke-linecap:butt;stroke-linejoin:miter;stroke:rgb(26.666667%,26.666667%,26.666667%);stroke-opacity:1;stroke-miterlimit:10;" d="M 120.390625 123.578125 L 142.789062 112.410156 "/>
<path style="fill:none;stroke-width:1;stroke-linecap:butt;stroke-linejoin:miter;stroke:rgb(26.666667%,26.666667%,26.666667%);stroke-opacity:1;stroke-miterlimit:10;" d="M 134.886719 142.367188 L 140.703125 140.246094 "/>
<path style="fill:none;stroke-width:1;stroke-linecap:butt;stroke-linejoin:miter;stroke:rgb(26.666667%,26.666667%,26.666667%);stroke-opacity:1;stroke-miterlimit:10;" d="M 134.886719 142.367188 L 142.789062 112.410156 "/>
<path style="fill:none;stroke-width:1;stroke-linecap:butt;stroke-linejoin:miter;stroke:rgb(26.666667%,26.666667%,26.666667%);stroke-opacity:1;stroke-miterlimit:10;" d="M 134.886719 142.367188 L 175.027344 174.800781 "/>
<path style="fill:none;stroke-width:1;stroke-linecap:butt;stroke-linejoin:miter;stroke:rgb(26.666667%,26.666667%,26.666667%);stroke-opacity:1;stroke-miterlimit:10;" d="M 134.886719 142.367188 L 180 129.433594 "/>
<path style="fill:none;stroke-width:1;stroke-linecap:butt;stroke-linejoin:miter;stroke:rgb(26.666667%,26.666667%,26.666667%);stroke-opacity:1;stroke-miterlimit:10;" d="M 139.324219 47.136719 L 147.5625 30.480469 "/>
<path style="fill:none;stroke-width:1;stroke-linecap:butt;stroke-linejoin:miter;stroke:rgb(26.666667%,26.666667%,26.666667%);stroke-opacity:1;stroke-miterlimit:10;" d="M 139.324219 47.136719 L 158.695312 83.203125 "/>
<path style="fill:none;stroke-width:1;stroke-linecap:butt;stroke-linejoin:miter;stroke:rgb(26.666667%,26.666667%,26.666667%);stroke-opacity:1;stroke-miterlimit:10;" d="M 140.703125 140.246094 L 142.789062 112.410156 "/>
<path style="fill:none;stroke-width:1;stroke-linecap:butt;stroke-linejoin:miter;stroke:rgb(26.666667%,26.666667%,26.666667%);stroke-opacity:1;stroke-miterlimit:10;" d="M 140.703125 140.246094 L 175.027344 174.800781 "/>
<path style="fill:none;stroke-width:1;stroke-linecap:butt;stroke-linejoin:miter;stroke:rgb(26.666667%,26.666667%,26.666667%);stroke-opacity:1;stroke-miterlimit:10;" d="M 140.703125 140.246094 L 180 129.433594 "/>
<path style="fill:none;stroke-width:1;stroke-linecap:butt;stroke-linejoin:miter;stroke:rgb(26.666667%,26.666667%,26.666667%);stroke-opacity:1;stroke-miterlimit:10;" d="M 142.789062 112.410156 L 158.695312 83.203125 "/>
<path style="fill:none;stroke-width:1;stroke-linecap:butt;stroke-linejoin:miter;stroke:rgb(26.666667%,26.666667%,26.666667%);stroke-opacity:1;stroke-miterlimit:10;" d="M 142.789062 112.410156 L 179.066406 87.941406 "/>
<path style="fill:none;stroke-width:1;stroke-linecap:butt;stroke-linejoin:miter;stroke:rgb(26.666667%,26.666667%,26.666667%);stroke-opacity:1;stroke-miterlimit:10;" d="M 142.789062 112.410156 L 180 129.433594 "/>
<path style="fill:none;stroke-width:1;stroke-linecap:butt;stroke-linejoin:miter;stroke:rgb(26.666667%,26.666667%,26.666667%);stroke-opacity:1;stroke-miterlimit:10;" d="M 158.695312 83.203125 L 179.066406 87.941406 "/>
<path style="fill:none;stroke-width:1;stroke-linecap:butt;stroke-linejoin:miter;stroke:rgb(26.666667%,26.666667%,26.666667%);stroke-opacity:1;stroke-miterlimit:10;" d="M 175.027344 174.800781 L 180 129.433594 "/>
<path style="fill:none;stroke-width:1;stroke-linecap:butt;stroke-linejoin:miter;stroke:rgb(26.666667%,26.666667%,26.666667%);stroke-opacity:1;stroke-miterlimit:10;" d="M 179.066406 87.941406 L 180 129.433594 "/>
<path style="fill-rule:nonzero;fill:rgb(100%,0%,0%);fill-opacity:1;stroke-width:1;stroke-linecap:butt;stroke-linejoin:miter;stroke:rgb(0%,0%,0%);stroke-opacity:1;stroke-miterlimit:10;" d="M 30 43.199219 C 30 48.722656 25.523438 53.199219 20 53.199219 C 14.476562 53.199219 10 48.722656 10 43.199219 C 10 37.675781 14.476562 33.199219 20 33.199219 C 25.523438 33.199219 30 37.675781 30 43.199219 "/>
<path style="fill-rule:nonzero;fill:rgb(100%,0%,0%);fill-opacity:1;stroke-width:1;stroke-linecap:butt;stroke-linejoin:miter;stroke:rgb(0%,0%,0%);stroke-opacity:1;stroke-miterlimit:10;" d="M 52.375 20 C 52.375 25.523438 47.898438 30 42.375 30 C 36.851562 30 32.375 25.523438 32.375 20 C 32.375 14.476562 36.851562 10 42.375 10 C 47.898438 10 52.375 14.476562 52.375 20 "/>
<path style="fill-rule:nonzero;fill:rgb(100%,0%,0%);fill-opacity:1;stroke-width:1;stroke-linecap:butt;stroke-linejoin:miter;stroke:rgb(0%,0%,0%);stroke-opacity:1;stroke-miterlimit:10;" d="M 68.230469 38.742188 C 68.230469 44.265625 63.753906 48.742188 58.230469 48.742188 C 52.707031 48.742188 48.230469 44.265625 48.230469 38.742188 C 48.230469 33.222656 52.707031 28.742188 58.230469 28.742188 C 63.753906 28.742188 68.230469 33.222656 68.230469 38.742188 "/>
<path style="fill-rule:nonzero;fill:rgb(100%,0%,0%);fill-opacity:1;stroke-width:1;stroke-linecap:butt;stroke-linejoin:miter;stroke:rgb(0%,0%,0%);stroke-opacity:1;stroke-miterlimit:10;" d="M 73.101562 54.183594 C 73.101562 59.707031 68.625 64.183594 63.101562 64.183594 C 57.578125 64.183594 53.101562 59.707031 53.101562 54.183594 C 53.101562 48.660156 57.578125 44.183594 63.101562 44.183594 C 68.625 44.183594 73.101562 48.660156 73.101562 54.183594 "/>
<path style="fill-rule:nonzero;fill:rgb(100%,0%,0%);fill-opacity:1;stroke-width:1;stroke-linecap:butt;stroke-linejoin:miter;stroke:rgb(0%,0%,0%);stroke-opacity:1;stroke-miterlimit:10;" d="M 94.746094 73.828125 C 94.746094 79.351562 90.269531 83.828125 84.746094 83.828125 C 79.222656 83.828125 74.746094 79.351562 74.746094 73.828125 C 74.746094 68.304688 79.222656 63.828125 84.746094 63.828125 C 90.269531 63.828125 94.746094 68.304688 94.746094 73.828125 "/>
<path style="fill-rule:nonzero;fill:rgb(100%,0%,0%);fill-opacity:1;stroke-width:1;stroke-linecap:butt;stroke-linejoin:miter;stroke:rgb(0%,0%,0%);stroke-opacity:1;stroke-miterlimit:10;" d="M 97.4375 46.128906 C 97.4375 51.652344 92.960938 56.128906 87.4375 56.128906 C 81.914062 56.128906 77.4375 51.652344 77.4375 46.128906 C 77.4375 40.605469 81.914062 36.128906 87.4375 36.128906 C 92.960938 36.128906 97.4375 40.605469 97.4375 46.128906 "/>
<path style="fill-rule:nonzero;fill:rgb(100%,0%,0%);fill-opacity:1;stroke-width:1;stroke-linecap:butt;stroke-linejoin:miter;stroke:rgb(0%,0%,0%);stroke-opacity:1;stroke-miterlimit:10;" d="M 100.660156 154.742188 C 100.660156 160.265625 96.183594 164.742188 90.660156 164.742188 C 85.136719 164.742188 80.660156 160.265625 80.660156 154.742188 C 80.660156 149.21875 85.136719 144.742188 90.660156 144.742188 C 96.183594 144.742188 100.660156 149.21875 100.660156 154.742188 "/>
<path style="fill-rule:nonzero;fill:rgb(100%,0%,0%);fill-opacity:1;stroke-width:1;stroke-linecap:butt;stroke-linejoin:miter;stroke:rgb(0%,0%,0%);stroke-opacity:1;stroke-miterlimit:10;" d="M 101.296875 180 C 101.296875 185.523438 96.820312 190 91.296875 190 C 85.773438 190 81.296875 185.523438 81.296875 180 C 81.296875 174.476562 85.773438 170 91.296875 170 C 96.820312 170 101.296875 174.476562 101.296875 180 "/>
<path style="fill-rule:nonzero;fill:rgb(100%,0%,0%);fill-opacity:1;stroke-width:1;stroke-linecap:butt;stroke-linejoin:miter;stroke:rgb(0%,0%,0%);stroke-opacity:1;stroke-miterlimit:10;" d="M 108.683594 56.550781 C 108.683594 62.074219 104.207031 66.550781 98.683594 66.550781 C 93.160156 66.550781 88.683594 62.074219 88.683594 56.550781 C 88.683594 51.027344 93.160156 46.550781 98.683594 46.550781 C 104.207031 46.550781 108.683594 51.027344 108.683594 56.550781 "/>
<path style="fill-rule:nonzero;fill:rgb(100%,0%,0%);fill-opacity:1;stroke-width:1;stroke-linecap:butt;stroke-linejoin:miter;stroke:rgb(0%,0%,0%);stroke-opacity:1;stroke-miterlimit:10;" d="M 118.011719 123.757812 C 118.011719 129.28125 113.535156 133.757812 108.011719 133.757812 C 102.488281 133.757812 98.011719 129.28125 98.011719 123.757812 C 98.011719 118.238281 102.488281 113.757812 108.011719 113.757812 C 113.535156 113.757812 118.011719 118.238281 118.011719 123.757812 "/>
<path style="fill-rule:nonzero;fill:rgb(100%,0%,0%);fill-opacity:1;stroke-width:1;stroke-linecap:butt;stroke-linejoin:miter;stroke:rgb(0%,0%,0%);stroke-opacity:1;stroke-miterlimit:10;" d="M 130.390625 123.578125 C 130.390625 129.101562 125.914062 133.578125 120.390625 133.578125 C 114.867188 133.578125 110.390625 129.101562 110.390625 123.578125 C 110.390625 118.058594 114.867188 113.578125 120.390625 113.578125 C 125.914062 113.578125 130.390625 118.058594 130.390625 123.578125 "/>
<path style="fill-rule:nonzero;fill:rgb(100%,0%,0%);fill-opacity:1;stroke-width:1;stroke-linecap:butt;stroke-linejoin:miter;stroke:rgb(0%,0%,0%);stroke-opacity:1;stroke-miterlimit:10;" d="M 144.886719 142.367188 C 144.886719 147.890625 140.40625 152.367188 134.886719 152.367188 C 129.363281 152.367188 124.886719 147.890625 124.886719 142.367188 C 124.886719 136.84375 129.363281 132.367188 134.886719 132.367188 C 140.40625 132.367188 144.886719 136.84375 144.886719 142.367188 "/>
<path style="fill-rule:nonzero;fill:rgb(100%,0%,0%);fill-opacity:1;stroke-width:1;stroke-linecap:butt;stroke-linejoin:miter;stroke:rgb(0%,0%,0%);stroke-opacity:1;stroke-miterlimit:10;" d="M 149.324219 47.136719 C 149.324219 52.660156 144.847656 57.136719 139.324219 57.136719 C 133.800781 57.136719 129.324219 52.660156 129.324219 47.136719 C 129.324219 41.613281 133.800781 37.136719 139.324219 37.136719 C 144.847656 37.136719 149.324219 41.613281 149.324219 47.136719 "/>
<path style="fill-rule:nonzero;fill:rgb(100%,0%,0%);fill-opacity:1;stroke-width:1;stroke-linecap:butt;stroke-linejoin:miter;stroke:rgb(0%,0%,0%);stroke-opacity:1;stroke-miterlimit:10;" d="M 150.703125 140.246094 C 150.703125 145.769531 146.226562 150.246094 140.703125 150.246094 C 135.179688 150.246094 130.703125 145.769531 130.703125 140.246094 C 130.703125 134.722656 135.179688 130.246094 140.703125 130.246094 C 146.226562 130.246094 150.703125 134.722656 150.703125 140.246094 "/>
<path style="fill-rule:nonzero;fill:rgb(100%,0%,0%);fill-opacity:1;stroke-width:1;stroke-linecap:butt;stroke-linejoin:miter;stroke:rgb(0%,0%,0%);stroke-opacity:1;stroke-miterlimit:10;" d="M 152.789062 112.410156 C 152.789062 117.933594 148.3125 122.410156 142.789062 122.410156 C 137.265625 122.410156 132.789062 117.933594 132.789062 112.410156 C 132.789062 106.886719 137.265625 102.410156 142.789062 102.410156 C 148.3125 102.410156 152.789062 106.886719 152.789062 112.410156 "/>
<path style="fill-rule:nonzero;fill:rgb(100%,0%,0%);fill-opacity:1;stroke-width:1;stroke-linecap:butt;stroke-linejoin:miter;stroke:rgb(0%,0%,0%);stroke-opacity:1;stroke-miterlimit:10;" d="M 157.5625 30.480469 C 157.5625 36.003906 153.085938 40.480469 147.5625 40.480469 C 142.039062 40.480469 137.5625 36.003906 137.5625 30.480469 C 137.5625 24.957031 142.039062 20.480469 147.5625 20.480469 C 153.085938 20.480469 157.5625 24.957031 157.5625 30.480469 "/>
<path style="fill-rule:nonzero;fill:rgb(100%,0%,0%);fill-opacity:1;stroke-width:1;stroke-linecap:butt;stroke-linejoin:miter;stroke:rgb(0%,0%,0%);stroke-opacity:1;stroke-miterlimit:10;" d="M 168.695312 83.203125 C 168.695312 88.726562 164.21875 93.203125 158.695312 93.203125 C 153.171875 93.203125 148.695312 88.726562 148.695312 83.203125 C 148.695312 77.679688 153.171875 73.203125 158.695312 73.203125 C 164.21875 73.203125 168.695312 77.679688 168.695312 83.203125 "/>
<path style="fill-rule:nonzero;fill:rgb(100%,0%,0%);fill-opacity:1;stroke-width:1;stroke-linecap:butt;stroke-linejoin:miter;stroke:rgb(0%,0%,0%);stroke-opacity:1;stroke-miterlimit:10;" d="M 185.027344 174.800781 C 185.027344 180.324219 180.550781 184.800781 175.027344 184.800781 C 169.503906 184.800781 165.027344 180.324219 165.027344 174.800781 C 165.027344 169.277344 169.503906 164.800781 175.027344 164.800781 C 180.550781 164.800781 185.027344 169.277344 185.027344 174.800781 "/>
<path style="fill-rule:nonzero;fill:rgb(100%,0%,0%);fill-opacity:1;stroke-width:1;stroke-linecap:butt;stroke-linejoin:miter;stroke:rgb(0%,0%,0%);stroke-opacity:1;stroke-miterlimit:10;" d="M 189.066406 87.941406 C 189.066406 93.464844 184.585938 97.941406 179.066406 97.941406 C 173.542969 97.941406 169.066406 93.464844 169.066406 87.941406 C 169.066406 82.421875 173.542969 77.941406 179.066406 77.941406 C 184.585938 77.941406 189.066406 82.421875 189.066406 87.941406 "/>
<path style="fill-rule:nonzero;fill:rgb(100%,0%,0%);fill-opacity:1;stroke-width:1;stroke-linecap:butt;stroke-linejoin:miter;stroke:rgb(0%,0%,0%);stroke-opacity:1;stroke-miterlimit:10;" d="M 190 129.433594 C 190 134.957031 185.523438 139.433594 180 139.433594 C 174.476562 139.433594 170 134.957031 170 129.433594 C 170 123.910156 174.476562 119.433594 180 119.433594 C 185.523438 119.433594 190 123.910156 190 129.433594 "/>
</g>
</svg>
