<?xml version="1.0" encoding="UTF-8"?>
<svg xmlns="http://www.w3.org/2000/svg" xmlns:xlink="http://www.w3.org/1999/xlink" width="200pt" height="200pt" viewBox="0 0 200 200" version="1.1">
<g id="surface14">
<rect x="0" y="0" width="200" height="200" style="fill:rgb(100%,100%,100%);fill-opacity:1;stroke:none;"/>
<path style="fill:none;stroke-width:1;stroke-linecap:butt;stroke-linejoin:miter;stroke:rgb(26.666667%,26.666667%,26.666667%);stroke-opacity:1;stroke-miterlimit:10;" d="M 177.128906 130.167969 L 169.539062 92.792969 "/>
<path style="fill:none;stroke-width:1;stroke-linecap:butt;stroke-linejoin:miter;stroke:rgb(26.666667%,26.666667%,26.666667%);stroke-opacity:1;stroke-miterlimit:10;" d="M 169.539062 92.792969 L 140.253906 80.835938 "/>
<path style="fill:none;stroke-width:1;stroke-linecap:butt;stroke-linejoin:miter;stroke:rgb(26.666667%,26.666667%,26.666667%);stroke-opacity:1;stroke-miterlimit:10;" d="M 111.871094 77.445312 L 140.253906 80.835938 "/>
<path style="fill:none;stroke-width:1;stroke-linecap:butt;stroke-linejoin:miter;stroke:rgb(26.666667%,26.666667%,26.666667%);stroke-opacity:1;stroke-miterlimit:10;" d="M 116.40625 145.972656 L 95 139.683594 "/>
<path style="fill:none;stroke-width:1;stroke-linecap:butt;stroke-linejoin:miter;stroke:rgb(26.666667%,26.666667%,26.666667%);stroke-opacity:1;stroke-miterlimit:10;" d="M 180 166.320312 L 151.753906 142.066406 "/>
<path style="fill:none;stroke-width:1;stroke-linecap:butt;stroke-linejoin:miter;stroke:rgb(26.666667%,26.666667%,26.666667%);stroke-opacity:1;stroke-miterlimit:10;" d="M 95 139.683594 L 70.832031 138.804688 "/>
<path style="fill:none;stroke-width:1;stroke-linecap:butt;stroke-linejoin:miter;stroke:rgb(26.666667%,26.666667%,26.666667%);stroke-opacity:1;stroke-miterlimit:10;" d="M 120.371094 180 L 91.109375 158.644531 "/>
<path style="fill:none;stroke-width:1;stroke-linecap:butt;stroke-linejoin:miter;stroke:rgb(26.666667%,26.666667%,26.666667%);stroke-opacity:1;stroke-miterlimit:10;" d="M 95 139.683594 L 91.109375 158.644531 "/>
<path style="fill:none;stroke-width:1;stroke-linecap:butt;stroke-linejoin:miter;stroke:rgb(26.666667%,26.666667%,26.666667%);stroke-opacity:1;stroke-miterlimit:10;" d="M 70.832031 138.804688 L 91.109375 158.644531 "/>
<path style="fill:none;stroke-width:1;stroke-linecap:butt;stroke-linejoin:miter;stroke:rgb(26.666667%,26.666667%,26.666667%);stroke-opacity:1;stroke-miterlimit:10;" d="M 111.871094 77.445312 L 99.507812 51.34375 "/>
<path style="fill:none;stroke-width:1;stroke-linecap:butt;stroke-linejoin:miter;stroke:rgb(26.666667%,26.666667%,26.666667%);stroke-opacity:1;stroke-miterlimit:10;" d="M 94.273438 20 L 99.507812 51.34375 "/>
<path style="fill:none;stroke-width:1;stroke-linecap:butt;stroke-linejoin:miter;stroke:rgb(26.666667%,26.666667%,26.666667%);stroke-opacity:1;stroke-miterlimit:10;" d="M 111.871094 77.445312 L 98.707031 82.6875 "/>
<path style="fill:none;stroke-width:1;stroke-linecap:butt;stroke-linejoin:miter;stroke:rgb(26.666667%,26.666667%,26.666667%);stroke-opacity:1;stroke-miterlimit:10;" d="M 99.507812 51.34375 L 98.707031 82.6875 "/>
<path style="fill:none;stroke-width:1;stroke-linecap:butt;stroke-linejoin:miter;stroke:rgb(26.666667%,26.666667%,26.666667%);stroke-opacity:1;stroke-miterlimit:10;" d="M 95 139.683594 L 122.480469 119.9375 "/>
<path style="fill:none;stroke-width:1;stroke-linecap:butt;stroke-linejoin:miter;stroke:rgb(26.666667%,26.666667%,26.666667%);stroke-opacity:1;stroke-miterlimit:10;" d="M 151.753906 142.066406 L 122.480469 119.9375 "/>
<path style="fill:none;stroke-width:1;stroke-linecap:butt;stroke-linejoin:miter;stroke:rgb(26.666667%,26.666667%,26.666667%);stroke-opacity:1;stroke-miterlimit:10;" d="M 98.707031 82.6875 L 122.480469 119.9375 "/>
<path style="fill:none;stroke-width:1;stroke-linecap:butt;stroke-linejoin:miter;stroke:rgb(26.666667%,26.666667%,26.666667%);stroke-opacity:1;stroke-miterlimit:10;" d="M 111.871094 77.445312 L 87.136719 112.773438 "/>
<path style="fill:none;stroke-width:1;stroke-linecap:butt;stroke-linejoin:miter;stroke:rgb(26.666667%,26.666667%,26.666667%);stroke-opacity:1;stroke-miterlimit:10;" d="M 70.832031 138.804688 L 87.136719 112.773438 "/>
<path style="fill:none;stroke-width:1;stroke-linecap:butt;stroke-linejoin:miter;stroke:rgb(26.666667%,26.666667%,26.666667%);stroke-opacity:1;stroke-miterlimit:10;" d="M 91.109375 158.644531 L 87.136719 112.773438 "/>
<path style="fill:none;stroke-width:1;stroke-linecap:butt;stroke-linejoin:miter;stroke:rgb(26.666667%,26.666667%,26.666667%);stroke-opacity:1;stroke-miterlimit:10;" d="M 177.128906 130.167969 L 152.195312 166.292969 "/>
<path style="fill:none;stroke-width:1;stroke-linecap:butt;stroke-linejoin:miter;stroke:rgb(26.666667%,26.666667%,26.666667%);stroke-opacity:1;stroke-miterlimit:10;" d="M 120.371094 180 L 152.195312 166.292969 "/>
<path style="fill:none;stroke-width:1;stroke-linecap:butt;stroke-linejoin:miter;stroke:rgb(26.666667%,26.666667%,26.666667%);stroke-opacity:1;stroke-miterlimit:10;" d="M 151.753906 142.066406 L 152.195312 166.292969 "/>
<path style="fill:none;stroke-width:1;stroke-linecap:butt;stroke-linejoin:miter;stroke:rgb(26.666667%,26.666667%,26.666667%);stroke-opacity:1;stroke-miterlimit:10;" d="M 116.40625 145.972656 L 116.140625 107.15625 "/>
<path style="fill:none;stroke-width:1;stroke-linecap:butt;stroke-linejoin:miter;stroke:rgb(26.666667%,26.666667%,26.666667%);stroke-opacity:1;stroke-miterlimit:10;" d="M 140.253906 80.835938 L 116.140625 107.15625 "/>
<path style="fill:none;stroke-width:1;stroke-linecap:butt;stroke-linejoin:miter;stroke:rgb(26.666667%,26.666667%,26.666667%);stroke-opacity:1;stroke-miterlimit:10;" d="M 87.136719 112.773438 L 116.140625 107.15625 "/>
<path style="fill:none;stroke-width:1;stroke-linecap:butt;stroke-linejoin:miter;stroke:rgb(26.666667%,26.666667%,26.666667%);stroke-opacity:1;stroke-miterlimit:10;" d="M 70.832031 138.804688 L 44.570312 149.976562 "/>
<path style="fill:none;stroke-width:1;stroke-linecap:butt;stroke-linejoin:miter;stroke:rgb(26.666667%,26.666667%,26.666667%);stroke-opacity:1;stroke-miterlimit:10;" d="M 20 163.054688 L 44.570312 149.976562 "/>
<path style="fill-rule:nonzero;fill:rgb(100%,0%,0%);fill-opacity:1;stroke-width:1;stroke-linecap:butt;stroke-linejoin:miter;stroke:rgb(0%,0%,0%);stroke-opacity:1;stroke-miterlimit:10;" d="M 190 166.320312 C 190 171.84375 185.523438 176.320312 180 176.320312 C 174.476562 176.320312 170 171.84375 170 166.320312 C 170 160.796875 174.476562 156.320312 180 156.320312 C 185.523438 156.320312 190 160.796875 190 166.320312 "/>
<path style="fill-rule:nonzero;fill:rgb(100%,0%,0%);fill-opacity:1;stroke-width:1;stroke-linecap:butt;stroke-linejoin:miter;stroke:rgb(0%,0%,0%);stroke-opacity:1;stroke-miterlimit:10;" d="M 187.128906 130.167969 C 187.128906 135.691406 182.652344 140.167969 177.128906 140.167969 C 171.605469 140.167969 167.128906 135.691406 167.128906 130.167969 C 167.128906 124.644531 171.605469 120.167969 177.128906 120.167969 C 182.652344 120.167969 187.128906 124.644531 187.128906 130.167969 "/>
<path style="fill-rule:nonzero;fill:rgb(100%,0%,0%);fill-opacity:1;stroke-width:1;stroke-linecap:butt;stroke-linejoin:miter;stroke:rgb(0%,0%,0%);stroke-opacity:1;stroke-miterlimit:10;" d="M 179.539062 92.792969 C 179.539062 98.316406 175.0625 102.792969 169.539062 102.792969 C 164.015625 102.792969 159.539062 98.316406 159.539062 92.792969 C 159.539062 87.269531 164.015625 82.792969 169.539062 82.792969 C 175.0625 82.792969 179.539062 87.269531 179.539062 92.792969 "/>
<path style="fill-rule:nonzero;fill:rgb(100%,0%,0%);fill-opacity:1;stroke-width:1;stroke-linecap:butt;stroke-linejoin:miter;stroke:rgb(0%,0%,0%);stroke-opacity:1;stroke-miterlimit:10;" d="M 126.40625 145.972656 C 126.40625 151.496094 121.929688 155.972656 116.40625 155.972656 C 110.882812 155.972656 106.40625 151.496094 106.40625 145.972656 C 106.40625 140.453125 110.882812 135.972656 116.40625 135.972656 C 121.929688 135.972656 126.40625 140.453125 126.40625 145.972656 "/>
<path style="fill-rule:nonzero;fill:rgb(100%,0%,0%);fill-opacity:1;stroke-width:1;stroke-linecap:butt;stroke-linejoin:miter;stroke:rgb(0%,0%,0%);stroke-opacity:1;stroke-miterlimit:10;" d="M 130.371094 180 C 130.371094 185.523438 125.894531 190 120.371094 190 C 114.851562 190 110.371094 185.523438 110.371094 180 C 110.371094 174.476562 114.851562 170 120.371094 170 C 125.894531 170 130.371094 174.476562 130.371094 180 "/>
<path style="fill-rule:nonzero;fill:rgb(100%,0%,0%);fill-opacity:1;stroke-width:1;stroke-linecap:butt;stroke-linejoin:miter;stroke:rgb(0%,0%,0%);stroke-opacity:1;stroke-miterlimit:10;" d="M 121.871094 77.445312 C 121.871094 82.96875 117.394531 87.445312 111.871094 87.445312 C 106.351562 87.445312 101.871094 82.96875 101.871094 77.445312 C 101.871094 71.921875 106.351562 67.445312 111.871094 67.445312 C 117.394531 67.445312 121.871094 71.921875 121.871094 77.445312 "/>
<path style="fill-rule:nonzero;fill:rgb(100%,0%,0%);fill-opacity:1;stroke-width:1;stroke-linecap:butt;stroke-linejoin:miter;stroke:rgb(0%,0%,0%);stroke-opacity:1;stroke-miterlimit:10;" d="M 150.253906 80.835938 C 150.253906 86.359375 145.777344 90.835938 140.253906 90.835938 C 134.734375 90.835938 130.253906 86.359375 130.253906 80.835938 C 130.253906 75.3125 134.734375 70.835938 140.253906 70.835938 C 145.777344 70.835938 150.253906 75.3125 150.253906 80.835938 "/>
<path style="fill-rule:nonzero;fill:rgb(100%,0%,0%);fill-opacity:1;stroke-width:1;stroke-linecap:butt;stroke-linejoin:miter;stroke:rgb(0%,0%,0%);stroke-opacity:1;stroke-miterlimit:10;" d="M 105 139.683594 C 105 145.203125 100.519531 149.683594 95 149.683594 C 89.476562 149.683594 85 145.203125 85 139.683594 C 85 134.160156 89.476562 129.683594 95 129.683594 C 100.519531 129.683594 105 134.160156 105 139.683594 "/>
<path style="fill-rule:nonzero;fill:rgb(100%,0%,0%);fill-opacity:1;stroke-width:1;stroke-linecap:butt;stroke-linejoin:miter;stroke:rgb(0%,0%,0%);stroke-opacity:1;stroke-miterlimit:10;" d="M 104.273438 20 C 104.273438 25.523438 99.796875 30 94.273438 30 C 88.75 30 84.273438 25.523438 84.273438 20 C 84.273438 14.476562 88.75 10 94.273438 10 C 99.796875 10 104.273438 14.476562 104.273438 20 "/>
<path style="fill-rule:nonzero;fill:rgb(100%,0%,0%);fill-opacity:1;stroke-width:1;stroke-linecap:butt;stroke-linejoin:miter;stroke:rgb(0%,0%,0%);stroke-opacity:1;stroke-miterlimit:10;" d="M 161.753906 142.066406 C 161.753906 147.589844 157.277344 152.066406 151.753906 152.066406 C 146.234375 152.066406 141.753906 147.589844 141.753906 142.066406 C 141.753906 136.542969 146.234375 132.066406 151.753906 132.066406 C 157.277344 132.066406 161.753906 136.542969 161.753906 142.066406 "/>
<path style="fill-rule:nonzero;fill:rgb(100%,0%,0%);fill-opacity:1;stroke-width:1;stroke-linecap:butt;stroke-linejoin:miter;stroke:rgb(0%,0%,0%);stroke-opacity:1;stroke-miterlimit:10;" d="M 80.832031 138.804688 C 80.832031 144.328125 76.355469 148.804688 70.832031 148.804688 C 65.3125 148.804688 60.832031 144.328125 60.832031 138.804688 C 60.832031 133.28125 65.3125 128.804688 70.832031 128.804688 C 76.355469 128.804688 80.832031 133.28125 80.832031 138.804688 "/>
<path style="fill-rule:nonzero;fill:rgb(100%,0%,0%);fill-opacity:1;stroke-width:1;stroke-linecap:butt;stroke-linejoin:miter;stroke:rgb(0%,0%,0%);stroke-opacity:1;stroke-miterlimit:10;" d="M 30 163.054688 C 30 168.578125 25.523438 173.054688 20 173.054688 C 14.476562 173.054688 10 168.578125 10 163.054688 C 10 157.53125 14.476562 153.054688 20 153.054688 C 25.523438 153.054688 30 157.53125 30 163.054688 "/>
<path style="fill-rule:nonzero;fill:rgb(100%,0%,0%);fill-opacity:1;stroke-width:1;stroke-linecap:butt;stroke-linejoin:miter;stroke:rgb(0%,0%,0%);stroke-opacity:1;stroke-miterlimit:10;" d="M 101.109375 158.644531 C 101.109375 164.167969 96.632812 168.644531 91.109375 168.644531 C 85.585938 168.644531 81.109375 164.167969 81.109375 158.644531 C 81.109375 153.121094 85.585938 148.644531 91.109375 148.644531 C 96.632812 148.644531 101.109375 153.121094 101.109375 158.644531 "/>
<path style="fill-rule:nonzero;fill:rgb(100%,0%,0%);fill-opacity:1;stroke-width:1;stroke-linecap:butt;stroke-linejoin:miter;stroke:rgb(0%,0%,0%);stroke-opacity:1;stroke-miterlimit:10;" d="M 109.507812 51.34375 C 109.507812 56.867188 105.03125 61.34375 99.507812 61.34375 C 93.984375 61.34375 89.507812 56.867188 89.507812 51.34375 C 89.507812 45.824219 93.984375 41.34375 99.507812 41.34375 C 105.03125 41.34375 109.507812 45.824219 109.507812 51.34375 "/>
<path style="fill-rule:nonzero;fill:rgb(100%,0%,0%);fill-opacity:1;stroke-width:1;stroke-linecap:butt;stroke-linejoin:miter;stroke:rgb(0%,0%,0%);stroke-opacity:1;stroke-miterlimit:10;" d="M 108.707031 82.6875 C 108.707031 88.207031 104.230469 92.6875 98.707031 92.6875 C 93.1875 92.6875 88.707031 88.207031 88.707031 82.6875 C 88.707031 77.164062 93.1875 72.6875 98.707031 72.6875 C 104.230469 72.6875 108.707031 77.164062 108.707031 82.6875 "/>
<path style="fill-rule:nonzero;fill:rgb(100%,0%,0%);fill-opacity:1;stroke-width:1;stroke-linecap:butt;stroke-linejoin:miter;stroke:rgb(0%,0%,0%);stroke-opacity:1;stroke-miterlimit:10;" d="M 132.480469 119.9375 C 132.480469 125.460938 128.003906 129.9375 122.480469 129.9375 C 116.957031 129.9375 112.480469 125.460938 112.480469 119.9375 C 112.480469 114.417969 116.957031 109.9375 122.480469 109.9375 C 128.003906 109.9375 132.480469 114.417969 132.480469 119.9375 "/>
<path style="fill-rule:nonzero;fill:rgb(100%,0%,0%);fill-opacity:1;stroke-width:1;stroke-linecap:butt;stroke-linejoin:miter;stroke:rgb(0%,0%,0%);stroke-opacity:1;stroke-miterlimit:10;" d="M 97.136719 112.773438 C 97.136719 118.296875 92.660156 122.773438 87.136719 122.773438 C 81.613281 122.773438 77.136719 118.296875 77.136719 112.773438 C 77.136719 107.25 81.613281 102.773438 87.136719 102.773438 C 92.660156 102.773438 97.136719 107.25 97.136719 112.773438 "/>
<path style="fill-rule:nonzero;fill:rgb(100%,0%,0%);fill-opacity:1;stroke-width:1;stroke-linecap:butt;stroke-linejoin:miter;stroke:rgb(0%,0%,0%);stroke-opacity:1;stroke-miterlimit:10;" d="M 162.195312 166.292969 C 162.195312 171.8125 157.71875 176.292969 152.195312 176.292969 C 146.671875 176.292969 142.195312 171.8125 142.195312 166.292969 C 142.195312 160.769531 146.671875 156.292969 152.195312 156.292969 C 157.71875 156.292969 162.195312 160.769531 162.195312 166.292969 "/>
<path style="fill-rule:nonzero;fill:rgb(100%,0%,0%);fill-opacity:1;stroke-width:1;stroke-linecap:butt;stroke-linejoin:miter;stroke:rgb(0%,0%,0%);stroke-opacity:1;stroke-miterlimit:10;" d="M 126.140625 107.15625 C 126.140625 112.679688 121.660156 117.15625 116.140625 117.15625 C 110.617188 117.15625 106.140625 112.679688 106.140625 107.15625 C 106.140625 101.632812 110.617188 97.15625 116.140625 97.15625 C 121.660156 97.15625 126.140625 101.632812 126.140625 107.15625 "/>
<path style="fill-rule:nonzero;fill:rgb(100%,0%,0%);fill-opacity:1;stroke-width:1;stroke-linecap:butt;stroke-linejoin:miter;stroke:rgb(0%,0%,0%);stroke-opacity:1;stroke-miterlimit:10;" d="M 54.570312 149.976562 C 54.570312 155.5 50.09375 159.976562 44.570312 159.976562 C 39.050781 159.976562 34.570312 155.5 34.570312 149.976562 C 34.570312 144.453125 39.050781 139.976562 44.570312 139.976562 C 50.09375 139.976562 54.570312 144.453125 54.570312 149.976562 "/>
</g>
</svg>