<?xml version="1.0" encoding="UTF-8"?>
<svg xmlns="http://www.w3.org/2000/svg" xmlns:xlink="http://www.w3.org/1999/xlink" width="400pt" height="800pt" viewBox="0 0 400 800" version="1.1">
<g id="surface32">
<rect x="0" y="0" width="400" height="800" style="fill:rgb(100%,100%,100%);fill-opacity:1;stroke:none;"/>
<path style="fill:none;stroke-width:1;stroke-linecap:butt;stroke-linejoin:miter;stroke:rgb(26.666667%,26.666667%,26.666667%);stroke-opacity:1;stroke-miterlimit:10;" d="M 146.390625 625.746094 L 141.148438 688.175781 "/>
<path style="fill:none;stroke-width:1;stroke-linecap:butt;stroke-linejoin:miter;stroke:rgb(26.666667%,26.666667%,26.666667%);stroke-opacity:1;stroke-miterlimit:10;" d="M 146.390625 625.746094 L 191.941406 533.136719 "/>
<path style="fill:none;stroke-width:1;stroke-linecap:butt;stroke-linejoin:miter;stroke:rgb(26.666667%,26.666667%,26.666667%);stroke-opacity:1;stroke-miterlimit:10;" d="M 198.25 316.75 L 164.914062 366.058594 "/>
<path style="fill:none;stroke-width:1;stroke-linecap:butt;stroke-linejoin:miter;stroke:rgb(26.666667%,26.666667%,26.666667%);stroke-opacity:1;stroke-miterlimit:10;" d="M 198.25 316.75 L 226.851562 519.757812 "/>
<path style="fill:none;stroke-width:1;stroke-linecap:butt;stroke-linejoin:miter;stroke:rgb(26.666667%,26.666667%,26.666667%);stroke-opacity:1;stroke-miterlimit:10;" d="M 221.664062 238.359375 L 248.179688 406.082031 "/>
<path style="fill:none;stroke-width:1;stroke-linecap:butt;stroke-linejoin:miter;stroke:rgb(26.666667%,26.666667%,26.666667%);stroke-opacity:1;stroke-miterlimit:10;" d="M 248.179688 406.082031 L 226.851562 519.757812 "/>
<path style="fill:none;stroke-width:1;stroke-linecap:butt;stroke-linejoin:miter;stroke:rgb(26.666667%,26.666667%,26.666667%);stroke-opacity:1;stroke-miterlimit:10;" d="M 248.179688 406.082031 L 211.070312 463.421875 "/>
<path style="fill:none;stroke-width:1;stroke-linecap:butt;stroke-linejoin:miter;stroke:rgb(26.666667%,26.666667%,26.666667%);stroke-opacity:1;stroke-miterlimit:10;" d="M 164.914062 366.058594 L 125.753906 431.710938 "/>
<path style="fill:none;stroke-width:1;stroke-linecap:butt;stroke-linejoin:miter;stroke:rgb(26.666667%,26.666667%,26.666667%);stroke-opacity:1;stroke-miterlimit:10;" d="M 125.753906 431.710938 L 159.578125 465.761719 "/>
<path style="fill:none;stroke-width:1;stroke-linecap:butt;stroke-linejoin:miter;stroke:rgb(26.666667%,26.666667%,26.666667%);stroke-opacity:1;stroke-miterlimit:10;" d="M 125.753906 431.710938 L 211.070312 463.421875 "/>
<path style="fill:none;stroke-width:1;stroke-linecap:butt;stroke-linejoin:miter;stroke:rgb(26.666667%,26.666667%,26.666667%);stroke-opacity:1;stroke-miterlimit:10;" d="M 171.261719 566.757812 L 226.851562 519.757812 "/>
<path style="fill:none;stroke-width:1;stroke-linecap:butt;stroke-linejoin:miter;stroke:rgb(26.666667%,26.666667%,26.666667%);stroke-opacity:1;stroke-miterlimit:10;" d="M 171.261719 566.757812 L 191.941406 533.136719 "/>
<path style="fill:none;stroke-width:1;stroke-linecap:butt;stroke-linejoin:miter;stroke:rgb(26.666667%,26.666667%,26.666667%);stroke-opacity:1;stroke-miterlimit:10;" d="M 171.261719 566.757812 L 175.078125 578.441406 "/>
<path style="fill:none;stroke-width:1;stroke-linecap:butt;stroke-linejoin:miter;stroke:rgb(26.666667%,26.666667%,26.666667%);stroke-opacity:1;stroke-miterlimit:10;" d="M 171.261719 566.757812 L 211.070312 463.421875 "/>
<path style="fill:none;stroke-width:1;stroke-linecap:butt;stroke-linejoin:miter;stroke:rgb(26.666667%,26.666667%,26.666667%);stroke-opacity:1;stroke-miterlimit:10;" d="M 132.304688 188.8125 L 96.59375 295.011719 "/>
<path style="fill:none;stroke-width:1;stroke-linecap:butt;stroke-linejoin:miter;stroke:rgb(26.666667%,26.666667%,26.666667%);stroke-opacity:1;stroke-miterlimit:10;" d="M 132.304688 188.8125 L 133.945312 279.492188 "/>
<path style="fill:none;stroke-width:1;stroke-linecap:butt;stroke-linejoin:miter;stroke:rgb(26.666667%,26.666667%,26.666667%);stroke-opacity:1;stroke-miterlimit:10;" d="M 256.886719 750 L 170.667969 662.1875 "/>
<path style="fill:none;stroke-width:1;stroke-linecap:butt;stroke-linejoin:miter;stroke:rgb(26.666667%,26.666667%,26.666667%);stroke-opacity:1;stroke-miterlimit:10;" d="M 203.910156 489.71875 L 191.941406 533.136719 "/>
<path style="fill:none;stroke-width:1;stroke-linecap:butt;stroke-linejoin:miter;stroke:rgb(26.666667%,26.666667%,26.666667%);stroke-opacity:1;stroke-miterlimit:10;" d="M 203.910156 489.71875 L 224.628906 423.058594 "/>
<path style="fill:none;stroke-width:1;stroke-linecap:butt;stroke-linejoin:miter;stroke:rgb(26.666667%,26.666667%,26.666667%);stroke-opacity:1;stroke-miterlimit:10;" d="M 328.488281 403.753906 L 163.824219 500.089844 "/>
<path style="fill:none;stroke-width:1;stroke-linecap:butt;stroke-linejoin:miter;stroke:rgb(26.666667%,26.666667%,26.666667%);stroke-opacity:1;stroke-miterlimit:10;" d="M 328.488281 403.753906 L 190.625 395.761719 "/>
<path style="fill:none;stroke-width:1;stroke-linecap:butt;stroke-linejoin:miter;stroke:rgb(26.666667%,26.666667%,26.666667%);stroke-opacity:1;stroke-miterlimit:10;" d="M 248.179688 406.082031 L 137.535156 507.882812 "/>
<path style="fill:none;stroke-width:1;stroke-linecap:butt;stroke-linejoin:miter;stroke:rgb(26.666667%,26.666667%,26.666667%);stroke-opacity:1;stroke-miterlimit:10;" d="M 137.535156 507.882812 L 187.308594 482.160156 "/>
<path style="fill:none;stroke-width:1;stroke-linecap:butt;stroke-linejoin:miter;stroke:rgb(26.666667%,26.666667%,26.666667%);stroke-opacity:1;stroke-miterlimit:10;" d="M 137.535156 507.882812 L 112.617188 640.726562 "/>
<path style="fill:none;stroke-width:1;stroke-linecap:butt;stroke-linejoin:miter;stroke:rgb(26.666667%,26.666667%,26.666667%);stroke-opacity:1;stroke-miterlimit:10;" d="M 248.179688 406.082031 L 163.824219 500.089844 "/>
<path style="fill:none;stroke-width:1;stroke-linecap:butt;stroke-linejoin:miter;stroke:rgb(26.666667%,26.666667%,26.666667%);stroke-opacity:1;stroke-miterlimit:10;" d="M 110.15625 554.609375 L 190.625 395.761719 "/>
<path style="fill:none;stroke-width:1;stroke-linecap:butt;stroke-linejoin:miter;stroke:rgb(26.666667%,26.666667%,26.666667%);stroke-opacity:1;stroke-miterlimit:10;" d="M 228.859375 561.738281 L 226.851562 519.757812 "/>
<path style="fill:none;stroke-width:1;stroke-linecap:butt;stroke-linejoin:miter;stroke:rgb(26.666667%,26.666667%,26.666667%);stroke-opacity:1;stroke-miterlimit:10;" d="M 228.859375 561.738281 L 191.941406 533.136719 "/>
<path style="fill:none;stroke-width:1;stroke-linecap:butt;stroke-linejoin:miter;stroke:rgb(26.666667%,26.666667%,26.666667%);stroke-opacity:1;stroke-miterlimit:10;" d="M 228.859375 561.738281 L 166.289062 448.25 "/>
<path style="fill:none;stroke-width:1;stroke-linecap:butt;stroke-linejoin:miter;stroke:rgb(26.666667%,26.666667%,26.666667%);stroke-opacity:1;stroke-miterlimit:10;" d="M 228.859375 561.738281 L 211.070312 463.421875 "/>
<path style="fill:none;stroke-width:1;stroke-linecap:butt;stroke-linejoin:miter;stroke:rgb(26.666667%,26.666667%,26.666667%);stroke-opacity:1;stroke-miterlimit:10;" d="M 170.667969 662.1875 L 208.488281 650.277344 "/>
<path style="fill:none;stroke-width:1;stroke-linecap:butt;stroke-linejoin:miter;stroke:rgb(26.666667%,26.666667%,26.666667%);stroke-opacity:1;stroke-miterlimit:10;" d="M 141.148438 688.175781 L 59.652344 623.183594 "/>
<path style="fill:none;stroke-width:1;stroke-linecap:butt;stroke-linejoin:miter;stroke:rgb(26.666667%,26.666667%,26.666667%);stroke-opacity:1;stroke-miterlimit:10;" d="M 57.371094 435.671875 L 131.921875 449.867188 "/>
<path style="fill:none;stroke-width:1;stroke-linecap:butt;stroke-linejoin:miter;stroke:rgb(26.666667%,26.666667%,26.666667%);stroke-opacity:1;stroke-miterlimit:10;" d="M 57.371094 435.671875 L 96.59375 295.011719 "/>
<path style="fill:none;stroke-width:1;stroke-linecap:butt;stroke-linejoin:miter;stroke:rgb(26.666667%,26.666667%,26.666667%);stroke-opacity:1;stroke-miterlimit:10;" d="M 187.308594 482.160156 L 211.070312 463.421875 "/>
<path style="fill:none;stroke-width:1;stroke-linecap:butt;stroke-linejoin:miter;stroke:rgb(26.666667%,26.666667%,26.666667%);stroke-opacity:1;stroke-miterlimit:10;" d="M 263.863281 573.304688 L 208.992188 742.203125 "/>
<path style="fill:none;stroke-width:1;stroke-linecap:butt;stroke-linejoin:miter;stroke:rgb(26.666667%,26.666667%,26.666667%);stroke-opacity:1;stroke-miterlimit:10;" d="M 263.863281 573.304688 L 211.070312 463.421875 "/>
<path style="fill:none;stroke-width:1;stroke-linecap:butt;stroke-linejoin:miter;stroke:rgb(26.666667%,26.666667%,26.666667%);stroke-opacity:1;stroke-miterlimit:10;" d="M 263.863281 573.304688 L 208.488281 650.277344 "/>
<path style="fill:none;stroke-width:1;stroke-linecap:butt;stroke-linejoin:miter;stroke:rgb(26.666667%,26.666667%,26.666667%);stroke-opacity:1;stroke-miterlimit:10;" d="M 164.914062 366.058594 L 159.578125 465.761719 "/>
<path style="fill:none;stroke-width:1;stroke-linecap:butt;stroke-linejoin:miter;stroke:rgb(26.666667%,26.666667%,26.666667%);stroke-opacity:1;stroke-miterlimit:10;" d="M 159.578125 465.761719 L 191.941406 533.136719 "/>
<path style="fill:none;stroke-width:1;stroke-linecap:butt;stroke-linejoin:miter;stroke:rgb(26.666667%,26.666667%,26.666667%);stroke-opacity:1;stroke-miterlimit:10;" d="M 159.578125 465.761719 L 211.070312 463.421875 "/>
<path style="fill:none;stroke-width:1;stroke-linecap:butt;stroke-linejoin:miter;stroke:rgb(26.666667%,26.666667%,26.666667%);stroke-opacity:1;stroke-miterlimit:10;" d="M 208.992188 742.203125 L 208.488281 650.277344 "/>
<path style="fill:none;stroke-width:1;stroke-linecap:butt;stroke-linejoin:miter;stroke:rgb(26.666667%,26.666667%,26.666667%);stroke-opacity:1;stroke-miterlimit:10;" d="M 226.851562 519.757812 L 191.941406 533.136719 "/>
<path style="fill:none;stroke-width:1;stroke-linecap:butt;stroke-linejoin:miter;stroke:rgb(26.666667%,26.666667%,26.666667%);stroke-opacity:1;stroke-miterlimit:10;" d="M 110.15625 554.609375 L 149.144531 615.164062 "/>
<path style="fill:none;stroke-width:1;stroke-linecap:butt;stroke-linejoin:miter;stroke:rgb(26.666667%,26.666667%,26.666667%);stroke-opacity:1;stroke-miterlimit:10;" d="M 141.148438 688.175781 L 149.144531 615.164062 "/>
<path style="fill:none;stroke-width:1;stroke-linecap:butt;stroke-linejoin:miter;stroke:rgb(26.666667%,26.666667%,26.666667%);stroke-opacity:1;stroke-miterlimit:10;" d="M 149.144531 615.164062 L 191.941406 533.136719 "/>
<path style="fill:none;stroke-width:1;stroke-linecap:butt;stroke-linejoin:miter;stroke:rgb(26.666667%,26.666667%,26.666667%);stroke-opacity:1;stroke-miterlimit:10;" d="M 149.144531 615.164062 L 175.078125 578.441406 "/>
<path style="fill:none;stroke-width:1;stroke-linecap:butt;stroke-linejoin:miter;stroke:rgb(26.666667%,26.666667%,26.666667%);stroke-opacity:1;stroke-miterlimit:10;" d="M 141.148438 688.175781 L 112.617188 640.726562 "/>
<path style="fill:none;stroke-width:1;stroke-linecap:butt;stroke-linejoin:miter;stroke:rgb(26.666667%,26.666667%,26.666667%);stroke-opacity:1;stroke-miterlimit:10;" d="M 112.617188 640.726562 L 59.652344 623.183594 "/>
<path style="fill:none;stroke-width:1;stroke-linecap:butt;stroke-linejoin:miter;stroke:rgb(26.666667%,26.666667%,26.666667%);stroke-opacity:1;stroke-miterlimit:10;" d="M 112.617188 640.726562 L 208.488281 650.277344 "/>
<path style="fill:none;stroke-width:1;stroke-linecap:butt;stroke-linejoin:miter;stroke:rgb(26.666667%,26.666667%,26.666667%);stroke-opacity:1;stroke-miterlimit:10;" d="M 50 432.226562 L 59.652344 623.183594 "/>
<path style="fill:none;stroke-width:1;stroke-linecap:butt;stroke-linejoin:miter;stroke:rgb(26.666667%,26.666667%,26.666667%);stroke-opacity:1;stroke-miterlimit:10;" d="M 50 432.226562 L 111.992188 360.449219 "/>
<path style="fill:none;stroke-width:1;stroke-linecap:butt;stroke-linejoin:miter;stroke:rgb(26.666667%,26.666667%,26.666667%);stroke-opacity:1;stroke-miterlimit:10;" d="M 226.851562 519.757812 L 251.800781 594.304688 "/>
<path style="fill:none;stroke-width:1;stroke-linecap:butt;stroke-linejoin:miter;stroke:rgb(26.666667%,26.666667%,26.666667%);stroke-opacity:1;stroke-miterlimit:10;" d="M 191.941406 533.136719 L 251.800781 594.304688 "/>
<path style="fill:none;stroke-width:1;stroke-linecap:butt;stroke-linejoin:miter;stroke:rgb(26.666667%,26.666667%,26.666667%);stroke-opacity:1;stroke-miterlimit:10;" d="M 251.800781 594.304688 L 208.488281 650.277344 "/>
<path style="fill:none;stroke-width:1;stroke-linecap:butt;stroke-linejoin:miter;stroke:rgb(26.666667%,26.666667%,26.666667%);stroke-opacity:1;stroke-miterlimit:10;" d="M 198.890625 468.980469 L 273.445312 437.792969 "/>
<path style="fill:none;stroke-width:1;stroke-linecap:butt;stroke-linejoin:miter;stroke:rgb(26.666667%,26.666667%,26.666667%);stroke-opacity:1;stroke-miterlimit:10;" d="M 191.941406 533.136719 L 125.886719 527.003906 "/>
<path style="fill:none;stroke-width:1;stroke-linecap:butt;stroke-linejoin:miter;stroke:rgb(26.666667%,26.666667%,26.666667%);stroke-opacity:1;stroke-miterlimit:10;" d="M 125.886719 527.003906 L 131.921875 449.867188 "/>
<path style="fill:none;stroke-width:1;stroke-linecap:butt;stroke-linejoin:miter;stroke:rgb(26.666667%,26.666667%,26.666667%);stroke-opacity:1;stroke-miterlimit:10;" d="M 125.886719 527.003906 L 239.476562 317.738281 "/>
<path style="fill:none;stroke-width:1;stroke-linecap:butt;stroke-linejoin:miter;stroke:rgb(26.666667%,26.666667%,26.666667%);stroke-opacity:1;stroke-miterlimit:10;" d="M 164.914062 366.058594 L 224.628906 423.058594 "/>
<path style="fill:none;stroke-width:1;stroke-linecap:butt;stroke-linejoin:miter;stroke:rgb(26.666667%,26.666667%,26.666667%);stroke-opacity:1;stroke-miterlimit:10;" d="M 191.941406 533.136719 L 224.628906 423.058594 "/>
<path style="fill:none;stroke-width:1;stroke-linecap:butt;stroke-linejoin:miter;stroke:rgb(26.666667%,26.666667%,26.666667%);stroke-opacity:1;stroke-miterlimit:10;" d="M 224.628906 423.058594 L 211.070312 463.421875 "/>
<path style="fill:none;stroke-width:1;stroke-linecap:butt;stroke-linejoin:miter;stroke:rgb(26.666667%,26.666667%,26.666667%);stroke-opacity:1;stroke-miterlimit:10;" d="M 226.851562 519.757812 L 131.921875 449.867188 "/>
<path style="fill:none;stroke-width:1;stroke-linecap:butt;stroke-linejoin:miter;stroke:rgb(26.666667%,26.666667%,26.666667%);stroke-opacity:1;stroke-miterlimit:10;" d="M 131.921875 449.867188 L 211.070312 463.421875 "/>
<path style="fill:none;stroke-width:1;stroke-linecap:butt;stroke-linejoin:miter;stroke:rgb(26.666667%,26.666667%,26.666667%);stroke-opacity:1;stroke-miterlimit:10;" d="M 187.308594 482.160156 L 238.53125 335.199219 "/>
<path style="fill:none;stroke-width:1;stroke-linecap:butt;stroke-linejoin:miter;stroke:rgb(26.666667%,26.666667%,26.666667%);stroke-opacity:1;stroke-miterlimit:10;" d="M 238.53125 335.199219 L 211.070312 463.421875 "/>
<path style="fill:none;stroke-width:1;stroke-linecap:butt;stroke-linejoin:miter;stroke:rgb(26.666667%,26.666667%,26.666667%);stroke-opacity:1;stroke-miterlimit:10;" d="M 50 432.226562 L 91.613281 278.234375 "/>
<path style="fill:none;stroke-width:1;stroke-linecap:butt;stroke-linejoin:miter;stroke:rgb(26.666667%,26.666667%,26.666667%);stroke-opacity:1;stroke-miterlimit:10;" d="M 91.613281 278.234375 L 111.992188 360.449219 "/>
<path style="fill:none;stroke-width:1;stroke-linecap:butt;stroke-linejoin:miter;stroke:rgb(26.666667%,26.666667%,26.666667%);stroke-opacity:1;stroke-miterlimit:10;" d="M 164.914062 366.058594 L 166.289062 448.25 "/>
<path style="fill:none;stroke-width:1;stroke-linecap:butt;stroke-linejoin:miter;stroke:rgb(26.666667%,26.666667%,26.666667%);stroke-opacity:1;stroke-miterlimit:10;" d="M 159.578125 465.761719 L 166.289062 448.25 "/>
<path style="fill:none;stroke-width:1;stroke-linecap:butt;stroke-linejoin:miter;stroke:rgb(26.666667%,26.666667%,26.666667%);stroke-opacity:1;stroke-miterlimit:10;" d="M 226.851562 519.757812 L 166.289062 448.25 "/>
<path style="fill:none;stroke-width:1;stroke-linecap:butt;stroke-linejoin:miter;stroke:rgb(26.666667%,26.666667%,26.666667%);stroke-opacity:1;stroke-miterlimit:10;" d="M 191.941406 533.136719 L 166.289062 448.25 "/>
<path style="fill:none;stroke-width:1;stroke-linecap:butt;stroke-linejoin:miter;stroke:rgb(26.666667%,26.666667%,26.666667%);stroke-opacity:1;stroke-miterlimit:10;" d="M 166.289062 448.25 L 211.070312 463.421875 "/>
<path style="fill:none;stroke-width:1;stroke-linecap:butt;stroke-linejoin:miter;stroke:rgb(26.666667%,26.666667%,26.666667%);stroke-opacity:1;stroke-miterlimit:10;" d="M 96.59375 295.011719 L 133.945312 279.492188 "/>
<path style="fill:none;stroke-width:1;stroke-linecap:butt;stroke-linejoin:miter;stroke:rgb(26.666667%,26.666667%,26.666667%);stroke-opacity:1;stroke-miterlimit:10;" d="M 96.59375 295.011719 L 111.992188 360.449219 "/>
<path style="fill:none;stroke-width:1;stroke-linecap:butt;stroke-linejoin:miter;stroke:rgb(26.666667%,26.666667%,26.666667%);stroke-opacity:1;stroke-miterlimit:10;" d="M 239.476562 317.738281 L 211.070312 463.421875 "/>
<path style="fill:none;stroke-width:1;stroke-linecap:butt;stroke-linejoin:miter;stroke:rgb(26.666667%,26.666667%,26.666667%);stroke-opacity:1;stroke-miterlimit:10;" d="M 164.914062 366.058594 L 133.945312 279.492188 "/>
<path style="fill:none;stroke-width:1;stroke-linecap:butt;stroke-linejoin:miter;stroke:rgb(26.666667%,26.666667%,26.666667%);stroke-opacity:1;stroke-miterlimit:10;" d="M 91.613281 278.234375 L 133.945312 279.492188 "/>
<path style="fill:none;stroke-width:1;stroke-linecap:butt;stroke-linejoin:miter;stroke:rgb(26.666667%,26.666667%,26.666667%);stroke-opacity:1;stroke-miterlimit:10;" d="M 133.945312 279.492188 L 111.992188 360.449219 "/>
<path style="fill:none;stroke-width:1;stroke-linecap:butt;stroke-linejoin:miter;stroke:rgb(26.666667%,26.666667%,26.666667%);stroke-opacity:1;stroke-miterlimit:10;" d="M 119.792969 573.257812 L 211.070312 463.421875 "/>
<path style="fill:none;stroke-width:1;stroke-linecap:butt;stroke-linejoin:miter;stroke:rgb(26.666667%,26.666667%,26.666667%);stroke-opacity:1;stroke-miterlimit:10;" d="M 199.871094 50 L 180.816406 178.847656 "/>
<path style="fill:none;stroke-width:1;stroke-linecap:butt;stroke-linejoin:miter;stroke:rgb(26.666667%,26.666667%,26.666667%);stroke-opacity:1;stroke-miterlimit:10;" d="M 180.816406 178.847656 L 111.992188 360.449219 "/>
<path style="fill:none;stroke-width:1;stroke-linecap:butt;stroke-linejoin:miter;stroke:rgb(26.666667%,26.666667%,26.666667%);stroke-opacity:1;stroke-miterlimit:10;" d="M 159.578125 465.761719 L 63.085938 455.675781 "/>
<path style="fill:none;stroke-width:1;stroke-linecap:butt;stroke-linejoin:miter;stroke:rgb(26.666667%,26.666667%,26.666667%);stroke-opacity:1;stroke-miterlimit:10;" d="M 59.652344 623.183594 L 122.71875 745.378906 "/>
<path style="fill:none;stroke-width:1;stroke-linecap:butt;stroke-linejoin:miter;stroke:rgb(26.666667%,26.666667%,26.666667%);stroke-opacity:1;stroke-miterlimit:10;" d="M 187.308594 482.160156 L 273.445312 437.792969 "/>
<path style="fill:none;stroke-width:1;stroke-linecap:butt;stroke-linejoin:miter;stroke:rgb(26.666667%,26.666667%,26.666667%);stroke-opacity:1;stroke-miterlimit:10;" d="M 273.445312 437.792969 L 211.070312 463.421875 "/>
<path style="fill:none;stroke-width:1;stroke-linecap:butt;stroke-linejoin:miter;stroke:rgb(26.666667%,26.666667%,26.666667%);stroke-opacity:1;stroke-miterlimit:10;" d="M 151.566406 176.925781 L 348.484375 626.035156 "/>
<path style="fill:none;stroke-width:1;stroke-linecap:butt;stroke-linejoin:miter;stroke:rgb(26.666667%,26.666667%,26.666667%);stroke-opacity:1;stroke-miterlimit:10;" d="M 350 465.636719 L 183.71875 486.800781 "/>
<path style="fill:none;stroke-width:1;stroke-linecap:butt;stroke-linejoin:miter;stroke:rgb(26.666667%,26.666667%,26.666667%);stroke-opacity:1;stroke-miterlimit:10;" d="M 226.851562 519.757812 L 263.070312 663.46875 "/>
<path style="fill:none;stroke-width:1;stroke-linecap:butt;stroke-linejoin:miter;stroke:rgb(26.666667%,26.666667%,26.666667%);stroke-opacity:1;stroke-miterlimit:10;" d="M 226.851562 519.757812 L 289.441406 556.46875 "/>
<path style="fill:none;stroke-width:1;stroke-linecap:butt;stroke-linejoin:miter;stroke:rgb(26.666667%,26.666667%,26.666667%);stroke-opacity:1;stroke-miterlimit:10;" d="M 191.941406 533.136719 L 289.441406 556.46875 "/>
<path style="fill:none;stroke-width:1;stroke-linecap:butt;stroke-linejoin:miter;stroke:rgb(26.666667%,26.666667%,26.666667%);stroke-opacity:1;stroke-miterlimit:10;" d="M 187.308594 482.160156 L 156.675781 353.988281 "/>
<path style="fill:none;stroke-width:1;stroke-linecap:butt;stroke-linejoin:miter;stroke:rgb(26.666667%,26.666667%,26.666667%);stroke-opacity:1;stroke-miterlimit:10;" d="M 156.675781 353.988281 L 211.070312 463.421875 "/>
<path style="fill:none;stroke-width:1;stroke-linecap:butt;stroke-linejoin:miter;stroke:rgb(26.666667%,26.666667%,26.666667%);stroke-opacity:1;stroke-miterlimit:10;" d="M 111.992188 360.449219 L 175.078125 578.441406 "/>
<path style="fill:none;stroke-width:1;stroke-linecap:butt;stroke-linejoin:miter;stroke:rgb(26.666667%,26.666667%,26.666667%);stroke-opacity:1;stroke-miterlimit:10;" d="M 350 465.636719 L 172.738281 508.808594 "/>
<path style="fill:none;stroke-width:1;stroke-linecap:butt;stroke-linejoin:miter;stroke:rgb(26.666667%,26.666667%,26.666667%);stroke-opacity:1;stroke-miterlimit:10;" d="M 73.347656 471.277344 L 270.464844 502.566406 "/>
<path style="fill:none;stroke-width:1;stroke-linecap:butt;stroke-linejoin:miter;stroke:rgb(26.666667%,26.666667%,26.666667%);stroke-opacity:1;stroke-miterlimit:10;" d="M 226.851562 519.757812 L 185.335938 484.519531 "/>
<path style="fill:none;stroke-width:1;stroke-linecap:butt;stroke-linejoin:miter;stroke:rgb(26.666667%,26.666667%,26.666667%);stroke-opacity:1;stroke-miterlimit:10;" d="M 191.941406 533.136719 L 230.585938 413.09375 "/>
<path style="fill:none;stroke-width:1;stroke-linecap:butt;stroke-linejoin:miter;stroke:rgb(26.666667%,26.666667%,26.666667%);stroke-opacity:1;stroke-miterlimit:10;" d="M 230.585938 413.09375 L 190.625 395.761719 "/>
<path style="fill:none;stroke-width:1;stroke-linecap:butt;stroke-linejoin:miter;stroke:rgb(26.666667%,26.666667%,26.666667%);stroke-opacity:1;stroke-miterlimit:10;" d="M 230.585938 413.09375 L 211.070312 463.421875 "/>
<path style="fill:none;stroke-width:1;stroke-linecap:butt;stroke-linejoin:miter;stroke:rgb(26.666667%,26.666667%,26.666667%);stroke-opacity:1;stroke-miterlimit:10;" d="M 191.941406 533.136719 L 271.378906 487.511719 "/>
<path style="fill:none;stroke-width:1;stroke-linecap:butt;stroke-linejoin:miter;stroke:rgb(26.666667%,26.666667%,26.666667%);stroke-opacity:1;stroke-miterlimit:10;" d="M 230.585938 413.09375 L 271.378906 487.511719 "/>
<path style="fill:none;stroke-width:1;stroke-linecap:butt;stroke-linejoin:miter;stroke:rgb(26.666667%,26.666667%,26.666667%);stroke-opacity:1;stroke-miterlimit:10;" d="M 271.378906 487.511719 L 175.078125 578.441406 "/>
<path style="fill:none;stroke-width:1;stroke-linecap:butt;stroke-linejoin:miter;stroke:rgb(26.666667%,26.666667%,26.666667%);stroke-opacity:1;stroke-miterlimit:10;" d="M 159.578125 465.761719 L 236.257812 421.351562 "/>
<path style="fill:none;stroke-width:1;stroke-linecap:butt;stroke-linejoin:miter;stroke:rgb(26.666667%,26.666667%,26.666667%);stroke-opacity:1;stroke-miterlimit:10;" d="M 236.257812 421.351562 L 208.488281 650.277344 "/>
<path style="fill:none;stroke-width:1;stroke-linecap:butt;stroke-linejoin:miter;stroke:rgb(26.666667%,26.666667%,26.666667%);stroke-opacity:1;stroke-miterlimit:10;" d="M 164.914062 366.058594 L 241.019531 431.191406 "/>
<path style="fill:none;stroke-width:1;stroke-linecap:butt;stroke-linejoin:miter;stroke:rgb(26.666667%,26.666667%,26.666667%);stroke-opacity:1;stroke-miterlimit:10;" d="M 159.578125 465.761719 L 241.019531 431.191406 "/>
<path style="fill:none;stroke-width:1;stroke-linecap:butt;stroke-linejoin:miter;stroke:rgb(26.666667%,26.666667%,26.666667%);stroke-opacity:1;stroke-miterlimit:10;" d="M 131.921875 449.867188 L 241.019531 431.191406 "/>
<path style="fill:none;stroke-width:1;stroke-linecap:butt;stroke-linejoin:miter;stroke:rgb(26.666667%,26.666667%,26.666667%);stroke-opacity:1;stroke-miterlimit:10;" d="M 159.578125 465.761719 L 93.25 358.019531 "/>
<path style="fill:none;stroke-width:1;stroke-linecap:butt;stroke-linejoin:miter;stroke:rgb(26.666667%,26.666667%,26.666667%);stroke-opacity:1;stroke-miterlimit:10;" d="M 122.71875 745.378906 L 208.488281 650.277344 "/>
<path style="fill:none;stroke-width:1;stroke-linecap:butt;stroke-linejoin:miter;stroke:rgb(26.666667%,26.666667%,26.666667%);stroke-opacity:1;stroke-miterlimit:10;" d="M 170.667969 662.1875 L 175.078125 578.441406 "/>
<path style="fill:none;stroke-width:1;stroke-linecap:butt;stroke-linejoin:miter;stroke:rgb(26.666667%,26.666667%,26.666667%);stroke-opacity:1;stroke-miterlimit:10;" d="M 141.148438 688.175781 L 175.078125 578.441406 "/>
<path style="fill:none;stroke-width:1;stroke-linecap:butt;stroke-linejoin:miter;stroke:rgb(26.666667%,26.666667%,26.666667%);stroke-opacity:1;stroke-miterlimit:10;" d="M 191.941406 533.136719 L 175.078125 578.441406 "/>
<path style="fill:none;stroke-width:1;stroke-linecap:butt;stroke-linejoin:miter;stroke:rgb(26.666667%,26.666667%,26.666667%);stroke-opacity:1;stroke-miterlimit:10;" d="M 191.941406 533.136719 L 211.070312 463.421875 "/>
<path style="fill:none;stroke-width:1;stroke-linecap:butt;stroke-linejoin:miter;stroke:rgb(26.666667%,26.666667%,26.666667%);stroke-opacity:1;stroke-miterlimit:10;" d="M 164.914062 366.058594 L 226.851562 519.757812 "/>
<path style="fill:none;stroke-width:1;stroke-linecap:butt;stroke-linejoin:miter;stroke:rgb(26.666667%,26.666667%,26.666667%);stroke-opacity:1;stroke-miterlimit:10;" d="M 110.15625 554.609375 L 170.667969 662.1875 "/>
<path style="fill:none;stroke-width:1;stroke-linecap:butt;stroke-linejoin:miter;stroke:rgb(26.666667%,26.666667%,26.666667%);stroke-opacity:1;stroke-miterlimit:10;" d="M 238.53125 335.199219 L 273.445312 437.792969 "/>
<path style="fill:none;stroke-width:1;stroke-linecap:butt;stroke-linejoin:miter;stroke:rgb(26.666667%,26.666667%,26.666667%);stroke-opacity:1;stroke-miterlimit:10;" d="M 292.078125 376.246094 L 211.070312 463.421875 "/>
<path style="fill-rule:nonzero;fill:rgb(100%,0%,0%);fill-opacity:1;stroke-width:1;stroke-linecap:butt;stroke-linejoin:miter;stroke:rgb(0%,0%,0%);stroke-opacity:1;stroke-miterlimit:10;" d="M 156.390625 625.746094 C 156.390625 631.269531 151.914062 635.746094 146.390625 635.746094 C 140.867188 635.746094 136.390625 631.269531 136.390625 625.746094 C 136.390625 620.226562 140.867188 615.746094 146.390625 615.746094 C 151.914062 615.746094 156.390625 620.226562 156.390625 625.746094 "/>
<path style="fill-rule:nonzero;fill:rgb(100%,0%,0%);fill-opacity:1;stroke-width:1;stroke-linecap:butt;stroke-linejoin:miter;stroke:rgb(0%,0%,0%);stroke-opacity:1;stroke-miterlimit:10;" d="M 208.25 316.75 C 208.25 322.273438 203.773438 326.75 198.25 326.75 C 192.730469 326.75 188.25 322.273438 188.25 316.75 C 188.25 311.226562 192.730469 306.75 198.25 306.75 C 203.773438 306.75 208.25 311.226562 208.25 316.75 "/>
<path style="fill-rule:nonzero;fill:rgb(100%,0%,0%);fill-opacity:1;stroke-width:1;stroke-linecap:butt;stroke-linejoin:miter;stroke:rgb(0%,0%,0%);stroke-opacity:1;stroke-miterlimit:10;" d="M 231.664062 238.359375 C 231.664062 243.882812 227.1875 248.359375 221.664062 248.359375 C 216.140625 248.359375 211.664062 243.882812 211.664062 238.359375 C 211.664062 232.835938 216.140625 228.359375 221.664062 228.359375 C 227.1875 228.359375 231.664062 232.835938 231.664062 238.359375 "/>
<path style="fill-rule:nonzero;fill:rgb(100%,0%,0%);fill-opacity:1;stroke-width:1;stroke-linecap:butt;stroke-linejoin:miter;stroke:rgb(0%,0%,0%);stroke-opacity:1;stroke-miterlimit:10;" d="M 258.179688 406.082031 C 258.179688 411.601562 253.703125 416.082031 248.179688 416.082031 C 242.65625 416.082031 238.179688 411.601562 238.179688 406.082031 C 238.179688 400.558594 242.65625 396.082031 248.179688 396.082031 C 253.703125 396.082031 258.179688 400.558594 258.179688 406.082031 "/>
<path style="fill-rule:nonzero;fill:rgb(100%,0%,0%);fill-opacity:1;stroke-width:1;stroke-linecap:butt;stroke-linejoin:miter;stroke:rgb(0%,0%,0%);stroke-opacity:1;stroke-miterlimit:10;" d="M 192.496094 447.609375 C 192.496094 453.132812 188.019531 457.609375 182.496094 457.609375 C 176.972656 457.609375 172.496094 453.132812 172.496094 447.609375 C 172.496094 442.085938 176.972656 437.609375 182.496094 437.609375 C 188.019531 437.609375 192.496094 442.085938 192.496094 447.609375 "/>
<path style="fill-rule:nonzero;fill:rgb(100%,0%,0%);fill-opacity:1;stroke-width:1;stroke-linecap:butt;stroke-linejoin:miter;stroke:rgb(0%,0%,0%);stroke-opacity:1;stroke-miterlimit:10;" d="M 174.914062 366.058594 C 174.914062 371.582031 170.4375 376.058594 164.914062 376.058594 C 159.390625 376.058594 154.914062 371.582031 154.914062 366.058594 C 154.914062 360.535156 159.390625 356.058594 164.914062 356.058594 C 170.4375 356.058594 174.914062 360.535156 174.914062 366.058594 "/>
<path style="fill-rule:nonzero;fill:rgb(100%,0%,0%);fill-opacity:1;stroke-width:1;stroke-linecap:butt;stroke-linejoin:miter;stroke:rgb(0%,0%,0%);stroke-opacity:1;stroke-miterlimit:10;" d="M 135.753906 431.710938 C 135.753906 437.234375 131.277344 441.710938 125.753906 441.710938 C 120.230469 441.710938 115.753906 437.234375 115.753906 431.710938 C 115.753906 426.1875 120.230469 421.710938 125.753906 421.710938 C 131.277344 421.710938 135.753906 426.1875 135.753906 431.710938 "/>
<path style="fill-rule:nonzero;fill:rgb(100%,0%,0%);fill-opacity:1;stroke-width:1;stroke-linecap:butt;stroke-linejoin:miter;stroke:rgb(0%,0%,0%);stroke-opacity:1;stroke-miterlimit:10;" d="M 181.261719 566.757812 C 181.261719 572.28125 176.785156 576.757812 171.261719 576.757812 C 165.738281 576.757812 161.261719 572.28125 161.261719 566.757812 C 161.261719 561.238281 165.738281 556.757812 171.261719 556.757812 C 176.785156 556.757812 181.261719 561.238281 181.261719 566.757812 "/>
<path style="fill-rule:nonzero;fill:rgb(100%,0%,0%);fill-opacity:1;stroke-width:1;stroke-linecap:butt;stroke-linejoin:miter;stroke:rgb(0%,0%,0%);stroke-opacity:1;stroke-miterlimit:10;" d="M 161.566406 176.925781 C 161.566406 182.445312 157.089844 186.925781 151.566406 186.925781 C 146.042969 186.925781 141.566406 182.445312 141.566406 176.925781 C 141.566406 171.402344 146.042969 166.925781 151.566406 166.925781 C 157.089844 166.925781 161.566406 171.402344 161.566406 176.925781 "/>
<path style="fill-rule:nonzero;fill:rgb(100%,0%,0%);fill-opacity:1;stroke-width:1;stroke-linecap:butt;stroke-linejoin:miter;stroke:rgb(0%,0%,0%);stroke-opacity:1;stroke-miterlimit:10;" d="M 142.304688 188.8125 C 142.304688 194.335938 137.828125 198.8125 132.304688 198.8125 C 126.78125 198.8125 122.304688 194.335938 122.304688 188.8125 C 122.304688 183.289062 126.78125 178.8125 132.304688 178.8125 C 137.828125 178.8125 142.304688 183.289062 142.304688 188.8125 "/>
<path style="fill-rule:nonzero;fill:rgb(100%,0%,0%);fill-opacity:1;stroke-width:1;stroke-linecap:butt;stroke-linejoin:miter;stroke:rgb(0%,0%,0%);stroke-opacity:1;stroke-miterlimit:10;" d="M 266.886719 750 C 266.886719 755.523438 262.410156 760 256.886719 760 C 251.363281 760 246.886719 755.523438 246.886719 750 C 246.886719 744.476562 251.363281 740 256.886719 740 C 262.410156 740 266.886719 744.476562 266.886719 750 "/>
<path style="fill-rule:nonzero;fill:rgb(100%,0%,0%);fill-opacity:1;stroke-width:1;stroke-linecap:butt;stroke-linejoin:miter;stroke:rgb(0%,0%,0%);stroke-opacity:1;stroke-miterlimit:10;" d="M 209.871094 50 C 209.871094 55.523438 205.394531 60 199.871094 60 C 194.351562 60 189.871094 55.523438 189.871094 50 C 189.871094 44.476562 194.351562 40 199.871094 40 C 205.394531 40 209.871094 44.476562 209.871094 50 "/>
<path style="fill-rule:nonzero;fill:rgb(100%,0%,0%);fill-opacity:1;stroke-width:1;stroke-linecap:butt;stroke-linejoin:miter;stroke:rgb(0%,0%,0%);stroke-opacity:1;stroke-miterlimit:10;" d="M 213.910156 489.71875 C 213.910156 495.242188 209.433594 499.71875 203.910156 499.71875 C 198.386719 499.71875 193.910156 495.242188 193.910156 489.71875 C 193.910156 484.195312 198.386719 479.71875 203.910156 479.71875 C 209.433594 479.71875 213.910156 484.195312 213.910156 489.71875 "/>
<path style="fill-rule:nonzero;fill:rgb(100%,0%,0%);fill-opacity:1;stroke-width:1;stroke-linecap:butt;stroke-linejoin:miter;stroke:rgb(0%,0%,0%);stroke-opacity:1;stroke-miterlimit:10;" d="M 338.488281 403.753906 C 338.488281 409.277344 334.011719 413.753906 328.488281 413.753906 C 322.96875 413.753906 318.488281 409.277344 318.488281 403.753906 C 318.488281 398.230469 322.96875 393.753906 328.488281 393.753906 C 334.011719 393.753906 338.488281 398.230469 338.488281 403.753906 "/>
<path style="fill-rule:nonzero;fill:rgb(100%,0%,0%);fill-opacity:1;stroke-width:1;stroke-linecap:butt;stroke-linejoin:miter;stroke:rgb(0%,0%,0%);stroke-opacity:1;stroke-miterlimit:10;" d="M 147.535156 507.882812 C 147.535156 513.40625 143.058594 517.882812 137.535156 517.882812 C 132.011719 517.882812 127.535156 513.40625 127.535156 507.882812 C 127.535156 502.359375 132.011719 497.882812 137.535156 497.882812 C 143.058594 497.882812 147.535156 502.359375 147.535156 507.882812 "/>
<path style="fill-rule:nonzero;fill:rgb(100%,0%,0%);fill-opacity:1;stroke-width:1;stroke-linecap:butt;stroke-linejoin:miter;stroke:rgb(0%,0%,0%);stroke-opacity:1;stroke-miterlimit:10;" d="M 173.824219 500.089844 C 173.824219 505.613281 169.347656 510.089844 163.824219 510.089844 C 158.300781 510.089844 153.824219 505.613281 153.824219 500.089844 C 153.824219 494.566406 158.300781 490.089844 163.824219 490.089844 C 169.347656 490.089844 173.824219 494.566406 173.824219 500.089844 "/>
<path style="fill-rule:nonzero;fill:rgb(100%,0%,0%);fill-opacity:1;stroke-width:1;stroke-linecap:butt;stroke-linejoin:miter;stroke:rgb(0%,0%,0%);stroke-opacity:1;stroke-miterlimit:10;" d="M 120.15625 554.609375 C 120.15625 560.132812 115.679688 564.609375 110.15625 564.609375 C 104.632812 564.609375 100.15625 560.132812 100.15625 554.609375 C 100.15625 549.085938 104.632812 544.609375 110.15625 544.609375 C 115.679688 544.609375 120.15625 549.085938 120.15625 554.609375 "/>
<path style="fill-rule:nonzero;fill:rgb(100%,0%,0%);fill-opacity:1;stroke-width:1;stroke-linecap:butt;stroke-linejoin:miter;stroke:rgb(0%,0%,0%);stroke-opacity:1;stroke-miterlimit:10;" d="M 238.859375 561.738281 C 238.859375 567.261719 234.378906 571.738281 228.859375 571.738281 C 223.335938 571.738281 218.859375 567.261719 218.859375 561.738281 C 218.859375 556.214844 223.335938 551.738281 228.859375 551.738281 C 234.378906 551.738281 238.859375 556.214844 238.859375 561.738281 "/>
<path style="fill-rule:nonzero;fill:rgb(100%,0%,0%);fill-opacity:1;stroke-width:1;stroke-linecap:butt;stroke-linejoin:miter;stroke:rgb(0%,0%,0%);stroke-opacity:1;stroke-miterlimit:10;" d="M 180.667969 662.1875 C 180.667969 667.707031 176.191406 672.1875 170.667969 672.1875 C 165.144531 672.1875 160.667969 667.707031 160.667969 662.1875 C 160.667969 656.664062 165.144531 652.1875 170.667969 652.1875 C 176.191406 652.1875 180.667969 656.664062 180.667969 662.1875 "/>
<path style="fill-rule:nonzero;fill:rgb(100%,0%,0%);fill-opacity:1;stroke-width:1;stroke-linecap:butt;stroke-linejoin:miter;stroke:rgb(0%,0%,0%);stroke-opacity:1;stroke-miterlimit:10;" d="M 151.148438 688.175781 C 151.148438 693.695312 146.671875 698.175781 141.148438 698.175781 C 135.628906 698.175781 131.148438 693.695312 131.148438 688.175781 C 131.148438 682.652344 135.628906 678.175781 141.148438 678.175781 C 146.671875 678.175781 151.148438 682.652344 151.148438 688.175781 "/>
<path style="fill-rule:nonzero;fill:rgb(100%,0%,0%);fill-opacity:1;stroke-width:1;stroke-linecap:butt;stroke-linejoin:miter;stroke:rgb(0%,0%,0%);stroke-opacity:1;stroke-miterlimit:10;" d="M 67.371094 435.671875 C 67.371094 441.195312 62.890625 445.671875 57.371094 445.671875 C 51.847656 445.671875 47.371094 441.195312 47.371094 435.671875 C 47.371094 430.148438 51.847656 425.671875 57.371094 425.671875 C 62.890625 425.671875 67.371094 430.148438 67.371094 435.671875 "/>
<path style="fill-rule:nonzero;fill:rgb(100%,0%,0%);fill-opacity:1;stroke-width:1;stroke-linecap:butt;stroke-linejoin:miter;stroke:rgb(0%,0%,0%);stroke-opacity:1;stroke-miterlimit:10;" d="M 197.308594 482.160156 C 197.308594 487.683594 192.832031 492.160156 187.308594 492.160156 C 181.785156 492.160156 177.308594 487.683594 177.308594 482.160156 C 177.308594 476.636719 181.785156 472.160156 187.308594 472.160156 C 192.832031 472.160156 197.308594 476.636719 197.308594 482.160156 "/>
<path style="fill-rule:nonzero;fill:rgb(100%,0%,0%);fill-opacity:1;stroke-width:1;stroke-linecap:butt;stroke-linejoin:miter;stroke:rgb(0%,0%,0%);stroke-opacity:1;stroke-miterlimit:10;" d="M 206.964844 444.800781 C 206.964844 450.320312 202.488281 454.800781 196.964844 454.800781 C 191.441406 454.800781 186.964844 450.320312 186.964844 444.800781 C 186.964844 439.277344 191.441406 434.800781 196.964844 434.800781 C 202.488281 434.800781 206.964844 439.277344 206.964844 444.800781 "/>
<path style="fill-rule:nonzero;fill:rgb(100%,0%,0%);fill-opacity:1;stroke-width:1;stroke-linecap:butt;stroke-linejoin:miter;stroke:rgb(0%,0%,0%);stroke-opacity:1;stroke-miterlimit:10;" d="M 211.769531 448.765625 C 211.769531 454.289062 207.292969 458.765625 201.769531 458.765625 C 196.246094 458.765625 191.769531 454.289062 191.769531 448.765625 C 191.769531 443.242188 196.246094 438.765625 201.769531 438.765625 C 207.292969 438.765625 211.769531 443.242188 211.769531 448.765625 "/>
<path style="fill-rule:nonzero;fill:rgb(100%,0%,0%);fill-opacity:1;stroke-width:1;stroke-linecap:butt;stroke-linejoin:miter;stroke:rgb(0%,0%,0%);stroke-opacity:1;stroke-miterlimit:10;" d="M 273.863281 573.304688 C 273.863281 578.824219 269.386719 583.304688 263.863281 583.304688 C 258.339844 583.304688 253.863281 578.824219 253.863281 573.304688 C 253.863281 567.78125 258.339844 563.304688 263.863281 563.304688 C 269.386719 563.304688 273.863281 567.78125 273.863281 573.304688 "/>
<path style="fill-rule:nonzero;fill:rgb(100%,0%,0%);fill-opacity:1;stroke-width:1;stroke-linecap:butt;stroke-linejoin:miter;stroke:rgb(0%,0%,0%);stroke-opacity:1;stroke-miterlimit:10;" d="M 169.578125 465.761719 C 169.578125 471.285156 165.097656 475.761719 159.578125 475.761719 C 154.054688 475.761719 149.578125 471.285156 149.578125 465.761719 C 149.578125 460.238281 154.054688 455.761719 159.578125 455.761719 C 165.097656 455.761719 169.578125 460.238281 169.578125 465.761719 "/>
<path style="fill-rule:nonzero;fill:rgb(100%,0%,0%);fill-opacity:1;stroke-width:1;stroke-linecap:butt;stroke-linejoin:miter;stroke:rgb(0%,0%,0%);stroke-opacity:1;stroke-miterlimit:10;" d="M 218.992188 742.203125 C 218.992188 747.726562 214.515625 752.203125 208.992188 752.203125 C 203.46875 752.203125 198.992188 747.726562 198.992188 742.203125 C 198.992188 736.679688 203.46875 732.203125 208.992188 732.203125 C 214.515625 732.203125 218.992188 736.679688 218.992188 742.203125 "/>
<path style="fill-rule:nonzero;fill:rgb(100%,0%,0%);fill-opacity:1;stroke-width:1;stroke-linecap:butt;stroke-linejoin:miter;stroke:rgb(0%,0%,0%);stroke-opacity:1;stroke-miterlimit:10;" d="M 236.851562 519.757812 C 236.851562 525.28125 232.375 529.757812 226.851562 529.757812 C 221.328125 529.757812 216.851562 525.28125 216.851562 519.757812 C 216.851562 514.238281 221.328125 509.757812 226.851562 509.757812 C 232.375 509.757812 236.851562 514.238281 236.851562 519.757812 "/>
<path style="fill-rule:nonzero;fill:rgb(100%,0%,0%);fill-opacity:1;stroke-width:1;stroke-linecap:butt;stroke-linejoin:miter;stroke:rgb(0%,0%,0%);stroke-opacity:1;stroke-miterlimit:10;" d="M 159.144531 615.164062 C 159.144531 620.683594 154.667969 625.164062 149.144531 625.164062 C 143.621094 625.164062 139.144531 620.683594 139.144531 615.164062 C 139.144531 609.640625 143.621094 605.164062 149.144531 605.164062 C 154.667969 605.164062 159.144531 609.640625 159.144531 615.164062 "/>
<path style="fill-rule:nonzero;fill:rgb(100%,0%,0%);fill-opacity:1;stroke-width:1;stroke-linecap:butt;stroke-linejoin:miter;stroke:rgb(0%,0%,0%);stroke-opacity:1;stroke-miterlimit:10;" d="M 201.941406 533.136719 C 201.941406 538.65625 197.464844 543.136719 191.941406 543.136719 C 186.417969 543.136719 181.941406 538.65625 181.941406 533.136719 C 181.941406 527.613281 186.417969 523.136719 191.941406 523.136719 C 197.464844 523.136719 201.941406 527.613281 201.941406 533.136719 "/>
<path style="fill-rule:nonzero;fill:rgb(100%,0%,0%);fill-opacity:1;stroke-width:1;stroke-linecap:butt;stroke-linejoin:miter;stroke:rgb(0%,0%,0%);stroke-opacity:1;stroke-miterlimit:10;" d="M 122.617188 640.726562 C 122.617188 646.25 118.140625 650.726562 112.617188 650.726562 C 107.09375 650.726562 102.617188 646.25 102.617188 640.726562 C 102.617188 635.203125 107.09375 630.726562 112.617188 630.726562 C 118.140625 630.726562 122.617188 635.203125 122.617188 640.726562 "/>
<path style="fill-rule:nonzero;fill:rgb(100%,0%,0%);fill-opacity:1;stroke-width:1;stroke-linecap:butt;stroke-linejoin:miter;stroke:rgb(0%,0%,0%);stroke-opacity:1;stroke-miterlimit:10;" d="M 60 432.226562 C 60 437.75 55.523438 442.226562 50 442.226562 C 44.476562 442.226562 40 437.75 40 432.226562 C 40 426.703125 44.476562 422.226562 50 422.226562 C 55.523438 422.226562 60 426.703125 60 432.226562 "/>
<path style="fill-rule:nonzero;fill:rgb(100%,0%,0%);fill-opacity:1;stroke-width:1;stroke-linecap:butt;stroke-linejoin:miter;stroke:rgb(0%,0%,0%);stroke-opacity:1;stroke-miterlimit:10;" d="M 261.800781 594.304688 C 261.800781 599.828125 257.324219 604.304688 251.800781 604.304688 C 246.277344 604.304688 241.800781 599.828125 241.800781 594.304688 C 241.800781 588.78125 246.277344 584.304688 251.800781 584.304688 C 257.324219 584.304688 261.800781 588.78125 261.800781 594.304688 "/>
<path style="fill-rule:nonzero;fill:rgb(100%,0%,0%);fill-opacity:1;stroke-width:1;stroke-linecap:butt;stroke-linejoin:miter;stroke:rgb(0%,0%,0%);stroke-opacity:1;stroke-miterlimit:10;" d="M 215.324219 487.085938 C 215.324219 492.609375 210.847656 497.085938 205.324219 497.085938 C 199.800781 497.085938 195.324219 492.609375 195.324219 487.085938 C 195.324219 481.5625 199.800781 477.085938 205.324219 477.085938 C 210.847656 477.085938 215.324219 481.5625 215.324219 487.085938 "/>
<path style="fill-rule:nonzero;fill:rgb(100%,0%,0%);fill-opacity:1;stroke-width:1;stroke-linecap:butt;stroke-linejoin:miter;stroke:rgb(0%,0%,0%);stroke-opacity:1;stroke-miterlimit:10;" d="M 208.890625 468.980469 C 208.890625 474.503906 204.414062 478.980469 198.890625 478.980469 C 193.367188 478.980469 188.890625 474.503906 188.890625 468.980469 C 188.890625 463.457031 193.367188 458.980469 198.890625 458.980469 C 204.414062 458.980469 208.890625 463.457031 208.890625 468.980469 "/>
<path style="fill-rule:nonzero;fill:rgb(100%,0%,0%);fill-opacity:1;stroke-width:1;stroke-linecap:butt;stroke-linejoin:miter;stroke:rgb(0%,0%,0%);stroke-opacity:1;stroke-miterlimit:10;" d="M 135.886719 527.003906 C 135.886719 532.527344 131.410156 537.003906 125.886719 537.003906 C 120.363281 537.003906 115.886719 532.527344 115.886719 527.003906 C 115.886719 521.480469 120.363281 517.003906 125.886719 517.003906 C 131.410156 517.003906 135.886719 521.480469 135.886719 527.003906 "/>
<path style="fill-rule:nonzero;fill:rgb(100%,0%,0%);fill-opacity:1;stroke-width:1;stroke-linecap:butt;stroke-linejoin:miter;stroke:rgb(0%,0%,0%);stroke-opacity:1;stroke-miterlimit:10;" d="M 234.628906 423.058594 C 234.628906 428.582031 230.152344 433.058594 224.628906 433.058594 C 219.105469 433.058594 214.628906 428.582031 214.628906 423.058594 C 214.628906 417.535156 219.105469 413.058594 224.628906 413.058594 C 230.152344 413.058594 234.628906 417.535156 234.628906 423.058594 "/>
<path style="fill-rule:nonzero;fill:rgb(100%,0%,0%);fill-opacity:1;stroke-width:1;stroke-linecap:butt;stroke-linejoin:miter;stroke:rgb(0%,0%,0%);stroke-opacity:1;stroke-miterlimit:10;" d="M 141.921875 449.867188 C 141.921875 455.390625 137.445312 459.867188 131.921875 459.867188 C 126.398438 459.867188 121.921875 455.390625 121.921875 449.867188 C 121.921875 444.347656 126.398438 439.867188 131.921875 439.867188 C 137.445312 439.867188 141.921875 444.347656 141.921875 449.867188 "/>
<path style="fill-rule:nonzero;fill:rgb(100%,0%,0%);fill-opacity:1;stroke-width:1;stroke-linecap:butt;stroke-linejoin:miter;stroke:rgb(0%,0%,0%);stroke-opacity:1;stroke-miterlimit:10;" d="M 248.53125 335.199219 C 248.53125 340.722656 244.054688 345.199219 238.53125 345.199219 C 233.007812 345.199219 228.53125 340.722656 228.53125 335.199219 C 228.53125 329.679688 233.007812 325.199219 238.53125 325.199219 C 244.054688 325.199219 248.53125 329.679688 248.53125 335.199219 "/>
<path style="fill-rule:nonzero;fill:rgb(100%,0%,0%);fill-opacity:1;stroke-width:1;stroke-linecap:butt;stroke-linejoin:miter;stroke:rgb(0%,0%,0%);stroke-opacity:1;stroke-miterlimit:10;" d="M 101.613281 278.234375 C 101.613281 283.757812 97.136719 288.234375 91.613281 288.234375 C 86.089844 288.234375 81.613281 283.757812 81.613281 278.234375 C 81.613281 272.710938 86.089844 268.234375 91.613281 268.234375 C 97.136719 268.234375 101.613281 272.710938 101.613281 278.234375 "/>
<path style="fill-rule:nonzero;fill:rgb(100%,0%,0%);fill-opacity:1;stroke-width:1;stroke-linecap:butt;stroke-linejoin:miter;stroke:rgb(0%,0%,0%);stroke-opacity:1;stroke-miterlimit:10;" d="M 176.289062 448.25 C 176.289062 453.773438 171.8125 458.25 166.289062 458.25 C 160.765625 458.25 156.289062 453.773438 156.289062 448.25 C 156.289062 442.730469 160.765625 438.25 166.289062 438.25 C 171.8125 438.25 176.289062 442.730469 176.289062 448.25 "/>
<path style="fill-rule:nonzero;fill:rgb(100%,0%,0%);fill-opacity:1;stroke-width:1;stroke-linecap:butt;stroke-linejoin:miter;stroke:rgb(0%,0%,0%);stroke-opacity:1;stroke-miterlimit:10;" d="M 106.59375 295.011719 C 106.59375 300.535156 102.117188 305.011719 96.59375 305.011719 C 91.074219 305.011719 86.59375 300.535156 86.59375 295.011719 C 86.59375 289.488281 91.074219 285.011719 96.59375 285.011719 C 102.117188 285.011719 106.59375 289.488281 106.59375 295.011719 "/>
<path style="fill-rule:nonzero;fill:rgb(100%,0%,0%);fill-opacity:1;stroke-width:1;stroke-linecap:butt;stroke-linejoin:miter;stroke:rgb(0%,0%,0%);stroke-opacity:1;stroke-miterlimit:10;" d="M 360 465.636719 C 360 471.160156 355.523438 475.636719 350 475.636719 C 344.476562 475.636719 340 471.160156 340 465.636719 C 340 460.113281 344.476562 455.636719 350 455.636719 C 355.523438 455.636719 360 460.113281 360 465.636719 "/>
<path style="fill-rule:nonzero;fill:rgb(100%,0%,0%);fill-opacity:1;stroke-width:1;stroke-linecap:butt;stroke-linejoin:miter;stroke:rgb(0%,0%,0%);stroke-opacity:1;stroke-miterlimit:10;" d="M 249.476562 317.738281 C 249.476562 323.261719 244.996094 327.738281 239.476562 327.738281 C 233.953125 327.738281 229.476562 323.261719 229.476562 317.738281 C 229.476562 312.214844 233.953125 307.738281 239.476562 307.738281 C 244.996094 307.738281 249.476562 312.214844 249.476562 317.738281 "/>
<path style="fill-rule:nonzero;fill:rgb(100%,0%,0%);fill-opacity:1;stroke-width:1;stroke-linecap:butt;stroke-linejoin:miter;stroke:rgb(0%,0%,0%);stroke-opacity:1;stroke-miterlimit:10;" d="M 302.078125 376.246094 C 302.078125 381.769531 297.601562 386.246094 292.078125 386.246094 C 286.554688 386.246094 282.078125 381.769531 282.078125 376.246094 C 282.078125 370.722656 286.554688 366.246094 292.078125 366.246094 C 297.601562 366.246094 302.078125 370.722656 302.078125 376.246094 "/>
<path style="fill-rule:nonzero;fill:rgb(100%,0%,0%);fill-opacity:1;stroke-width:1;stroke-linecap:butt;stroke-linejoin:miter;stroke:rgb(0%,0%,0%);stroke-opacity:1;stroke-miterlimit:10;" d="M 143.945312 279.492188 C 143.945312 285.015625 139.46875 289.492188 133.945312 289.492188 C 128.421875 289.492188 123.945312 285.015625 123.945312 279.492188 C 123.945312 273.96875 128.421875 269.492188 133.945312 269.492188 C 139.46875 269.492188 143.945312 273.96875 143.945312 279.492188 "/>
<path style="fill-rule:nonzero;fill:rgb(100%,0%,0%);fill-opacity:1;stroke-width:1;stroke-linecap:butt;stroke-linejoin:miter;stroke:rgb(0%,0%,0%);stroke-opacity:1;stroke-miterlimit:10;" d="M 129.792969 573.257812 C 129.792969 578.78125 125.316406 583.257812 119.792969 583.257812 C 114.269531 583.257812 109.792969 578.78125 109.792969 573.257812 C 109.792969 567.734375 114.269531 563.257812 119.792969 563.257812 C 125.316406 563.257812 129.792969 567.734375 129.792969 573.257812 "/>
<path style="fill-rule:nonzero;fill:rgb(100%,0%,0%);fill-opacity:1;stroke-width:1;stroke-linecap:butt;stroke-linejoin:miter;stroke:rgb(0%,0%,0%);stroke-opacity:1;stroke-miterlimit:10;" d="M 190.816406 178.847656 C 190.816406 184.371094 186.339844 188.847656 180.816406 188.847656 C 175.296875 188.847656 170.816406 184.371094 170.816406 178.847656 C 170.816406 173.328125 175.296875 168.847656 180.816406 168.847656 C 186.339844 168.847656 190.816406 173.328125 190.816406 178.847656 "/>
<path style="fill-rule:nonzero;fill:rgb(100%,0%,0%);fill-opacity:1;stroke-width:1;stroke-linecap:butt;stroke-linejoin:miter;stroke:rgb(0%,0%,0%);stroke-opacity:1;stroke-miterlimit:10;" d="M 73.085938 455.675781 C 73.085938 461.195312 68.609375 465.675781 63.085938 465.675781 C 57.5625 465.675781 53.085938 461.195312 53.085938 455.675781 C 53.085938 450.152344 57.5625 445.675781 63.085938 445.675781 C 68.609375 445.675781 73.085938 450.152344 73.085938 455.675781 "/>
<path style="fill-rule:nonzero;fill:rgb(100%,0%,0%);fill-opacity:1;stroke-width:1;stroke-linecap:butt;stroke-linejoin:miter;stroke:rgb(0%,0%,0%);stroke-opacity:1;stroke-miterlimit:10;" d="M 83.347656 471.277344 C 83.347656 476.800781 78.871094 481.277344 73.347656 481.277344 C 67.824219 481.277344 63.347656 476.800781 63.347656 471.277344 C 63.347656 465.753906 67.824219 461.277344 73.347656 461.277344 C 78.871094 461.277344 83.347656 465.753906 83.347656 471.277344 "/>
<path style="fill-rule:nonzero;fill:rgb(100%,0%,0%);fill-opacity:1;stroke-width:1;stroke-linecap:butt;stroke-linejoin:miter;stroke:rgb(0%,0%,0%);stroke-opacity:1;stroke-miterlimit:10;" d="M 69.652344 623.183594 C 69.652344 628.707031 65.175781 633.183594 59.652344 633.183594 C 54.132812 633.183594 49.652344 628.707031 49.652344 623.183594 C 49.652344 617.660156 54.132812 613.183594 59.652344 613.183594 C 65.175781 613.183594 69.652344 617.660156 69.652344 623.183594 "/>
<path style="fill-rule:nonzero;fill:rgb(100%,0%,0%);fill-opacity:1;stroke-width:1;stroke-linecap:butt;stroke-linejoin:miter;stroke:rgb(0%,0%,0%);stroke-opacity:1;stroke-miterlimit:10;" d="M 283.445312 437.792969 C 283.445312 443.3125 278.964844 447.792969 273.445312 447.792969 C 267.921875 447.792969 263.445312 443.3125 263.445312 437.792969 C 263.445312 432.269531 267.921875 427.792969 273.445312 427.792969 C 278.964844 427.792969 283.445312 432.269531 283.445312 437.792969 "/>
<path style="fill-rule:nonzero;fill:rgb(100%,0%,0%);fill-opacity:1;stroke-width:1;stroke-linecap:butt;stroke-linejoin:miter;stroke:rgb(0%,0%,0%);stroke-opacity:1;stroke-miterlimit:10;" d="M 358.484375 626.035156 C 358.484375 631.554688 354.007812 636.035156 348.484375 636.035156 C 342.960938 636.035156 338.484375 631.554688 338.484375 626.035156 C 338.484375 620.511719 342.960938 616.035156 348.484375 616.035156 C 354.007812 616.035156 358.484375 620.511719 358.484375 626.035156 "/>
<path style="fill-rule:nonzero;fill:rgb(100%,0%,0%);fill-opacity:1;stroke-width:1;stroke-linecap:butt;stroke-linejoin:miter;stroke:rgb(0%,0%,0%);stroke-opacity:1;stroke-miterlimit:10;" d="M 193.71875 486.800781 C 193.71875 492.324219 189.242188 496.800781 183.71875 496.800781 C 178.195312 496.800781 173.71875 492.324219 173.71875 486.800781 C 173.71875 481.277344 178.195312 476.800781 183.71875 476.800781 C 189.242188 476.800781 193.71875 481.277344 193.71875 486.800781 "/>
<path style="fill-rule:nonzero;fill:rgb(100%,0%,0%);fill-opacity:1;stroke-width:1;stroke-linecap:butt;stroke-linejoin:miter;stroke:rgb(0%,0%,0%);stroke-opacity:1;stroke-miterlimit:10;" d="M 273.070312 663.46875 C 273.070312 668.992188 268.589844 673.46875 263.070312 673.46875 C 257.546875 673.46875 253.070312 668.992188 253.070312 663.46875 C 253.070312 657.949219 257.546875 653.46875 263.070312 653.46875 C 268.589844 653.46875 273.070312 657.949219 273.070312 663.46875 "/>
<path style="fill-rule:nonzero;fill:rgb(100%,0%,0%);fill-opacity:1;stroke-width:1;stroke-linecap:butt;stroke-linejoin:miter;stroke:rgb(0%,0%,0%);stroke-opacity:1;stroke-miterlimit:10;" d="M 299.441406 556.46875 C 299.441406 561.988281 294.964844 566.46875 289.441406 566.46875 C 283.917969 566.46875 279.441406 561.988281 279.441406 556.46875 C 279.441406 550.945312 283.917969 546.46875 289.441406 546.46875 C 294.964844 546.46875 299.441406 550.945312 299.441406 556.46875 "/>
<path style="fill-rule:nonzero;fill:rgb(100%,0%,0%);fill-opacity:1;stroke-width:1;stroke-linecap:butt;stroke-linejoin:miter;stroke:rgb(0%,0%,0%);stroke-opacity:1;stroke-miterlimit:10;" d="M 166.675781 353.988281 C 166.675781 359.511719 162.199219 363.988281 156.675781 363.988281 C 151.152344 363.988281 146.675781 359.511719 146.675781 353.988281 C 146.675781 348.464844 151.152344 343.988281 156.675781 343.988281 C 162.199219 343.988281 166.675781 348.464844 166.675781 353.988281 "/>
<path style="fill-rule:nonzero;fill:rgb(100%,0%,0%);fill-opacity:1;stroke-width:1;stroke-linecap:butt;stroke-linejoin:miter;stroke:rgb(0%,0%,0%);stroke-opacity:1;stroke-miterlimit:10;" d="M 121.992188 360.449219 C 121.992188 365.96875 117.515625 370.449219 111.992188 370.449219 C 106.46875 370.449219 101.992188 365.96875 101.992188 360.449219 C 101.992188 354.925781 106.46875 350.449219 111.992188 350.449219 C 117.515625 350.449219 121.992188 354.925781 121.992188 360.449219 "/>
<path style="fill-rule:nonzero;fill:rgb(100%,0%,0%);fill-opacity:1;stroke-width:1;stroke-linecap:butt;stroke-linejoin:miter;stroke:rgb(0%,0%,0%);stroke-opacity:1;stroke-miterlimit:10;" d="M 182.738281 508.808594 C 182.738281 514.332031 178.261719 518.808594 172.738281 518.808594 C 167.214844 518.808594 162.738281 514.332031 162.738281 508.808594 C 162.738281 503.285156 167.214844 498.808594 172.738281 498.808594 C 178.261719 498.808594 182.738281 503.285156 182.738281 508.808594 "/>
<path style="fill-rule:nonzero;fill:rgb(100%,0%,0%);fill-opacity:1;stroke-width:1;stroke-linecap:butt;stroke-linejoin:miter;stroke:rgb(0%,0%,0%);stroke-opacity:1;stroke-miterlimit:10;" d="M 280.464844 502.566406 C 280.464844 508.089844 275.988281 512.566406 270.464844 512.566406 C 264.941406 512.566406 260.464844 508.089844 260.464844 502.566406 C 260.464844 497.042969 264.941406 492.566406 270.464844 492.566406 C 275.988281 492.566406 280.464844 497.042969 280.464844 502.566406 "/>
<path style="fill-rule:nonzero;fill:rgb(100%,0%,0%);fill-opacity:1;stroke-width:1;stroke-linecap:butt;stroke-linejoin:miter;stroke:rgb(0%,0%,0%);stroke-opacity:1;stroke-miterlimit:10;" d="M 195.335938 484.519531 C 195.335938 490.039062 190.859375 494.519531 185.335938 494.519531 C 179.8125 494.519531 175.335938 490.039062 175.335938 484.519531 C 175.335938 478.996094 179.8125 474.519531 185.335938 474.519531 C 190.859375 474.519531 195.335938 478.996094 195.335938 484.519531 "/>
<path style="fill-rule:nonzero;fill:rgb(100%,0%,0%);fill-opacity:1;stroke-width:1;stroke-linecap:butt;stroke-linejoin:miter;stroke:rgb(0%,0%,0%);stroke-opacity:1;stroke-miterlimit:10;" d="M 240.585938 413.09375 C 240.585938 418.617188 236.109375 423.09375 230.585938 423.09375 C 225.0625 423.09375 220.585938 418.617188 220.585938 413.09375 C 220.585938 407.574219 225.0625 403.09375 230.585938 403.09375 C 236.109375 403.09375 240.585938 407.574219 240.585938 413.09375 "/>
<path style="fill-rule:nonzero;fill:rgb(100%,0%,0%);fill-opacity:1;stroke-width:1;stroke-linecap:butt;stroke-linejoin:miter;stroke:rgb(0%,0%,0%);stroke-opacity:1;stroke-miterlimit:10;" d="M 281.378906 487.511719 C 281.378906 493.035156 276.898438 497.511719 271.378906 497.511719 C 265.855469 497.511719 261.378906 493.035156 261.378906 487.511719 C 261.378906 481.988281 265.855469 477.511719 271.378906 477.511719 C 276.898438 477.511719 281.378906 481.988281 281.378906 487.511719 "/>
<path style="fill-rule:nonzero;fill:rgb(100%,0%,0%);fill-opacity:1;stroke-width:1;stroke-linecap:butt;stroke-linejoin:miter;stroke:rgb(0%,0%,0%);stroke-opacity:1;stroke-miterlimit:10;" d="M 246.257812 421.351562 C 246.257812 426.875 241.78125 431.351562 236.257812 431.351562 C 230.734375 431.351562 226.257812 426.875 226.257812 421.351562 C 226.257812 415.828125 230.734375 411.351562 236.257812 411.351562 C 241.78125 411.351562 246.257812 415.828125 246.257812 421.351562 "/>
<path style="fill-rule:nonzero;fill:rgb(100%,0%,0%);fill-opacity:1;stroke-width:1;stroke-linecap:butt;stroke-linejoin:miter;stroke:rgb(0%,0%,0%);stroke-opacity:1;stroke-miterlimit:10;" d="M 200.625 395.761719 C 200.625 401.285156 196.144531 405.761719 190.625 405.761719 C 185.101562 405.761719 180.625 401.285156 180.625 395.761719 C 180.625 390.238281 185.101562 385.761719 190.625 385.761719 C 196.144531 385.761719 200.625 390.238281 200.625 395.761719 "/>
<path style="fill-rule:nonzero;fill:rgb(100%,0%,0%);fill-opacity:1;stroke-width:1;stroke-linecap:butt;stroke-linejoin:miter;stroke:rgb(0%,0%,0%);stroke-opacity:1;stroke-miterlimit:10;" d="M 251.019531 431.191406 C 251.019531 436.714844 246.542969 441.191406 241.019531 441.191406 C 235.496094 441.191406 231.019531 436.714844 231.019531 431.191406 C 231.019531 425.667969 235.496094 421.191406 241.019531 421.191406 C 246.542969 421.191406 251.019531 425.667969 251.019531 431.191406 "/>
<path style="fill-rule:nonzero;fill:rgb(100%,0%,0%);fill-opacity:1;stroke-width:1;stroke-linecap:butt;stroke-linejoin:miter;stroke:rgb(0%,0%,0%);stroke-opacity:1;stroke-miterlimit:10;" d="M 103.25 358.019531 C 103.25 363.542969 98.769531 368.019531 93.25 368.019531 C 87.726562 368.019531 83.25 363.542969 83.25 358.019531 C 83.25 352.496094 87.726562 348.019531 93.25 348.019531 C 98.769531 348.019531 103.25 352.496094 103.25 358.019531 "/>
<path style="fill-rule:nonzero;fill:rgb(100%,0%,0%);fill-opacity:1;stroke-width:1;stroke-linecap:butt;stroke-linejoin:miter;stroke:rgb(0%,0%,0%);stroke-opacity:1;stroke-miterlimit:10;" d="M 132.71875 745.378906 C 132.71875 750.902344 128.242188 755.378906 122.71875 755.378906 C 117.195312 755.378906 112.71875 750.902344 112.71875 745.378906 C 112.71875 739.855469 117.195312 735.378906 122.71875 735.378906 C 128.242188 735.378906 132.71875 739.855469 132.71875 745.378906 "/>
<path style="fill-rule:nonzero;fill:rgb(100%,0%,0%);fill-opacity:1;stroke-width:1;stroke-linecap:butt;stroke-linejoin:miter;stroke:rgb(0%,0%,0%);stroke-opacity:1;stroke-miterlimit:10;" d="M 185.078125 578.441406 C 185.078125 583.964844 180.601562 588.441406 175.078125 588.441406 C 169.554688 588.441406 165.078125 583.964844 165.078125 578.441406 C 165.078125 572.917969 169.554688 568.441406 175.078125 568.441406 C 180.601562 568.441406 185.078125 572.917969 185.078125 578.441406 "/>
<path style="fill-rule:nonzero;fill:rgb(100%,0%,0%);fill-opacity:1;stroke-width:1;stroke-linecap:butt;stroke-linejoin:miter;stroke:rgb(0%,0%,0%);stroke-opacity:1;stroke-miterlimit:10;" d="M 199.988281 470.558594 C 199.988281 476.082031 195.511719 480.558594 189.988281 480.558594 C 184.464844 480.558594 179.988281 476.082031 179.988281 470.558594 C 179.988281 465.035156 184.464844 460.558594 189.988281 460.558594 C 195.511719 460.558594 199.988281 465.035156 199.988281 470.558594 "/>
<path style="fill-rule:nonzero;fill:rgb(100%,0%,0%);fill-opacity:1;stroke-width:1;stroke-linecap:butt;stroke-linejoin:miter;stroke:rgb(0%,0%,0%);stroke-opacity:1;stroke-miterlimit:10;" d="M 221.070312 463.421875 C 221.070312 468.945312 216.59375 473.421875 211.070312 473.421875 C 205.546875 473.421875 201.070312 468.945312 201.070312 463.421875 C 201.070312 457.898438 205.546875 453.421875 211.070312 453.421875 C 216.59375 453.421875 221.070312 457.898438 221.070312 463.421875 "/>
<path style="fill-rule:nonzero;fill:rgb(100%,0%,0%);fill-opacity:1;stroke-width:1;stroke-linecap:butt;stroke-linejoin:miter;stroke:rgb(0%,0%,0%);stroke-opacity:1;stroke-miterlimit:10;" d="M 218.488281 650.277344 C 218.488281 655.800781 214.011719 660.277344 208.488281 660.277344 C 202.96875 660.277344 198.488281 655.800781 198.488281 650.277344 C 198.488281 644.753906 202.96875 640.277344 208.488281 640.277344 C 214.011719 640.277344 218.488281 644.753906 218.488281 650.277344 "/>
</g>
</svg>