<?xml version="1.0" encoding="UTF-8"?>
<svg xmlns="http://www.w3.org/2000/svg" xmlns:xlink="http://www.w3.org/1999/xlink" width="200pt" height="200pt" viewBox="0 0 200 200" version="1.1">
<g id="surface14">
<rect x="0" y="0" width="200" height="200" style="fill:rgb(100%,100%,100%);fill-opacity:1;stroke:none;"/>
<path style="fill:none;stroke-width:1;stroke-linecap:butt;stroke-linejoin:miter;stroke:rgb(26.666667%,26.666667%,26.666667%);stroke-opacity:1;stroke-miterlimit:10;" d="M 78.851562 100.171875 L 59.765625 134.742188 "/>
<path style="fill:none;stroke-width:1;stroke-linecap:butt;stroke-linejoin:miter;stroke:rgb(26.666667%,26.666667%,26.666667%);stroke-opacity:1;stroke-miterlimit:10;" d="M 59.765625 134.742188 L 106.714844 165.535156 "/>
<path style="fill:none;stroke-width:1;stroke-linecap:butt;stroke-linejoin:miter;stroke:rgb(26.666667%,26.666667%,26.666667%);stroke-opacity:1;stroke-miterlimit:10;" d="M 124.234375 106.132812 L 106.714844 165.535156 "/>
<path style="fill:none;stroke-width:1;stroke-linecap:butt;stroke-linejoin:miter;stroke:rgb(26.666667%,26.666667%,26.666667%);stroke-opacity:1;stroke-miterlimit:10;" d="M 78.851562 100.171875 L 106.4375 63.414062 "/>
<path style="fill:none;stroke-width:1;stroke-linecap:butt;stroke-linejoin:miter;stroke:rgb(26.666667%,26.666667%,26.666667%);stroke-opacity:1;stroke-miterlimit:10;" d="M 147.175781 42.3125 L 106.4375 63.414062 "/>
<path style="fill:none;stroke-width:1;stroke-linecap:butt;stroke-linejoin:miter;stroke:rgb(26.666667%,26.666667%,26.666667%);stroke-opacity:1;stroke-miterlimit:10;" d="M 59.765625 134.742188 L 92.046875 144.269531 "/>
<path style="fill:none;stroke-width:1;stroke-linecap:butt;stroke-linejoin:miter;stroke:rgb(26.666667%,26.666667%,26.666667%);stroke-opacity:1;stroke-miterlimit:10;" d="M 92.046875 144.269531 L 140.75 130.121094 "/>
<path style="fill:none;stroke-width:1;stroke-linecap:butt;stroke-linejoin:miter;stroke:rgb(26.666667%,26.666667%,26.666667%);stroke-opacity:1;stroke-miterlimit:10;" d="M 78.851562 100.171875 L 101.179688 119.878906 "/>
<path style="fill:none;stroke-width:1;stroke-linecap:butt;stroke-linejoin:miter;stroke:rgb(26.666667%,26.666667%,26.666667%);stroke-opacity:1;stroke-miterlimit:10;" d="M 106.4375 63.414062 L 101.179688 119.878906 "/>
<path style="fill:none;stroke-width:1;stroke-linecap:butt;stroke-linejoin:miter;stroke:rgb(26.666667%,26.666667%,26.666667%);stroke-opacity:1;stroke-miterlimit:10;" d="M 92.046875 144.269531 L 101.179688 119.878906 "/>
<path style="fill:none;stroke-width:1;stroke-linecap:butt;stroke-linejoin:miter;stroke:rgb(26.666667%,26.666667%,26.666667%);stroke-opacity:1;stroke-miterlimit:10;" d="M 59.765625 134.742188 L 20 133.777344 "/>
<path style="fill:none;stroke-width:1;stroke-linecap:butt;stroke-linejoin:miter;stroke:rgb(26.666667%,26.666667%,26.666667%);stroke-opacity:1;stroke-miterlimit:10;" d="M 106.4375 63.414062 L 68.355469 73.382812 "/>
<path style="fill:none;stroke-width:1;stroke-linecap:butt;stroke-linejoin:miter;stroke:rgb(26.666667%,26.666667%,26.666667%);stroke-opacity:1;stroke-miterlimit:10;" d="M 92.046875 144.269531 L 68.355469 73.382812 "/>
<path style="fill:none;stroke-width:1;stroke-linecap:butt;stroke-linejoin:miter;stroke:rgb(26.666667%,26.666667%,26.666667%);stroke-opacity:1;stroke-miterlimit:10;" d="M 59.765625 134.742188 L 31.769531 84.023438 "/>
<path style="fill:none;stroke-width:1;stroke-linecap:butt;stroke-linejoin:miter;stroke:rgb(26.666667%,26.666667%,26.666667%);stroke-opacity:1;stroke-miterlimit:10;" d="M 47.769531 33.664062 L 31.769531 84.023438 "/>
<path style="fill:none;stroke-width:1;stroke-linecap:butt;stroke-linejoin:miter;stroke:rgb(26.666667%,26.666667%,26.666667%);stroke-opacity:1;stroke-miterlimit:10;" d="M 20 133.777344 L 31.769531 84.023438 "/>
<path style="fill:none;stroke-width:1;stroke-linecap:butt;stroke-linejoin:miter;stroke:rgb(26.666667%,26.666667%,26.666667%);stroke-opacity:1;stroke-miterlimit:10;" d="M 68.355469 73.382812 L 31.769531 84.023438 "/>
<path style="fill:none;stroke-width:1;stroke-linecap:butt;stroke-linejoin:miter;stroke:rgb(26.666667%,26.666667%,26.666667%);stroke-opacity:1;stroke-miterlimit:10;" d="M 101.179688 119.878906 L 58.171875 102.507812 "/>
<path style="fill:none;stroke-width:1;stroke-linecap:butt;stroke-linejoin:miter;stroke:rgb(26.666667%,26.666667%,26.666667%);stroke-opacity:1;stroke-miterlimit:10;" d="M 68.355469 73.382812 L 58.171875 102.507812 "/>
<path style="fill:none;stroke-width:1;stroke-linecap:butt;stroke-linejoin:miter;stroke:rgb(26.666667%,26.666667%,26.666667%);stroke-opacity:1;stroke-miterlimit:10;" d="M 106.4375 63.414062 L 118.640625 20 "/>
<path style="fill:none;stroke-width:1;stroke-linecap:butt;stroke-linejoin:miter;stroke:rgb(26.666667%,26.666667%,26.666667%);stroke-opacity:1;stroke-miterlimit:10;" d="M 78.851562 100.171875 L 47.964844 151.132812 "/>
<path style="fill:none;stroke-width:1;stroke-linecap:butt;stroke-linejoin:miter;stroke:rgb(26.666667%,26.666667%,26.666667%);stroke-opacity:1;stroke-miterlimit:10;" d="M 20 133.777344 L 47.964844 151.132812 "/>
<path style="fill:none;stroke-width:1;stroke-linecap:butt;stroke-linejoin:miter;stroke:rgb(26.666667%,26.666667%,26.666667%);stroke-opacity:1;stroke-miterlimit:10;" d="M 58.171875 102.507812 L 47.964844 151.132812 "/>
<path style="fill:none;stroke-width:1;stroke-linecap:butt;stroke-linejoin:miter;stroke:rgb(26.666667%,26.666667%,26.666667%);stroke-opacity:1;stroke-miterlimit:10;" d="M 78.851562 100.171875 L 88.453125 59.847656 "/>
<path style="fill:none;stroke-width:1;stroke-linecap:butt;stroke-linejoin:miter;stroke:rgb(26.666667%,26.666667%,26.666667%);stroke-opacity:1;stroke-miterlimit:10;" d="M 124.234375 106.132812 L 88.453125 59.847656 "/>
<path style="fill:none;stroke-width:1;stroke-linecap:butt;stroke-linejoin:miter;stroke:rgb(26.666667%,26.666667%,26.666667%);stroke-opacity:1;stroke-miterlimit:10;" d="M 47.769531 33.664062 L 88.453125 59.847656 "/>
<path style="fill:none;stroke-width:1;stroke-linecap:butt;stroke-linejoin:miter;stroke:rgb(26.666667%,26.666667%,26.666667%);stroke-opacity:1;stroke-miterlimit:10;" d="M 58.171875 102.507812 L 88.453125 59.847656 "/>
<path style="fill:none;stroke-width:1;stroke-linecap:butt;stroke-linejoin:miter;stroke:rgb(26.666667%,26.666667%,26.666667%);stroke-opacity:1;stroke-miterlimit:10;" d="M 147.175781 42.3125 L 133.4375 70.792969 "/>
<path style="fill:none;stroke-width:1;stroke-linecap:butt;stroke-linejoin:miter;stroke:rgb(26.666667%,26.666667%,26.666667%);stroke-opacity:1;stroke-miterlimit:10;" d="M 124.234375 106.132812 L 133.4375 70.792969 "/>
<path style="fill:none;stroke-width:1;stroke-linecap:butt;stroke-linejoin:miter;stroke:rgb(26.666667%,26.666667%,26.666667%);stroke-opacity:1;stroke-miterlimit:10;" d="M 140.75 130.121094 L 133.4375 70.792969 "/>
<path style="fill:none;stroke-width:1;stroke-linecap:butt;stroke-linejoin:miter;stroke:rgb(26.666667%,26.666667%,26.666667%);stroke-opacity:1;stroke-miterlimit:10;" d="M 118.640625 20 L 133.4375 70.792969 "/>
<path style="fill:none;stroke-width:1;stroke-linecap:butt;stroke-linejoin:miter;stroke:rgb(26.666667%,26.666667%,26.666667%);stroke-opacity:1;stroke-miterlimit:10;" d="M 88.453125 59.847656 L 133.4375 70.792969 "/>
<path style="fill:none;stroke-width:1;stroke-linecap:butt;stroke-linejoin:miter;stroke:rgb(26.666667%,26.666667%,26.666667%);stroke-opacity:1;stroke-miterlimit:10;" d="M 147.175781 42.3125 L 180 21.023438 "/>
<path style="fill:none;stroke-width:1;stroke-linecap:butt;stroke-linejoin:miter;stroke:rgb(26.666667%,26.666667%,26.666667%);stroke-opacity:1;stroke-miterlimit:10;" d="M 92.046875 144.269531 L 80 180 "/>
<path style="fill:none;stroke-width:1;stroke-linecap:butt;stroke-linejoin:miter;stroke:rgb(26.666667%,26.666667%,26.666667%);stroke-opacity:1;stroke-miterlimit:10;" d="M 101.179688 119.878906 L 80 180 "/>
<path style="fill:none;stroke-width:1;stroke-linecap:butt;stroke-linejoin:miter;stroke:rgb(26.666667%,26.666667%,26.666667%);stroke-opacity:1;stroke-miterlimit:10;" d="M 47.964844 151.132812 L 80 180 "/>
<path style="fill-rule:nonzero;fill:rgb(100%,0%,0%);fill-opacity:1;stroke-width:1;stroke-linecap:butt;stroke-linejoin:miter;stroke:rgb(0%,0%,0%);stroke-opacity:1;stroke-miterlimit:10;" d="M 88.851562 100.171875 C 88.851562 105.695312 84.375 110.171875 78.851562 110.171875 C 73.328125 110.171875 68.851562 105.695312 68.851562 100.171875 C 68.851562 94.648438 73.328125 90.171875 78.851562 90.171875 C 84.375 90.171875 88.851562 94.648438 88.851562 100.171875 "/>
<path style="fill-rule:nonzero;fill:rgb(100%,0%,0%);fill-opacity:1;stroke-width:1;stroke-linecap:butt;stroke-linejoin:miter;stroke:rgb(0%,0%,0%);stroke-opacity:1;stroke-miterlimit:10;" d="M 69.765625 134.742188 C 69.765625 140.261719 65.289062 144.742188 59.765625 144.742188 C 54.242188 144.742188 49.765625 140.261719 49.765625 134.742188 C 49.765625 129.21875 54.242188 124.742188 59.765625 124.742188 C 65.289062 124.742188 69.765625 129.21875 69.765625 134.742188 "/>
<path style="fill-rule:nonzero;fill:rgb(100%,0%,0%);fill-opacity:1;stroke-width:1;stroke-linecap:butt;stroke-linejoin:miter;stroke:rgb(0%,0%,0%);stroke-opacity:1;stroke-miterlimit:10;" d="M 157.175781 42.3125 C 157.175781 47.832031 152.695312 52.3125 147.175781 52.3125 C 141.652344 52.3125 137.175781 47.832031 137.175781 42.3125 C 137.175781 36.789062 141.652344 32.3125 147.175781 32.3125 C 152.695312 32.3125 157.175781 36.789062 157.175781 42.3125 "/>
<path style="fill-rule:nonzero;fill:rgb(100%,0%,0%);fill-opacity:1;stroke-width:1;stroke-linecap:butt;stroke-linejoin:miter;stroke:rgb(0%,0%,0%);stroke-opacity:1;stroke-miterlimit:10;" d="M 134.234375 106.132812 C 134.234375 111.652344 129.757812 116.132812 124.234375 116.132812 C 118.710938 116.132812 114.234375 111.652344 114.234375 106.132812 C 114.234375 100.609375 118.710938 96.132812 124.234375 96.132812 C 129.757812 96.132812 134.234375 100.609375 134.234375 106.132812 "/>
<path style="fill-rule:nonzero;fill:rgb(100%,0%,0%);fill-opacity:1;stroke-width:1;stroke-linecap:butt;stroke-linejoin:miter;stroke:rgb(0%,0%,0%);stroke-opacity:1;stroke-miterlimit:10;" d="M 116.714844 165.535156 C 116.714844 171.058594 112.238281 175.535156 106.714844 175.535156 C 101.195312 175.535156 96.714844 171.058594 96.714844 165.535156 C 96.714844 160.015625 101.195312 155.535156 106.714844 155.535156 C 112.238281 155.535156 116.714844 160.015625 116.714844 165.535156 "/>
<path style="fill-rule:nonzero;fill:rgb(100%,0%,0%);fill-opacity:1;stroke-width:1;stroke-linecap:butt;stroke-linejoin:miter;stroke:rgb(0%,0%,0%);stroke-opacity:1;stroke-miterlimit:10;" d="M 116.4375 63.414062 C 116.4375 68.933594 111.960938 73.414062 106.4375 73.414062 C 100.914062 73.414062 96.4375 68.933594 96.4375 63.414062 C 96.4375 57.890625 100.914062 53.414062 106.4375 53.414062 C 111.960938 53.414062 116.4375 57.890625 116.4375 63.414062 "/>
<path style="fill-rule:nonzero;fill:rgb(100%,0%,0%);fill-opacity:1;stroke-width:1;stroke-linecap:butt;stroke-linejoin:miter;stroke:rgb(0%,0%,0%);stroke-opacity:1;stroke-miterlimit:10;" d="M 102.046875 144.269531 C 102.046875 149.789062 97.566406 154.269531 92.046875 154.269531 C 86.523438 154.269531 82.046875 149.789062 82.046875 144.269531 C 82.046875 138.746094 86.523438 134.269531 92.046875 134.269531 C 97.566406 134.269531 102.046875 138.746094 102.046875 144.269531 "/>
<path style="fill-rule:nonzero;fill:rgb(100%,0%,0%);fill-opacity:1;stroke-width:1;stroke-linecap:butt;stroke-linejoin:miter;stroke:rgb(0%,0%,0%);stroke-opacity:1;stroke-miterlimit:10;" d="M 150.75 130.121094 C 150.75 135.644531 146.273438 140.121094 140.75 140.121094 C 135.230469 140.121094 130.75 135.644531 130.75 130.121094 C 130.75 124.597656 135.230469 120.121094 140.75 120.121094 C 146.273438 120.121094 150.75 124.597656 150.75 130.121094 "/>
<path style="fill-rule:nonzero;fill:rgb(100%,0%,0%);fill-opacity:1;stroke-width:1;stroke-linecap:butt;stroke-linejoin:miter;stroke:rgb(0%,0%,0%);stroke-opacity:1;stroke-miterlimit:10;" d="M 111.179688 119.878906 C 111.179688 125.398438 106.703125 129.878906 101.179688 129.878906 C 95.65625 129.878906 91.179688 125.398438 91.179688 119.878906 C 91.179688 114.355469 95.65625 109.878906 101.179688 109.878906 C 106.703125 109.878906 111.179688 114.355469 111.179688 119.878906 "/>
<path style="fill-rule:nonzero;fill:rgb(100%,0%,0%);fill-opacity:1;stroke-width:1;stroke-linecap:butt;stroke-linejoin:miter;stroke:rgb(0%,0%,0%);stroke-opacity:1;stroke-miterlimit:10;" d="M 57.769531 33.664062 C 57.769531 39.1875 53.292969 43.664062 47.769531 43.664062 C 42.246094 43.664062 37.769531 39.1875 37.769531 33.664062 C 37.769531 28.140625 42.246094 23.664062 47.769531 23.664062 C 53.292969 23.664062 57.769531 28.140625 57.769531 33.664062 "/>
<path style="fill-rule:nonzero;fill:rgb(100%,0%,0%);fill-opacity:1;stroke-width:1;stroke-linecap:butt;stroke-linejoin:miter;stroke:rgb(0%,0%,0%);stroke-opacity:1;stroke-miterlimit:10;" d="M 30 133.777344 C 30 139.300781 25.523438 143.777344 20 143.777344 C 14.476562 143.777344 10 139.300781 10 133.777344 C 10 128.253906 14.476562 123.777344 20 123.777344 C 25.523438 123.777344 30 128.253906 30 133.777344 "/>
<path style="fill-rule:nonzero;fill:rgb(100%,0%,0%);fill-opacity:1;stroke-width:1;stroke-linecap:butt;stroke-linejoin:miter;stroke:rgb(0%,0%,0%);stroke-opacity:1;stroke-miterlimit:10;" d="M 78.355469 73.382812 C 78.355469 78.90625 73.878906 83.382812 68.355469 83.382812 C 62.832031 83.382812 58.355469 78.90625 58.355469 73.382812 C 58.355469 67.863281 62.832031 63.382812 68.355469 63.382812 C 73.878906 63.382812 78.355469 67.863281 78.355469 73.382812 "/>
<path style="fill-rule:nonzero;fill:rgb(100%,0%,0%);fill-opacity:1;stroke-width:1;stroke-linecap:butt;stroke-linejoin:miter;stroke:rgb(0%,0%,0%);stroke-opacity:1;stroke-miterlimit:10;" d="M 41.769531 84.023438 C 41.769531 89.546875 37.292969 94.023438 31.769531 94.023438 C 26.246094 94.023438 21.769531 89.546875 21.769531 84.023438 C 21.769531 78.5 26.246094 74.023438 31.769531 74.023438 C 37.292969 74.023438 41.769531 78.5 41.769531 84.023438 "/>
<path style="fill-rule:nonzero;fill:rgb(100%,0%,0%);fill-opacity:1;stroke-width:1;stroke-linecap:butt;stroke-linejoin:miter;stroke:rgb(0%,0%,0%);stroke-opacity:1;stroke-miterlimit:10;" d="M 68.171875 102.507812 C 68.171875 108.027344 63.695312 112.507812 58.171875 112.507812 C 52.648438 112.507812 48.171875 108.027344 48.171875 102.507812 C 48.171875 96.984375 52.648438 92.507812 58.171875 92.507812 C 63.695312 92.507812 68.171875 96.984375 68.171875 102.507812 "/>
<path style="fill-rule:nonzero;fill:rgb(100%,0%,0%);fill-opacity:1;stroke-width:1;stroke-linecap:butt;stroke-linejoin:miter;stroke:rgb(0%,0%,0%);stroke-opacity:1;stroke-miterlimit:10;" d="M 128.640625 20 C 128.640625 25.523438 124.164062 30 118.640625 30 C 113.117188 30 108.640625 25.523438 108.640625 20 C 108.640625 14.476562 113.117188 10 118.640625 10 C 124.164062 10 128.640625 14.476562 128.640625 20 "/>
<path style="fill-rule:nonzero;fill:rgb(100%,0%,0%);fill-opacity:1;stroke-width:1;stroke-linecap:butt;stroke-linejoin:miter;stroke:rgb(0%,0%,0%);stroke-opacity:1;stroke-miterlimit:10;" d="M 57.964844 151.132812 C 57.964844 156.65625 53.488281 161.132812 47.964844 161.132812 C 42.441406 161.132812 37.964844 156.65625 37.964844 151.132812 C 37.964844 145.609375 42.441406 141.132812 47.964844 141.132812 C 53.488281 141.132812 57.964844 145.609375 57.964844 151.132812 "/>
<path style="fill-rule:nonzero;fill:rgb(100%,0%,0%);fill-opacity:1;stroke-width:1;stroke-linecap:butt;stroke-linejoin:miter;stroke:rgb(0%,0%,0%);stroke-opacity:1;stroke-miterlimit:10;" d="M 98.453125 59.847656 C 98.453125 65.371094 93.976562 69.847656 88.453125 69.847656 C 82.929688 69.847656 78.453125 65.371094 78.453125 59.847656 C 78.453125 54.328125 82.929688 49.847656 88.453125 49.847656 C 93.976562 49.847656 98.453125 54.328125 98.453125 59.847656 "/>
<path style="fill-rule:nonzero;fill:rgb(100%,0%,0%);fill-opacity:1;stroke-width:1;stroke-linecap:butt;stroke-linejoin:miter;stroke:rgb(0%,0%,0%);stroke-opacity:1;stroke-miterlimit:10;" d="M 143.4375 70.792969 C 143.4375 76.316406 138.960938 80.792969 133.4375 80.792969 C 127.914062 80.792969 123.4375 76.316406 123.4375 70.792969 C 123.4375 65.269531 127.914062 60.792969 133.4375 60.792969 C 138.960938 60.792969 143.4375 65.269531 143.4375 70.792969 "/>
<path style="fill-rule:nonzero;fill:rgb(100%,0%,0%);fill-opacity:1;stroke-width:1;stroke-linecap:butt;stroke-linejoin:miter;stroke:rgb(0%,0%,0%);stroke-opacity:1;stroke-miterlimit:10;" d="M 190 21.023438 C 190 26.542969 185.523438 31.023438 180 31.023438 C 174.476562 31.023438 170 26.542969 170 21.023438 C 170 15.5 174.476562 11.023438 180 11.023438 C 185.523438 11.023438 190 15.5 190 21.023438 "/>
<path style="fill-rule:nonzero;fill:rgb(100%,0%,0%);fill-opacity:1;stroke-width:1;stroke-linecap:butt;stroke-linejoin:miter;stroke:rgb(0%,0%,0%);stroke-opacity:1;stroke-miterlimit:10;" d="M 90 180 C 90 185.523438 85.523438 190 80 190 C 74.476562 190 70 185.523438 70 180 C 70 174.476562 74.476562 170 80 170 C 85.523438 170 90 174.476562 90 180 "/>
</g>
</svg>
