<?xml version="1.0" encoding="UTF-8"?>
<svg xmlns="http://www.w3.org/2000/svg" xmlns:xlink="http://www.w3.org/1999/xlink" width="200pt" height="200pt" viewBox="0 0 200 200" version="1.1">
<g id="surface8">
<rect x="0" y="0" width="200" height="200" style="fill:rgb(100%,100%,100%);fill-opacity:1;stroke:none;"/>
<path style="fill:none;stroke-width:1;stroke-linecap:butt;stroke-linejoin:miter;stroke:rgb(26.666667%,26.666667%,26.666667%);stroke-opacity:1;stroke-miterlimit:10;" d="M 20 78.074219 L 25.148438 39.480469 "/>
<path style="fill:none;stroke-width:1;stroke-linecap:butt;stroke-linejoin:miter;stroke:rgb(26.666667%,26.666667%,26.666667%);stroke-opacity:1;stroke-miterlimit:10;" d="M 20 78.074219 L 40.992188 48.335938 "/>
<path style="fill:none;stroke-width:1;stroke-linecap:butt;stroke-linejoin:miter;stroke:rgb(26.666667%,26.666667%,26.666667%);stroke-opacity:1;stroke-miterlimit:10;" d="M 23.417969 156.078125 L 24.609375 142.796875 "/>
<path style="fill:none;stroke-width:1;stroke-linecap:butt;stroke-linejoin:miter;stroke:rgb(26.666667%,26.666667%,26.666667%);stroke-opacity:1;stroke-miterlimit:10;" d="M 23.417969 156.078125 L 66.015625 145.71875 "/>
<path style="fill:none;stroke-width:1;stroke-linecap:butt;stroke-linejoin:miter;stroke:rgb(26.666667%,26.666667%,26.666667%);stroke-opacity:1;stroke-miterlimit:10;" d="M 24.609375 142.796875 L 66.015625 145.71875 "/>
<path style="fill:none;stroke-width:1;stroke-linecap:butt;stroke-linejoin:miter;stroke:rgb(26.666667%,26.666667%,26.666667%);stroke-opacity:1;stroke-miterlimit:10;" d="M 25.148438 39.480469 L 40.992188 48.335938 "/>
<path style="fill:none;stroke-width:1;stroke-linecap:butt;stroke-linejoin:miter;stroke:rgb(26.666667%,26.666667%,26.666667%);stroke-opacity:1;stroke-miterlimit:10;" d="M 66.015625 145.71875 L 77.886719 99.695312 "/>
<path style="fill:none;stroke-width:1;stroke-linecap:butt;stroke-linejoin:miter;stroke:rgb(26.666667%,26.666667%,26.666667%);stroke-opacity:1;stroke-miterlimit:10;" d="M 66.015625 145.71875 L 90.023438 180 "/>
<path style="fill:none;stroke-width:1;stroke-linecap:butt;stroke-linejoin:miter;stroke:rgb(26.666667%,26.666667%,26.666667%);stroke-opacity:1;stroke-miterlimit:10;" d="M 66.015625 145.71875 L 112.625 139.6875 "/>
<path style="fill:none;stroke-width:1;stroke-linecap:butt;stroke-linejoin:miter;stroke:rgb(26.666667%,26.666667%,26.666667%);stroke-opacity:1;stroke-miterlimit:10;" d="M 77.886719 99.695312 L 101.722656 102.304688 "/>
<path style="fill:none;stroke-width:1;stroke-linecap:butt;stroke-linejoin:miter;stroke:rgb(26.666667%,26.666667%,26.666667%);stroke-opacity:1;stroke-miterlimit:10;" d="M 90.023438 180 L 112.625 139.6875 "/>
<path style="fill:none;stroke-width:1;stroke-linecap:butt;stroke-linejoin:miter;stroke:rgb(26.666667%,26.666667%,26.666667%);stroke-opacity:1;stroke-miterlimit:10;" d="M 101.722656 102.304688 L 112.625 139.6875 "/>
<path style="fill:none;stroke-width:1;stroke-linecap:butt;stroke-linejoin:miter;stroke:rgb(26.666667%,26.666667%,26.666667%);stroke-opacity:1;stroke-miterlimit:10;" d="M 101.722656 102.304688 L 129.921875 135.753906 "/>
<path style="fill:none;stroke-width:1;stroke-linecap:butt;stroke-linejoin:miter;stroke:rgb(26.666667%,26.666667%,26.666667%);stroke-opacity:1;stroke-miterlimit:10;" d="M 102.972656 42.585938 L 144.574219 53.527344 "/>
<path style="fill:none;stroke-width:1;stroke-linecap:butt;stroke-linejoin:miter;stroke:rgb(26.666667%,26.666667%,26.666667%);stroke-opacity:1;stroke-miterlimit:10;" d="M 112.625 139.6875 L 129.921875 135.753906 "/>
<path style="fill:none;stroke-width:1;stroke-linecap:butt;stroke-linejoin:miter;stroke:rgb(26.666667%,26.666667%,26.666667%);stroke-opacity:1;stroke-miterlimit:10;" d="M 129.921875 135.753906 L 153.496094 179.339844 "/>
<path style="fill:none;stroke-width:1;stroke-linecap:butt;stroke-linejoin:miter;stroke:rgb(26.666667%,26.666667%,26.666667%);stroke-opacity:1;stroke-miterlimit:10;" d="M 129.921875 135.753906 L 169.796875 124.75 "/>
<path style="fill:none;stroke-width:1;stroke-linecap:butt;stroke-linejoin:miter;stroke:rgb(26.666667%,26.666667%,26.666667%);stroke-opacity:1;stroke-miterlimit:10;" d="M 129.921875 135.753906 L 172.925781 118.4375 "/>
<path style="fill:none;stroke-width:1;stroke-linecap:butt;stroke-linejoin:miter;stroke:rgb(26.666667%,26.666667%,26.666667%);stroke-opacity:1;stroke-miterlimit:10;" d="M 129.921875 135.753906 L 175.363281 151.632812 "/>
<path style="fill:none;stroke-width:1;stroke-linecap:butt;stroke-linejoin:miter;stroke:rgb(26.666667%,26.666667%,26.666667%);stroke-opacity:1;stroke-miterlimit:10;" d="M 144.574219 53.527344 L 169.917969 20 "/>
<path style="fill:none;stroke-width:1;stroke-linecap:butt;stroke-linejoin:miter;stroke:rgb(26.666667%,26.666667%,26.666667%);stroke-opacity:1;stroke-miterlimit:10;" d="M 144.574219 53.527344 L 176.011719 78.871094 "/>
<path style="fill:none;stroke-width:1;stroke-linecap:butt;stroke-linejoin:miter;stroke:rgb(26.666667%,26.666667%,26.666667%);stroke-opacity:1;stroke-miterlimit:10;" d="M 153.496094 179.339844 L 175.363281 151.632812 "/>
<path style="fill:none;stroke-width:1;stroke-linecap:butt;stroke-linejoin:miter;stroke:rgb(26.666667%,26.666667%,26.666667%);stroke-opacity:1;stroke-miterlimit:10;" d="M 153.496094 179.339844 L 180 172.714844 "/>
<path style="fill:none;stroke-width:1;stroke-linecap:butt;stroke-linejoin:miter;stroke:rgb(26.666667%,26.666667%,26.666667%);stroke-opacity:1;stroke-miterlimit:10;" d="M 169.796875 124.75 L 172.925781 118.4375 "/>
<path style="fill:none;stroke-width:1;stroke-linecap:butt;stroke-linejoin:miter;stroke:rgb(26.666667%,26.666667%,26.666667%);stroke-opacity:1;stroke-miterlimit:10;" d="M 169.796875 124.75 L 175.363281 151.632812 "/>
<path style="fill:none;stroke-width:1;stroke-linecap:butt;stroke-linejoin:miter;stroke:rgb(26.666667%,26.666667%,26.666667%);stroke-opacity:1;stroke-miterlimit:10;" d="M 169.796875 124.75 L 176.011719 78.871094 "/>
<path style="fill:none;stroke-width:1;stroke-linecap:butt;stroke-linejoin:miter;stroke:rgb(26.666667%,26.666667%,26.666667%);stroke-opacity:1;stroke-miterlimit:10;" d="M 169.796875 124.75 L 180 172.714844 "/>
<path style="fill:none;stroke-width:1;stroke-linecap:butt;stroke-linejoin:miter;stroke:rgb(26.666667%,26.666667%,26.666667%);stroke-opacity:1;stroke-miterlimit:10;" d="M 172.925781 118.4375 L 175.363281 151.632812 "/>
<path style="fill:none;stroke-width:1;stroke-linecap:butt;stroke-linejoin:miter;stroke:rgb(26.666667%,26.666667%,26.666667%);stroke-opacity:1;stroke-miterlimit:10;" d="M 172.925781 118.4375 L 176.011719 78.871094 "/>
<path style="fill:none;stroke-width:1;stroke-linecap:butt;stroke-linejoin:miter;stroke:rgb(26.666667%,26.666667%,26.666667%);stroke-opacity:1;stroke-miterlimit:10;" d="M 175.363281 151.632812 L 180 172.714844 "/>
<path style="fill-rule:nonzero;fill:rgb(100%,0%,0%);fill-opacity:1;stroke-width:1;stroke-linecap:butt;stroke-linejoin:miter;stroke:rgb(0%,0%,0%);stroke-opacity:1;stroke-miterlimit:10;" d="M 30 78.074219 C 30 83.597656 25.523438 88.074219 20 88.074219 C 14.476562 88.074219 10 83.597656 10 78.074219 C 10 72.554688 14.476562 68.074219 20 68.074219 C 25.523438 68.074219 30 72.554688 30 78.074219 "/>
<path style="fill-rule:nonzero;fill:rgb(100%,0%,0%);fill-opacity:1;stroke-width:1;stroke-linecap:butt;stroke-linejoin:miter;stroke:rgb(0%,0%,0%);stroke-opacity:1;stroke-miterlimit:10;" d="M 33.417969 156.078125 C 33.417969 161.601562 28.941406 166.078125 23.417969 166.078125 C 17.894531 166.078125 13.417969 161.601562 13.417969 156.078125 C 13.417969 150.554688 17.894531 146.078125 23.417969 146.078125 C 28.941406 146.078125 33.417969 150.554688 33.417969 156.078125 "/>
<path style="fill-rule:nonzero;fill:rgb(100%,0%,0%);fill-opacity:1;stroke-width:1;stroke-linecap:butt;stroke-linejoin:miter;stroke:rgb(0%,0%,0%);stroke-opacity:1;stroke-miterlimit:10;" d="M 34.609375 142.796875 C 34.609375 148.320312 30.132812 152.796875 24.609375 152.796875 C 19.085938 152.796875 14.609375 148.320312 14.609375 142.796875 C 14.609375 137.273438 19.085938 132.796875 24.609375 132.796875 C 30.132812 132.796875 34.609375 137.273438 34.609375 142.796875 "/>
<path style="fill-rule:nonzero;fill:rgb(100%,0%,0%);fill-opacity:1;stroke-width:1;stroke-linecap:butt;stroke-linejoin:miter;stroke:rgb(0%,0%,0%);stroke-opacity:1;stroke-miterlimit:10;" d="M 35.148438 39.480469 C 35.148438 45.003906 30.667969 49.480469 25.148438 49.480469 C 19.625 49.480469 15.148438 45.003906 15.148438 39.480469 C 15.148438 33.957031 19.625 29.480469 25.148438 29.480469 C 30.667969 29.480469 35.148438 33.957031 35.148438 39.480469 "/>
<path style="fill-rule:nonzero;fill:rgb(100%,0%,0%);fill-opacity:1;stroke-width:1;stroke-linecap:butt;stroke-linejoin:miter;stroke:rgb(0%,0%,0%);stroke-opacity:1;stroke-miterlimit:10;" d="M 50.992188 48.335938 C 50.992188 53.859375 46.511719 58.335938 40.992188 58.335938 C 35.46875 58.335938 30.992188 53.859375 30.992188 48.335938 C 30.992188 42.8125 35.46875 38.335938 40.992188 38.335938 C 46.511719 38.335938 50.992188 42.8125 50.992188 48.335938 "/>
<path style="fill-rule:nonzero;fill:rgb(100%,0%,0%);fill-opacity:1;stroke-width:1;stroke-linecap:butt;stroke-linejoin:miter;stroke:rgb(0%,0%,0%);stroke-opacity:1;stroke-miterlimit:10;" d="M 76.015625 145.71875 C 76.015625 151.242188 71.539062 155.71875 66.015625 155.71875 C 60.492188 155.71875 56.015625 151.242188 56.015625 145.71875 C 56.015625 140.195312 60.492188 135.71875 66.015625 135.71875 C 71.539062 135.71875 76.015625 140.195312 76.015625 145.71875 "/>
<path style="fill-rule:nonzero;fill:rgb(100%,0%,0%);fill-opacity:1;stroke-width:1;stroke-linecap:butt;stroke-linejoin:miter;stroke:rgb(0%,0%,0%);stroke-opacity:1;stroke-miterlimit:10;" d="M 87.886719 99.695312 C 87.886719 105.21875 83.410156 109.695312 77.886719 109.695312 C 72.363281 109.695312 67.886719 105.21875 67.886719 99.695312 C 67.886719 94.171875 72.363281 89.695312 77.886719 89.695312 C 83.410156 89.695312 87.886719 94.171875 87.886719 99.695312 "/>
<path style="fill-rule:nonzero;fill:rgb(100%,0%,0%);fill-opacity:1;stroke-width:1;stroke-linecap:butt;stroke-linejoin:miter;stroke:rgb(0%,0%,0%);stroke-opacity:1;stroke-miterlimit:10;" d="M 100.023438 180 C 100.023438 185.523438 95.546875 190 90.023438 190 C 84.5 190 80.023438 185.523438 80.023438 180 C 80.023438 174.476562 84.5 170 90.023438 170 C 95.546875 170 100.023438 174.476562 100.023438 180 "/>
<path style="fill-rule:nonzero;fill:rgb(100%,0%,0%);fill-opacity:1;stroke-width:1;stroke-linecap:butt;stroke-linejoin:miter;stroke:rgb(0%,0%,0%);stroke-opacity:1;stroke-miterlimit:10;" d="M 111.722656 102.304688 C 111.722656 107.828125 107.246094 112.304688 101.722656 112.304688 C 96.199219 112.304688 91.722656 107.828125 91.722656 102.304688 C 91.722656 96.78125 96.199219 92.304688 101.722656 92.304688 C 107.246094 92.304688 111.722656 96.78125 111.722656 102.304688 "/>
<path style="fill-rule:nonzero;fill:rgb(100%,0%,0%);fill-opacity:1;stroke-width:1;stroke-linecap:butt;stroke-linejoin:miter;stroke:rgb(0%,0%,0%);stroke-opacity:1;stroke-miterlimit:10;" d="M 112.972656 42.585938 C 112.972656 48.109375 108.492188 52.585938 102.972656 52.585938 C 97.449219 52.585938 92.972656 48.109375 92.972656 42.585938 C 92.972656 37.0625 97.449219 32.585938 102.972656 32.585938 C 108.492188 32.585938 112.972656 37.0625 112.972656 42.585938 "/>
<path style="fill-rule:nonzero;fill:rgb(100%,0%,0%);fill-opacity:1;stroke-width:1;stroke-linecap:butt;stroke-linejoin:miter;stroke:rgb(0%,0%,0%);stroke-opacity:1;stroke-miterlimit:10;" d="M 122.625 139.6875 C 122.625 145.210938 118.148438 149.6875 112.625 149.6875 C 107.101562 149.6875 102.625 145.210938 102.625 139.6875 C 102.625 134.167969 107.101562 129.6875 112.625 129.6875 C 118.148438 129.6875 122.625 134.167969 122.625 139.6875 "/>
<path style="fill-rule:nonzero;fill:rgb(100%,0%,0%);fill-opacity:1;stroke-width:1;stroke-linecap:butt;stroke-linejoin:miter;stroke:rgb(0%,0%,0%);stroke-opacity:1;stroke-miterlimit:10;" d="M 139.921875 135.753906 C 139.921875 141.277344 135.445312 145.753906 129.921875 145.753906 C 124.398438 145.753906 119.921875 141.277344 119.921875 135.753906 C 119.921875 130.230469 124.398438 125.753906 129.921875 125.753906 C 135.445312 125.753906 139.921875 130.230469 139.921875 135.753906 "/>
<path style="fill-rule:nonzero;fill:rgb(100%,0%,0%);fill-opacity:1;stroke-width:1;stroke-linecap:butt;stroke-linejoin:miter;stroke:rgb(0%,0%,0%);stroke-opacity:1;stroke-miterlimit:10;" d="M 154.574219 53.527344 C 154.574219 59.050781 150.097656 63.527344 144.574219 63.527344 C 139.050781 63.527344 134.574219 59.050781 134.574219 53.527344 C 134.574219 48.003906 139.050781 43.527344 144.574219 43.527344 C 150.097656 43.527344 154.574219 48.003906 154.574219 53.527344 "/>
<path style="fill-rule:nonzero;fill:rgb(100%,0%,0%);fill-opacity:1;stroke-width:1;stroke-linecap:butt;stroke-linejoin:miter;stroke:rgb(0%,0%,0%);stroke-opacity:1;stroke-miterlimit:10;" d="M 163.496094 179.339844 C 163.496094 184.863281 159.019531 189.339844 153.496094 189.339844 C 147.976562 189.339844 143.496094 184.863281 143.496094 179.339844 C 143.496094 173.816406 147.976562 169.339844 153.496094 169.339844 C 159.019531 169.339844 163.496094 173.816406 163.496094 179.339844 "/>
<path style="fill-rule:nonzero;fill:rgb(100%,0%,0%);fill-opacity:1;stroke-width:1;stroke-linecap:butt;stroke-linejoin:miter;stroke:rgb(0%,0%,0%);stroke-opacity:1;stroke-miterlimit:10;" d="M 179.796875 124.75 C 179.796875 130.273438 175.320312 134.75 169.796875 134.75 C 164.273438 134.75 159.796875 130.273438 159.796875 124.75 C 159.796875 119.226562 164.273438 114.75 169.796875 114.75 C 175.320312 114.75 179.796875 119.226562 179.796875 124.75 "/>
<path style="fill-rule:nonzero;fill:rgb(100%,0%,0%);fill-opacity:1;stroke-width:1;stroke-linecap:butt;stroke-linejoin:miter;stroke:rgb(0%,0%,0%);stroke-opacity:1;stroke-miterlimit:10;" d="M 179.917969 20 C 179.917969 25.523438 175.441406 30 169.917969 30 C 164.394531 30 159.917969 25.523438 159.917969 20 C 159.917969 14.476562 164.394531 10 169.917969 10 C 175.441406 10 179.917969 14.476562 179.917969 20 "/>
<path style="fill-rule:nonzero;fill:rgb(100%,0%,0%);fill-opacity:1;stroke-width:1;stroke-linecap:butt;stroke-linejoin:miter;stroke:rgb(0%,0%,0%);stroke-opacity:1;stroke-miterlimit:10;" d="M 182.925781 118.4375 C 182.925781 123.960938 178.449219 128.4375 172.925781 128.4375 C 167.402344 128.4375 162.925781 123.960938 162.925781 118.4375 C 162.925781 112.914062 167.402344 108.4375 172.925781 108.4375 C 178.449219 108.4375 182.925781 112.914062 182.925781 118.4375 "/>
<path style="fill-rule:nonzero;fill:rgb(100%,0%,0%);fill-opacity:1;stroke-width:1;stroke-linecap:butt;stroke-linejoin:miter;stroke:rgb(0%,0%,0%);stroke-opacity:1;stroke-miterlimit:10;" d="M 185.363281 151.632812 C 185.363281 157.15625 180.882812 161.632812 175.363281 161.632812 C 169.839844 161.632812 165.363281 157.15625 165.363281 151.632812 C 165.363281 146.109375 169.839844 141.632812 175.363281 141.632812 C 180.882812 141.632812 185.363281 146.109375 185.363281 151.632812 "/>
<path style="fill-rule:nonzero;fill:rgb(100%,0%,0%);fill-opacity:1;stroke-width:1;stroke-linecap:butt;stroke-linejoin:miter;stroke:rgb(0%,0%,0%);stroke-opacity:1;stroke-miterlimit:10;" d="M 186.011719 78.871094 C 186.011719 84.394531 181.535156 88.871094 176.011719 88.871094 C 170.488281 88.871094 166.011719 84.394531 166.011719 78.871094 C 166.011719 73.351562 170.488281 68.871094 176.011719 68.871094 C 181.535156 68.871094 186.011719 73.351562 186.011719 78.871094 "/>
<path style="fill-rule:nonzero;fill:rgb(100%,0%,0%);fill-opacity:1;stroke-width:1;stroke-linecap:butt;stroke-linejoin:miter;stroke:rgb(0%,0%,0%);stroke-opacity:1;stroke-miterlimit:10;" d="M 190 172.714844 C 190 178.238281 185.523438 182.714844 180 182.714844 C 174.476562 182.714844 170 178.238281 170 172.714844 C 170 167.191406 174.476562 162.714844 180 162.714844 C 185.523438 162.714844 190 167.191406 190 172.714844 "/>
</g>
</svg>
