<?xml version="1.0" encoding="UTF-8"?>
<svg xmlns="http://www.w3.org/2000/svg" xmlns:xlink="http://www.w3.org/1999/xlink" width="200pt" height="200pt" viewBox="0 0 200 200" version="1.1">
<g id="surface14">
<rect x="0" y="0" width="200" height="200" style="fill:rgb(100%,100%,100%);fill-opacity:1;stroke:none;"/>
<path style="fill:none;stroke-width:1;stroke-linecap:butt;stroke-linejoin:miter;stroke:rgb(26.666667%,26.666667%,26.666667%);stroke-opacity:1;stroke-miterlimit:10;" d="M 130.289062 83.539062 L 88.046875 93.023438 "/>
<path style="fill:none;stroke-width:1;stroke-linecap:butt;stroke-linejoin:miter;stroke:rgb(26.666667%,26.666667%,26.666667%);stroke-opacity:1;stroke-miterlimit:10;" d="M 130.289062 83.539062 L 96.816406 57.367188 "/>
<path style="fill:none;stroke-width:1;stroke-linecap:butt;stroke-linejoin:miter;stroke:rgb(26.666667%,26.666667%,26.666667%);stroke-opacity:1;stroke-miterlimit:10;" d="M 88.046875 93.023438 L 96.816406 57.367188 "/>
<path style="fill:none;stroke-width:1;stroke-linecap:butt;stroke-linejoin:miter;stroke:rgb(26.666667%,26.666667%,26.666667%);stroke-opacity:1;stroke-miterlimit:10;" d="M 58.542969 95.550781 L 104.53125 77.347656 "/>
<path style="fill:none;stroke-width:1;stroke-linecap:butt;stroke-linejoin:miter;stroke:rgb(26.666667%,26.666667%,26.666667%);stroke-opacity:1;stroke-miterlimit:10;" d="M 88.046875 93.023438 L 104.53125 77.347656 "/>
<path style="fill:none;stroke-width:1;stroke-linecap:butt;stroke-linejoin:miter;stroke:rgb(26.666667%,26.666667%,26.666667%);stroke-opacity:1;stroke-miterlimit:10;" d="M 139.671875 42.3125 L 104.53125 77.347656 "/>
<path style="fill:none;stroke-width:1;stroke-linecap:butt;stroke-linejoin:miter;stroke:rgb(26.666667%,26.666667%,26.666667%);stroke-opacity:1;stroke-miterlimit:10;" d="M 96.816406 57.367188 L 99.734375 39.140625 "/>
<path style="fill:none;stroke-width:1;stroke-linecap:butt;stroke-linejoin:miter;stroke:rgb(26.666667%,26.666667%,26.666667%);stroke-opacity:1;stroke-miterlimit:10;" d="M 139.671875 42.3125 L 99.734375 39.140625 "/>
<path style="fill:none;stroke-width:1;stroke-linecap:butt;stroke-linejoin:miter;stroke:rgb(26.666667%,26.666667%,26.666667%);stroke-opacity:1;stroke-miterlimit:10;" d="M 58.542969 95.550781 L 21.199219 93.386719 "/>
<path style="fill:none;stroke-width:1;stroke-linecap:butt;stroke-linejoin:miter;stroke:rgb(26.666667%,26.666667%,26.666667%);stroke-opacity:1;stroke-miterlimit:10;" d="M 88.046875 93.023438 L 59.765625 125.71875 "/>
<path style="fill:none;stroke-width:1;stroke-linecap:butt;stroke-linejoin:miter;stroke:rgb(26.666667%,26.666667%,26.666667%);stroke-opacity:1;stroke-miterlimit:10;" d="M 58.542969 95.550781 L 20 70.335938 "/>
<path style="fill:none;stroke-width:1;stroke-linecap:butt;stroke-linejoin:miter;stroke:rgb(26.666667%,26.666667%,26.666667%);stroke-opacity:1;stroke-miterlimit:10;" d="M 130.289062 83.539062 L 129.09375 53.378906 "/>
<path style="fill:none;stroke-width:1;stroke-linecap:butt;stroke-linejoin:miter;stroke:rgb(26.666667%,26.666667%,26.666667%);stroke-opacity:1;stroke-miterlimit:10;" d="M 104.53125 77.347656 L 129.09375 53.378906 "/>
<path style="fill:none;stroke-width:1;stroke-linecap:butt;stroke-linejoin:miter;stroke:rgb(26.666667%,26.666667%,26.666667%);stroke-opacity:1;stroke-miterlimit:10;" d="M 99.734375 39.140625 L 129.09375 53.378906 "/>
<path style="fill:none;stroke-width:1;stroke-linecap:butt;stroke-linejoin:miter;stroke:rgb(26.666667%,26.666667%,26.666667%);stroke-opacity:1;stroke-miterlimit:10;" d="M 88.046875 93.023438 L 55.585938 66.550781 "/>
<path style="fill:none;stroke-width:1;stroke-linecap:butt;stroke-linejoin:miter;stroke:rgb(26.666667%,26.666667%,26.666667%);stroke-opacity:1;stroke-miterlimit:10;" d="M 99.734375 39.140625 L 55.585938 66.550781 "/>
<path style="fill:none;stroke-width:1;stroke-linecap:butt;stroke-linejoin:miter;stroke:rgb(26.666667%,26.666667%,26.666667%);stroke-opacity:1;stroke-miterlimit:10;" d="M 21.199219 93.386719 L 55.585938 66.550781 "/>
<path style="fill:none;stroke-width:1;stroke-linecap:butt;stroke-linejoin:miter;stroke:rgb(26.666667%,26.666667%,26.666667%);stroke-opacity:1;stroke-miterlimit:10;" d="M 20 70.335938 L 55.585938 66.550781 "/>
<path style="fill:none;stroke-width:1;stroke-linecap:butt;stroke-linejoin:miter;stroke:rgb(26.666667%,26.666667%,26.666667%);stroke-opacity:1;stroke-miterlimit:10;" d="M 58.542969 95.550781 L 97.625 114.792969 "/>
<path style="fill:none;stroke-width:1;stroke-linecap:butt;stroke-linejoin:miter;stroke:rgb(26.666667%,26.666667%,26.666667%);stroke-opacity:1;stroke-miterlimit:10;" d="M 88.046875 93.023438 L 97.625 114.792969 "/>
<path style="fill:none;stroke-width:1;stroke-linecap:butt;stroke-linejoin:miter;stroke:rgb(26.666667%,26.666667%,26.666667%);stroke-opacity:1;stroke-miterlimit:10;" d="M 111.113281 148.867188 L 97.625 114.792969 "/>
<path style="fill:none;stroke-width:1;stroke-linecap:butt;stroke-linejoin:miter;stroke:rgb(26.666667%,26.666667%,26.666667%);stroke-opacity:1;stroke-miterlimit:10;" d="M 104.53125 77.347656 L 97.625 114.792969 "/>
<path style="fill:none;stroke-width:1;stroke-linecap:butt;stroke-linejoin:miter;stroke:rgb(26.666667%,26.666667%,26.666667%);stroke-opacity:1;stroke-miterlimit:10;" d="M 96.816406 57.367188 L 69.21875 44.105469 "/>
<path style="fill:none;stroke-width:1;stroke-linecap:butt;stroke-linejoin:miter;stroke:rgb(26.666667%,26.666667%,26.666667%);stroke-opacity:1;stroke-miterlimit:10;" d="M 104.53125 77.347656 L 69.21875 44.105469 "/>
<path style="fill:none;stroke-width:1;stroke-linecap:butt;stroke-linejoin:miter;stroke:rgb(26.666667%,26.666667%,26.666667%);stroke-opacity:1;stroke-miterlimit:10;" d="M 130.289062 83.539062 L 129.429688 103.84375 "/>
<path style="fill:none;stroke-width:1;stroke-linecap:butt;stroke-linejoin:miter;stroke:rgb(26.666667%,26.666667%,26.666667%);stroke-opacity:1;stroke-miterlimit:10;" d="M 88.046875 93.023438 L 129.429688 103.84375 "/>
<path style="fill:none;stroke-width:1;stroke-linecap:butt;stroke-linejoin:miter;stroke:rgb(26.666667%,26.666667%,26.666667%);stroke-opacity:1;stroke-miterlimit:10;" d="M 104.53125 77.347656 L 129.429688 103.84375 "/>
<path style="fill:none;stroke-width:1;stroke-linecap:butt;stroke-linejoin:miter;stroke:rgb(26.666667%,26.666667%,26.666667%);stroke-opacity:1;stroke-miterlimit:10;" d="M 97.625 114.792969 L 129.429688 103.84375 "/>
<path style="fill:none;stroke-width:1;stroke-linecap:butt;stroke-linejoin:miter;stroke:rgb(26.666667%,26.666667%,26.666667%);stroke-opacity:1;stroke-miterlimit:10;" d="M 104.53125 77.347656 L 144.867188 72.367188 "/>
<path style="fill:none;stroke-width:1;stroke-linecap:butt;stroke-linejoin:miter;stroke:rgb(26.666667%,26.666667%,26.666667%);stroke-opacity:1;stroke-miterlimit:10;" d="M 99.734375 39.140625 L 144.867188 72.367188 "/>
<path style="fill:none;stroke-width:1;stroke-linecap:butt;stroke-linejoin:miter;stroke:rgb(26.666667%,26.666667%,26.666667%);stroke-opacity:1;stroke-miterlimit:10;" d="M 129.09375 53.378906 L 144.867188 72.367188 "/>
<path style="fill:none;stroke-width:1;stroke-linecap:butt;stroke-linejoin:miter;stroke:rgb(26.666667%,26.666667%,26.666667%);stroke-opacity:1;stroke-miterlimit:10;" d="M 129.429688 103.84375 L 144.867188 72.367188 "/>
<path style="fill:none;stroke-width:1;stroke-linecap:butt;stroke-linejoin:miter;stroke:rgb(26.666667%,26.666667%,26.666667%);stroke-opacity:1;stroke-miterlimit:10;" d="M 96.816406 57.367188 L 121.296875 20 "/>
<path style="fill:none;stroke-width:1;stroke-linecap:butt;stroke-linejoin:miter;stroke:rgb(26.666667%,26.666667%,26.666667%);stroke-opacity:1;stroke-miterlimit:10;" d="M 139.671875 42.3125 L 121.296875 20 "/>
<path style="fill:none;stroke-width:1;stroke-linecap:butt;stroke-linejoin:miter;stroke:rgb(26.666667%,26.666667%,26.666667%);stroke-opacity:1;stroke-miterlimit:10;" d="M 129.09375 53.378906 L 121.296875 20 "/>
<path style="fill:none;stroke-width:1;stroke-linecap:butt;stroke-linejoin:miter;stroke:rgb(26.666667%,26.666667%,26.666667%);stroke-opacity:1;stroke-miterlimit:10;" d="M 111.113281 148.867188 L 123.453125 180 "/>
<path style="fill:none;stroke-width:1;stroke-linecap:butt;stroke-linejoin:miter;stroke:rgb(26.666667%,26.666667%,26.666667%);stroke-opacity:1;stroke-miterlimit:10;" d="M 139.671875 42.3125 L 180 27.042969 "/>
<path style="fill-rule:nonzero;fill:rgb(100%,0%,0%);fill-opacity:1;stroke-width:1;stroke-linecap:butt;stroke-linejoin:miter;stroke:rgb(0%,0%,0%);stroke-opacity:1;stroke-miterlimit:10;" d="M 140.289062 83.539062 C 140.289062 89.0625 135.8125 93.539062 130.289062 93.539062 C 124.765625 93.539062 120.289062 89.0625 120.289062 83.539062 C 120.289062 78.015625 124.765625 73.539062 130.289062 73.539062 C 135.8125 73.539062 140.289062 78.015625 140.289062 83.539062 "/>
<path style="fill-rule:nonzero;fill:rgb(100%,0%,0%);fill-opacity:1;stroke-width:1;stroke-linecap:butt;stroke-linejoin:miter;stroke:rgb(0%,0%,0%);stroke-opacity:1;stroke-miterlimit:10;" d="M 68.542969 95.550781 C 68.542969 101.074219 64.066406 105.550781 58.542969 105.550781 C 53.019531 105.550781 48.542969 101.074219 48.542969 95.550781 C 48.542969 90.03125 53.019531 85.550781 58.542969 85.550781 C 64.066406 85.550781 68.542969 90.03125 68.542969 95.550781 "/>
<path style="fill-rule:nonzero;fill:rgb(100%,0%,0%);fill-opacity:1;stroke-width:1;stroke-linecap:butt;stroke-linejoin:miter;stroke:rgb(0%,0%,0%);stroke-opacity:1;stroke-miterlimit:10;" d="M 98.046875 93.023438 C 98.046875 98.546875 93.570312 103.023438 88.046875 103.023438 C 82.523438 103.023438 78.046875 98.546875 78.046875 93.023438 C 78.046875 87.5 82.523438 83.023438 88.046875 83.023438 C 93.570312 83.023438 98.046875 87.5 98.046875 93.023438 "/>
<path style="fill-rule:nonzero;fill:rgb(100%,0%,0%);fill-opacity:1;stroke-width:1;stroke-linecap:butt;stroke-linejoin:miter;stroke:rgb(0%,0%,0%);stroke-opacity:1;stroke-miterlimit:10;" d="M 106.816406 57.367188 C 106.816406 62.890625 102.339844 67.367188 96.816406 67.367188 C 91.292969 67.367188 86.816406 62.890625 86.816406 57.367188 C 86.816406 51.84375 91.292969 47.367188 96.816406 47.367188 C 102.339844 47.367188 106.816406 51.84375 106.816406 57.367188 "/>
<path style="fill-rule:nonzero;fill:rgb(100%,0%,0%);fill-opacity:1;stroke-width:1;stroke-linecap:butt;stroke-linejoin:miter;stroke:rgb(0%,0%,0%);stroke-opacity:1;stroke-miterlimit:10;" d="M 121.113281 148.867188 C 121.113281 154.390625 116.636719 158.867188 111.113281 158.867188 C 105.589844 158.867188 101.113281 154.390625 101.113281 148.867188 C 101.113281 143.34375 105.589844 138.867188 111.113281 138.867188 C 116.636719 138.867188 121.113281 143.34375 121.113281 148.867188 "/>
<path style="fill-rule:nonzero;fill:rgb(100%,0%,0%);fill-opacity:1;stroke-width:1;stroke-linecap:butt;stroke-linejoin:miter;stroke:rgb(0%,0%,0%);stroke-opacity:1;stroke-miterlimit:10;" d="M 149.671875 42.3125 C 149.671875 47.835938 145.195312 52.3125 139.671875 52.3125 C 134.148438 52.3125 129.671875 47.835938 129.671875 42.3125 C 129.671875 36.789062 134.148438 32.3125 139.671875 32.3125 C 145.195312 32.3125 149.671875 36.789062 149.671875 42.3125 "/>
<path style="fill-rule:nonzero;fill:rgb(100%,0%,0%);fill-opacity:1;stroke-width:1;stroke-linecap:butt;stroke-linejoin:miter;stroke:rgb(0%,0%,0%);stroke-opacity:1;stroke-miterlimit:10;" d="M 114.53125 77.347656 C 114.53125 82.867188 110.054688 87.347656 104.53125 87.347656 C 99.007812 87.347656 94.53125 82.867188 94.53125 77.347656 C 94.53125 71.824219 99.007812 67.347656 104.53125 67.347656 C 110.054688 67.347656 114.53125 71.824219 114.53125 77.347656 "/>
<path style="fill-rule:nonzero;fill:rgb(100%,0%,0%);fill-opacity:1;stroke-width:1;stroke-linecap:butt;stroke-linejoin:miter;stroke:rgb(0%,0%,0%);stroke-opacity:1;stroke-miterlimit:10;" d="M 109.734375 39.140625 C 109.734375 44.664062 105.253906 49.140625 99.734375 49.140625 C 94.210938 49.140625 89.734375 44.664062 89.734375 39.140625 C 89.734375 33.617188 94.210938 29.140625 99.734375 29.140625 C 105.253906 29.140625 109.734375 33.617188 109.734375 39.140625 "/>
<path style="fill-rule:nonzero;fill:rgb(100%,0%,0%);fill-opacity:1;stroke-width:1;stroke-linecap:butt;stroke-linejoin:miter;stroke:rgb(0%,0%,0%);stroke-opacity:1;stroke-miterlimit:10;" d="M 31.199219 93.386719 C 31.199219 98.910156 26.722656 103.386719 21.199219 103.386719 C 15.675781 103.386719 11.199219 98.910156 11.199219 93.386719 C 11.199219 87.863281 15.675781 83.386719 21.199219 83.386719 C 26.722656 83.386719 31.199219 87.863281 31.199219 93.386719 "/>
<path style="fill-rule:nonzero;fill:rgb(100%,0%,0%);fill-opacity:1;stroke-width:1;stroke-linecap:butt;stroke-linejoin:miter;stroke:rgb(0%,0%,0%);stroke-opacity:1;stroke-miterlimit:10;" d="M 69.765625 125.71875 C 69.765625 131.242188 65.289062 135.71875 59.765625 135.71875 C 54.242188 135.71875 49.765625 131.242188 49.765625 125.71875 C 49.765625 120.199219 54.242188 115.71875 59.765625 115.71875 C 65.289062 115.71875 69.765625 120.199219 69.765625 125.71875 "/>
<path style="fill-rule:nonzero;fill:rgb(100%,0%,0%);fill-opacity:1;stroke-width:1;stroke-linecap:butt;stroke-linejoin:miter;stroke:rgb(0%,0%,0%);stroke-opacity:1;stroke-miterlimit:10;" d="M 30 70.335938 C 30 75.859375 25.523438 80.335938 20 80.335938 C 14.476562 80.335938 10 75.859375 10 70.335938 C 10 64.8125 14.476562 60.335938 20 60.335938 C 25.523438 60.335938 30 64.8125 30 70.335938 "/>
<path style="fill-rule:nonzero;fill:rgb(100%,0%,0%);fill-opacity:1;stroke-width:1;stroke-linecap:butt;stroke-linejoin:miter;stroke:rgb(0%,0%,0%);stroke-opacity:1;stroke-miterlimit:10;" d="M 139.09375 53.378906 C 139.09375 58.902344 134.617188 63.378906 129.09375 63.378906 C 123.570312 63.378906 119.09375 58.902344 119.09375 53.378906 C 119.09375 47.855469 123.570312 43.378906 129.09375 43.378906 C 134.617188 43.378906 139.09375 47.855469 139.09375 53.378906 "/>
<path style="fill-rule:nonzero;fill:rgb(100%,0%,0%);fill-opacity:1;stroke-width:1;stroke-linecap:butt;stroke-linejoin:miter;stroke:rgb(0%,0%,0%);stroke-opacity:1;stroke-miterlimit:10;" d="M 65.585938 66.550781 C 65.585938 72.074219 61.109375 76.550781 55.585938 76.550781 C 50.0625 76.550781 45.585938 72.074219 45.585938 66.550781 C 45.585938 61.027344 50.0625 56.550781 55.585938 56.550781 C 61.109375 56.550781 65.585938 61.027344 65.585938 66.550781 "/>
<path style="fill-rule:nonzero;fill:rgb(100%,0%,0%);fill-opacity:1;stroke-width:1;stroke-linecap:butt;stroke-linejoin:miter;stroke:rgb(0%,0%,0%);stroke-opacity:1;stroke-miterlimit:10;" d="M 107.625 114.792969 C 107.625 120.316406 103.148438 124.792969 97.625 124.792969 C 92.101562 124.792969 87.625 120.316406 87.625 114.792969 C 87.625 109.273438 92.101562 104.792969 97.625 104.792969 C 103.148438 104.792969 107.625 109.273438 107.625 114.792969 "/>
<path style="fill-rule:nonzero;fill:rgb(100%,0%,0%);fill-opacity:1;stroke-width:1;stroke-linecap:butt;stroke-linejoin:miter;stroke:rgb(0%,0%,0%);stroke-opacity:1;stroke-miterlimit:10;" d="M 79.21875 44.105469 C 79.21875 49.628906 74.742188 54.105469 69.21875 54.105469 C 63.699219 54.105469 59.21875 49.628906 59.21875 44.105469 C 59.21875 38.582031 63.699219 34.105469 69.21875 34.105469 C 74.742188 34.105469 79.21875 38.582031 79.21875 44.105469 "/>
<path style="fill-rule:nonzero;fill:rgb(100%,0%,0%);fill-opacity:1;stroke-width:1;stroke-linecap:butt;stroke-linejoin:miter;stroke:rgb(0%,0%,0%);stroke-opacity:1;stroke-miterlimit:10;" d="M 139.429688 103.84375 C 139.429688 109.367188 134.953125 113.84375 129.429688 113.84375 C 123.910156 113.84375 119.429688 109.367188 119.429688 103.84375 C 119.429688 98.320312 123.910156 93.84375 129.429688 93.84375 C 134.953125 93.84375 139.429688 98.320312 139.429688 103.84375 "/>
<path style="fill-rule:nonzero;fill:rgb(100%,0%,0%);fill-opacity:1;stroke-width:1;stroke-linecap:butt;stroke-linejoin:miter;stroke:rgb(0%,0%,0%);stroke-opacity:1;stroke-miterlimit:10;" d="M 154.867188 72.367188 C 154.867188 77.890625 150.390625 82.367188 144.867188 82.367188 C 139.34375 82.367188 134.867188 77.890625 134.867188 72.367188 C 134.867188 66.847656 139.34375 62.367188 144.867188 62.367188 C 150.390625 62.367188 154.867188 66.847656 154.867188 72.367188 "/>
<path style="fill-rule:nonzero;fill:rgb(100%,0%,0%);fill-opacity:1;stroke-width:1;stroke-linecap:butt;stroke-linejoin:miter;stroke:rgb(0%,0%,0%);stroke-opacity:1;stroke-miterlimit:10;" d="M 131.296875 20 C 131.296875 25.523438 126.820312 30 121.296875 30 C 115.773438 30 111.296875 25.523438 111.296875 20 C 111.296875 14.476562 115.773438 10 121.296875 10 C 126.820312 10 131.296875 14.476562 131.296875 20 "/>
<path style="fill-rule:nonzero;fill:rgb(100%,0%,0%);fill-opacity:1;stroke-width:1;stroke-linecap:butt;stroke-linejoin:miter;stroke:rgb(0%,0%,0%);stroke-opacity:1;stroke-miterlimit:10;" d="M 133.453125 180 C 133.453125 185.523438 128.976562 190 123.453125 190 C 117.929688 190 113.453125 185.523438 113.453125 180 C 113.453125 174.476562 117.929688 170 123.453125 170 C 128.976562 170 133.453125 174.476562 133.453125 180 "/>
<path style="fill-rule:nonzero;fill:rgb(100%,0%,0%);fill-opacity:1;stroke-width:1;stroke-linecap:butt;stroke-linejoin:miter;stroke:rgb(0%,0%,0%);stroke-opacity:1;stroke-miterlimit:10;" d="M 190 27.042969 C 190 32.566406 185.523438 37.042969 180 37.042969 C 174.476562 37.042969 170 32.566406 170 27.042969 C 170 21.523438 174.476562 17.042969 180 17.042969 C 185.523438 17.042969 190 21.523438 190 27.042969 "/>
</g>
</svg>
