<?xml version="1.0" encoding="UTF-8"?>
<svg xmlns="http://www.w3.org/2000/svg" xmlns:xlink="http://www.w3.org/1999/xlink" width="200pt" height="200pt" viewBox="0 0 200 200" version="1.1">
<g id="surface8">
<rect x="0" y="0" width="200" height="200" style="fill:rgb(100%,100%,100%);fill-opacity:1;stroke:none;"/>
<path style="fill:none;stroke-width:1;stroke-linecap:butt;stroke-linejoin:miter;stroke:rgb(26.666667%,26.666667%,26.666667%);stroke-opacity:1;stroke-miterlimit:10;" d="M 20 38.472656 L 27.730469 83.519531 "/>
<path style="fill:none;stroke-width:1;stroke-linecap:butt;stroke-linejoin:miter;stroke:rgb(26.666667%,26.666667%,26.666667%);stroke-opacity:1;stroke-miterlimit:10;" d="M 20 38.472656 L 36.222656 70.882812 "/>
<path style="fill:none;stroke-width:1;stroke-linecap:butt;stroke-linejoin:miter;stroke:rgb(26.666667%,26.666667%,26.666667%);stroke-opacity:1;stroke-miterlimit:10;" d="M 20 38.472656 L 42.183594 34.460938 "/>
<path style="fill:none;stroke-width:1;stroke-linecap:butt;stroke-linejoin:miter;stroke:rgb(26.666667%,26.666667%,26.666667%);stroke-opacity:1;stroke-miterlimit:10;" d="M 20 38.472656 L 43.929688 79.652344 "/>
<path style="fill:none;stroke-width:1;stroke-linecap:butt;stroke-linejoin:miter;stroke:rgb(26.666667%,26.666667%,26.666667%);stroke-opacity:1;stroke-miterlimit:10;" d="M 27.730469 83.519531 L 36.222656 70.882812 "/>
<path style="fill:none;stroke-width:1;stroke-linecap:butt;stroke-linejoin:miter;stroke:rgb(26.666667%,26.666667%,26.666667%);stroke-opacity:1;stroke-miterlimit:10;" d="M 27.730469 83.519531 L 43.929688 79.652344 "/>
<path style="fill:none;stroke-width:1;stroke-linecap:butt;stroke-linejoin:miter;stroke:rgb(26.666667%,26.666667%,26.666667%);stroke-opacity:1;stroke-miterlimit:10;" d="M 27.730469 83.519531 L 57.925781 105.574219 "/>
<path style="fill:none;stroke-width:1;stroke-linecap:butt;stroke-linejoin:miter;stroke:rgb(26.666667%,26.666667%,26.666667%);stroke-opacity:1;stroke-miterlimit:10;" d="M 27.730469 83.519531 L 68.054688 80.542969 "/>
<path style="fill:none;stroke-width:1;stroke-linecap:butt;stroke-linejoin:miter;stroke:rgb(26.666667%,26.666667%,26.666667%);stroke-opacity:1;stroke-miterlimit:10;" d="M 36.222656 70.882812 L 42.183594 34.460938 "/>
<path style="fill:none;stroke-width:1;stroke-linecap:butt;stroke-linejoin:miter;stroke:rgb(26.666667%,26.666667%,26.666667%);stroke-opacity:1;stroke-miterlimit:10;" d="M 36.222656 70.882812 L 43.929688 79.652344 "/>
<path style="fill:none;stroke-width:1;stroke-linecap:butt;stroke-linejoin:miter;stroke:rgb(26.666667%,26.666667%,26.666667%);stroke-opacity:1;stroke-miterlimit:10;" d="M 36.222656 70.882812 L 57.925781 105.574219 "/>
<path style="fill:none;stroke-width:1;stroke-linecap:butt;stroke-linejoin:miter;stroke:rgb(26.666667%,26.666667%,26.666667%);stroke-opacity:1;stroke-miterlimit:10;" d="M 36.222656 70.882812 L 68.054688 80.542969 "/>
<path style="fill:none;stroke-width:1;stroke-linecap:butt;stroke-linejoin:miter;stroke:rgb(26.666667%,26.666667%,26.666667%);stroke-opacity:1;stroke-miterlimit:10;" d="M 42.183594 34.460938 L 43.929688 79.652344 "/>
<path style="fill:none;stroke-width:1;stroke-linecap:butt;stroke-linejoin:miter;stroke:rgb(26.666667%,26.666667%,26.666667%);stroke-opacity:1;stroke-miterlimit:10;" d="M 42.183594 34.460938 L 77.585938 20 "/>
<path style="fill:none;stroke-width:1;stroke-linecap:butt;stroke-linejoin:miter;stroke:rgb(26.666667%,26.666667%,26.666667%);stroke-opacity:1;stroke-miterlimit:10;" d="M 43.929688 79.652344 L 57.925781 105.574219 "/>
<path style="fill:none;stroke-width:1;stroke-linecap:butt;stroke-linejoin:miter;stroke:rgb(26.666667%,26.666667%,26.666667%);stroke-opacity:1;stroke-miterlimit:10;" d="M 43.929688 79.652344 L 68.054688 80.542969 "/>
<path style="fill:none;stroke-width:1;stroke-linecap:butt;stroke-linejoin:miter;stroke:rgb(26.666667%,26.666667%,26.666667%);stroke-opacity:1;stroke-miterlimit:10;" d="M 43.929688 79.652344 L 77.996094 108.71875 "/>
<path style="fill:none;stroke-width:1;stroke-linecap:butt;stroke-linejoin:miter;stroke:rgb(26.666667%,26.666667%,26.666667%);stroke-opacity:1;stroke-miterlimit:10;" d="M 43.929688 79.652344 L 87.414062 89.769531 "/>
<path style="fill:none;stroke-width:1;stroke-linecap:butt;stroke-linejoin:miter;stroke:rgb(26.666667%,26.666667%,26.666667%);stroke-opacity:1;stroke-miterlimit:10;" d="M 57.925781 105.574219 L 68.054688 80.542969 "/>
<path style="fill:none;stroke-width:1;stroke-linecap:butt;stroke-linejoin:miter;stroke:rgb(26.666667%,26.666667%,26.666667%);stroke-opacity:1;stroke-miterlimit:10;" d="M 57.925781 105.574219 L 76.511719 139.742188 "/>
<path style="fill:none;stroke-width:1;stroke-linecap:butt;stroke-linejoin:miter;stroke:rgb(26.666667%,26.666667%,26.666667%);stroke-opacity:1;stroke-miterlimit:10;" d="M 57.925781 105.574219 L 77.996094 108.71875 "/>
<path style="fill:none;stroke-width:1;stroke-linecap:butt;stroke-linejoin:miter;stroke:rgb(26.666667%,26.666667%,26.666667%);stroke-opacity:1;stroke-miterlimit:10;" d="M 57.925781 105.574219 L 87.414062 89.769531 "/>
<path style="fill:none;stroke-width:1;stroke-linecap:butt;stroke-linejoin:miter;stroke:rgb(26.666667%,26.666667%,26.666667%);stroke-opacity:1;stroke-miterlimit:10;" d="M 57.925781 105.574219 L 90.8125 126.828125 "/>
<path style="fill:none;stroke-width:1;stroke-linecap:butt;stroke-linejoin:miter;stroke:rgb(26.666667%,26.666667%,26.666667%);stroke-opacity:1;stroke-miterlimit:10;" d="M 68.054688 80.542969 L 77.996094 108.71875 "/>
<path style="fill:none;stroke-width:1;stroke-linecap:butt;stroke-linejoin:miter;stroke:rgb(26.666667%,26.666667%,26.666667%);stroke-opacity:1;stroke-miterlimit:10;" d="M 68.054688 80.542969 L 87.414062 89.769531 "/>
<path style="fill:none;stroke-width:1;stroke-linecap:butt;stroke-linejoin:miter;stroke:rgb(26.666667%,26.666667%,26.666667%);stroke-opacity:1;stroke-miterlimit:10;" d="M 76.511719 139.742188 L 77.996094 108.71875 "/>
<path style="fill:none;stroke-width:1;stroke-linecap:butt;stroke-linejoin:miter;stroke:rgb(26.666667%,26.666667%,26.666667%);stroke-opacity:1;stroke-miterlimit:10;" d="M 76.511719 139.742188 L 90.8125 126.828125 "/>
<path style="fill:none;stroke-width:1;stroke-linecap:butt;stroke-linejoin:miter;stroke:rgb(26.666667%,26.666667%,26.666667%);stroke-opacity:1;stroke-miterlimit:10;" d="M 77.585938 20 L 100.296875 35.386719 "/>
<path style="fill:none;stroke-width:1;stroke-linecap:butt;stroke-linejoin:miter;stroke:rgb(26.666667%,26.666667%,26.666667%);stroke-opacity:1;stroke-miterlimit:10;" d="M 77.996094 108.71875 L 87.414062 89.769531 "/>
<path style="fill:none;stroke-width:1;stroke-linecap:butt;stroke-linejoin:miter;stroke:rgb(26.666667%,26.666667%,26.666667%);stroke-opacity:1;stroke-miterlimit:10;" d="M 77.996094 108.71875 L 90.8125 126.828125 "/>
<path style="fill:none;stroke-width:1;stroke-linecap:butt;stroke-linejoin:miter;stroke:rgb(26.666667%,26.666667%,26.666667%);stroke-opacity:1;stroke-miterlimit:10;" d="M 87.414062 89.769531 L 90.8125 126.828125 "/>
<path style="fill:none;stroke-width:1;stroke-linecap:butt;stroke-linejoin:miter;stroke:rgb(26.666667%,26.666667%,26.666667%);stroke-opacity:1;stroke-miterlimit:10;" d="M 87.414062 89.769531 L 129.734375 65.402344 "/>
<path style="fill:none;stroke-width:1;stroke-linecap:butt;stroke-linejoin:miter;stroke:rgb(26.666667%,26.666667%,26.666667%);stroke-opacity:1;stroke-miterlimit:10;" d="M 90.8125 126.828125 L 134.316406 117.703125 "/>
<path style="fill:none;stroke-width:1;stroke-linecap:butt;stroke-linejoin:miter;stroke:rgb(26.666667%,26.666667%,26.666667%);stroke-opacity:1;stroke-miterlimit:10;" d="M 100.296875 35.386719 L 129.734375 65.402344 "/>
<path style="fill:none;stroke-width:1;stroke-linecap:butt;stroke-linejoin:miter;stroke:rgb(26.666667%,26.666667%,26.666667%);stroke-opacity:1;stroke-miterlimit:10;" d="M 129.734375 65.402344 L 171.359375 45.878906 "/>
<path style="fill:none;stroke-width:1;stroke-linecap:butt;stroke-linejoin:miter;stroke:rgb(26.666667%,26.666667%,26.666667%);stroke-opacity:1;stroke-miterlimit:10;" d="M 134.316406 117.703125 L 159.019531 132.191406 "/>
<path style="fill:none;stroke-width:1;stroke-linecap:butt;stroke-linejoin:miter;stroke:rgb(26.666667%,26.666667%,26.666667%);stroke-opacity:1;stroke-miterlimit:10;" d="M 159.019531 132.191406 L 162.5 180 "/>
<path style="fill:none;stroke-width:1;stroke-linecap:butt;stroke-linejoin:miter;stroke:rgb(26.666667%,26.666667%,26.666667%);stroke-opacity:1;stroke-miterlimit:10;" d="M 159.019531 132.191406 L 165.652344 168.097656 "/>
<path style="fill:none;stroke-width:1;stroke-linecap:butt;stroke-linejoin:miter;stroke:rgb(26.666667%,26.666667%,26.666667%);stroke-opacity:1;stroke-miterlimit:10;" d="M 162.5 180 L 165.652344 168.097656 "/>
<path style="fill:none;stroke-width:1;stroke-linecap:butt;stroke-linejoin:miter;stroke:rgb(26.666667%,26.666667%,26.666667%);stroke-opacity:1;stroke-miterlimit:10;" d="M 171.359375 45.878906 L 180 52.476562 "/>
<path style="fill-rule:nonzero;fill:rgb(100%,0%,0%);fill-opacity:1;stroke-width:1;stroke-linecap:butt;stroke-linejoin:miter;stroke:rgb(0%,0%,0%);stroke-opacity:1;stroke-miterlimit:10;" d="M 30 38.472656 C 30 43.996094 25.523438 48.472656 20 48.472656 C 14.476562 48.472656 10 43.996094 10 38.472656 C 10 32.953125 14.476562 28.472656 20 28.472656 C 25.523438 28.472656 30 32.953125 30 38.472656 "/>
<path style="fill-rule:nonzero;fill:rgb(100%,0%,0%);fill-opacity:1;stroke-width:1;stroke-linecap:butt;stroke-linejoin:miter;stroke:rgb(0%,0%,0%);stroke-opacity:1;stroke-miterlimit:10;" d="M 37.730469 83.519531 C 37.730469 89.042969 33.253906 93.519531 27.730469 93.519531 C 22.210938 93.519531 17.730469 89.042969 17.730469 83.519531 C 17.730469 77.996094 22.210938 73.519531 27.730469 73.519531 C 33.253906 73.519531 37.730469 77.996094 37.730469 83.519531 "/>
<path style="fill-rule:nonzero;fill:rgb(100%,0%,0%);fill-opacity:1;stroke-width:1;stroke-linecap:butt;stroke-linejoin:miter;stroke:rgb(0%,0%,0%);stroke-opacity:1;stroke-miterlimit:10;" d="M 46.222656 70.882812 C 46.222656 76.40625 41.742188 80.882812 36.222656 80.882812 C 30.699219 80.882812 26.222656 76.40625 26.222656 70.882812 C 26.222656 65.359375 30.699219 60.882812 36.222656 60.882812 C 41.742188 60.882812 46.222656 65.359375 46.222656 70.882812 "/>
<path style="fill-rule:nonzero;fill:rgb(100%,0%,0%);fill-opacity:1;stroke-width:1;stroke-linecap:butt;stroke-linejoin:miter;stroke:rgb(0%,0%,0%);stroke-opacity:1;stroke-miterlimit:10;" d="M 52.183594 34.460938 C 52.183594 39.980469 47.707031 44.460938 42.183594 44.460938 C 36.660156 44.460938 32.183594 39.980469 32.183594 34.460938 C 32.183594 28.9375 36.660156 24.460938 42.183594 24.460938 C 47.707031 24.460938 52.183594 28.9375 52.183594 34.460938 "/>
<path style="fill-rule:nonzero;fill:rgb(100%,0%,0%);fill-opacity:1;stroke-width:1;stroke-linecap:butt;stroke-linejoin:miter;stroke:rgb(0%,0%,0%);stroke-opacity:1;stroke-miterlimit:10;" d="M 53.929688 79.652344 C 53.929688 85.175781 49.453125 89.652344 43.929688 89.652344 C 38.40625 89.652344 33.929688 85.175781 33.929688 79.652344 C 33.929688 74.128906 38.40625 69.652344 43.929688 69.652344 C 49.453125 69.652344 53.929688 74.128906 53.929688 79.652344 "/>
<path style="fill-rule:nonzero;fill:rgb(100%,0%,0%);fill-opacity:1;stroke-width:1;stroke-linecap:butt;stroke-linejoin:miter;stroke:rgb(0%,0%,0%);stroke-opacity:1;stroke-miterlimit:10;" d="M 67.925781 105.574219 C 67.925781 111.097656 63.449219 115.574219 57.925781 115.574219 C 52.402344 115.574219 47.925781 111.097656 47.925781 105.574219 C 47.925781 100.050781 52.402344 95.574219 57.925781 95.574219 C 63.449219 95.574219 67.925781 100.050781 67.925781 105.574219 "/>
<path style="fill-rule:nonzero;fill:rgb(100%,0%,0%);fill-opacity:1;stroke-width:1;stroke-linecap:butt;stroke-linejoin:miter;stroke:rgb(0%,0%,0%);stroke-opacity:1;stroke-miterlimit:10;" d="M 78.054688 80.542969 C 78.054688 86.066406 73.578125 90.542969 68.054688 90.542969 C 62.535156 90.542969 58.054688 86.066406 58.054688 80.542969 C 58.054688 75.019531 62.535156 70.542969 68.054688 70.542969 C 73.578125 70.542969 78.054688 75.019531 78.054688 80.542969 "/>
<path style="fill-rule:nonzero;fill:rgb(100%,0%,0%);fill-opacity:1;stroke-width:1;stroke-linecap:butt;stroke-linejoin:miter;stroke:rgb(0%,0%,0%);stroke-opacity:1;stroke-miterlimit:10;" d="M 86.511719 139.742188 C 86.511719 145.265625 82.03125 149.742188 76.511719 149.742188 C 70.988281 149.742188 66.511719 145.265625 66.511719 139.742188 C 66.511719 134.21875 70.988281 129.742188 76.511719 129.742188 C 82.03125 129.742188 86.511719 134.21875 86.511719 139.742188 "/>
<path style="fill-rule:nonzero;fill:rgb(100%,0%,0%);fill-opacity:1;stroke-width:1;stroke-linecap:butt;stroke-linejoin:miter;stroke:rgb(0%,0%,0%);stroke-opacity:1;stroke-miterlimit:10;" d="M 87.585938 20 C 87.585938 25.523438 83.109375 30 77.585938 30 C 72.066406 30 67.585938 25.523438 67.585938 20 C 67.585938 14.476562 72.066406 10 77.585938 10 C 83.109375 10 87.585938 14.476562 87.585938 20 "/>
<path style="fill-rule:nonzero;fill:rgb(100%,0%,0%);fill-opacity:1;stroke-width:1;stroke-linecap:butt;stroke-linejoin:miter;stroke:rgb(0%,0%,0%);stroke-opacity:1;stroke-miterlimit:10;" d="M 87.996094 108.71875 C 87.996094 114.242188 83.519531 118.71875 77.996094 118.71875 C 72.472656 118.71875 67.996094 114.242188 67.996094 108.71875 C 67.996094 103.195312 72.472656 98.71875 77.996094 98.71875 C 83.519531 98.71875 87.996094 103.195312 87.996094 108.71875 "/>
<path style="fill-rule:nonzero;fill:rgb(100%,0%,0%);fill-opacity:1;stroke-width:1;stroke-linecap:butt;stroke-linejoin:miter;stroke:rgb(0%,0%,0%);stroke-opacity:1;stroke-miterlimit:10;" d="M 97.414062 89.769531 C 97.414062 95.292969 92.9375 99.769531 87.414062 99.769531 C 81.890625 99.769531 77.414062 95.292969 77.414062 89.769531 C 77.414062 84.246094 81.890625 79.769531 87.414062 79.769531 C 92.9375 79.769531 97.414062 84.246094 97.414062 89.769531 "/>
<path style="fill-rule:nonzero;fill:rgb(100%,0%,0%);fill-opacity:1;stroke-width:1;stroke-linecap:butt;stroke-linejoin:miter;stroke:rgb(0%,0%,0%);stroke-opacity:1;stroke-miterlimit:10;" d="M 100.8125 126.828125 C 100.8125 132.351562 96.332031 136.828125 90.8125 136.828125 C 85.289062 136.828125 80.8125 132.351562 80.8125 126.828125 C 80.8125 121.308594 85.289062 116.828125 90.8125 116.828125 C 96.332031 116.828125 100.8125 121.308594 100.8125 126.828125 "/>
<path style="fill-rule:nonzero;fill:rgb(100%,0%,0%);fill-opacity:1;stroke-width:1;stroke-linecap:butt;stroke-linejoin:miter;stroke:rgb(0%,0%,0%);stroke-opacity:1;stroke-miterlimit:10;" d="M 110.296875 35.386719 C 110.296875 40.910156 105.816406 45.386719 100.296875 45.386719 C 94.773438 45.386719 90.296875 40.910156 90.296875 35.386719 C 90.296875 29.863281 94.773438 25.386719 100.296875 25.386719 C 105.816406 25.386719 110.296875 29.863281 110.296875 35.386719 "/>
<path style="fill-rule:nonzero;fill:rgb(100%,0%,0%);fill-opacity:1;stroke-width:1;stroke-linecap:butt;stroke-linejoin:miter;stroke:rgb(0%,0%,0%);stroke-opacity:1;stroke-miterlimit:10;" d="M 139.734375 65.402344 C 139.734375 70.925781 135.257812 75.402344 129.734375 75.402344 C 124.210938 75.402344 119.734375 70.925781 119.734375 65.402344 C 119.734375 59.878906 124.210938 55.402344 129.734375 55.402344 C 135.257812 55.402344 139.734375 59.878906 139.734375 65.402344 "/>
<path style="fill-rule:nonzero;fill:rgb(100%,0%,0%);fill-opacity:1;stroke-width:1;stroke-linecap:butt;stroke-linejoin:miter;stroke:rgb(0%,0%,0%);stroke-opacity:1;stroke-miterlimit:10;" d="M 144.316406 117.703125 C 144.316406 123.226562 139.839844 127.703125 134.316406 127.703125 C 128.792969 127.703125 124.316406 123.226562 124.316406 117.703125 C 124.316406 112.179688 128.792969 107.703125 134.316406 107.703125 C 139.839844 107.703125 144.316406 112.179688 144.316406 117.703125 "/>
<path style="fill-rule:nonzero;fill:rgb(100%,0%,0%);fill-opacity:1;stroke-width:1;stroke-linecap:butt;stroke-linejoin:miter;stroke:rgb(0%,0%,0%);stroke-opacity:1;stroke-miterlimit:10;" d="M 169.019531 132.191406 C 169.019531 137.710938 164.542969 142.191406 159.019531 142.191406 C 153.496094 142.191406 149.019531 137.710938 149.019531 132.191406 C 149.019531 126.667969 153.496094 122.191406 159.019531 122.191406 C 164.542969 122.191406 169.019531 126.667969 169.019531 132.191406 "/>
<path style="fill-rule:nonzero;fill:rgb(100%,0%,0%);fill-opacity:1;stroke-width:1;stroke-linecap:butt;stroke-linejoin:miter;stroke:rgb(0%,0%,0%);stroke-opacity:1;stroke-miterlimit:10;" d="M 172.5 180 C 172.5 185.523438 168.019531 190 162.5 190 C 156.976562 190 152.5 185.523438 152.5 180 C 152.5 174.476562 156.976562 170 162.5 170 C 168.019531 170 172.5 174.476562 172.5 180 "/>
<path style="fill-rule:nonzero;fill:rgb(100%,0%,0%);fill-opacity:1;stroke-width:1;stroke-linecap:butt;stroke-linejoin:miter;stroke:rgb(0%,0%,0%);stroke-opacity:1;stroke-miterlimit:10;" d="M 175.652344 168.097656 C 175.652344 173.621094 171.175781 178.097656 165.652344 178.097656 C 160.128906 178.097656 155.652344 173.621094 155.652344 168.097656 C 155.652344 162.574219 160.128906 158.097656 165.652344 158.097656 C 171.175781 158.097656 175.652344 162.574219 175.652344 168.097656 "/>
<path style="fill-rule:nonzero;fill:rgb(100%,0%,0%);fill-opacity:1;stroke-width:1;stroke-linecap:butt;stroke-linejoin:miter;stroke:rgb(0%,0%,0%);stroke-opacity:1;stroke-miterlimit:10;" d="M 181.359375 45.878906 C 181.359375 51.402344 176.882812 55.878906 171.359375 55.878906 C 165.835938 55.878906 161.359375 51.402344 161.359375 45.878906 C 161.359375 40.359375 165.835938 35.878906 171.359375 35.878906 C 176.882812 35.878906 181.359375 40.359375 181.359375 45.878906 "/>
<path style="fill-rule:nonzero;fill:rgb(100%,0%,0%);fill-opacity:1;stroke-width:1;stroke-linecap:butt;stroke-linejoin:miter;stroke:rgb(0%,0%,0%);stroke-opacity:1;stroke-miterlimit:10;" d="M 190 52.476562 C 190 58 185.523438 62.476562 180 62.476562 C 174.476562 62.476562 170 58 170 52.476562 C 170 46.953125 174.476562 42.476562 180 42.476562 C 185.523438 42.476562 190 46.953125 190 52.476562 "/>
</g>
</svg>
