<?xml version="1.0" encoding="UTF-8"?>
<svg xmlns="http://www.w3.org/2000/svg" xmlns:xlink="http://www.w3.org/1999/xlink" width="200pt" height="200pt" viewBox="0 0 200 200" version="1.1">
<g id="surface8">
<rect x="0" y="0" width="200" height="200" style="fill:rgb(100%,100%,100%);fill-opacity:1;stroke:none;"/>
<path style="fill:none;stroke-width:1;stroke-linecap:butt;stroke-linejoin:miter;stroke:rgb(26.666667%,26.666667%,26.666667%);stroke-opacity:1;stroke-miterlimit:10;" d="M 20 66.195312 L 31.875 75.78125 "/>
<path style="fill:none;stroke-width:1;stroke-linecap:butt;stroke-linejoin:miter;stroke:rgb(26.666667%,26.666667%,26.666667%);stroke-opacity:1;stroke-miterlimit:10;" d="M 20 66.195312 L 44.867188 97.90625 "/>
<path style="fill:none;stroke-width:1;stroke-linecap:butt;stroke-linejoin:miter;stroke:rgb(26.666667%,26.666667%,26.666667%);stroke-opacity:1;stroke-miterlimit:10;" d="M 28.417969 148.996094 L 53.394531 114.128906 "/>
<path style="fill:none;stroke-width:1;stroke-linecap:butt;stroke-linejoin:miter;stroke:rgb(26.666667%,26.666667%,26.666667%);stroke-opacity:1;stroke-miterlimit:10;" d="M 28.417969 148.996094 L 72.253906 152.382812 "/>
<path style="fill:none;stroke-width:1;stroke-linecap:butt;stroke-linejoin:miter;stroke:rgb(26.666667%,26.666667%,26.666667%);stroke-opacity:1;stroke-miterlimit:10;" d="M 28.417969 148.996094 L 75.574219 137.074219 "/>
<path style="fill:none;stroke-width:1;stroke-linecap:butt;stroke-linejoin:miter;stroke:rgb(26.666667%,26.666667%,26.666667%);stroke-opacity:1;stroke-miterlimit:10;" d="M 31.875 75.78125 L 44.867188 97.90625 "/>
<path style="fill:none;stroke-width:1;stroke-linecap:butt;stroke-linejoin:miter;stroke:rgb(26.666667%,26.666667%,26.666667%);stroke-opacity:1;stroke-miterlimit:10;" d="M 31.875 75.78125 L 53.394531 114.128906 "/>
<path style="fill:none;stroke-width:1;stroke-linecap:butt;stroke-linejoin:miter;stroke:rgb(26.666667%,26.666667%,26.666667%);stroke-opacity:1;stroke-miterlimit:10;" d="M 31.875 75.78125 L 71 43.042969 "/>
<path style="fill:none;stroke-width:1;stroke-linecap:butt;stroke-linejoin:miter;stroke:rgb(26.666667%,26.666667%,26.666667%);stroke-opacity:1;stroke-miterlimit:10;" d="M 31.875 75.78125 L 72.132812 64.523438 "/>
<path style="fill:none;stroke-width:1;stroke-linecap:butt;stroke-linejoin:miter;stroke:rgb(26.666667%,26.666667%,26.666667%);stroke-opacity:1;stroke-miterlimit:10;" d="M 44.867188 97.90625 L 53.394531 114.128906 "/>
<path style="fill:none;stroke-width:1;stroke-linecap:butt;stroke-linejoin:miter;stroke:rgb(26.666667%,26.666667%,26.666667%);stroke-opacity:1;stroke-miterlimit:10;" d="M 44.867188 97.90625 L 72.132812 64.523438 "/>
<path style="fill:none;stroke-width:1;stroke-linecap:butt;stroke-linejoin:miter;stroke:rgb(26.666667%,26.666667%,26.666667%);stroke-opacity:1;stroke-miterlimit:10;" d="M 44.867188 97.90625 L 74.546875 122.328125 "/>
<path style="fill:none;stroke-width:1;stroke-linecap:butt;stroke-linejoin:miter;stroke:rgb(26.666667%,26.666667%,26.666667%);stroke-opacity:1;stroke-miterlimit:10;" d="M 44.867188 97.90625 L 75.574219 137.074219 "/>
<path style="fill:none;stroke-width:1;stroke-linecap:butt;stroke-linejoin:miter;stroke:rgb(26.666667%,26.666667%,26.666667%);stroke-opacity:1;stroke-miterlimit:10;" d="M 53.394531 114.128906 L 72.253906 152.382812 "/>
<path style="fill:none;stroke-width:1;stroke-linecap:butt;stroke-linejoin:miter;stroke:rgb(26.666667%,26.666667%,26.666667%);stroke-opacity:1;stroke-miterlimit:10;" d="M 53.394531 114.128906 L 74.546875 122.328125 "/>
<path style="fill:none;stroke-width:1;stroke-linecap:butt;stroke-linejoin:miter;stroke:rgb(26.666667%,26.666667%,26.666667%);stroke-opacity:1;stroke-miterlimit:10;" d="M 53.394531 114.128906 L 75.574219 137.074219 "/>
<path style="fill:none;stroke-width:1;stroke-linecap:butt;stroke-linejoin:miter;stroke:rgb(26.666667%,26.666667%,26.666667%);stroke-opacity:1;stroke-miterlimit:10;" d="M 71 43.042969 L 72.132812 64.523438 "/>
<path style="fill:none;stroke-width:1;stroke-linecap:butt;stroke-linejoin:miter;stroke:rgb(26.666667%,26.666667%,26.666667%);stroke-opacity:1;stroke-miterlimit:10;" d="M 71 43.042969 L 89.539062 24.386719 "/>
<path style="fill:none;stroke-width:1;stroke-linecap:butt;stroke-linejoin:miter;stroke:rgb(26.666667%,26.666667%,26.666667%);stroke-opacity:1;stroke-miterlimit:10;" d="M 72.132812 64.523438 L 89.539062 24.386719 "/>
<path style="fill:none;stroke-width:1;stroke-linecap:butt;stroke-linejoin:miter;stroke:rgb(26.666667%,26.666667%,26.666667%);stroke-opacity:1;stroke-miterlimit:10;" d="M 72.132812 64.523438 L 111.5625 85.816406 "/>
<path style="fill:none;stroke-width:1;stroke-linecap:butt;stroke-linejoin:miter;stroke:rgb(26.666667%,26.666667%,26.666667%);stroke-opacity:1;stroke-miterlimit:10;" d="M 72.253906 152.382812 L 74.546875 122.328125 "/>
<path style="fill:none;stroke-width:1;stroke-linecap:butt;stroke-linejoin:miter;stroke:rgb(26.666667%,26.666667%,26.666667%);stroke-opacity:1;stroke-miterlimit:10;" d="M 72.253906 152.382812 L 75.574219 137.074219 "/>
<path style="fill:none;stroke-width:1;stroke-linecap:butt;stroke-linejoin:miter;stroke:rgb(26.666667%,26.666667%,26.666667%);stroke-opacity:1;stroke-miterlimit:10;" d="M 72.253906 152.382812 L 94.355469 180 "/>
<path style="fill:none;stroke-width:1;stroke-linecap:butt;stroke-linejoin:miter;stroke:rgb(26.666667%,26.666667%,26.666667%);stroke-opacity:1;stroke-miterlimit:10;" d="M 72.253906 152.382812 L 120.820312 151.070312 "/>
<path style="fill:none;stroke-width:1;stroke-linecap:butt;stroke-linejoin:miter;stroke:rgb(26.666667%,26.666667%,26.666667%);stroke-opacity:1;stroke-miterlimit:10;" d="M 74.546875 122.328125 L 75.574219 137.074219 "/>
<path style="fill:none;stroke-width:1;stroke-linecap:butt;stroke-linejoin:miter;stroke:rgb(26.666667%,26.666667%,26.666667%);stroke-opacity:1;stroke-miterlimit:10;" d="M 75.574219 137.074219 L 94.355469 180 "/>
<path style="fill:none;stroke-width:1;stroke-linecap:butt;stroke-linejoin:miter;stroke:rgb(26.666667%,26.666667%,26.666667%);stroke-opacity:1;stroke-miterlimit:10;" d="M 75.574219 137.074219 L 120.820312 151.070312 "/>
<path style="fill:none;stroke-width:1;stroke-linecap:butt;stroke-linejoin:miter;stroke:rgb(26.666667%,26.666667%,26.666667%);stroke-opacity:1;stroke-miterlimit:10;" d="M 94.355469 180 L 120.820312 151.070312 "/>
<path style="fill:none;stroke-width:1;stroke-linecap:butt;stroke-linejoin:miter;stroke:rgb(26.666667%,26.666667%,26.666667%);stroke-opacity:1;stroke-miterlimit:10;" d="M 120.820312 151.070312 L 127.152344 138.183594 "/>
<path style="fill:none;stroke-width:1;stroke-linecap:butt;stroke-linejoin:miter;stroke:rgb(26.666667%,26.666667%,26.666667%);stroke-opacity:1;stroke-miterlimit:10;" d="M 120.820312 151.070312 L 127.738281 138.378906 "/>
<path style="fill:none;stroke-width:1;stroke-linecap:butt;stroke-linejoin:miter;stroke:rgb(26.666667%,26.666667%,26.666667%);stroke-opacity:1;stroke-miterlimit:10;" d="M 127.152344 138.183594 L 127.738281 138.378906 "/>
<path style="fill:none;stroke-width:1;stroke-linecap:butt;stroke-linejoin:miter;stroke:rgb(26.666667%,26.666667%,26.666667%);stroke-opacity:1;stroke-miterlimit:10;" d="M 127.152344 138.183594 L 174.351562 153.851562 "/>
<path style="fill:none;stroke-width:1;stroke-linecap:butt;stroke-linejoin:miter;stroke:rgb(26.666667%,26.666667%,26.666667%);stroke-opacity:1;stroke-miterlimit:10;" d="M 127.738281 138.378906 L 174.351562 153.851562 "/>
<path style="fill:none;stroke-width:1;stroke-linecap:butt;stroke-linejoin:miter;stroke:rgb(26.666667%,26.666667%,26.666667%);stroke-opacity:1;stroke-miterlimit:10;" d="M 154.179688 20 L 176.566406 50.863281 "/>
<path style="fill:none;stroke-width:1;stroke-linecap:butt;stroke-linejoin:miter;stroke:rgb(26.666667%,26.666667%,26.666667%);stroke-opacity:1;stroke-miterlimit:10;" d="M 174.351562 153.851562 L 180 169.054688 "/>
<path style="fill-rule:nonzero;fill:rgb(100%,0%,0%);fill-opacity:1;stroke-width:1;stroke-linecap:butt;stroke-linejoin:miter;stroke:rgb(0%,0%,0%);stroke-opacity:1;stroke-miterlimit:10;" d="M 30 66.195312 C 30 71.71875 25.523438 76.195312 20 76.195312 C 14.476562 76.195312 10 71.71875 10 66.195312 C 10 60.671875 14.476562 56.195312 20 56.195312 C 25.523438 56.195312 30 60.671875 30 66.195312 "/>
<path style="fill-rule:nonzero;fill:rgb(100%,0%,0%);fill-opacity:1;stroke-width:1;stroke-linecap:butt;stroke-linejoin:miter;stroke:rgb(0%,0%,0%);stroke-opacity:1;stroke-miterlimit:10;" d="M 38.417969 148.996094 C 38.417969 154.519531 33.941406 158.996094 28.417969 158.996094 C 22.894531 158.996094 18.417969 154.519531 18.417969 148.996094 C 18.417969 143.472656 22.894531 138.996094 28.417969 138.996094 C 33.941406 138.996094 38.417969 143.472656 38.417969 148.996094 "/>
<path style="fill-rule:nonzero;fill:rgb(100%,0%,0%);fill-opacity:1;stroke-width:1;stroke-linecap:butt;stroke-linejoin:miter;stroke:rgb(0%,0%,0%);stroke-opacity:1;stroke-miterlimit:10;" d="M 41.875 75.78125 C 41.875 81.304688 37.398438 85.78125 31.875 85.78125 C 26.351562 85.78125 21.875 81.304688 21.875 75.78125 C 21.875 70.257812 26.351562 65.78125 31.875 65.78125 C 37.398438 65.78125 41.875 70.257812 41.875 75.78125 "/>
<path style="fill-rule:nonzero;fill:rgb(100%,0%,0%);fill-opacity:1;stroke-width:1;stroke-linecap:butt;stroke-linejoin:miter;stroke:rgb(0%,0%,0%);stroke-opacity:1;stroke-miterlimit:10;" d="M 54.867188 97.90625 C 54.867188 103.429688 50.386719 107.90625 44.867188 107.90625 C 39.34375 107.90625 34.867188 103.429688 34.867188 97.90625 C 34.867188 92.382812 39.34375 87.90625 44.867188 87.90625 C 50.386719 87.90625 54.867188 92.382812 54.867188 97.90625 "/>
<path style="fill-rule:nonzero;fill:rgb(100%,0%,0%);fill-opacity:1;stroke-width:1;stroke-linecap:butt;stroke-linejoin:miter;stroke:rgb(0%,0%,0%);stroke-opacity:1;stroke-miterlimit:10;" d="M 63.394531 114.128906 C 63.394531 119.652344 58.917969 124.128906 53.394531 124.128906 C 47.871094 124.128906 43.394531 119.652344 43.394531 114.128906 C 43.394531 108.605469 47.871094 104.128906 53.394531 104.128906 C 58.917969 104.128906 63.394531 108.605469 63.394531 114.128906 "/>
<path style="fill-rule:nonzero;fill:rgb(100%,0%,0%);fill-opacity:1;stroke-width:1;stroke-linecap:butt;stroke-linejoin:miter;stroke:rgb(0%,0%,0%);stroke-opacity:1;stroke-miterlimit:10;" d="M 81 43.042969 C 81 48.566406 76.519531 53.042969 71 53.042969 C 65.476562 53.042969 61 48.566406 61 43.042969 C 61 37.519531 65.476562 33.042969 71 33.042969 C 76.519531 33.042969 81 37.519531 81 43.042969 "/>
<path style="fill-rule:nonzero;fill:rgb(100%,0%,0%);fill-opacity:1;stroke-width:1;stroke-linecap:butt;stroke-linejoin:miter;stroke:rgb(0%,0%,0%);stroke-opacity:1;stroke-miterlimit:10;" d="M 82.132812 64.523438 C 82.132812 70.046875 77.65625 74.523438 72.132812 74.523438 C 66.613281 74.523438 62.132812 70.046875 62.132812 64.523438 C 62.132812 59 66.613281 54.523438 72.132812 54.523438 C 77.65625 54.523438 82.132812 59 82.132812 64.523438 "/>
<path style="fill-rule:nonzero;fill:rgb(100%,0%,0%);fill-opacity:1;stroke-width:1;stroke-linecap:butt;stroke-linejoin:miter;stroke:rgb(0%,0%,0%);stroke-opacity:1;stroke-miterlimit:10;" d="M 82.253906 152.382812 C 82.253906 157.90625 77.773438 162.382812 72.253906 162.382812 C 66.730469 162.382812 62.253906 157.90625 62.253906 152.382812 C 62.253906 146.859375 66.730469 142.382812 72.253906 142.382812 C 77.773438 142.382812 82.253906 146.859375 82.253906 152.382812 "/>
<path style="fill-rule:nonzero;fill:rgb(100%,0%,0%);fill-opacity:1;stroke-width:1;stroke-linecap:butt;stroke-linejoin:miter;stroke:rgb(0%,0%,0%);stroke-opacity:1;stroke-miterlimit:10;" d="M 84.546875 122.328125 C 84.546875 127.851562 80.070312 132.328125 74.546875 132.328125 C 69.027344 132.328125 64.546875 127.851562 64.546875 122.328125 C 64.546875 116.804688 69.027344 112.328125 74.546875 112.328125 C 80.070312 112.328125 84.546875 116.804688 84.546875 122.328125 "/>
<path style="fill-rule:nonzero;fill:rgb(100%,0%,0%);fill-opacity:1;stroke-width:1;stroke-linecap:butt;stroke-linejoin:miter;stroke:rgb(0%,0%,0%);stroke-opacity:1;stroke-miterlimit:10;" d="M 85.574219 137.074219 C 85.574219 142.597656 81.097656 147.074219 75.574219 147.074219 C 70.054688 147.074219 65.574219 142.597656 65.574219 137.074219 C 65.574219 131.554688 70.054688 127.074219 75.574219 127.074219 C 81.097656 127.074219 85.574219 131.554688 85.574219 137.074219 "/>
<path style="fill-rule:nonzero;fill:rgb(100%,0%,0%);fill-opacity:1;stroke-width:1;stroke-linecap:butt;stroke-linejoin:miter;stroke:rgb(0%,0%,0%);stroke-opacity:1;stroke-miterlimit:10;" d="M 99.539062 24.386719 C 99.539062 29.910156 95.0625 34.386719 89.539062 34.386719 C 84.015625 34.386719 79.539062 29.910156 79.539062 24.386719 C 79.539062 18.863281 84.015625 14.386719 89.539062 14.386719 C 95.0625 14.386719 99.539062 18.863281 99.539062 24.386719 "/>
<path style="fill-rule:nonzero;fill:rgb(100%,0%,0%);fill-opacity:1;stroke-width:1;stroke-linecap:butt;stroke-linejoin:miter;stroke:rgb(0%,0%,0%);stroke-opacity:1;stroke-miterlimit:10;" d="M 104.355469 180 C 104.355469 185.523438 99.878906 190 94.355469 190 C 88.832031 190 84.355469 185.523438 84.355469 180 C 84.355469 174.476562 88.832031 170 94.355469 170 C 99.878906 170 104.355469 174.476562 104.355469 180 "/>
<path style="fill-rule:nonzero;fill:rgb(100%,0%,0%);fill-opacity:1;stroke-width:1;stroke-linecap:butt;stroke-linejoin:miter;stroke:rgb(0%,0%,0%);stroke-opacity:1;stroke-miterlimit:10;" d="M 121.5625 85.816406 C 121.5625 91.339844 117.082031 95.816406 111.5625 95.816406 C 106.039062 95.816406 101.5625 91.339844 101.5625 85.816406 C 101.5625 80.296875 106.039062 75.816406 111.5625 75.816406 C 117.082031 75.816406 121.5625 80.296875 121.5625 85.816406 "/>
<path style="fill-rule:nonzero;fill:rgb(100%,0%,0%);fill-opacity:1;stroke-width:1;stroke-linecap:butt;stroke-linejoin:miter;stroke:rgb(0%,0%,0%);stroke-opacity:1;stroke-miterlimit:10;" d="M 130.820312 151.070312 C 130.820312 156.59375 126.34375 161.070312 120.820312 161.070312 C 115.300781 161.070312 110.820312 156.59375 110.820312 151.070312 C 110.820312 145.546875 115.300781 141.070312 120.820312 141.070312 C 126.34375 141.070312 130.820312 145.546875 130.820312 151.070312 "/>
<path style="fill-rule:nonzero;fill:rgb(100%,0%,0%);fill-opacity:1;stroke-width:1;stroke-linecap:butt;stroke-linejoin:miter;stroke:rgb(0%,0%,0%);stroke-opacity:1;stroke-miterlimit:10;" d="M 137.152344 138.183594 C 137.152344 143.703125 132.675781 148.183594 127.152344 148.183594 C 121.628906 148.183594 117.152344 143.703125 117.152344 138.183594 C 117.152344 132.660156 121.628906 128.183594 127.152344 128.183594 C 132.675781 128.183594 137.152344 132.660156 137.152344 138.183594 "/>
<path style="fill-rule:nonzero;fill:rgb(100%,0%,0%);fill-opacity:1;stroke-width:1;stroke-linecap:butt;stroke-linejoin:miter;stroke:rgb(0%,0%,0%);stroke-opacity:1;stroke-miterlimit:10;" d="M 137.738281 138.378906 C 137.738281 143.902344 133.261719 148.378906 127.738281 148.378906 C 122.214844 148.378906 117.738281 143.902344 117.738281 138.378906 C 117.738281 132.855469 122.214844 128.378906 127.738281 128.378906 C 133.261719 128.378906 137.738281 132.855469 137.738281 138.378906 "/>
<path style="fill-rule:nonzero;fill:rgb(100%,0%,0%);fill-opacity:1;stroke-width:1;stroke-linecap:butt;stroke-linejoin:miter;stroke:rgb(0%,0%,0%);stroke-opacity:1;stroke-miterlimit:10;" d="M 164.179688 20 C 164.179688 25.523438 159.703125 30 154.179688 30 C 148.660156 30 144.179688 25.523438 144.179688 20 C 144.179688 14.476562 148.660156 10 154.179688 10 C 159.703125 10 164.179688 14.476562 164.179688 20 "/>
<path style="fill-rule:nonzero;fill:rgb(100%,0%,0%);fill-opacity:1;stroke-width:1;stroke-linecap:butt;stroke-linejoin:miter;stroke:rgb(0%,0%,0%);stroke-opacity:1;stroke-miterlimit:10;" d="M 184.351562 153.851562 C 184.351562 159.375 179.875 163.851562 174.351562 163.851562 C 168.828125 163.851562 164.351562 159.375 164.351562 153.851562 C 164.351562 148.328125 168.828125 143.851562 174.351562 143.851562 C 179.875 143.851562 184.351562 148.328125 184.351562 153.851562 "/>
<path style="fill-rule:nonzero;fill:rgb(100%,0%,0%);fill-opacity:1;stroke-width:1;stroke-linecap:butt;stroke-linejoin:miter;stroke:rgb(0%,0%,0%);stroke-opacity:1;stroke-miterlimit:10;" d="M 186.566406 50.863281 C 186.566406 56.386719 182.089844 60.863281 176.566406 60.863281 C 171.042969 60.863281 166.566406 56.386719 166.566406 50.863281 C 166.566406 45.339844 171.042969 40.863281 176.566406 40.863281 C 182.089844 40.863281 186.566406 45.339844 186.566406 50.863281 "/>
<path style="fill-rule:nonzero;fill:rgb(100%,0%,0%);fill-opacity:1;stroke-width:1;stroke-linecap:butt;stroke-linejoin:miter;stroke:rgb(0%,0%,0%);stroke-opacity:1;stroke-miterlimit:10;" d="M 190 169.054688 C 190 174.574219 185.523438 179.054688 180 179.054688 C 174.476562 179.054688 170 174.574219 170 169.054688 C 170 163.53125 174.476562 159.054688 180 159.054688 C 185.523438 159.054688 190 163.53125 190 169.054688 "/>
</g>
</svg>
