<?xml version="1.0" encoding="UTF-8"?>
<svg xmlns="http://www.w3.org/2000/svg" xmlns:xlink="http://www.w3.org/1999/xlink" width="200pt" height="200pt" viewBox="0 0 200 200" version="1.1">
<g id="surface8">
<rect x="0" y="0" width="200" height="200" style="fill:rgb(100%,100%,100%);fill-opacity:1;stroke:none;"/>
<path style="fill:none;stroke-width:1;stroke-linecap:butt;stroke-linejoin:miter;stroke:rgb(26.666667%,26.666667%,26.666667%);stroke-opacity:1;stroke-miterlimit:10;" d="M 20 136.710938 L 35.777344 129.261719 "/>
<path style="fill:none;stroke-width:1;stroke-linecap:butt;stroke-linejoin:miter;stroke:rgb(26.666667%,26.666667%,26.666667%);stroke-opacity:1;stroke-miterlimit:10;" d="M 20 136.710938 L 44.089844 98.742188 "/>
<path style="fill:none;stroke-width:1;stroke-linecap:butt;stroke-linejoin:miter;stroke:rgb(26.666667%,26.666667%,26.666667%);stroke-opacity:1;stroke-miterlimit:10;" d="M 20 136.710938 L 44.851562 152.613281 "/>
<path style="fill:none;stroke-width:1;stroke-linecap:butt;stroke-linejoin:miter;stroke:rgb(26.666667%,26.666667%,26.666667%);stroke-opacity:1;stroke-miterlimit:10;" d="M 20 136.710938 L 48.429688 144.175781 "/>
<path style="fill:none;stroke-width:1;stroke-linecap:butt;stroke-linejoin:miter;stroke:rgb(26.666667%,26.666667%,26.666667%);stroke-opacity:1;stroke-miterlimit:10;" d="M 20 136.710938 L 48.605469 125.238281 "/>
<path style="fill:none;stroke-width:1;stroke-linecap:butt;stroke-linejoin:miter;stroke:rgb(26.666667%,26.666667%,26.666667%);stroke-opacity:1;stroke-miterlimit:10;" d="M 35.777344 129.261719 L 44.089844 98.742188 "/>
<path style="fill:none;stroke-width:1;stroke-linecap:butt;stroke-linejoin:miter;stroke:rgb(26.666667%,26.666667%,26.666667%);stroke-opacity:1;stroke-miterlimit:10;" d="M 35.777344 129.261719 L 44.851562 152.613281 "/>
<path style="fill:none;stroke-width:1;stroke-linecap:butt;stroke-linejoin:miter;stroke:rgb(26.666667%,26.666667%,26.666667%);stroke-opacity:1;stroke-miterlimit:10;" d="M 35.777344 129.261719 L 48.429688 144.175781 "/>
<path style="fill:none;stroke-width:1;stroke-linecap:butt;stroke-linejoin:miter;stroke:rgb(26.666667%,26.666667%,26.666667%);stroke-opacity:1;stroke-miterlimit:10;" d="M 35.777344 129.261719 L 48.605469 125.238281 "/>
<path style="fill:none;stroke-width:1;stroke-linecap:butt;stroke-linejoin:miter;stroke:rgb(26.666667%,26.666667%,26.666667%);stroke-opacity:1;stroke-miterlimit:10;" d="M 44.089844 98.742188 L 48.429688 144.175781 "/>
<path style="fill:none;stroke-width:1;stroke-linecap:butt;stroke-linejoin:miter;stroke:rgb(26.666667%,26.666667%,26.666667%);stroke-opacity:1;stroke-miterlimit:10;" d="M 44.089844 98.742188 L 48.605469 125.238281 "/>
<path style="fill:none;stroke-width:1;stroke-linecap:butt;stroke-linejoin:miter;stroke:rgb(26.666667%,26.666667%,26.666667%);stroke-opacity:1;stroke-miterlimit:10;" d="M 44.851562 152.613281 L 48.429688 144.175781 "/>
<path style="fill:none;stroke-width:1;stroke-linecap:butt;stroke-linejoin:miter;stroke:rgb(26.666667%,26.666667%,26.666667%);stroke-opacity:1;stroke-miterlimit:10;" d="M 44.851562 152.613281 L 48.605469 125.238281 "/>
<path style="fill:none;stroke-width:1;stroke-linecap:butt;stroke-linejoin:miter;stroke:rgb(26.666667%,26.666667%,26.666667%);stroke-opacity:1;stroke-miterlimit:10;" d="M 48.429688 144.175781 L 48.605469 125.238281 "/>
<path style="fill:none;stroke-width:1;stroke-linecap:butt;stroke-linejoin:miter;stroke:rgb(26.666667%,26.666667%,26.666667%);stroke-opacity:1;stroke-miterlimit:10;" d="M 86.851562 50.089844 L 104.953125 41.101562 "/>
<path style="fill:none;stroke-width:1;stroke-linecap:butt;stroke-linejoin:miter;stroke:rgb(26.666667%,26.666667%,26.666667%);stroke-opacity:1;stroke-miterlimit:10;" d="M 86.851562 50.089844 L 116.179688 68.34375 "/>
<path style="fill:none;stroke-width:1;stroke-linecap:butt;stroke-linejoin:miter;stroke:rgb(26.666667%,26.666667%,26.666667%);stroke-opacity:1;stroke-miterlimit:10;" d="M 86.851562 50.089844 L 117.386719 20 "/>
<path style="fill:none;stroke-width:1;stroke-linecap:butt;stroke-linejoin:miter;stroke:rgb(26.666667%,26.666667%,26.666667%);stroke-opacity:1;stroke-miterlimit:10;" d="M 104.453125 180 L 114.03125 137.574219 "/>
<path style="fill:none;stroke-width:1;stroke-linecap:butt;stroke-linejoin:miter;stroke:rgb(26.666667%,26.666667%,26.666667%);stroke-opacity:1;stroke-miterlimit:10;" d="M 104.453125 180 L 120.933594 170.914062 "/>
<path style="fill:none;stroke-width:1;stroke-linecap:butt;stroke-linejoin:miter;stroke:rgb(26.666667%,26.666667%,26.666667%);stroke-opacity:1;stroke-miterlimit:10;" d="M 104.953125 41.101562 L 116.179688 68.34375 "/>
<path style="fill:none;stroke-width:1;stroke-linecap:butt;stroke-linejoin:miter;stroke:rgb(26.666667%,26.666667%,26.666667%);stroke-opacity:1;stroke-miterlimit:10;" d="M 104.953125 41.101562 L 117.386719 20 "/>
<path style="fill:none;stroke-width:1;stroke-linecap:butt;stroke-linejoin:miter;stroke:rgb(26.666667%,26.666667%,26.666667%);stroke-opacity:1;stroke-miterlimit:10;" d="M 114.03125 137.574219 L 120.933594 170.914062 "/>
<path style="fill:none;stroke-width:1;stroke-linecap:butt;stroke-linejoin:miter;stroke:rgb(26.666667%,26.666667%,26.666667%);stroke-opacity:1;stroke-miterlimit:10;" d="M 114.03125 137.574219 L 126.367188 104.949219 "/>
<path style="fill:none;stroke-width:1;stroke-linecap:butt;stroke-linejoin:miter;stroke:rgb(26.666667%,26.666667%,26.666667%);stroke-opacity:1;stroke-miterlimit:10;" d="M 116.179688 68.34375 L 117.386719 20 "/>
<path style="fill:none;stroke-width:1;stroke-linecap:butt;stroke-linejoin:miter;stroke:rgb(26.666667%,26.666667%,26.666667%);stroke-opacity:1;stroke-miterlimit:10;" d="M 116.179688 68.34375 L 126.367188 104.949219 "/>
<path style="fill:none;stroke-width:1;stroke-linecap:butt;stroke-linejoin:miter;stroke:rgb(26.666667%,26.666667%,26.666667%);stroke-opacity:1;stroke-miterlimit:10;" d="M 116.179688 68.34375 L 162.949219 61.675781 "/>
<path style="fill:none;stroke-width:1;stroke-linecap:butt;stroke-linejoin:miter;stroke:rgb(26.666667%,26.666667%,26.666667%);stroke-opacity:1;stroke-miterlimit:10;" d="M 126.367188 104.949219 L 164.421875 105.835938 "/>
<path style="fill:none;stroke-width:1;stroke-linecap:butt;stroke-linejoin:miter;stroke:rgb(26.666667%,26.666667%,26.666667%);stroke-opacity:1;stroke-miterlimit:10;" d="M 126.367188 104.949219 L 166.632812 103.335938 "/>
<path style="fill:none;stroke-width:1;stroke-linecap:butt;stroke-linejoin:miter;stroke:rgb(26.666667%,26.666667%,26.666667%);stroke-opacity:1;stroke-miterlimit:10;" d="M 126.367188 104.949219 L 169.695312 87.972656 "/>
<path style="fill:none;stroke-width:1;stroke-linecap:butt;stroke-linejoin:miter;stroke:rgb(26.666667%,26.666667%,26.666667%);stroke-opacity:1;stroke-miterlimit:10;" d="M 162.949219 61.675781 L 164.421875 105.835938 "/>
<path style="fill:none;stroke-width:1;stroke-linecap:butt;stroke-linejoin:miter;stroke:rgb(26.666667%,26.666667%,26.666667%);stroke-opacity:1;stroke-miterlimit:10;" d="M 162.949219 61.675781 L 166.632812 103.335938 "/>
<path style="fill:none;stroke-width:1;stroke-linecap:butt;stroke-linejoin:miter;stroke:rgb(26.666667%,26.666667%,26.666667%);stroke-opacity:1;stroke-miterlimit:10;" d="M 162.949219 61.675781 L 169.695312 87.972656 "/>
<path style="fill:none;stroke-width:1;stroke-linecap:butt;stroke-linejoin:miter;stroke:rgb(26.666667%,26.666667%,26.666667%);stroke-opacity:1;stroke-miterlimit:10;" d="M 162.949219 61.675781 L 180 56.867188 "/>
<path style="fill:none;stroke-width:1;stroke-linecap:butt;stroke-linejoin:miter;stroke:rgb(26.666667%,26.666667%,26.666667%);stroke-opacity:1;stroke-miterlimit:10;" d="M 164.421875 105.835938 L 166.632812 103.335938 "/>
<path style="fill:none;stroke-width:1;stroke-linecap:butt;stroke-linejoin:miter;stroke:rgb(26.666667%,26.666667%,26.666667%);stroke-opacity:1;stroke-miterlimit:10;" d="M 164.421875 105.835938 L 169.695312 87.972656 "/>
<path style="fill:none;stroke-width:1;stroke-linecap:butt;stroke-linejoin:miter;stroke:rgb(26.666667%,26.666667%,26.666667%);stroke-opacity:1;stroke-miterlimit:10;" d="M 164.421875 105.835938 L 172.261719 150.199219 "/>
<path style="fill:none;stroke-width:1;stroke-linecap:butt;stroke-linejoin:miter;stroke:rgb(26.666667%,26.666667%,26.666667%);stroke-opacity:1;stroke-miterlimit:10;" d="M 164.421875 105.835938 L 180 56.867188 "/>
<path style="fill:none;stroke-width:1;stroke-linecap:butt;stroke-linejoin:miter;stroke:rgb(26.666667%,26.666667%,26.666667%);stroke-opacity:1;stroke-miterlimit:10;" d="M 166.632812 103.335938 L 169.695312 87.972656 "/>
<path style="fill:none;stroke-width:1;stroke-linecap:butt;stroke-linejoin:miter;stroke:rgb(26.666667%,26.666667%,26.666667%);stroke-opacity:1;stroke-miterlimit:10;" d="M 166.632812 103.335938 L 172.261719 150.199219 "/>
<path style="fill:none;stroke-width:1;stroke-linecap:butt;stroke-linejoin:miter;stroke:rgb(26.666667%,26.666667%,26.666667%);stroke-opacity:1;stroke-miterlimit:10;" d="M 166.632812 103.335938 L 180 56.867188 "/>
<path style="fill:none;stroke-width:1;stroke-linecap:butt;stroke-linejoin:miter;stroke:rgb(26.666667%,26.666667%,26.666667%);stroke-opacity:1;stroke-miterlimit:10;" d="M 169.695312 87.972656 L 180 56.867188 "/>
<path style="fill-rule:nonzero;fill:rgb(100%,0%,0%);fill-opacity:1;stroke-width:1;stroke-linecap:butt;stroke-linejoin:miter;stroke:rgb(0%,0%,0%);stroke-opacity:1;stroke-miterlimit:10;" d="M 30 136.710938 C 30 142.234375 25.523438 146.710938 20 146.710938 C 14.476562 146.710938 10 142.234375 10 136.710938 C 10 131.1875 14.476562 126.710938 20 126.710938 C 25.523438 126.710938 30 131.1875 30 136.710938 "/>
<path style="fill-rule:nonzero;fill:rgb(100%,0%,0%);fill-opacity:1;stroke-width:1;stroke-linecap:butt;stroke-linejoin:miter;stroke:rgb(0%,0%,0%);stroke-opacity:1;stroke-miterlimit:10;" d="M 45.777344 129.261719 C 45.777344 134.785156 41.296875 139.261719 35.777344 139.261719 C 30.253906 139.261719 25.777344 134.785156 25.777344 129.261719 C 25.777344 123.738281 30.253906 119.261719 35.777344 119.261719 C 41.296875 119.261719 45.777344 123.738281 45.777344 129.261719 "/>
<path style="fill-rule:nonzero;fill:rgb(100%,0%,0%);fill-opacity:1;stroke-width:1;stroke-linecap:butt;stroke-linejoin:miter;stroke:rgb(0%,0%,0%);stroke-opacity:1;stroke-miterlimit:10;" d="M 54.089844 98.742188 C 54.089844 104.265625 49.613281 108.742188 44.089844 108.742188 C 38.566406 108.742188 34.089844 104.265625 34.089844 98.742188 C 34.089844 93.21875 38.566406 88.742188 44.089844 88.742188 C 49.613281 88.742188 54.089844 93.21875 54.089844 98.742188 "/>
<path style="fill-rule:nonzero;fill:rgb(100%,0%,0%);fill-opacity:1;stroke-width:1;stroke-linecap:butt;stroke-linejoin:miter;stroke:rgb(0%,0%,0%);stroke-opacity:1;stroke-miterlimit:10;" d="M 54.851562 152.613281 C 54.851562 158.136719 50.375 162.613281 44.851562 162.613281 C 39.328125 162.613281 34.851562 158.136719 34.851562 152.613281 C 34.851562 147.089844 39.328125 142.613281 44.851562 142.613281 C 50.375 142.613281 54.851562 147.089844 54.851562 152.613281 "/>
<path style="fill-rule:nonzero;fill:rgb(100%,0%,0%);fill-opacity:1;stroke-width:1;stroke-linecap:butt;stroke-linejoin:miter;stroke:rgb(0%,0%,0%);stroke-opacity:1;stroke-miterlimit:10;" d="M 58.429688 144.175781 C 58.429688 149.699219 53.953125 154.175781 48.429688 154.175781 C 42.910156 154.175781 38.429688 149.699219 38.429688 144.175781 C 38.429688 138.652344 42.910156 134.175781 48.429688 134.175781 C 53.953125 134.175781 58.429688 138.652344 58.429688 144.175781 "/>
<path style="fill-rule:nonzero;fill:rgb(100%,0%,0%);fill-opacity:1;stroke-width:1;stroke-linecap:butt;stroke-linejoin:miter;stroke:rgb(0%,0%,0%);stroke-opacity:1;stroke-miterlimit:10;" d="M 58.605469 125.238281 C 58.605469 130.761719 54.128906 135.238281 48.605469 135.238281 C 43.082031 135.238281 38.605469 130.761719 38.605469 125.238281 C 38.605469 119.714844 43.082031 115.238281 48.605469 115.238281 C 54.128906 115.238281 58.605469 119.714844 58.605469 125.238281 "/>
<path style="fill-rule:nonzero;fill:rgb(100%,0%,0%);fill-opacity:1;stroke-width:1;stroke-linecap:butt;stroke-linejoin:miter;stroke:rgb(0%,0%,0%);stroke-opacity:1;stroke-miterlimit:10;" d="M 96.851562 50.089844 C 96.851562 55.613281 92.375 60.089844 86.851562 60.089844 C 81.328125 60.089844 76.851562 55.613281 76.851562 50.089844 C 76.851562 44.570312 81.328125 40.089844 86.851562 40.089844 C 92.375 40.089844 96.851562 44.570312 96.851562 50.089844 "/>
<path style="fill-rule:nonzero;fill:rgb(100%,0%,0%);fill-opacity:1;stroke-width:1;stroke-linecap:butt;stroke-linejoin:miter;stroke:rgb(0%,0%,0%);stroke-opacity:1;stroke-miterlimit:10;" d="M 114.453125 180 C 114.453125 185.523438 109.976562 190 104.453125 190 C 98.933594 190 94.453125 185.523438 94.453125 180 C 94.453125 174.476562 98.933594 170 104.453125 170 C 109.976562 170 114.453125 174.476562 114.453125 180 "/>
<path style="fill-rule:nonzero;fill:rgb(100%,0%,0%);fill-opacity:1;stroke-width:1;stroke-linecap:butt;stroke-linejoin:miter;stroke:rgb(0%,0%,0%);stroke-opacity:1;stroke-miterlimit:10;" d="M 114.953125 41.101562 C 114.953125 46.625 110.476562 51.101562 104.953125 51.101562 C 99.429688 51.101562 94.953125 46.625 94.953125 41.101562 C 94.953125 35.578125 99.429688 31.101562 104.953125 31.101562 C 110.476562 31.101562 114.953125 35.578125 114.953125 41.101562 "/>
<path style="fill-rule:nonzero;fill:rgb(100%,0%,0%);fill-opacity:1;stroke-width:1;stroke-linecap:butt;stroke-linejoin:miter;stroke:rgb(0%,0%,0%);stroke-opacity:1;stroke-miterlimit:10;" d="M 124.03125 137.574219 C 124.03125 143.097656 119.554688 147.574219 114.03125 147.574219 C 108.507812 147.574219 104.03125 143.097656 104.03125 137.574219 C 104.03125 132.050781 108.507812 127.574219 114.03125 127.574219 C 119.554688 127.574219 124.03125 132.050781 124.03125 137.574219 "/>
<path style="fill-rule:nonzero;fill:rgb(100%,0%,0%);fill-opacity:1;stroke-width:1;stroke-linecap:butt;stroke-linejoin:miter;stroke:rgb(0%,0%,0%);stroke-opacity:1;stroke-miterlimit:10;" d="M 126.179688 68.34375 C 126.179688 73.867188 121.703125 78.34375 116.179688 78.34375 C 110.660156 78.34375 106.179688 73.867188 106.179688 68.34375 C 106.179688 62.820312 110.660156 58.34375 116.179688 58.34375 C 121.703125 58.34375 126.179688 62.820312 126.179688 68.34375 "/>
<path style="fill-rule:nonzero;fill:rgb(100%,0%,0%);fill-opacity:1;stroke-width:1;stroke-linecap:butt;stroke-linejoin:miter;stroke:rgb(0%,0%,0%);stroke-opacity:1;stroke-miterlimit:10;" d="M 127.386719 20 C 127.386719 25.523438 122.910156 30 117.386719 30 C 111.863281 30 107.386719 25.523438 107.386719 20 C 107.386719 14.476562 111.863281 10 117.386719 10 C 122.910156 10 127.386719 14.476562 127.386719 20 "/>
<path style="fill-rule:nonzero;fill:rgb(100%,0%,0%);fill-opacity:1;stroke-width:1;stroke-linecap:butt;stroke-linejoin:miter;stroke:rgb(0%,0%,0%);stroke-opacity:1;stroke-miterlimit:10;" d="M 130.933594 170.914062 C 130.933594 176.4375 126.457031 180.914062 120.933594 180.914062 C 115.410156 180.914062 110.933594 176.4375 110.933594 170.914062 C 110.933594 165.390625 115.410156 160.914062 120.933594 160.914062 C 126.457031 160.914062 130.933594 165.390625 130.933594 170.914062 "/>
<path style="fill-rule:nonzero;fill:rgb(100%,0%,0%);fill-opacity:1;stroke-width:1;stroke-linecap:butt;stroke-linejoin:miter;stroke:rgb(0%,0%,0%);stroke-opacity:1;stroke-miterlimit:10;" d="M 136.367188 104.949219 C 136.367188 110.472656 131.890625 114.949219 126.367188 114.949219 C 120.84375 114.949219 116.367188 110.472656 116.367188 104.949219 C 116.367188 99.425781 120.84375 94.949219 126.367188 94.949219 C 131.890625 94.949219 136.367188 99.425781 136.367188 104.949219 "/>
<path style="fill-rule:nonzero;fill:rgb(100%,0%,0%);fill-opacity:1;stroke-width:1;stroke-linecap:butt;stroke-linejoin:miter;stroke:rgb(0%,0%,0%);stroke-opacity:1;stroke-miterlimit:10;" d="M 172.949219 61.675781 C 172.949219 67.195312 168.472656 71.675781 162.949219 71.675781 C 157.425781 71.675781 152.949219 67.195312 152.949219 61.675781 C 152.949219 56.152344 157.425781 51.675781 162.949219 51.675781 C 168.472656 51.675781 172.949219 56.152344 172.949219 61.675781 "/>
<path style="fill-rule:nonzero;fill:rgb(100%,0%,0%);fill-opacity:1;stroke-width:1;stroke-linecap:butt;stroke-linejoin:miter;stroke:rgb(0%,0%,0%);stroke-opacity:1;stroke-miterlimit:10;" d="M 174.421875 105.835938 C 174.421875 111.359375 169.945312 115.835938 164.421875 115.835938 C 158.898438 115.835938 154.421875 111.359375 154.421875 105.835938 C 154.421875 100.3125 158.898438 95.835938 164.421875 95.835938 C 169.945312 95.835938 174.421875 100.3125 174.421875 105.835938 "/>
<path style="fill-rule:nonzero;fill:rgb(100%,0%,0%);fill-opacity:1;stroke-width:1;stroke-linecap:butt;stroke-linejoin:miter;stroke:rgb(0%,0%,0%);stroke-opacity:1;stroke-miterlimit:10;" d="M 176.632812 103.335938 C 176.632812 108.855469 172.15625 113.335938 166.632812 113.335938 C 161.109375 113.335938 156.632812 108.855469 156.632812 103.335938 C 156.632812 97.8125 161.109375 93.335938 166.632812 93.335938 C 172.15625 93.335938 176.632812 97.8125 176.632812 103.335938 "/>
<path style="fill-rule:nonzero;fill:rgb(100%,0%,0%);fill-opacity:1;stroke-width:1;stroke-linecap:butt;stroke-linejoin:miter;stroke:rgb(0%,0%,0%);stroke-opacity:1;stroke-miterlimit:10;" d="M 179.695312 87.972656 C 179.695312 93.492188 175.21875 97.972656 169.695312 97.972656 C 164.171875 97.972656 159.695312 93.492188 159.695312 87.972656 C 159.695312 82.449219 164.171875 77.972656 169.695312 77.972656 C 175.21875 77.972656 179.695312 82.449219 179.695312 87.972656 "/>
<path style="fill-rule:nonzero;fill:rgb(100%,0%,0%);fill-opacity:1;stroke-width:1;stroke-linecap:butt;stroke-linejoin:miter;stroke:rgb(0%,0%,0%);stroke-opacity:1;stroke-miterlimit:10;" d="M 182.261719 150.199219 C 182.261719 155.71875 177.785156 160.199219 172.261719 160.199219 C 166.738281 160.199219 162.261719 155.71875 162.261719 150.199219 C 162.261719 144.675781 166.738281 140.199219 172.261719 140.199219 C 177.785156 140.199219 182.261719 144.675781 182.261719 150.199219 "/>
<path style="fill-rule:nonzero;fill:rgb(100%,0%,0%);fill-opacity:1;stroke-width:1;stroke-linecap:butt;stroke-linejoin:miter;stroke:rgb(0%,0%,0%);stroke-opacity:1;stroke-miterlimit:10;" d="M 190 56.867188 C 190 62.390625 185.523438 66.867188 180 66.867188 C 174.476562 66.867188 170 62.390625 170 56.867188 C 170 51.34375 174.476562 46.867188 180 46.867188 C 185.523438 46.867188 190 51.34375 190 56.867188 "/>
</g>
</svg>
