<?xml version="1.0" encoding="UTF-8"?>
<svg xmlns="http://www.w3.org/2000/svg" xmlns:xlink="http://www.w3.org/1999/xlink" width="200pt" height="200pt" viewBox="0 0 200 200" version="1.1">
<g id="surface8">
<rect x="0" y="0" width="200" height="200" style="fill:rgb(100%,100%,100%);fill-opacity:1;stroke:none;"/>
<path style="fill:none;stroke-width:1;stroke-linecap:butt;stroke-linejoin:miter;stroke:rgb(26.666667%,26.666667%,26.666667%);stroke-opacity:1;stroke-miterlimit:10;" d="M 20 77.613281 L 27.296875 101.507812 "/>
<path style="fill:none;stroke-width:1;stroke-linecap:butt;stroke-linejoin:miter;stroke:rgb(26.666667%,26.666667%,26.666667%);stroke-opacity:1;stroke-miterlimit:10;" d="M 20 77.613281 L 33.953125 47.328125 "/>
<path style="fill:none;stroke-width:1;stroke-linecap:butt;stroke-linejoin:miter;stroke:rgb(26.666667%,26.666667%,26.666667%);stroke-opacity:1;stroke-miterlimit:10;" d="M 71.371094 150.925781 L 104.113281 138.957031 "/>
<path style="fill:none;stroke-width:1;stroke-linecap:butt;stroke-linejoin:miter;stroke:rgb(26.666667%,26.666667%,26.666667%);stroke-opacity:1;stroke-miterlimit:10;" d="M 104.113281 138.957031 L 105.253906 98.511719 "/>
<path style="fill:none;stroke-width:1;stroke-linecap:butt;stroke-linejoin:miter;stroke:rgb(26.666667%,26.666667%,26.666667%);stroke-opacity:1;stroke-miterlimit:10;" d="M 104.113281 138.957031 L 120.675781 121.910156 "/>
<path style="fill:none;stroke-width:1;stroke-linecap:butt;stroke-linejoin:miter;stroke:rgb(26.666667%,26.666667%,26.666667%);stroke-opacity:1;stroke-miterlimit:10;" d="M 104.113281 138.957031 L 131.652344 96.214844 "/>
<path style="fill:none;stroke-width:1;stroke-linecap:butt;stroke-linejoin:miter;stroke:rgb(26.666667%,26.666667%,26.666667%);stroke-opacity:1;stroke-miterlimit:10;" d="M 104.113281 138.957031 L 134.738281 146.046875 "/>
<path style="fill:none;stroke-width:1;stroke-linecap:butt;stroke-linejoin:miter;stroke:rgb(26.666667%,26.666667%,26.666667%);stroke-opacity:1;stroke-miterlimit:10;" d="M 104.113281 138.957031 L 142.429688 159.605469 "/>
<path style="fill:none;stroke-width:1;stroke-linecap:butt;stroke-linejoin:miter;stroke:rgb(26.666667%,26.666667%,26.666667%);stroke-opacity:1;stroke-miterlimit:10;" d="M 105.253906 98.511719 L 120.675781 121.910156 "/>
<path style="fill:none;stroke-width:1;stroke-linecap:butt;stroke-linejoin:miter;stroke:rgb(26.666667%,26.666667%,26.666667%);stroke-opacity:1;stroke-miterlimit:10;" d="M 105.253906 98.511719 L 131.652344 96.214844 "/>
<path style="fill:none;stroke-width:1;stroke-linecap:butt;stroke-linejoin:miter;stroke:rgb(26.666667%,26.666667%,26.666667%);stroke-opacity:1;stroke-miterlimit:10;" d="M 115.375 20.019531 L 143.054688 41.421875 "/>
<path style="fill:none;stroke-width:1;stroke-linecap:butt;stroke-linejoin:miter;stroke:rgb(26.666667%,26.666667%,26.666667%);stroke-opacity:1;stroke-miterlimit:10;" d="M 120.675781 121.910156 L 131.652344 96.214844 "/>
<path style="fill:none;stroke-width:1;stroke-linecap:butt;stroke-linejoin:miter;stroke:rgb(26.666667%,26.666667%,26.666667%);stroke-opacity:1;stroke-miterlimit:10;" d="M 120.675781 121.910156 L 134.738281 146.046875 "/>
<path style="fill:none;stroke-width:1;stroke-linecap:butt;stroke-linejoin:miter;stroke:rgb(26.666667%,26.666667%,26.666667%);stroke-opacity:1;stroke-miterlimit:10;" d="M 120.675781 121.910156 L 142.429688 159.605469 "/>
<path style="fill:none;stroke-width:1;stroke-linecap:butt;stroke-linejoin:miter;stroke:rgb(26.666667%,26.666667%,26.666667%);stroke-opacity:1;stroke-miterlimit:10;" d="M 120.675781 121.910156 L 155.941406 154.984375 "/>
<path style="fill:none;stroke-width:1;stroke-linecap:butt;stroke-linejoin:miter;stroke:rgb(26.666667%,26.666667%,26.666667%);stroke-opacity:1;stroke-miterlimit:10;" d="M 131.652344 96.214844 L 134.738281 146.046875 "/>
<path style="fill:none;stroke-width:1;stroke-linecap:butt;stroke-linejoin:miter;stroke:rgb(26.666667%,26.666667%,26.666667%);stroke-opacity:1;stroke-miterlimit:10;" d="M 131.652344 96.214844 L 149.300781 68.5625 "/>
<path style="fill:none;stroke-width:1;stroke-linecap:butt;stroke-linejoin:miter;stroke:rgb(26.666667%,26.666667%,26.666667%);stroke-opacity:1;stroke-miterlimit:10;" d="M 131.652344 96.214844 L 178.40625 104.082031 "/>
<path style="fill:none;stroke-width:1;stroke-linecap:butt;stroke-linejoin:miter;stroke:rgb(26.666667%,26.666667%,26.666667%);stroke-opacity:1;stroke-miterlimit:10;" d="M 134.738281 146.046875 L 142.429688 159.605469 "/>
<path style="fill:none;stroke-width:1;stroke-linecap:butt;stroke-linejoin:miter;stroke:rgb(26.666667%,26.666667%,26.666667%);stroke-opacity:1;stroke-miterlimit:10;" d="M 134.738281 146.046875 L 143.097656 180 "/>
<path style="fill:none;stroke-width:1;stroke-linecap:butt;stroke-linejoin:miter;stroke:rgb(26.666667%,26.666667%,26.666667%);stroke-opacity:1;stroke-miterlimit:10;" d="M 134.738281 146.046875 L 155.941406 154.984375 "/>
<path style="fill:none;stroke-width:1;stroke-linecap:butt;stroke-linejoin:miter;stroke:rgb(26.666667%,26.666667%,26.666667%);stroke-opacity:1;stroke-miterlimit:10;" d="M 134.738281 146.046875 L 161.933594 177.152344 "/>
<path style="fill:none;stroke-width:1;stroke-linecap:butt;stroke-linejoin:miter;stroke:rgb(26.666667%,26.666667%,26.666667%);stroke-opacity:1;stroke-miterlimit:10;" d="M 142.429688 159.605469 L 143.097656 180 "/>
<path style="fill:none;stroke-width:1;stroke-linecap:butt;stroke-linejoin:miter;stroke:rgb(26.666667%,26.666667%,26.666667%);stroke-opacity:1;stroke-miterlimit:10;" d="M 142.429688 159.605469 L 155.941406 154.984375 "/>
<path style="fill:none;stroke-width:1;stroke-linecap:butt;stroke-linejoin:miter;stroke:rgb(26.666667%,26.666667%,26.666667%);stroke-opacity:1;stroke-miterlimit:10;" d="M 142.429688 159.605469 L 161.933594 177.152344 "/>
<path style="fill:none;stroke-width:1;stroke-linecap:butt;stroke-linejoin:miter;stroke:rgb(26.666667%,26.666667%,26.666667%);stroke-opacity:1;stroke-miterlimit:10;" d="M 143.054688 41.421875 L 149.300781 68.5625 "/>
<path style="fill:none;stroke-width:1;stroke-linecap:butt;stroke-linejoin:miter;stroke:rgb(26.666667%,26.666667%,26.666667%);stroke-opacity:1;stroke-miterlimit:10;" d="M 143.054688 41.421875 L 162.769531 48.394531 "/>
<path style="fill:none;stroke-width:1;stroke-linecap:butt;stroke-linejoin:miter;stroke:rgb(26.666667%,26.666667%,26.666667%);stroke-opacity:1;stroke-miterlimit:10;" d="M 143.054688 41.421875 L 174.183594 20 "/>
<path style="fill:none;stroke-width:1;stroke-linecap:butt;stroke-linejoin:miter;stroke:rgb(26.666667%,26.666667%,26.666667%);stroke-opacity:1;stroke-miterlimit:10;" d="M 143.054688 41.421875 L 180 73.636719 "/>
<path style="fill:none;stroke-width:1;stroke-linecap:butt;stroke-linejoin:miter;stroke:rgb(26.666667%,26.666667%,26.666667%);stroke-opacity:1;stroke-miterlimit:10;" d="M 143.097656 180 L 155.941406 154.984375 "/>
<path style="fill:none;stroke-width:1;stroke-linecap:butt;stroke-linejoin:miter;stroke:rgb(26.666667%,26.666667%,26.666667%);stroke-opacity:1;stroke-miterlimit:10;" d="M 143.097656 180 L 161.933594 177.152344 "/>
<path style="fill:none;stroke-width:1;stroke-linecap:butt;stroke-linejoin:miter;stroke:rgb(26.666667%,26.666667%,26.666667%);stroke-opacity:1;stroke-miterlimit:10;" d="M 149.300781 68.5625 L 162.769531 48.394531 "/>
<path style="fill:none;stroke-width:1;stroke-linecap:butt;stroke-linejoin:miter;stroke:rgb(26.666667%,26.666667%,26.666667%);stroke-opacity:1;stroke-miterlimit:10;" d="M 149.300781 68.5625 L 178.40625 104.082031 "/>
<path style="fill:none;stroke-width:1;stroke-linecap:butt;stroke-linejoin:miter;stroke:rgb(26.666667%,26.666667%,26.666667%);stroke-opacity:1;stroke-miterlimit:10;" d="M 149.300781 68.5625 L 180 73.636719 "/>
<path style="fill:none;stroke-width:1;stroke-linecap:butt;stroke-linejoin:miter;stroke:rgb(26.666667%,26.666667%,26.666667%);stroke-opacity:1;stroke-miterlimit:10;" d="M 155.941406 154.984375 L 161.933594 177.152344 "/>
<path style="fill:none;stroke-width:1;stroke-linecap:butt;stroke-linejoin:miter;stroke:rgb(26.666667%,26.666667%,26.666667%);stroke-opacity:1;stroke-miterlimit:10;" d="M 162.769531 48.394531 L 174.183594 20 "/>
<path style="fill:none;stroke-width:1;stroke-linecap:butt;stroke-linejoin:miter;stroke:rgb(26.666667%,26.666667%,26.666667%);stroke-opacity:1;stroke-miterlimit:10;" d="M 162.769531 48.394531 L 180 73.636719 "/>
<path style="fill:none;stroke-width:1;stroke-linecap:butt;stroke-linejoin:miter;stroke:rgb(26.666667%,26.666667%,26.666667%);stroke-opacity:1;stroke-miterlimit:10;" d="M 178.40625 104.082031 L 180 73.636719 "/>
<path style="fill-rule:nonzero;fill:rgb(100%,0%,0%);fill-opacity:1;stroke-width:1;stroke-linecap:butt;stroke-linejoin:miter;stroke:rgb(0%,0%,0%);stroke-opacity:1;stroke-miterlimit:10;" d="M 30 77.613281 C 30 83.136719 25.523438 87.613281 20 87.613281 C 14.476562 87.613281 10 83.136719 10 77.613281 C 10 72.09375 14.476562 67.613281 20 67.613281 C 25.523438 67.613281 30 72.09375 30 77.613281 "/>
<path style="fill-rule:nonzero;fill:rgb(100%,0%,0%);fill-opacity:1;stroke-width:1;stroke-linecap:butt;stroke-linejoin:miter;stroke:rgb(0%,0%,0%);stroke-opacity:1;stroke-miterlimit:10;" d="M 37.296875 101.507812 C 37.296875 107.03125 32.820312 111.507812 27.296875 111.507812 C 21.773438 111.507812 17.296875 107.03125 17.296875 101.507812 C 17.296875 95.984375 21.773438 91.507812 27.296875 91.507812 C 32.820312 91.507812 37.296875 95.984375 37.296875 101.507812 "/>
<path style="fill-rule:nonzero;fill:rgb(100%,0%,0%);fill-opacity:1;stroke-width:1;stroke-linecap:butt;stroke-linejoin:miter;stroke:rgb(0%,0%,0%);stroke-opacity:1;stroke-miterlimit:10;" d="M 43.953125 47.328125 C 43.953125 52.851562 39.472656 57.328125 33.953125 57.328125 C 28.429688 57.328125 23.953125 52.851562 23.953125 47.328125 C 23.953125 41.804688 28.429688 37.328125 33.953125 37.328125 C 39.472656 37.328125 43.953125 41.804688 43.953125 47.328125 "/>
<path style="fill-rule:nonzero;fill:rgb(100%,0%,0%);fill-opacity:1;stroke-width:1;stroke-linecap:butt;stroke-linejoin:miter;stroke:rgb(0%,0%,0%);stroke-opacity:1;stroke-miterlimit:10;" d="M 81.371094 150.925781 C 81.371094 156.449219 76.894531 160.925781 71.371094 160.925781 C 65.847656 160.925781 61.371094 156.449219 61.371094 150.925781 C 61.371094 145.402344 65.847656 140.925781 71.371094 140.925781 C 76.894531 140.925781 81.371094 145.402344 81.371094 150.925781 "/>
<path style="fill-rule:nonzero;fill:rgb(100%,0%,0%);fill-opacity:1;stroke-width:1;stroke-linecap:butt;stroke-linejoin:miter;stroke:rgb(0%,0%,0%);stroke-opacity:1;stroke-miterlimit:10;" d="M 114.113281 138.957031 C 114.113281 144.476562 109.636719 148.957031 104.113281 148.957031 C 98.589844 148.957031 94.113281 144.476562 94.113281 138.957031 C 94.113281 133.433594 98.589844 128.957031 104.113281 128.957031 C 109.636719 128.957031 114.113281 133.433594 114.113281 138.957031 "/>
<path style="fill-rule:nonzero;fill:rgb(100%,0%,0%);fill-opacity:1;stroke-width:1;stroke-linecap:butt;stroke-linejoin:miter;stroke:rgb(0%,0%,0%);stroke-opacity:1;stroke-miterlimit:10;" d="M 115.253906 98.511719 C 115.253906 104.035156 110.777344 108.511719 105.253906 108.511719 C 99.730469 108.511719 95.253906 104.035156 95.253906 98.511719 C 95.253906 92.988281 99.730469 88.511719 105.253906 88.511719 C 110.777344 88.511719 115.253906 92.988281 115.253906 98.511719 "/>
<path style="fill-rule:nonzero;fill:rgb(100%,0%,0%);fill-opacity:1;stroke-width:1;stroke-linecap:butt;stroke-linejoin:miter;stroke:rgb(0%,0%,0%);stroke-opacity:1;stroke-miterlimit:10;" d="M 125.375 20.019531 C 125.375 25.542969 120.898438 30.019531 115.375 30.019531 C 109.851562 30.019531 105.375 25.542969 105.375 20.019531 C 105.375 14.496094 109.851562 10.019531 115.375 10.019531 C 120.898438 10.019531 125.375 14.496094 125.375 20.019531 "/>
<path style="fill-rule:nonzero;fill:rgb(100%,0%,0%);fill-opacity:1;stroke-width:1;stroke-linecap:butt;stroke-linejoin:miter;stroke:rgb(0%,0%,0%);stroke-opacity:1;stroke-miterlimit:10;" d="M 130.675781 121.910156 C 130.675781 127.433594 126.195312 131.910156 120.675781 131.910156 C 115.152344 131.910156 110.675781 127.433594 110.675781 121.910156 C 110.675781 116.386719 115.152344 111.910156 120.675781 111.910156 C 126.195312 111.910156 130.675781 116.386719 130.675781 121.910156 "/>
<path style="fill-rule:nonzero;fill:rgb(100%,0%,0%);fill-opacity:1;stroke-width:1;stroke-linecap:butt;stroke-linejoin:miter;stroke:rgb(0%,0%,0%);stroke-opacity:1;stroke-miterlimit:10;" d="M 141.652344 96.214844 C 141.652344 101.738281 137.175781 106.214844 131.652344 106.214844 C 126.128906 106.214844 121.652344 101.738281 121.652344 96.214844 C 121.652344 90.691406 126.128906 86.214844 131.652344 86.214844 C 137.175781 86.214844 141.652344 90.691406 141.652344 96.214844 "/>
<path style="fill-rule:nonzero;fill:rgb(100%,0%,0%);fill-opacity:1;stroke-width:1;stroke-linecap:butt;stroke-linejoin:miter;stroke:rgb(0%,0%,0%);stroke-opacity:1;stroke-miterlimit:10;" d="M 144.738281 146.046875 C 144.738281 151.570312 140.261719 156.046875 134.738281 156.046875 C 129.21875 156.046875 124.738281 151.570312 124.738281 146.046875 C 124.738281 140.523438 129.21875 136.046875 134.738281 136.046875 C 140.261719 136.046875 144.738281 140.523438 144.738281 146.046875 "/>
<path style="fill-rule:nonzero;fill:rgb(100%,0%,0%);fill-opacity:1;stroke-width:1;stroke-linecap:butt;stroke-linejoin:miter;stroke:rgb(0%,0%,0%);stroke-opacity:1;stroke-miterlimit:10;" d="M 152.429688 159.605469 C 152.429688 165.128906 147.953125 169.605469 142.429688 169.605469 C 136.90625 169.605469 132.429688 165.128906 132.429688 159.605469 C 132.429688 154.082031 136.90625 149.605469 142.429688 149.605469 C 147.953125 149.605469 152.429688 154.082031 152.429688 159.605469 "/>
<path style="fill-rule:nonzero;fill:rgb(100%,0%,0%);fill-opacity:1;stroke-width:1;stroke-linecap:butt;stroke-linejoin:miter;stroke:rgb(0%,0%,0%);stroke-opacity:1;stroke-miterlimit:10;" d="M 153.054688 41.421875 C 153.054688 46.941406 148.578125 51.421875 143.054688 51.421875 C 137.535156 51.421875 133.054688 46.941406 133.054688 41.421875 C 133.054688 35.898438 137.535156 31.421875 143.054688 31.421875 C 148.578125 31.421875 153.054688 35.898438 153.054688 41.421875 "/>
<path style="fill-rule:nonzero;fill:rgb(100%,0%,0%);fill-opacity:1;stroke-width:1;stroke-linecap:butt;stroke-linejoin:miter;stroke:rgb(0%,0%,0%);stroke-opacity:1;stroke-miterlimit:10;" d="M 153.097656 180 C 153.097656 185.523438 148.617188 190 143.097656 190 C 137.574219 190 133.097656 185.523438 133.097656 180 C 133.097656 174.476562 137.574219 170 143.097656 170 C 148.617188 170 153.097656 174.476562 153.097656 180 "/>
<path style="fill-rule:nonzero;fill:rgb(100%,0%,0%);fill-opacity:1;stroke-width:1;stroke-linecap:butt;stroke-linejoin:miter;stroke:rgb(0%,0%,0%);stroke-opacity:1;stroke-miterlimit:10;" d="M 159.300781 68.5625 C 159.300781 74.085938 154.824219 78.5625 149.300781 78.5625 C 143.78125 78.5625 139.300781 74.085938 139.300781 68.5625 C 139.300781 63.039062 143.78125 58.5625 149.300781 58.5625 C 154.824219 58.5625 159.300781 63.039062 159.300781 68.5625 "/>
<path style="fill-rule:nonzero;fill:rgb(100%,0%,0%);fill-opacity:1;stroke-width:1;stroke-linecap:butt;stroke-linejoin:miter;stroke:rgb(0%,0%,0%);stroke-opacity:1;stroke-miterlimit:10;" d="M 165.941406 154.984375 C 165.941406 160.507812 161.464844 164.984375 155.941406 164.984375 C 150.417969 164.984375 145.941406 160.507812 145.941406 154.984375 C 145.941406 149.460938 150.417969 144.984375 155.941406 144.984375 C 161.464844 144.984375 165.941406 149.460938 165.941406 154.984375 "/>
<path style="fill-rule:nonzero;fill:rgb(100%,0%,0%);fill-opacity:1;stroke-width:1;stroke-linecap:butt;stroke-linejoin:miter;stroke:rgb(0%,0%,0%);stroke-opacity:1;stroke-miterlimit:10;" d="M 171.933594 177.152344 C 171.933594 182.675781 167.453125 187.152344 161.933594 187.152344 C 156.410156 187.152344 151.933594 182.675781 151.933594 177.152344 C 151.933594 171.628906 156.410156 167.152344 161.933594 167.152344 C 167.453125 167.152344 171.933594 171.628906 171.933594 177.152344 "/>
<path style="fill-rule:nonzero;fill:rgb(100%,0%,0%);fill-opacity:1;stroke-width:1;stroke-linecap:butt;stroke-linejoin:miter;stroke:rgb(0%,0%,0%);stroke-opacity:1;stroke-miterlimit:10;" d="M 172.769531 48.394531 C 172.769531 53.917969 168.292969 58.394531 162.769531 58.394531 C 157.246094 58.394531 152.769531 53.917969 152.769531 48.394531 C 152.769531 42.871094 157.246094 38.394531 162.769531 38.394531 C 168.292969 38.394531 172.769531 42.871094 172.769531 48.394531 "/>
<path style="fill-rule:nonzero;fill:rgb(100%,0%,0%);fill-opacity:1;stroke-width:1;stroke-linecap:butt;stroke-linejoin:miter;stroke:rgb(0%,0%,0%);stroke-opacity:1;stroke-miterlimit:10;" d="M 184.183594 20 C 184.183594 25.523438 179.707031 30 174.183594 30 C 168.660156 30 164.183594 25.523438 164.183594 20 C 164.183594 14.476562 168.660156 10 174.183594 10 C 179.707031 10 184.183594 14.476562 184.183594 20 "/>
<path style="fill-rule:nonzero;fill:rgb(100%,0%,0%);fill-opacity:1;stroke-width:1;stroke-linecap:butt;stroke-linejoin:miter;stroke:rgb(0%,0%,0%);stroke-opacity:1;stroke-miterlimit:10;" d="M 188.40625 104.082031 C 188.40625 109.605469 183.925781 114.082031 178.40625 114.082031 C 172.882812 114.082031 168.40625 109.605469 168.40625 104.082031 C 168.40625 98.5625 172.882812 94.082031 178.40625 94.082031 C 183.925781 94.082031 188.40625 98.5625 188.40625 104.082031 "/>
<path style="fill-rule:nonzero;fill:rgb(100%,0%,0%);fill-opacity:1;stroke-width:1;stroke-linecap:butt;stroke-linejoin:miter;stroke:rgb(0%,0%,0%);stroke-opacity:1;stroke-miterlimit:10;" d="M 190 73.636719 C 190 79.160156 185.523438 83.636719 180 83.636719 C 174.476562 83.636719 170 79.160156 170 73.636719 C 170 68.113281 174.476562 63.636719 180 63.636719 C 185.523438 63.636719 190 68.113281 190 73.636719 "/>
</g>
</svg>
