<?xml version="1.0" encoding="UTF-8"?>
<svg xmlns="http://www.w3.org/2000/svg" xmlns:xlink="http://www.w3.org/1999/xlink" width="200pt" height="200pt" viewBox="0 0 200 200" version="1.1">
<g id="surface14">
<rect x="0" y="0" width="200" height="200" style="fill:rgb(100%,100%,100%);fill-opacity:1;stroke:none;"/>
<path style="fill:none;stroke-width:1;stroke-linecap:butt;stroke-linejoin:miter;stroke:rgb(26.666667%,26.666667%,26.666667%);stroke-opacity:1;stroke-miterlimit:10;" d="M 78.542969 121.210938 L 121.40625 146.921875 "/>
<path style="fill:none;stroke-width:1;stroke-linecap:butt;stroke-linejoin:miter;stroke:rgb(26.666667%,26.666667%,26.666667%);stroke-opacity:1;stroke-miterlimit:10;" d="M 121.40625 146.921875 L 144.894531 129.804688 "/>
<path style="fill:none;stroke-width:1;stroke-linecap:butt;stroke-linejoin:miter;stroke:rgb(26.666667%,26.666667%,26.666667%);stroke-opacity:1;stroke-miterlimit:10;" d="M 93.0625 76.777344 L 106.640625 20 "/>
<path style="fill:none;stroke-width:1;stroke-linecap:butt;stroke-linejoin:miter;stroke:rgb(26.666667%,26.666667%,26.666667%);stroke-opacity:1;stroke-miterlimit:10;" d="M 93.0625 76.777344 L 92.523438 128.160156 "/>
<path style="fill:none;stroke-width:1;stroke-linecap:butt;stroke-linejoin:miter;stroke:rgb(26.666667%,26.666667%,26.666667%);stroke-opacity:1;stroke-miterlimit:10;" d="M 121.40625 146.921875 L 92.523438 128.160156 "/>
<path style="fill:none;stroke-width:1;stroke-linecap:butt;stroke-linejoin:miter;stroke:rgb(26.666667%,26.666667%,26.666667%);stroke-opacity:1;stroke-miterlimit:10;" d="M 106.640625 20 L 157.859375 47.660156 "/>
<path style="fill:none;stroke-width:1;stroke-linecap:butt;stroke-linejoin:miter;stroke:rgb(26.666667%,26.666667%,26.666667%);stroke-opacity:1;stroke-miterlimit:10;" d="M 78.542969 121.210938 L 40.398438 164.816406 "/>
<path style="fill:none;stroke-width:1;stroke-linecap:butt;stroke-linejoin:miter;stroke:rgb(26.666667%,26.666667%,26.666667%);stroke-opacity:1;stroke-miterlimit:10;" d="M 92.523438 128.160156 L 40.398438 164.816406 "/>
<path style="fill:none;stroke-width:1;stroke-linecap:butt;stroke-linejoin:miter;stroke:rgb(26.666667%,26.666667%,26.666667%);stroke-opacity:1;stroke-miterlimit:10;" d="M 121.40625 146.921875 L 132.21875 180 "/>
<path style="fill:none;stroke-width:1;stroke-linecap:butt;stroke-linejoin:miter;stroke:rgb(26.666667%,26.666667%,26.666667%);stroke-opacity:1;stroke-miterlimit:10;" d="M 92.523438 128.160156 L 132.21875 180 "/>
<path style="fill:none;stroke-width:1;stroke-linecap:butt;stroke-linejoin:miter;stroke:rgb(26.666667%,26.666667%,26.666667%);stroke-opacity:1;stroke-miterlimit:10;" d="M 78.542969 121.210938 L 45.007812 93.398438 "/>
<path style="fill:none;stroke-width:1;stroke-linecap:butt;stroke-linejoin:miter;stroke:rgb(26.666667%,26.666667%,26.666667%);stroke-opacity:1;stroke-miterlimit:10;" d="M 78.542969 121.210938 L 119.046875 92.742188 "/>
<path style="fill:none;stroke-width:1;stroke-linecap:butt;stroke-linejoin:miter;stroke:rgb(26.666667%,26.666667%,26.666667%);stroke-opacity:1;stroke-miterlimit:10;" d="M 93.0625 76.777344 L 119.046875 92.742188 "/>
<path style="fill:none;stroke-width:1;stroke-linecap:butt;stroke-linejoin:miter;stroke:rgb(26.666667%,26.666667%,26.666667%);stroke-opacity:1;stroke-miterlimit:10;" d="M 121.40625 146.921875 L 119.046875 92.742188 "/>
<path style="fill:none;stroke-width:1;stroke-linecap:butt;stroke-linejoin:miter;stroke:rgb(26.666667%,26.666667%,26.666667%);stroke-opacity:1;stroke-miterlimit:10;" d="M 144.894531 129.804688 L 119.046875 92.742188 "/>
<path style="fill:none;stroke-width:1;stroke-linecap:butt;stroke-linejoin:miter;stroke:rgb(26.666667%,26.666667%,26.666667%);stroke-opacity:1;stroke-miterlimit:10;" d="M 133.109375 45.210938 L 119.046875 92.742188 "/>
<path style="fill:none;stroke-width:1;stroke-linecap:butt;stroke-linejoin:miter;stroke:rgb(26.666667%,26.666667%,26.666667%);stroke-opacity:1;stroke-miterlimit:10;" d="M 92.523438 128.160156 L 119.046875 92.742188 "/>
<path style="fill:none;stroke-width:1;stroke-linecap:butt;stroke-linejoin:miter;stroke:rgb(26.666667%,26.666667%,26.666667%);stroke-opacity:1;stroke-miterlimit:10;" d="M 157.859375 47.660156 L 119.046875 92.742188 "/>
<path style="fill:none;stroke-width:1;stroke-linecap:butt;stroke-linejoin:miter;stroke:rgb(26.666667%,26.666667%,26.666667%);stroke-opacity:1;stroke-miterlimit:10;" d="M 45.007812 93.398438 L 119.046875 92.742188 "/>
<path style="fill:none;stroke-width:1;stroke-linecap:butt;stroke-linejoin:miter;stroke:rgb(26.666667%,26.666667%,26.666667%);stroke-opacity:1;stroke-miterlimit:10;" d="M 121.40625 146.921875 L 74.898438 178.5625 "/>
<path style="fill:none;stroke-width:1;stroke-linecap:butt;stroke-linejoin:miter;stroke:rgb(26.666667%,26.666667%,26.666667%);stroke-opacity:1;stroke-miterlimit:10;" d="M 40.398438 164.816406 L 74.898438 178.5625 "/>
<path style="fill:none;stroke-width:1;stroke-linecap:butt;stroke-linejoin:miter;stroke:rgb(26.666667%,26.666667%,26.666667%);stroke-opacity:1;stroke-miterlimit:10;" d="M 144.894531 129.804688 L 180 109.316406 "/>
<path style="fill:none;stroke-width:1;stroke-linecap:butt;stroke-linejoin:miter;stroke:rgb(26.666667%,26.666667%,26.666667%);stroke-opacity:1;stroke-miterlimit:10;" d="M 119.046875 92.742188 L 180 109.316406 "/>
<path style="fill:none;stroke-width:1;stroke-linecap:butt;stroke-linejoin:miter;stroke:rgb(26.666667%,26.666667%,26.666667%);stroke-opacity:1;stroke-miterlimit:10;" d="M 93.0625 76.777344 L 38.609375 115.269531 "/>
<path style="fill:none;stroke-width:1;stroke-linecap:butt;stroke-linejoin:miter;stroke:rgb(26.666667%,26.666667%,26.666667%);stroke-opacity:1;stroke-miterlimit:10;" d="M 74.898438 178.5625 L 38.609375 115.269531 "/>
<path style="fill:none;stroke-width:1;stroke-linecap:butt;stroke-linejoin:miter;stroke:rgb(26.666667%,26.666667%,26.666667%);stroke-opacity:1;stroke-miterlimit:10;" d="M 92.523438 128.160156 L 20 135.839844 "/>
<path style="fill:none;stroke-width:1;stroke-linecap:butt;stroke-linejoin:miter;stroke:rgb(26.666667%,26.666667%,26.666667%);stroke-opacity:1;stroke-miterlimit:10;" d="M 40.398438 164.816406 L 20 135.839844 "/>
<path style="fill:none;stroke-width:1;stroke-linecap:butt;stroke-linejoin:miter;stroke:rgb(26.666667%,26.666667%,26.666667%);stroke-opacity:1;stroke-miterlimit:10;" d="M 45.007812 93.398438 L 20 135.839844 "/>
<path style="fill:none;stroke-width:1;stroke-linecap:butt;stroke-linejoin:miter;stroke:rgb(26.666667%,26.666667%,26.666667%);stroke-opacity:1;stroke-miterlimit:10;" d="M 144.894531 129.804688 L 64.992188 145.988281 "/>
<path style="fill:none;stroke-width:1;stroke-linecap:butt;stroke-linejoin:miter;stroke:rgb(26.666667%,26.666667%,26.666667%);stroke-opacity:1;stroke-miterlimit:10;" d="M 45.007812 93.398438 L 64.992188 145.988281 "/>
<path style="fill:none;stroke-width:1;stroke-linecap:butt;stroke-linejoin:miter;stroke:rgb(26.666667%,26.666667%,26.666667%);stroke-opacity:1;stroke-miterlimit:10;" d="M 38.609375 115.269531 L 64.992188 145.988281 "/>
<path style="fill:none;stroke-width:1;stroke-linecap:butt;stroke-linejoin:miter;stroke:rgb(26.666667%,26.666667%,26.666667%);stroke-opacity:1;stroke-miterlimit:10;" d="M 20 135.839844 L 64.992188 145.988281 "/>
<path style="fill:none;stroke-width:1;stroke-linecap:butt;stroke-linejoin:miter;stroke:rgb(26.666667%,26.666667%,26.666667%);stroke-opacity:1;stroke-miterlimit:10;" d="M 93.0625 76.777344 L 157.519531 74.777344 "/>
<path style="fill:none;stroke-width:1;stroke-linecap:butt;stroke-linejoin:miter;stroke:rgb(26.666667%,26.666667%,26.666667%);stroke-opacity:1;stroke-miterlimit:10;" d="M 133.109375 45.210938 L 157.519531 74.777344 "/>
<path style="fill:none;stroke-width:1;stroke-linecap:butt;stroke-linejoin:miter;stroke:rgb(26.666667%,26.666667%,26.666667%);stroke-opacity:1;stroke-miterlimit:10;" d="M 119.046875 92.742188 L 157.519531 74.777344 "/>
<path style="fill:none;stroke-width:1;stroke-linecap:butt;stroke-linejoin:miter;stroke:rgb(26.666667%,26.666667%,26.666667%);stroke-opacity:1;stroke-miterlimit:10;" d="M 133.109375 45.210938 L 89.09375 39.597656 "/>
<path style="fill:none;stroke-width:1;stroke-linecap:butt;stroke-linejoin:miter;stroke:rgb(26.666667%,26.666667%,26.666667%);stroke-opacity:1;stroke-miterlimit:10;" d="M 119.046875 92.742188 L 89.09375 39.597656 "/>
<path style="fill:none;stroke-width:1;stroke-linecap:butt;stroke-linejoin:miter;stroke:rgb(26.666667%,26.666667%,26.666667%);stroke-opacity:1;stroke-miterlimit:10;" d="M 92.523438 128.160156 L 65.722656 83.746094 "/>
<path style="fill:none;stroke-width:1;stroke-linecap:butt;stroke-linejoin:miter;stroke:rgb(26.666667%,26.666667%,26.666667%);stroke-opacity:1;stroke-miterlimit:10;" d="M 119.046875 92.742188 L 65.722656 83.746094 "/>
<path style="fill:none;stroke-width:1;stroke-linecap:butt;stroke-linejoin:miter;stroke:rgb(26.666667%,26.666667%,26.666667%);stroke-opacity:1;stroke-miterlimit:10;" d="M 38.609375 115.269531 L 65.722656 83.746094 "/>
<path style="fill-rule:nonzero;fill:rgb(100%,0%,0%);fill-opacity:1;stroke-width:1;stroke-linecap:butt;stroke-linejoin:miter;stroke:rgb(0%,0%,0%);stroke-opacity:1;stroke-miterlimit:10;" d="M 88.542969 121.210938 C 88.542969 126.734375 84.066406 131.210938 78.542969 131.210938 C 73.023438 131.210938 68.542969 126.734375 68.542969 121.210938 C 68.542969 115.6875 73.023438 111.210938 78.542969 111.210938 C 84.066406 111.210938 88.542969 115.6875 88.542969 121.210938 "/>
<path style="fill-rule:nonzero;fill:rgb(100%,0%,0%);fill-opacity:1;stroke-width:1;stroke-linecap:butt;stroke-linejoin:miter;stroke:rgb(0%,0%,0%);stroke-opacity:1;stroke-miterlimit:10;" d="M 103.0625 76.777344 C 103.0625 82.300781 98.585938 86.777344 93.0625 86.777344 C 87.539062 86.777344 83.0625 82.300781 83.0625 76.777344 C 83.0625 71.253906 87.539062 66.777344 93.0625 66.777344 C 98.585938 66.777344 103.0625 71.253906 103.0625 76.777344 "/>
<path style="fill-rule:nonzero;fill:rgb(100%,0%,0%);fill-opacity:1;stroke-width:1;stroke-linecap:butt;stroke-linejoin:miter;stroke:rgb(0%,0%,0%);stroke-opacity:1;stroke-miterlimit:10;" d="M 131.40625 146.921875 C 131.40625 152.445312 126.929688 156.921875 121.40625 156.921875 C 115.882812 156.921875 111.40625 152.445312 111.40625 146.921875 C 111.40625 141.398438 115.882812 136.921875 121.40625 136.921875 C 126.929688 136.921875 131.40625 141.398438 131.40625 146.921875 "/>
<path style="fill-rule:nonzero;fill:rgb(100%,0%,0%);fill-opacity:1;stroke-width:1;stroke-linecap:butt;stroke-linejoin:miter;stroke:rgb(0%,0%,0%);stroke-opacity:1;stroke-miterlimit:10;" d="M 154.894531 129.804688 C 154.894531 135.328125 150.417969 139.804688 144.894531 139.804688 C 139.371094 139.804688 134.894531 135.328125 134.894531 129.804688 C 134.894531 124.28125 139.371094 119.804688 144.894531 119.804688 C 150.417969 119.804688 154.894531 124.28125 154.894531 129.804688 "/>
<path style="fill-rule:nonzero;fill:rgb(100%,0%,0%);fill-opacity:1;stroke-width:1;stroke-linecap:butt;stroke-linejoin:miter;stroke:rgb(0%,0%,0%);stroke-opacity:1;stroke-miterlimit:10;" d="M 116.640625 20 C 116.640625 25.523438 112.164062 30 106.640625 30 C 101.117188 30 96.640625 25.523438 96.640625 20 C 96.640625 14.476562 101.117188 10 106.640625 10 C 112.164062 10 116.640625 14.476562 116.640625 20 "/>
<path style="fill-rule:nonzero;fill:rgb(100%,0%,0%);fill-opacity:1;stroke-width:1;stroke-linecap:butt;stroke-linejoin:miter;stroke:rgb(0%,0%,0%);stroke-opacity:1;stroke-miterlimit:10;" d="M 143.109375 45.210938 C 143.109375 50.734375 138.632812 55.210938 133.109375 55.210938 C 127.585938 55.210938 123.109375 50.734375 123.109375 45.210938 C 123.109375 39.691406 127.585938 35.210938 133.109375 35.210938 C 138.632812 35.210938 143.109375 39.691406 143.109375 45.210938 "/>
<path style="fill-rule:nonzero;fill:rgb(100%,0%,0%);fill-opacity:1;stroke-width:1;stroke-linecap:butt;stroke-linejoin:miter;stroke:rgb(0%,0%,0%);stroke-opacity:1;stroke-miterlimit:10;" d="M 102.523438 128.160156 C 102.523438 133.679688 98.046875 138.160156 92.523438 138.160156 C 87 138.160156 82.523438 133.679688 82.523438 128.160156 C 82.523438 122.636719 87 118.160156 92.523438 118.160156 C 98.046875 118.160156 102.523438 122.636719 102.523438 128.160156 "/>
<path style="fill-rule:nonzero;fill:rgb(100%,0%,0%);fill-opacity:1;stroke-width:1;stroke-linecap:butt;stroke-linejoin:miter;stroke:rgb(0%,0%,0%);stroke-opacity:1;stroke-miterlimit:10;" d="M 167.859375 47.660156 C 167.859375 53.183594 163.382812 57.660156 157.859375 57.660156 C 152.335938 57.660156 147.859375 53.183594 147.859375 47.660156 C 147.859375 42.136719 152.335938 37.660156 157.859375 37.660156 C 163.382812 37.660156 167.859375 42.136719 167.859375 47.660156 "/>
<path style="fill-rule:nonzero;fill:rgb(100%,0%,0%);fill-opacity:1;stroke-width:1;stroke-linecap:butt;stroke-linejoin:miter;stroke:rgb(0%,0%,0%);stroke-opacity:1;stroke-miterlimit:10;" d="M 50.398438 164.816406 C 50.398438 170.339844 45.917969 174.816406 40.398438 174.816406 C 34.875 174.816406 30.398438 170.339844 30.398438 164.816406 C 30.398438 159.292969 34.875 154.816406 40.398438 154.816406 C 45.917969 154.816406 50.398438 159.292969 50.398438 164.816406 "/>
<path style="fill-rule:nonzero;fill:rgb(100%,0%,0%);fill-opacity:1;stroke-width:1;stroke-linecap:butt;stroke-linejoin:miter;stroke:rgb(0%,0%,0%);stroke-opacity:1;stroke-miterlimit:10;" d="M 142.21875 180 C 142.21875 185.523438 137.742188 190 132.21875 190 C 126.695312 190 122.21875 185.523438 122.21875 180 C 122.21875 174.476562 126.695312 170 132.21875 170 C 137.742188 170 142.21875 174.476562 142.21875 180 "/>
<path style="fill-rule:nonzero;fill:rgb(100%,0%,0%);fill-opacity:1;stroke-width:1;stroke-linecap:butt;stroke-linejoin:miter;stroke:rgb(0%,0%,0%);stroke-opacity:1;stroke-miterlimit:10;" d="M 55.007812 93.398438 C 55.007812 98.921875 50.53125 103.398438 45.007812 103.398438 C 39.484375 103.398438 35.007812 98.921875 35.007812 93.398438 C 35.007812 87.875 39.484375 83.398438 45.007812 83.398438 C 50.53125 83.398438 55.007812 87.875 55.007812 93.398438 "/>
<path style="fill-rule:nonzero;fill:rgb(100%,0%,0%);fill-opacity:1;stroke-width:1;stroke-linecap:butt;stroke-linejoin:miter;stroke:rgb(0%,0%,0%);stroke-opacity:1;stroke-miterlimit:10;" d="M 129.046875 92.742188 C 129.046875 98.265625 124.570312 102.742188 119.046875 102.742188 C 113.523438 102.742188 109.046875 98.265625 109.046875 92.742188 C 109.046875 87.222656 113.523438 82.742188 119.046875 82.742188 C 124.570312 82.742188 129.046875 87.222656 129.046875 92.742188 "/>
<path style="fill-rule:nonzero;fill:rgb(100%,0%,0%);fill-opacity:1;stroke-width:1;stroke-linecap:butt;stroke-linejoin:miter;stroke:rgb(0%,0%,0%);stroke-opacity:1;stroke-miterlimit:10;" d="M 84.898438 178.5625 C 84.898438 184.085938 80.421875 188.5625 74.898438 188.5625 C 69.375 188.5625 64.898438 184.085938 64.898438 178.5625 C 64.898438 173.039062 69.375 168.5625 74.898438 168.5625 C 80.421875 168.5625 84.898438 173.039062 84.898438 178.5625 "/>
<path style="fill-rule:nonzero;fill:rgb(100%,0%,0%);fill-opacity:1;stroke-width:1;stroke-linecap:butt;stroke-linejoin:miter;stroke:rgb(0%,0%,0%);stroke-opacity:1;stroke-miterlimit:10;" d="M 190 109.316406 C 190 114.839844 185.523438 119.316406 180 119.316406 C 174.476562 119.316406 170 114.839844 170 109.316406 C 170 103.796875 174.476562 99.316406 180 99.316406 C 185.523438 99.316406 190 103.796875 190 109.316406 "/>
<path style="fill-rule:nonzero;fill:rgb(100%,0%,0%);fill-opacity:1;stroke-width:1;stroke-linecap:butt;stroke-linejoin:miter;stroke:rgb(0%,0%,0%);stroke-opacity:1;stroke-miterlimit:10;" d="M 48.609375 115.269531 C 48.609375 120.792969 44.132812 125.269531 38.609375 125.269531 C 33.089844 125.269531 28.609375 120.792969 28.609375 115.269531 C 28.609375 109.746094 33.089844 105.269531 38.609375 105.269531 C 44.132812 105.269531 48.609375 109.746094 48.609375 115.269531 "/>
<path style="fill-rule:nonzero;fill:rgb(100%,0%,0%);fill-opacity:1;stroke-width:1;stroke-linecap:butt;stroke-linejoin:miter;stroke:rgb(0%,0%,0%);stroke-opacity:1;stroke-miterlimit:10;" d="M 30 135.839844 C 30 141.363281 25.523438 145.839844 20 145.839844 C 14.476562 145.839844 10 141.363281 10 135.839844 C 10 130.316406 14.476562 125.839844 20 125.839844 C 25.523438 125.839844 30 130.316406 30 135.839844 "/>
<path style="fill-rule:nonzero;fill:rgb(100%,0%,0%);fill-opacity:1;stroke-width:1;stroke-linecap:butt;stroke-linejoin:miter;stroke:rgb(0%,0%,0%);stroke-opacity:1;stroke-miterlimit:10;" d="M 74.992188 145.988281 C 74.992188 151.511719 70.515625 155.988281 64.992188 155.988281 C 59.46875 155.988281 54.992188 151.511719 54.992188 145.988281 C 54.992188 140.464844 59.46875 135.988281 64.992188 135.988281 C 70.515625 135.988281 74.992188 140.464844 74.992188 145.988281 "/>
<path style="fill-rule:nonzero;fill:rgb(100%,0%,0%);fill-opacity:1;stroke-width:1;stroke-linecap:butt;stroke-linejoin:miter;stroke:rgb(0%,0%,0%);stroke-opacity:1;stroke-miterlimit:10;" d="M 167.519531 74.777344 C 167.519531 80.300781 163.042969 84.777344 157.519531 84.777344 C 151.996094 84.777344 147.519531 80.300781 147.519531 74.777344 C 147.519531 69.257812 151.996094 64.777344 157.519531 64.777344 C 163.042969 64.777344 167.519531 69.257812 167.519531 74.777344 "/>
<path style="fill-rule:nonzero;fill:rgb(100%,0%,0%);fill-opacity:1;stroke-width:1;stroke-linecap:butt;stroke-linejoin:miter;stroke:rgb(0%,0%,0%);stroke-opacity:1;stroke-miterlimit:10;" d="M 99.09375 39.597656 C 99.09375 45.121094 94.617188 49.597656 89.09375 49.597656 C 83.570312 49.597656 79.09375 45.121094 79.09375 39.597656 C 79.09375 34.078125 83.570312 29.597656 89.09375 29.597656 C 94.617188 29.597656 99.09375 34.078125 99.09375 39.597656 "/>
<path style="fill-rule:nonzero;fill:rgb(100%,0%,0%);fill-opacity:1;stroke-width:1;stroke-linecap:butt;stroke-linejoin:miter;stroke:rgb(0%,0%,0%);stroke-opacity:1;stroke-miterlimit:10;" d="M 75.722656 83.746094 C 75.722656 89.269531 71.246094 93.746094 65.722656 93.746094 C 60.199219 93.746094 55.722656 89.269531 55.722656 83.746094 C 55.722656 78.222656 60.199219 73.746094 65.722656 73.746094 C 71.246094 73.746094 75.722656 78.222656 75.722656 83.746094 "/>
</g>
</svg>
