<?xml version="1.0" encoding="UTF-8"?>
<svg xmlns="http://www.w3.org/2000/svg" xmlns:xlink="http://www.w3.org/1999/xlink" width="200pt" height="200pt" viewBox="0 0 200 200" version="1.1">
<g id="surface14">
<rect x="0" y="0" width="200" height="200" style="fill:rgb(100%,100%,100%);fill-opacity:1;stroke:none;"/>
<path style="fill:none;stroke-width:1;stroke-linecap:butt;stroke-linejoin:miter;stroke:rgb(26.666667%,26.666667%,26.666667%);stroke-opacity:1;stroke-miterlimit:10;" d="M 113.101562 129.457031 L 111.660156 100.082031 "/>
<path style="fill:none;stroke-width:1;stroke-linecap:butt;stroke-linejoin:miter;stroke:rgb(26.666667%,26.666667%,26.666667%);stroke-opacity:1;stroke-miterlimit:10;" d="M 78.097656 68.160156 L 111.660156 100.082031 "/>
<path style="fill:none;stroke-width:1;stroke-linecap:butt;stroke-linejoin:miter;stroke:rgb(26.666667%,26.666667%,26.666667%);stroke-opacity:1;stroke-miterlimit:10;" d="M 113.101562 129.457031 L 167.503906 132.101562 "/>
<path style="fill:none;stroke-width:1;stroke-linecap:butt;stroke-linejoin:miter;stroke:rgb(26.666667%,26.666667%,26.666667%);stroke-opacity:1;stroke-miterlimit:10;" d="M 163.160156 77.53125 L 167.503906 132.101562 "/>
<path style="fill:none;stroke-width:1;stroke-linecap:butt;stroke-linejoin:miter;stroke:rgb(26.666667%,26.666667%,26.666667%);stroke-opacity:1;stroke-miterlimit:10;" d="M 78.097656 68.160156 L 94.933594 34.898438 "/>
<path style="fill:none;stroke-width:1;stroke-linecap:butt;stroke-linejoin:miter;stroke:rgb(26.666667%,26.666667%,26.666667%);stroke-opacity:1;stroke-miterlimit:10;" d="M 111.660156 100.082031 L 151.84375 102.902344 "/>
<path style="fill:none;stroke-width:1;stroke-linecap:butt;stroke-linejoin:miter;stroke:rgb(26.666667%,26.666667%,26.666667%);stroke-opacity:1;stroke-miterlimit:10;" d="M 112.480469 168.503906 L 92.371094 117.28125 "/>
<path style="fill:none;stroke-width:1;stroke-linecap:butt;stroke-linejoin:miter;stroke:rgb(26.666667%,26.666667%,26.666667%);stroke-opacity:1;stroke-miterlimit:10;" d="M 151.84375 102.902344 L 92.371094 117.28125 "/>
<path style="fill:none;stroke-width:1;stroke-linecap:butt;stroke-linejoin:miter;stroke:rgb(26.666667%,26.666667%,26.666667%);stroke-opacity:1;stroke-miterlimit:10;" d="M 20 51.375 L 38.121094 93.144531 "/>
<path style="fill:none;stroke-width:1;stroke-linecap:butt;stroke-linejoin:miter;stroke:rgb(26.666667%,26.666667%,26.666667%);stroke-opacity:1;stroke-miterlimit:10;" d="M 92.371094 117.28125 L 38.121094 93.144531 "/>
<path style="fill:none;stroke-width:1;stroke-linecap:butt;stroke-linejoin:miter;stroke:rgb(26.666667%,26.666667%,26.666667%);stroke-opacity:1;stroke-miterlimit:10;" d="M 113.101562 129.457031 L 120.648438 57.4375 "/>
<path style="fill:none;stroke-width:1;stroke-linecap:butt;stroke-linejoin:miter;stroke:rgb(26.666667%,26.666667%,26.666667%);stroke-opacity:1;stroke-miterlimit:10;" d="M 78.097656 68.160156 L 120.648438 57.4375 "/>
<path style="fill:none;stroke-width:1;stroke-linecap:butt;stroke-linejoin:miter;stroke:rgb(26.666667%,26.666667%,26.666667%);stroke-opacity:1;stroke-miterlimit:10;" d="M 163.160156 77.53125 L 120.648438 57.4375 "/>
<path style="fill:none;stroke-width:1;stroke-linecap:butt;stroke-linejoin:miter;stroke:rgb(26.666667%,26.666667%,26.666667%);stroke-opacity:1;stroke-miterlimit:10;" d="M 94.933594 34.898438 L 120.648438 57.4375 "/>
<path style="fill:none;stroke-width:1;stroke-linecap:butt;stroke-linejoin:miter;stroke:rgb(26.666667%,26.666667%,26.666667%);stroke-opacity:1;stroke-miterlimit:10;" d="M 94.933594 34.898438 L 140.65625 20 "/>
<path style="fill:none;stroke-width:1;stroke-linecap:butt;stroke-linejoin:miter;stroke:rgb(26.666667%,26.666667%,26.666667%);stroke-opacity:1;stroke-miterlimit:10;" d="M 120.648438 57.4375 L 140.65625 20 "/>
<path style="fill:none;stroke-width:1;stroke-linecap:butt;stroke-linejoin:miter;stroke:rgb(26.666667%,26.666667%,26.666667%);stroke-opacity:1;stroke-miterlimit:10;" d="M 20 51.375 L 74.957031 28.605469 "/>
<path style="fill:none;stroke-width:1;stroke-linecap:butt;stroke-linejoin:miter;stroke:rgb(26.666667%,26.666667%,26.666667%);stroke-opacity:1;stroke-miterlimit:10;" d="M 120.648438 57.4375 L 74.957031 28.605469 "/>
<path style="fill:none;stroke-width:1;stroke-linecap:butt;stroke-linejoin:miter;stroke:rgb(26.666667%,26.666667%,26.666667%);stroke-opacity:1;stroke-miterlimit:10;" d="M 163.160156 77.53125 L 113.835938 71.214844 "/>
<path style="fill:none;stroke-width:1;stroke-linecap:butt;stroke-linejoin:miter;stroke:rgb(26.666667%,26.666667%,26.666667%);stroke-opacity:1;stroke-miterlimit:10;" d="M 92.371094 117.28125 L 113.835938 71.214844 "/>
<path style="fill:none;stroke-width:1;stroke-linecap:butt;stroke-linejoin:miter;stroke:rgb(26.666667%,26.666667%,26.666667%);stroke-opacity:1;stroke-miterlimit:10;" d="M 74.957031 28.605469 L 113.835938 71.214844 "/>
<path style="fill:none;stroke-width:1;stroke-linecap:butt;stroke-linejoin:miter;stroke:rgb(26.666667%,26.666667%,26.666667%);stroke-opacity:1;stroke-miterlimit:10;" d="M 163.160156 77.53125 L 180 51.007812 "/>
<path style="fill:none;stroke-width:1;stroke-linecap:butt;stroke-linejoin:miter;stroke:rgb(26.666667%,26.666667%,26.666667%);stroke-opacity:1;stroke-miterlimit:10;" d="M 151.84375 102.902344 L 180 51.007812 "/>
<path style="fill:none;stroke-width:1;stroke-linecap:butt;stroke-linejoin:miter;stroke:rgb(26.666667%,26.666667%,26.666667%);stroke-opacity:1;stroke-miterlimit:10;" d="M 140.65625 20 L 180 51.007812 "/>
<path style="fill:none;stroke-width:1;stroke-linecap:butt;stroke-linejoin:miter;stroke:rgb(26.666667%,26.666667%,26.666667%);stroke-opacity:1;stroke-miterlimit:10;" d="M 113.101562 129.457031 L 55.476562 125.128906 "/>
<path style="fill:none;stroke-width:1;stroke-linecap:butt;stroke-linejoin:miter;stroke:rgb(26.666667%,26.666667%,26.666667%);stroke-opacity:1;stroke-miterlimit:10;" d="M 78.097656 68.160156 L 55.476562 125.128906 "/>
<path style="fill:none;stroke-width:1;stroke-linecap:butt;stroke-linejoin:miter;stroke:rgb(26.666667%,26.666667%,26.666667%);stroke-opacity:1;stroke-miterlimit:10;" d="M 38.121094 93.144531 L 55.476562 125.128906 "/>
<path style="fill:none;stroke-width:1;stroke-linecap:butt;stroke-linejoin:miter;stroke:rgb(26.666667%,26.666667%,26.666667%);stroke-opacity:1;stroke-miterlimit:10;" d="M 78.097656 68.160156 L 68.730469 89.410156 "/>
<path style="fill:none;stroke-width:1;stroke-linecap:butt;stroke-linejoin:miter;stroke:rgb(26.666667%,26.666667%,26.666667%);stroke-opacity:1;stroke-miterlimit:10;" d="M 111.660156 100.082031 L 68.730469 89.410156 "/>
<path style="fill:none;stroke-width:1;stroke-linecap:butt;stroke-linejoin:miter;stroke:rgb(26.666667%,26.666667%,26.666667%);stroke-opacity:1;stroke-miterlimit:10;" d="M 94.933594 34.898438 L 68.730469 89.410156 "/>
<path style="fill:none;stroke-width:1;stroke-linecap:butt;stroke-linejoin:miter;stroke:rgb(26.666667%,26.666667%,26.666667%);stroke-opacity:1;stroke-miterlimit:10;" d="M 92.371094 117.28125 L 68.730469 89.410156 "/>
<path style="fill:none;stroke-width:1;stroke-linecap:butt;stroke-linejoin:miter;stroke:rgb(26.666667%,26.666667%,26.666667%);stroke-opacity:1;stroke-miterlimit:10;" d="M 38.121094 93.144531 L 68.730469 89.410156 "/>
<path style="fill:none;stroke-width:1;stroke-linecap:butt;stroke-linejoin:miter;stroke:rgb(26.666667%,26.666667%,26.666667%);stroke-opacity:1;stroke-miterlimit:10;" d="M 78.097656 68.160156 L 47.566406 40.21875 "/>
<path style="fill:none;stroke-width:1;stroke-linecap:butt;stroke-linejoin:miter;stroke:rgb(26.666667%,26.666667%,26.666667%);stroke-opacity:1;stroke-miterlimit:10;" d="M 94.933594 34.898438 L 47.566406 40.21875 "/>
<path style="fill:none;stroke-width:1;stroke-linecap:butt;stroke-linejoin:miter;stroke:rgb(26.666667%,26.666667%,26.666667%);stroke-opacity:1;stroke-miterlimit:10;" d="M 38.121094 93.144531 L 47.566406 40.21875 "/>
<path style="fill:none;stroke-width:1;stroke-linecap:butt;stroke-linejoin:miter;stroke:rgb(26.666667%,26.666667%,26.666667%);stroke-opacity:1;stroke-miterlimit:10;" d="M 74.957031 28.605469 L 47.566406 40.21875 "/>
<path style="fill:none;stroke-width:1;stroke-linecap:butt;stroke-linejoin:miter;stroke:rgb(26.666667%,26.666667%,26.666667%);stroke-opacity:1;stroke-miterlimit:10;" d="M 113.101562 129.457031 L 89.3125 180 "/>
<path style="fill:none;stroke-width:1;stroke-linecap:butt;stroke-linejoin:miter;stroke:rgb(26.666667%,26.666667%,26.666667%);stroke-opacity:1;stroke-miterlimit:10;" d="M 112.480469 168.503906 L 89.3125 180 "/>
<path style="fill-rule:nonzero;fill:rgb(100%,0%,0%);fill-opacity:1;stroke-width:1;stroke-linecap:butt;stroke-linejoin:miter;stroke:rgb(0%,0%,0%);stroke-opacity:1;stroke-miterlimit:10;" d="M 123.101562 129.457031 C 123.101562 134.980469 118.625 139.457031 113.101562 139.457031 C 107.578125 139.457031 103.101562 134.980469 103.101562 129.457031 C 103.101562 123.933594 107.578125 119.457031 113.101562 119.457031 C 118.625 119.457031 123.101562 123.933594 123.101562 129.457031 "/>
<path style="fill-rule:nonzero;fill:rgb(100%,0%,0%);fill-opacity:1;stroke-width:1;stroke-linecap:butt;stroke-linejoin:miter;stroke:rgb(0%,0%,0%);stroke-opacity:1;stroke-miterlimit:10;" d="M 88.097656 68.160156 C 88.097656 73.683594 83.621094 78.160156 78.097656 78.160156 C 72.578125 78.160156 68.097656 73.683594 68.097656 68.160156 C 68.097656 62.636719 72.578125 58.160156 78.097656 58.160156 C 83.621094 58.160156 88.097656 62.636719 88.097656 68.160156 "/>
<path style="fill-rule:nonzero;fill:rgb(100%,0%,0%);fill-opacity:1;stroke-width:1;stroke-linecap:butt;stroke-linejoin:miter;stroke:rgb(0%,0%,0%);stroke-opacity:1;stroke-miterlimit:10;" d="M 122.480469 168.503906 C 122.480469 174.023438 118.003906 178.503906 112.480469 178.503906 C 106.957031 178.503906 102.480469 174.023438 102.480469 168.503906 C 102.480469 162.980469 106.957031 158.503906 112.480469 158.503906 C 118.003906 158.503906 122.480469 162.980469 122.480469 168.503906 "/>
<path style="fill-rule:nonzero;fill:rgb(100%,0%,0%);fill-opacity:1;stroke-width:1;stroke-linecap:butt;stroke-linejoin:miter;stroke:rgb(0%,0%,0%);stroke-opacity:1;stroke-miterlimit:10;" d="M 173.160156 77.53125 C 173.160156 83.054688 168.679688 87.53125 163.160156 87.53125 C 157.636719 87.53125 153.160156 83.054688 153.160156 77.53125 C 153.160156 72.007812 157.636719 67.53125 163.160156 67.53125 C 168.679688 67.53125 173.160156 72.007812 173.160156 77.53125 "/>
<path style="fill-rule:nonzero;fill:rgb(100%,0%,0%);fill-opacity:1;stroke-width:1;stroke-linecap:butt;stroke-linejoin:miter;stroke:rgb(0%,0%,0%);stroke-opacity:1;stroke-miterlimit:10;" d="M 121.660156 100.082031 C 121.660156 105.605469 117.179688 110.082031 111.660156 110.082031 C 106.136719 110.082031 101.660156 105.605469 101.660156 100.082031 C 101.660156 94.5625 106.136719 90.082031 111.660156 90.082031 C 117.179688 90.082031 121.660156 94.5625 121.660156 100.082031 "/>
<path style="fill-rule:nonzero;fill:rgb(100%,0%,0%);fill-opacity:1;stroke-width:1;stroke-linecap:butt;stroke-linejoin:miter;stroke:rgb(0%,0%,0%);stroke-opacity:1;stroke-miterlimit:10;" d="M 177.503906 132.101562 C 177.503906 137.621094 173.027344 142.101562 167.503906 142.101562 C 161.980469 142.101562 157.503906 137.621094 157.503906 132.101562 C 157.503906 126.578125 161.980469 122.101562 167.503906 122.101562 C 173.027344 122.101562 177.503906 126.578125 177.503906 132.101562 "/>
<path style="fill-rule:nonzero;fill:rgb(100%,0%,0%);fill-opacity:1;stroke-width:1;stroke-linecap:butt;stroke-linejoin:miter;stroke:rgb(0%,0%,0%);stroke-opacity:1;stroke-miterlimit:10;" d="M 104.933594 34.898438 C 104.933594 40.421875 100.457031 44.898438 94.933594 44.898438 C 89.410156 44.898438 84.933594 40.421875 84.933594 34.898438 C 84.933594 29.375 89.410156 24.898438 94.933594 24.898438 C 100.457031 24.898438 104.933594 29.375 104.933594 34.898438 "/>
<path style="fill-rule:nonzero;fill:rgb(100%,0%,0%);fill-opacity:1;stroke-width:1;stroke-linecap:butt;stroke-linejoin:miter;stroke:rgb(0%,0%,0%);stroke-opacity:1;stroke-miterlimit:10;" d="M 161.84375 102.902344 C 161.84375 108.425781 157.363281 112.902344 151.84375 112.902344 C 146.320312 112.902344 141.84375 108.425781 141.84375 102.902344 C 141.84375 97.378906 146.320312 92.902344 151.84375 92.902344 C 157.363281 92.902344 161.84375 97.378906 161.84375 102.902344 "/>
<path style="fill-rule:nonzero;fill:rgb(100%,0%,0%);fill-opacity:1;stroke-width:1;stroke-linecap:butt;stroke-linejoin:miter;stroke:rgb(0%,0%,0%);stroke-opacity:1;stroke-miterlimit:10;" d="M 30 51.375 C 30 56.898438 25.523438 61.375 20 61.375 C 14.476562 61.375 10 56.898438 10 51.375 C 10 45.851562 14.476562 41.375 20 41.375 C 25.523438 41.375 30 45.851562 30 51.375 "/>
<path style="fill-rule:nonzero;fill:rgb(100%,0%,0%);fill-opacity:1;stroke-width:1;stroke-linecap:butt;stroke-linejoin:miter;stroke:rgb(0%,0%,0%);stroke-opacity:1;stroke-miterlimit:10;" d="M 102.371094 117.28125 C 102.371094 122.804688 97.894531 127.28125 92.371094 127.28125 C 86.851562 127.28125 82.371094 122.804688 82.371094 117.28125 C 82.371094 111.757812 86.851562 107.28125 92.371094 107.28125 C 97.894531 107.28125 102.371094 111.757812 102.371094 117.28125 "/>
<path style="fill-rule:nonzero;fill:rgb(100%,0%,0%);fill-opacity:1;stroke-width:1;stroke-linecap:butt;stroke-linejoin:miter;stroke:rgb(0%,0%,0%);stroke-opacity:1;stroke-miterlimit:10;" d="M 48.121094 93.144531 C 48.121094 98.667969 43.644531 103.144531 38.121094 103.144531 C 32.597656 103.144531 28.121094 98.667969 28.121094 93.144531 C 28.121094 87.621094 32.597656 83.144531 38.121094 83.144531 C 43.644531 83.144531 48.121094 87.621094 48.121094 93.144531 "/>
<path style="fill-rule:nonzero;fill:rgb(100%,0%,0%);fill-opacity:1;stroke-width:1;stroke-linecap:butt;stroke-linejoin:miter;stroke:rgb(0%,0%,0%);stroke-opacity:1;stroke-miterlimit:10;" d="M 130.648438 57.4375 C 130.648438 62.960938 126.171875 67.4375 120.648438 67.4375 C 115.125 67.4375 110.648438 62.960938 110.648438 57.4375 C 110.648438 51.914062 115.125 47.4375 120.648438 47.4375 C 126.171875 47.4375 130.648438 51.914062 130.648438 57.4375 "/>
<path style="fill-rule:nonzero;fill:rgb(100%,0%,0%);fill-opacity:1;stroke-width:1;stroke-linecap:butt;stroke-linejoin:miter;stroke:rgb(0%,0%,0%);stroke-opacity:1;stroke-miterlimit:10;" d="M 150.65625 20 C 150.65625 25.523438 146.179688 30 140.65625 30 C 135.132812 30 130.65625 25.523438 130.65625 20 C 130.65625 14.476562 135.132812 10 140.65625 10 C 146.179688 10 150.65625 14.476562 150.65625 20 "/>
<path style="fill-rule:nonzero;fill:rgb(100%,0%,0%);fill-opacity:1;stroke-width:1;stroke-linecap:butt;stroke-linejoin:miter;stroke:rgb(0%,0%,0%);stroke-opacity:1;stroke-miterlimit:10;" d="M 84.957031 28.605469 C 84.957031 34.128906 80.476562 38.605469 74.957031 38.605469 C 69.433594 38.605469 64.957031 34.128906 64.957031 28.605469 C 64.957031 23.082031 69.433594 18.605469 74.957031 18.605469 C 80.476562 18.605469 84.957031 23.082031 84.957031 28.605469 "/>
<path style="fill-rule:nonzero;fill:rgb(100%,0%,0%);fill-opacity:1;stroke-width:1;stroke-linecap:butt;stroke-linejoin:miter;stroke:rgb(0%,0%,0%);stroke-opacity:1;stroke-miterlimit:10;" d="M 123.835938 71.214844 C 123.835938 76.738281 119.355469 81.214844 113.835938 81.214844 C 108.3125 81.214844 103.835938 76.738281 103.835938 71.214844 C 103.835938 65.691406 108.3125 61.214844 113.835938 61.214844 C 119.355469 61.214844 123.835938 65.691406 123.835938 71.214844 "/>
<path style="fill-rule:nonzero;fill:rgb(100%,0%,0%);fill-opacity:1;stroke-width:1;stroke-linecap:butt;stroke-linejoin:miter;stroke:rgb(0%,0%,0%);stroke-opacity:1;stroke-miterlimit:10;" d="M 190 51.007812 C 190 56.527344 185.523438 61.007812 180 61.007812 C 174.476562 61.007812 170 56.527344 170 51.007812 C 170 45.484375 174.476562 41.007812 180 41.007812 C 185.523438 41.007812 190 45.484375 190 51.007812 "/>
<path style="fill-rule:nonzero;fill:rgb(100%,0%,0%);fill-opacity:1;stroke-width:1;stroke-linecap:butt;stroke-linejoin:miter;stroke:rgb(0%,0%,0%);stroke-opacity:1;stroke-miterlimit:10;" d="M 65.476562 125.128906 C 65.476562 130.652344 61 135.128906 55.476562 135.128906 C 49.953125 135.128906 45.476562 130.652344 45.476562 125.128906 C 45.476562 119.609375 49.953125 115.128906 55.476562 115.128906 C 61 115.128906 65.476562 119.609375 65.476562 125.128906 "/>
<path style="fill-rule:nonzero;fill:rgb(100%,0%,0%);fill-opacity:1;stroke-width:1;stroke-linecap:butt;stroke-linejoin:miter;stroke:rgb(0%,0%,0%);stroke-opacity:1;stroke-miterlimit:10;" d="M 78.730469 89.410156 C 78.730469 94.929688 74.253906 99.410156 68.730469 99.410156 C 63.207031 99.410156 58.730469 94.929688 58.730469 89.410156 C 58.730469 83.886719 63.207031 79.410156 68.730469 79.410156 C 74.253906 79.410156 78.730469 83.886719 78.730469 89.410156 "/>
<path style="fill-rule:nonzero;fill:rgb(100%,0%,0%);fill-opacity:1;stroke-width:1;stroke-linecap:butt;stroke-linejoin:miter;stroke:rgb(0%,0%,0%);stroke-opacity:1;stroke-miterlimit:10;" d="M 57.566406 40.21875 C 57.566406 45.742188 53.089844 50.21875 47.566406 50.21875 C 42.046875 50.21875 37.566406 45.742188 37.566406 40.21875 C 37.566406 34.695312 42.046875 30.21875 47.566406 30.21875 C 53.089844 30.21875 57.566406 34.695312 57.566406 40.21875 "/>
<path style="fill-rule:nonzero;fill:rgb(100%,0%,0%);fill-opacity:1;stroke-width:1;stroke-linecap:butt;stroke-linejoin:miter;stroke:rgb(0%,0%,0%);stroke-opacity:1;stroke-miterlimit:10;" d="M 99.3125 180 C 99.3125 185.523438 94.835938 190 89.3125 190 C 83.789062 190 79.3125 185.523438 79.3125 180 C 79.3125 174.476562 83.789062 170 89.3125 170 C 94.835938 170 99.3125 174.476562 99.3125 180 "/>
</g>
</svg>
