<?xml version="1.0" encoding="UTF-8"?>
<svg xmlns="http://www.w3.org/2000/svg" xmlns:xlink="http://www.w3.org/1999/xlink" width="200pt" height="200pt" viewBox="0 0 200 200" version="1.1">
<g id="surface8">
<rect x="0" y="0" width="200" height="200" style="fill:rgb(100%,100%,100%);fill-opacity:1;stroke:none;"/>
<path style="fill:none;stroke-width:1;stroke-linecap:butt;stroke-linejoin:miter;stroke:rgb(26.666667%,26.666667%,26.666667%);stroke-opacity:1;stroke-miterlimit:10;" d="M 27.78125 124.960938 L 32.574219 158.304688 "/>
<path style="fill:none;stroke-width:1;stroke-linecap:butt;stroke-linejoin:miter;stroke:rgb(26.666667%,26.666667%,26.666667%);stroke-opacity:1;stroke-miterlimit:10;" d="M 27.78125 124.960938 L 36.6875 170.339844 "/>
<path style="fill:none;stroke-width:1;stroke-linecap:butt;stroke-linejoin:miter;stroke:rgb(26.666667%,26.666667%,26.666667%);stroke-opacity:1;stroke-miterlimit:10;" d="M 27.78125 124.960938 L 49.699219 148.398438 "/>
<path style="fill:none;stroke-width:1;stroke-linecap:butt;stroke-linejoin:miter;stroke:rgb(26.666667%,26.666667%,26.666667%);stroke-opacity:1;stroke-miterlimit:10;" d="M 27.78125 124.960938 L 63.488281 108.921875 "/>
<path style="fill:none;stroke-width:1;stroke-linecap:butt;stroke-linejoin:miter;stroke:rgb(26.666667%,26.666667%,26.666667%);stroke-opacity:1;stroke-miterlimit:10;" d="M 32.574219 158.304688 L 36.6875 170.339844 "/>
<path style="fill:none;stroke-width:1;stroke-linecap:butt;stroke-linejoin:miter;stroke:rgb(26.666667%,26.666667%,26.666667%);stroke-opacity:1;stroke-miterlimit:10;" d="M 32.574219 158.304688 L 49.699219 148.398438 "/>
<path style="fill:none;stroke-width:1;stroke-linecap:butt;stroke-linejoin:miter;stroke:rgb(26.666667%,26.666667%,26.666667%);stroke-opacity:1;stroke-miterlimit:10;" d="M 36.6875 170.339844 L 49.699219 148.398438 "/>
<path style="fill:none;stroke-width:1;stroke-linecap:butt;stroke-linejoin:miter;stroke:rgb(26.666667%,26.666667%,26.666667%);stroke-opacity:1;stroke-miterlimit:10;" d="M 49.699219 148.398438 L 63.488281 108.921875 "/>
<path style="fill:none;stroke-width:1;stroke-linecap:butt;stroke-linejoin:miter;stroke:rgb(26.666667%,26.666667%,26.666667%);stroke-opacity:1;stroke-miterlimit:10;" d="M 63.488281 108.921875 L 71.707031 88.847656 "/>
<path style="fill:none;stroke-width:1;stroke-linecap:butt;stroke-linejoin:miter;stroke:rgb(26.666667%,26.666667%,26.666667%);stroke-opacity:1;stroke-miterlimit:10;" d="M 63.488281 108.921875 L 88.269531 79.800781 "/>
<path style="fill:none;stroke-width:1;stroke-linecap:butt;stroke-linejoin:miter;stroke:rgb(26.666667%,26.666667%,26.666667%);stroke-opacity:1;stroke-miterlimit:10;" d="M 71.707031 88.847656 L 84.929688 42.707031 "/>
<path style="fill:none;stroke-width:1;stroke-linecap:butt;stroke-linejoin:miter;stroke:rgb(26.666667%,26.666667%,26.666667%);stroke-opacity:1;stroke-miterlimit:10;" d="M 71.707031 88.847656 L 87.164062 54.488281 "/>
<path style="fill:none;stroke-width:1;stroke-linecap:butt;stroke-linejoin:miter;stroke:rgb(26.666667%,26.666667%,26.666667%);stroke-opacity:1;stroke-miterlimit:10;" d="M 71.707031 88.847656 L 88.269531 79.800781 "/>
<path style="fill:none;stroke-width:1;stroke-linecap:butt;stroke-linejoin:miter;stroke:rgb(26.666667%,26.666667%,26.666667%);stroke-opacity:1;stroke-miterlimit:10;" d="M 71.707031 88.847656 L 109.882812 68.285156 "/>
<path style="fill:none;stroke-width:1;stroke-linecap:butt;stroke-linejoin:miter;stroke:rgb(26.666667%,26.666667%,26.666667%);stroke-opacity:1;stroke-miterlimit:10;" d="M 84.929688 42.707031 L 87.164062 54.488281 "/>
<path style="fill:none;stroke-width:1;stroke-linecap:butt;stroke-linejoin:miter;stroke:rgb(26.666667%,26.666667%,26.666667%);stroke-opacity:1;stroke-miterlimit:10;" d="M 84.929688 42.707031 L 88.269531 79.800781 "/>
<path style="fill:none;stroke-width:1;stroke-linecap:butt;stroke-linejoin:miter;stroke:rgb(26.666667%,26.666667%,26.666667%);stroke-opacity:1;stroke-miterlimit:10;" d="M 84.929688 42.707031 L 109.882812 68.285156 "/>
<path style="fill:none;stroke-width:1;stroke-linecap:butt;stroke-linejoin:miter;stroke:rgb(26.666667%,26.666667%,26.666667%);stroke-opacity:1;stroke-miterlimit:10;" d="M 87.164062 54.488281 L 88.269531 79.800781 "/>
<path style="fill:none;stroke-width:1;stroke-linecap:butt;stroke-linejoin:miter;stroke:rgb(26.666667%,26.666667%,26.666667%);stroke-opacity:1;stroke-miterlimit:10;" d="M 87.164062 54.488281 L 109.882812 68.285156 "/>
<path style="fill:none;stroke-width:1;stroke-linecap:butt;stroke-linejoin:miter;stroke:rgb(26.666667%,26.666667%,26.666667%);stroke-opacity:1;stroke-miterlimit:10;" d="M 88.269531 79.800781 L 109.882812 68.285156 "/>
<path style="fill:none;stroke-width:1;stroke-linecap:butt;stroke-linejoin:miter;stroke:rgb(26.666667%,26.666667%,26.666667%);stroke-opacity:1;stroke-miterlimit:10;" d="M 88.269531 79.800781 L 126.753906 99.738281 "/>
<path style="fill:none;stroke-width:1;stroke-linecap:butt;stroke-linejoin:miter;stroke:rgb(26.666667%,26.666667%,26.666667%);stroke-opacity:1;stroke-miterlimit:10;" d="M 109.882812 68.285156 L 126.753906 99.738281 "/>
<path style="fill:none;stroke-width:1;stroke-linecap:butt;stroke-linejoin:miter;stroke:rgb(26.666667%,26.666667%,26.666667%);stroke-opacity:1;stroke-miterlimit:10;" d="M 109.882812 68.285156 L 138.554688 107.988281 "/>
<path style="fill:none;stroke-width:1;stroke-linecap:butt;stroke-linejoin:miter;stroke:rgb(26.666667%,26.666667%,26.666667%);stroke-opacity:1;stroke-miterlimit:10;" d="M 126.753906 99.738281 L 138.554688 107.988281 "/>
<path style="fill:none;stroke-width:1;stroke-linecap:butt;stroke-linejoin:miter;stroke:rgb(26.666667%,26.666667%,26.666667%);stroke-opacity:1;stroke-miterlimit:10;" d="M 126.753906 99.738281 L 141.078125 121.449219 "/>
<path style="fill:none;stroke-width:1;stroke-linecap:butt;stroke-linejoin:miter;stroke:rgb(26.666667%,26.666667%,26.666667%);stroke-opacity:1;stroke-miterlimit:10;" d="M 126.753906 99.738281 L 162.386719 75.527344 "/>
<path style="fill:none;stroke-width:1;stroke-linecap:butt;stroke-linejoin:miter;stroke:rgb(26.666667%,26.666667%,26.666667%);stroke-opacity:1;stroke-miterlimit:10;" d="M 132.789062 180 L 140.421875 169.953125 "/>
<path style="fill:none;stroke-width:1;stroke-linecap:butt;stroke-linejoin:miter;stroke:rgb(26.666667%,26.666667%,26.666667%);stroke-opacity:1;stroke-miterlimit:10;" d="M 132.789062 180 L 158.53125 165.179688 "/>
<path style="fill:none;stroke-width:1;stroke-linecap:butt;stroke-linejoin:miter;stroke:rgb(26.666667%,26.666667%,26.666667%);stroke-opacity:1;stroke-miterlimit:10;" d="M 138.554688 107.988281 L 141.078125 121.449219 "/>
<path style="fill:none;stroke-width:1;stroke-linecap:butt;stroke-linejoin:miter;stroke:rgb(26.666667%,26.666667%,26.666667%);stroke-opacity:1;stroke-miterlimit:10;" d="M 138.554688 107.988281 L 162.386719 75.527344 "/>
<path style="fill:none;stroke-width:1;stroke-linecap:butt;stroke-linejoin:miter;stroke:rgb(26.666667%,26.666667%,26.666667%);stroke-opacity:1;stroke-miterlimit:10;" d="M 140.421875 169.953125 L 141.078125 121.449219 "/>
<path style="fill:none;stroke-width:1;stroke-linecap:butt;stroke-linejoin:miter;stroke:rgb(26.666667%,26.666667%,26.666667%);stroke-opacity:1;stroke-miterlimit:10;" d="M 140.421875 169.953125 L 158.53125 165.179688 "/>
<path style="fill:none;stroke-width:1;stroke-linecap:butt;stroke-linejoin:miter;stroke:rgb(26.666667%,26.666667%,26.666667%);stroke-opacity:1;stroke-miterlimit:10;" d="M 141.078125 121.449219 L 158.53125 165.179688 "/>
<path style="fill:none;stroke-width:1;stroke-linecap:butt;stroke-linejoin:miter;stroke:rgb(26.666667%,26.666667%,26.666667%);stroke-opacity:1;stroke-miterlimit:10;" d="M 141.078125 121.449219 L 162.386719 75.527344 "/>
<path style="fill:none;stroke-width:1;stroke-linecap:butt;stroke-linejoin:miter;stroke:rgb(26.666667%,26.666667%,26.666667%);stroke-opacity:1;stroke-miterlimit:10;" d="M 162.386719 75.527344 L 180 36.714844 "/>
<path style="fill:none;stroke-width:1;stroke-linecap:butt;stroke-linejoin:miter;stroke:rgb(26.666667%,26.666667%,26.666667%);stroke-opacity:1;stroke-miterlimit:10;" d="M 171.292969 20 L 180 36.714844 "/>
<path style="fill-rule:nonzero;fill:rgb(100%,0%,0%);fill-opacity:1;stroke-width:1;stroke-linecap:butt;stroke-linejoin:miter;stroke:rgb(0%,0%,0%);stroke-opacity:1;stroke-miterlimit:10;" d="M 30 62.625 C 30 68.148438 25.523438 72.625 20 72.625 C 14.476562 72.625 10 68.148438 10 62.625 C 10 57.101562 14.476562 52.625 20 52.625 C 25.523438 52.625 30 57.101562 30 62.625 "/>
<path style="fill-rule:nonzero;fill:rgb(100%,0%,0%);fill-opacity:1;stroke-width:1;stroke-linecap:butt;stroke-linejoin:miter;stroke:rgb(0%,0%,0%);stroke-opacity:1;stroke-miterlimit:10;" d="M 37.78125 124.960938 C 37.78125 130.484375 33.304688 134.960938 27.78125 134.960938 C 22.261719 134.960938 17.78125 130.484375 17.78125 124.960938 C 17.78125 119.4375 22.261719 114.960938 27.78125 114.960938 C 33.304688 114.960938 37.78125 119.4375 37.78125 124.960938 "/>
<path style="fill-rule:nonzero;fill:rgb(100%,0%,0%);fill-opacity:1;stroke-width:1;stroke-linecap:butt;stroke-linejoin:miter;stroke:rgb(0%,0%,0%);stroke-opacity:1;stroke-miterlimit:10;" d="M 42.574219 158.304688 C 42.574219 163.828125 38.097656 168.304688 32.574219 168.304688 C 27.050781 168.304688 22.574219 163.828125 22.574219 158.304688 C 22.574219 152.78125 27.050781 148.304688 32.574219 148.304688 C 38.097656 148.304688 42.574219 152.78125 42.574219 158.304688 "/>
<path style="fill-rule:nonzero;fill:rgb(100%,0%,0%);fill-opacity:1;stroke-width:1;stroke-linecap:butt;stroke-linejoin:miter;stroke:rgb(0%,0%,0%);stroke-opacity:1;stroke-miterlimit:10;" d="M 46.6875 170.339844 C 46.6875 175.863281 42.210938 180.339844 36.6875 180.339844 C 31.164062 180.339844 26.6875 175.863281 26.6875 170.339844 C 26.6875 164.816406 31.164062 160.339844 36.6875 160.339844 C 42.210938 160.339844 46.6875 164.816406 46.6875 170.339844 "/>
<path style="fill-rule:nonzero;fill:rgb(100%,0%,0%);fill-opacity:1;stroke-width:1;stroke-linecap:butt;stroke-linejoin:miter;stroke:rgb(0%,0%,0%);stroke-opacity:1;stroke-miterlimit:10;" d="M 59.699219 148.398438 C 59.699219 153.921875 55.222656 158.398438 49.699219 158.398438 C 44.175781 158.398438 39.699219 153.921875 39.699219 148.398438 C 39.699219 142.875 44.175781 138.398438 49.699219 138.398438 C 55.222656 138.398438 59.699219 142.875 59.699219 148.398438 "/>
<path style="fill-rule:nonzero;fill:rgb(100%,0%,0%);fill-opacity:1;stroke-width:1;stroke-linecap:butt;stroke-linejoin:miter;stroke:rgb(0%,0%,0%);stroke-opacity:1;stroke-miterlimit:10;" d="M 73.488281 108.921875 C 73.488281 114.445312 69.011719 118.921875 63.488281 118.921875 C 57.964844 118.921875 53.488281 114.445312 53.488281 108.921875 C 53.488281 103.398438 57.964844 98.921875 63.488281 98.921875 C 69.011719 98.921875 73.488281 103.398438 73.488281 108.921875 "/>
<path style="fill-rule:nonzero;fill:rgb(100%,0%,0%);fill-opacity:1;stroke-width:1;stroke-linecap:butt;stroke-linejoin:miter;stroke:rgb(0%,0%,0%);stroke-opacity:1;stroke-miterlimit:10;" d="M 81.707031 88.847656 C 81.707031 94.371094 77.230469 98.847656 71.707031 98.847656 C 66.183594 98.847656 61.707031 94.371094 61.707031 88.847656 C 61.707031 83.324219 66.183594 78.847656 71.707031 78.847656 C 77.230469 78.847656 81.707031 83.324219 81.707031 88.847656 "/>
<path style="fill-rule:nonzero;fill:rgb(100%,0%,0%);fill-opacity:1;stroke-width:1;stroke-linecap:butt;stroke-linejoin:miter;stroke:rgb(0%,0%,0%);stroke-opacity:1;stroke-miterlimit:10;" d="M 94.929688 42.707031 C 94.929688 48.230469 90.449219 52.707031 84.929688 52.707031 C 79.40625 52.707031 74.929688 48.230469 74.929688 42.707031 C 74.929688 37.183594 79.40625 32.707031 84.929688 32.707031 C 90.449219 32.707031 94.929688 37.183594 94.929688 42.707031 "/>
<path style="fill-rule:nonzero;fill:rgb(100%,0%,0%);fill-opacity:1;stroke-width:1;stroke-linecap:butt;stroke-linejoin:miter;stroke:rgb(0%,0%,0%);stroke-opacity:1;stroke-miterlimit:10;" d="M 97.164062 54.488281 C 97.164062 60.007812 92.6875 64.488281 87.164062 64.488281 C 81.640625 64.488281 77.164062 60.007812 77.164062 54.488281 C 77.164062 48.964844 81.640625 44.488281 87.164062 44.488281 C 92.6875 44.488281 97.164062 48.964844 97.164062 54.488281 "/>
<path style="fill-rule:nonzero;fill:rgb(100%,0%,0%);fill-opacity:1;stroke-width:1;stroke-linecap:butt;stroke-linejoin:miter;stroke:rgb(0%,0%,0%);stroke-opacity:1;stroke-miterlimit:10;" d="M 98.269531 79.800781 C 98.269531 85.324219 93.792969 89.800781 88.269531 89.800781 C 82.746094 89.800781 78.269531 85.324219 78.269531 79.800781 C 78.269531 74.28125 82.746094 69.800781 88.269531 69.800781 C 93.792969 69.800781 98.269531 74.28125 98.269531 79.800781 "/>
<path style="fill-rule:nonzero;fill:rgb(100%,0%,0%);fill-opacity:1;stroke-width:1;stroke-linecap:butt;stroke-linejoin:miter;stroke:rgb(0%,0%,0%);stroke-opacity:1;stroke-miterlimit:10;" d="M 119.882812 68.285156 C 119.882812 73.808594 115.40625 78.285156 109.882812 78.285156 C 104.359375 78.285156 99.882812 73.808594 99.882812 68.285156 C 99.882812 62.765625 104.359375 58.285156 109.882812 58.285156 C 115.40625 58.285156 119.882812 62.765625 119.882812 68.285156 "/>
<path style="fill-rule:nonzero;fill:rgb(100%,0%,0%);fill-opacity:1;stroke-width:1;stroke-linecap:butt;stroke-linejoin:miter;stroke:rgb(0%,0%,0%);stroke-opacity:1;stroke-miterlimit:10;" d="M 136.753906 99.738281 C 136.753906 105.261719 132.273438 109.738281 126.753906 109.738281 C 121.230469 109.738281 116.753906 105.261719 116.753906 99.738281 C 116.753906 94.214844 121.230469 89.738281 126.753906 89.738281 C 132.273438 89.738281 136.753906 94.214844 136.753906 99.738281 "/>
<path style="fill-rule:nonzero;fill:rgb(100%,0%,0%);fill-opacity:1;stroke-width:1;stroke-linecap:butt;stroke-linejoin:miter;stroke:rgb(0%,0%,0%);stroke-opacity:1;stroke-miterlimit:10;" d="M 142.789062 180 C 142.789062 185.523438 138.3125 190 132.789062 190 C 127.269531 190 122.789062 185.523438 122.789062 180 C 122.789062 174.476562 127.269531 170 132.789062 170 C 138.3125 170 142.789062 174.476562 142.789062 180 "/>
<path style="fill-rule:nonzero;fill:rgb(100%,0%,0%);fill-opacity:1;stroke-width:1;stroke-linecap:butt;stroke-linejoin:miter;stroke:rgb(0%,0%,0%);stroke-opacity:1;stroke-miterlimit:10;" d="M 148.554688 107.988281 C 148.554688 113.511719 144.078125 117.988281 138.554688 117.988281 C 133.03125 117.988281 128.554688 113.511719 128.554688 107.988281 C 128.554688 102.464844 133.03125 97.988281 138.554688 97.988281 C 144.078125 97.988281 148.554688 102.464844 148.554688 107.988281 "/>
<path style="fill-rule:nonzero;fill:rgb(100%,0%,0%);fill-opacity:1;stroke-width:1;stroke-linecap:butt;stroke-linejoin:miter;stroke:rgb(0%,0%,0%);stroke-opacity:1;stroke-miterlimit:10;" d="M 150.421875 169.953125 C 150.421875 175.476562 145.945312 179.953125 140.421875 179.953125 C 134.898438 179.953125 130.421875 175.476562 130.421875 169.953125 C 130.421875 164.429688 134.898438 159.953125 140.421875 159.953125 C 145.945312 159.953125 150.421875 164.429688 150.421875 169.953125 "/>
<path style="fill-rule:nonzero;fill:rgb(100%,0%,0%);fill-opacity:1;stroke-width:1;stroke-linecap:butt;stroke-linejoin:miter;stroke:rgb(0%,0%,0%);stroke-opacity:1;stroke-miterlimit:10;" d="M 151.078125 121.449219 C 151.078125 126.972656 146.601562 131.449219 141.078125 131.449219 C 135.554688 131.449219 131.078125 126.972656 131.078125 121.449219 C 131.078125 115.925781 135.554688 111.449219 141.078125 111.449219 C 146.601562 111.449219 151.078125 115.925781 151.078125 121.449219 "/>
<path style="fill-rule:nonzero;fill:rgb(100%,0%,0%);fill-opacity:1;stroke-width:1;stroke-linecap:butt;stroke-linejoin:miter;stroke:rgb(0%,0%,0%);stroke-opacity:1;stroke-miterlimit:10;" d="M 168.53125 165.179688 C 168.53125 170.703125 164.054688 175.179688 158.53125 175.179688 C 153.007812 175.179688 148.53125 170.703125 148.53125 165.179688 C 148.53125 159.660156 153.007812 155.179688 158.53125 155.179688 C 164.054688 155.179688 168.53125 159.660156 168.53125 165.179688 "/>
<path style="fill-rule:nonzero;fill:rgb(100%,0%,0%);fill-opacity:1;stroke-width:1;stroke-linecap:butt;stroke-linejoin:miter;stroke:rgb(0%,0%,0%);stroke-opacity:1;stroke-miterlimit:10;" d="M 172.386719 75.527344 C 172.386719 81.050781 167.910156 85.527344 162.386719 85.527344 C 156.863281 85.527344 152.386719 81.050781 152.386719 75.527344 C 152.386719 70.003906 156.863281 65.527344 162.386719 65.527344 C 167.910156 65.527344 172.386719 70.003906 172.386719 75.527344 "/>
<path style="fill-rule:nonzero;fill:rgb(100%,0%,0%);fill-opacity:1;stroke-width:1;stroke-linecap:butt;stroke-linejoin:miter;stroke:rgb(0%,0%,0%);stroke-opacity:1;stroke-miterlimit:10;" d="M 181.292969 20 C 181.292969 25.523438 176.8125 30 171.292969 30 C 165.769531 30 161.292969 25.523438 161.292969 20 C 161.292969 14.476562 165.769531 10 171.292969 10 C 176.8125 10 181.292969 14.476562 181.292969 20 "/>
<path style="fill-rule:nonzero;fill:rgb(100%,0%,0%);fill-opacity:1;stroke-width:1;stroke-linecap:butt;stroke-linejoin:miter;stroke:rgb(0%,0%,0%);stroke-opacity:1;stroke-miterlimit:10;" d="M 190 36.714844 C 190 42.234375 185.523438 46.714844 180 46.714844 C 174.476562 46.714844 170 42.234375 170 36.714844 C 170 31.191406 174.476562 26.714844 180 26.714844 C 185.523438 26.714844 190 31.191406 190 36.714844 "/>
</g>
</svg>
