<?xml version="1.0" encoding="UTF-8"?>
<svg xmlns="http://www.w3.org/2000/svg" xmlns:xlink="http://www.w3.org/1999/xlink" width="200pt" height="200pt" viewBox="0 0 200 200" version="1.1">
<g id="surface14">
<rect x="0" y="0" width="200" height="200" style="fill:rgb(100%,100%,100%);fill-opacity:1;stroke:none;"/>
<path style="fill:none;stroke-width:1;stroke-linecap:butt;stroke-linejoin:miter;stroke:rgb(26.666667%,26.666667%,26.666667%);stroke-opacity:1;stroke-miterlimit:10;" d="M 44.496094 75.382812 L 21.867188 127.605469 "/>
<path style="fill:none;stroke-width:1;stroke-linecap:butt;stroke-linejoin:miter;stroke:rgb(26.666667%,26.666667%,26.666667%);stroke-opacity:1;stroke-miterlimit:10;" d="M 44.496094 75.382812 L 87.585938 67.753906 "/>
<path style="fill:none;stroke-width:1;stroke-linecap:butt;stroke-linejoin:miter;stroke:rgb(26.666667%,26.666667%,26.666667%);stroke-opacity:1;stroke-miterlimit:10;" d="M 64.3125 80.65625 L 87.585938 67.753906 "/>
<path style="fill:none;stroke-width:1;stroke-linecap:butt;stroke-linejoin:miter;stroke:rgb(26.666667%,26.666667%,26.666667%);stroke-opacity:1;stroke-miterlimit:10;" d="M 106.945312 117.175781 L 87.585938 67.753906 "/>
<path style="fill:none;stroke-width:1;stroke-linecap:butt;stroke-linejoin:miter;stroke:rgb(26.666667%,26.666667%,26.666667%);stroke-opacity:1;stroke-miterlimit:10;" d="M 44.496094 75.382812 L 62.335938 61.601562 "/>
<path style="fill:none;stroke-width:1;stroke-linecap:butt;stroke-linejoin:miter;stroke:rgb(26.666667%,26.666667%,26.666667%);stroke-opacity:1;stroke-miterlimit:10;" d="M 64.3125 80.65625 L 20 93.789062 "/>
<path style="fill:none;stroke-width:1;stroke-linecap:butt;stroke-linejoin:miter;stroke:rgb(26.666667%,26.666667%,26.666667%);stroke-opacity:1;stroke-miterlimit:10;" d="M 44.496094 75.382812 L 72.632812 48.273438 "/>
<path style="fill:none;stroke-width:1;stroke-linecap:butt;stroke-linejoin:miter;stroke:rgb(26.666667%,26.666667%,26.666667%);stroke-opacity:1;stroke-miterlimit:10;" d="M 64.3125 80.65625 L 72.632812 48.273438 "/>
<path style="fill:none;stroke-width:1;stroke-linecap:butt;stroke-linejoin:miter;stroke:rgb(26.666667%,26.666667%,26.666667%);stroke-opacity:1;stroke-miterlimit:10;" d="M 87.585938 67.753906 L 72.632812 48.273438 "/>
<path style="fill:none;stroke-width:1;stroke-linecap:butt;stroke-linejoin:miter;stroke:rgb(26.666667%,26.666667%,26.666667%);stroke-opacity:1;stroke-miterlimit:10;" d="M 106.945312 117.175781 L 97.398438 134.328125 "/>
<path style="fill:none;stroke-width:1;stroke-linecap:butt;stroke-linejoin:miter;stroke:rgb(26.666667%,26.666667%,26.666667%);stroke-opacity:1;stroke-miterlimit:10;" d="M 64.3125 80.65625 L 97.335938 87.089844 "/>
<path style="fill:none;stroke-width:1;stroke-linecap:butt;stroke-linejoin:miter;stroke:rgb(26.666667%,26.666667%,26.666667%);stroke-opacity:1;stroke-miterlimit:10;" d="M 87.585938 67.753906 L 97.335938 87.089844 "/>
<path style="fill:none;stroke-width:1;stroke-linecap:butt;stroke-linejoin:miter;stroke:rgb(26.666667%,26.666667%,26.666667%);stroke-opacity:1;stroke-miterlimit:10;" d="M 62.335938 61.601562 L 97.335938 87.089844 "/>
<path style="fill:none;stroke-width:1;stroke-linecap:butt;stroke-linejoin:miter;stroke:rgb(26.666667%,26.666667%,26.666667%);stroke-opacity:1;stroke-miterlimit:10;" d="M 97.398438 134.328125 L 97.335938 87.089844 "/>
<path style="fill:none;stroke-width:1;stroke-linecap:butt;stroke-linejoin:miter;stroke:rgb(26.666667%,26.666667%,26.666667%);stroke-opacity:1;stroke-miterlimit:10;" d="M 106.945312 117.175781 L 85.597656 149.34375 "/>
<path style="fill:none;stroke-width:1;stroke-linecap:butt;stroke-linejoin:miter;stroke:rgb(26.666667%,26.666667%,26.666667%);stroke-opacity:1;stroke-miterlimit:10;" d="M 97.398438 134.328125 L 85.597656 149.34375 "/>
<path style="fill:none;stroke-width:1;stroke-linecap:butt;stroke-linejoin:miter;stroke:rgb(26.666667%,26.666667%,26.666667%);stroke-opacity:1;stroke-miterlimit:10;" d="M 85.597656 149.34375 L 74.871094 179.011719 "/>
<path style="fill:none;stroke-width:1;stroke-linecap:butt;stroke-linejoin:miter;stroke:rgb(26.666667%,26.666667%,26.666667%);stroke-opacity:1;stroke-miterlimit:10;" d="M 47.039062 180 L 74.871094 179.011719 "/>
<path style="fill:none;stroke-width:1;stroke-linecap:butt;stroke-linejoin:miter;stroke:rgb(26.666667%,26.666667%,26.666667%);stroke-opacity:1;stroke-miterlimit:10;" d="M 44.496094 75.382812 L 69.625 117.445312 "/>
<path style="fill:none;stroke-width:1;stroke-linecap:butt;stroke-linejoin:miter;stroke:rgb(26.666667%,26.666667%,26.666667%);stroke-opacity:1;stroke-miterlimit:10;" d="M 64.3125 80.65625 L 69.625 117.445312 "/>
<path style="fill:none;stroke-width:1;stroke-linecap:butt;stroke-linejoin:miter;stroke:rgb(26.666667%,26.666667%,26.666667%);stroke-opacity:1;stroke-miterlimit:10;" d="M 87.585938 67.753906 L 69.625 117.445312 "/>
<path style="fill:none;stroke-width:1;stroke-linecap:butt;stroke-linejoin:miter;stroke:rgb(26.666667%,26.666667%,26.666667%);stroke-opacity:1;stroke-miterlimit:10;" d="M 62.335938 61.601562 L 69.625 117.445312 "/>
<path style="fill:none;stroke-width:1;stroke-linecap:butt;stroke-linejoin:miter;stroke:rgb(26.666667%,26.666667%,26.666667%);stroke-opacity:1;stroke-miterlimit:10;" d="M 97.398438 134.328125 L 69.625 117.445312 "/>
<path style="fill:none;stroke-width:1;stroke-linecap:butt;stroke-linejoin:miter;stroke:rgb(26.666667%,26.666667%,26.666667%);stroke-opacity:1;stroke-miterlimit:10;" d="M 97.335938 87.089844 L 69.625 117.445312 "/>
<path style="fill:none;stroke-width:1;stroke-linecap:butt;stroke-linejoin:miter;stroke:rgb(26.666667%,26.666667%,26.666667%);stroke-opacity:1;stroke-miterlimit:10;" d="M 85.597656 149.34375 L 69.625 117.445312 "/>
<path style="fill:none;stroke-width:1;stroke-linecap:butt;stroke-linejoin:miter;stroke:rgb(26.666667%,26.666667%,26.666667%);stroke-opacity:1;stroke-miterlimit:10;" d="M 47.039062 180 L 69.625 117.445312 "/>
<path style="fill:none;stroke-width:1;stroke-linecap:butt;stroke-linejoin:miter;stroke:rgb(26.666667%,26.666667%,26.666667%);stroke-opacity:1;stroke-miterlimit:10;" d="M 74.871094 179.011719 L 69.625 117.445312 "/>
<path style="fill:none;stroke-width:1;stroke-linecap:butt;stroke-linejoin:miter;stroke:rgb(26.666667%,26.666667%,26.666667%);stroke-opacity:1;stroke-miterlimit:10;" d="M 87.585938 67.753906 L 84.257812 20 "/>
<path style="fill:none;stroke-width:1;stroke-linecap:butt;stroke-linejoin:miter;stroke:rgb(26.666667%,26.666667%,26.666667%);stroke-opacity:1;stroke-miterlimit:10;" d="M 62.335938 61.601562 L 84.257812 20 "/>
<path style="fill:none;stroke-width:1;stroke-linecap:butt;stroke-linejoin:miter;stroke:rgb(26.666667%,26.666667%,26.666667%);stroke-opacity:1;stroke-miterlimit:10;" d="M 21.867188 127.605469 L 59.195312 159.199219 "/>
<path style="fill:none;stroke-width:1;stroke-linecap:butt;stroke-linejoin:miter;stroke:rgb(26.666667%,26.666667%,26.666667%);stroke-opacity:1;stroke-miterlimit:10;" d="M 97.398438 134.328125 L 59.195312 159.199219 "/>
<path style="fill:none;stroke-width:1;stroke-linecap:butt;stroke-linejoin:miter;stroke:rgb(26.666667%,26.666667%,26.666667%);stroke-opacity:1;stroke-miterlimit:10;" d="M 85.597656 149.34375 L 59.195312 159.199219 "/>
<path style="fill:none;stroke-width:1;stroke-linecap:butt;stroke-linejoin:miter;stroke:rgb(26.666667%,26.666667%,26.666667%);stroke-opacity:1;stroke-miterlimit:10;" d="M 74.871094 179.011719 L 59.195312 159.199219 "/>
<path style="fill:none;stroke-width:1;stroke-linecap:butt;stroke-linejoin:miter;stroke:rgb(26.666667%,26.666667%,26.666667%);stroke-opacity:1;stroke-miterlimit:10;" d="M 21.867188 127.605469 L 42.652344 104.871094 "/>
<path style="fill:none;stroke-width:1;stroke-linecap:butt;stroke-linejoin:miter;stroke:rgb(26.666667%,26.666667%,26.666667%);stroke-opacity:1;stroke-miterlimit:10;" d="M 62.335938 61.601562 L 42.652344 104.871094 "/>
<path style="fill:none;stroke-width:1;stroke-linecap:butt;stroke-linejoin:miter;stroke:rgb(26.666667%,26.666667%,26.666667%);stroke-opacity:1;stroke-miterlimit:10;" d="M 69.625 117.445312 L 42.652344 104.871094 "/>
<path style="fill:none;stroke-width:1;stroke-linecap:butt;stroke-linejoin:miter;stroke:rgb(26.666667%,26.666667%,26.666667%);stroke-opacity:1;stroke-miterlimit:10;" d="M 64.3125 80.65625 L 78.164062 103.753906 "/>
<path style="fill:none;stroke-width:1;stroke-linecap:butt;stroke-linejoin:miter;stroke:rgb(26.666667%,26.666667%,26.666667%);stroke-opacity:1;stroke-miterlimit:10;" d="M 72.632812 48.273438 L 78.164062 103.753906 "/>
<path style="fill:none;stroke-width:1;stroke-linecap:butt;stroke-linejoin:miter;stroke:rgb(26.666667%,26.666667%,26.666667%);stroke-opacity:1;stroke-miterlimit:10;" d="M 97.398438 134.328125 L 78.164062 103.753906 "/>
<path style="fill:none;stroke-width:1;stroke-linecap:butt;stroke-linejoin:miter;stroke:rgb(26.666667%,26.666667%,26.666667%);stroke-opacity:1;stroke-miterlimit:10;" d="M 85.597656 149.34375 L 78.164062 103.753906 "/>
<path style="fill:none;stroke-width:1;stroke-linecap:butt;stroke-linejoin:miter;stroke:rgb(26.666667%,26.666667%,26.666667%);stroke-opacity:1;stroke-miterlimit:10;" d="M 69.625 117.445312 L 78.164062 103.753906 "/>
<path style="fill:none;stroke-width:1;stroke-linecap:butt;stroke-linejoin:miter;stroke:rgb(26.666667%,26.666667%,26.666667%);stroke-opacity:1;stroke-miterlimit:10;" d="M 42.652344 104.871094 L 78.164062 103.753906 "/>
<path style="fill:none;stroke-width:1;stroke-linecap:butt;stroke-linejoin:miter;stroke:rgb(26.666667%,26.666667%,26.666667%);stroke-opacity:1;stroke-miterlimit:10;" d="M 106.945312 117.175781 L 57.980469 130.195312 "/>
<path style="fill:none;stroke-width:1;stroke-linecap:butt;stroke-linejoin:miter;stroke:rgb(26.666667%,26.666667%,26.666667%);stroke-opacity:1;stroke-miterlimit:10;" d="M 20 93.789062 L 57.980469 130.195312 "/>
<path style="fill:none;stroke-width:1;stroke-linecap:butt;stroke-linejoin:miter;stroke:rgb(26.666667%,26.666667%,26.666667%);stroke-opacity:1;stroke-miterlimit:10;" d="M 85.597656 149.34375 L 57.980469 130.195312 "/>
<path style="fill:none;stroke-width:1;stroke-linecap:butt;stroke-linejoin:miter;stroke:rgb(26.666667%,26.666667%,26.666667%);stroke-opacity:1;stroke-miterlimit:10;" d="M 59.195312 159.199219 L 57.980469 130.195312 "/>
<path style="fill:none;stroke-width:1;stroke-linecap:butt;stroke-linejoin:miter;stroke:rgb(26.666667%,26.666667%,26.666667%);stroke-opacity:1;stroke-miterlimit:10;" d="M 42.652344 104.871094 L 57.980469 130.195312 "/>
<path style="fill:none;stroke-width:1;stroke-linecap:butt;stroke-linejoin:miter;stroke:rgb(26.666667%,26.666667%,26.666667%);stroke-opacity:1;stroke-miterlimit:10;" d="M 78.164062 103.753906 L 57.980469 130.195312 "/>
<path style="fill-rule:nonzero;fill:rgb(100%,0%,0%);fill-opacity:1;stroke-width:1;stroke-linecap:butt;stroke-linejoin:miter;stroke:rgb(0%,0%,0%);stroke-opacity:1;stroke-miterlimit:10;" d="M 54.496094 75.382812 C 54.496094 80.90625 50.019531 85.382812 44.496094 85.382812 C 38.972656 85.382812 34.496094 80.90625 34.496094 75.382812 C 34.496094 69.859375 38.972656 65.382812 44.496094 65.382812 C 50.019531 65.382812 54.496094 69.859375 54.496094 75.382812 "/>
<path style="fill-rule:nonzero;fill:rgb(100%,0%,0%);fill-opacity:1;stroke-width:1;stroke-linecap:butt;stroke-linejoin:miter;stroke:rgb(0%,0%,0%);stroke-opacity:1;stroke-miterlimit:10;" d="M 31.867188 127.605469 C 31.867188 133.128906 27.386719 137.605469 21.867188 137.605469 C 16.34375 137.605469 11.867188 133.128906 11.867188 127.605469 C 11.867188 122.082031 16.34375 117.605469 21.867188 117.605469 C 27.386719 117.605469 31.867188 122.082031 31.867188 127.605469 "/>
<path style="fill-rule:nonzero;fill:rgb(100%,0%,0%);fill-opacity:1;stroke-width:1;stroke-linecap:butt;stroke-linejoin:miter;stroke:rgb(0%,0%,0%);stroke-opacity:1;stroke-miterlimit:10;" d="M 74.3125 80.65625 C 74.3125 86.179688 69.835938 90.65625 64.3125 90.65625 C 58.789062 90.65625 54.3125 86.179688 54.3125 80.65625 C 54.3125 75.132812 58.789062 70.65625 64.3125 70.65625 C 69.835938 70.65625 74.3125 75.132812 74.3125 80.65625 "/>
<path style="fill-rule:nonzero;fill:rgb(100%,0%,0%);fill-opacity:1;stroke-width:1;stroke-linecap:butt;stroke-linejoin:miter;stroke:rgb(0%,0%,0%);stroke-opacity:1;stroke-miterlimit:10;" d="M 116.945312 117.175781 C 116.945312 122.699219 112.46875 127.175781 106.945312 127.175781 C 101.421875 127.175781 96.945312 122.699219 96.945312 117.175781 C 96.945312 111.652344 101.421875 107.175781 106.945312 107.175781 C 112.46875 107.175781 116.945312 111.652344 116.945312 117.175781 "/>
<path style="fill-rule:nonzero;fill:rgb(100%,0%,0%);fill-opacity:1;stroke-width:1;stroke-linecap:butt;stroke-linejoin:miter;stroke:rgb(0%,0%,0%);stroke-opacity:1;stroke-miterlimit:10;" d="M 97.585938 67.753906 C 97.585938 73.277344 93.109375 77.753906 87.585938 77.753906 C 82.0625 77.753906 77.585938 73.277344 77.585938 67.753906 C 77.585938 62.230469 82.0625 57.753906 87.585938 57.753906 C 93.109375 57.753906 97.585938 62.230469 97.585938 67.753906 "/>
<path style="fill-rule:nonzero;fill:rgb(100%,0%,0%);fill-opacity:1;stroke-width:1;stroke-linecap:butt;stroke-linejoin:miter;stroke:rgb(0%,0%,0%);stroke-opacity:1;stroke-miterlimit:10;" d="M 190 115.367188 C 190 120.886719 185.523438 125.367188 180 125.367188 C 174.476562 125.367188 170 120.886719 170 115.367188 C 170 109.84375 174.476562 105.367188 180 105.367188 C 185.523438 105.367188 190 109.84375 190 115.367188 "/>
<path style="fill-rule:nonzero;fill:rgb(100%,0%,0%);fill-opacity:1;stroke-width:1;stroke-linecap:butt;stroke-linejoin:miter;stroke:rgb(0%,0%,0%);stroke-opacity:1;stroke-miterlimit:10;" d="M 72.335938 61.601562 C 72.335938 67.125 67.859375 71.601562 62.335938 71.601562 C 56.8125 71.601562 52.335938 67.125 52.335938 61.601562 C 52.335938 56.078125 56.8125 51.601562 62.335938 51.601562 C 67.859375 51.601562 72.335938 56.078125 72.335938 61.601562 "/>
<path style="fill-rule:nonzero;fill:rgb(100%,0%,0%);fill-opacity:1;stroke-width:1;stroke-linecap:butt;stroke-linejoin:miter;stroke:rgb(0%,0%,0%);stroke-opacity:1;stroke-miterlimit:10;" d="M 30 93.789062 C 30 99.3125 25.523438 103.789062 20 103.789062 C 14.476562 103.789062 10 99.3125 10 93.789062 C 10 88.265625 14.476562 83.789062 20 83.789062 C 25.523438 83.789062 30 88.265625 30 93.789062 "/>
<path style="fill-rule:nonzero;fill:rgb(100%,0%,0%);fill-opacity:1;stroke-width:1;stroke-linecap:butt;stroke-linejoin:miter;stroke:rgb(0%,0%,0%);stroke-opacity:1;stroke-miterlimit:10;" d="M 82.632812 48.273438 C 82.632812 53.796875 78.15625 58.273438 72.632812 58.273438 C 67.109375 58.273438 62.632812 53.796875 62.632812 48.273438 C 62.632812 42.75 67.109375 38.273438 72.632812 38.273438 C 78.15625 38.273438 82.632812 42.75 82.632812 48.273438 "/>
<path style="fill-rule:nonzero;fill:rgb(100%,0%,0%);fill-opacity:1;stroke-width:1;stroke-linecap:butt;stroke-linejoin:miter;stroke:rgb(0%,0%,0%);stroke-opacity:1;stroke-miterlimit:10;" d="M 107.398438 134.328125 C 107.398438 139.847656 102.921875 144.328125 97.398438 144.328125 C 91.875 144.328125 87.398438 139.847656 87.398438 134.328125 C 87.398438 128.804688 91.875 124.328125 97.398438 124.328125 C 102.921875 124.328125 107.398438 128.804688 107.398438 134.328125 "/>
<path style="fill-rule:nonzero;fill:rgb(100%,0%,0%);fill-opacity:1;stroke-width:1;stroke-linecap:butt;stroke-linejoin:miter;stroke:rgb(0%,0%,0%);stroke-opacity:1;stroke-miterlimit:10;" d="M 107.335938 87.089844 C 107.335938 92.613281 102.859375 97.089844 97.335938 97.089844 C 91.816406 97.089844 87.335938 92.613281 87.335938 87.089844 C 87.335938 81.566406 91.816406 77.089844 97.335938 77.089844 C 102.859375 77.089844 107.335938 81.566406 107.335938 87.089844 "/>
<path style="fill-rule:nonzero;fill:rgb(100%,0%,0%);fill-opacity:1;stroke-width:1;stroke-linecap:butt;stroke-linejoin:miter;stroke:rgb(0%,0%,0%);stroke-opacity:1;stroke-miterlimit:10;" d="M 95.597656 149.34375 C 95.597656 154.867188 91.121094 159.34375 85.597656 159.34375 C 80.074219 159.34375 75.597656 154.867188 75.597656 149.34375 C 75.597656 143.820312 80.074219 139.34375 85.597656 139.34375 C 91.121094 139.34375 95.597656 143.820312 95.597656 149.34375 "/>
<path style="fill-rule:nonzero;fill:rgb(100%,0%,0%);fill-opacity:1;stroke-width:1;stroke-linecap:butt;stroke-linejoin:miter;stroke:rgb(0%,0%,0%);stroke-opacity:1;stroke-miterlimit:10;" d="M 57.039062 180 C 57.039062 185.523438 52.5625 190 47.039062 190 C 41.515625 190 37.039062 185.523438 37.039062 180 C 37.039062 174.476562 41.515625 170 47.039062 170 C 52.5625 170 57.039062 174.476562 57.039062 180 "/>
<path style="fill-rule:nonzero;fill:rgb(100%,0%,0%);fill-opacity:1;stroke-width:1;stroke-linecap:butt;stroke-linejoin:miter;stroke:rgb(0%,0%,0%);stroke-opacity:1;stroke-miterlimit:10;" d="M 84.871094 179.011719 C 84.871094 184.53125 80.394531 189.011719 74.871094 189.011719 C 69.351562 189.011719 64.871094 184.53125 64.871094 179.011719 C 64.871094 173.488281 69.351562 169.011719 74.871094 169.011719 C 80.394531 169.011719 84.871094 173.488281 84.871094 179.011719 "/>
<path style="fill-rule:nonzero;fill:rgb(100%,0%,0%);fill-opacity:1;stroke-width:1;stroke-linecap:butt;stroke-linejoin:miter;stroke:rgb(0%,0%,0%);stroke-opacity:1;stroke-miterlimit:10;" d="M 79.625 117.445312 C 79.625 122.96875 75.148438 127.445312 69.625 127.445312 C 64.101562 127.445312 59.625 122.96875 59.625 117.445312 C 59.625 111.921875 64.101562 107.445312 69.625 107.445312 C 75.148438 107.445312 79.625 111.921875 79.625 117.445312 "/>
<path style="fill-rule:nonzero;fill:rgb(100%,0%,0%);fill-opacity:1;stroke-width:1;stroke-linecap:butt;stroke-linejoin:miter;stroke:rgb(0%,0%,0%);stroke-opacity:1;stroke-miterlimit:10;" d="M 94.257812 20 C 94.257812 25.523438 89.777344 30 84.257812 30 C 78.734375 30 74.257812 25.523438 74.257812 20 C 74.257812 14.476562 78.734375 10 84.257812 10 C 89.777344 10 94.257812 14.476562 94.257812 20 "/>
<path style="fill-rule:nonzero;fill:rgb(100%,0%,0%);fill-opacity:1;stroke-width:1;stroke-linecap:butt;stroke-linejoin:miter;stroke:rgb(0%,0%,0%);stroke-opacity:1;stroke-miterlimit:10;" d="M 69.195312 159.199219 C 69.195312 164.722656 64.71875 169.199219 59.195312 169.199219 C 53.671875 169.199219 49.195312 164.722656 49.195312 159.199219 C 49.195312 153.679688 53.671875 149.199219 59.195312 149.199219 C 64.71875 149.199219 69.195312 153.679688 69.195312 159.199219 "/>
<path style="fill-rule:nonzero;fill:rgb(100%,0%,0%);fill-opacity:1;stroke-width:1;stroke-linecap:butt;stroke-linejoin:miter;stroke:rgb(0%,0%,0%);stroke-opacity:1;stroke-miterlimit:10;" d="M 52.652344 104.871094 C 52.652344 110.394531 48.175781 114.871094 42.652344 114.871094 C 37.128906 114.871094 32.652344 110.394531 32.652344 104.871094 C 32.652344 99.347656 37.128906 94.871094 42.652344 94.871094 C 48.175781 94.871094 52.652344 99.347656 52.652344 104.871094 "/>
<path style="fill-rule:nonzero;fill:rgb(100%,0%,0%);fill-opacity:1;stroke-width:1;stroke-linecap:butt;stroke-linejoin:miter;stroke:rgb(0%,0%,0%);stroke-opacity:1;stroke-miterlimit:10;" d="M 88.164062 103.753906 C 88.164062 109.277344 83.6875 113.753906 78.164062 113.753906 C 72.640625 113.753906 68.164062 109.277344 68.164062 103.753906 C 68.164062 98.230469 72.640625 93.753906 78.164062 93.753906 C 83.6875 93.753906 88.164062 98.230469 88.164062 103.753906 "/>
<path style="fill-rule:nonzero;fill:rgb(100%,0%,0%);fill-opacity:1;stroke-width:1;stroke-linecap:butt;stroke-linejoin:miter;stroke:rgb(0%,0%,0%);stroke-opacity:1;stroke-miterlimit:10;" d="M 67.980469 130.195312 C 67.980469 135.71875 63.5 140.195312 57.980469 140.195312 C 52.457031 140.195312 47.980469 135.71875 47.980469 130.195312 C 47.980469 124.671875 52.457031 120.195312 57.980469 120.195312 C 63.5 120.195312 67.980469 124.671875 67.980469 130.195312 "/>
</g>
</svg>
