<?xml version="1.0" encoding="UTF-8"?>
<svg xmlns="http://www.w3.org/2000/svg" xmlns:xlink="http://www.w3.org/1999/xlink" width="200pt" height="200pt" viewBox="0 0 200 200" version="1.1">
<g id="surface8">
<rect x="0" y="0" width="200" height="200" style="fill:rgb(100%,100%,100%);fill-opacity:1;stroke:none;"/>
<path style="fill:none;stroke-width:1;stroke-linecap:butt;stroke-linejoin:miter;stroke:rgb(26.666667%,26.666667%,26.666667%);stroke-opacity:1;stroke-miterlimit:10;" d="M 20 54.695312 L 38.410156 41.542969 "/>
<path style="fill:none;stroke-width:1;stroke-linecap:butt;stroke-linejoin:miter;stroke:rgb(26.666667%,26.666667%,26.666667%);stroke-opacity:1;stroke-miterlimit:10;" d="M 20 54.695312 L 51.207031 80.273438 "/>
<path style="fill:none;stroke-width:1;stroke-linecap:butt;stroke-linejoin:miter;stroke:rgb(26.666667%,26.666667%,26.666667%);stroke-opacity:1;stroke-miterlimit:10;" d="M 20 54.695312 L 58.5 50.0625 "/>
<path style="fill:none;stroke-width:1;stroke-linecap:butt;stroke-linejoin:miter;stroke:rgb(26.666667%,26.666667%,26.666667%);stroke-opacity:1;stroke-miterlimit:10;" d="M 20.371094 111.613281 L 24.382812 116.800781 "/>
<path style="fill:none;stroke-width:1;stroke-linecap:butt;stroke-linejoin:miter;stroke:rgb(26.666667%,26.666667%,26.666667%);stroke-opacity:1;stroke-miterlimit:10;" d="M 20.371094 111.613281 L 51.207031 80.273438 "/>
<path style="fill:none;stroke-width:1;stroke-linecap:butt;stroke-linejoin:miter;stroke:rgb(26.666667%,26.666667%,26.666667%);stroke-opacity:1;stroke-miterlimit:10;" d="M 20.371094 111.613281 L 56.191406 110.789062 "/>
<path style="fill:none;stroke-width:1;stroke-linecap:butt;stroke-linejoin:miter;stroke:rgb(26.666667%,26.666667%,26.666667%);stroke-opacity:1;stroke-miterlimit:10;" d="M 20.371094 111.613281 L 71.320312 127.960938 "/>
<path style="fill:none;stroke-width:1;stroke-linecap:butt;stroke-linejoin:miter;stroke:rgb(26.666667%,26.666667%,26.666667%);stroke-opacity:1;stroke-miterlimit:10;" d="M 24.382812 116.800781 L 51.207031 80.273438 "/>
<path style="fill:none;stroke-width:1;stroke-linecap:butt;stroke-linejoin:miter;stroke:rgb(26.666667%,26.666667%,26.666667%);stroke-opacity:1;stroke-miterlimit:10;" d="M 24.382812 116.800781 L 56.191406 110.789062 "/>
<path style="fill:none;stroke-width:1;stroke-linecap:butt;stroke-linejoin:miter;stroke:rgb(26.666667%,26.666667%,26.666667%);stroke-opacity:1;stroke-miterlimit:10;" d="M 24.382812 116.800781 L 71.320312 127.960938 "/>
<path style="fill:none;stroke-width:1;stroke-linecap:butt;stroke-linejoin:miter;stroke:rgb(26.666667%,26.666667%,26.666667%);stroke-opacity:1;stroke-miterlimit:10;" d="M 38.410156 41.542969 L 51.207031 80.273438 "/>
<path style="fill:none;stroke-width:1;stroke-linecap:butt;stroke-linejoin:miter;stroke:rgb(26.666667%,26.666667%,26.666667%);stroke-opacity:1;stroke-miterlimit:10;" d="M 38.410156 41.542969 L 58.5 50.0625 "/>
<path style="fill:none;stroke-width:1;stroke-linecap:butt;stroke-linejoin:miter;stroke:rgb(26.666667%,26.666667%,26.666667%);stroke-opacity:1;stroke-miterlimit:10;" d="M 51.207031 80.273438 L 56.191406 110.789062 "/>
<path style="fill:none;stroke-width:1;stroke-linecap:butt;stroke-linejoin:miter;stroke:rgb(26.666667%,26.666667%,26.666667%);stroke-opacity:1;stroke-miterlimit:10;" d="M 51.207031 80.273438 L 58.5 50.0625 "/>
<path style="fill:none;stroke-width:1;stroke-linecap:butt;stroke-linejoin:miter;stroke:rgb(26.666667%,26.666667%,26.666667%);stroke-opacity:1;stroke-miterlimit:10;" d="M 51.207031 80.273438 L 71.320312 127.960938 "/>
<path style="fill:none;stroke-width:1;stroke-linecap:butt;stroke-linejoin:miter;stroke:rgb(26.666667%,26.666667%,26.666667%);stroke-opacity:1;stroke-miterlimit:10;" d="M 51.207031 80.273438 L 90.332031 68.390625 "/>
<path style="fill:none;stroke-width:1;stroke-linecap:butt;stroke-linejoin:miter;stroke:rgb(26.666667%,26.666667%,26.666667%);stroke-opacity:1;stroke-miterlimit:10;" d="M 51.207031 80.273438 L 93.15625 108.238281 "/>
<path style="fill:none;stroke-width:1;stroke-linecap:butt;stroke-linejoin:miter;stroke:rgb(26.666667%,26.666667%,26.666667%);stroke-opacity:1;stroke-miterlimit:10;" d="M 51.207031 80.273438 L 103.527344 70.109375 "/>
<path style="fill:none;stroke-width:1;stroke-linecap:butt;stroke-linejoin:miter;stroke:rgb(26.666667%,26.666667%,26.666667%);stroke-opacity:1;stroke-miterlimit:10;" d="M 56.191406 110.789062 L 71.320312 127.960938 "/>
<path style="fill:none;stroke-width:1;stroke-linecap:butt;stroke-linejoin:miter;stroke:rgb(26.666667%,26.666667%,26.666667%);stroke-opacity:1;stroke-miterlimit:10;" d="M 56.191406 110.789062 L 93.15625 108.238281 "/>
<path style="fill:none;stroke-width:1;stroke-linecap:butt;stroke-linejoin:miter;stroke:rgb(26.666667%,26.666667%,26.666667%);stroke-opacity:1;stroke-miterlimit:10;" d="M 58.5 50.0625 L 90.332031 68.390625 "/>
<path style="fill:none;stroke-width:1;stroke-linecap:butt;stroke-linejoin:miter;stroke:rgb(26.666667%,26.666667%,26.666667%);stroke-opacity:1;stroke-miterlimit:10;" d="M 58.5 50.0625 L 103.527344 70.109375 "/>
<path style="fill:none;stroke-width:1;stroke-linecap:butt;stroke-linejoin:miter;stroke:rgb(26.666667%,26.666667%,26.666667%);stroke-opacity:1;stroke-miterlimit:10;" d="M 71.320312 127.960938 L 93.15625 108.238281 "/>
<path style="fill:none;stroke-width:1;stroke-linecap:butt;stroke-linejoin:miter;stroke:rgb(26.666667%,26.666667%,26.666667%);stroke-opacity:1;stroke-miterlimit:10;" d="M 71.320312 127.960938 L 116.507812 107.257812 "/>
<path style="fill:none;stroke-width:1;stroke-linecap:butt;stroke-linejoin:miter;stroke:rgb(26.666667%,26.666667%,26.666667%);stroke-opacity:1;stroke-miterlimit:10;" d="M 90.332031 68.390625 L 93.15625 108.238281 "/>
<path style="fill:none;stroke-width:1;stroke-linecap:butt;stroke-linejoin:miter;stroke:rgb(26.666667%,26.666667%,26.666667%);stroke-opacity:1;stroke-miterlimit:10;" d="M 90.332031 68.390625 L 103.527344 70.109375 "/>
<path style="fill:none;stroke-width:1;stroke-linecap:butt;stroke-linejoin:miter;stroke:rgb(26.666667%,26.666667%,26.666667%);stroke-opacity:1;stroke-miterlimit:10;" d="M 90.332031 68.390625 L 116.507812 107.257812 "/>
<path style="fill:none;stroke-width:1;stroke-linecap:butt;stroke-linejoin:miter;stroke:rgb(26.666667%,26.666667%,26.666667%);stroke-opacity:1;stroke-miterlimit:10;" d="M 90.332031 68.390625 L 140.386719 57.4375 "/>
<path style="fill:none;stroke-width:1;stroke-linecap:butt;stroke-linejoin:miter;stroke:rgb(26.666667%,26.666667%,26.666667%);stroke-opacity:1;stroke-miterlimit:10;" d="M 93.15625 108.238281 L 103.527344 70.109375 "/>
<path style="fill:none;stroke-width:1;stroke-linecap:butt;stroke-linejoin:miter;stroke:rgb(26.666667%,26.666667%,26.666667%);stroke-opacity:1;stroke-miterlimit:10;" d="M 93.15625 108.238281 L 116.507812 107.257812 "/>
<path style="fill:none;stroke-width:1;stroke-linecap:butt;stroke-linejoin:miter;stroke:rgb(26.666667%,26.666667%,26.666667%);stroke-opacity:1;stroke-miterlimit:10;" d="M 103.527344 70.109375 L 116.507812 107.257812 "/>
<path style="fill:none;stroke-width:1;stroke-linecap:butt;stroke-linejoin:miter;stroke:rgb(26.666667%,26.666667%,26.666667%);stroke-opacity:1;stroke-miterlimit:10;" d="M 103.527344 70.109375 L 126.191406 26.980469 "/>
<path style="fill:none;stroke-width:1;stroke-linecap:butt;stroke-linejoin:miter;stroke:rgb(26.666667%,26.666667%,26.666667%);stroke-opacity:1;stroke-miterlimit:10;" d="M 103.527344 70.109375 L 140.386719 57.4375 "/>
<path style="fill:none;stroke-width:1;stroke-linecap:butt;stroke-linejoin:miter;stroke:rgb(26.666667%,26.666667%,26.666667%);stroke-opacity:1;stroke-miterlimit:10;" d="M 110.621094 178.839844 L 135.789062 150.84375 "/>
<path style="fill:none;stroke-width:1;stroke-linecap:butt;stroke-linejoin:miter;stroke:rgb(26.666667%,26.666667%,26.666667%);stroke-opacity:1;stroke-miterlimit:10;" d="M 110.621094 178.839844 L 161.359375 180 "/>
<path style="fill:none;stroke-width:1;stroke-linecap:butt;stroke-linejoin:miter;stroke:rgb(26.666667%,26.666667%,26.666667%);stroke-opacity:1;stroke-miterlimit:10;" d="M 116.507812 107.257812 L 135.789062 150.84375 "/>
<path style="fill:none;stroke-width:1;stroke-linecap:butt;stroke-linejoin:miter;stroke:rgb(26.666667%,26.666667%,26.666667%);stroke-opacity:1;stroke-miterlimit:10;" d="M 126.191406 26.980469 L 140.386719 57.4375 "/>
<path style="fill:none;stroke-width:1;stroke-linecap:butt;stroke-linejoin:miter;stroke:rgb(26.666667%,26.666667%,26.666667%);stroke-opacity:1;stroke-miterlimit:10;" d="M 126.191406 26.980469 L 163.367188 20 "/>
<path style="fill:none;stroke-width:1;stroke-linecap:butt;stroke-linejoin:miter;stroke:rgb(26.666667%,26.666667%,26.666667%);stroke-opacity:1;stroke-miterlimit:10;" d="M 135.789062 150.84375 L 161.359375 180 "/>
<path style="fill:none;stroke-width:1;stroke-linecap:butt;stroke-linejoin:miter;stroke:rgb(26.666667%,26.666667%,26.666667%);stroke-opacity:1;stroke-miterlimit:10;" d="M 140.386719 57.4375 L 159.621094 75.066406 "/>
<path style="fill:none;stroke-width:1;stroke-linecap:butt;stroke-linejoin:miter;stroke:rgb(26.666667%,26.666667%,26.666667%);stroke-opacity:1;stroke-miterlimit:10;" d="M 140.386719 57.4375 L 163.367188 20 "/>
<path style="fill:none;stroke-width:1;stroke-linecap:butt;stroke-linejoin:miter;stroke:rgb(26.666667%,26.666667%,26.666667%);stroke-opacity:1;stroke-miterlimit:10;" d="M 140.386719 57.4375 L 180 66.457031 "/>
<path style="fill:none;stroke-width:1;stroke-linecap:butt;stroke-linejoin:miter;stroke:rgb(26.666667%,26.666667%,26.666667%);stroke-opacity:1;stroke-miterlimit:10;" d="M 159.621094 75.066406 L 180 66.457031 "/>
<path style="fill:none;stroke-width:1;stroke-linecap:butt;stroke-linejoin:miter;stroke:rgb(26.666667%,26.666667%,26.666667%);stroke-opacity:1;stroke-miterlimit:10;" d="M 163.367188 20 L 180 66.457031 "/>
<path style="fill-rule:nonzero;fill:rgb(100%,0%,0%);fill-opacity:1;stroke-width:1;stroke-linecap:butt;stroke-linejoin:miter;stroke:rgb(0%,0%,0%);stroke-opacity:1;stroke-miterlimit:10;" d="M 30 54.695312 C 30 60.21875 25.523438 64.695312 20 64.695312 C 14.476562 64.695312 10 60.21875 10 54.695312 C 10 49.175781 14.476562 44.695312 20 44.695312 C 25.523438 44.695312 30 49.175781 30 54.695312 "/>
<path style="fill-rule:nonzero;fill:rgb(100%,0%,0%);fill-opacity:1;stroke-width:1;stroke-linecap:butt;stroke-linejoin:miter;stroke:rgb(0%,0%,0%);stroke-opacity:1;stroke-miterlimit:10;" d="M 30.371094 111.613281 C 30.371094 117.136719 25.890625 121.613281 20.371094 121.613281 C 14.847656 121.613281 10.371094 117.136719 10.371094 111.613281 C 10.371094 106.089844 14.847656 101.613281 20.371094 101.613281 C 25.890625 101.613281 30.371094 106.089844 30.371094 111.613281 "/>
<path style="fill-rule:nonzero;fill:rgb(100%,0%,0%);fill-opacity:1;stroke-width:1;stroke-linecap:butt;stroke-linejoin:miter;stroke:rgb(0%,0%,0%);stroke-opacity:1;stroke-miterlimit:10;" d="M 34.382812 116.800781 C 34.382812 122.324219 29.90625 126.800781 24.382812 126.800781 C 18.859375 126.800781 14.382812 122.324219 14.382812 116.800781 C 14.382812 111.277344 18.859375 106.800781 24.382812 106.800781 C 29.90625 106.800781 34.382812 111.277344 34.382812 116.800781 "/>
<path style="fill-rule:nonzero;fill:rgb(100%,0%,0%);fill-opacity:1;stroke-width:1;stroke-linecap:butt;stroke-linejoin:miter;stroke:rgb(0%,0%,0%);stroke-opacity:1;stroke-miterlimit:10;" d="M 48.410156 41.542969 C 48.410156 47.066406 43.933594 51.542969 38.410156 51.542969 C 32.886719 51.542969 28.410156 47.066406 28.410156 41.542969 C 28.410156 36.019531 32.886719 31.542969 38.410156 31.542969 C 43.933594 31.542969 48.410156 36.019531 48.410156 41.542969 "/>
<path style="fill-rule:nonzero;fill:rgb(100%,0%,0%);fill-opacity:1;stroke-width:1;stroke-linecap:butt;stroke-linejoin:miter;stroke:rgb(0%,0%,0%);stroke-opacity:1;stroke-miterlimit:10;" d="M 61.207031 80.273438 C 61.207031 85.796875 56.730469 90.273438 51.207031 90.273438 C 45.683594 90.273438 41.207031 85.796875 41.207031 80.273438 C 41.207031 74.75 45.683594 70.273438 51.207031 70.273438 C 56.730469 70.273438 61.207031 74.75 61.207031 80.273438 "/>
<path style="fill-rule:nonzero;fill:rgb(100%,0%,0%);fill-opacity:1;stroke-width:1;stroke-linecap:butt;stroke-linejoin:miter;stroke:rgb(0%,0%,0%);stroke-opacity:1;stroke-miterlimit:10;" d="M 66.191406 110.789062 C 66.191406 116.3125 61.714844 120.789062 56.191406 120.789062 C 50.671875 120.789062 46.191406 116.3125 46.191406 110.789062 C 46.191406 105.265625 50.671875 100.789062 56.191406 100.789062 C 61.714844 100.789062 66.191406 105.265625 66.191406 110.789062 "/>
<path style="fill-rule:nonzero;fill:rgb(100%,0%,0%);fill-opacity:1;stroke-width:1;stroke-linecap:butt;stroke-linejoin:miter;stroke:rgb(0%,0%,0%);stroke-opacity:1;stroke-miterlimit:10;" d="M 68.5 50.0625 C 68.5 55.585938 64.023438 60.0625 58.5 60.0625 C 52.976562 60.0625 48.5 55.585938 48.5 50.0625 C 48.5 44.539062 52.976562 40.0625 58.5 40.0625 C 64.023438 40.0625 68.5 44.539062 68.5 50.0625 "/>
<path style="fill-rule:nonzero;fill:rgb(100%,0%,0%);fill-opacity:1;stroke-width:1;stroke-linecap:butt;stroke-linejoin:miter;stroke:rgb(0%,0%,0%);stroke-opacity:1;stroke-miterlimit:10;" d="M 81.320312 127.960938 C 81.320312 133.484375 76.84375 137.960938 71.320312 137.960938 C 65.796875 137.960938 61.320312 133.484375 61.320312 127.960938 C 61.320312 122.4375 65.796875 117.960938 71.320312 117.960938 C 76.84375 117.960938 81.320312 122.4375 81.320312 127.960938 "/>
<path style="fill-rule:nonzero;fill:rgb(100%,0%,0%);fill-opacity:1;stroke-width:1;stroke-linecap:butt;stroke-linejoin:miter;stroke:rgb(0%,0%,0%);stroke-opacity:1;stroke-miterlimit:10;" d="M 100.332031 68.390625 C 100.332031 73.914062 95.855469 78.390625 90.332031 78.390625 C 84.8125 78.390625 80.332031 73.914062 80.332031 68.390625 C 80.332031 62.867188 84.8125 58.390625 90.332031 58.390625 C 95.855469 58.390625 100.332031 62.867188 100.332031 68.390625 "/>
<path style="fill-rule:nonzero;fill:rgb(100%,0%,0%);fill-opacity:1;stroke-width:1;stroke-linecap:butt;stroke-linejoin:miter;stroke:rgb(0%,0%,0%);stroke-opacity:1;stroke-miterlimit:10;" d="M 103.15625 108.238281 C 103.15625 113.761719 98.679688 118.238281 93.15625 118.238281 C 87.632812 118.238281 83.15625 113.761719 83.15625 108.238281 C 83.15625 102.714844 87.632812 98.238281 93.15625 98.238281 C 98.679688 98.238281 103.15625 102.714844 103.15625 108.238281 "/>
<path style="fill-rule:nonzero;fill:rgb(100%,0%,0%);fill-opacity:1;stroke-width:1;stroke-linecap:butt;stroke-linejoin:miter;stroke:rgb(0%,0%,0%);stroke-opacity:1;stroke-miterlimit:10;" d="M 113.527344 70.109375 C 113.527344 75.632812 109.050781 80.109375 103.527344 80.109375 C 98.003906 80.109375 93.527344 75.632812 93.527344 70.109375 C 93.527344 64.585938 98.003906 60.109375 103.527344 60.109375 C 109.050781 60.109375 113.527344 64.585938 113.527344 70.109375 "/>
<path style="fill-rule:nonzero;fill:rgb(100%,0%,0%);fill-opacity:1;stroke-width:1;stroke-linecap:butt;stroke-linejoin:miter;stroke:rgb(0%,0%,0%);stroke-opacity:1;stroke-miterlimit:10;" d="M 120.621094 178.839844 C 120.621094 184.363281 116.144531 188.839844 110.621094 188.839844 C 105.097656 188.839844 100.621094 184.363281 100.621094 178.839844 C 100.621094 173.320312 105.097656 168.839844 110.621094 168.839844 C 116.144531 168.839844 120.621094 173.320312 120.621094 178.839844 "/>
<path style="fill-rule:nonzero;fill:rgb(100%,0%,0%);fill-opacity:1;stroke-width:1;stroke-linecap:butt;stroke-linejoin:miter;stroke:rgb(0%,0%,0%);stroke-opacity:1;stroke-miterlimit:10;" d="M 126.507812 107.257812 C 126.507812 112.78125 122.03125 117.257812 116.507812 117.257812 C 110.988281 117.257812 106.507812 112.78125 106.507812 107.257812 C 106.507812 101.734375 110.988281 97.257812 116.507812 97.257812 C 122.03125 97.257812 126.507812 101.734375 126.507812 107.257812 "/>
<path style="fill-rule:nonzero;fill:rgb(100%,0%,0%);fill-opacity:1;stroke-width:1;stroke-linecap:butt;stroke-linejoin:miter;stroke:rgb(0%,0%,0%);stroke-opacity:1;stroke-miterlimit:10;" d="M 136.191406 26.980469 C 136.191406 32.503906 131.714844 36.980469 126.191406 36.980469 C 120.667969 36.980469 116.191406 32.503906 116.191406 26.980469 C 116.191406 21.457031 120.667969 16.980469 126.191406 16.980469 C 131.714844 16.980469 136.191406 21.457031 136.191406 26.980469 "/>
<path style="fill-rule:nonzero;fill:rgb(100%,0%,0%);fill-opacity:1;stroke-width:1;stroke-linecap:butt;stroke-linejoin:miter;stroke:rgb(0%,0%,0%);stroke-opacity:1;stroke-miterlimit:10;" d="M 145.789062 150.84375 C 145.789062 156.367188 141.3125 160.84375 135.789062 160.84375 C 130.265625 160.84375 125.789062 156.367188 125.789062 150.84375 C 125.789062 145.320312 130.265625 140.84375 135.789062 140.84375 C 141.3125 140.84375 145.789062 145.320312 145.789062 150.84375 "/>
<path style="fill-rule:nonzero;fill:rgb(100%,0%,0%);fill-opacity:1;stroke-width:1;stroke-linecap:butt;stroke-linejoin:miter;stroke:rgb(0%,0%,0%);stroke-opacity:1;stroke-miterlimit:10;" d="M 150.386719 57.4375 C 150.386719 62.960938 145.910156 67.4375 140.386719 67.4375 C 134.863281 67.4375 130.386719 62.960938 130.386719 57.4375 C 130.386719 51.917969 134.863281 47.4375 140.386719 47.4375 C 145.910156 47.4375 150.386719 51.917969 150.386719 57.4375 "/>
<path style="fill-rule:nonzero;fill:rgb(100%,0%,0%);fill-opacity:1;stroke-width:1;stroke-linecap:butt;stroke-linejoin:miter;stroke:rgb(0%,0%,0%);stroke-opacity:1;stroke-miterlimit:10;" d="M 169.621094 75.066406 C 169.621094 80.589844 165.144531 85.066406 159.621094 85.066406 C 154.097656 85.066406 149.621094 80.589844 149.621094 75.066406 C 149.621094 69.542969 154.097656 65.066406 159.621094 65.066406 C 165.144531 65.066406 169.621094 69.542969 169.621094 75.066406 "/>
<path style="fill-rule:nonzero;fill:rgb(100%,0%,0%);fill-opacity:1;stroke-width:1;stroke-linecap:butt;stroke-linejoin:miter;stroke:rgb(0%,0%,0%);stroke-opacity:1;stroke-miterlimit:10;" d="M 171.359375 180 C 171.359375 185.523438 166.882812 190 161.359375 190 C 155.835938 190 151.359375 185.523438 151.359375 180 C 151.359375 174.476562 155.835938 170 161.359375 170 C 166.882812 170 171.359375 174.476562 171.359375 180 "/>
<path style="fill-rule:nonzero;fill:rgb(100%,0%,0%);fill-opacity:1;stroke-width:1;stroke-linecap:butt;stroke-linejoin:miter;stroke:rgb(0%,0%,0%);stroke-opacity:1;stroke-miterlimit:10;" d="M 173.367188 20 C 173.367188 25.523438 168.890625 30 163.367188 30 C 157.84375 30 153.367188 25.523438 153.367188 20 C 153.367188 14.476562 157.84375 10 163.367188 10 C 168.890625 10 173.367188 14.476562 173.367188 20 "/>
<path style="fill-rule:nonzero;fill:rgb(100%,0%,0%);fill-opacity:1;stroke-width:1;stroke-linecap:butt;stroke-linejoin:miter;stroke:rgb(0%,0%,0%);stroke-opacity:1;stroke-miterlimit:10;" d="M 190 66.457031 C 190 71.980469 185.523438 76.457031 180 76.457031 C 174.476562 76.457031 170 71.980469 170 66.457031 C 170 60.933594 174.476562 56.457031 180 56.457031 C 185.523438 56.457031 190 60.933594 190 66.457031 "/>
</g>
</svg>
