<?xml version="1.0" encoding="UTF-8"?>
<svg xmlns="http://www.w3.org/2000/svg" xmlns:xlink="http://www.w3.org/1999/xlink" width="200pt" height="200pt" viewBox="0 0 200 200" version="1.1">
<g id="surface8">
<rect x="0" y="0" width="200" height="200" style="fill:rgb(100%,100%,100%);fill-opacity:1;stroke:none;"/>
<path style="fill:none;stroke-width:1;stroke-linecap:butt;stroke-linejoin:miter;stroke:rgb(26.666667%,26.666667%,26.666667%);stroke-opacity:1;stroke-miterlimit:10;" d="M 20 104.027344 L 24.699219 135.335938 "/>
<path style="fill:none;stroke-width:1;stroke-linecap:butt;stroke-linejoin:miter;stroke:rgb(26.666667%,26.666667%,26.666667%);stroke-opacity:1;stroke-miterlimit:10;" d="M 20 104.027344 L 25.0625 90.503906 "/>
<path style="fill:none;stroke-width:1;stroke-linecap:butt;stroke-linejoin:miter;stroke:rgb(26.666667%,26.666667%,26.666667%);stroke-opacity:1;stroke-miterlimit:10;" d="M 20 104.027344 L 58.644531 123.5 "/>
<path style="fill:none;stroke-width:1;stroke-linecap:butt;stroke-linejoin:miter;stroke:rgb(26.666667%,26.666667%,26.666667%);stroke-opacity:1;stroke-miterlimit:10;" d="M 24.699219 135.335938 L 25.0625 90.503906 "/>
<path style="fill:none;stroke-width:1;stroke-linecap:butt;stroke-linejoin:miter;stroke:rgb(26.666667%,26.666667%,26.666667%);stroke-opacity:1;stroke-miterlimit:10;" d="M 24.699219 135.335938 L 25.078125 159.839844 "/>
<path style="fill:none;stroke-width:1;stroke-linecap:butt;stroke-linejoin:miter;stroke:rgb(26.666667%,26.666667%,26.666667%);stroke-opacity:1;stroke-miterlimit:10;" d="M 24.699219 135.335938 L 39.035156 151.6875 "/>
<path style="fill:none;stroke-width:1;stroke-linecap:butt;stroke-linejoin:miter;stroke:rgb(26.666667%,26.666667%,26.666667%);stroke-opacity:1;stroke-miterlimit:10;" d="M 24.699219 135.335938 L 58.644531 123.5 "/>
<path style="fill:none;stroke-width:1;stroke-linecap:butt;stroke-linejoin:miter;stroke:rgb(26.666667%,26.666667%,26.666667%);stroke-opacity:1;stroke-miterlimit:10;" d="M 25.0625 90.503906 L 58.644531 123.5 "/>
<path style="fill:none;stroke-width:1;stroke-linecap:butt;stroke-linejoin:miter;stroke:rgb(26.666667%,26.666667%,26.666667%);stroke-opacity:1;stroke-miterlimit:10;" d="M 25.078125 159.839844 L 39.035156 151.6875 "/>
<path style="fill:none;stroke-width:1;stroke-linecap:butt;stroke-linejoin:miter;stroke:rgb(26.666667%,26.666667%,26.666667%);stroke-opacity:1;stroke-miterlimit:10;" d="M 25.078125 159.839844 L 58.644531 123.5 "/>
<path style="fill:none;stroke-width:1;stroke-linecap:butt;stroke-linejoin:miter;stroke:rgb(26.666667%,26.666667%,26.666667%);stroke-opacity:1;stroke-miterlimit:10;" d="M 25.078125 159.839844 L 65.734375 180 "/>
<path style="fill:none;stroke-width:1;stroke-linecap:butt;stroke-linejoin:miter;stroke:rgb(26.666667%,26.666667%,26.666667%);stroke-opacity:1;stroke-miterlimit:10;" d="M 39.035156 151.6875 L 58.644531 123.5 "/>
<path style="fill:none;stroke-width:1;stroke-linecap:butt;stroke-linejoin:miter;stroke:rgb(26.666667%,26.666667%,26.666667%);stroke-opacity:1;stroke-miterlimit:10;" d="M 39.035156 151.6875 L 65.734375 180 "/>
<path style="fill:none;stroke-width:1;stroke-linecap:butt;stroke-linejoin:miter;stroke:rgb(26.666667%,26.666667%,26.666667%);stroke-opacity:1;stroke-miterlimit:10;" d="M 39.035156 151.6875 L 80.144531 132.523438 "/>
<path style="fill:none;stroke-width:1;stroke-linecap:butt;stroke-linejoin:miter;stroke:rgb(26.666667%,26.666667%,26.666667%);stroke-opacity:1;stroke-miterlimit:10;" d="M 58.644531 123.5 L 80.144531 132.523438 "/>
<path style="fill:none;stroke-width:1;stroke-linecap:butt;stroke-linejoin:miter;stroke:rgb(26.666667%,26.666667%,26.666667%);stroke-opacity:1;stroke-miterlimit:10;" d="M 58.644531 123.5 L 82.957031 82.097656 "/>
<path style="fill:none;stroke-width:1;stroke-linecap:butt;stroke-linejoin:miter;stroke:rgb(26.666667%,26.666667%,26.666667%);stroke-opacity:1;stroke-miterlimit:10;" d="M 58.644531 123.5 L 85.917969 125.585938 "/>
<path style="fill:none;stroke-width:1;stroke-linecap:butt;stroke-linejoin:miter;stroke:rgb(26.666667%,26.666667%,26.666667%);stroke-opacity:1;stroke-miterlimit:10;" d="M 58.644531 123.5 L 86.527344 101.660156 "/>
<path style="fill:none;stroke-width:1;stroke-linecap:butt;stroke-linejoin:miter;stroke:rgb(26.666667%,26.666667%,26.666667%);stroke-opacity:1;stroke-miterlimit:10;" d="M 58.644531 123.5 L 95.703125 107.847656 "/>
<path style="fill:none;stroke-width:1;stroke-linecap:butt;stroke-linejoin:miter;stroke:rgb(26.666667%,26.666667%,26.666667%);stroke-opacity:1;stroke-miterlimit:10;" d="M 65.734375 180 L 80.144531 132.523438 "/>
<path style="fill:none;stroke-width:1;stroke-linecap:butt;stroke-linejoin:miter;stroke:rgb(26.666667%,26.666667%,26.666667%);stroke-opacity:1;stroke-miterlimit:10;" d="M 80.144531 132.523438 L 85.917969 125.585938 "/>
<path style="fill:none;stroke-width:1;stroke-linecap:butt;stroke-linejoin:miter;stroke:rgb(26.666667%,26.666667%,26.666667%);stroke-opacity:1;stroke-miterlimit:10;" d="M 80.144531 132.523438 L 86.527344 101.660156 "/>
<path style="fill:none;stroke-width:1;stroke-linecap:butt;stroke-linejoin:miter;stroke:rgb(26.666667%,26.666667%,26.666667%);stroke-opacity:1;stroke-miterlimit:10;" d="M 80.144531 132.523438 L 95.703125 107.847656 "/>
<path style="fill:none;stroke-width:1;stroke-linecap:butt;stroke-linejoin:miter;stroke:rgb(26.666667%,26.666667%,26.666667%);stroke-opacity:1;stroke-miterlimit:10;" d="M 80.144531 132.523438 L 120.238281 156.398438 "/>
<path style="fill:none;stroke-width:1;stroke-linecap:butt;stroke-linejoin:miter;stroke:rgb(26.666667%,26.666667%,26.666667%);stroke-opacity:1;stroke-miterlimit:10;" d="M 82.957031 82.097656 L 85.917969 125.585938 "/>
<path style="fill:none;stroke-width:1;stroke-linecap:butt;stroke-linejoin:miter;stroke:rgb(26.666667%,26.666667%,26.666667%);stroke-opacity:1;stroke-miterlimit:10;" d="M 82.957031 82.097656 L 86.527344 101.660156 "/>
<path style="fill:none;stroke-width:1;stroke-linecap:butt;stroke-linejoin:miter;stroke:rgb(26.666667%,26.666667%,26.666667%);stroke-opacity:1;stroke-miterlimit:10;" d="M 82.957031 82.097656 L 95.703125 107.847656 "/>
<path style="fill:none;stroke-width:1;stroke-linecap:butt;stroke-linejoin:miter;stroke:rgb(26.666667%,26.666667%,26.666667%);stroke-opacity:1;stroke-miterlimit:10;" d="M 85.917969 125.585938 L 86.527344 101.660156 "/>
<path style="fill:none;stroke-width:1;stroke-linecap:butt;stroke-linejoin:miter;stroke:rgb(26.666667%,26.666667%,26.666667%);stroke-opacity:1;stroke-miterlimit:10;" d="M 85.917969 125.585938 L 95.703125 107.847656 "/>
<path style="fill:none;stroke-width:1;stroke-linecap:butt;stroke-linejoin:miter;stroke:rgb(26.666667%,26.666667%,26.666667%);stroke-opacity:1;stroke-miterlimit:10;" d="M 85.917969 125.585938 L 120.238281 156.398438 "/>
<path style="fill:none;stroke-width:1;stroke-linecap:butt;stroke-linejoin:miter;stroke:rgb(26.666667%,26.666667%,26.666667%);stroke-opacity:1;stroke-miterlimit:10;" d="M 86.527344 101.660156 L 95.703125 107.847656 "/>
<path style="fill:none;stroke-width:1;stroke-linecap:butt;stroke-linejoin:miter;stroke:rgb(26.666667%,26.666667%,26.666667%);stroke-opacity:1;stroke-miterlimit:10;" d="M 95.703125 107.847656 L 136.957031 132.339844 "/>
<path style="fill:none;stroke-width:1;stroke-linecap:butt;stroke-linejoin:miter;stroke:rgb(26.666667%,26.666667%,26.666667%);stroke-opacity:1;stroke-miterlimit:10;" d="M 120.238281 156.398438 L 136.957031 132.339844 "/>
<path style="fill:none;stroke-width:1;stroke-linecap:butt;stroke-linejoin:miter;stroke:rgb(26.666667%,26.666667%,26.666667%);stroke-opacity:1;stroke-miterlimit:10;" d="M 121.253906 44.652344 L 129.648438 20 "/>
<path style="fill:none;stroke-width:1;stroke-linecap:butt;stroke-linejoin:miter;stroke:rgb(26.666667%,26.666667%,26.666667%);stroke-opacity:1;stroke-miterlimit:10;" d="M 121.253906 44.652344 L 168.363281 55.410156 "/>
<path style="fill:none;stroke-width:1;stroke-linecap:butt;stroke-linejoin:miter;stroke:rgb(26.666667%,26.666667%,26.666667%);stroke-opacity:1;stroke-miterlimit:10;" d="M 136.957031 132.339844 L 162.277344 97.542969 "/>
<path style="fill:none;stroke-width:1;stroke-linecap:butt;stroke-linejoin:miter;stroke:rgb(26.666667%,26.666667%,26.666667%);stroke-opacity:1;stroke-miterlimit:10;" d="M 162.277344 97.542969 L 168.363281 55.410156 "/>
<path style="fill:none;stroke-width:1;stroke-linecap:butt;stroke-linejoin:miter;stroke:rgb(26.666667%,26.666667%,26.666667%);stroke-opacity:1;stroke-miterlimit:10;" d="M 162.277344 97.542969 L 180 72.425781 "/>
<path style="fill:none;stroke-width:1;stroke-linecap:butt;stroke-linejoin:miter;stroke:rgb(26.666667%,26.666667%,26.666667%);stroke-opacity:1;stroke-miterlimit:10;" d="M 168.363281 55.410156 L 180 72.425781 "/>
<path style="fill-rule:nonzero;fill:rgb(100%,0%,0%);fill-opacity:1;stroke-width:1;stroke-linecap:butt;stroke-linejoin:miter;stroke:rgb(0%,0%,0%);stroke-opacity:1;stroke-miterlimit:10;" d="M 30 104.027344 C 30 109.550781 25.523438 114.027344 20 114.027344 C 14.476562 114.027344 10 109.550781 10 104.027344 C 10 98.503906 14.476562 94.027344 20 94.027344 C 25.523438 94.027344 30 98.503906 30 104.027344 "/>
<path style="fill-rule:nonzero;fill:rgb(100%,0%,0%);fill-opacity:1;stroke-width:1;stroke-linecap:butt;stroke-linejoin:miter;stroke:rgb(0%,0%,0%);stroke-opacity:1;stroke-miterlimit:10;" d="M 34.699219 135.335938 C 34.699219 140.859375 30.222656 145.335938 24.699219 145.335938 C 19.175781 145.335938 14.699219 140.859375 14.699219 135.335938 C 14.699219 129.8125 19.175781 125.335938 24.699219 125.335938 C 30.222656 125.335938 34.699219 129.8125 34.699219 135.335938 "/>
<path style="fill-rule:nonzero;fill:rgb(100%,0%,0%);fill-opacity:1;stroke-width:1;stroke-linecap:butt;stroke-linejoin:miter;stroke:rgb(0%,0%,0%);stroke-opacity:1;stroke-miterlimit:10;" d="M 35.0625 90.503906 C 35.0625 96.027344 30.582031 100.503906 25.0625 100.503906 C 19.539062 100.503906 15.0625 96.027344 15.0625 90.503906 C 15.0625 84.980469 19.539062 80.503906 25.0625 80.503906 C 30.582031 80.503906 35.0625 84.980469 35.0625 90.503906 "/>
<path style="fill-rule:nonzero;fill:rgb(100%,0%,0%);fill-opacity:1;stroke-width:1;stroke-linecap:butt;stroke-linejoin:miter;stroke:rgb(0%,0%,0%);stroke-opacity:1;stroke-miterlimit:10;" d="M 35.078125 159.839844 C 35.078125 165.363281 30.601562 169.839844 25.078125 169.839844 C 19.554688 169.839844 15.078125 165.363281 15.078125 159.839844 C 15.078125 154.316406 19.554688 149.839844 25.078125 149.839844 C 30.601562 149.839844 35.078125 154.316406 35.078125 159.839844 "/>
<path style="fill-rule:nonzero;fill:rgb(100%,0%,0%);fill-opacity:1;stroke-width:1;stroke-linecap:butt;stroke-linejoin:miter;stroke:rgb(0%,0%,0%);stroke-opacity:1;stroke-miterlimit:10;" d="M 49.035156 151.6875 C 49.035156 157.210938 44.558594 161.6875 39.035156 161.6875 C 33.511719 161.6875 29.035156 157.210938 29.035156 151.6875 C 29.035156 146.164062 33.511719 141.6875 39.035156 141.6875 C 44.558594 141.6875 49.035156 146.164062 49.035156 151.6875 "/>
<path style="fill-rule:nonzero;fill:rgb(100%,0%,0%);fill-opacity:1;stroke-width:1;stroke-linecap:butt;stroke-linejoin:miter;stroke:rgb(0%,0%,0%);stroke-opacity:1;stroke-miterlimit:10;" d="M 51.738281 26.410156 C 51.738281 31.933594 47.261719 36.410156 41.738281 36.410156 C 36.214844 36.410156 31.738281 31.933594 31.738281 26.410156 C 31.738281 20.886719 36.214844 16.410156 41.738281 16.410156 C 47.261719 16.410156 51.738281 20.886719 51.738281 26.410156 "/>
<path style="fill-rule:nonzero;fill:rgb(100%,0%,0%);fill-opacity:1;stroke-width:1;stroke-linecap:butt;stroke-linejoin:miter;stroke:rgb(0%,0%,0%);stroke-opacity:1;stroke-miterlimit:10;" d="M 68.644531 123.5 C 68.644531 129.023438 64.164062 133.5 58.644531 133.5 C 53.121094 133.5 48.644531 129.023438 48.644531 123.5 C 48.644531 117.980469 53.121094 113.5 58.644531 113.5 C 64.164062 113.5 68.644531 117.980469 68.644531 123.5 "/>
<path style="fill-rule:nonzero;fill:rgb(100%,0%,0%);fill-opacity:1;stroke-width:1;stroke-linecap:butt;stroke-linejoin:miter;stroke:rgb(0%,0%,0%);stroke-opacity:1;stroke-miterlimit:10;" d="M 75.734375 180 C 75.734375 185.523438 71.257812 190 65.734375 190 C 60.210938 190 55.734375 185.523438 55.734375 180 C 55.734375 174.476562 60.210938 170 65.734375 170 C 71.257812 170 75.734375 174.476562 75.734375 180 "/>
<path style="fill-rule:nonzero;fill:rgb(100%,0%,0%);fill-opacity:1;stroke-width:1;stroke-linecap:butt;stroke-linejoin:miter;stroke:rgb(0%,0%,0%);stroke-opacity:1;stroke-miterlimit:10;" d="M 90.144531 132.523438 C 90.144531 138.046875 85.667969 142.523438 80.144531 142.523438 C 74.621094 142.523438 70.144531 138.046875 70.144531 132.523438 C 70.144531 127 74.621094 122.523438 80.144531 122.523438 C 85.667969 122.523438 90.144531 127 90.144531 132.523438 "/>
<path style="fill-rule:nonzero;fill:rgb(100%,0%,0%);fill-opacity:1;stroke-width:1;stroke-linecap:butt;stroke-linejoin:miter;stroke:rgb(0%,0%,0%);stroke-opacity:1;stroke-miterlimit:10;" d="M 92.957031 82.097656 C 92.957031 87.621094 88.480469 92.097656 82.957031 92.097656 C 77.433594 92.097656 72.957031 87.621094 72.957031 82.097656 C 72.957031 76.574219 77.433594 72.097656 82.957031 72.097656 C 88.480469 72.097656 92.957031 76.574219 92.957031 82.097656 "/>
<path style="fill-rule:nonzero;fill:rgb(100%,0%,0%);fill-opacity:1;stroke-width:1;stroke-linecap:butt;stroke-linejoin:miter;stroke:rgb(0%,0%,0%);stroke-opacity:1;stroke-miterlimit:10;" d="M 95.917969 125.585938 C 95.917969 131.109375 91.441406 135.585938 85.917969 135.585938 C 80.394531 135.585938 75.917969 131.109375 75.917969 125.585938 C 75.917969 120.066406 80.394531 115.585938 85.917969 115.585938 C 91.441406 115.585938 95.917969 120.066406 95.917969 125.585938 "/>
<path style="fill-rule:nonzero;fill:rgb(100%,0%,0%);fill-opacity:1;stroke-width:1;stroke-linecap:butt;stroke-linejoin:miter;stroke:rgb(0%,0%,0%);stroke-opacity:1;stroke-miterlimit:10;" d="M 96.527344 101.660156 C 96.527344 107.183594 92.050781 111.660156 86.527344 111.660156 C 81.003906 111.660156 76.527344 107.183594 76.527344 101.660156 C 76.527344 96.136719 81.003906 91.660156 86.527344 91.660156 C 92.050781 91.660156 96.527344 96.136719 96.527344 101.660156 "/>
<path style="fill-rule:nonzero;fill:rgb(100%,0%,0%);fill-opacity:1;stroke-width:1;stroke-linecap:butt;stroke-linejoin:miter;stroke:rgb(0%,0%,0%);stroke-opacity:1;stroke-miterlimit:10;" d="M 105.703125 107.847656 C 105.703125 113.371094 101.226562 117.847656 95.703125 117.847656 C 90.179688 117.847656 85.703125 113.371094 85.703125 107.847656 C 85.703125 102.324219 90.179688 97.847656 95.703125 97.847656 C 101.226562 97.847656 105.703125 102.324219 105.703125 107.847656 "/>
<path style="fill-rule:nonzero;fill:rgb(100%,0%,0%);fill-opacity:1;stroke-width:1;stroke-linecap:butt;stroke-linejoin:miter;stroke:rgb(0%,0%,0%);stroke-opacity:1;stroke-miterlimit:10;" d="M 130.238281 156.398438 C 130.238281 161.921875 125.761719 166.398438 120.238281 166.398438 C 114.714844 166.398438 110.238281 161.921875 110.238281 156.398438 C 110.238281 150.875 114.714844 146.398438 120.238281 146.398438 C 125.761719 146.398438 130.238281 150.875 130.238281 156.398438 "/>
<path style="fill-rule:nonzero;fill:rgb(100%,0%,0%);fill-opacity:1;stroke-width:1;stroke-linecap:butt;stroke-linejoin:miter;stroke:rgb(0%,0%,0%);stroke-opacity:1;stroke-miterlimit:10;" d="M 131.253906 44.652344 C 131.253906 50.175781 126.777344 54.652344 121.253906 54.652344 C 115.730469 54.652344 111.253906 50.175781 111.253906 44.652344 C 111.253906 39.128906 115.730469 34.652344 121.253906 34.652344 C 126.777344 34.652344 131.253906 39.128906 131.253906 44.652344 "/>
<path style="fill-rule:nonzero;fill:rgb(100%,0%,0%);fill-opacity:1;stroke-width:1;stroke-linecap:butt;stroke-linejoin:miter;stroke:rgb(0%,0%,0%);stroke-opacity:1;stroke-miterlimit:10;" d="M 139.648438 20 C 139.648438 25.523438 135.171875 30 129.648438 30 C 124.125 30 119.648438 25.523438 119.648438 20 C 119.648438 14.476562 124.125 10 129.648438 10 C 135.171875 10 139.648438 14.476562 139.648438 20 "/>
<path style="fill-rule:nonzero;fill:rgb(100%,0%,0%);fill-opacity:1;stroke-width:1;stroke-linecap:butt;stroke-linejoin:miter;stroke:rgb(0%,0%,0%);stroke-opacity:1;stroke-miterlimit:10;" d="M 146.957031 132.339844 C 146.957031 137.863281 142.480469 142.339844 136.957031 142.339844 C 131.433594 142.339844 126.957031 137.863281 126.957031 132.339844 C 126.957031 126.816406 131.433594 122.339844 136.957031 122.339844 C 142.480469 122.339844 146.957031 126.816406 146.957031 132.339844 "/>
<path style="fill-rule:nonzero;fill:rgb(100%,0%,0%);fill-opacity:1;stroke-width:1;stroke-linecap:butt;stroke-linejoin:miter;stroke:rgb(0%,0%,0%);stroke-opacity:1;stroke-miterlimit:10;" d="M 172.277344 97.542969 C 172.277344 103.066406 167.800781 107.542969 162.277344 107.542969 C 156.753906 107.542969 152.277344 103.066406 152.277344 97.542969 C 152.277344 92.019531 156.753906 87.542969 162.277344 87.542969 C 167.800781 87.542969 172.277344 92.019531 172.277344 97.542969 "/>
<path style="fill-rule:nonzero;fill:rgb(100%,0%,0%);fill-opacity:1;stroke-width:1;stroke-linecap:butt;stroke-linejoin:miter;stroke:rgb(0%,0%,0%);stroke-opacity:1;stroke-miterlimit:10;" d="M 178.363281 55.410156 C 178.363281 60.929688 173.886719 65.410156 168.363281 65.410156 C 162.839844 65.410156 158.363281 60.929688 158.363281 55.410156 C 158.363281 49.886719 162.839844 45.410156 168.363281 45.410156 C 173.886719 45.410156 178.363281 49.886719 178.363281 55.410156 "/>
<path style="fill-rule:nonzero;fill:rgb(100%,0%,0%);fill-opacity:1;stroke-width:1;stroke-linecap:butt;stroke-linejoin:miter;stroke:rgb(0%,0%,0%);stroke-opacity:1;stroke-miterlimit:10;" d="M 190 72.425781 C 190 77.949219 185.523438 82.425781 180 82.425781 C 174.476562 82.425781 170 77.949219 170 72.425781 C 170 66.902344 174.476562 62.425781 180 62.425781 C 185.523438 62.425781 190 66.902344 190 72.425781 "/>
</g>
</svg>
