<?xml version="1.0" encoding="UTF-8"?>
<svg xmlns="http://www.w3.org/2000/svg" xmlns:xlink="http://www.w3.org/1999/xlink" width="200pt" height="200pt" viewBox="0 0 200 200" version="1.1">
<g id="surface8">
<rect x="0" y="0" width="200" height="200" style="fill:rgb(100%,100%,100%);fill-opacity:1;stroke:none;"/>
<path style="fill:none;stroke-width:1;stroke-linecap:butt;stroke-linejoin:miter;stroke:rgb(26.666667%,26.666667%,26.666667%);stroke-opacity:1;stroke-miterlimit:10;" d="M 20 52.398438 L 34.121094 20 "/>
<path style="fill:none;stroke-width:1;stroke-linecap:butt;stroke-linejoin:miter;stroke:rgb(26.666667%,26.666667%,26.666667%);stroke-opacity:1;stroke-miterlimit:10;" d="M 22.027344 177.324219 L 42.0625 167.460938 "/>
<path style="fill:none;stroke-width:1;stroke-linecap:butt;stroke-linejoin:miter;stroke:rgb(26.666667%,26.666667%,26.666667%);stroke-opacity:1;stroke-miterlimit:10;" d="M 22.027344 177.324219 L 42.933594 157.371094 "/>
<path style="fill:none;stroke-width:1;stroke-linecap:butt;stroke-linejoin:miter;stroke:rgb(26.666667%,26.666667%,26.666667%);stroke-opacity:1;stroke-miterlimit:10;" d="M 22.027344 177.324219 L 60.71875 180 "/>
<path style="fill:none;stroke-width:1;stroke-linecap:butt;stroke-linejoin:miter;stroke:rgb(26.666667%,26.666667%,26.666667%);stroke-opacity:1;stroke-miterlimit:10;" d="M 34.121094 20 L 73.5625 39.125 "/>
<path style="fill:none;stroke-width:1;stroke-linecap:butt;stroke-linejoin:miter;stroke:rgb(26.666667%,26.666667%,26.666667%);stroke-opacity:1;stroke-miterlimit:10;" d="M 42.0625 167.460938 L 42.933594 157.371094 "/>
<path style="fill:none;stroke-width:1;stroke-linecap:butt;stroke-linejoin:miter;stroke:rgb(26.666667%,26.666667%,26.666667%);stroke-opacity:1;stroke-miterlimit:10;" d="M 42.0625 167.460938 L 60.71875 180 "/>
<path style="fill:none;stroke-width:1;stroke-linecap:butt;stroke-linejoin:miter;stroke:rgb(26.666667%,26.666667%,26.666667%);stroke-opacity:1;stroke-miterlimit:10;" d="M 42.0625 167.460938 L 64.101562 144.140625 "/>
<path style="fill:none;stroke-width:1;stroke-linecap:butt;stroke-linejoin:miter;stroke:rgb(26.666667%,26.666667%,26.666667%);stroke-opacity:1;stroke-miterlimit:10;" d="M 42.0625 167.460938 L 82.667969 172.820312 "/>
<path style="fill:none;stroke-width:1;stroke-linecap:butt;stroke-linejoin:miter;stroke:rgb(26.666667%,26.666667%,26.666667%);stroke-opacity:1;stroke-miterlimit:10;" d="M 42.933594 157.371094 L 60.71875 180 "/>
<path style="fill:none;stroke-width:1;stroke-linecap:butt;stroke-linejoin:miter;stroke:rgb(26.666667%,26.666667%,26.666667%);stroke-opacity:1;stroke-miterlimit:10;" d="M 42.933594 157.371094 L 64.101562 144.140625 "/>
<path style="fill:none;stroke-width:1;stroke-linecap:butt;stroke-linejoin:miter;stroke:rgb(26.666667%,26.666667%,26.666667%);stroke-opacity:1;stroke-miterlimit:10;" d="M 42.933594 157.371094 L 82.667969 172.820312 "/>
<path style="fill:none;stroke-width:1;stroke-linecap:butt;stroke-linejoin:miter;stroke:rgb(26.666667%,26.666667%,26.666667%);stroke-opacity:1;stroke-miterlimit:10;" d="M 54.410156 107.148438 L 54.957031 97.785156 "/>
<path style="fill:none;stroke-width:1;stroke-linecap:butt;stroke-linejoin:miter;stroke:rgb(26.666667%,26.666667%,26.666667%);stroke-opacity:1;stroke-miterlimit:10;" d="M 54.410156 107.148438 L 56.878906 102.878906 "/>
<path style="fill:none;stroke-width:1;stroke-linecap:butt;stroke-linejoin:miter;stroke:rgb(26.666667%,26.666667%,26.666667%);stroke-opacity:1;stroke-miterlimit:10;" d="M 54.410156 107.148438 L 60.417969 87.273438 "/>
<path style="fill:none;stroke-width:1;stroke-linecap:butt;stroke-linejoin:miter;stroke:rgb(26.666667%,26.666667%,26.666667%);stroke-opacity:1;stroke-miterlimit:10;" d="M 54.410156 107.148438 L 64.101562 144.140625 "/>
<path style="fill:none;stroke-width:1;stroke-linecap:butt;stroke-linejoin:miter;stroke:rgb(26.666667%,26.666667%,26.666667%);stroke-opacity:1;stroke-miterlimit:10;" d="M 54.410156 107.148438 L 91.921875 135.566406 "/>
<path style="fill:none;stroke-width:1;stroke-linecap:butt;stroke-linejoin:miter;stroke:rgb(26.666667%,26.666667%,26.666667%);stroke-opacity:1;stroke-miterlimit:10;" d="M 54.957031 97.785156 L 56.878906 102.878906 "/>
<path style="fill:none;stroke-width:1;stroke-linecap:butt;stroke-linejoin:miter;stroke:rgb(26.666667%,26.666667%,26.666667%);stroke-opacity:1;stroke-miterlimit:10;" d="M 54.957031 97.785156 L 60.417969 87.273438 "/>
<path style="fill:none;stroke-width:1;stroke-linecap:butt;stroke-linejoin:miter;stroke:rgb(26.666667%,26.666667%,26.666667%);stroke-opacity:1;stroke-miterlimit:10;" d="M 54.957031 97.785156 L 64.101562 144.140625 "/>
<path style="fill:none;stroke-width:1;stroke-linecap:butt;stroke-linejoin:miter;stroke:rgb(26.666667%,26.666667%,26.666667%);stroke-opacity:1;stroke-miterlimit:10;" d="M 56.878906 102.878906 L 60.417969 87.273438 "/>
<path style="fill:none;stroke-width:1;stroke-linecap:butt;stroke-linejoin:miter;stroke:rgb(26.666667%,26.666667%,26.666667%);stroke-opacity:1;stroke-miterlimit:10;" d="M 56.878906 102.878906 L 64.101562 144.140625 "/>
<path style="fill:none;stroke-width:1;stroke-linecap:butt;stroke-linejoin:miter;stroke:rgb(26.666667%,26.666667%,26.666667%);stroke-opacity:1;stroke-miterlimit:10;" d="M 56.878906 102.878906 L 91.921875 135.566406 "/>
<path style="fill:none;stroke-width:1;stroke-linecap:butt;stroke-linejoin:miter;stroke:rgb(26.666667%,26.666667%,26.666667%);stroke-opacity:1;stroke-miterlimit:10;" d="M 60.417969 87.273438 L 73.5625 39.125 "/>
<path style="fill:none;stroke-width:1;stroke-linecap:butt;stroke-linejoin:miter;stroke:rgb(26.666667%,26.666667%,26.666667%);stroke-opacity:1;stroke-miterlimit:10;" d="M 60.71875 180 L 64.101562 144.140625 "/>
<path style="fill:none;stroke-width:1;stroke-linecap:butt;stroke-linejoin:miter;stroke:rgb(26.666667%,26.666667%,26.666667%);stroke-opacity:1;stroke-miterlimit:10;" d="M 60.71875 180 L 82.667969 172.820312 "/>
<path style="fill:none;stroke-width:1;stroke-linecap:butt;stroke-linejoin:miter;stroke:rgb(26.666667%,26.666667%,26.666667%);stroke-opacity:1;stroke-miterlimit:10;" d="M 64.101562 144.140625 L 82.667969 172.820312 "/>
<path style="fill:none;stroke-width:1;stroke-linecap:butt;stroke-linejoin:miter;stroke:rgb(26.666667%,26.666667%,26.666667%);stroke-opacity:1;stroke-miterlimit:10;" d="M 64.101562 144.140625 L 91.921875 135.566406 "/>
<path style="fill:none;stroke-width:1;stroke-linecap:butt;stroke-linejoin:miter;stroke:rgb(26.666667%,26.666667%,26.666667%);stroke-opacity:1;stroke-miterlimit:10;" d="M 73.5625 39.125 L 107.195312 50.304688 "/>
<path style="fill:none;stroke-width:1;stroke-linecap:butt;stroke-linejoin:miter;stroke:rgb(26.666667%,26.666667%,26.666667%);stroke-opacity:1;stroke-miterlimit:10;" d="M 82.667969 172.820312 L 91.921875 135.566406 "/>
<path style="fill:none;stroke-width:1;stroke-linecap:butt;stroke-linejoin:miter;stroke:rgb(26.666667%,26.666667%,26.666667%);stroke-opacity:1;stroke-miterlimit:10;" d="M 107.195312 50.304688 L 152.109375 35.871094 "/>
<path style="fill:none;stroke-width:1;stroke-linecap:butt;stroke-linejoin:miter;stroke:rgb(26.666667%,26.666667%,26.666667%);stroke-opacity:1;stroke-miterlimit:10;" d="M 152.109375 35.871094 L 157.207031 86.464844 "/>
<path style="fill:none;stroke-width:1;stroke-linecap:butt;stroke-linejoin:miter;stroke:rgb(26.666667%,26.666667%,26.666667%);stroke-opacity:1;stroke-miterlimit:10;" d="M 152.109375 35.871094 L 172.371094 24.203125 "/>
<path style="fill:none;stroke-width:1;stroke-linecap:butt;stroke-linejoin:miter;stroke:rgb(26.666667%,26.666667%,26.666667%);stroke-opacity:1;stroke-miterlimit:10;" d="M 152.109375 35.871094 L 180 33.628906 "/>
<path style="fill:none;stroke-width:1;stroke-linecap:butt;stroke-linejoin:miter;stroke:rgb(26.666667%,26.666667%,26.666667%);stroke-opacity:1;stroke-miterlimit:10;" d="M 172.371094 24.203125 L 180 33.628906 "/>
<path style="fill-rule:nonzero;fill:rgb(100%,0%,0%);fill-opacity:1;stroke-width:1;stroke-linecap:butt;stroke-linejoin:miter;stroke:rgb(0%,0%,0%);stroke-opacity:1;stroke-miterlimit:10;" d="M 30 52.398438 C 30 57.921875 25.523438 62.398438 20 62.398438 C 14.476562 62.398438 10 57.921875 10 52.398438 C 10 46.878906 14.476562 42.398438 20 42.398438 C 25.523438 42.398438 30 46.878906 30 52.398438 "/>
<path style="fill-rule:nonzero;fill:rgb(100%,0%,0%);fill-opacity:1;stroke-width:1;stroke-linecap:butt;stroke-linejoin:miter;stroke:rgb(0%,0%,0%);stroke-opacity:1;stroke-miterlimit:10;" d="M 32.027344 177.324219 C 32.027344 182.847656 27.550781 187.324219 22.027344 187.324219 C 16.507812 187.324219 12.027344 182.847656 12.027344 177.324219 C 12.027344 171.800781 16.507812 167.324219 22.027344 167.324219 C 27.550781 167.324219 32.027344 171.800781 32.027344 177.324219 "/>
<path style="fill-rule:nonzero;fill:rgb(100%,0%,0%);fill-opacity:1;stroke-width:1;stroke-linecap:butt;stroke-linejoin:miter;stroke:rgb(0%,0%,0%);stroke-opacity:1;stroke-miterlimit:10;" d="M 44.121094 20 C 44.121094 25.523438 39.644531 30 34.121094 30 C 28.597656 30 24.121094 25.523438 24.121094 20 C 24.121094 14.476562 28.597656 10 34.121094 10 C 39.644531 10 44.121094 14.476562 44.121094 20 "/>
<path style="fill-rule:nonzero;fill:rgb(100%,0%,0%);fill-opacity:1;stroke-width:1;stroke-linecap:butt;stroke-linejoin:miter;stroke:rgb(0%,0%,0%);stroke-opacity:1;stroke-miterlimit:10;" d="M 52.0625 167.460938 C 52.0625 172.984375 47.585938 177.460938 42.0625 177.460938 C 36.539062 177.460938 32.0625 172.984375 32.0625 167.460938 C 32.0625 161.9375 36.539062 157.460938 42.0625 157.460938 C 47.585938 157.460938 52.0625 161.9375 52.0625 167.460938 "/>
<path style="fill-rule:nonzero;fill:rgb(100%,0%,0%);fill-opacity:1;stroke-width:1;stroke-linecap:butt;stroke-linejoin:miter;stroke:rgb(0%,0%,0%);stroke-opacity:1;stroke-miterlimit:10;" d="M 52.933594 157.371094 C 52.933594 162.894531 48.453125 167.371094 42.933594 167.371094 C 37.410156 167.371094 32.933594 162.894531 32.933594 157.371094 C 32.933594 151.847656 37.410156 147.371094 42.933594 147.371094 C 48.453125 147.371094 52.933594 151.847656 52.933594 157.371094 "/>
<path style="fill-rule:nonzero;fill:rgb(100%,0%,0%);fill-opacity:1;stroke-width:1;stroke-linecap:butt;stroke-linejoin:miter;stroke:rgb(0%,0%,0%);stroke-opacity:1;stroke-miterlimit:10;" d="M 64.410156 107.148438 C 64.410156 112.671875 59.933594 117.148438 54.410156 117.148438 C 48.890625 117.148438 44.410156 112.671875 44.410156 107.148438 C 44.410156 101.625 48.890625 97.148438 54.410156 97.148438 C 59.933594 97.148438 64.410156 101.625 64.410156 107.148438 "/>
<path style="fill-rule:nonzero;fill:rgb(100%,0%,0%);fill-opacity:1;stroke-width:1;stroke-linecap:butt;stroke-linejoin:miter;stroke:rgb(0%,0%,0%);stroke-opacity:1;stroke-miterlimit:10;" d="M 64.957031 97.785156 C 64.957031 103.308594 60.480469 107.785156 54.957031 107.785156 C 49.433594 107.785156 44.957031 103.308594 44.957031 97.785156 C 44.957031 92.265625 49.433594 87.785156 54.957031 87.785156 C 60.480469 87.785156 64.957031 92.265625 64.957031 97.785156 "/>
<path style="fill-rule:nonzero;fill:rgb(100%,0%,0%);fill-opacity:1;stroke-width:1;stroke-linecap:butt;stroke-linejoin:miter;stroke:rgb(0%,0%,0%);stroke-opacity:1;stroke-miterlimit:10;" d="M 66.878906 102.878906 C 66.878906 108.398438 62.402344 112.878906 56.878906 112.878906 C 51.359375 112.878906 46.878906 108.398438 46.878906 102.878906 C 46.878906 97.355469 51.359375 92.878906 56.878906 92.878906 C 62.402344 92.878906 66.878906 97.355469 66.878906 102.878906 "/>
<path style="fill-rule:nonzero;fill:rgb(100%,0%,0%);fill-opacity:1;stroke-width:1;stroke-linecap:butt;stroke-linejoin:miter;stroke:rgb(0%,0%,0%);stroke-opacity:1;stroke-miterlimit:10;" d="M 70.417969 87.273438 C 70.417969 92.796875 65.941406 97.273438 60.417969 97.273438 C 54.894531 97.273438 50.417969 92.796875 50.417969 87.273438 C 50.417969 81.75 54.894531 77.273438 60.417969 77.273438 C 65.941406 77.273438 70.417969 81.75 70.417969 87.273438 "/>
<path style="fill-rule:nonzero;fill:rgb(100%,0%,0%);fill-opacity:1;stroke-width:1;stroke-linecap:butt;stroke-linejoin:miter;stroke:rgb(0%,0%,0%);stroke-opacity:1;stroke-miterlimit:10;" d="M 70.71875 180 C 70.71875 185.523438 66.242188 190 60.71875 190 C 55.195312 190 50.71875 185.523438 50.71875 180 C 50.71875 174.476562 55.195312 170 60.71875 170 C 66.242188 170 70.71875 174.476562 70.71875 180 "/>
<path style="fill-rule:nonzero;fill:rgb(100%,0%,0%);fill-opacity:1;stroke-width:1;stroke-linecap:butt;stroke-linejoin:miter;stroke:rgb(0%,0%,0%);stroke-opacity:1;stroke-miterlimit:10;" d="M 74.101562 144.140625 C 74.101562 149.664062 69.621094 154.140625 64.101562 154.140625 C 58.578125 154.140625 54.101562 149.664062 54.101562 144.140625 C 54.101562 138.617188 58.578125 134.140625 64.101562 134.140625 C 69.621094 134.140625 74.101562 138.617188 74.101562 144.140625 "/>
<path style="fill-rule:nonzero;fill:rgb(100%,0%,0%);fill-opacity:1;stroke-width:1;stroke-linecap:butt;stroke-linejoin:miter;stroke:rgb(0%,0%,0%);stroke-opacity:1;stroke-miterlimit:10;" d="M 83.5625 39.125 C 83.5625 44.648438 79.085938 49.125 73.5625 49.125 C 68.039062 49.125 63.5625 44.648438 63.5625 39.125 C 63.5625 33.601562 68.039062 29.125 73.5625 29.125 C 79.085938 29.125 83.5625 33.601562 83.5625 39.125 "/>
<path style="fill-rule:nonzero;fill:rgb(100%,0%,0%);fill-opacity:1;stroke-width:1;stroke-linecap:butt;stroke-linejoin:miter;stroke:rgb(0%,0%,0%);stroke-opacity:1;stroke-miterlimit:10;" d="M 92.667969 172.820312 C 92.667969 178.34375 88.191406 182.820312 82.667969 182.820312 C 77.148438 182.820312 72.667969 178.34375 72.667969 172.820312 C 72.667969 167.296875 77.148438 162.820312 82.667969 162.820312 C 88.191406 162.820312 92.667969 167.296875 92.667969 172.820312 "/>
<path style="fill-rule:nonzero;fill:rgb(100%,0%,0%);fill-opacity:1;stroke-width:1;stroke-linecap:butt;stroke-linejoin:miter;stroke:rgb(0%,0%,0%);stroke-opacity:1;stroke-miterlimit:10;" d="M 101.921875 135.566406 C 101.921875 141.089844 97.445312 145.566406 91.921875 145.566406 C 86.402344 145.566406 81.921875 141.089844 81.921875 135.566406 C 81.921875 130.042969 86.402344 125.566406 91.921875 125.566406 C 97.445312 125.566406 101.921875 130.042969 101.921875 135.566406 "/>
<path style="fill-rule:nonzero;fill:rgb(100%,0%,0%);fill-opacity:1;stroke-width:1;stroke-linecap:butt;stroke-linejoin:miter;stroke:rgb(0%,0%,0%);stroke-opacity:1;stroke-miterlimit:10;" d="M 117.195312 50.304688 C 117.195312 55.828125 112.71875 60.304688 107.195312 60.304688 C 101.671875 60.304688 97.195312 55.828125 97.195312 50.304688 C 97.195312 44.78125 101.671875 40.304688 107.195312 40.304688 C 112.71875 40.304688 117.195312 44.78125 117.195312 50.304688 "/>
<path style="fill-rule:nonzero;fill:rgb(100%,0%,0%);fill-opacity:1;stroke-width:1;stroke-linecap:butt;stroke-linejoin:miter;stroke:rgb(0%,0%,0%);stroke-opacity:1;stroke-miterlimit:10;" d="M 162.109375 35.871094 C 162.109375 41.394531 157.632812 45.871094 152.109375 45.871094 C 146.585938 45.871094 142.109375 41.394531 142.109375 35.871094 C 142.109375 30.347656 146.585938 25.871094 152.109375 25.871094 C 157.632812 25.871094 162.109375 30.347656 162.109375 35.871094 "/>
<path style="fill-rule:nonzero;fill:rgb(100%,0%,0%);fill-opacity:1;stroke-width:1;stroke-linecap:butt;stroke-linejoin:miter;stroke:rgb(0%,0%,0%);stroke-opacity:1;stroke-miterlimit:10;" d="M 167.207031 86.464844 C 167.207031 91.988281 162.730469 96.464844 157.207031 96.464844 C 151.683594 96.464844 147.207031 91.988281 147.207031 86.464844 C 147.207031 80.945312 151.683594 76.464844 157.207031 76.464844 C 162.730469 76.464844 167.207031 80.945312 167.207031 86.464844 "/>
<path style="fill-rule:nonzero;fill:rgb(100%,0%,0%);fill-opacity:1;stroke-width:1;stroke-linecap:butt;stroke-linejoin:miter;stroke:rgb(0%,0%,0%);stroke-opacity:1;stroke-miterlimit:10;" d="M 172.011719 142.953125 C 172.011719 148.472656 167.535156 152.953125 162.011719 152.953125 C 156.492188 152.953125 152.011719 148.472656 152.011719 142.953125 C 152.011719 137.429688 156.492188 132.953125 162.011719 132.953125 C 167.535156 132.953125 172.011719 137.429688 172.011719 142.953125 "/>
<path style="fill-rule:nonzero;fill:rgb(100%,0%,0%);fill-opacity:1;stroke-width:1;stroke-linecap:butt;stroke-linejoin:miter;stroke:rgb(0%,0%,0%);stroke-opacity:1;stroke-miterlimit:10;" d="M 182.371094 24.203125 C 182.371094 29.726562 177.894531 34.203125 172.371094 34.203125 C 166.847656 34.203125 162.371094 29.726562 162.371094 24.203125 C 162.371094 18.683594 166.847656 14.203125 172.371094 14.203125 C 177.894531 14.203125 182.371094 18.683594 182.371094 24.203125 "/>
<path style="fill-rule:nonzero;fill:rgb(100%,0%,0%);fill-opacity:1;stroke-width:1;stroke-linecap:butt;stroke-linejoin:miter;stroke:rgb(0%,0%,0%);stroke-opacity:1;stroke-miterlimit:10;" d="M 190 33.628906 C 190 39.152344 185.523438 43.628906 180 43.628906 C 174.476562 43.628906 170 39.152344 170 33.628906 C 170 28.109375 174.476562 23.628906 180 23.628906 C 185.523438 23.628906 190 28.109375 190 33.628906 "/>
</g>
</svg>
