<?xml version="1.0" encoding="UTF-8"?>
<svg xmlns="http://www.w3.org/2000/svg" xmlns:xlink="http://www.w3.org/1999/xlink" width="200pt" height="200pt" viewBox="0 0 200 200" version="1.1">
<g id="surface14">
<rect x="0" y="0" width="200" height="200" style="fill:rgb(100%,100%,100%);fill-opacity:1;stroke:none;"/>
<path style="fill:none;stroke-width:1;stroke-linecap:butt;stroke-linejoin:miter;stroke:rgb(26.666667%,26.666667%,26.666667%);stroke-opacity:1;stroke-miterlimit:10;" d="M 139.695312 130.335938 L 155.621094 105.976562 "/>
<path style="fill:none;stroke-width:1;stroke-linecap:butt;stroke-linejoin:miter;stroke:rgb(26.666667%,26.666667%,26.666667%);stroke-opacity:1;stroke-miterlimit:10;" d="M 139.695312 130.335938 L 160.738281 155.515625 "/>
<path style="fill:none;stroke-width:1;stroke-linecap:butt;stroke-linejoin:miter;stroke:rgb(26.666667%,26.666667%,26.666667%);stroke-opacity:1;stroke-miterlimit:10;" d="M 139.695312 130.335938 L 120.285156 91.214844 "/>
<path style="fill:none;stroke-width:1;stroke-linecap:butt;stroke-linejoin:miter;stroke:rgb(26.666667%,26.666667%,26.666667%);stroke-opacity:1;stroke-miterlimit:10;" d="M 139.695312 130.335938 L 126.257812 164.511719 "/>
<path style="fill:none;stroke-width:1;stroke-linecap:butt;stroke-linejoin:miter;stroke:rgb(26.666667%,26.666667%,26.666667%);stroke-opacity:1;stroke-miterlimit:10;" d="M 103.4375 163.410156 L 126.257812 164.511719 "/>
<path style="fill:none;stroke-width:1;stroke-linecap:butt;stroke-linejoin:miter;stroke:rgb(26.666667%,26.666667%,26.666667%);stroke-opacity:1;stroke-miterlimit:10;" d="M 109.910156 88.75 L 100.9375 142.871094 "/>
<path style="fill:none;stroke-width:1;stroke-linecap:butt;stroke-linejoin:miter;stroke:rgb(26.666667%,26.666667%,26.666667%);stroke-opacity:1;stroke-miterlimit:10;" d="M 85.628906 180 L 100.9375 142.871094 "/>
<path style="fill:none;stroke-width:1;stroke-linecap:butt;stroke-linejoin:miter;stroke:rgb(26.666667%,26.666667%,26.666667%);stroke-opacity:1;stroke-miterlimit:10;" d="M 126.257812 164.511719 L 100.9375 142.871094 "/>
<path style="fill:none;stroke-width:1;stroke-linecap:butt;stroke-linejoin:miter;stroke:rgb(26.666667%,26.666667%,26.666667%);stroke-opacity:1;stroke-miterlimit:10;" d="M 43.949219 111.285156 L 20 107 "/>
<path style="fill:none;stroke-width:1;stroke-linecap:butt;stroke-linejoin:miter;stroke:rgb(26.666667%,26.666667%,26.666667%);stroke-opacity:1;stroke-miterlimit:10;" d="M 103.4375 163.410156 L 99.816406 117.359375 "/>
<path style="fill:none;stroke-width:1;stroke-linecap:butt;stroke-linejoin:miter;stroke:rgb(26.666667%,26.666667%,26.666667%);stroke-opacity:1;stroke-miterlimit:10;" d="M 120.285156 91.214844 L 99.816406 117.359375 "/>
<path style="fill:none;stroke-width:1;stroke-linecap:butt;stroke-linejoin:miter;stroke:rgb(26.666667%,26.666667%,26.666667%);stroke-opacity:1;stroke-miterlimit:10;" d="M 100.9375 142.871094 L 99.816406 117.359375 "/>
<path style="fill:none;stroke-width:1;stroke-linecap:butt;stroke-linejoin:miter;stroke:rgb(26.666667%,26.666667%,26.666667%);stroke-opacity:1;stroke-miterlimit:10;" d="M 43.949219 111.285156 L 68.613281 117.953125 "/>
<path style="fill:none;stroke-width:1;stroke-linecap:butt;stroke-linejoin:miter;stroke:rgb(26.666667%,26.666667%,26.666667%);stroke-opacity:1;stroke-miterlimit:10;" d="M 99.816406 117.359375 L 68.613281 117.953125 "/>
<path style="fill:none;stroke-width:1;stroke-linecap:butt;stroke-linejoin:miter;stroke:rgb(26.666667%,26.666667%,26.666667%);stroke-opacity:1;stroke-miterlimit:10;" d="M 109.910156 88.75 L 120.542969 55.976562 "/>
<path style="fill:none;stroke-width:1;stroke-linecap:butt;stroke-linejoin:miter;stroke:rgb(26.666667%,26.666667%,26.666667%);stroke-opacity:1;stroke-miterlimit:10;" d="M 120.285156 91.214844 L 120.542969 55.976562 "/>
<path style="fill:none;stroke-width:1;stroke-linecap:butt;stroke-linejoin:miter;stroke:rgb(26.666667%,26.666667%,26.666667%);stroke-opacity:1;stroke-miterlimit:10;" d="M 120.542969 55.976562 L 123.109375 20 "/>
<path style="fill:none;stroke-width:1;stroke-linecap:butt;stroke-linejoin:miter;stroke:rgb(26.666667%,26.666667%,26.666667%);stroke-opacity:1;stroke-miterlimit:10;" d="M 99.816406 117.359375 L 84.917969 110.300781 "/>
<path style="fill:none;stroke-width:1;stroke-linecap:butt;stroke-linejoin:miter;stroke:rgb(26.666667%,26.666667%,26.666667%);stroke-opacity:1;stroke-miterlimit:10;" d="M 68.613281 117.953125 L 84.917969 110.300781 "/>
<path style="fill:none;stroke-width:1;stroke-linecap:butt;stroke-linejoin:miter;stroke:rgb(26.666667%,26.666667%,26.666667%);stroke-opacity:1;stroke-miterlimit:10;" d="M 109.910156 88.75 L 93.304688 82.433594 "/>
<path style="fill:none;stroke-width:1;stroke-linecap:butt;stroke-linejoin:miter;stroke:rgb(26.666667%,26.666667%,26.666667%);stroke-opacity:1;stroke-miterlimit:10;" d="M 120.285156 91.214844 L 93.304688 82.433594 "/>
<path style="fill:none;stroke-width:1;stroke-linecap:butt;stroke-linejoin:miter;stroke:rgb(26.666667%,26.666667%,26.666667%);stroke-opacity:1;stroke-miterlimit:10;" d="M 99.816406 117.359375 L 93.304688 82.433594 "/>
<path style="fill:none;stroke-width:1;stroke-linecap:butt;stroke-linejoin:miter;stroke:rgb(26.666667%,26.666667%,26.666667%);stroke-opacity:1;stroke-miterlimit:10;" d="M 84.917969 110.300781 L 93.304688 82.433594 "/>
<path style="fill:none;stroke-width:1;stroke-linecap:butt;stroke-linejoin:miter;stroke:rgb(26.666667%,26.666667%,26.666667%);stroke-opacity:1;stroke-miterlimit:10;" d="M 155.621094 105.976562 L 180 96.433594 "/>
<path style="fill:none;stroke-width:1;stroke-linecap:butt;stroke-linejoin:miter;stroke:rgb(26.666667%,26.666667%,26.666667%);stroke-opacity:1;stroke-miterlimit:10;" d="M 109.910156 88.75 L 129.152344 105.921875 "/>
<path style="fill:none;stroke-width:1;stroke-linecap:butt;stroke-linejoin:miter;stroke:rgb(26.666667%,26.666667%,26.666667%);stroke-opacity:1;stroke-miterlimit:10;" d="M 155.621094 105.976562 L 129.152344 105.921875 "/>
<path style="fill:none;stroke-width:1;stroke-linecap:butt;stroke-linejoin:miter;stroke:rgb(26.666667%,26.666667%,26.666667%);stroke-opacity:1;stroke-miterlimit:10;" d="M 120.285156 91.214844 L 129.152344 105.921875 "/>
<path style="fill:none;stroke-width:1;stroke-linecap:butt;stroke-linejoin:miter;stroke:rgb(26.666667%,26.666667%,26.666667%);stroke-opacity:1;stroke-miterlimit:10;" d="M 99.816406 117.359375 L 129.152344 105.921875 "/>
<path style="fill:none;stroke-width:1;stroke-linecap:butt;stroke-linejoin:miter;stroke:rgb(26.666667%,26.666667%,26.666667%);stroke-opacity:1;stroke-miterlimit:10;" d="M 139.695312 130.335938 L 116.390625 129.257812 "/>
<path style="fill:none;stroke-width:1;stroke-linecap:butt;stroke-linejoin:miter;stroke:rgb(26.666667%,26.666667%,26.666667%);stroke-opacity:1;stroke-miterlimit:10;" d="M 99.816406 117.359375 L 116.390625 129.257812 "/>
<path style="fill:none;stroke-width:1;stroke-linecap:butt;stroke-linejoin:miter;stroke:rgb(26.666667%,26.666667%,26.666667%);stroke-opacity:1;stroke-miterlimit:10;" d="M 84.917969 110.300781 L 116.390625 129.257812 "/>
<path style="fill:none;stroke-width:1;stroke-linecap:butt;stroke-linejoin:miter;stroke:rgb(26.666667%,26.666667%,26.666667%);stroke-opacity:1;stroke-miterlimit:10;" d="M 129.152344 105.921875 L 116.390625 129.257812 "/>
<path style="fill-rule:nonzero;fill:rgb(100%,0%,0%);fill-opacity:1;stroke-width:1;stroke-linecap:butt;stroke-linejoin:miter;stroke:rgb(0%,0%,0%);stroke-opacity:1;stroke-miterlimit:10;" d="M 149.695312 130.335938 C 149.695312 135.859375 145.21875 140.335938 139.695312 140.335938 C 134.171875 140.335938 129.695312 135.859375 129.695312 130.335938 C 129.695312 124.8125 134.171875 120.335938 139.695312 120.335938 C 145.21875 120.335938 149.695312 124.8125 149.695312 130.335938 "/>
<path style="fill-rule:nonzero;fill:rgb(100%,0%,0%);fill-opacity:1;stroke-width:1;stroke-linecap:butt;stroke-linejoin:miter;stroke:rgb(0%,0%,0%);stroke-opacity:1;stroke-miterlimit:10;" d="M 113.4375 163.410156 C 113.4375 168.933594 108.957031 173.410156 103.4375 173.410156 C 97.914062 173.410156 93.4375 168.933594 93.4375 163.410156 C 93.4375 157.886719 97.914062 153.410156 103.4375 153.410156 C 108.957031 153.410156 113.4375 157.886719 113.4375 163.410156 "/>
<path style="fill-rule:nonzero;fill:rgb(100%,0%,0%);fill-opacity:1;stroke-width:1;stroke-linecap:butt;stroke-linejoin:miter;stroke:rgb(0%,0%,0%);stroke-opacity:1;stroke-miterlimit:10;" d="M 119.910156 88.75 C 119.910156 94.273438 115.433594 98.75 109.910156 98.75 C 104.386719 98.75 99.910156 94.273438 99.910156 88.75 C 99.910156 83.226562 104.386719 78.75 109.910156 78.75 C 115.433594 78.75 119.910156 83.226562 119.910156 88.75 "/>
<path style="fill-rule:nonzero;fill:rgb(100%,0%,0%);fill-opacity:1;stroke-width:1;stroke-linecap:butt;stroke-linejoin:miter;stroke:rgb(0%,0%,0%);stroke-opacity:1;stroke-miterlimit:10;" d="M 165.621094 105.976562 C 165.621094 111.5 161.144531 115.976562 155.621094 115.976562 C 150.097656 115.976562 145.621094 111.5 145.621094 105.976562 C 145.621094 100.453125 150.097656 95.976562 155.621094 95.976562 C 161.144531 95.976562 165.621094 100.453125 165.621094 105.976562 "/>
<path style="fill-rule:nonzero;fill:rgb(100%,0%,0%);fill-opacity:1;stroke-width:1;stroke-linecap:butt;stroke-linejoin:miter;stroke:rgb(0%,0%,0%);stroke-opacity:1;stroke-miterlimit:10;" d="M 95.628906 180 C 95.628906 185.523438 91.152344 190 85.628906 190 C 80.105469 190 75.628906 185.523438 75.628906 180 C 75.628906 174.476562 80.105469 170 85.628906 170 C 91.152344 170 95.628906 174.476562 95.628906 180 "/>
<path style="fill-rule:nonzero;fill:rgb(100%,0%,0%);fill-opacity:1;stroke-width:1;stroke-linecap:butt;stroke-linejoin:miter;stroke:rgb(0%,0%,0%);stroke-opacity:1;stroke-miterlimit:10;" d="M 170.738281 155.515625 C 170.738281 161.035156 166.261719 165.515625 160.738281 165.515625 C 155.214844 165.515625 150.738281 161.035156 150.738281 155.515625 C 150.738281 149.992188 155.214844 145.515625 160.738281 145.515625 C 166.261719 145.515625 170.738281 149.992188 170.738281 155.515625 "/>
<path style="fill-rule:nonzero;fill:rgb(100%,0%,0%);fill-opacity:1;stroke-width:1;stroke-linecap:butt;stroke-linejoin:miter;stroke:rgb(0%,0%,0%);stroke-opacity:1;stroke-miterlimit:10;" d="M 130.285156 91.214844 C 130.285156 96.734375 125.808594 101.214844 120.285156 101.214844 C 114.761719 101.214844 110.285156 96.734375 110.285156 91.214844 C 110.285156 85.691406 114.761719 81.214844 120.285156 81.214844 C 125.808594 81.214844 130.285156 85.691406 130.285156 91.214844 "/>
<path style="fill-rule:nonzero;fill:rgb(100%,0%,0%);fill-opacity:1;stroke-width:1;stroke-linecap:butt;stroke-linejoin:miter;stroke:rgb(0%,0%,0%);stroke-opacity:1;stroke-miterlimit:10;" d="M 53.949219 111.285156 C 53.949219 116.808594 49.472656 121.285156 43.949219 121.285156 C 38.425781 121.285156 33.949219 116.808594 33.949219 111.285156 C 33.949219 105.761719 38.425781 101.285156 43.949219 101.285156 C 49.472656 101.285156 53.949219 105.761719 53.949219 111.285156 "/>
<path style="fill-rule:nonzero;fill:rgb(100%,0%,0%);fill-opacity:1;stroke-width:1;stroke-linecap:butt;stroke-linejoin:miter;stroke:rgb(0%,0%,0%);stroke-opacity:1;stroke-miterlimit:10;" d="M 136.257812 164.511719 C 136.257812 170.03125 131.78125 174.511719 126.257812 174.511719 C 120.734375 174.511719 116.257812 170.03125 116.257812 164.511719 C 116.257812 158.988281 120.734375 154.511719 126.257812 154.511719 C 131.78125 154.511719 136.257812 158.988281 136.257812 164.511719 "/>
<path style="fill-rule:nonzero;fill:rgb(100%,0%,0%);fill-opacity:1;stroke-width:1;stroke-linecap:butt;stroke-linejoin:miter;stroke:rgb(0%,0%,0%);stroke-opacity:1;stroke-miterlimit:10;" d="M 110.9375 142.871094 C 110.9375 148.394531 106.460938 152.871094 100.9375 152.871094 C 95.414062 152.871094 90.9375 148.394531 90.9375 142.871094 C 90.9375 137.347656 95.414062 132.871094 100.9375 132.871094 C 106.460938 132.871094 110.9375 137.347656 110.9375 142.871094 "/>
<path style="fill-rule:nonzero;fill:rgb(100%,0%,0%);fill-opacity:1;stroke-width:1;stroke-linecap:butt;stroke-linejoin:miter;stroke:rgb(0%,0%,0%);stroke-opacity:1;stroke-miterlimit:10;" d="M 30 107 C 30 112.519531 25.523438 117 20 117 C 14.476562 117 10 112.519531 10 107 C 10 101.476562 14.476562 97 20 97 C 25.523438 97 30 101.476562 30 107 "/>
<path style="fill-rule:nonzero;fill:rgb(100%,0%,0%);fill-opacity:1;stroke-width:1;stroke-linecap:butt;stroke-linejoin:miter;stroke:rgb(0%,0%,0%);stroke-opacity:1;stroke-miterlimit:10;" d="M 109.816406 117.359375 C 109.816406 122.882812 105.335938 127.359375 99.816406 127.359375 C 94.292969 127.359375 89.816406 122.882812 89.816406 117.359375 C 89.816406 111.839844 94.292969 107.359375 99.816406 107.359375 C 105.335938 107.359375 109.816406 111.839844 109.816406 117.359375 "/>
<path style="fill-rule:nonzero;fill:rgb(100%,0%,0%);fill-opacity:1;stroke-width:1;stroke-linecap:butt;stroke-linejoin:miter;stroke:rgb(0%,0%,0%);stroke-opacity:1;stroke-miterlimit:10;" d="M 78.613281 117.953125 C 78.613281 123.472656 74.132812 127.953125 68.613281 127.953125 C 63.089844 127.953125 58.613281 123.472656 58.613281 117.953125 C 58.613281 112.429688 63.089844 107.953125 68.613281 107.953125 C 74.132812 107.953125 78.613281 112.429688 78.613281 117.953125 "/>
<path style="fill-rule:nonzero;fill:rgb(100%,0%,0%);fill-opacity:1;stroke-width:1;stroke-linecap:butt;stroke-linejoin:miter;stroke:rgb(0%,0%,0%);stroke-opacity:1;stroke-miterlimit:10;" d="M 130.542969 55.976562 C 130.542969 61.5 126.066406 65.976562 120.542969 65.976562 C 115.019531 65.976562 110.542969 61.5 110.542969 55.976562 C 110.542969 50.453125 115.019531 45.976562 120.542969 45.976562 C 126.066406 45.976562 130.542969 50.453125 130.542969 55.976562 "/>
<path style="fill-rule:nonzero;fill:rgb(100%,0%,0%);fill-opacity:1;stroke-width:1;stroke-linecap:butt;stroke-linejoin:miter;stroke:rgb(0%,0%,0%);stroke-opacity:1;stroke-miterlimit:10;" d="M 133.109375 20 C 133.109375 25.523438 128.628906 30 123.109375 30 C 117.585938 30 113.109375 25.523438 113.109375 20 C 113.109375 14.476562 117.585938 10 123.109375 10 C 128.628906 10 133.109375 14.476562 133.109375 20 "/>
<path style="fill-rule:nonzero;fill:rgb(100%,0%,0%);fill-opacity:1;stroke-width:1;stroke-linecap:butt;stroke-linejoin:miter;stroke:rgb(0%,0%,0%);stroke-opacity:1;stroke-miterlimit:10;" d="M 94.917969 110.300781 C 94.917969 115.820312 90.441406 120.300781 84.917969 120.300781 C 79.394531 120.300781 74.917969 115.820312 74.917969 110.300781 C 74.917969 104.777344 79.394531 100.300781 84.917969 100.300781 C 90.441406 100.300781 94.917969 104.777344 94.917969 110.300781 "/>
<path style="fill-rule:nonzero;fill:rgb(100%,0%,0%);fill-opacity:1;stroke-width:1;stroke-linecap:butt;stroke-linejoin:miter;stroke:rgb(0%,0%,0%);stroke-opacity:1;stroke-miterlimit:10;" d="M 103.304688 82.433594 C 103.304688 87.957031 98.824219 92.433594 93.304688 92.433594 C 87.78125 92.433594 83.304688 87.957031 83.304688 82.433594 C 83.304688 76.910156 87.78125 72.433594 93.304688 72.433594 C 98.824219 72.433594 103.304688 76.910156 103.304688 82.433594 "/>
<path style="fill-rule:nonzero;fill:rgb(100%,0%,0%);fill-opacity:1;stroke-width:1;stroke-linecap:butt;stroke-linejoin:miter;stroke:rgb(0%,0%,0%);stroke-opacity:1;stroke-miterlimit:10;" d="M 190 96.433594 C 190 101.957031 185.523438 106.433594 180 106.433594 C 174.476562 106.433594 170 101.957031 170 96.433594 C 170 90.910156 174.476562 86.433594 180 86.433594 C 185.523438 86.433594 190 90.910156 190 96.433594 "/>
<path style="fill-rule:nonzero;fill:rgb(100%,0%,0%);fill-opacity:1;stroke-width:1;stroke-linecap:butt;stroke-linejoin:miter;stroke:rgb(0%,0%,0%);stroke-opacity:1;stroke-miterlimit:10;" d="M 139.152344 105.921875 C 139.152344 111.445312 134.675781 115.921875 129.152344 115.921875 C 123.628906 115.921875 119.152344 111.445312 119.152344 105.921875 C 119.152344 100.398438 123.628906 95.921875 129.152344 95.921875 C 134.675781 95.921875 139.152344 100.398438 139.152344 105.921875 "/>
<path style="fill-rule:nonzero;fill:rgb(100%,0%,0%);fill-opacity:1;stroke-width:1;stroke-linecap:butt;stroke-linejoin:miter;stroke:rgb(0%,0%,0%);stroke-opacity:1;stroke-miterlimit:10;" d="M 126.390625 129.257812 C 126.390625 134.777344 121.914062 139.257812 116.390625 139.257812 C 110.867188 139.257812 106.390625 134.777344 106.390625 129.257812 C 106.390625 123.734375 110.867188 119.257812 116.390625 119.257812 C 121.914062 119.257812 126.390625 123.734375 126.390625 129.257812 "/>
</g>
</svg>
