<?xml version="1.0" encoding="UTF-8"?>
<svg xmlns="http://www.w3.org/2000/svg" xmlns:xlink="http://www.w3.org/1999/xlink" width="200pt" height="200pt" viewBox="0 0 200 200" version="1.1">
<g id="surface14">
<rect x="0" y="0" width="200" height="200" style="fill:rgb(100%,100%,100%);fill-opacity:1;stroke:none;"/>
<path style="fill:none;stroke-width:1;stroke-linecap:butt;stroke-linejoin:miter;stroke:rgb(26.666667%,26.666667%,26.666667%);stroke-opacity:1;stroke-miterlimit:10;" d="M 163.601562 108.867188 L 175.992188 50.417969 "/>
<path style="fill:none;stroke-width:1;stroke-linecap:butt;stroke-linejoin:miter;stroke:rgb(26.666667%,26.666667%,26.666667%);stroke-opacity:1;stroke-miterlimit:10;" d="M 163.601562 108.867188 L 128.417969 106.222656 "/>
<path style="fill:none;stroke-width:1;stroke-linecap:butt;stroke-linejoin:miter;stroke:rgb(26.666667%,26.666667%,26.666667%);stroke-opacity:1;stroke-miterlimit:10;" d="M 106.492188 55.101562 L 128.417969 106.222656 "/>
<path style="fill:none;stroke-width:1;stroke-linecap:butt;stroke-linejoin:miter;stroke:rgb(26.666667%,26.666667%,26.666667%);stroke-opacity:1;stroke-miterlimit:10;" d="M 163.601562 108.867188 L 145.96875 134.601562 "/>
<path style="fill:none;stroke-width:1;stroke-linecap:butt;stroke-linejoin:miter;stroke:rgb(26.666667%,26.666667%,26.666667%);stroke-opacity:1;stroke-miterlimit:10;" d="M 128.417969 106.222656 L 145.96875 134.601562 "/>
<path style="fill:none;stroke-width:1;stroke-linecap:butt;stroke-linejoin:miter;stroke:rgb(26.666667%,26.666667%,26.666667%);stroke-opacity:1;stroke-miterlimit:10;" d="M 68.8125 88.324219 L 94.085938 114.460938 "/>
<path style="fill:none;stroke-width:1;stroke-linecap:butt;stroke-linejoin:miter;stroke:rgb(26.666667%,26.666667%,26.666667%);stroke-opacity:1;stroke-miterlimit:10;" d="M 128.417969 106.222656 L 94.085938 114.460938 "/>
<path style="fill:none;stroke-width:1;stroke-linecap:butt;stroke-linejoin:miter;stroke:rgb(26.666667%,26.666667%,26.666667%);stroke-opacity:1;stroke-miterlimit:10;" d="M 68.8125 88.324219 L 20 80.621094 "/>
<path style="fill:none;stroke-width:1;stroke-linecap:butt;stroke-linejoin:miter;stroke:rgb(26.666667%,26.666667%,26.666667%);stroke-opacity:1;stroke-miterlimit:10;" d="M 163.601562 108.867188 L 107.351562 134.480469 "/>
<path style="fill:none;stroke-width:1;stroke-linecap:butt;stroke-linejoin:miter;stroke:rgb(26.666667%,26.666667%,26.666667%);stroke-opacity:1;stroke-miterlimit:10;" d="M 68.8125 88.324219 L 107.351562 134.480469 "/>
<path style="fill:none;stroke-width:1;stroke-linecap:butt;stroke-linejoin:miter;stroke:rgb(26.666667%,26.666667%,26.666667%);stroke-opacity:1;stroke-miterlimit:10;" d="M 128.417969 106.222656 L 107.351562 134.480469 "/>
<path style="fill:none;stroke-width:1;stroke-linecap:butt;stroke-linejoin:miter;stroke:rgb(26.666667%,26.666667%,26.666667%);stroke-opacity:1;stroke-miterlimit:10;" d="M 106.492188 55.101562 L 118.398438 72.847656 "/>
<path style="fill:none;stroke-width:1;stroke-linecap:butt;stroke-linejoin:miter;stroke:rgb(26.666667%,26.666667%,26.666667%);stroke-opacity:1;stroke-miterlimit:10;" d="M 128.417969 106.222656 L 118.398438 72.847656 "/>
<path style="fill:none;stroke-width:1;stroke-linecap:butt;stroke-linejoin:miter;stroke:rgb(26.666667%,26.666667%,26.666667%);stroke-opacity:1;stroke-miterlimit:10;" d="M 94.085938 114.460938 L 118.398438 72.847656 "/>
<path style="fill:none;stroke-width:1;stroke-linecap:butt;stroke-linejoin:miter;stroke:rgb(26.666667%,26.666667%,26.666667%);stroke-opacity:1;stroke-miterlimit:10;" d="M 94.085938 114.460938 L 57.65625 135.800781 "/>
<path style="fill:none;stroke-width:1;stroke-linecap:butt;stroke-linejoin:miter;stroke:rgb(26.666667%,26.666667%,26.666667%);stroke-opacity:1;stroke-miterlimit:10;" d="M 68.8125 88.324219 L 42.417969 51.179688 "/>
<path style="fill:none;stroke-width:1;stroke-linecap:butt;stroke-linejoin:miter;stroke:rgb(26.666667%,26.666667%,26.666667%);stroke-opacity:1;stroke-miterlimit:10;" d="M 20 80.621094 L 42.417969 51.179688 "/>
<path style="fill:none;stroke-width:1;stroke-linecap:butt;stroke-linejoin:miter;stroke:rgb(26.666667%,26.666667%,26.666667%);stroke-opacity:1;stroke-miterlimit:10;" d="M 106.492188 55.101562 L 148.269531 49.65625 "/>
<path style="fill:none;stroke-width:1;stroke-linecap:butt;stroke-linejoin:miter;stroke:rgb(26.666667%,26.666667%,26.666667%);stroke-opacity:1;stroke-miterlimit:10;" d="M 175.992188 50.417969 L 148.269531 49.65625 "/>
<path style="fill:none;stroke-width:1;stroke-linecap:butt;stroke-linejoin:miter;stroke:rgb(26.666667%,26.666667%,26.666667%);stroke-opacity:1;stroke-miterlimit:10;" d="M 118.398438 72.847656 L 148.269531 49.65625 "/>
<path style="fill:none;stroke-width:1;stroke-linecap:butt;stroke-linejoin:miter;stroke:rgb(26.666667%,26.666667%,26.666667%);stroke-opacity:1;stroke-miterlimit:10;" d="M 128.417969 106.222656 L 92.046875 94.003906 "/>
<path style="fill:none;stroke-width:1;stroke-linecap:butt;stroke-linejoin:miter;stroke:rgb(26.666667%,26.666667%,26.666667%);stroke-opacity:1;stroke-miterlimit:10;" d="M 145.96875 134.601562 L 92.046875 94.003906 "/>
<path style="fill:none;stroke-width:1;stroke-linecap:butt;stroke-linejoin:miter;stroke:rgb(26.666667%,26.666667%,26.666667%);stroke-opacity:1;stroke-miterlimit:10;" d="M 118.398438 72.847656 L 92.046875 94.003906 "/>
<path style="fill:none;stroke-width:1;stroke-linecap:butt;stroke-linejoin:miter;stroke:rgb(26.666667%,26.666667%,26.666667%);stroke-opacity:1;stroke-miterlimit:10;" d="M 57.65625 135.800781 L 92.046875 94.003906 "/>
<path style="fill:none;stroke-width:1;stroke-linecap:butt;stroke-linejoin:miter;stroke:rgb(26.666667%,26.666667%,26.666667%);stroke-opacity:1;stroke-miterlimit:10;" d="M 107.351562 134.480469 L 106.332031 180 "/>
<path style="fill:none;stroke-width:1;stroke-linecap:butt;stroke-linejoin:miter;stroke:rgb(26.666667%,26.666667%,26.666667%);stroke-opacity:1;stroke-miterlimit:10;" d="M 163.601562 108.867188 L 180 82.96875 "/>
<path style="fill:none;stroke-width:1;stroke-linecap:butt;stroke-linejoin:miter;stroke:rgb(26.666667%,26.666667%,26.666667%);stroke-opacity:1;stroke-miterlimit:10;" d="M 148.269531 49.65625 L 180 82.96875 "/>
<path style="fill:none;stroke-width:1;stroke-linecap:butt;stroke-linejoin:miter;stroke:rgb(26.666667%,26.666667%,26.666667%);stroke-opacity:1;stroke-miterlimit:10;" d="M 106.492188 55.101562 L 79.804688 37.574219 "/>
<path style="fill:none;stroke-width:1;stroke-linecap:butt;stroke-linejoin:miter;stroke:rgb(26.666667%,26.666667%,26.666667%);stroke-opacity:1;stroke-miterlimit:10;" d="M 42.417969 51.179688 L 79.804688 37.574219 "/>
<path style="fill:none;stroke-width:1;stroke-linecap:butt;stroke-linejoin:miter;stroke:rgb(26.666667%,26.666667%,26.666667%);stroke-opacity:1;stroke-miterlimit:10;" d="M 92.046875 94.003906 L 79.804688 37.574219 "/>
<path style="fill:none;stroke-width:1;stroke-linecap:butt;stroke-linejoin:miter;stroke:rgb(26.666667%,26.666667%,26.666667%);stroke-opacity:1;stroke-miterlimit:10;" d="M 106.492188 55.101562 L 69.421875 108.089844 "/>
<path style="fill:none;stroke-width:1;stroke-linecap:butt;stroke-linejoin:miter;stroke:rgb(26.666667%,26.666667%,26.666667%);stroke-opacity:1;stroke-miterlimit:10;" d="M 107.351562 134.480469 L 69.421875 108.089844 "/>
<path style="fill:none;stroke-width:1;stroke-linecap:butt;stroke-linejoin:miter;stroke:rgb(26.666667%,26.666667%,26.666667%);stroke-opacity:1;stroke-miterlimit:10;" d="M 68.8125 88.324219 L 132.039062 85.984375 "/>
<path style="fill:none;stroke-width:1;stroke-linecap:butt;stroke-linejoin:miter;stroke:rgb(26.666667%,26.666667%,26.666667%);stroke-opacity:1;stroke-miterlimit:10;" d="M 94.085938 114.460938 L 132.039062 85.984375 "/>
<path style="fill:none;stroke-width:1;stroke-linecap:butt;stroke-linejoin:miter;stroke:rgb(26.666667%,26.666667%,26.666667%);stroke-opacity:1;stroke-miterlimit:10;" d="M 118.398438 72.847656 L 132.039062 85.984375 "/>
<path style="fill:none;stroke-width:1;stroke-linecap:butt;stroke-linejoin:miter;stroke:rgb(26.666667%,26.666667%,26.666667%);stroke-opacity:1;stroke-miterlimit:10;" d="M 148.269531 49.65625 L 132.039062 85.984375 "/>
<path style="fill:none;stroke-width:1;stroke-linecap:butt;stroke-linejoin:miter;stroke:rgb(26.666667%,26.666667%,26.666667%);stroke-opacity:1;stroke-miterlimit:10;" d="M 180 82.96875 L 132.039062 85.984375 "/>
<path style="fill:none;stroke-width:1;stroke-linecap:butt;stroke-linejoin:miter;stroke:rgb(26.666667%,26.666667%,26.666667%);stroke-opacity:1;stroke-miterlimit:10;" d="M 106.492188 55.101562 L 124.46875 20 "/>
<path style="fill:none;stroke-width:1;stroke-linecap:butt;stroke-linejoin:miter;stroke:rgb(26.666667%,26.666667%,26.666667%);stroke-opacity:1;stroke-miterlimit:10;" d="M 175.992188 50.417969 L 124.46875 20 "/>
<path style="fill:none;stroke-width:1;stroke-linecap:butt;stroke-linejoin:miter;stroke:rgb(26.666667%,26.666667%,26.666667%);stroke-opacity:1;stroke-miterlimit:10;" d="M 79.804688 37.574219 L 124.46875 20 "/>
<path style="fill-rule:nonzero;fill:rgb(100%,0%,0%);fill-opacity:1;stroke-width:1;stroke-linecap:butt;stroke-linejoin:miter;stroke:rgb(0%,0%,0%);stroke-opacity:1;stroke-miterlimit:10;" d="M 173.601562 108.867188 C 173.601562 114.390625 169.125 118.867188 163.601562 118.867188 C 158.078125 118.867188 153.601562 114.390625 153.601562 108.867188 C 153.601562 103.34375 158.078125 98.867188 163.601562 98.867188 C 169.125 98.867188 173.601562 103.34375 173.601562 108.867188 "/>
<path style="fill-rule:nonzero;fill:rgb(100%,0%,0%);fill-opacity:1;stroke-width:1;stroke-linecap:butt;stroke-linejoin:miter;stroke:rgb(0%,0%,0%);stroke-opacity:1;stroke-miterlimit:10;" d="M 116.492188 55.101562 C 116.492188 60.625 112.015625 65.101562 106.492188 65.101562 C 100.972656 65.101562 96.492188 60.625 96.492188 55.101562 C 96.492188 49.578125 100.972656 45.101562 106.492188 45.101562 C 112.015625 45.101562 116.492188 49.578125 116.492188 55.101562 "/>
<path style="fill-rule:nonzero;fill:rgb(100%,0%,0%);fill-opacity:1;stroke-width:1;stroke-linecap:butt;stroke-linejoin:miter;stroke:rgb(0%,0%,0%);stroke-opacity:1;stroke-miterlimit:10;" d="M 78.8125 88.324219 C 78.8125 93.847656 74.332031 98.324219 68.8125 98.324219 C 63.289062 98.324219 58.8125 93.847656 58.8125 88.324219 C 58.8125 82.800781 63.289062 78.324219 68.8125 78.324219 C 74.332031 78.324219 78.8125 82.800781 78.8125 88.324219 "/>
<path style="fill-rule:nonzero;fill:rgb(100%,0%,0%);fill-opacity:1;stroke-width:1;stroke-linecap:butt;stroke-linejoin:miter;stroke:rgb(0%,0%,0%);stroke-opacity:1;stroke-miterlimit:10;" d="M 185.992188 50.417969 C 185.992188 55.941406 181.511719 60.417969 175.992188 60.417969 C 170.46875 60.417969 165.992188 55.941406 165.992188 50.417969 C 165.992188 44.894531 170.46875 40.417969 175.992188 40.417969 C 181.511719 40.417969 185.992188 44.894531 185.992188 50.417969 "/>
<path style="fill-rule:nonzero;fill:rgb(100%,0%,0%);fill-opacity:1;stroke-width:1;stroke-linecap:butt;stroke-linejoin:miter;stroke:rgb(0%,0%,0%);stroke-opacity:1;stroke-miterlimit:10;" d="M 138.417969 106.222656 C 138.417969 111.746094 133.941406 116.222656 128.417969 116.222656 C 122.894531 116.222656 118.417969 111.746094 118.417969 106.222656 C 118.417969 100.703125 122.894531 96.222656 128.417969 96.222656 C 133.941406 96.222656 138.417969 100.703125 138.417969 106.222656 "/>
<path style="fill-rule:nonzero;fill:rgb(100%,0%,0%);fill-opacity:1;stroke-width:1;stroke-linecap:butt;stroke-linejoin:miter;stroke:rgb(0%,0%,0%);stroke-opacity:1;stroke-miterlimit:10;" d="M 155.96875 134.601562 C 155.96875 140.125 151.492188 144.601562 145.96875 144.601562 C 140.445312 144.601562 135.96875 140.125 135.96875 134.601562 C 135.96875 129.078125 140.445312 124.601562 145.96875 124.601562 C 151.492188 124.601562 155.96875 129.078125 155.96875 134.601562 "/>
<path style="fill-rule:nonzero;fill:rgb(100%,0%,0%);fill-opacity:1;stroke-width:1;stroke-linecap:butt;stroke-linejoin:miter;stroke:rgb(0%,0%,0%);stroke-opacity:1;stroke-miterlimit:10;" d="M 104.085938 114.460938 C 104.085938 119.984375 99.609375 124.460938 94.085938 124.460938 C 88.5625 124.460938 84.085938 119.984375 84.085938 114.460938 C 84.085938 108.9375 88.5625 104.460938 94.085938 104.460938 C 99.609375 104.460938 104.085938 108.9375 104.085938 114.460938 "/>
<path style="fill-rule:nonzero;fill:rgb(100%,0%,0%);fill-opacity:1;stroke-width:1;stroke-linecap:butt;stroke-linejoin:miter;stroke:rgb(0%,0%,0%);stroke-opacity:1;stroke-miterlimit:10;" d="M 30 80.621094 C 30 86.144531 25.523438 90.621094 20 90.621094 C 14.476562 90.621094 10 86.144531 10 80.621094 C 10 75.097656 14.476562 70.621094 20 70.621094 C 25.523438 70.621094 30 75.097656 30 80.621094 "/>
<path style="fill-rule:nonzero;fill:rgb(100%,0%,0%);fill-opacity:1;stroke-width:1;stroke-linecap:butt;stroke-linejoin:miter;stroke:rgb(0%,0%,0%);stroke-opacity:1;stroke-miterlimit:10;" d="M 117.351562 134.480469 C 117.351562 140.003906 112.875 144.480469 107.351562 144.480469 C 101.828125 144.480469 97.351562 140.003906 97.351562 134.480469 C 97.351562 128.957031 101.828125 124.480469 107.351562 124.480469 C 112.875 124.480469 117.351562 128.957031 117.351562 134.480469 "/>
<path style="fill-rule:nonzero;fill:rgb(100%,0%,0%);fill-opacity:1;stroke-width:1;stroke-linecap:butt;stroke-linejoin:miter;stroke:rgb(0%,0%,0%);stroke-opacity:1;stroke-miterlimit:10;" d="M 128.398438 72.847656 C 128.398438 78.371094 123.917969 82.847656 118.398438 82.847656 C 112.875 82.847656 108.398438 78.371094 108.398438 72.847656 C 108.398438 67.324219 112.875 62.847656 118.398438 62.847656 C 123.917969 62.847656 128.398438 67.324219 128.398438 72.847656 "/>
<path style="fill-rule:nonzero;fill:rgb(100%,0%,0%);fill-opacity:1;stroke-width:1;stroke-linecap:butt;stroke-linejoin:miter;stroke:rgb(0%,0%,0%);stroke-opacity:1;stroke-miterlimit:10;" d="M 67.65625 135.800781 C 67.65625 141.324219 63.179688 145.800781 57.65625 145.800781 C 52.132812 145.800781 47.65625 141.324219 47.65625 135.800781 C 47.65625 130.277344 52.132812 125.800781 57.65625 125.800781 C 63.179688 125.800781 67.65625 130.277344 67.65625 135.800781 "/>
<path style="fill-rule:nonzero;fill:rgb(100%,0%,0%);fill-opacity:1;stroke-width:1;stroke-linecap:butt;stroke-linejoin:miter;stroke:rgb(0%,0%,0%);stroke-opacity:1;stroke-miterlimit:10;" d="M 52.417969 51.179688 C 52.417969 56.703125 47.941406 61.179688 42.417969 61.179688 C 36.898438 61.179688 32.417969 56.703125 32.417969 51.179688 C 32.417969 45.65625 36.898438 41.179688 42.417969 41.179688 C 47.941406 41.179688 52.417969 45.65625 52.417969 51.179688 "/>
<path style="fill-rule:nonzero;fill:rgb(100%,0%,0%);fill-opacity:1;stroke-width:1;stroke-linecap:butt;stroke-linejoin:miter;stroke:rgb(0%,0%,0%);stroke-opacity:1;stroke-miterlimit:10;" d="M 158.269531 49.65625 C 158.269531 55.179688 153.792969 59.65625 148.269531 59.65625 C 142.746094 59.65625 138.269531 55.179688 138.269531 49.65625 C 138.269531 44.132812 142.746094 39.65625 148.269531 39.65625 C 153.792969 39.65625 158.269531 44.132812 158.269531 49.65625 "/>
<path style="fill-rule:nonzero;fill:rgb(100%,0%,0%);fill-opacity:1;stroke-width:1;stroke-linecap:butt;stroke-linejoin:miter;stroke:rgb(0%,0%,0%);stroke-opacity:1;stroke-miterlimit:10;" d="M 102.046875 94.003906 C 102.046875 99.527344 97.570312 104.003906 92.046875 104.003906 C 86.523438 104.003906 82.046875 99.527344 82.046875 94.003906 C 82.046875 88.480469 86.523438 84.003906 92.046875 84.003906 C 97.570312 84.003906 102.046875 88.480469 102.046875 94.003906 "/>
<path style="fill-rule:nonzero;fill:rgb(100%,0%,0%);fill-opacity:1;stroke-width:1;stroke-linecap:butt;stroke-linejoin:miter;stroke:rgb(0%,0%,0%);stroke-opacity:1;stroke-miterlimit:10;" d="M 116.332031 180 C 116.332031 185.523438 111.855469 190 106.332031 190 C 100.808594 190 96.332031 185.523438 96.332031 180 C 96.332031 174.476562 100.808594 170 106.332031 170 C 111.855469 170 116.332031 174.476562 116.332031 180 "/>
<path style="fill-rule:nonzero;fill:rgb(100%,0%,0%);fill-opacity:1;stroke-width:1;stroke-linecap:butt;stroke-linejoin:miter;stroke:rgb(0%,0%,0%);stroke-opacity:1;stroke-miterlimit:10;" d="M 190 82.96875 C 190 88.492188 185.523438 92.96875 180 92.96875 C 174.476562 92.96875 170 88.492188 170 82.96875 C 170 77.449219 174.476562 72.96875 180 72.96875 C 185.523438 72.96875 190 77.449219 190 82.96875 "/>
<path style="fill-rule:nonzero;fill:rgb(100%,0%,0%);fill-opacity:1;stroke-width:1;stroke-linecap:butt;stroke-linejoin:miter;stroke:rgb(0%,0%,0%);stroke-opacity:1;stroke-miterlimit:10;" d="M 89.804688 37.574219 C 89.804688 43.097656 85.328125 47.574219 79.804688 47.574219 C 74.28125 47.574219 69.804688 43.097656 69.804688 37.574219 C 69.804688 32.054688 74.28125 27.574219 79.804688 27.574219 C 85.328125 27.574219 89.804688 32.054688 89.804688 37.574219 "/>
<path style="fill-rule:nonzero;fill:rgb(100%,0%,0%);fill-opacity:1;stroke-width:1;stroke-linecap:butt;stroke-linejoin:miter;stroke:rgb(0%,0%,0%);stroke-opacity:1;stroke-miterlimit:10;" d="M 79.421875 108.089844 C 79.421875 113.613281 74.945312 118.089844 69.421875 118.089844 C 63.898438 118.089844 59.421875 113.613281 59.421875 108.089844 C 59.421875 102.570312 63.898438 98.089844 69.421875 98.089844 C 74.945312 98.089844 79.421875 102.570312 79.421875 108.089844 "/>
<path style="fill-rule:nonzero;fill:rgb(100%,0%,0%);fill-opacity:1;stroke-width:1;stroke-linecap:butt;stroke-linejoin:miter;stroke:rgb(0%,0%,0%);stroke-opacity:1;stroke-miterlimit:10;" d="M 142.039062 85.984375 C 142.039062 91.507812 137.5625 95.984375 132.039062 95.984375 C 126.515625 95.984375 122.039062 91.507812 122.039062 85.984375 C 122.039062 80.460938 126.515625 75.984375 132.039062 75.984375 C 137.5625 75.984375 142.039062 80.460938 142.039062 85.984375 "/>
<path style="fill-rule:nonzero;fill:rgb(100%,0%,0%);fill-opacity:1;stroke-width:1;stroke-linecap:butt;stroke-linejoin:miter;stroke:rgb(0%,0%,0%);stroke-opacity:1;stroke-miterlimit:10;" d="M 134.46875 20 C 134.46875 25.523438 129.992188 30 124.46875 30 C 118.945312 30 114.46875 25.523438 114.46875 20 C 114.46875 14.476562 118.945312 10 124.46875 10 C 129.992188 10 134.46875 14.476562 134.46875 20 "/>
</g>
</svg>
