<?xml version="1.0" encoding="UTF-8"?>
<svg xmlns="http://www.w3.org/2000/svg" xmlns:xlink="http://www.w3.org/1999/xlink" width="200pt" height="200pt" viewBox="0 0 200 200" version="1.1">
<g id="surface8">
<rect x="0" y="0" width="200" height="200" style="fill:rgb(100%,100%,100%);fill-opacity:1;stroke:none;"/>
<path style="fill:none;stroke-width:1;stroke-linecap:butt;stroke-linejoin:miter;stroke:rgb(26.666667%,26.666667%,26.666667%);stroke-opacity:1;stroke-miterlimit:10;" d="M 20 98.414062 L 22.042969 49.984375 "/>
<path style="fill:none;stroke-width:1;stroke-linecap:butt;stroke-linejoin:miter;stroke:rgb(26.666667%,26.666667%,26.666667%);stroke-opacity:1;stroke-miterlimit:10;" d="M 20 98.414062 L 26.738281 116.5 "/>
<path style="fill:none;stroke-width:1;stroke-linecap:butt;stroke-linejoin:miter;stroke:rgb(26.666667%,26.666667%,26.666667%);stroke-opacity:1;stroke-miterlimit:10;" d="M 20 98.414062 L 51.027344 63.320312 "/>
<path style="fill:none;stroke-width:1;stroke-linecap:butt;stroke-linejoin:miter;stroke:rgb(26.666667%,26.666667%,26.666667%);stroke-opacity:1;stroke-miterlimit:10;" d="M 22.042969 49.984375 L 29.910156 25.226562 "/>
<path style="fill:none;stroke-width:1;stroke-linecap:butt;stroke-linejoin:miter;stroke:rgb(26.666667%,26.666667%,26.666667%);stroke-opacity:1;stroke-miterlimit:10;" d="M 22.042969 49.984375 L 51.027344 63.320312 "/>
<path style="fill:none;stroke-width:1;stroke-linecap:butt;stroke-linejoin:miter;stroke:rgb(26.666667%,26.666667%,26.666667%);stroke-opacity:1;stroke-miterlimit:10;" d="M 22.042969 49.984375 L 58.347656 46.894531 "/>
<path style="fill:none;stroke-width:1;stroke-linecap:butt;stroke-linejoin:miter;stroke:rgb(26.666667%,26.666667%,26.666667%);stroke-opacity:1;stroke-miterlimit:10;" d="M 26.738281 116.5 L 67.644531 142.71875 "/>
<path style="fill:none;stroke-width:1;stroke-linecap:butt;stroke-linejoin:miter;stroke:rgb(26.666667%,26.666667%,26.666667%);stroke-opacity:1;stroke-miterlimit:10;" d="M 29.910156 25.226562 L 51.027344 63.320312 "/>
<path style="fill:none;stroke-width:1;stroke-linecap:butt;stroke-linejoin:miter;stroke:rgb(26.666667%,26.666667%,26.666667%);stroke-opacity:1;stroke-miterlimit:10;" d="M 29.910156 25.226562 L 58.347656 46.894531 "/>
<path style="fill:none;stroke-width:1;stroke-linecap:butt;stroke-linejoin:miter;stroke:rgb(26.666667%,26.666667%,26.666667%);stroke-opacity:1;stroke-miterlimit:10;" d="M 51.027344 63.320312 L 58.347656 46.894531 "/>
<path style="fill:none;stroke-width:1;stroke-linecap:butt;stroke-linejoin:miter;stroke:rgb(26.666667%,26.666667%,26.666667%);stroke-opacity:1;stroke-miterlimit:10;" d="M 51.027344 63.320312 L 100.859375 64.394531 "/>
<path style="fill:none;stroke-width:1;stroke-linecap:butt;stroke-linejoin:miter;stroke:rgb(26.666667%,26.666667%,26.666667%);stroke-opacity:1;stroke-miterlimit:10;" d="M 58.347656 46.894531 L 100.859375 64.394531 "/>
<path style="fill:none;stroke-width:1;stroke-linecap:butt;stroke-linejoin:miter;stroke:rgb(26.666667%,26.666667%,26.666667%);stroke-opacity:1;stroke-miterlimit:10;" d="M 65.488281 178.53125 L 65.527344 153.832031 "/>
<path style="fill:none;stroke-width:1;stroke-linecap:butt;stroke-linejoin:miter;stroke:rgb(26.666667%,26.666667%,26.666667%);stroke-opacity:1;stroke-miterlimit:10;" d="M 65.488281 178.53125 L 67.644531 142.71875 "/>
<path style="fill:none;stroke-width:1;stroke-linecap:butt;stroke-linejoin:miter;stroke:rgb(26.666667%,26.666667%,26.666667%);stroke-opacity:1;stroke-miterlimit:10;" d="M 65.488281 178.53125 L 79.875 166.605469 "/>
<path style="fill:none;stroke-width:1;stroke-linecap:butt;stroke-linejoin:miter;stroke:rgb(26.666667%,26.666667%,26.666667%);stroke-opacity:1;stroke-miterlimit:10;" d="M 65.527344 153.832031 L 67.644531 142.71875 "/>
<path style="fill:none;stroke-width:1;stroke-linecap:butt;stroke-linejoin:miter;stroke:rgb(26.666667%,26.666667%,26.666667%);stroke-opacity:1;stroke-miterlimit:10;" d="M 65.527344 153.832031 L 79.875 166.605469 "/>
<path style="fill:none;stroke-width:1;stroke-linecap:butt;stroke-linejoin:miter;stroke:rgb(26.666667%,26.666667%,26.666667%);stroke-opacity:1;stroke-miterlimit:10;" d="M 65.527344 153.832031 L 114.5625 155.945312 "/>
<path style="fill:none;stroke-width:1;stroke-linecap:butt;stroke-linejoin:miter;stroke:rgb(26.666667%,26.666667%,26.666667%);stroke-opacity:1;stroke-miterlimit:10;" d="M 67.644531 142.71875 L 79.875 166.605469 "/>
<path style="fill:none;stroke-width:1;stroke-linecap:butt;stroke-linejoin:miter;stroke:rgb(26.666667%,26.666667%,26.666667%);stroke-opacity:1;stroke-miterlimit:10;" d="M 67.644531 142.71875 L 107.367188 125.367188 "/>
<path style="fill:none;stroke-width:1;stroke-linecap:butt;stroke-linejoin:miter;stroke:rgb(26.666667%,26.666667%,26.666667%);stroke-opacity:1;stroke-miterlimit:10;" d="M 67.644531 142.71875 L 114.5625 155.945312 "/>
<path style="fill:none;stroke-width:1;stroke-linecap:butt;stroke-linejoin:miter;stroke:rgb(26.666667%,26.666667%,26.666667%);stroke-opacity:1;stroke-miterlimit:10;" d="M 79.875 166.605469 L 107.367188 125.367188 "/>
<path style="fill:none;stroke-width:1;stroke-linecap:butt;stroke-linejoin:miter;stroke:rgb(26.666667%,26.666667%,26.666667%);stroke-opacity:1;stroke-miterlimit:10;" d="M 79.875 166.605469 L 114.5625 155.945312 "/>
<path style="fill:none;stroke-width:1;stroke-linecap:butt;stroke-linejoin:miter;stroke:rgb(26.666667%,26.666667%,26.666667%);stroke-opacity:1;stroke-miterlimit:10;" d="M 100.859375 64.394531 L 120.902344 87.519531 "/>
<path style="fill:none;stroke-width:1;stroke-linecap:butt;stroke-linejoin:miter;stroke:rgb(26.666667%,26.666667%,26.666667%);stroke-opacity:1;stroke-miterlimit:10;" d="M 107.367188 125.367188 L 114.5625 155.945312 "/>
<path style="fill:none;stroke-width:1;stroke-linecap:butt;stroke-linejoin:miter;stroke:rgb(26.666667%,26.666667%,26.666667%);stroke-opacity:1;stroke-miterlimit:10;" d="M 107.367188 125.367188 L 117.628906 126.375 "/>
<path style="fill:none;stroke-width:1;stroke-linecap:butt;stroke-linejoin:miter;stroke:rgb(26.666667%,26.666667%,26.666667%);stroke-opacity:1;stroke-miterlimit:10;" d="M 107.367188 125.367188 L 120.902344 87.519531 "/>
<path style="fill:none;stroke-width:1;stroke-linecap:butt;stroke-linejoin:miter;stroke:rgb(26.666667%,26.666667%,26.666667%);stroke-opacity:1;stroke-miterlimit:10;" d="M 114.5625 155.945312 L 117.628906 126.375 "/>
<path style="fill:none;stroke-width:1;stroke-linecap:butt;stroke-linejoin:miter;stroke:rgb(26.666667%,26.666667%,26.666667%);stroke-opacity:1;stroke-miterlimit:10;" d="M 117.628906 126.375 L 120.902344 87.519531 "/>
<path style="fill:none;stroke-width:1;stroke-linecap:butt;stroke-linejoin:miter;stroke:rgb(26.666667%,26.666667%,26.666667%);stroke-opacity:1;stroke-miterlimit:10;" d="M 161.691406 180 L 169.070312 172.871094 "/>
<path style="fill:none;stroke-width:1;stroke-linecap:butt;stroke-linejoin:miter;stroke:rgb(26.666667%,26.666667%,26.666667%);stroke-opacity:1;stroke-miterlimit:10;" d="M 162.355469 20 L 169.96875 28.597656 "/>
<path style="fill-rule:nonzero;fill:rgb(100%,0%,0%);fill-opacity:1;stroke-width:1;stroke-linecap:butt;stroke-linejoin:miter;stroke:rgb(0%,0%,0%);stroke-opacity:1;stroke-miterlimit:10;" d="M 30 98.414062 C 30 103.9375 25.523438 108.414062 20 108.414062 C 14.476562 108.414062 10 103.9375 10 98.414062 C 10 92.890625 14.476562 88.414062 20 88.414062 C 25.523438 88.414062 30 92.890625 30 98.414062 "/>
<path style="fill-rule:nonzero;fill:rgb(100%,0%,0%);fill-opacity:1;stroke-width:1;stroke-linecap:butt;stroke-linejoin:miter;stroke:rgb(0%,0%,0%);stroke-opacity:1;stroke-miterlimit:10;" d="M 32.042969 49.984375 C 32.042969 55.507812 27.566406 59.984375 22.042969 59.984375 C 16.523438 59.984375 12.042969 55.507812 12.042969 49.984375 C 12.042969 44.460938 16.523438 39.984375 22.042969 39.984375 C 27.566406 39.984375 32.042969 44.460938 32.042969 49.984375 "/>
<path style="fill-rule:nonzero;fill:rgb(100%,0%,0%);fill-opacity:1;stroke-width:1;stroke-linecap:butt;stroke-linejoin:miter;stroke:rgb(0%,0%,0%);stroke-opacity:1;stroke-miterlimit:10;" d="M 36.738281 116.5 C 36.738281 122.023438 32.261719 126.5 26.738281 126.5 C 21.214844 126.5 16.738281 122.023438 16.738281 116.5 C 16.738281 110.980469 21.214844 106.5 26.738281 106.5 C 32.261719 106.5 36.738281 110.980469 36.738281 116.5 "/>
<path style="fill-rule:nonzero;fill:rgb(100%,0%,0%);fill-opacity:1;stroke-width:1;stroke-linecap:butt;stroke-linejoin:miter;stroke:rgb(0%,0%,0%);stroke-opacity:1;stroke-miterlimit:10;" d="M 39.910156 25.226562 C 39.910156 30.75 35.433594 35.226562 29.910156 35.226562 C 24.386719 35.226562 19.910156 30.75 19.910156 25.226562 C 19.910156 19.703125 24.386719 15.226562 29.910156 15.226562 C 35.433594 15.226562 39.910156 19.703125 39.910156 25.226562 "/>
<path style="fill-rule:nonzero;fill:rgb(100%,0%,0%);fill-opacity:1;stroke-width:1;stroke-linecap:butt;stroke-linejoin:miter;stroke:rgb(0%,0%,0%);stroke-opacity:1;stroke-miterlimit:10;" d="M 61.027344 63.320312 C 61.027344 68.84375 56.550781 73.320312 51.027344 73.320312 C 45.507812 73.320312 41.027344 68.84375 41.027344 63.320312 C 41.027344 57.796875 45.507812 53.320312 51.027344 53.320312 C 56.550781 53.320312 61.027344 57.796875 61.027344 63.320312 "/>
<path style="fill-rule:nonzero;fill:rgb(100%,0%,0%);fill-opacity:1;stroke-width:1;stroke-linecap:butt;stroke-linejoin:miter;stroke:rgb(0%,0%,0%);stroke-opacity:1;stroke-miterlimit:10;" d="M 68.347656 46.894531 C 68.347656 52.417969 63.871094 56.894531 58.347656 56.894531 C 52.824219 56.894531 48.347656 52.417969 48.347656 46.894531 C 48.347656 41.375 52.824219 36.894531 58.347656 36.894531 C 63.871094 36.894531 68.347656 41.375 68.347656 46.894531 "/>
<path style="fill-rule:nonzero;fill:rgb(100%,0%,0%);fill-opacity:1;stroke-width:1;stroke-linecap:butt;stroke-linejoin:miter;stroke:rgb(0%,0%,0%);stroke-opacity:1;stroke-miterlimit:10;" d="M 75.488281 178.53125 C 75.488281 184.054688 71.011719 188.53125 65.488281 188.53125 C 59.964844 188.53125 55.488281 184.054688 55.488281 178.53125 C 55.488281 173.007812 59.964844 168.53125 65.488281 168.53125 C 71.011719 168.53125 75.488281 173.007812 75.488281 178.53125 "/>
<path style="fill-rule:nonzero;fill:rgb(100%,0%,0%);fill-opacity:1;stroke-width:1;stroke-linecap:butt;stroke-linejoin:miter;stroke:rgb(0%,0%,0%);stroke-opacity:1;stroke-miterlimit:10;" d="M 75.527344 153.832031 C 75.527344 159.355469 71.050781 163.832031 65.527344 163.832031 C 60.003906 163.832031 55.527344 159.355469 55.527344 153.832031 C 55.527344 148.308594 60.003906 143.832031 65.527344 143.832031 C 71.050781 143.832031 75.527344 148.308594 75.527344 153.832031 "/>
<path style="fill-rule:nonzero;fill:rgb(100%,0%,0%);fill-opacity:1;stroke-width:1;stroke-linecap:butt;stroke-linejoin:miter;stroke:rgb(0%,0%,0%);stroke-opacity:1;stroke-miterlimit:10;" d="M 77.644531 142.71875 C 77.644531 148.238281 73.167969 152.71875 67.644531 152.71875 C 62.121094 152.71875 57.644531 148.238281 57.644531 142.71875 C 57.644531 137.195312 62.121094 132.71875 67.644531 132.71875 C 73.167969 132.71875 77.644531 137.195312 77.644531 142.71875 "/>
<path style="fill-rule:nonzero;fill:rgb(100%,0%,0%);fill-opacity:1;stroke-width:1;stroke-linecap:butt;stroke-linejoin:miter;stroke:rgb(0%,0%,0%);stroke-opacity:1;stroke-miterlimit:10;" d="M 89.875 166.605469 C 89.875 172.125 85.398438 176.605469 79.875 176.605469 C 74.351562 176.605469 69.875 172.125 69.875 166.605469 C 69.875 161.082031 74.351562 156.605469 79.875 156.605469 C 85.398438 156.605469 89.875 161.082031 89.875 166.605469 "/>
<path style="fill-rule:nonzero;fill:rgb(100%,0%,0%);fill-opacity:1;stroke-width:1;stroke-linecap:butt;stroke-linejoin:miter;stroke:rgb(0%,0%,0%);stroke-opacity:1;stroke-miterlimit:10;" d="M 110.859375 64.394531 C 110.859375 69.917969 106.382812 74.394531 100.859375 74.394531 C 95.335938 74.394531 90.859375 69.917969 90.859375 64.394531 C 90.859375 58.871094 95.335938 54.394531 100.859375 54.394531 C 106.382812 54.394531 110.859375 58.871094 110.859375 64.394531 "/>
<path style="fill-rule:nonzero;fill:rgb(100%,0%,0%);fill-opacity:1;stroke-width:1;stroke-linecap:butt;stroke-linejoin:miter;stroke:rgb(0%,0%,0%);stroke-opacity:1;stroke-miterlimit:10;" d="M 117.367188 125.367188 C 117.367188 130.890625 112.890625 135.367188 107.367188 135.367188 C 101.84375 135.367188 97.367188 130.890625 97.367188 125.367188 C 97.367188 119.847656 101.84375 115.367188 107.367188 115.367188 C 112.890625 115.367188 117.367188 119.847656 117.367188 125.367188 "/>
<path style="fill-rule:nonzero;fill:rgb(100%,0%,0%);fill-opacity:1;stroke-width:1;stroke-linecap:butt;stroke-linejoin:miter;stroke:rgb(0%,0%,0%);stroke-opacity:1;stroke-miterlimit:10;" d="M 124.5625 155.945312 C 124.5625 161.464844 120.085938 165.945312 114.5625 165.945312 C 109.039062 165.945312 104.5625 161.464844 104.5625 155.945312 C 104.5625 150.421875 109.039062 145.945312 114.5625 145.945312 C 120.085938 145.945312 124.5625 150.421875 124.5625 155.945312 "/>
<path style="fill-rule:nonzero;fill:rgb(100%,0%,0%);fill-opacity:1;stroke-width:1;stroke-linecap:butt;stroke-linejoin:miter;stroke:rgb(0%,0%,0%);stroke-opacity:1;stroke-miterlimit:10;" d="M 127.628906 126.375 C 127.628906 131.898438 123.148438 136.375 117.628906 136.375 C 112.105469 136.375 107.628906 131.898438 107.628906 126.375 C 107.628906 120.851562 112.105469 116.375 117.628906 116.375 C 123.148438 116.375 127.628906 120.851562 127.628906 126.375 "/>
<path style="fill-rule:nonzero;fill:rgb(100%,0%,0%);fill-opacity:1;stroke-width:1;stroke-linecap:butt;stroke-linejoin:miter;stroke:rgb(0%,0%,0%);stroke-opacity:1;stroke-miterlimit:10;" d="M 130.902344 87.519531 C 130.902344 93.042969 126.425781 97.519531 120.902344 97.519531 C 115.378906 97.519531 110.902344 93.042969 110.902344 87.519531 C 110.902344 81.996094 115.378906 77.519531 120.902344 77.519531 C 126.425781 77.519531 130.902344 81.996094 130.902344 87.519531 "/>
<path style="fill-rule:nonzero;fill:rgb(100%,0%,0%);fill-opacity:1;stroke-width:1;stroke-linecap:butt;stroke-linejoin:miter;stroke:rgb(0%,0%,0%);stroke-opacity:1;stroke-miterlimit:10;" d="M 171.691406 180 C 171.691406 185.523438 167.210938 190 161.691406 190 C 156.167969 190 151.691406 185.523438 151.691406 180 C 151.691406 174.476562 156.167969 170 161.691406 170 C 167.210938 170 171.691406 174.476562 171.691406 180 "/>
<path style="fill-rule:nonzero;fill:rgb(100%,0%,0%);fill-opacity:1;stroke-width:1;stroke-linecap:butt;stroke-linejoin:miter;stroke:rgb(0%,0%,0%);stroke-opacity:1;stroke-miterlimit:10;" d="M 172.355469 20 C 172.355469 25.523438 167.878906 30 162.355469 30 C 156.832031 30 152.355469 25.523438 152.355469 20 C 152.355469 14.476562 156.832031 10 162.355469 10 C 167.878906 10 172.355469 14.476562 172.355469 20 "/>
<path style="fill-rule:nonzero;fill:rgb(100%,0%,0%);fill-opacity:1;stroke-width:1;stroke-linecap:butt;stroke-linejoin:miter;stroke:rgb(0%,0%,0%);stroke-opacity:1;stroke-miterlimit:10;" d="M 179.070312 172.871094 C 179.070312 178.394531 174.59375 182.871094 169.070312 182.871094 C 163.546875 182.871094 159.070312 178.394531 159.070312 172.871094 C 159.070312 167.347656 163.546875 162.871094 169.070312 162.871094 C 174.59375 162.871094 179.070312 167.347656 179.070312 172.871094 "/>
<path style="fill-rule:nonzero;fill:rgb(100%,0%,0%);fill-opacity:1;stroke-width:1;stroke-linecap:butt;stroke-linejoin:miter;stroke:rgb(0%,0%,0%);stroke-opacity:1;stroke-miterlimit:10;" d="M 179.96875 28.597656 C 179.96875 34.121094 175.488281 38.597656 169.96875 38.597656 C 164.445312 38.597656 159.96875 34.121094 159.96875 28.597656 C 159.96875 23.074219 164.445312 18.597656 169.96875 18.597656 C 175.488281 18.597656 179.96875 23.074219 179.96875 28.597656 "/>
<path style="fill-rule:nonzero;fill:rgb(100%,0%,0%);fill-opacity:1;stroke-width:1;stroke-linecap:butt;stroke-linejoin:miter;stroke:rgb(0%,0%,0%);stroke-opacity:1;stroke-miterlimit:10;" d="M 190 96.140625 C 190 101.664062 185.523438 106.140625 180 106.140625 C 174.476562 106.140625 170 101.664062 170 96.140625 C 170 90.617188 174.476562 86.140625 180 86.140625 C 185.523438 86.140625 190 90.617188 190 96.140625 "/>
</g>
</svg>
