<?xml version="1.0" encoding="UTF-8"?>
<svg xmlns="http://www.w3.org/2000/svg" xmlns:xlink="http://www.w3.org/1999/xlink" width="200pt" height="200pt" viewBox="0 0 200 200" version="1.1">
<g id="surface14">
<rect x="0" y="0" width="200" height="200" style="fill:rgb(100%,100%,100%);fill-opacity:1;stroke:none;"/>
<path style="fill:none;stroke-width:1;stroke-linecap:butt;stroke-linejoin:miter;stroke:rgb(26.666667%,26.666667%,26.666667%);stroke-opacity:1;stroke-miterlimit:10;" d="M 20 62.738281 L 29.144531 93.8125 "/>
<path style="fill:none;stroke-width:1;stroke-linecap:butt;stroke-linejoin:miter;stroke:rgb(26.666667%,26.666667%,26.666667%);stroke-opacity:1;stroke-miterlimit:10;" d="M 138.011719 95.003906 L 180 91.570312 "/>
<path style="fill:none;stroke-width:1;stroke-linecap:butt;stroke-linejoin:miter;stroke:rgb(26.666667%,26.666667%,26.666667%);stroke-opacity:1;stroke-miterlimit:10;" d="M 114.253906 55.441406 L 88.355469 49.023438 "/>
<path style="fill:none;stroke-width:1;stroke-linecap:butt;stroke-linejoin:miter;stroke:rgb(26.666667%,26.666667%,26.666667%);stroke-opacity:1;stroke-miterlimit:10;" d="M 119.78125 102.101562 L 131.03125 63.300781 "/>
<path style="fill:none;stroke-width:1;stroke-linecap:butt;stroke-linejoin:miter;stroke:rgb(26.666667%,26.666667%,26.666667%);stroke-opacity:1;stroke-miterlimit:10;" d="M 138.011719 95.003906 L 131.03125 63.300781 "/>
<path style="fill:none;stroke-width:1;stroke-linecap:butt;stroke-linejoin:miter;stroke:rgb(26.666667%,26.666667%,26.666667%);stroke-opacity:1;stroke-miterlimit:10;" d="M 88.355469 49.023438 L 86.007812 33.839844 "/>
<path style="fill:none;stroke-width:1;stroke-linecap:butt;stroke-linejoin:miter;stroke:rgb(26.666667%,26.666667%,26.666667%);stroke-opacity:1;stroke-miterlimit:10;" d="M 131.03125 63.300781 L 86.007812 33.839844 "/>
<path style="fill:none;stroke-width:1;stroke-linecap:butt;stroke-linejoin:miter;stroke:rgb(26.666667%,26.666667%,26.666667%);stroke-opacity:1;stroke-miterlimit:10;" d="M 102.847656 148.921875 L 105.511719 180 "/>
<path style="fill:none;stroke-width:1;stroke-linecap:butt;stroke-linejoin:miter;stroke:rgb(26.666667%,26.666667%,26.666667%);stroke-opacity:1;stroke-miterlimit:10;" d="M 138.011719 95.003906 L 100.589844 81.996094 "/>
<path style="fill:none;stroke-width:1;stroke-linecap:butt;stroke-linejoin:miter;stroke:rgb(26.666667%,26.666667%,26.666667%);stroke-opacity:1;stroke-miterlimit:10;" d="M 114.253906 55.441406 L 100.589844 81.996094 "/>
<path style="fill:none;stroke-width:1;stroke-linecap:butt;stroke-linejoin:miter;stroke:rgb(26.666667%,26.666667%,26.666667%);stroke-opacity:1;stroke-miterlimit:10;" d="M 88.355469 49.023438 L 100.589844 81.996094 "/>
<path style="fill:none;stroke-width:1;stroke-linecap:butt;stroke-linejoin:miter;stroke:rgb(26.666667%,26.666667%,26.666667%);stroke-opacity:1;stroke-miterlimit:10;" d="M 20 62.738281 L 46.976562 41.085938 "/>
<path style="fill:none;stroke-width:1;stroke-linecap:butt;stroke-linejoin:miter;stroke:rgb(26.666667%,26.666667%,26.666667%);stroke-opacity:1;stroke-miterlimit:10;" d="M 86.007812 33.839844 L 46.976562 41.085938 "/>
<path style="fill:none;stroke-width:1;stroke-linecap:butt;stroke-linejoin:miter;stroke:rgb(26.666667%,26.666667%,26.666667%);stroke-opacity:1;stroke-miterlimit:10;" d="M 29.144531 93.8125 L 79.085938 91.785156 "/>
<path style="fill:none;stroke-width:1;stroke-linecap:butt;stroke-linejoin:miter;stroke:rgb(26.666667%,26.666667%,26.666667%);stroke-opacity:1;stroke-miterlimit:10;" d="M 119.78125 102.101562 L 79.085938 91.785156 "/>
<path style="fill:none;stroke-width:1;stroke-linecap:butt;stroke-linejoin:miter;stroke:rgb(26.666667%,26.666667%,26.666667%);stroke-opacity:1;stroke-miterlimit:10;" d="M 114.253906 55.441406 L 79.085938 91.785156 "/>
<path style="fill:none;stroke-width:1;stroke-linecap:butt;stroke-linejoin:miter;stroke:rgb(26.666667%,26.666667%,26.666667%);stroke-opacity:1;stroke-miterlimit:10;" d="M 114.253906 55.441406 L 109.199219 20 "/>
<path style="fill:none;stroke-width:1;stroke-linecap:butt;stroke-linejoin:miter;stroke:rgb(26.666667%,26.666667%,26.666667%);stroke-opacity:1;stroke-miterlimit:10;" d="M 88.355469 49.023438 L 109.199219 20 "/>
<path style="fill:none;stroke-width:1;stroke-linecap:butt;stroke-linejoin:miter;stroke:rgb(26.666667%,26.666667%,26.666667%);stroke-opacity:1;stroke-miterlimit:10;" d="M 86.007812 33.839844 L 109.199219 20 "/>
<path style="fill:none;stroke-width:1;stroke-linecap:butt;stroke-linejoin:miter;stroke:rgb(26.666667%,26.666667%,26.666667%);stroke-opacity:1;stroke-miterlimit:10;" d="M 119.78125 102.101562 L 98.460938 115.941406 "/>
<path style="fill:none;stroke-width:1;stroke-linecap:butt;stroke-linejoin:miter;stroke:rgb(26.666667%,26.666667%,26.666667%);stroke-opacity:1;stroke-miterlimit:10;" d="M 138.011719 95.003906 L 98.460938 115.941406 "/>
<path style="fill:none;stroke-width:1;stroke-linecap:butt;stroke-linejoin:miter;stroke:rgb(26.666667%,26.666667%,26.666667%);stroke-opacity:1;stroke-miterlimit:10;" d="M 102.847656 148.921875 L 98.460938 115.941406 "/>
<path style="fill:none;stroke-width:1;stroke-linecap:butt;stroke-linejoin:miter;stroke:rgb(26.666667%,26.666667%,26.666667%);stroke-opacity:1;stroke-miterlimit:10;" d="M 56.019531 107.90625 L 98.460938 115.941406 "/>
<path style="fill:none;stroke-width:1;stroke-linecap:butt;stroke-linejoin:miter;stroke:rgb(26.666667%,26.666667%,26.666667%);stroke-opacity:1;stroke-miterlimit:10;" d="M 100.589844 81.996094 L 98.460938 115.941406 "/>
<path style="fill:none;stroke-width:1;stroke-linecap:butt;stroke-linejoin:miter;stroke:rgb(26.666667%,26.666667%,26.666667%);stroke-opacity:1;stroke-miterlimit:10;" d="M 79.085938 91.785156 L 98.460938 115.941406 "/>
<path style="fill:none;stroke-width:1;stroke-linecap:butt;stroke-linejoin:miter;stroke:rgb(26.666667%,26.666667%,26.666667%);stroke-opacity:1;stroke-miterlimit:10;" d="M 131.03125 63.300781 L 83.917969 62.847656 "/>
<path style="fill:none;stroke-width:1;stroke-linecap:butt;stroke-linejoin:miter;stroke:rgb(26.666667%,26.666667%,26.666667%);stroke-opacity:1;stroke-miterlimit:10;" d="M 46.976562 41.085938 L 83.917969 62.847656 "/>
<path style="fill:none;stroke-width:1;stroke-linecap:butt;stroke-linejoin:miter;stroke:rgb(26.666667%,26.666667%,26.666667%);stroke-opacity:1;stroke-miterlimit:10;" d="M 79.085938 91.785156 L 83.917969 62.847656 "/>
<path style="fill:none;stroke-width:1;stroke-linecap:butt;stroke-linejoin:miter;stroke:rgb(26.666667%,26.666667%,26.666667%);stroke-opacity:1;stroke-miterlimit:10;" d="M 180 91.570312 L 174.464844 58.328125 "/>
<path style="fill:none;stroke-width:1;stroke-linecap:butt;stroke-linejoin:miter;stroke:rgb(26.666667%,26.666667%,26.666667%);stroke-opacity:1;stroke-miterlimit:10;" d="M 131.03125 63.300781 L 174.464844 58.328125 "/>
<path style="fill:none;stroke-width:1;stroke-linecap:butt;stroke-linejoin:miter;stroke:rgb(26.666667%,26.666667%,26.666667%);stroke-opacity:1;stroke-miterlimit:10;" d="M 20 62.738281 L 58.617188 66.699219 "/>
<path style="fill:none;stroke-width:1;stroke-linecap:butt;stroke-linejoin:miter;stroke:rgb(26.666667%,26.666667%,26.666667%);stroke-opacity:1;stroke-miterlimit:10;" d="M 56.019531 107.90625 L 58.617188 66.699219 "/>
<path style="fill:none;stroke-width:1;stroke-linecap:butt;stroke-linejoin:miter;stroke:rgb(26.666667%,26.666667%,26.666667%);stroke-opacity:1;stroke-miterlimit:10;" d="M 88.355469 49.023438 L 58.617188 66.699219 "/>
<path style="fill:none;stroke-width:1;stroke-linecap:butt;stroke-linejoin:miter;stroke:rgb(26.666667%,26.666667%,26.666667%);stroke-opacity:1;stroke-miterlimit:10;" d="M 86.007812 33.839844 L 58.617188 66.699219 "/>
<path style="fill:none;stroke-width:1;stroke-linecap:butt;stroke-linejoin:miter;stroke:rgb(26.666667%,26.666667%,26.666667%);stroke-opacity:1;stroke-miterlimit:10;" d="M 100.589844 81.996094 L 58.617188 66.699219 "/>
<path style="fill:none;stroke-width:1;stroke-linecap:butt;stroke-linejoin:miter;stroke:rgb(26.666667%,26.666667%,26.666667%);stroke-opacity:1;stroke-miterlimit:10;" d="M 46.976562 41.085938 L 58.617188 66.699219 "/>
<path style="fill-rule:nonzero;fill:rgb(100%,0%,0%);fill-opacity:1;stroke-width:1;stroke-linecap:butt;stroke-linejoin:miter;stroke:rgb(0%,0%,0%);stroke-opacity:1;stroke-miterlimit:10;" d="M 30 62.738281 C 30 68.261719 25.523438 72.738281 20 72.738281 C 14.476562 72.738281 10 68.261719 10 62.738281 C 10 57.214844 14.476562 52.738281 20 52.738281 C 25.523438 52.738281 30 57.214844 30 62.738281 "/>
<path style="fill-rule:nonzero;fill:rgb(100%,0%,0%);fill-opacity:1;stroke-width:1;stroke-linecap:butt;stroke-linejoin:miter;stroke:rgb(0%,0%,0%);stroke-opacity:1;stroke-miterlimit:10;" d="M 39.144531 93.8125 C 39.144531 99.335938 34.667969 103.8125 29.144531 103.8125 C 23.621094 103.8125 19.144531 99.335938 19.144531 93.8125 C 19.144531 88.292969 23.621094 83.8125 29.144531 83.8125 C 34.667969 83.8125 39.144531 88.292969 39.144531 93.8125 "/>
<path style="fill-rule:nonzero;fill:rgb(100%,0%,0%);fill-opacity:1;stroke-width:1;stroke-linecap:butt;stroke-linejoin:miter;stroke:rgb(0%,0%,0%);stroke-opacity:1;stroke-miterlimit:10;" d="M 129.78125 102.101562 C 129.78125 107.625 125.304688 112.101562 119.78125 112.101562 C 114.257812 112.101562 109.78125 107.625 109.78125 102.101562 C 109.78125 96.582031 114.257812 92.101562 119.78125 92.101562 C 125.304688 92.101562 129.78125 96.582031 129.78125 102.101562 "/>
<path style="fill-rule:nonzero;fill:rgb(100%,0%,0%);fill-opacity:1;stroke-width:1;stroke-linecap:butt;stroke-linejoin:miter;stroke:rgb(0%,0%,0%);stroke-opacity:1;stroke-miterlimit:10;" d="M 148.011719 95.003906 C 148.011719 100.523438 143.535156 105.003906 138.011719 105.003906 C 132.488281 105.003906 128.011719 100.523438 128.011719 95.003906 C 128.011719 89.480469 132.488281 85.003906 138.011719 85.003906 C 143.535156 85.003906 148.011719 89.480469 148.011719 95.003906 "/>
<path style="fill-rule:nonzero;fill:rgb(100%,0%,0%);fill-opacity:1;stroke-width:1;stroke-linecap:butt;stroke-linejoin:miter;stroke:rgb(0%,0%,0%);stroke-opacity:1;stroke-miterlimit:10;" d="M 190 91.570312 C 190 97.09375 185.523438 101.570312 180 101.570312 C 174.476562 101.570312 170 97.09375 170 91.570312 C 170 86.050781 174.476562 81.570312 180 81.570312 C 185.523438 81.570312 190 86.050781 190 91.570312 "/>
<path style="fill-rule:nonzero;fill:rgb(100%,0%,0%);fill-opacity:1;stroke-width:1;stroke-linecap:butt;stroke-linejoin:miter;stroke:rgb(0%,0%,0%);stroke-opacity:1;stroke-miterlimit:10;" d="M 112.847656 148.921875 C 112.847656 154.445312 108.367188 158.921875 102.847656 158.921875 C 97.324219 158.921875 92.847656 154.445312 92.847656 148.921875 C 92.847656 143.398438 97.324219 138.921875 102.847656 138.921875 C 108.367188 138.921875 112.847656 143.398438 112.847656 148.921875 "/>
<path style="fill-rule:nonzero;fill:rgb(100%,0%,0%);fill-opacity:1;stroke-width:1;stroke-linecap:butt;stroke-linejoin:miter;stroke:rgb(0%,0%,0%);stroke-opacity:1;stroke-miterlimit:10;" d="M 66.019531 107.90625 C 66.019531 113.429688 61.539062 117.90625 56.019531 117.90625 C 50.496094 117.90625 46.019531 113.429688 46.019531 107.90625 C 46.019531 102.382812 50.496094 97.90625 56.019531 97.90625 C 61.539062 97.90625 66.019531 102.382812 66.019531 107.90625 "/>
<path style="fill-rule:nonzero;fill:rgb(100%,0%,0%);fill-opacity:1;stroke-width:1;stroke-linecap:butt;stroke-linejoin:miter;stroke:rgb(0%,0%,0%);stroke-opacity:1;stroke-miterlimit:10;" d="M 124.253906 55.441406 C 124.253906 60.964844 119.777344 65.441406 114.253906 65.441406 C 108.734375 65.441406 104.253906 60.964844 104.253906 55.441406 C 104.253906 49.917969 108.734375 45.441406 114.253906 45.441406 C 119.777344 45.441406 124.253906 49.917969 124.253906 55.441406 "/>
<path style="fill-rule:nonzero;fill:rgb(100%,0%,0%);fill-opacity:1;stroke-width:1;stroke-linecap:butt;stroke-linejoin:miter;stroke:rgb(0%,0%,0%);stroke-opacity:1;stroke-miterlimit:10;" d="M 98.355469 49.023438 C 98.355469 54.546875 93.878906 59.023438 88.355469 59.023438 C 82.835938 59.023438 78.355469 54.546875 78.355469 49.023438 C 78.355469 43.5 82.835938 39.023438 88.355469 39.023438 C 93.878906 39.023438 98.355469 43.5 98.355469 49.023438 "/>
<path style="fill-rule:nonzero;fill:rgb(100%,0%,0%);fill-opacity:1;stroke-width:1;stroke-linecap:butt;stroke-linejoin:miter;stroke:rgb(0%,0%,0%);stroke-opacity:1;stroke-miterlimit:10;" d="M 141.03125 63.300781 C 141.03125 68.824219 136.554688 73.300781 131.03125 73.300781 C 125.507812 73.300781 121.03125 68.824219 121.03125 63.300781 C 121.03125 57.777344 125.507812 53.300781 131.03125 53.300781 C 136.554688 53.300781 141.03125 57.777344 141.03125 63.300781 "/>
<path style="fill-rule:nonzero;fill:rgb(100%,0%,0%);fill-opacity:1;stroke-width:1;stroke-linecap:butt;stroke-linejoin:miter;stroke:rgb(0%,0%,0%);stroke-opacity:1;stroke-miterlimit:10;" d="M 96.007812 33.839844 C 96.007812 39.363281 91.53125 43.839844 86.007812 43.839844 C 80.484375 43.839844 76.007812 39.363281 76.007812 33.839844 C 76.007812 28.316406 80.484375 23.839844 86.007812 23.839844 C 91.53125 23.839844 96.007812 28.316406 96.007812 33.839844 "/>
<path style="fill-rule:nonzero;fill:rgb(100%,0%,0%);fill-opacity:1;stroke-width:1;stroke-linecap:butt;stroke-linejoin:miter;stroke:rgb(0%,0%,0%);stroke-opacity:1;stroke-miterlimit:10;" d="M 115.511719 180 C 115.511719 185.523438 111.035156 190 105.511719 190 C 99.992188 190 95.511719 185.523438 95.511719 180 C 95.511719 174.476562 99.992188 170 105.511719 170 C 111.035156 170 115.511719 174.476562 115.511719 180 "/>
<path style="fill-rule:nonzero;fill:rgb(100%,0%,0%);fill-opacity:1;stroke-width:1;stroke-linecap:butt;stroke-linejoin:miter;stroke:rgb(0%,0%,0%);stroke-opacity:1;stroke-miterlimit:10;" d="M 110.589844 81.996094 C 110.589844 87.519531 106.113281 91.996094 100.589844 91.996094 C 95.066406 91.996094 90.589844 87.519531 90.589844 81.996094 C 90.589844 76.472656 95.066406 71.996094 100.589844 71.996094 C 106.113281 71.996094 110.589844 76.472656 110.589844 81.996094 "/>
<path style="fill-rule:nonzero;fill:rgb(100%,0%,0%);fill-opacity:1;stroke-width:1;stroke-linecap:butt;stroke-linejoin:miter;stroke:rgb(0%,0%,0%);stroke-opacity:1;stroke-miterlimit:10;" d="M 56.976562 41.085938 C 56.976562 46.605469 52.5 51.085938 46.976562 51.085938 C 41.453125 51.085938 36.976562 46.605469 36.976562 41.085938 C 36.976562 35.5625 41.453125 31.085938 46.976562 31.085938 C 52.5 31.085938 56.976562 35.5625 56.976562 41.085938 "/>
<path style="fill-rule:nonzero;fill:rgb(100%,0%,0%);fill-opacity:1;stroke-width:1;stroke-linecap:butt;stroke-linejoin:miter;stroke:rgb(0%,0%,0%);stroke-opacity:1;stroke-miterlimit:10;" d="M 89.085938 91.785156 C 89.085938 97.308594 84.609375 101.785156 79.085938 101.785156 C 73.5625 101.785156 69.085938 97.308594 69.085938 91.785156 C 69.085938 86.261719 73.5625 81.785156 79.085938 81.785156 C 84.609375 81.785156 89.085938 86.261719 89.085938 91.785156 "/>
<path style="fill-rule:nonzero;fill:rgb(100%,0%,0%);fill-opacity:1;stroke-width:1;stroke-linecap:butt;stroke-linejoin:miter;stroke:rgb(0%,0%,0%);stroke-opacity:1;stroke-miterlimit:10;" d="M 119.199219 20 C 119.199219 25.523438 114.722656 30 109.199219 30 C 103.675781 30 99.199219 25.523438 99.199219 20 C 99.199219 14.476562 103.675781 10 109.199219 10 C 114.722656 10 119.199219 14.476562 119.199219 20 "/>
<path style="fill-rule:nonzero;fill:rgb(100%,0%,0%);fill-opacity:1;stroke-width:1;stroke-linecap:butt;stroke-linejoin:miter;stroke:rgb(0%,0%,0%);stroke-opacity:1;stroke-miterlimit:10;" d="M 108.460938 115.941406 C 108.460938 121.464844 103.980469 125.941406 98.460938 125.941406 C 92.9375 125.941406 88.460938 121.464844 88.460938 115.941406 C 88.460938 110.417969 92.9375 105.941406 98.460938 105.941406 C 103.980469 105.941406 108.460938 110.417969 108.460938 115.941406 "/>
<path style="fill-rule:nonzero;fill:rgb(100%,0%,0%);fill-opacity:1;stroke-width:1;stroke-linecap:butt;stroke-linejoin:miter;stroke:rgb(0%,0%,0%);stroke-opacity:1;stroke-miterlimit:10;" d="M 93.917969 62.847656 C 93.917969 68.371094 89.4375 72.847656 83.917969 72.847656 C 78.394531 72.847656 73.917969 68.371094 73.917969 62.847656 C 73.917969 57.324219 78.394531 52.847656 83.917969 52.847656 C 89.4375 52.847656 93.917969 57.324219 93.917969 62.847656 "/>
<path style="fill-rule:nonzero;fill:rgb(100%,0%,0%);fill-opacity:1;stroke-width:1;stroke-linecap:butt;stroke-linejoin:miter;stroke:rgb(0%,0%,0%);stroke-opacity:1;stroke-miterlimit:10;" d="M 184.464844 58.328125 C 184.464844 63.851562 179.988281 68.328125 174.464844 68.328125 C 168.941406 68.328125 164.464844 63.851562 164.464844 58.328125 C 164.464844 52.804688 168.941406 48.328125 174.464844 48.328125 C 179.988281 48.328125 184.464844 52.804688 184.464844 58.328125 "/>
<path style="fill-rule:nonzero;fill:rgb(100%,0%,0%);fill-opacity:1;stroke-width:1;stroke-linecap:butt;stroke-linejoin:miter;stroke:rgb(0%,0%,0%);stroke-opacity:1;stroke-miterlimit:10;" d="M 68.617188 66.699219 C 68.617188 72.222656 64.140625 76.699219 58.617188 76.699219 C 53.097656 76.699219 48.617188 72.222656 48.617188 66.699219 C 48.617188 61.175781 53.097656 56.699219 58.617188 56.699219 C 64.140625 56.699219 68.617188 61.175781 68.617188 66.699219 "/>
</g>
</svg>
