<?xml version="1.0" encoding="UTF-8"?>
<svg xmlns="http://www.w3.org/2000/svg" xmlns:xlink="http://www.w3.org/1999/xlink" width="200pt" height="200pt" viewBox="0 0 200 200" version="1.1">
<g id="surface14">
<rect x="0" y="0" width="200" height="200" style="fill:rgb(100%,100%,100%);fill-opacity:1;stroke:none;"/>
<path style="fill:none;stroke-width:1;stroke-linecap:butt;stroke-linejoin:miter;stroke:rgb(26.666667%,26.666667%,26.666667%);stroke-opacity:1;stroke-miterlimit:10;" d="M 88.558594 64.191406 L 137.082031 99.558594 "/>
<path style="fill:none;stroke-width:1;stroke-linecap:butt;stroke-linejoin:miter;stroke:rgb(26.666667%,26.666667%,26.666667%);stroke-opacity:1;stroke-miterlimit:10;" d="M 137.082031 99.558594 L 82.597656 93.109375 "/>
<path style="fill:none;stroke-width:1;stroke-linecap:butt;stroke-linejoin:miter;stroke:rgb(26.666667%,26.666667%,26.666667%);stroke-opacity:1;stroke-miterlimit:10;" d="M 88.558594 64.191406 L 60.691406 36.980469 "/>
<path style="fill:none;stroke-width:1;stroke-linecap:butt;stroke-linejoin:miter;stroke:rgb(26.666667%,26.666667%,26.666667%);stroke-opacity:1;stroke-miterlimit:10;" d="M 88.558594 64.191406 L 145.121094 52.671875 "/>
<path style="fill:none;stroke-width:1;stroke-linecap:butt;stroke-linejoin:miter;stroke:rgb(26.666667%,26.666667%,26.666667%);stroke-opacity:1;stroke-miterlimit:10;" d="M 137.082031 99.558594 L 145.121094 52.671875 "/>
<path style="fill:none;stroke-width:1;stroke-linecap:butt;stroke-linejoin:miter;stroke:rgb(26.666667%,26.666667%,26.666667%);stroke-opacity:1;stroke-miterlimit:10;" d="M 180 20 L 145.121094 52.671875 "/>
<path style="fill:none;stroke-width:1;stroke-linecap:butt;stroke-linejoin:miter;stroke:rgb(26.666667%,26.666667%,26.666667%);stroke-opacity:1;stroke-miterlimit:10;" d="M 60.859375 171.257812 L 20 178.3125 "/>
<path style="fill:none;stroke-width:1;stroke-linecap:butt;stroke-linejoin:miter;stroke:rgb(26.666667%,26.666667%,26.666667%);stroke-opacity:1;stroke-miterlimit:10;" d="M 88.558594 64.191406 L 44.402344 111.796875 "/>
<path style="fill:none;stroke-width:1;stroke-linecap:butt;stroke-linejoin:miter;stroke:rgb(26.666667%,26.666667%,26.666667%);stroke-opacity:1;stroke-miterlimit:10;" d="M 60.859375 171.257812 L 44.402344 111.796875 "/>
<path style="fill:none;stroke-width:1;stroke-linecap:butt;stroke-linejoin:miter;stroke:rgb(26.666667%,26.666667%,26.666667%);stroke-opacity:1;stroke-miterlimit:10;" d="M 93.75 114.140625 L 44.402344 111.796875 "/>
<path style="fill:none;stroke-width:1;stroke-linecap:butt;stroke-linejoin:miter;stroke:rgb(26.666667%,26.666667%,26.666667%);stroke-opacity:1;stroke-miterlimit:10;" d="M 137.082031 99.558594 L 146.992188 131.234375 "/>
<path style="fill:none;stroke-width:1;stroke-linecap:butt;stroke-linejoin:miter;stroke:rgb(26.666667%,26.666667%,26.666667%);stroke-opacity:1;stroke-miterlimit:10;" d="M 93.75 114.140625 L 146.992188 131.234375 "/>
<path style="fill:none;stroke-width:1;stroke-linecap:butt;stroke-linejoin:miter;stroke:rgb(26.666667%,26.666667%,26.666667%);stroke-opacity:1;stroke-miterlimit:10;" d="M 113.902344 180 L 65.917969 152.523438 "/>
<path style="fill:none;stroke-width:1;stroke-linecap:butt;stroke-linejoin:miter;stroke:rgb(26.666667%,26.666667%,26.666667%);stroke-opacity:1;stroke-miterlimit:10;" d="M 82.597656 93.109375 L 65.917969 152.523438 "/>
<path style="fill:none;stroke-width:1;stroke-linecap:butt;stroke-linejoin:miter;stroke:rgb(26.666667%,26.666667%,26.666667%);stroke-opacity:1;stroke-miterlimit:10;" d="M 20 178.3125 L 65.917969 152.523438 "/>
<path style="fill:none;stroke-width:1;stroke-linecap:butt;stroke-linejoin:miter;stroke:rgb(26.666667%,26.666667%,26.666667%);stroke-opacity:1;stroke-miterlimit:10;" d="M 93.75 114.140625 L 65.917969 152.523438 "/>
<path style="fill:none;stroke-width:1;stroke-linecap:butt;stroke-linejoin:miter;stroke:rgb(26.666667%,26.666667%,26.666667%);stroke-opacity:1;stroke-miterlimit:10;" d="M 44.402344 111.796875 L 65.917969 152.523438 "/>
<path style="fill:none;stroke-width:1;stroke-linecap:butt;stroke-linejoin:miter;stroke:rgb(26.666667%,26.666667%,26.666667%);stroke-opacity:1;stroke-miterlimit:10;" d="M 88.558594 64.191406 L 72.878906 117.484375 "/>
<path style="fill:none;stroke-width:1;stroke-linecap:butt;stroke-linejoin:miter;stroke:rgb(26.666667%,26.666667%,26.666667%);stroke-opacity:1;stroke-miterlimit:10;" d="M 60.859375 171.257812 L 72.878906 117.484375 "/>
<path style="fill:none;stroke-width:1;stroke-linecap:butt;stroke-linejoin:miter;stroke:rgb(26.666667%,26.666667%,26.666667%);stroke-opacity:1;stroke-miterlimit:10;" d="M 93.75 114.140625 L 72.878906 117.484375 "/>
<path style="fill:none;stroke-width:1;stroke-linecap:butt;stroke-linejoin:miter;stroke:rgb(26.666667%,26.666667%,26.666667%);stroke-opacity:1;stroke-miterlimit:10;" d="M 65.917969 152.523438 L 72.878906 117.484375 "/>
<path style="fill:none;stroke-width:1;stroke-linecap:butt;stroke-linejoin:miter;stroke:rgb(26.666667%,26.666667%,26.666667%);stroke-opacity:1;stroke-miterlimit:10;" d="M 20 178.3125 L 29.140625 136.328125 "/>
<path style="fill:none;stroke-width:1;stroke-linecap:butt;stroke-linejoin:miter;stroke:rgb(26.666667%,26.666667%,26.666667%);stroke-opacity:1;stroke-miterlimit:10;" d="M 44.402344 111.796875 L 29.140625 136.328125 "/>
<path style="fill:none;stroke-width:1;stroke-linecap:butt;stroke-linejoin:miter;stroke:rgb(26.666667%,26.666667%,26.666667%);stroke-opacity:1;stroke-miterlimit:10;" d="M 82.597656 93.109375 L 46.355469 85.199219 "/>
<path style="fill:none;stroke-width:1;stroke-linecap:butt;stroke-linejoin:miter;stroke:rgb(26.666667%,26.666667%,26.666667%);stroke-opacity:1;stroke-miterlimit:10;" d="M 60.691406 36.980469 L 46.355469 85.199219 "/>
<path style="fill:none;stroke-width:1;stroke-linecap:butt;stroke-linejoin:miter;stroke:rgb(26.666667%,26.666667%,26.666667%);stroke-opacity:1;stroke-miterlimit:10;" d="M 93.75 114.140625 L 46.355469 85.199219 "/>
<path style="fill:none;stroke-width:1;stroke-linecap:butt;stroke-linejoin:miter;stroke:rgb(26.666667%,26.666667%,26.666667%);stroke-opacity:1;stroke-miterlimit:10;" d="M 29.140625 136.328125 L 46.355469 85.199219 "/>
<path style="fill:none;stroke-width:1;stroke-linecap:butt;stroke-linejoin:miter;stroke:rgb(26.666667%,26.666667%,26.666667%);stroke-opacity:1;stroke-miterlimit:10;" d="M 113.902344 180 L 152.070312 158.1875 "/>
<path style="fill:none;stroke-width:1;stroke-linecap:butt;stroke-linejoin:miter;stroke:rgb(26.666667%,26.666667%,26.666667%);stroke-opacity:1;stroke-miterlimit:10;" d="M 137.082031 99.558594 L 152.070312 158.1875 "/>
<path style="fill:none;stroke-width:1;stroke-linecap:butt;stroke-linejoin:miter;stroke:rgb(26.666667%,26.666667%,26.666667%);stroke-opacity:1;stroke-miterlimit:10;" d="M 113.902344 180 L 113.007812 117.15625 "/>
<path style="fill:none;stroke-width:1;stroke-linecap:butt;stroke-linejoin:miter;stroke:rgb(26.666667%,26.666667%,26.666667%);stroke-opacity:1;stroke-miterlimit:10;" d="M 82.597656 93.109375 L 113.007812 117.15625 "/>
<path style="fill:none;stroke-width:1;stroke-linecap:butt;stroke-linejoin:miter;stroke:rgb(26.666667%,26.666667%,26.666667%);stroke-opacity:1;stroke-miterlimit:10;" d="M 146.992188 131.234375 L 113.007812 117.15625 "/>
<path style="fill:none;stroke-width:1;stroke-linecap:butt;stroke-linejoin:miter;stroke:rgb(26.666667%,26.666667%,26.666667%);stroke-opacity:1;stroke-miterlimit:10;" d="M 72.878906 117.484375 L 113.007812 117.15625 "/>
<path style="fill:none;stroke-width:1;stroke-linecap:butt;stroke-linejoin:miter;stroke:rgb(26.666667%,26.666667%,26.666667%);stroke-opacity:1;stroke-miterlimit:10;" d="M 46.355469 85.199219 L 113.007812 117.15625 "/>
<path style="fill:none;stroke-width:1;stroke-linecap:butt;stroke-linejoin:miter;stroke:rgb(26.666667%,26.666667%,26.666667%);stroke-opacity:1;stroke-miterlimit:10;" d="M 137.082031 99.558594 L 103.9375 149.144531 "/>
<path style="fill:none;stroke-width:1;stroke-linecap:butt;stroke-linejoin:miter;stroke:rgb(26.666667%,26.666667%,26.666667%);stroke-opacity:1;stroke-miterlimit:10;" d="M 60.859375 171.257812 L 103.9375 149.144531 "/>
<path style="fill:none;stroke-width:1;stroke-linecap:butt;stroke-linejoin:miter;stroke:rgb(26.666667%,26.666667%,26.666667%);stroke-opacity:1;stroke-miterlimit:10;" d="M 93.75 114.140625 L 103.9375 149.144531 "/>
<path style="fill:none;stroke-width:1;stroke-linecap:butt;stroke-linejoin:miter;stroke:rgb(26.666667%,26.666667%,26.666667%);stroke-opacity:1;stroke-miterlimit:10;" d="M 146.992188 131.234375 L 103.9375 149.144531 "/>
<path style="fill:none;stroke-width:1;stroke-linecap:butt;stroke-linejoin:miter;stroke:rgb(26.666667%,26.666667%,26.666667%);stroke-opacity:1;stroke-miterlimit:10;" d="M 72.878906 117.484375 L 103.9375 149.144531 "/>
<path style="fill:none;stroke-width:1;stroke-linecap:butt;stroke-linejoin:miter;stroke:rgb(26.666667%,26.666667%,26.666667%);stroke-opacity:1;stroke-miterlimit:10;" d="M 29.140625 136.328125 L 103.9375 149.144531 "/>
<path style="fill:none;stroke-width:1;stroke-linecap:butt;stroke-linejoin:miter;stroke:rgb(26.666667%,26.666667%,26.666667%);stroke-opacity:1;stroke-miterlimit:10;" d="M 152.070312 158.1875 L 103.9375 149.144531 "/>
<path style="fill:none;stroke-width:1;stroke-linecap:butt;stroke-linejoin:miter;stroke:rgb(26.666667%,26.666667%,26.666667%);stroke-opacity:1;stroke-miterlimit:10;" d="M 113.007812 117.15625 L 103.9375 149.144531 "/>
<path style="fill:none;stroke-width:1;stroke-linecap:butt;stroke-linejoin:miter;stroke:rgb(26.666667%,26.666667%,26.666667%);stroke-opacity:1;stroke-miterlimit:10;" d="M 88.558594 64.191406 L 110.125 68.648438 "/>
<path style="fill:none;stroke-width:1;stroke-linecap:butt;stroke-linejoin:miter;stroke:rgb(26.666667%,26.666667%,26.666667%);stroke-opacity:1;stroke-miterlimit:10;" d="M 60.691406 36.980469 L 110.125 68.648438 "/>
<path style="fill:none;stroke-width:1;stroke-linecap:butt;stroke-linejoin:miter;stroke:rgb(26.666667%,26.666667%,26.666667%);stroke-opacity:1;stroke-miterlimit:10;" d="M 145.121094 52.671875 L 110.125 68.648438 "/>
<path style="fill:none;stroke-width:1;stroke-linecap:butt;stroke-linejoin:miter;stroke:rgb(26.666667%,26.666667%,26.666667%);stroke-opacity:1;stroke-miterlimit:10;" d="M 93.75 114.140625 L 110.125 68.648438 "/>
<path style="fill:none;stroke-width:1;stroke-linecap:butt;stroke-linejoin:miter;stroke:rgb(26.666667%,26.666667%,26.666667%);stroke-opacity:1;stroke-miterlimit:10;" d="M 72.878906 117.484375 L 110.125 68.648438 "/>
<path style="fill:none;stroke-width:1;stroke-linecap:butt;stroke-linejoin:miter;stroke:rgb(26.666667%,26.666667%,26.666667%);stroke-opacity:1;stroke-miterlimit:10;" d="M 113.007812 117.15625 L 110.125 68.648438 "/>
<path style="fill-rule:nonzero;fill:rgb(100%,0%,0%);fill-opacity:1;stroke-width:1;stroke-linecap:butt;stroke-linejoin:miter;stroke:rgb(0%,0%,0%);stroke-opacity:1;stroke-miterlimit:10;" d="M 98.558594 64.191406 C 98.558594 69.714844 94.078125 74.191406 88.558594 74.191406 C 83.035156 74.191406 78.558594 69.714844 78.558594 64.191406 C 78.558594 58.667969 83.035156 54.191406 88.558594 54.191406 C 94.078125 54.191406 98.558594 58.667969 98.558594 64.191406 "/>
<path style="fill-rule:nonzero;fill:rgb(100%,0%,0%);fill-opacity:1;stroke-width:1;stroke-linecap:butt;stroke-linejoin:miter;stroke:rgb(0%,0%,0%);stroke-opacity:1;stroke-miterlimit:10;" d="M 123.902344 180 C 123.902344 185.523438 119.421875 190 113.902344 190 C 108.378906 190 103.902344 185.523438 103.902344 180 C 103.902344 174.476562 108.378906 170 113.902344 170 C 119.421875 170 123.902344 174.476562 123.902344 180 "/>
<path style="fill-rule:nonzero;fill:rgb(100%,0%,0%);fill-opacity:1;stroke-width:1;stroke-linecap:butt;stroke-linejoin:miter;stroke:rgb(0%,0%,0%);stroke-opacity:1;stroke-miterlimit:10;" d="M 147.082031 99.558594 C 147.082031 105.082031 142.601562 109.558594 137.082031 109.558594 C 131.558594 109.558594 127.082031 105.082031 127.082031 99.558594 C 127.082031 94.035156 131.558594 89.558594 137.082031 89.558594 C 142.601562 89.558594 147.082031 94.035156 147.082031 99.558594 "/>
<path style="fill-rule:nonzero;fill:rgb(100%,0%,0%);fill-opacity:1;stroke-width:1;stroke-linecap:butt;stroke-linejoin:miter;stroke:rgb(0%,0%,0%);stroke-opacity:1;stroke-miterlimit:10;" d="M 92.597656 93.109375 C 92.597656 98.632812 88.121094 103.109375 82.597656 103.109375 C 77.074219 103.109375 72.597656 98.632812 72.597656 93.109375 C 72.597656 87.585938 77.074219 83.109375 82.597656 83.109375 C 88.121094 83.109375 92.597656 87.585938 92.597656 93.109375 "/>
<path style="fill-rule:nonzero;fill:rgb(100%,0%,0%);fill-opacity:1;stroke-width:1;stroke-linecap:butt;stroke-linejoin:miter;stroke:rgb(0%,0%,0%);stroke-opacity:1;stroke-miterlimit:10;" d="M 70.859375 171.257812 C 70.859375 176.78125 66.378906 181.257812 60.859375 181.257812 C 55.335938 181.257812 50.859375 176.78125 50.859375 171.257812 C 50.859375 165.738281 55.335938 161.257812 60.859375 161.257812 C 66.378906 161.257812 70.859375 165.738281 70.859375 171.257812 "/>
<path style="fill-rule:nonzero;fill:rgb(100%,0%,0%);fill-opacity:1;stroke-width:1;stroke-linecap:butt;stroke-linejoin:miter;stroke:rgb(0%,0%,0%);stroke-opacity:1;stroke-miterlimit:10;" d="M 190 20 C 190 25.523438 185.523438 30 180 30 C 174.476562 30 170 25.523438 170 20 C 170 14.476562 174.476562 10 180 10 C 185.523438 10 190 14.476562 190 20 "/>
<path style="fill-rule:nonzero;fill:rgb(100%,0%,0%);fill-opacity:1;stroke-width:1;stroke-linecap:butt;stroke-linejoin:miter;stroke:rgb(0%,0%,0%);stroke-opacity:1;stroke-miterlimit:10;" d="M 70.691406 36.980469 C 70.691406 42.5 66.214844 46.980469 60.691406 46.980469 C 55.167969 46.980469 50.691406 42.5 50.691406 36.980469 C 50.691406 31.457031 55.167969 26.980469 60.691406 26.980469 C 66.214844 26.980469 70.691406 31.457031 70.691406 36.980469 "/>
<path style="fill-rule:nonzero;fill:rgb(100%,0%,0%);fill-opacity:1;stroke-width:1;stroke-linecap:butt;stroke-linejoin:miter;stroke:rgb(0%,0%,0%);stroke-opacity:1;stroke-miterlimit:10;" d="M 155.121094 52.671875 C 155.121094 58.195312 150.644531 62.671875 145.121094 62.671875 C 139.601562 62.671875 135.121094 58.195312 135.121094 52.671875 C 135.121094 47.148438 139.601562 42.671875 145.121094 42.671875 C 150.644531 42.671875 155.121094 47.148438 155.121094 52.671875 "/>
<path style="fill-rule:nonzero;fill:rgb(100%,0%,0%);fill-opacity:1;stroke-width:1;stroke-linecap:butt;stroke-linejoin:miter;stroke:rgb(0%,0%,0%);stroke-opacity:1;stroke-miterlimit:10;" d="M 30 178.3125 C 30 183.835938 25.523438 188.3125 20 188.3125 C 14.476562 188.3125 10 183.835938 10 178.3125 C 10 172.789062 14.476562 168.3125 20 168.3125 C 25.523438 168.3125 30 172.789062 30 178.3125 "/>
<path style="fill-rule:nonzero;fill:rgb(100%,0%,0%);fill-opacity:1;stroke-width:1;stroke-linecap:butt;stroke-linejoin:miter;stroke:rgb(0%,0%,0%);stroke-opacity:1;stroke-miterlimit:10;" d="M 103.75 114.140625 C 103.75 119.664062 99.273438 124.140625 93.75 124.140625 C 88.230469 124.140625 83.75 119.664062 83.75 114.140625 C 83.75 108.621094 88.230469 104.140625 93.75 104.140625 C 99.273438 104.140625 103.75 108.621094 103.75 114.140625 "/>
<path style="fill-rule:nonzero;fill:rgb(100%,0%,0%);fill-opacity:1;stroke-width:1;stroke-linecap:butt;stroke-linejoin:miter;stroke:rgb(0%,0%,0%);stroke-opacity:1;stroke-miterlimit:10;" d="M 54.402344 111.796875 C 54.402344 117.320312 49.925781 121.796875 44.402344 121.796875 C 38.878906 121.796875 34.402344 117.320312 34.402344 111.796875 C 34.402344 106.273438 38.878906 101.796875 44.402344 101.796875 C 49.925781 101.796875 54.402344 106.273438 54.402344 111.796875 "/>
<path style="fill-rule:nonzero;fill:rgb(100%,0%,0%);fill-opacity:1;stroke-width:1;stroke-linecap:butt;stroke-linejoin:miter;stroke:rgb(0%,0%,0%);stroke-opacity:1;stroke-miterlimit:10;" d="M 156.992188 131.234375 C 156.992188 136.753906 152.515625 141.234375 146.992188 141.234375 C 141.46875 141.234375 136.992188 136.753906 136.992188 131.234375 C 136.992188 125.710938 141.46875 121.234375 146.992188 121.234375 C 152.515625 121.234375 156.992188 125.710938 156.992188 131.234375 "/>
<path style="fill-rule:nonzero;fill:rgb(100%,0%,0%);fill-opacity:1;stroke-width:1;stroke-linecap:butt;stroke-linejoin:miter;stroke:rgb(0%,0%,0%);stroke-opacity:1;stroke-miterlimit:10;" d="M 75.917969 152.523438 C 75.917969 158.046875 71.4375 162.523438 65.917969 162.523438 C 60.394531 162.523438 55.917969 158.046875 55.917969 152.523438 C 55.917969 147.003906 60.394531 142.523438 65.917969 142.523438 C 71.4375 142.523438 75.917969 147.003906 75.917969 152.523438 "/>
<path style="fill-rule:nonzero;fill:rgb(100%,0%,0%);fill-opacity:1;stroke-width:1;stroke-linecap:butt;stroke-linejoin:miter;stroke:rgb(0%,0%,0%);stroke-opacity:1;stroke-miterlimit:10;" d="M 82.878906 117.484375 C 82.878906 123.007812 78.402344 127.484375 72.878906 127.484375 C 67.355469 127.484375 62.878906 123.007812 62.878906 117.484375 C 62.878906 111.964844 67.355469 107.484375 72.878906 107.484375 C 78.402344 107.484375 82.878906 111.964844 82.878906 117.484375 "/>
<path style="fill-rule:nonzero;fill:rgb(100%,0%,0%);fill-opacity:1;stroke-width:1;stroke-linecap:butt;stroke-linejoin:miter;stroke:rgb(0%,0%,0%);stroke-opacity:1;stroke-miterlimit:10;" d="M 39.140625 136.328125 C 39.140625 141.851562 34.664062 146.328125 29.140625 146.328125 C 23.617188 146.328125 19.140625 141.851562 19.140625 136.328125 C 19.140625 130.808594 23.617188 126.328125 29.140625 126.328125 C 34.664062 126.328125 39.140625 130.808594 39.140625 136.328125 "/>
<path style="fill-rule:nonzero;fill:rgb(100%,0%,0%);fill-opacity:1;stroke-width:1;stroke-linecap:butt;stroke-linejoin:miter;stroke:rgb(0%,0%,0%);stroke-opacity:1;stroke-miterlimit:10;" d="M 56.355469 85.199219 C 56.355469 90.722656 51.875 95.199219 46.355469 95.199219 C 40.832031 95.199219 36.355469 90.722656 36.355469 85.199219 C 36.355469 79.675781 40.832031 75.199219 46.355469 75.199219 C 51.875 75.199219 56.355469 79.675781 56.355469 85.199219 "/>
<path style="fill-rule:nonzero;fill:rgb(100%,0%,0%);fill-opacity:1;stroke-width:1;stroke-linecap:butt;stroke-linejoin:miter;stroke:rgb(0%,0%,0%);stroke-opacity:1;stroke-miterlimit:10;" d="M 162.070312 158.1875 C 162.070312 163.710938 157.59375 168.1875 152.070312 168.1875 C 146.550781 168.1875 142.070312 163.710938 142.070312 158.1875 C 142.070312 152.664062 146.550781 148.1875 152.070312 148.1875 C 157.59375 148.1875 162.070312 152.664062 162.070312 158.1875 "/>
<path style="fill-rule:nonzero;fill:rgb(100%,0%,0%);fill-opacity:1;stroke-width:1;stroke-linecap:butt;stroke-linejoin:miter;stroke:rgb(0%,0%,0%);stroke-opacity:1;stroke-miterlimit:10;" d="M 123.007812 117.15625 C 123.007812 122.679688 118.53125 127.15625 113.007812 127.15625 C 107.484375 127.15625 103.007812 122.679688 103.007812 117.15625 C 103.007812 111.632812 107.484375 107.15625 113.007812 107.15625 C 118.53125 107.15625 123.007812 111.632812 123.007812 117.15625 "/>
<path style="fill-rule:nonzero;fill:rgb(100%,0%,0%);fill-opacity:1;stroke-width:1;stroke-linecap:butt;stroke-linejoin:miter;stroke:rgb(0%,0%,0%);stroke-opacity:1;stroke-miterlimit:10;" d="M 113.9375 149.144531 C 113.9375 154.667969 109.460938 159.144531 103.9375 159.144531 C 98.417969 159.144531 93.9375 154.667969 93.9375 149.144531 C 93.9375 143.621094 98.417969 139.144531 103.9375 139.144531 C 109.460938 139.144531 113.9375 143.621094 113.9375 149.144531 "/>
<path style="fill-rule:nonzero;fill:rgb(100%,0%,0%);fill-opacity:1;stroke-width:1;stroke-linecap:butt;stroke-linejoin:miter;stroke:rgb(0%,0%,0%);stroke-opacity:1;stroke-miterlimit:10;" d="M 120.125 68.648438 C 120.125 74.171875 115.648438 78.648438 110.125 78.648438 C 104.601562 78.648438 100.125 74.171875 100.125 68.648438 C 100.125 63.125 104.601562 58.648438 110.125 58.648438 C 115.648438 58.648438 120.125 63.125 120.125 68.648438 "/>
</g>
</svg>
