<?xml version="1.0" encoding="UTF-8"?>
<svg xmlns="http://www.w3.org/2000/svg" xmlns:xlink="http://www.w3.org/1999/xlink" width="200pt" height="200pt" viewBox="0 0 200 200" version="1.1">
<g id="surface8">
<rect x="0" y="0" width="200" height="200" style="fill:rgb(100%,100%,100%);fill-opacity:1;stroke:none;"/>
<path style="fill:none;stroke-width:1;stroke-linecap:butt;stroke-linejoin:miter;stroke:rgb(26.666667%,26.666667%,26.666667%);stroke-opacity:1;stroke-miterlimit:10;" d="M 20 162.835938 L 32.199219 125.863281 "/>
<path style="fill:none;stroke-width:1;stroke-linecap:butt;stroke-linejoin:miter;stroke:rgb(26.666667%,26.666667%,26.666667%);stroke-opacity:1;stroke-miterlimit:10;" d="M 20 162.835938 L 37.816406 180 "/>
<path style="fill:none;stroke-width:1;stroke-linecap:butt;stroke-linejoin:miter;stroke:rgb(26.666667%,26.666667%,26.666667%);stroke-opacity:1;stroke-miterlimit:10;" d="M 30.445312 63.371094 L 55.957031 99.753906 "/>
<path style="fill:none;stroke-width:1;stroke-linecap:butt;stroke-linejoin:miter;stroke:rgb(26.666667%,26.666667%,26.666667%);stroke-opacity:1;stroke-miterlimit:10;" d="M 30.445312 63.371094 L 64.78125 78.296875 "/>
<path style="fill:none;stroke-width:1;stroke-linecap:butt;stroke-linejoin:miter;stroke:rgb(26.666667%,26.666667%,26.666667%);stroke-opacity:1;stroke-miterlimit:10;" d="M 32.199219 125.863281 L 37.816406 180 "/>
<path style="fill:none;stroke-width:1;stroke-linecap:butt;stroke-linejoin:miter;stroke:rgb(26.666667%,26.666667%,26.666667%);stroke-opacity:1;stroke-miterlimit:10;" d="M 32.199219 125.863281 L 55.957031 99.753906 "/>
<path style="fill:none;stroke-width:1;stroke-linecap:butt;stroke-linejoin:miter;stroke:rgb(26.666667%,26.666667%,26.666667%);stroke-opacity:1;stroke-miterlimit:10;" d="M 37.816406 180 L 78.03125 154.433594 "/>
<path style="fill:none;stroke-width:1;stroke-linecap:butt;stroke-linejoin:miter;stroke:rgb(26.666667%,26.666667%,26.666667%);stroke-opacity:1;stroke-miterlimit:10;" d="M 55.957031 99.753906 L 64.78125 78.296875 "/>
<path style="fill:none;stroke-width:1;stroke-linecap:butt;stroke-linejoin:miter;stroke:rgb(26.666667%,26.666667%,26.666667%);stroke-opacity:1;stroke-miterlimit:10;" d="M 55.957031 99.753906 L 84.285156 55.367188 "/>
<path style="fill:none;stroke-width:1;stroke-linecap:butt;stroke-linejoin:miter;stroke:rgb(26.666667%,26.666667%,26.666667%);stroke-opacity:1;stroke-miterlimit:10;" d="M 64.78125 78.296875 L 84.285156 55.367188 "/>
<path style="fill:none;stroke-width:1;stroke-linecap:butt;stroke-linejoin:miter;stroke:rgb(26.666667%,26.666667%,26.666667%);stroke-opacity:1;stroke-miterlimit:10;" d="M 78.03125 154.433594 L 98.574219 161.628906 "/>
<path style="fill:none;stroke-width:1;stroke-linecap:butt;stroke-linejoin:miter;stroke:rgb(26.666667%,26.666667%,26.666667%);stroke-opacity:1;stroke-miterlimit:10;" d="M 84.285156 55.367188 L 122.640625 61.332031 "/>
<path style="fill:none;stroke-width:1;stroke-linecap:butt;stroke-linejoin:miter;stroke:rgb(26.666667%,26.666667%,26.666667%);stroke-opacity:1;stroke-miterlimit:10;" d="M 84.285156 55.367188 L 124.855469 58.246094 "/>
<path style="fill:none;stroke-width:1;stroke-linecap:butt;stroke-linejoin:miter;stroke:rgb(26.666667%,26.666667%,26.666667%);stroke-opacity:1;stroke-miterlimit:10;" d="M 84.285156 55.367188 L 134.546875 45.6875 "/>
<path style="fill:none;stroke-width:1;stroke-linecap:butt;stroke-linejoin:miter;stroke:rgb(26.666667%,26.666667%,26.666667%);stroke-opacity:1;stroke-miterlimit:10;" d="M 98.574219 161.628906 L 122.707031 119.675781 "/>
<path style="fill:none;stroke-width:1;stroke-linecap:butt;stroke-linejoin:miter;stroke:rgb(26.666667%,26.666667%,26.666667%);stroke-opacity:1;stroke-miterlimit:10;" d="M 98.574219 161.628906 L 129.320312 178.421875 "/>
<path style="fill:none;stroke-width:1;stroke-linecap:butt;stroke-linejoin:miter;stroke:rgb(26.666667%,26.666667%,26.666667%);stroke-opacity:1;stroke-miterlimit:10;" d="M 98.574219 161.628906 L 143.988281 152.773438 "/>
<path style="fill:none;stroke-width:1;stroke-linecap:butt;stroke-linejoin:miter;stroke:rgb(26.666667%,26.666667%,26.666667%);stroke-opacity:1;stroke-miterlimit:10;" d="M 98.574219 161.628906 L 144.355469 155.097656 "/>
<path style="fill:none;stroke-width:1;stroke-linecap:butt;stroke-linejoin:miter;stroke:rgb(26.666667%,26.666667%,26.666667%);stroke-opacity:1;stroke-miterlimit:10;" d="M 122.640625 61.332031 L 124.855469 58.246094 "/>
<path style="fill:none;stroke-width:1;stroke-linecap:butt;stroke-linejoin:miter;stroke:rgb(26.666667%,26.666667%,26.666667%);stroke-opacity:1;stroke-miterlimit:10;" d="M 122.640625 61.332031 L 128.945312 113.046875 "/>
<path style="fill:none;stroke-width:1;stroke-linecap:butt;stroke-linejoin:miter;stroke:rgb(26.666667%,26.666667%,26.666667%);stroke-opacity:1;stroke-miterlimit:10;" d="M 122.640625 61.332031 L 134.546875 45.6875 "/>
<path style="fill:none;stroke-width:1;stroke-linecap:butt;stroke-linejoin:miter;stroke:rgb(26.666667%,26.666667%,26.666667%);stroke-opacity:1;stroke-miterlimit:10;" d="M 122.640625 61.332031 L 164.320312 91.550781 "/>
<path style="fill:none;stroke-width:1;stroke-linecap:butt;stroke-linejoin:miter;stroke:rgb(26.666667%,26.666667%,26.666667%);stroke-opacity:1;stroke-miterlimit:10;" d="M 122.707031 119.675781 L 128.945312 113.046875 "/>
<path style="fill:none;stroke-width:1;stroke-linecap:butt;stroke-linejoin:miter;stroke:rgb(26.666667%,26.666667%,26.666667%);stroke-opacity:1;stroke-miterlimit:10;" d="M 122.707031 119.675781 L 143.988281 152.773438 "/>
<path style="fill:none;stroke-width:1;stroke-linecap:butt;stroke-linejoin:miter;stroke:rgb(26.666667%,26.666667%,26.666667%);stroke-opacity:1;stroke-miterlimit:10;" d="M 122.707031 119.675781 L 144.355469 155.097656 "/>
<path style="fill:none;stroke-width:1;stroke-linecap:butt;stroke-linejoin:miter;stroke:rgb(26.666667%,26.666667%,26.666667%);stroke-opacity:1;stroke-miterlimit:10;" d="M 122.707031 119.675781 L 164.320312 91.550781 "/>
<path style="fill:none;stroke-width:1;stroke-linecap:butt;stroke-linejoin:miter;stroke:rgb(26.666667%,26.666667%,26.666667%);stroke-opacity:1;stroke-miterlimit:10;" d="M 124.855469 58.246094 L 128.945312 113.046875 "/>
<path style="fill:none;stroke-width:1;stroke-linecap:butt;stroke-linejoin:miter;stroke:rgb(26.666667%,26.666667%,26.666667%);stroke-opacity:1;stroke-miterlimit:10;" d="M 124.855469 58.246094 L 134.546875 45.6875 "/>
<path style="fill:none;stroke-width:1;stroke-linecap:butt;stroke-linejoin:miter;stroke:rgb(26.666667%,26.666667%,26.666667%);stroke-opacity:1;stroke-miterlimit:10;" d="M 124.855469 58.246094 L 164.320312 91.550781 "/>
<path style="fill:none;stroke-width:1;stroke-linecap:butt;stroke-linejoin:miter;stroke:rgb(26.666667%,26.666667%,26.666667%);stroke-opacity:1;stroke-miterlimit:10;" d="M 128.945312 113.046875 L 143.988281 152.773438 "/>
<path style="fill:none;stroke-width:1;stroke-linecap:butt;stroke-linejoin:miter;stroke:rgb(26.666667%,26.666667%,26.666667%);stroke-opacity:1;stroke-miterlimit:10;" d="M 128.945312 113.046875 L 144.355469 155.097656 "/>
<path style="fill:none;stroke-width:1;stroke-linecap:butt;stroke-linejoin:miter;stroke:rgb(26.666667%,26.666667%,26.666667%);stroke-opacity:1;stroke-miterlimit:10;" d="M 128.945312 113.046875 L 164.320312 91.550781 "/>
<path style="fill:none;stroke-width:1;stroke-linecap:butt;stroke-linejoin:miter;stroke:rgb(26.666667%,26.666667%,26.666667%);stroke-opacity:1;stroke-miterlimit:10;" d="M 128.945312 113.046875 L 169.703125 144.324219 "/>
<path style="fill:none;stroke-width:1;stroke-linecap:butt;stroke-linejoin:miter;stroke:rgb(26.666667%,26.666667%,26.666667%);stroke-opacity:1;stroke-miterlimit:10;" d="M 129.320312 178.421875 L 143.988281 152.773438 "/>
<path style="fill:none;stroke-width:1;stroke-linecap:butt;stroke-linejoin:miter;stroke:rgb(26.666667%,26.666667%,26.666667%);stroke-opacity:1;stroke-miterlimit:10;" d="M 129.320312 178.421875 L 144.355469 155.097656 "/>
<path style="fill:none;stroke-width:1;stroke-linecap:butt;stroke-linejoin:miter;stroke:rgb(26.666667%,26.666667%,26.666667%);stroke-opacity:1;stroke-miterlimit:10;" d="M 129.320312 178.421875 L 169.703125 144.324219 "/>
<path style="fill:none;stroke-width:1;stroke-linecap:butt;stroke-linejoin:miter;stroke:rgb(26.666667%,26.666667%,26.666667%);stroke-opacity:1;stroke-miterlimit:10;" d="M 134.546875 45.6875 L 180 20 "/>
<path style="fill:none;stroke-width:1;stroke-linecap:butt;stroke-linejoin:miter;stroke:rgb(26.666667%,26.666667%,26.666667%);stroke-opacity:1;stroke-miterlimit:10;" d="M 143.988281 152.773438 L 144.355469 155.097656 "/>
<path style="fill:none;stroke-width:1;stroke-linecap:butt;stroke-linejoin:miter;stroke:rgb(26.666667%,26.666667%,26.666667%);stroke-opacity:1;stroke-miterlimit:10;" d="M 143.988281 152.773438 L 169.703125 144.324219 "/>
<path style="fill:none;stroke-width:1;stroke-linecap:butt;stroke-linejoin:miter;stroke:rgb(26.666667%,26.666667%,26.666667%);stroke-opacity:1;stroke-miterlimit:10;" d="M 144.355469 155.097656 L 169.703125 144.324219 "/>
<path style="fill:none;stroke-width:1;stroke-linecap:butt;stroke-linejoin:miter;stroke:rgb(26.666667%,26.666667%,26.666667%);stroke-opacity:1;stroke-miterlimit:10;" d="M 164.320312 91.550781 L 169.703125 144.324219 "/>
<path style="fill-rule:nonzero;fill:rgb(100%,0%,0%);fill-opacity:1;stroke-width:1;stroke-linecap:butt;stroke-linejoin:miter;stroke:rgb(0%,0%,0%);stroke-opacity:1;stroke-miterlimit:10;" d="M 30 162.835938 C 30 168.359375 25.523438 172.835938 20 172.835938 C 14.476562 172.835938 10 168.359375 10 162.835938 C 10 157.316406 14.476562 152.835938 20 152.835938 C 25.523438 152.835938 30 157.316406 30 162.835938 "/>
<path style="fill-rule:nonzero;fill:rgb(100%,0%,0%);fill-opacity:1;stroke-width:1;stroke-linecap:butt;stroke-linejoin:miter;stroke:rgb(0%,0%,0%);stroke-opacity:1;stroke-miterlimit:10;" d="M 40.445312 63.371094 C 40.445312 68.894531 35.96875 73.371094 30.445312 73.371094 C 24.921875 73.371094 20.445312 68.894531 20.445312 63.371094 C 20.445312 57.847656 24.921875 53.371094 30.445312 53.371094 C 35.96875 53.371094 40.445312 57.847656 40.445312 63.371094 "/>
<path style="fill-rule:nonzero;fill:rgb(100%,0%,0%);fill-opacity:1;stroke-width:1;stroke-linecap:butt;stroke-linejoin:miter;stroke:rgb(0%,0%,0%);stroke-opacity:1;stroke-miterlimit:10;" d="M 42.199219 125.863281 C 42.199219 131.386719 37.722656 135.863281 32.199219 135.863281 C 26.675781 135.863281 22.199219 131.386719 22.199219 125.863281 C 22.199219 120.339844 26.675781 115.863281 32.199219 115.863281 C 37.722656 115.863281 42.199219 120.339844 42.199219 125.863281 "/>
<path style="fill-rule:nonzero;fill:rgb(100%,0%,0%);fill-opacity:1;stroke-width:1;stroke-linecap:butt;stroke-linejoin:miter;stroke:rgb(0%,0%,0%);stroke-opacity:1;stroke-miterlimit:10;" d="M 47.816406 180 C 47.816406 185.523438 43.339844 190 37.816406 190 C 32.292969 190 27.816406 185.523438 27.816406 180 C 27.816406 174.476562 32.292969 170 37.816406 170 C 43.339844 170 47.816406 174.476562 47.816406 180 "/>
<path style="fill-rule:nonzero;fill:rgb(100%,0%,0%);fill-opacity:1;stroke-width:1;stroke-linecap:butt;stroke-linejoin:miter;stroke:rgb(0%,0%,0%);stroke-opacity:1;stroke-miterlimit:10;" d="M 65.957031 99.753906 C 65.957031 105.277344 61.480469 109.753906 55.957031 109.753906 C 50.433594 109.753906 45.957031 105.277344 45.957031 99.753906 C 45.957031 94.230469 50.433594 89.753906 55.957031 89.753906 C 61.480469 89.753906 65.957031 94.230469 65.957031 99.753906 "/>
<path style="fill-rule:nonzero;fill:rgb(100%,0%,0%);fill-opacity:1;stroke-width:1;stroke-linecap:butt;stroke-linejoin:miter;stroke:rgb(0%,0%,0%);stroke-opacity:1;stroke-miterlimit:10;" d="M 74.78125 78.296875 C 74.78125 83.820312 70.304688 88.296875 64.78125 88.296875 C 59.257812 88.296875 54.78125 83.820312 54.78125 78.296875 C 54.78125 72.773438 59.257812 68.296875 64.78125 68.296875 C 70.304688 68.296875 74.78125 72.773438 74.78125 78.296875 "/>
<path style="fill-rule:nonzero;fill:rgb(100%,0%,0%);fill-opacity:1;stroke-width:1;stroke-linecap:butt;stroke-linejoin:miter;stroke:rgb(0%,0%,0%);stroke-opacity:1;stroke-miterlimit:10;" d="M 88.03125 154.433594 C 88.03125 159.957031 83.554688 164.433594 78.03125 164.433594 C 72.511719 164.433594 68.03125 159.957031 68.03125 154.433594 C 68.03125 148.914062 72.511719 144.433594 78.03125 144.433594 C 83.554688 144.433594 88.03125 148.914062 88.03125 154.433594 "/>
<path style="fill-rule:nonzero;fill:rgb(100%,0%,0%);fill-opacity:1;stroke-width:1;stroke-linecap:butt;stroke-linejoin:miter;stroke:rgb(0%,0%,0%);stroke-opacity:1;stroke-miterlimit:10;" d="M 94.285156 55.367188 C 94.285156 60.890625 89.808594 65.367188 84.285156 65.367188 C 78.765625 65.367188 74.285156 60.890625 74.285156 55.367188 C 74.285156 49.847656 78.765625 45.367188 84.285156 45.367188 C 89.808594 45.367188 94.285156 49.847656 94.285156 55.367188 "/>
<path style="fill-rule:nonzero;fill:rgb(100%,0%,0%);fill-opacity:1;stroke-width:1;stroke-linecap:butt;stroke-linejoin:miter;stroke:rgb(0%,0%,0%);stroke-opacity:1;stroke-miterlimit:10;" d="M 108.574219 161.628906 C 108.574219 167.152344 104.097656 171.628906 98.574219 171.628906 C 93.054688 171.628906 88.574219 167.152344 88.574219 161.628906 C 88.574219 156.105469 93.054688 151.628906 98.574219 151.628906 C 104.097656 151.628906 108.574219 156.105469 108.574219 161.628906 "/>
<path style="fill-rule:nonzero;fill:rgb(100%,0%,0%);fill-opacity:1;stroke-width:1;stroke-linecap:butt;stroke-linejoin:miter;stroke:rgb(0%,0%,0%);stroke-opacity:1;stroke-miterlimit:10;" d="M 132.640625 61.332031 C 132.640625 66.855469 128.164062 71.332031 122.640625 71.332031 C 117.117188 71.332031 112.640625 66.855469 112.640625 61.332031 C 112.640625 55.8125 117.117188 51.332031 122.640625 51.332031 C 128.164062 51.332031 132.640625 55.8125 132.640625 61.332031 "/>
<path style="fill-rule:nonzero;fill:rgb(100%,0%,0%);fill-opacity:1;stroke-width:1;stroke-linecap:butt;stroke-linejoin:miter;stroke:rgb(0%,0%,0%);stroke-opacity:1;stroke-miterlimit:10;" d="M 132.707031 119.675781 C 132.707031 125.199219 128.230469 129.675781 122.707031 129.675781 C 117.183594 129.675781 112.707031 125.199219 112.707031 119.675781 C 112.707031 114.152344 117.183594 109.675781 122.707031 109.675781 C 128.230469 109.675781 132.707031 114.152344 132.707031 119.675781 "/>
<path style="fill-rule:nonzero;fill:rgb(100%,0%,0%);fill-opacity:1;stroke-width:1;stroke-linecap:butt;stroke-linejoin:miter;stroke:rgb(0%,0%,0%);stroke-opacity:1;stroke-miterlimit:10;" d="M 134.855469 58.246094 C 134.855469 63.769531 130.378906 68.246094 124.855469 68.246094 C 119.332031 68.246094 114.855469 63.769531 114.855469 58.246094 C 114.855469 52.722656 119.332031 48.246094 124.855469 48.246094 C 130.378906 48.246094 134.855469 52.722656 134.855469 58.246094 "/>
<path style="fill-rule:nonzero;fill:rgb(100%,0%,0%);fill-opacity:1;stroke-width:1;stroke-linecap:butt;stroke-linejoin:miter;stroke:rgb(0%,0%,0%);stroke-opacity:1;stroke-miterlimit:10;" d="M 138.945312 113.046875 C 138.945312 118.570312 134.46875 123.046875 128.945312 123.046875 C 123.421875 123.046875 118.945312 118.570312 118.945312 113.046875 C 118.945312 107.523438 123.421875 103.046875 128.945312 103.046875 C 134.46875 103.046875 138.945312 107.523438 138.945312 113.046875 "/>
<path style="fill-rule:nonzero;fill:rgb(100%,0%,0%);fill-opacity:1;stroke-width:1;stroke-linecap:butt;stroke-linejoin:miter;stroke:rgb(0%,0%,0%);stroke-opacity:1;stroke-miterlimit:10;" d="M 139.320312 178.421875 C 139.320312 183.945312 134.84375 188.421875 129.320312 188.421875 C 123.796875 188.421875 119.320312 183.945312 119.320312 178.421875 C 119.320312 172.898438 123.796875 168.421875 129.320312 168.421875 C 134.84375 168.421875 139.320312 172.898438 139.320312 178.421875 "/>
<path style="fill-rule:nonzero;fill:rgb(100%,0%,0%);fill-opacity:1;stroke-width:1;stroke-linecap:butt;stroke-linejoin:miter;stroke:rgb(0%,0%,0%);stroke-opacity:1;stroke-miterlimit:10;" d="M 144.546875 45.6875 C 144.546875 51.207031 140.066406 55.6875 134.546875 55.6875 C 129.023438 55.6875 124.546875 51.207031 124.546875 45.6875 C 124.546875 40.164062 129.023438 35.6875 134.546875 35.6875 C 140.066406 35.6875 144.546875 40.164062 144.546875 45.6875 "/>
<path style="fill-rule:nonzero;fill:rgb(100%,0%,0%);fill-opacity:1;stroke-width:1;stroke-linecap:butt;stroke-linejoin:miter;stroke:rgb(0%,0%,0%);stroke-opacity:1;stroke-miterlimit:10;" d="M 153.988281 152.773438 C 153.988281 158.296875 149.511719 162.773438 143.988281 162.773438 C 138.464844 162.773438 133.988281 158.296875 133.988281 152.773438 C 133.988281 147.25 138.464844 142.773438 143.988281 142.773438 C 149.511719 142.773438 153.988281 147.25 153.988281 152.773438 "/>
<path style="fill-rule:nonzero;fill:rgb(100%,0%,0%);fill-opacity:1;stroke-width:1;stroke-linecap:butt;stroke-linejoin:miter;stroke:rgb(0%,0%,0%);stroke-opacity:1;stroke-miterlimit:10;" d="M 154.355469 155.097656 C 154.355469 160.621094 149.878906 165.097656 144.355469 165.097656 C 138.832031 165.097656 134.355469 160.621094 134.355469 155.097656 C 134.355469 149.574219 138.832031 145.097656 144.355469 145.097656 C 149.878906 145.097656 154.355469 149.574219 154.355469 155.097656 "/>
<path style="fill-rule:nonzero;fill:rgb(100%,0%,0%);fill-opacity:1;stroke-width:1;stroke-linecap:butt;stroke-linejoin:miter;stroke:rgb(0%,0%,0%);stroke-opacity:1;stroke-miterlimit:10;" d="M 174.320312 91.550781 C 174.320312 97.074219 169.84375 101.550781 164.320312 101.550781 C 158.796875 101.550781 154.320312 97.074219 154.320312 91.550781 C 154.320312 86.027344 158.796875 81.550781 164.320312 81.550781 C 169.84375 81.550781 174.320312 86.027344 174.320312 91.550781 "/>
<path style="fill-rule:nonzero;fill:rgb(100%,0%,0%);fill-opacity:1;stroke-width:1;stroke-linecap:butt;stroke-linejoin:miter;stroke:rgb(0%,0%,0%);stroke-opacity:1;stroke-miterlimit:10;" d="M 179.703125 144.324219 C 179.703125 149.847656 175.226562 154.324219 169.703125 154.324219 C 164.183594 154.324219 159.703125 149.847656 159.703125 144.324219 C 159.703125 138.800781 164.183594 134.324219 169.703125 134.324219 C 175.226562 134.324219 179.703125 138.800781 179.703125 144.324219 "/>
<path style="fill-rule:nonzero;fill:rgb(100%,0%,0%);fill-opacity:1;stroke-width:1;stroke-linecap:butt;stroke-linejoin:miter;stroke:rgb(0%,0%,0%);stroke-opacity:1;stroke-miterlimit:10;" d="M 190 20 C 190 25.523438 185.523438 30 180 30 C 174.476562 30 170 25.523438 170 20 C 170 14.476562 174.476562 10 180 10 C 185.523438 10 190 14.476562 190 20 "/>
</g>
</svg>
