<?xml version="1.0" encoding="UTF-8"?>
<svg xmlns="http://www.w3.org/2000/svg" xmlns:xlink="http://www.w3.org/1999/xlink" width="200pt" height="200pt" viewBox="0 0 200 200" version="1.1">
<g id="surface14">
<rect x="0" y="0" width="200" height="200" style="fill:rgb(100%,100%,100%);fill-opacity:1;stroke:none;"/>
<path style="fill:none;stroke-width:1;stroke-linecap:butt;stroke-linejoin:miter;stroke:rgb(26.666667%,26.666667%,26.666667%);stroke-opacity:1;stroke-miterlimit:10;" d="M 102.175781 99.597656 L 69.265625 59.238281 "/>
<path style="fill:none;stroke-width:1;stroke-linecap:butt;stroke-linejoin:miter;stroke:rgb(26.666667%,26.666667%,26.666667%);stroke-opacity:1;stroke-miterlimit:10;" d="M 32.777344 107.308594 L 89.417969 77.148438 "/>
<path style="fill:none;stroke-width:1;stroke-linecap:butt;stroke-linejoin:miter;stroke:rgb(26.666667%,26.666667%,26.666667%);stroke-opacity:1;stroke-miterlimit:10;" d="M 69.265625 59.238281 L 89.417969 77.148438 "/>
<path style="fill:none;stroke-width:1;stroke-linecap:butt;stroke-linejoin:miter;stroke:rgb(26.666667%,26.666667%,26.666667%);stroke-opacity:1;stroke-miterlimit:10;" d="M 102.175781 99.597656 L 90.019531 134.441406 "/>
<path style="fill:none;stroke-width:1;stroke-linecap:butt;stroke-linejoin:miter;stroke:rgb(26.666667%,26.666667%,26.666667%);stroke-opacity:1;stroke-miterlimit:10;" d="M 32.777344 107.308594 L 20 146.40625 "/>
<path style="fill:none;stroke-width:1;stroke-linecap:butt;stroke-linejoin:miter;stroke:rgb(26.666667%,26.666667%,26.666667%);stroke-opacity:1;stroke-miterlimit:10;" d="M 56.421875 180 L 20 146.40625 "/>
<path style="fill:none;stroke-width:1;stroke-linecap:butt;stroke-linejoin:miter;stroke:rgb(26.666667%,26.666667%,26.666667%);stroke-opacity:1;stroke-miterlimit:10;" d="M 34.613281 176.234375 L 85.65625 178.652344 "/>
<path style="fill:none;stroke-width:1;stroke-linecap:butt;stroke-linejoin:miter;stroke:rgb(26.666667%,26.666667%,26.666667%);stroke-opacity:1;stroke-miterlimit:10;" d="M 56.421875 180 L 85.65625 178.652344 "/>
<path style="fill:none;stroke-width:1;stroke-linecap:butt;stroke-linejoin:miter;stroke:rgb(26.666667%,26.666667%,26.666667%);stroke-opacity:1;stroke-miterlimit:10;" d="M 90.019531 134.441406 L 85.65625 178.652344 "/>
<path style="fill:none;stroke-width:1;stroke-linecap:butt;stroke-linejoin:miter;stroke:rgb(26.666667%,26.666667%,26.666667%);stroke-opacity:1;stroke-miterlimit:10;" d="M 89.417969 77.148438 L 126.761719 106.761719 "/>
<path style="fill:none;stroke-width:1;stroke-linecap:butt;stroke-linejoin:miter;stroke:rgb(26.666667%,26.666667%,26.666667%);stroke-opacity:1;stroke-miterlimit:10;" d="M 32.777344 107.308594 L 54.628906 139.921875 "/>
<path style="fill:none;stroke-width:1;stroke-linecap:butt;stroke-linejoin:miter;stroke:rgb(26.666667%,26.666667%,26.666667%);stroke-opacity:1;stroke-miterlimit:10;" d="M 34.613281 176.234375 L 54.628906 139.921875 "/>
<path style="fill:none;stroke-width:1;stroke-linecap:butt;stroke-linejoin:miter;stroke:rgb(26.666667%,26.666667%,26.666667%);stroke-opacity:1;stroke-miterlimit:10;" d="M 56.421875 180 L 54.628906 139.921875 "/>
<path style="fill:none;stroke-width:1;stroke-linecap:butt;stroke-linejoin:miter;stroke:rgb(26.666667%,26.666667%,26.666667%);stroke-opacity:1;stroke-miterlimit:10;" d="M 90.019531 134.441406 L 54.628906 139.921875 "/>
<path style="fill:none;stroke-width:1;stroke-linecap:butt;stroke-linejoin:miter;stroke:rgb(26.666667%,26.666667%,26.666667%);stroke-opacity:1;stroke-miterlimit:10;" d="M 20 146.40625 L 54.628906 139.921875 "/>
<path style="fill:none;stroke-width:1;stroke-linecap:butt;stroke-linejoin:miter;stroke:rgb(26.666667%,26.666667%,26.666667%);stroke-opacity:1;stroke-miterlimit:10;" d="M 69.265625 59.238281 L 42.839844 91.667969 "/>
<path style="fill:none;stroke-width:1;stroke-linecap:butt;stroke-linejoin:miter;stroke:rgb(26.666667%,26.666667%,26.666667%);stroke-opacity:1;stroke-miterlimit:10;" d="M 69.265625 59.238281 L 67.335938 20 "/>
<path style="fill:none;stroke-width:1;stroke-linecap:butt;stroke-linejoin:miter;stroke:rgb(26.666667%,26.666667%,26.666667%);stroke-opacity:1;stroke-miterlimit:10;" d="M 126.761719 106.761719 L 143.792969 152.914062 "/>
<path style="fill:none;stroke-width:1;stroke-linecap:butt;stroke-linejoin:miter;stroke:rgb(26.666667%,26.666667%,26.666667%);stroke-opacity:1;stroke-miterlimit:10;" d="M 143.792969 152.914062 L 180 178.328125 "/>
<path style="fill:none;stroke-width:1;stroke-linecap:butt;stroke-linejoin:miter;stroke:rgb(26.666667%,26.666667%,26.666667%);stroke-opacity:1;stroke-miterlimit:10;" d="M 164.171875 134.769531 L 113.203125 143.359375 "/>
<path style="fill:none;stroke-width:1;stroke-linecap:butt;stroke-linejoin:miter;stroke:rgb(26.666667%,26.666667%,26.666667%);stroke-opacity:1;stroke-miterlimit:10;" d="M 90.019531 134.441406 L 113.203125 143.359375 "/>
<path style="fill:none;stroke-width:1;stroke-linecap:butt;stroke-linejoin:miter;stroke:rgb(26.666667%,26.666667%,26.666667%);stroke-opacity:1;stroke-miterlimit:10;" d="M 85.65625 178.652344 L 113.203125 143.359375 "/>
<path style="fill:none;stroke-width:1;stroke-linecap:butt;stroke-linejoin:miter;stroke:rgb(26.666667%,26.666667%,26.666667%);stroke-opacity:1;stroke-miterlimit:10;" d="M 126.761719 106.761719 L 113.203125 143.359375 "/>
<path style="fill:none;stroke-width:1;stroke-linecap:butt;stroke-linejoin:miter;stroke:rgb(26.666667%,26.666667%,26.666667%);stroke-opacity:1;stroke-miterlimit:10;" d="M 54.628906 139.921875 L 113.203125 143.359375 "/>
<path style="fill:none;stroke-width:1;stroke-linecap:butt;stroke-linejoin:miter;stroke:rgb(26.666667%,26.666667%,26.666667%);stroke-opacity:1;stroke-miterlimit:10;" d="M 143.792969 152.914062 L 113.203125 143.359375 "/>
<path style="fill:none;stroke-width:1;stroke-linecap:butt;stroke-linejoin:miter;stroke:rgb(26.666667%,26.666667%,26.666667%);stroke-opacity:1;stroke-miterlimit:10;" d="M 34.613281 176.234375 L 64.261719 147.160156 "/>
<path style="fill:none;stroke-width:1;stroke-linecap:butt;stroke-linejoin:miter;stroke:rgb(26.666667%,26.666667%,26.666667%);stroke-opacity:1;stroke-miterlimit:10;" d="M 20 146.40625 L 64.261719 147.160156 "/>
<path style="fill:none;stroke-width:1;stroke-linecap:butt;stroke-linejoin:miter;stroke:rgb(26.666667%,26.666667%,26.666667%);stroke-opacity:1;stroke-miterlimit:10;" d="M 85.65625 178.652344 L 64.261719 147.160156 "/>
<path style="fill:none;stroke-width:1;stroke-linecap:butt;stroke-linejoin:miter;stroke:rgb(26.666667%,26.666667%,26.666667%);stroke-opacity:1;stroke-miterlimit:10;" d="M 42.839844 91.667969 L 64.261719 147.160156 "/>
<path style="fill:none;stroke-width:1;stroke-linecap:butt;stroke-linejoin:miter;stroke:rgb(26.666667%,26.666667%,26.666667%);stroke-opacity:1;stroke-miterlimit:10;" d="M 113.203125 143.359375 L 64.261719 147.160156 "/>
<path style="fill:none;stroke-width:1;stroke-linecap:butt;stroke-linejoin:miter;stroke:rgb(26.666667%,26.666667%,26.666667%);stroke-opacity:1;stroke-miterlimit:10;" d="M 102.175781 99.597656 L 101.703125 158.914062 "/>
<path style="fill:none;stroke-width:1;stroke-linecap:butt;stroke-linejoin:miter;stroke:rgb(26.666667%,26.666667%,26.666667%);stroke-opacity:1;stroke-miterlimit:10;" d="M 56.421875 180 L 101.703125 158.914062 "/>
<path style="fill:none;stroke-width:1;stroke-linecap:butt;stroke-linejoin:miter;stroke:rgb(26.666667%,26.666667%,26.666667%);stroke-opacity:1;stroke-miterlimit:10;" d="M 143.792969 152.914062 L 101.703125 158.914062 "/>
<path style="fill:none;stroke-width:1;stroke-linecap:butt;stroke-linejoin:miter;stroke:rgb(26.666667%,26.666667%,26.666667%);stroke-opacity:1;stroke-miterlimit:10;" d="M 113.203125 143.359375 L 101.703125 158.914062 "/>
<path style="fill:none;stroke-width:1;stroke-linecap:butt;stroke-linejoin:miter;stroke:rgb(26.666667%,26.666667%,26.666667%);stroke-opacity:1;stroke-miterlimit:10;" d="M 64.261719 147.160156 L 101.703125 158.914062 "/>
<path style="fill:none;stroke-width:1;stroke-linecap:butt;stroke-linejoin:miter;stroke:rgb(26.666667%,26.666667%,26.666667%);stroke-opacity:1;stroke-miterlimit:10;" d="M 102.175781 99.597656 L 72.261719 103.332031 "/>
<path style="fill:none;stroke-width:1;stroke-linecap:butt;stroke-linejoin:miter;stroke:rgb(26.666667%,26.666667%,26.666667%);stroke-opacity:1;stroke-miterlimit:10;" d="M 32.777344 107.308594 L 72.261719 103.332031 "/>
<path style="fill:none;stroke-width:1;stroke-linecap:butt;stroke-linejoin:miter;stroke:rgb(26.666667%,26.666667%,26.666667%);stroke-opacity:1;stroke-miterlimit:10;" d="M 89.417969 77.148438 L 72.261719 103.332031 "/>
<path style="fill:none;stroke-width:1;stroke-linecap:butt;stroke-linejoin:miter;stroke:rgb(26.666667%,26.666667%,26.666667%);stroke-opacity:1;stroke-miterlimit:10;" d="M 126.761719 106.761719 L 72.261719 103.332031 "/>
<path style="fill:none;stroke-width:1;stroke-linecap:butt;stroke-linejoin:miter;stroke:rgb(26.666667%,26.666667%,26.666667%);stroke-opacity:1;stroke-miterlimit:10;" d="M 54.628906 139.921875 L 72.261719 103.332031 "/>
<path style="fill:none;stroke-width:1;stroke-linecap:butt;stroke-linejoin:miter;stroke:rgb(26.666667%,26.666667%,26.666667%);stroke-opacity:1;stroke-miterlimit:10;" d="M 42.839844 91.667969 L 72.261719 103.332031 "/>
<path style="fill-rule:nonzero;fill:rgb(100%,0%,0%);fill-opacity:1;stroke-width:1;stroke-linecap:butt;stroke-linejoin:miter;stroke:rgb(0%,0%,0%);stroke-opacity:1;stroke-miterlimit:10;" d="M 112.175781 99.597656 C 112.175781 105.121094 107.699219 109.597656 102.175781 109.597656 C 96.652344 109.597656 92.175781 105.121094 92.175781 99.597656 C 92.175781 94.074219 96.652344 89.597656 102.175781 89.597656 C 107.699219 89.597656 112.175781 94.074219 112.175781 99.597656 "/>
<path style="fill-rule:nonzero;fill:rgb(100%,0%,0%);fill-opacity:1;stroke-width:1;stroke-linecap:butt;stroke-linejoin:miter;stroke:rgb(0%,0%,0%);stroke-opacity:1;stroke-miterlimit:10;" d="M 42.777344 107.308594 C 42.777344 112.832031 38.300781 117.308594 32.777344 117.308594 C 27.253906 117.308594 22.777344 112.832031 22.777344 107.308594 C 22.777344 101.785156 27.253906 97.308594 32.777344 97.308594 C 38.300781 97.308594 42.777344 101.785156 42.777344 107.308594 "/>
<path style="fill-rule:nonzero;fill:rgb(100%,0%,0%);fill-opacity:1;stroke-width:1;stroke-linecap:butt;stroke-linejoin:miter;stroke:rgb(0%,0%,0%);stroke-opacity:1;stroke-miterlimit:10;" d="M 79.265625 59.238281 C 79.265625 64.761719 74.789062 69.238281 69.265625 69.238281 C 63.742188 69.238281 59.265625 64.761719 59.265625 59.238281 C 59.265625 53.714844 63.742188 49.238281 69.265625 49.238281 C 74.789062 49.238281 79.265625 53.714844 79.265625 59.238281 "/>
<path style="fill-rule:nonzero;fill:rgb(100%,0%,0%);fill-opacity:1;stroke-width:1;stroke-linecap:butt;stroke-linejoin:miter;stroke:rgb(0%,0%,0%);stroke-opacity:1;stroke-miterlimit:10;" d="M 174.171875 134.769531 C 174.171875 140.292969 169.695312 144.769531 164.171875 144.769531 C 158.652344 144.769531 154.171875 140.292969 154.171875 134.769531 C 154.171875 129.246094 158.652344 124.769531 164.171875 124.769531 C 169.695312 124.769531 174.171875 129.246094 174.171875 134.769531 "/>
<path style="fill-rule:nonzero;fill:rgb(100%,0%,0%);fill-opacity:1;stroke-width:1;stroke-linecap:butt;stroke-linejoin:miter;stroke:rgb(0%,0%,0%);stroke-opacity:1;stroke-miterlimit:10;" d="M 99.417969 77.148438 C 99.417969 82.671875 94.9375 87.148438 89.417969 87.148438 C 83.894531 87.148438 79.417969 82.671875 79.417969 77.148438 C 79.417969 71.625 83.894531 67.148438 89.417969 67.148438 C 94.9375 67.148438 99.417969 71.625 99.417969 77.148438 "/>
<path style="fill-rule:nonzero;fill:rgb(100%,0%,0%);fill-opacity:1;stroke-width:1;stroke-linecap:butt;stroke-linejoin:miter;stroke:rgb(0%,0%,0%);stroke-opacity:1;stroke-miterlimit:10;" d="M 44.613281 176.234375 C 44.613281 181.757812 40.136719 186.234375 34.613281 186.234375 C 29.09375 186.234375 24.613281 181.757812 24.613281 176.234375 C 24.613281 170.714844 29.09375 166.234375 34.613281 166.234375 C 40.136719 166.234375 44.613281 170.714844 44.613281 176.234375 "/>
<path style="fill-rule:nonzero;fill:rgb(100%,0%,0%);fill-opacity:1;stroke-width:1;stroke-linecap:butt;stroke-linejoin:miter;stroke:rgb(0%,0%,0%);stroke-opacity:1;stroke-miterlimit:10;" d="M 66.421875 180 C 66.421875 185.523438 61.945312 190 56.421875 190 C 50.898438 190 46.421875 185.523438 46.421875 180 C 46.421875 174.476562 50.898438 170 56.421875 170 C 61.945312 170 66.421875 174.476562 66.421875 180 "/>
<path style="fill-rule:nonzero;fill:rgb(100%,0%,0%);fill-opacity:1;stroke-width:1;stroke-linecap:butt;stroke-linejoin:miter;stroke:rgb(0%,0%,0%);stroke-opacity:1;stroke-miterlimit:10;" d="M 100.019531 134.441406 C 100.019531 139.964844 95.542969 144.441406 90.019531 144.441406 C 84.496094 144.441406 80.019531 139.964844 80.019531 134.441406 C 80.019531 128.917969 84.496094 124.441406 90.019531 124.441406 C 95.542969 124.441406 100.019531 128.917969 100.019531 134.441406 "/>
<path style="fill-rule:nonzero;fill:rgb(100%,0%,0%);fill-opacity:1;stroke-width:1;stroke-linecap:butt;stroke-linejoin:miter;stroke:rgb(0%,0%,0%);stroke-opacity:1;stroke-miterlimit:10;" d="M 30 146.40625 C 30 151.925781 25.523438 156.40625 20 156.40625 C 14.476562 156.40625 10 151.925781 10 146.40625 C 10 140.882812 14.476562 136.40625 20 136.40625 C 25.523438 136.40625 30 140.882812 30 146.40625 "/>
<path style="fill-rule:nonzero;fill:rgb(100%,0%,0%);fill-opacity:1;stroke-width:1;stroke-linecap:butt;stroke-linejoin:miter;stroke:rgb(0%,0%,0%);stroke-opacity:1;stroke-miterlimit:10;" d="M 95.65625 178.652344 C 95.65625 184.175781 91.179688 188.652344 85.65625 188.652344 C 80.132812 188.652344 75.65625 184.175781 75.65625 178.652344 C 75.65625 173.128906 80.132812 168.652344 85.65625 168.652344 C 91.179688 168.652344 95.65625 173.128906 95.65625 178.652344 "/>
<path style="fill-rule:nonzero;fill:rgb(100%,0%,0%);fill-opacity:1;stroke-width:1;stroke-linecap:butt;stroke-linejoin:miter;stroke:rgb(0%,0%,0%);stroke-opacity:1;stroke-miterlimit:10;" d="M 136.761719 106.761719 C 136.761719 112.28125 132.285156 116.761719 126.761719 116.761719 C 121.242188 116.761719 116.761719 112.28125 116.761719 106.761719 C 116.761719 101.238281 121.242188 96.761719 126.761719 96.761719 C 132.285156 96.761719 136.761719 101.238281 136.761719 106.761719 "/>
<path style="fill-rule:nonzero;fill:rgb(100%,0%,0%);fill-opacity:1;stroke-width:1;stroke-linecap:butt;stroke-linejoin:miter;stroke:rgb(0%,0%,0%);stroke-opacity:1;stroke-miterlimit:10;" d="M 64.628906 139.921875 C 64.628906 145.445312 60.152344 149.921875 54.628906 149.921875 C 49.105469 149.921875 44.628906 145.445312 44.628906 139.921875 C 44.628906 134.398438 49.105469 129.921875 54.628906 129.921875 C 60.152344 129.921875 64.628906 134.398438 64.628906 139.921875 "/>
<path style="fill-rule:nonzero;fill:rgb(100%,0%,0%);fill-opacity:1;stroke-width:1;stroke-linecap:butt;stroke-linejoin:miter;stroke:rgb(0%,0%,0%);stroke-opacity:1;stroke-miterlimit:10;" d="M 52.839844 91.667969 C 52.839844 97.191406 48.363281 101.667969 42.839844 101.667969 C 37.316406 101.667969 32.839844 97.191406 32.839844 91.667969 C 32.839844 86.144531 37.316406 81.667969 42.839844 81.667969 C 48.363281 81.667969 52.839844 86.144531 52.839844 91.667969 "/>
<path style="fill-rule:nonzero;fill:rgb(100%,0%,0%);fill-opacity:1;stroke-width:1;stroke-linecap:butt;stroke-linejoin:miter;stroke:rgb(0%,0%,0%);stroke-opacity:1;stroke-miterlimit:10;" d="M 77.335938 20 C 77.335938 25.523438 72.859375 30 67.335938 30 C 61.8125 30 57.335938 25.523438 57.335938 20 C 57.335938 14.476562 61.8125 10 67.335938 10 C 72.859375 10 77.335938 14.476562 77.335938 20 "/>
<path style="fill-rule:nonzero;fill:rgb(100%,0%,0%);fill-opacity:1;stroke-width:1;stroke-linecap:butt;stroke-linejoin:miter;stroke:rgb(0%,0%,0%);stroke-opacity:1;stroke-miterlimit:10;" d="M 153.792969 152.914062 C 153.792969 158.4375 149.316406 162.914062 143.792969 162.914062 C 138.269531 162.914062 133.792969 158.4375 133.792969 152.914062 C 133.792969 147.390625 138.269531 142.914062 143.792969 142.914062 C 149.316406 142.914062 153.792969 147.390625 153.792969 152.914062 "/>
<path style="fill-rule:nonzero;fill:rgb(100%,0%,0%);fill-opacity:1;stroke-width:1;stroke-linecap:butt;stroke-linejoin:miter;stroke:rgb(0%,0%,0%);stroke-opacity:1;stroke-miterlimit:10;" d="M 190 178.328125 C 190 183.851562 185.523438 188.328125 180 188.328125 C 174.476562 188.328125 170 183.851562 170 178.328125 C 170 172.804688 174.476562 168.328125 180 168.328125 C 185.523438 168.328125 190 172.804688 190 178.328125 "/>
<path style="fill-rule:nonzero;fill:rgb(100%,0%,0%);fill-opacity:1;stroke-width:1;stroke-linecap:butt;stroke-linejoin:miter;stroke:rgb(0%,0%,0%);stroke-opacity:1;stroke-miterlimit:10;" d="M 123.203125 143.359375 C 123.203125 148.882812 118.722656 153.359375 113.203125 153.359375 C 107.679688 153.359375 103.203125 148.882812 103.203125 143.359375 C 103.203125 137.839844 107.679688 133.359375 113.203125 133.359375 C 118.722656 133.359375 123.203125 137.839844 123.203125 143.359375 "/>
<path style="fill-rule:nonzero;fill:rgb(100%,0%,0%);fill-opacity:1;stroke-width:1;stroke-linecap:butt;stroke-linejoin:miter;stroke:rgb(0%,0%,0%);stroke-opacity:1;stroke-miterlimit:10;" d="M 74.261719 147.160156 C 74.261719 152.683594 69.78125 157.160156 64.261719 157.160156 C 58.738281 157.160156 54.261719 152.683594 54.261719 147.160156 C 54.261719 141.636719 58.738281 137.160156 64.261719 137.160156 C 69.78125 137.160156 74.261719 141.636719 74.261719 147.160156 "/>
<path style="fill-rule:nonzero;fill:rgb(100%,0%,0%);fill-opacity:1;stroke-width:1;stroke-linecap:butt;stroke-linejoin:miter;stroke:rgb(0%,0%,0%);stroke-opacity:1;stroke-miterlimit:10;" d="M 111.703125 158.914062 C 111.703125 164.433594 107.226562 168.914062 101.703125 168.914062 C 96.179688 168.914062 91.703125 164.433594 91.703125 158.914062 C 91.703125 153.390625 96.179688 148.914062 101.703125 148.914062 C 107.226562 148.914062 111.703125 153.390625 111.703125 158.914062 "/>
<path style="fill-rule:nonzero;fill:rgb(100%,0%,0%);fill-opacity:1;stroke-width:1;stroke-linecap:butt;stroke-linejoin:miter;stroke:rgb(0%,0%,0%);stroke-opacity:1;stroke-miterlimit:10;" d="M 82.261719 103.332031 C 82.261719 108.855469 77.78125 113.332031 72.261719 113.332031 C 66.738281 113.332031 62.261719 108.855469 62.261719 103.332031 C 62.261719 97.808594 66.738281 93.332031 72.261719 93.332031 C 77.78125 93.332031 82.261719 97.808594 82.261719 103.332031 "/>
</g>
</svg>
