<?xml version="1.0" encoding="UTF-8"?>
<svg xmlns="http://www.w3.org/2000/svg" xmlns:xlink="http://www.w3.org/1999/xlink" width="200pt" height="200pt" viewBox="0 0 200 200" version="1.1">
<g id="surface14">
<rect x="0" y="0" width="200" height="200" style="fill:rgb(100%,100%,100%);fill-opacity:1;stroke:none;"/>
<path style="fill:none;stroke-width:1;stroke-linecap:butt;stroke-linejoin:miter;stroke:rgb(26.666667%,26.666667%,26.666667%);stroke-opacity:1;stroke-miterlimit:10;" d="M 127.019531 118.164062 L 178.273438 116.207031 "/>
<path style="fill:none;stroke-width:1;stroke-linecap:butt;stroke-linejoin:miter;stroke:rgb(26.666667%,26.666667%,26.666667%);stroke-opacity:1;stroke-miterlimit:10;" d="M 127.019531 118.164062 L 98.269531 82.738281 "/>
<path style="fill:none;stroke-width:1;stroke-linecap:butt;stroke-linejoin:miter;stroke:rgb(26.666667%,26.666667%,26.666667%);stroke-opacity:1;stroke-miterlimit:10;" d="M 178.273438 116.207031 L 180 69.507812 "/>
<path style="fill:none;stroke-width:1;stroke-linecap:butt;stroke-linejoin:miter;stroke:rgb(26.666667%,26.666667%,26.666667%);stroke-opacity:1;stroke-miterlimit:10;" d="M 102.113281 114.65625 L 141.628906 129.371094 "/>
<path style="fill:none;stroke-width:1;stroke-linecap:butt;stroke-linejoin:miter;stroke:rgb(26.666667%,26.666667%,26.666667%);stroke-opacity:1;stroke-miterlimit:10;" d="M 178.273438 116.207031 L 141.628906 129.371094 "/>
<path style="fill:none;stroke-width:1;stroke-linecap:butt;stroke-linejoin:miter;stroke:rgb(26.666667%,26.666667%,26.666667%);stroke-opacity:1;stroke-miterlimit:10;" d="M 174.222656 44.304688 L 144.878906 87.941406 "/>
<path style="fill:none;stroke-width:1;stroke-linecap:butt;stroke-linejoin:miter;stroke:rgb(26.666667%,26.666667%,26.666667%);stroke-opacity:1;stroke-miterlimit:10;" d="M 98.269531 82.738281 L 144.878906 87.941406 "/>
<path style="fill:none;stroke-width:1;stroke-linecap:butt;stroke-linejoin:miter;stroke:rgb(26.666667%,26.666667%,26.666667%);stroke-opacity:1;stroke-miterlimit:10;" d="M 180 69.507812 L 144.878906 87.941406 "/>
<path style="fill:none;stroke-width:1;stroke-linecap:butt;stroke-linejoin:miter;stroke:rgb(26.666667%,26.666667%,26.666667%);stroke-opacity:1;stroke-miterlimit:10;" d="M 141.628906 129.371094 L 144.878906 87.941406 "/>
<path style="fill:none;stroke-width:1;stroke-linecap:butt;stroke-linejoin:miter;stroke:rgb(26.666667%,26.666667%,26.666667%);stroke-opacity:1;stroke-miterlimit:10;" d="M 174.222656 44.304688 L 147.367188 33.21875 "/>
<path style="fill:none;stroke-width:1;stroke-linecap:butt;stroke-linejoin:miter;stroke:rgb(26.666667%,26.666667%,26.666667%);stroke-opacity:1;stroke-miterlimit:10;" d="M 180 69.507812 L 147.367188 33.21875 "/>
<path style="fill:none;stroke-width:1;stroke-linecap:butt;stroke-linejoin:miter;stroke:rgb(26.666667%,26.666667%,26.666667%);stroke-opacity:1;stroke-miterlimit:10;" d="M 127.019531 118.164062 L 161.101562 135.449219 "/>
<path style="fill:none;stroke-width:1;stroke-linecap:butt;stroke-linejoin:miter;stroke:rgb(26.666667%,26.666667%,26.666667%);stroke-opacity:1;stroke-miterlimit:10;" d="M 139.140625 177.359375 L 161.101562 135.449219 "/>
<path style="fill:none;stroke-width:1;stroke-linecap:butt;stroke-linejoin:miter;stroke:rgb(26.666667%,26.666667%,26.666667%);stroke-opacity:1;stroke-miterlimit:10;" d="M 178.273438 116.207031 L 161.101562 135.449219 "/>
<path style="fill:none;stroke-width:1;stroke-linecap:butt;stroke-linejoin:miter;stroke:rgb(26.666667%,26.666667%,26.666667%);stroke-opacity:1;stroke-miterlimit:10;" d="M 141.628906 129.371094 L 161.101562 135.449219 "/>
<path style="fill:none;stroke-width:1;stroke-linecap:butt;stroke-linejoin:miter;stroke:rgb(26.666667%,26.666667%,26.666667%);stroke-opacity:1;stroke-miterlimit:10;" d="M 144.878906 87.941406 L 161.101562 135.449219 "/>
<path style="fill:none;stroke-width:1;stroke-linecap:butt;stroke-linejoin:miter;stroke:rgb(26.666667%,26.666667%,26.666667%);stroke-opacity:1;stroke-miterlimit:10;" d="M 98.269531 82.738281 L 60.167969 101.253906 "/>
<path style="fill:none;stroke-width:1;stroke-linecap:butt;stroke-linejoin:miter;stroke:rgb(26.666667%,26.666667%,26.666667%);stroke-opacity:1;stroke-miterlimit:10;" d="M 161.101562 135.449219 L 165.71875 91.0625 "/>
<path style="fill:none;stroke-width:1;stroke-linecap:butt;stroke-linejoin:miter;stroke:rgb(26.666667%,26.666667%,26.666667%);stroke-opacity:1;stroke-miterlimit:10;" d="M 98.269531 82.738281 L 60.59375 62.359375 "/>
<path style="fill:none;stroke-width:1;stroke-linecap:butt;stroke-linejoin:miter;stroke:rgb(26.666667%,26.666667%,26.666667%);stroke-opacity:1;stroke-miterlimit:10;" d="M 60.167969 101.253906 L 60.59375 62.359375 "/>
<path style="fill:none;stroke-width:1;stroke-linecap:butt;stroke-linejoin:miter;stroke:rgb(26.666667%,26.666667%,26.666667%);stroke-opacity:1;stroke-miterlimit:10;" d="M 72.027344 20 L 60.59375 62.359375 "/>
<path style="fill:none;stroke-width:1;stroke-linecap:butt;stroke-linejoin:miter;stroke:rgb(26.666667%,26.666667%,26.666667%);stroke-opacity:1;stroke-miterlimit:10;" d="M 102.113281 114.65625 L 69.417969 141.359375 "/>
<path style="fill:none;stroke-width:1;stroke-linecap:butt;stroke-linejoin:miter;stroke:rgb(26.666667%,26.666667%,26.666667%);stroke-opacity:1;stroke-miterlimit:10;" d="M 60.167969 101.253906 L 69.417969 141.359375 "/>
<path style="fill:none;stroke-width:1;stroke-linecap:butt;stroke-linejoin:miter;stroke:rgb(26.666667%,26.666667%,26.666667%);stroke-opacity:1;stroke-miterlimit:10;" d="M 147.367188 33.21875 L 112.582031 23.140625 "/>
<path style="fill:none;stroke-width:1;stroke-linecap:butt;stroke-linejoin:miter;stroke:rgb(26.666667%,26.666667%,26.666667%);stroke-opacity:1;stroke-miterlimit:10;" d="M 72.027344 20 L 112.582031 23.140625 "/>
<path style="fill:none;stroke-width:1;stroke-linecap:butt;stroke-linejoin:miter;stroke:rgb(26.666667%,26.666667%,26.666667%);stroke-opacity:1;stroke-miterlimit:10;" d="M 102.113281 114.65625 L 121.191406 64.804688 "/>
<path style="fill:none;stroke-width:1;stroke-linecap:butt;stroke-linejoin:miter;stroke:rgb(26.666667%,26.666667%,26.666667%);stroke-opacity:1;stroke-miterlimit:10;" d="M 98.269531 82.738281 L 121.191406 64.804688 "/>
<path style="fill:none;stroke-width:1;stroke-linecap:butt;stroke-linejoin:miter;stroke:rgb(26.666667%,26.666667%,26.666667%);stroke-opacity:1;stroke-miterlimit:10;" d="M 147.367188 33.21875 L 121.191406 64.804688 "/>
<path style="fill:none;stroke-width:1;stroke-linecap:butt;stroke-linejoin:miter;stroke:rgb(26.666667%,26.666667%,26.666667%);stroke-opacity:1;stroke-miterlimit:10;" d="M 165.71875 91.0625 L 121.191406 64.804688 "/>
<path style="fill:none;stroke-width:1;stroke-linecap:butt;stroke-linejoin:miter;stroke:rgb(26.666667%,26.666667%,26.666667%);stroke-opacity:1;stroke-miterlimit:10;" d="M 112.582031 23.140625 L 121.191406 64.804688 "/>
<path style="fill:none;stroke-width:1;stroke-linecap:butt;stroke-linejoin:miter;stroke:rgb(26.666667%,26.666667%,26.666667%);stroke-opacity:1;stroke-miterlimit:10;" d="M 139.140625 177.359375 L 92.261719 180 "/>
<path style="fill:none;stroke-width:1;stroke-linecap:butt;stroke-linejoin:miter;stroke:rgb(26.666667%,26.666667%,26.666667%);stroke-opacity:1;stroke-miterlimit:10;" d="M 69.417969 141.359375 L 92.261719 180 "/>
<path style="fill:none;stroke-width:1;stroke-linecap:butt;stroke-linejoin:miter;stroke:rgb(26.666667%,26.666667%,26.666667%);stroke-opacity:1;stroke-miterlimit:10;" d="M 60.59375 62.359375 L 20 53.355469 "/>
<path style="fill-rule:nonzero;fill:rgb(100%,0%,0%);fill-opacity:1;stroke-width:1;stroke-linecap:butt;stroke-linejoin:miter;stroke:rgb(0%,0%,0%);stroke-opacity:1;stroke-miterlimit:10;" d="M 137.019531 118.164062 C 137.019531 123.6875 132.542969 128.164062 127.019531 128.164062 C 121.496094 128.164062 117.019531 123.6875 117.019531 118.164062 C 117.019531 112.640625 121.496094 108.164062 127.019531 108.164062 C 132.542969 108.164062 137.019531 112.640625 137.019531 118.164062 "/>
<path style="fill-rule:nonzero;fill:rgb(100%,0%,0%);fill-opacity:1;stroke-width:1;stroke-linecap:butt;stroke-linejoin:miter;stroke:rgb(0%,0%,0%);stroke-opacity:1;stroke-miterlimit:10;" d="M 149.140625 177.359375 C 149.140625 182.882812 144.664062 187.359375 139.140625 187.359375 C 133.617188 187.359375 129.140625 182.882812 129.140625 177.359375 C 129.140625 171.835938 133.617188 167.359375 139.140625 167.359375 C 144.664062 167.359375 149.140625 171.835938 149.140625 177.359375 "/>
<path style="fill-rule:nonzero;fill:rgb(100%,0%,0%);fill-opacity:1;stroke-width:1;stroke-linecap:butt;stroke-linejoin:miter;stroke:rgb(0%,0%,0%);stroke-opacity:1;stroke-miterlimit:10;" d="M 112.113281 114.65625 C 112.113281 120.179688 107.636719 124.65625 102.113281 124.65625 C 96.589844 124.65625 92.113281 120.179688 92.113281 114.65625 C 92.113281 109.132812 96.589844 104.65625 102.113281 104.65625 C 107.636719 104.65625 112.113281 109.132812 112.113281 114.65625 "/>
<path style="fill-rule:nonzero;fill:rgb(100%,0%,0%);fill-opacity:1;stroke-width:1;stroke-linecap:butt;stroke-linejoin:miter;stroke:rgb(0%,0%,0%);stroke-opacity:1;stroke-miterlimit:10;" d="M 184.222656 44.304688 C 184.222656 49.828125 179.746094 54.304688 174.222656 54.304688 C 168.703125 54.304688 164.222656 49.828125 164.222656 44.304688 C 164.222656 38.78125 168.703125 34.304688 174.222656 34.304688 C 179.746094 34.304688 184.222656 38.78125 184.222656 44.304688 "/>
<path style="fill-rule:nonzero;fill:rgb(100%,0%,0%);fill-opacity:1;stroke-width:1;stroke-linecap:butt;stroke-linejoin:miter;stroke:rgb(0%,0%,0%);stroke-opacity:1;stroke-miterlimit:10;" d="M 188.273438 116.207031 C 188.273438 121.730469 183.796875 126.207031 178.273438 126.207031 C 172.753906 126.207031 168.273438 121.730469 168.273438 116.207031 C 168.273438 110.683594 172.753906 106.207031 178.273438 106.207031 C 183.796875 106.207031 188.273438 110.683594 188.273438 116.207031 "/>
<path style="fill-rule:nonzero;fill:rgb(100%,0%,0%);fill-opacity:1;stroke-width:1;stroke-linecap:butt;stroke-linejoin:miter;stroke:rgb(0%,0%,0%);stroke-opacity:1;stroke-miterlimit:10;" d="M 108.269531 82.738281 C 108.269531 88.261719 103.792969 92.738281 98.269531 92.738281 C 92.75 92.738281 88.269531 88.261719 88.269531 82.738281 C 88.269531 77.214844 92.75 72.738281 98.269531 72.738281 C 103.792969 72.738281 108.269531 77.214844 108.269531 82.738281 "/>
<path style="fill-rule:nonzero;fill:rgb(100%,0%,0%);fill-opacity:1;stroke-width:1;stroke-linecap:butt;stroke-linejoin:miter;stroke:rgb(0%,0%,0%);stroke-opacity:1;stroke-miterlimit:10;" d="M 190 69.507812 C 190 75.03125 185.523438 79.507812 180 79.507812 C 174.476562 79.507812 170 75.03125 170 69.507812 C 170 63.984375 174.476562 59.507812 180 59.507812 C 185.523438 59.507812 190 63.984375 190 69.507812 "/>
<path style="fill-rule:nonzero;fill:rgb(100%,0%,0%);fill-opacity:1;stroke-width:1;stroke-linecap:butt;stroke-linejoin:miter;stroke:rgb(0%,0%,0%);stroke-opacity:1;stroke-miterlimit:10;" d="M 151.628906 129.371094 C 151.628906 134.894531 147.152344 139.371094 141.628906 139.371094 C 136.105469 139.371094 131.628906 134.894531 131.628906 129.371094 C 131.628906 123.851562 136.105469 119.371094 141.628906 119.371094 C 147.152344 119.371094 151.628906 123.851562 151.628906 129.371094 "/>
<path style="fill-rule:nonzero;fill:rgb(100%,0%,0%);fill-opacity:1;stroke-width:1;stroke-linecap:butt;stroke-linejoin:miter;stroke:rgb(0%,0%,0%);stroke-opacity:1;stroke-miterlimit:10;" d="M 154.878906 87.941406 C 154.878906 93.464844 150.402344 97.941406 144.878906 97.941406 C 139.359375 97.941406 134.878906 93.464844 134.878906 87.941406 C 134.878906 82.421875 139.359375 77.941406 144.878906 77.941406 C 150.402344 77.941406 154.878906 82.421875 154.878906 87.941406 "/>
<path style="fill-rule:nonzero;fill:rgb(100%,0%,0%);fill-opacity:1;stroke-width:1;stroke-linecap:butt;stroke-linejoin:miter;stroke:rgb(0%,0%,0%);stroke-opacity:1;stroke-miterlimit:10;" d="M 157.367188 33.21875 C 157.367188 38.742188 152.886719 43.21875 147.367188 43.21875 C 141.84375 43.21875 137.367188 38.742188 137.367188 33.21875 C 137.367188 27.695312 141.84375 23.21875 147.367188 23.21875 C 152.886719 23.21875 157.367188 27.695312 157.367188 33.21875 "/>
<path style="fill-rule:nonzero;fill:rgb(100%,0%,0%);fill-opacity:1;stroke-width:1;stroke-linecap:butt;stroke-linejoin:miter;stroke:rgb(0%,0%,0%);stroke-opacity:1;stroke-miterlimit:10;" d="M 171.101562 135.449219 C 171.101562 140.972656 166.625 145.449219 161.101562 145.449219 C 155.582031 145.449219 151.101562 140.972656 151.101562 135.449219 C 151.101562 129.925781 155.582031 125.449219 161.101562 125.449219 C 166.625 125.449219 171.101562 129.925781 171.101562 135.449219 "/>
<path style="fill-rule:nonzero;fill:rgb(100%,0%,0%);fill-opacity:1;stroke-width:1;stroke-linecap:butt;stroke-linejoin:miter;stroke:rgb(0%,0%,0%);stroke-opacity:1;stroke-miterlimit:10;" d="M 70.167969 101.253906 C 70.167969 106.777344 65.6875 111.253906 60.167969 111.253906 C 54.644531 111.253906 50.167969 106.777344 50.167969 101.253906 C 50.167969 95.734375 54.644531 91.253906 60.167969 91.253906 C 65.6875 91.253906 70.167969 95.734375 70.167969 101.253906 "/>
<path style="fill-rule:nonzero;fill:rgb(100%,0%,0%);fill-opacity:1;stroke-width:1;stroke-linecap:butt;stroke-linejoin:miter;stroke:rgb(0%,0%,0%);stroke-opacity:1;stroke-miterlimit:10;" d="M 82.027344 20 C 82.027344 25.523438 77.550781 30 72.027344 30 C 66.503906 30 62.027344 25.523438 62.027344 20 C 62.027344 14.476562 66.503906 10 72.027344 10 C 77.550781 10 82.027344 14.476562 82.027344 20 "/>
<path style="fill-rule:nonzero;fill:rgb(100%,0%,0%);fill-opacity:1;stroke-width:1;stroke-linecap:butt;stroke-linejoin:miter;stroke:rgb(0%,0%,0%);stroke-opacity:1;stroke-miterlimit:10;" d="M 175.71875 91.0625 C 175.71875 96.585938 171.242188 101.0625 165.71875 101.0625 C 160.195312 101.0625 155.71875 96.585938 155.71875 91.0625 C 155.71875 85.539062 160.195312 81.0625 165.71875 81.0625 C 171.242188 81.0625 175.71875 85.539062 175.71875 91.0625 "/>
<path style="fill-rule:nonzero;fill:rgb(100%,0%,0%);fill-opacity:1;stroke-width:1;stroke-linecap:butt;stroke-linejoin:miter;stroke:rgb(0%,0%,0%);stroke-opacity:1;stroke-miterlimit:10;" d="M 70.59375 62.359375 C 70.59375 67.882812 66.117188 72.359375 60.59375 72.359375 C 55.070312 72.359375 50.59375 67.882812 50.59375 62.359375 C 50.59375 56.835938 55.070312 52.359375 60.59375 52.359375 C 66.117188 52.359375 70.59375 56.835938 70.59375 62.359375 "/>
<path style="fill-rule:nonzero;fill:rgb(100%,0%,0%);fill-opacity:1;stroke-width:1;stroke-linecap:butt;stroke-linejoin:miter;stroke:rgb(0%,0%,0%);stroke-opacity:1;stroke-miterlimit:10;" d="M 79.417969 141.359375 C 79.417969 146.882812 74.9375 151.359375 69.417969 151.359375 C 63.894531 151.359375 59.417969 146.882812 59.417969 141.359375 C 59.417969 135.835938 63.894531 131.359375 69.417969 131.359375 C 74.9375 131.359375 79.417969 135.835938 79.417969 141.359375 "/>
<path style="fill-rule:nonzero;fill:rgb(100%,0%,0%);fill-opacity:1;stroke-width:1;stroke-linecap:butt;stroke-linejoin:miter;stroke:rgb(0%,0%,0%);stroke-opacity:1;stroke-miterlimit:10;" d="M 122.582031 23.140625 C 122.582031 28.664062 118.105469 33.140625 112.582031 33.140625 C 107.058594 33.140625 102.582031 28.664062 102.582031 23.140625 C 102.582031 17.617188 107.058594 13.140625 112.582031 13.140625 C 118.105469 13.140625 122.582031 17.617188 122.582031 23.140625 "/>
<path style="fill-rule:nonzero;fill:rgb(100%,0%,0%);fill-opacity:1;stroke-width:1;stroke-linecap:butt;stroke-linejoin:miter;stroke:rgb(0%,0%,0%);stroke-opacity:1;stroke-miterlimit:10;" d="M 131.191406 64.804688 C 131.191406 70.328125 126.714844 74.804688 121.191406 74.804688 C 115.667969 74.804688 111.191406 70.328125 111.191406 64.804688 C 111.191406 59.28125 115.667969 54.804688 121.191406 54.804688 C 126.714844 54.804688 131.191406 59.28125 131.191406 64.804688 "/>
<path style="fill-rule:nonzero;fill:rgb(100%,0%,0%);fill-opacity:1;stroke-width:1;stroke-linecap:butt;stroke-linejoin:miter;stroke:rgb(0%,0%,0%);stroke-opacity:1;stroke-miterlimit:10;" d="M 102.261719 180 C 102.261719 185.523438 97.785156 190 92.261719 190 C 86.738281 190 82.261719 185.523438 82.261719 180 C 82.261719 174.476562 86.738281 170 92.261719 170 C 97.785156 170 102.261719 174.476562 102.261719 180 "/>
<path style="fill-rule:nonzero;fill:rgb(100%,0%,0%);fill-opacity:1;stroke-width:1;stroke-linecap:butt;stroke-linejoin:miter;stroke:rgb(0%,0%,0%);stroke-opacity:1;stroke-miterlimit:10;" d="M 30 53.355469 C 30 58.878906 25.523438 63.355469 20 63.355469 C 14.476562 63.355469 10 58.878906 10 53.355469 C 10 47.832031 14.476562 43.355469 20 43.355469 C 25.523438 43.355469 30 47.832031 30 53.355469 "/>
</g>
</svg>
