<?xml version="1.0" encoding="UTF-8"?>
<svg xmlns="http://www.w3.org/2000/svg" xmlns:xlink="http://www.w3.org/1999/xlink" width="200pt" height="200pt" viewBox="0 0 200 200" version="1.1">
<g id="surface2">
<rect x="0" y="0" width="200" height="200" style="fill:rgb(100%,100%,100%);fill-opacity:1;stroke:none;"/>
<path style="fill:none;stroke-width:1;stroke-linecap:butt;stroke-linejoin:miter;stroke:rgb(26.666667%,26.666667%,26.666667%);stroke-opacity:1;stroke-miterlimit:10;" d="M 87.832031 89.867188 L 112.925781 97.261719 "/>
<path style="fill:none;stroke-width:1;stroke-linecap:butt;stroke-linejoin:miter;stroke:rgb(26.666667%,26.666667%,26.666667%);stroke-opacity:1;stroke-miterlimit:10;" d="M 87.832031 89.867188 L 62.652344 84.871094 "/>
<path style="fill:none;stroke-width:1;stroke-linecap:butt;stroke-linejoin:miter;stroke:rgb(26.666667%,26.666667%,26.666667%);stroke-opacity:1;stroke-miterlimit:10;" d="M 112.925781 97.261719 L 133.894531 77.792969 "/>
<path style="fill:none;stroke-width:1;stroke-linecap:butt;stroke-linejoin:miter;stroke:rgb(26.666667%,26.666667%,26.666667%);stroke-opacity:1;stroke-miterlimit:10;" d="M 112.925781 97.261719 L 117.203125 128.148438 "/>
<path style="fill:none;stroke-width:1;stroke-linecap:butt;stroke-linejoin:miter;stroke:rgb(26.666667%,26.666667%,26.666667%);stroke-opacity:1;stroke-miterlimit:10;" d="M 62.652344 84.871094 L 43.867188 105.644531 "/>
<path style="fill:none;stroke-width:1;stroke-linecap:butt;stroke-linejoin:miter;stroke:rgb(26.666667%,26.666667%,26.666667%);stroke-opacity:1;stroke-miterlimit:10;" d="M 62.652344 84.871094 L 50.429688 58.046875 "/>
<path style="fill:none;stroke-width:1;stroke-linecap:butt;stroke-linejoin:miter;stroke:rgb(26.666667%,26.666667%,26.666667%);stroke-opacity:1;stroke-miterlimit:10;" d="M 133.894531 77.792969 L 137.976562 47.652344 "/>
<path style="fill:none;stroke-width:1;stroke-linecap:butt;stroke-linejoin:miter;stroke:rgb(26.666667%,26.666667%,26.666667%);stroke-opacity:1;stroke-miterlimit:10;" d="M 133.894531 77.792969 L 158.5 84.972656 "/>
<path style="fill:none;stroke-width:1;stroke-linecap:butt;stroke-linejoin:miter;stroke:rgb(26.666667%,26.666667%,26.666667%);stroke-opacity:1;stroke-miterlimit:10;" d="M 117.203125 128.148438 L 130.714844 153.160156 "/>
<path style="fill:none;stroke-width:1;stroke-linecap:butt;stroke-linejoin:miter;stroke:rgb(26.666667%,26.666667%,26.666667%);stroke-opacity:1;stroke-miterlimit:10;" d="M 117.203125 128.148438 L 103.792969 150.90625 "/>
<path style="fill:none;stroke-width:1;stroke-linecap:butt;stroke-linejoin:miter;stroke:rgb(26.666667%,26.666667%,26.666667%);stroke-opacity:1;stroke-miterlimit:10;" d="M 43.867188 105.644531 L 34.742188 132.234375 "/>
<path style="fill:none;stroke-width:1;stroke-linecap:butt;stroke-linejoin:miter;stroke:rgb(26.666667%,26.666667%,26.666667%);stroke-opacity:1;stroke-miterlimit:10;" d="M 43.867188 105.644531 L 20 105.375 "/>
<path style="fill:none;stroke-width:1;stroke-linecap:butt;stroke-linejoin:miter;stroke:rgb(26.666667%,26.666667%,26.666667%);stroke-opacity:1;stroke-miterlimit:10;" d="M 50.429688 58.046875 L 48.636719 29.496094 "/>
<path style="fill:none;stroke-width:1;stroke-linecap:butt;stroke-linejoin:miter;stroke:rgb(26.666667%,26.666667%,26.666667%);stroke-opacity:1;stroke-miterlimit:10;" d="M 50.429688 58.046875 L 27.667969 49.164062 "/>
<path style="fill:none;stroke-width:1;stroke-linecap:butt;stroke-linejoin:miter;stroke:rgb(26.666667%,26.666667%,26.666667%);stroke-opacity:1;stroke-miterlimit:10;" d="M 137.976562 47.652344 L 132.378906 20 "/>
<path style="fill:none;stroke-width:1;stroke-linecap:butt;stroke-linejoin:miter;stroke:rgb(26.666667%,26.666667%,26.666667%);stroke-opacity:1;stroke-miterlimit:10;" d="M 137.976562 47.652344 L 156.667969 28.933594 "/>
<path style="fill:none;stroke-width:1;stroke-linecap:butt;stroke-linejoin:miter;stroke:rgb(26.666667%,26.666667%,26.666667%);stroke-opacity:1;stroke-miterlimit:10;" d="M 158.5 84.972656 L 176.898438 103.175781 "/>
<path style="fill:none;stroke-width:1;stroke-linecap:butt;stroke-linejoin:miter;stroke:rgb(26.666667%,26.666667%,26.666667%);stroke-opacity:1;stroke-miterlimit:10;" d="M 158.5 84.972656 L 180 71.832031 "/>
<path style="fill:none;stroke-width:1;stroke-linecap:butt;stroke-linejoin:miter;stroke:rgb(26.666667%,26.666667%,26.666667%);stroke-opacity:1;stroke-miterlimit:10;" d="M 130.714844 153.160156 L 137.546875 180 "/>
<path style="fill-rule:nonzero;fill:rgb(100%,0%,0%);fill-opacity:1;stroke-width:1;stroke-linecap:butt;stroke-linejoin:miter;stroke:rgb(0%,0%,0%);stroke-opacity:1;stroke-miterlimit:10;" d="M 97.832031 89.867188 C 97.832031 95.390625 93.355469 99.867188 87.832031 99.867188 C 82.308594 99.867188 77.832031 95.390625 77.832031 89.867188 C 77.832031 84.34375 82.308594 79.867188 87.832031 79.867188 C 93.355469 79.867188 97.832031 84.34375 97.832031 89.867188 "/>
<path style="fill-rule:nonzero;fill:rgb(100%,0%,0%);fill-opacity:1;stroke-width:1;stroke-linecap:butt;stroke-linejoin:miter;stroke:rgb(0%,0%,0%);stroke-opacity:1;stroke-miterlimit:10;" d="M 122.925781 97.261719 C 122.925781 102.785156 118.445312 107.261719 112.925781 107.261719 C 107.402344 107.261719 102.925781 102.785156 102.925781 97.261719 C 102.925781 91.742188 107.402344 87.261719 112.925781 87.261719 C 118.445312 87.261719 122.925781 91.742188 122.925781 97.261719 "/>
<path style="fill-rule:nonzero;fill:rgb(100%,0%,0%);fill-opacity:1;stroke-width:1;stroke-linecap:butt;stroke-linejoin:miter;stroke:rgb(0%,0%,0%);stroke-opacity:1;stroke-miterlimit:10;" d="M 72.652344 84.871094 C 72.652344 90.394531 68.175781 94.871094 62.652344 94.871094 C 57.128906 94.871094 52.652344 90.394531 52.652344 84.871094 C 52.652344 79.347656 57.128906 74.871094 62.652344 74.871094 C 68.175781 74.871094 72.652344 79.347656 72.652344 84.871094 "/>
<path style="fill-rule:nonzero;fill:rgb(100%,0%,0%);fill-opacity:1;stroke-width:1;stroke-linecap:butt;stroke-linejoin:miter;stroke:rgb(0%,0%,0%);stroke-opacity:1;stroke-miterlimit:10;" d="M 143.894531 77.792969 C 143.894531 83.3125 139.417969 87.792969 133.894531 87.792969 C 128.371094 87.792969 123.894531 83.3125 123.894531 77.792969 C 123.894531 72.269531 128.371094 67.792969 133.894531 67.792969 C 139.417969 67.792969 143.894531 72.269531 143.894531 77.792969 "/>
<path style="fill-rule:nonzero;fill:rgb(100%,0%,0%);fill-opacity:1;stroke-width:1;stroke-linecap:butt;stroke-linejoin:miter;stroke:rgb(0%,0%,0%);stroke-opacity:1;stroke-miterlimit:10;" d="M 127.203125 128.148438 C 127.203125 133.671875 122.726562 138.148438 117.203125 138.148438 C 111.683594 138.148438 107.203125 133.671875 107.203125 128.148438 C 107.203125 122.625 111.683594 118.148438 117.203125 118.148438 C 122.726562 118.148438 127.203125 122.625 127.203125 128.148438 "/>
<path style="fill-rule:nonzero;fill:rgb(100%,0%,0%);fill-opacity:1;stroke-width:1;stroke-linecap:butt;stroke-linejoin:miter;stroke:rgb(0%,0%,0%);stroke-opacity:1;stroke-miterlimit:10;" d="M 53.867188 105.644531 C 53.867188 111.164062 49.390625 115.644531 43.867188 115.644531 C 38.34375 115.644531 33.867188 111.164062 33.867188 105.644531 C 33.867188 100.121094 38.34375 95.644531 43.867188 95.644531 C 49.390625 95.644531 53.867188 100.121094 53.867188 105.644531 "/>
<path style="fill-rule:nonzero;fill:rgb(100%,0%,0%);fill-opacity:1;stroke-width:1;stroke-linecap:butt;stroke-linejoin:miter;stroke:rgb(0%,0%,0%);stroke-opacity:1;stroke-miterlimit:10;" d="M 60.429688 58.046875 C 60.429688 63.570312 55.953125 68.046875 50.429688 68.046875 C 44.90625 68.046875 40.429688 63.570312 40.429688 58.046875 C 40.429688 52.523438 44.90625 48.046875 50.429688 48.046875 C 55.953125 48.046875 60.429688 52.523438 60.429688 58.046875 "/>
<path style="fill-rule:nonzero;fill:rgb(100%,0%,0%);fill-opacity:1;stroke-width:1;stroke-linecap:butt;stroke-linejoin:miter;stroke:rgb(0%,0%,0%);stroke-opacity:1;stroke-miterlimit:10;" d="M 147.976562 47.652344 C 147.976562 53.175781 143.5 57.652344 137.976562 57.652344 C 132.453125 57.652344 127.976562 53.175781 127.976562 47.652344 C 127.976562 42.128906 132.453125 37.652344 137.976562 37.652344 C 143.5 37.652344 147.976562 42.128906 147.976562 47.652344 "/>
<path style="fill-rule:nonzero;fill:rgb(100%,0%,0%);fill-opacity:1;stroke-width:1;stroke-linecap:butt;stroke-linejoin:miter;stroke:rgb(0%,0%,0%);stroke-opacity:1;stroke-miterlimit:10;" d="M 168.5 84.972656 C 168.5 90.496094 164.023438 94.972656 158.5 94.972656 C 152.976562 94.972656 148.5 90.496094 148.5 84.972656 C 148.5 79.449219 152.976562 74.972656 158.5 74.972656 C 164.023438 74.972656 168.5 79.449219 168.5 84.972656 "/>
<path style="fill-rule:nonzero;fill:rgb(100%,0%,0%);fill-opacity:1;stroke-width:1;stroke-linecap:butt;stroke-linejoin:miter;stroke:rgb(0%,0%,0%);stroke-opacity:1;stroke-miterlimit:10;" d="M 140.714844 153.160156 C 140.714844 158.679688 136.238281 163.160156 130.714844 163.160156 C 125.191406 163.160156 120.714844 158.679688 120.714844 153.160156 C 120.714844 147.636719 125.191406 143.160156 130.714844 143.160156 C 136.238281 143.160156 140.714844 147.636719 140.714844 153.160156 "/>
<path style="fill-rule:nonzero;fill:rgb(100%,0%,0%);fill-opacity:1;stroke-width:1;stroke-linecap:butt;stroke-linejoin:miter;stroke:rgb(0%,0%,0%);stroke-opacity:1;stroke-miterlimit:10;" d="M 113.792969 150.90625 C 113.792969 156.429688 109.316406 160.90625 103.792969 160.90625 C 98.269531 160.90625 93.792969 156.429688 93.792969 150.90625 C 93.792969 145.382812 98.269531 140.90625 103.792969 140.90625 C 109.316406 140.90625 113.792969 145.382812 113.792969 150.90625 "/>
<path style="fill-rule:nonzero;fill:rgb(100%,0%,0%);fill-opacity:1;stroke-width:1;stroke-linecap:butt;stroke-linejoin:miter;stroke:rgb(0%,0%,0%);stroke-opacity:1;stroke-miterlimit:10;" d="M 44.742188 132.234375 C 44.742188 137.757812 40.265625 142.234375 34.742188 142.234375 C 29.21875 142.234375 24.742188 137.757812 24.742188 132.234375 C 24.742188 126.714844 29.21875 122.234375 34.742188 122.234375 C 40.265625 122.234375 44.742188 126.714844 44.742188 132.234375 "/>
<path style="fill-rule:nonzero;fill:rgb(100%,0%,0%);fill-opacity:1;stroke-width:1;stroke-linecap:butt;stroke-linejoin:miter;stroke:rgb(0%,0%,0%);stroke-opacity:1;stroke-miterlimit:10;" d="M 30 105.375 C 30 110.894531 25.523438 115.375 20 115.375 C 14.476562 115.375 10 110.894531 10 105.375 C 10 99.851562 14.476562 95.375 20 95.375 C 25.523438 95.375 30 99.851562 30 105.375 "/>
<path style="fill-rule:nonzero;fill:rgb(100%,0%,0%);fill-opacity:1;stroke-width:1;stroke-linecap:butt;stroke-linejoin:miter;stroke:rgb(0%,0%,0%);stroke-opacity:1;stroke-miterlimit:10;" d="M 58.636719 29.496094 C 58.636719 35.019531 54.160156 39.496094 48.636719 39.496094 C 43.113281 39.496094 38.636719 35.019531 38.636719 29.496094 C 38.636719 23.972656 43.113281 19.496094 48.636719 19.496094 C 54.160156 19.496094 58.636719 23.972656 58.636719 29.496094 "/>
<path style="fill-rule:nonzero;fill:rgb(100%,0%,0%);fill-opacity:1;stroke-width:1;stroke-linecap:butt;stroke-linejoin:miter;stroke:rgb(0%,0%,0%);stroke-opacity:1;stroke-miterlimit:10;" d="M 37.667969 49.164062 C 37.667969 54.6875 33.191406 59.164062 27.667969 59.164062 C 22.148438 59.164062 17.667969 54.6875 17.667969 49.164062 C 17.667969 43.640625 22.148438 39.164062 27.667969 39.164062 C 33.191406 39.164062 37.667969 43.640625 37.667969 49.164062 "/>
<path style="fill-rule:nonzero;fill:rgb(100%,0%,0%);fill-opacity:1;stroke-width:1;stroke-linecap:butt;stroke-linejoin:miter;stroke:rgb(0%,0%,0%);stroke-opacity:1;stroke-miterlimit:10;" d="M 142.378906 20 C 142.378906 25.523438 137.902344 30 132.378906 30 C 126.855469 30 122.378906 25.523438 122.378906 20 C 122.378906 14.476562 126.855469 10 132.378906 10 C 137.902344 10 142.378906 14.476562 142.378906 20 "/>
<path style="fill-rule:nonzero;fill:rgb(100%,0%,0%);fill-opacity:1;stroke-width:1;stroke-linecap:butt;stroke-linejoin:miter;stroke:rgb(0%,0%,0%);stroke-opacity:1;stroke-miterlimit:10;" d="M 166.667969 28.933594 C 166.667969 34.457031 162.191406 38.933594 156.667969 38.933594 C 151.144531 38.933594 146.667969 34.457031 146.667969 28.933594 C 146.667969 23.410156 151.144531 18.933594 156.667969 18.933594 C 162.191406 18.933594 166.667969 23.410156 166.667969 28.933594 "/>
<path style="fill-rule:nonzero;fill:rgb(100%,0%,0%);fill-opacity:1;stroke-width:1;stroke-linecap:butt;stroke-linejoin:miter;stroke:rgb(0%,0%,0%);stroke-opacity:1;stroke-miterlimit:10;" d="M 186.898438 103.175781 C 186.898438 108.699219 182.417969 113.175781 176.898438 113.175781 C 171.375 113.175781 166.898438 108.699219 166.898438 103.175781 C 166.898438 97.652344 171.375 93.175781 176.898438 93.175781 C 182.417969 93.175781 186.898438 97.652344 186.898438 103.175781 "/>
<path style="fill-rule:nonzero;fill:rgb(100%,0%,0%);fill-opacity:1;stroke-width:1;stroke-linecap:butt;stroke-linejoin:miter;stroke:rgb(0%,0%,0%);stroke-opacity:1;stroke-miterlimit:10;" d="M 190 71.832031 C 190 77.355469 185.523438 81.832031 180 81.832031 C 174.476562 81.832031 170 77.355469 170 71.832031 C 170 66.308594 174.476562 61.832031 180 61.832031 C 185.523438 61.832031 190 66.308594 190 71.832031 "/>
<path style="fill-rule:nonzero;fill:rgb(100%,0%,0%);fill-opacity:1;stroke-width:1;stroke-linecap:butt;stroke-linejoin:miter;stroke:rgb(0%,0%,0%);stroke-opacity:1;stroke-miterlimit:10;" d="M 147.546875 180 C 147.546875 185.523438 143.070312 190 137.546875 190 C 132.023438 190 127.546875 185.523438 127.546875 180 C 127.546875 174.476562 132.023438 170 137.546875 170 C 143.070312 170 147.546875 174.476562 147.546875 180 "/>
</g>
</svg>
