<?xml version="1.0" encoding="UTF-8"?>
<svg xmlns="http://www.w3.org/2000/svg" xmlns:xlink="http://www.w3.org/1999/xlink" width="200pt" height="200pt" viewBox="0 0 200 200" version="1.1">
<g id="surface14">
<rect x="0" y="0" width="200" height="200" style="fill:rgb(100%,100%,100%);fill-opacity:1;stroke:none;"/>
<path style="fill:none;stroke-width:1;stroke-linecap:butt;stroke-linejoin:miter;stroke:rgb(26.666667%,26.666667%,26.666667%);stroke-opacity:1;stroke-miterlimit:10;" d="M 72.921875 127.515625 L 102.628906 134.105469 "/>
<path style="fill:none;stroke-width:1;stroke-linecap:butt;stroke-linejoin:miter;stroke:rgb(26.666667%,26.666667%,26.666667%);stroke-opacity:1;stroke-miterlimit:10;" d="M 150.234375 113.101562 L 102.628906 134.105469 "/>
<path style="fill:none;stroke-width:1;stroke-linecap:butt;stroke-linejoin:miter;stroke:rgb(26.666667%,26.666667%,26.666667%);stroke-opacity:1;stroke-miterlimit:10;" d="M 102.628906 134.105469 L 82.109375 99.851562 "/>
<path style="fill:none;stroke-width:1;stroke-linecap:butt;stroke-linejoin:miter;stroke:rgb(26.666667%,26.666667%,26.666667%);stroke-opacity:1;stroke-miterlimit:10;" d="M 127.933594 43.554688 L 144.796875 82.21875 "/>
<path style="fill:none;stroke-width:1;stroke-linecap:butt;stroke-linejoin:miter;stroke:rgb(26.666667%,26.666667%,26.666667%);stroke-opacity:1;stroke-miterlimit:10;" d="M 150.234375 113.101562 L 144.796875 82.21875 "/>
<path style="fill:none;stroke-width:1;stroke-linecap:butt;stroke-linejoin:miter;stroke:rgb(26.666667%,26.666667%,26.666667%);stroke-opacity:1;stroke-miterlimit:10;" d="M 72.921875 127.515625 L 44.085938 144.382812 "/>
<path style="fill:none;stroke-width:1;stroke-linecap:butt;stroke-linejoin:miter;stroke:rgb(26.666667%,26.666667%,26.666667%);stroke-opacity:1;stroke-miterlimit:10;" d="M 72.921875 127.515625 L 109.210938 107.691406 "/>
<path style="fill:none;stroke-width:1;stroke-linecap:butt;stroke-linejoin:miter;stroke:rgb(26.666667%,26.666667%,26.666667%);stroke-opacity:1;stroke-miterlimit:10;" d="M 82.109375 99.851562 L 109.210938 107.691406 "/>
<path style="fill:none;stroke-width:1;stroke-linecap:butt;stroke-linejoin:miter;stroke:rgb(26.666667%,26.666667%,26.666667%);stroke-opacity:1;stroke-miterlimit:10;" d="M 144.796875 82.21875 L 109.210938 107.691406 "/>
<path style="fill:none;stroke-width:1;stroke-linecap:butt;stroke-linejoin:miter;stroke:rgb(26.666667%,26.666667%,26.666667%);stroke-opacity:1;stroke-miterlimit:10;" d="M 102.628906 134.105469 L 71.039062 162.042969 "/>
<path style="fill:none;stroke-width:1;stroke-linecap:butt;stroke-linejoin:miter;stroke:rgb(26.666667%,26.666667%,26.666667%);stroke-opacity:1;stroke-miterlimit:10;" d="M 44.085938 144.382812 L 71.039062 162.042969 "/>
<path style="fill:none;stroke-width:1;stroke-linecap:butt;stroke-linejoin:miter;stroke:rgb(26.666667%,26.666667%,26.666667%);stroke-opacity:1;stroke-miterlimit:10;" d="M 150.234375 113.101562 L 160.378906 159.78125 "/>
<path style="fill:none;stroke-width:1;stroke-linecap:butt;stroke-linejoin:miter;stroke:rgb(26.666667%,26.666667%,26.666667%);stroke-opacity:1;stroke-miterlimit:10;" d="M 141.871094 180 L 160.378906 159.78125 "/>
<path style="fill:none;stroke-width:1;stroke-linecap:butt;stroke-linejoin:miter;stroke:rgb(26.666667%,26.666667%,26.666667%);stroke-opacity:1;stroke-miterlimit:10;" d="M 150.234375 113.101562 L 165.84375 66.089844 "/>
<path style="fill:none;stroke-width:1;stroke-linecap:butt;stroke-linejoin:miter;stroke:rgb(26.666667%,26.666667%,26.666667%);stroke-opacity:1;stroke-miterlimit:10;" d="M 144.796875 82.21875 L 165.84375 66.089844 "/>
<path style="fill:none;stroke-width:1;stroke-linecap:butt;stroke-linejoin:miter;stroke:rgb(26.666667%,26.666667%,26.666667%);stroke-opacity:1;stroke-miterlimit:10;" d="M 175.300781 32.164062 L 165.84375 66.089844 "/>
<path style="fill:none;stroke-width:1;stroke-linecap:butt;stroke-linejoin:miter;stroke:rgb(26.666667%,26.666667%,26.666667%);stroke-opacity:1;stroke-miterlimit:10;" d="M 150.234375 113.101562 L 174.945312 86.363281 "/>
<path style="fill:none;stroke-width:1;stroke-linecap:butt;stroke-linejoin:miter;stroke:rgb(26.666667%,26.666667%,26.666667%);stroke-opacity:1;stroke-miterlimit:10;" d="M 144.796875 82.21875 L 174.945312 86.363281 "/>
<path style="fill:none;stroke-width:1;stroke-linecap:butt;stroke-linejoin:miter;stroke:rgb(26.666667%,26.666667%,26.666667%);stroke-opacity:1;stroke-miterlimit:10;" d="M 165.84375 66.089844 L 174.945312 86.363281 "/>
<path style="fill:none;stroke-width:1;stroke-linecap:butt;stroke-linejoin:miter;stroke:rgb(26.666667%,26.666667%,26.666667%);stroke-opacity:1;stroke-miterlimit:10;" d="M 150.234375 113.101562 L 178.066406 107.976562 "/>
<path style="fill:none;stroke-width:1;stroke-linecap:butt;stroke-linejoin:miter;stroke:rgb(26.666667%,26.666667%,26.666667%);stroke-opacity:1;stroke-miterlimit:10;" d="M 144.796875 82.21875 L 178.066406 107.976562 "/>
<path style="fill:none;stroke-width:1;stroke-linecap:butt;stroke-linejoin:miter;stroke:rgb(26.666667%,26.666667%,26.666667%);stroke-opacity:1;stroke-miterlimit:10;" d="M 180 139.84375 L 178.066406 107.976562 "/>
<path style="fill:none;stroke-width:1;stroke-linecap:butt;stroke-linejoin:miter;stroke:rgb(26.666667%,26.666667%,26.666667%);stroke-opacity:1;stroke-miterlimit:10;" d="M 174.945312 86.363281 L 178.066406 107.976562 "/>
<path style="fill:none;stroke-width:1;stroke-linecap:butt;stroke-linejoin:miter;stroke:rgb(26.666667%,26.666667%,26.666667%);stroke-opacity:1;stroke-miterlimit:10;" d="M 44.085938 144.382812 L 20 125.617188 "/>
<path style="fill:none;stroke-width:1;stroke-linecap:butt;stroke-linejoin:miter;stroke:rgb(26.666667%,26.666667%,26.666667%);stroke-opacity:1;stroke-miterlimit:10;" d="M 150.234375 113.101562 L 136.289062 141.644531 "/>
<path style="fill:none;stroke-width:1;stroke-linecap:butt;stroke-linejoin:miter;stroke:rgb(26.666667%,26.666667%,26.666667%);stroke-opacity:1;stroke-miterlimit:10;" d="M 141.871094 180 L 136.289062 141.644531 "/>
<path style="fill:none;stroke-width:1;stroke-linecap:butt;stroke-linejoin:miter;stroke:rgb(26.666667%,26.666667%,26.666667%);stroke-opacity:1;stroke-miterlimit:10;" d="M 102.628906 134.105469 L 136.289062 141.644531 "/>
<path style="fill:none;stroke-width:1;stroke-linecap:butt;stroke-linejoin:miter;stroke:rgb(26.666667%,26.666667%,26.666667%);stroke-opacity:1;stroke-miterlimit:10;" d="M 109.210938 107.691406 L 136.289062 141.644531 "/>
<path style="fill:none;stroke-width:1;stroke-linecap:butt;stroke-linejoin:miter;stroke:rgb(26.666667%,26.666667%,26.666667%);stroke-opacity:1;stroke-miterlimit:10;" d="M 180 139.84375 L 136.289062 141.644531 "/>
<path style="fill:none;stroke-width:1;stroke-linecap:butt;stroke-linejoin:miter;stroke:rgb(26.666667%,26.666667%,26.666667%);stroke-opacity:1;stroke-miterlimit:10;" d="M 68.628906 20 L 48.691406 35.816406 "/>
<path style="fill-rule:nonzero;fill:rgb(100%,0%,0%);fill-opacity:1;stroke-width:1;stroke-linecap:butt;stroke-linejoin:miter;stroke:rgb(0%,0%,0%);stroke-opacity:1;stroke-miterlimit:10;" d="M 137.933594 43.554688 C 137.933594 49.078125 133.457031 53.554688 127.933594 53.554688 C 122.410156 53.554688 117.933594 49.078125 117.933594 43.554688 C 117.933594 38.03125 122.410156 33.554688 127.933594 33.554688 C 133.457031 33.554688 137.933594 38.03125 137.933594 43.554688 "/>
<path style="fill-rule:nonzero;fill:rgb(100%,0%,0%);fill-opacity:1;stroke-width:1;stroke-linecap:butt;stroke-linejoin:miter;stroke:rgb(0%,0%,0%);stroke-opacity:1;stroke-miterlimit:10;" d="M 82.921875 127.515625 C 82.921875 133.039062 78.445312 137.515625 72.921875 137.515625 C 67.398438 137.515625 62.921875 133.039062 62.921875 127.515625 C 62.921875 121.992188 67.398438 117.515625 72.921875 117.515625 C 78.445312 117.515625 82.921875 121.992188 82.921875 127.515625 "/>
<path style="fill-rule:nonzero;fill:rgb(100%,0%,0%);fill-opacity:1;stroke-width:1;stroke-linecap:butt;stroke-linejoin:miter;stroke:rgb(0%,0%,0%);stroke-opacity:1;stroke-miterlimit:10;" d="M 160.234375 113.101562 C 160.234375 118.625 155.757812 123.101562 150.234375 123.101562 C 144.710938 123.101562 140.234375 118.625 140.234375 113.101562 C 140.234375 107.578125 144.710938 103.101562 150.234375 103.101562 C 155.757812 103.101562 160.234375 107.578125 160.234375 113.101562 "/>
<path style="fill-rule:nonzero;fill:rgb(100%,0%,0%);fill-opacity:1;stroke-width:1;stroke-linecap:butt;stroke-linejoin:miter;stroke:rgb(0%,0%,0%);stroke-opacity:1;stroke-miterlimit:10;" d="M 151.871094 180 C 151.871094 185.523438 147.394531 190 141.871094 190 C 136.347656 190 131.871094 185.523438 131.871094 180 C 131.871094 174.476562 136.347656 170 141.871094 170 C 147.394531 170 151.871094 174.476562 151.871094 180 "/>
<path style="fill-rule:nonzero;fill:rgb(100%,0%,0%);fill-opacity:1;stroke-width:1;stroke-linecap:butt;stroke-linejoin:miter;stroke:rgb(0%,0%,0%);stroke-opacity:1;stroke-miterlimit:10;" d="M 112.628906 134.105469 C 112.628906 139.628906 108.152344 144.105469 102.628906 144.105469 C 97.105469 144.105469 92.628906 139.628906 92.628906 134.105469 C 92.628906 128.582031 97.105469 124.105469 102.628906 124.105469 C 108.152344 124.105469 112.628906 128.582031 112.628906 134.105469 "/>
<path style="fill-rule:nonzero;fill:rgb(100%,0%,0%);fill-opacity:1;stroke-width:1;stroke-linecap:butt;stroke-linejoin:miter;stroke:rgb(0%,0%,0%);stroke-opacity:1;stroke-miterlimit:10;" d="M 92.109375 99.851562 C 92.109375 105.375 87.632812 109.851562 82.109375 109.851562 C 76.585938 109.851562 72.109375 105.375 72.109375 99.851562 C 72.109375 94.332031 76.585938 89.851562 82.109375 89.851562 C 87.632812 89.851562 92.109375 94.332031 92.109375 99.851562 "/>
<path style="fill-rule:nonzero;fill:rgb(100%,0%,0%);fill-opacity:1;stroke-width:1;stroke-linecap:butt;stroke-linejoin:miter;stroke:rgb(0%,0%,0%);stroke-opacity:1;stroke-miterlimit:10;" d="M 154.796875 82.21875 C 154.796875 87.742188 150.320312 92.21875 144.796875 92.21875 C 139.273438 92.21875 134.796875 87.742188 134.796875 82.21875 C 134.796875 76.695312 139.273438 72.21875 144.796875 72.21875 C 150.320312 72.21875 154.796875 76.695312 154.796875 82.21875 "/>
<path style="fill-rule:nonzero;fill:rgb(100%,0%,0%);fill-opacity:1;stroke-width:1;stroke-linecap:butt;stroke-linejoin:miter;stroke:rgb(0%,0%,0%);stroke-opacity:1;stroke-miterlimit:10;" d="M 54.085938 144.382812 C 54.085938 149.90625 49.605469 154.382812 44.085938 154.382812 C 38.5625 154.382812 34.085938 149.90625 34.085938 144.382812 C 34.085938 138.859375 38.5625 134.382812 44.085938 134.382812 C 49.605469 134.382812 54.085938 138.859375 54.085938 144.382812 "/>
<path style="fill-rule:nonzero;fill:rgb(100%,0%,0%);fill-opacity:1;stroke-width:1;stroke-linecap:butt;stroke-linejoin:miter;stroke:rgb(0%,0%,0%);stroke-opacity:1;stroke-miterlimit:10;" d="M 119.210938 107.691406 C 119.210938 113.214844 114.734375 117.691406 109.210938 117.691406 C 103.6875 117.691406 99.210938 113.214844 99.210938 107.691406 C 99.210938 102.167969 103.6875 97.691406 109.210938 97.691406 C 114.734375 97.691406 119.210938 102.167969 119.210938 107.691406 "/>
<path style="fill-rule:nonzero;fill:rgb(100%,0%,0%);fill-opacity:1;stroke-width:1;stroke-linecap:butt;stroke-linejoin:miter;stroke:rgb(0%,0%,0%);stroke-opacity:1;stroke-miterlimit:10;" d="M 185.300781 32.164062 C 185.300781 37.683594 180.824219 42.164062 175.300781 42.164062 C 169.777344 42.164062 165.300781 37.683594 165.300781 32.164062 C 165.300781 26.640625 169.777344 22.164062 175.300781 22.164062 C 180.824219 22.164062 185.300781 26.640625 185.300781 32.164062 "/>
<path style="fill-rule:nonzero;fill:rgb(100%,0%,0%);fill-opacity:1;stroke-width:1;stroke-linecap:butt;stroke-linejoin:miter;stroke:rgb(0%,0%,0%);stroke-opacity:1;stroke-miterlimit:10;" d="M 81.039062 162.042969 C 81.039062 167.5625 76.5625 172.042969 71.039062 172.042969 C 65.515625 172.042969 61.039062 167.5625 61.039062 162.042969 C 61.039062 156.519531 65.515625 152.042969 71.039062 152.042969 C 76.5625 152.042969 81.039062 156.519531 81.039062 162.042969 "/>
<path style="fill-rule:nonzero;fill:rgb(100%,0%,0%);fill-opacity:1;stroke-width:1;stroke-linecap:butt;stroke-linejoin:miter;stroke:rgb(0%,0%,0%);stroke-opacity:1;stroke-miterlimit:10;" d="M 170.378906 159.78125 C 170.378906 165.304688 165.902344 169.78125 160.378906 169.78125 C 154.855469 169.78125 150.378906 165.304688 150.378906 159.78125 C 150.378906 154.261719 154.855469 149.78125 160.378906 149.78125 C 165.902344 149.78125 170.378906 154.261719 170.378906 159.78125 "/>
<path style="fill-rule:nonzero;fill:rgb(100%,0%,0%);fill-opacity:1;stroke-width:1;stroke-linecap:butt;stroke-linejoin:miter;stroke:rgb(0%,0%,0%);stroke-opacity:1;stroke-miterlimit:10;" d="M 190 139.84375 C 190 145.367188 185.523438 149.84375 180 149.84375 C 174.476562 149.84375 170 145.367188 170 139.84375 C 170 134.320312 174.476562 129.84375 180 129.84375 C 185.523438 129.84375 190 134.320312 190 139.84375 "/>
<path style="fill-rule:nonzero;fill:rgb(100%,0%,0%);fill-opacity:1;stroke-width:1;stroke-linecap:butt;stroke-linejoin:miter;stroke:rgb(0%,0%,0%);stroke-opacity:1;stroke-miterlimit:10;" d="M 78.628906 20 C 78.628906 25.523438 74.152344 30 68.628906 30 C 63.105469 30 58.628906 25.523438 58.628906 20 C 58.628906 14.476562 63.105469 10 68.628906 10 C 74.152344 10 78.628906 14.476562 78.628906 20 "/>
<path style="fill-rule:nonzero;fill:rgb(100%,0%,0%);fill-opacity:1;stroke-width:1;stroke-linecap:butt;stroke-linejoin:miter;stroke:rgb(0%,0%,0%);stroke-opacity:1;stroke-miterlimit:10;" d="M 175.84375 66.089844 C 175.84375 71.609375 171.367188 76.089844 165.84375 76.089844 C 160.320312 76.089844 155.84375 71.609375 155.84375 66.089844 C 155.84375 60.566406 160.320312 56.089844 165.84375 56.089844 C 171.367188 56.089844 175.84375 60.566406 175.84375 66.089844 "/>
<path style="fill-rule:nonzero;fill:rgb(100%,0%,0%);fill-opacity:1;stroke-width:1;stroke-linecap:butt;stroke-linejoin:miter;stroke:rgb(0%,0%,0%);stroke-opacity:1;stroke-miterlimit:10;" d="M 184.945312 86.363281 C 184.945312 91.886719 180.464844 96.363281 174.945312 96.363281 C 169.421875 96.363281 164.945312 91.886719 164.945312 86.363281 C 164.945312 80.839844 169.421875 76.363281 174.945312 76.363281 C 180.464844 76.363281 184.945312 80.839844 184.945312 86.363281 "/>
<path style="fill-rule:nonzero;fill:rgb(100%,0%,0%);fill-opacity:1;stroke-width:1;stroke-linecap:butt;stroke-linejoin:miter;stroke:rgb(0%,0%,0%);stroke-opacity:1;stroke-miterlimit:10;" d="M 188.066406 107.976562 C 188.066406 113.5 183.589844 117.976562 178.066406 117.976562 C 172.542969 117.976562 168.066406 113.5 168.066406 107.976562 C 168.066406 102.453125 172.542969 97.976562 178.066406 97.976562 C 183.589844 97.976562 188.066406 102.453125 188.066406 107.976562 "/>
<path style="fill-rule:nonzero;fill:rgb(100%,0%,0%);fill-opacity:1;stroke-width:1;stroke-linecap:butt;stroke-linejoin:miter;stroke:rgb(0%,0%,0%);stroke-opacity:1;stroke-miterlimit:10;" d="M 30 125.617188 C 30 131.140625 25.523438 135.617188 20 135.617188 C 14.476562 135.617188 10 131.140625 10 125.617188 C 10 120.09375 14.476562 115.617188 20 115.617188 C 25.523438 115.617188 30 120.09375 30 125.617188 "/>
<path style="fill-rule:nonzero;fill:rgb(100%,0%,0%);fill-opacity:1;stroke-width:1;stroke-linecap:butt;stroke-linejoin:miter;stroke:rgb(0%,0%,0%);stroke-opacity:1;stroke-miterlimit:10;" d="M 146.289062 141.644531 C 146.289062 147.167969 141.8125 151.644531 136.289062 151.644531 C 130.765625 151.644531 126.289062 147.167969 126.289062 141.644531 C 126.289062 136.121094 130.765625 131.644531 136.289062 131.644531 C 141.8125 131.644531 146.289062 136.121094 146.289062 141.644531 "/>
<path style="fill-rule:nonzero;fill:rgb(100%,0%,0%);fill-opacity:1;stroke-width:1;stroke-linecap:butt;stroke-linejoin:miter;stroke:rgb(0%,0%,0%);stroke-opacity:1;stroke-miterlimit:10;" d="M 58.691406 35.816406 C 58.691406 41.339844 54.210938 45.816406 48.691406 45.816406 C 43.167969 45.816406 38.691406 41.339844 38.691406 35.816406 C 38.691406 30.292969 43.167969 25.816406 48.691406 25.816406 C 54.210938 25.816406 58.691406 30.292969 58.691406 35.816406 "/>
</g>
</svg>
