<?xml version="1.0" encoding="UTF-8"?>
<svg xmlns="http://www.w3.org/2000/svg" xmlns:xlink="http://www.w3.org/1999/xlink" width="200pt" height="200pt" viewBox="0 0 200 200" version="1.1">
<g id="surface14">
<rect x="0" y="0" width="200" height="200" style="fill:rgb(100%,100%,100%);fill-opacity:1;stroke:none;"/>
<path style="fill:none;stroke-width:1;stroke-linecap:butt;stroke-linejoin:miter;stroke:rgb(26.666667%,26.666667%,26.666667%);stroke-opacity:1;stroke-miterlimit:10;" d="M 80.457031 75.148438 L 123.976562 76.445312 "/>
<path style="fill:none;stroke-width:1;stroke-linecap:butt;stroke-linejoin:miter;stroke:rgb(26.666667%,26.666667%,26.666667%);stroke-opacity:1;stroke-miterlimit:10;" d="M 136.117188 124.617188 L 123.976562 76.445312 "/>
<path style="fill:none;stroke-width:1;stroke-linecap:butt;stroke-linejoin:miter;stroke:rgb(26.666667%,26.666667%,26.666667%);stroke-opacity:1;stroke-miterlimit:10;" d="M 80.457031 75.148438 L 80.914062 118.796875 "/>
<path style="fill:none;stroke-width:1;stroke-linecap:butt;stroke-linejoin:miter;stroke:rgb(26.666667%,26.666667%,26.666667%);stroke-opacity:1;stroke-miterlimit:10;" d="M 136.117188 124.617188 L 144.703125 91.253906 "/>
<path style="fill:none;stroke-width:1;stroke-linecap:butt;stroke-linejoin:miter;stroke:rgb(26.666667%,26.666667%,26.666667%);stroke-opacity:1;stroke-miterlimit:10;" d="M 180 83.207031 L 144.703125 91.253906 "/>
<path style="fill:none;stroke-width:1;stroke-linecap:butt;stroke-linejoin:miter;stroke:rgb(26.666667%,26.666667%,26.666667%);stroke-opacity:1;stroke-miterlimit:10;" d="M 80.914062 118.796875 L 105.089844 158.507812 "/>
<path style="fill:none;stroke-width:1;stroke-linecap:butt;stroke-linejoin:miter;stroke:rgb(26.666667%,26.666667%,26.666667%);stroke-opacity:1;stroke-miterlimit:10;" d="M 80.457031 75.148438 L 44.773438 66.449219 "/>
<path style="fill:none;stroke-width:1;stroke-linecap:butt;stroke-linejoin:miter;stroke:rgb(26.666667%,26.666667%,26.666667%);stroke-opacity:1;stroke-miterlimit:10;" d="M 136.117188 124.617188 L 90.527344 130.027344 "/>
<path style="fill:none;stroke-width:1;stroke-linecap:butt;stroke-linejoin:miter;stroke:rgb(26.666667%,26.666667%,26.666667%);stroke-opacity:1;stroke-miterlimit:10;" d="M 80.457031 75.148438 L 60.261719 77.757812 "/>
<path style="fill:none;stroke-width:1;stroke-linecap:butt;stroke-linejoin:miter;stroke:rgb(26.666667%,26.666667%,26.666667%);stroke-opacity:1;stroke-miterlimit:10;" d="M 80.914062 118.796875 L 60.261719 77.757812 "/>
<path style="fill:none;stroke-width:1;stroke-linecap:butt;stroke-linejoin:miter;stroke:rgb(26.666667%,26.666667%,26.666667%);stroke-opacity:1;stroke-miterlimit:10;" d="M 44.773438 66.449219 L 60.261719 77.757812 "/>
<path style="fill:none;stroke-width:1;stroke-linecap:butt;stroke-linejoin:miter;stroke:rgb(26.666667%,26.666667%,26.666667%);stroke-opacity:1;stroke-miterlimit:10;" d="M 136.117188 124.617188 L 140.035156 169.023438 "/>
<path style="fill:none;stroke-width:1;stroke-linecap:butt;stroke-linejoin:miter;stroke:rgb(26.666667%,26.666667%,26.666667%);stroke-opacity:1;stroke-miterlimit:10;" d="M 105.089844 158.507812 L 140.035156 169.023438 "/>
<path style="fill:none;stroke-width:1;stroke-linecap:butt;stroke-linejoin:miter;stroke:rgb(26.666667%,26.666667%,26.666667%);stroke-opacity:1;stroke-miterlimit:10;" d="M 80.457031 75.148438 L 101.5 73.605469 "/>
<path style="fill:none;stroke-width:1;stroke-linecap:butt;stroke-linejoin:miter;stroke:rgb(26.666667%,26.666667%,26.666667%);stroke-opacity:1;stroke-miterlimit:10;" d="M 112.054688 20 L 101.5 73.605469 "/>
<path style="fill:none;stroke-width:1;stroke-linecap:butt;stroke-linejoin:miter;stroke:rgb(26.666667%,26.666667%,26.666667%);stroke-opacity:1;stroke-miterlimit:10;" d="M 123.976562 76.445312 L 101.5 73.605469 "/>
<path style="fill:none;stroke-width:1;stroke-linecap:butt;stroke-linejoin:miter;stroke:rgb(26.666667%,26.666667%,26.666667%);stroke-opacity:1;stroke-miterlimit:10;" d="M 90.527344 130.027344 L 101.5 73.605469 "/>
<path style="fill:none;stroke-width:1;stroke-linecap:butt;stroke-linejoin:miter;stroke:rgb(26.666667%,26.666667%,26.666667%);stroke-opacity:1;stroke-miterlimit:10;" d="M 44.773438 66.449219 L 72.074219 34.441406 "/>
<path style="fill:none;stroke-width:1;stroke-linecap:butt;stroke-linejoin:miter;stroke:rgb(26.666667%,26.666667%,26.666667%);stroke-opacity:1;stroke-miterlimit:10;" d="M 60.261719 77.757812 L 72.074219 34.441406 "/>
<path style="fill:none;stroke-width:1;stroke-linecap:butt;stroke-linejoin:miter;stroke:rgb(26.666667%,26.666667%,26.666667%);stroke-opacity:1;stroke-miterlimit:10;" d="M 20 140.980469 L 51.445312 120.785156 "/>
<path style="fill:none;stroke-width:1;stroke-linecap:butt;stroke-linejoin:miter;stroke:rgb(26.666667%,26.666667%,26.666667%);stroke-opacity:1;stroke-miterlimit:10;" d="M 80.914062 118.796875 L 51.445312 120.785156 "/>
<path style="fill:none;stroke-width:1;stroke-linecap:butt;stroke-linejoin:miter;stroke:rgb(26.666667%,26.666667%,26.666667%);stroke-opacity:1;stroke-miterlimit:10;" d="M 44.773438 66.449219 L 51.445312 120.785156 "/>
<path style="fill:none;stroke-width:1;stroke-linecap:butt;stroke-linejoin:miter;stroke:rgb(26.666667%,26.666667%,26.666667%);stroke-opacity:1;stroke-miterlimit:10;" d="M 90.527344 130.027344 L 51.445312 120.785156 "/>
<path style="fill:none;stroke-width:1;stroke-linecap:butt;stroke-linejoin:miter;stroke:rgb(26.666667%,26.666667%,26.666667%);stroke-opacity:1;stroke-miterlimit:10;" d="M 80.914062 118.796875 L 123.238281 137.226562 "/>
<path style="fill:none;stroke-width:1;stroke-linecap:butt;stroke-linejoin:miter;stroke:rgb(26.666667%,26.666667%,26.666667%);stroke-opacity:1;stroke-miterlimit:10;" d="M 144.703125 91.253906 L 123.238281 137.226562 "/>
<path style="fill:none;stroke-width:1;stroke-linecap:butt;stroke-linejoin:miter;stroke:rgb(26.666667%,26.666667%,26.666667%);stroke-opacity:1;stroke-miterlimit:10;" d="M 105.089844 158.507812 L 123.238281 137.226562 "/>
<path style="fill:none;stroke-width:1;stroke-linecap:butt;stroke-linejoin:miter;stroke:rgb(26.666667%,26.666667%,26.666667%);stroke-opacity:1;stroke-miterlimit:10;" d="M 140.035156 169.023438 L 123.238281 137.226562 "/>
<path style="fill:none;stroke-width:1;stroke-linecap:butt;stroke-linejoin:miter;stroke:rgb(26.666667%,26.666667%,26.666667%);stroke-opacity:1;stroke-miterlimit:10;" d="M 80.914062 118.796875 L 112.230469 112.046875 "/>
<path style="fill:none;stroke-width:1;stroke-linecap:butt;stroke-linejoin:miter;stroke:rgb(26.666667%,26.666667%,26.666667%);stroke-opacity:1;stroke-miterlimit:10;" d="M 144.703125 91.253906 L 112.230469 112.046875 "/>
<path style="fill:none;stroke-width:1;stroke-linecap:butt;stroke-linejoin:miter;stroke:rgb(26.666667%,26.666667%,26.666667%);stroke-opacity:1;stroke-miterlimit:10;" d="M 105.089844 158.507812 L 112.230469 112.046875 "/>
<path style="fill:none;stroke-width:1;stroke-linecap:butt;stroke-linejoin:miter;stroke:rgb(26.666667%,26.666667%,26.666667%);stroke-opacity:1;stroke-miterlimit:10;" d="M 90.527344 130.027344 L 112.230469 112.046875 "/>
<path style="fill:none;stroke-width:1;stroke-linecap:butt;stroke-linejoin:miter;stroke:rgb(26.666667%,26.666667%,26.666667%);stroke-opacity:1;stroke-miterlimit:10;" d="M 101.5 73.605469 L 112.230469 112.046875 "/>
<path style="fill:none;stroke-width:1;stroke-linecap:butt;stroke-linejoin:miter;stroke:rgb(26.666667%,26.666667%,26.666667%);stroke-opacity:1;stroke-miterlimit:10;" d="M 90.527344 130.027344 L 76.796875 180 "/>
<path style="fill:none;stroke-width:1;stroke-linecap:butt;stroke-linejoin:miter;stroke:rgb(26.666667%,26.666667%,26.666667%);stroke-opacity:1;stroke-miterlimit:10;" d="M 112.054688 20 L 118.367188 46.394531 "/>
<path style="fill:none;stroke-width:1;stroke-linecap:butt;stroke-linejoin:miter;stroke:rgb(26.666667%,26.666667%,26.666667%);stroke-opacity:1;stroke-miterlimit:10;" d="M 144.703125 91.253906 L 118.367188 46.394531 "/>
<path style="fill:none;stroke-width:1;stroke-linecap:butt;stroke-linejoin:miter;stroke:rgb(26.666667%,26.666667%,26.666667%);stroke-opacity:1;stroke-miterlimit:10;" d="M 101.5 73.605469 L 118.367188 46.394531 "/>
<path style="fill:none;stroke-width:1;stroke-linecap:butt;stroke-linejoin:miter;stroke:rgb(26.666667%,26.666667%,26.666667%);stroke-opacity:1;stroke-miterlimit:10;" d="M 72.074219 34.441406 L 118.367188 46.394531 "/>
<path style="fill-rule:nonzero;fill:rgb(100%,0%,0%);fill-opacity:1;stroke-width:1;stroke-linecap:butt;stroke-linejoin:miter;stroke:rgb(0%,0%,0%);stroke-opacity:1;stroke-miterlimit:10;" d="M 90.457031 75.148438 C 90.457031 80.671875 85.976562 85.148438 80.457031 85.148438 C 74.933594 85.148438 70.457031 80.671875 70.457031 75.148438 C 70.457031 69.625 74.933594 65.148438 80.457031 65.148438 C 85.976562 65.148438 90.457031 69.625 90.457031 75.148438 "/>
<path style="fill-rule:nonzero;fill:rgb(100%,0%,0%);fill-opacity:1;stroke-width:1;stroke-linecap:butt;stroke-linejoin:miter;stroke:rgb(0%,0%,0%);stroke-opacity:1;stroke-miterlimit:10;" d="M 146.117188 124.617188 C 146.117188 130.140625 141.640625 134.617188 136.117188 134.617188 C 130.59375 134.617188 126.117188 130.140625 126.117188 124.617188 C 126.117188 119.09375 130.59375 114.617188 136.117188 114.617188 C 141.640625 114.617188 146.117188 119.09375 146.117188 124.617188 "/>
<path style="fill-rule:nonzero;fill:rgb(100%,0%,0%);fill-opacity:1;stroke-width:1;stroke-linecap:butt;stroke-linejoin:miter;stroke:rgb(0%,0%,0%);stroke-opacity:1;stroke-miterlimit:10;" d="M 122.054688 20 C 122.054688 25.523438 117.578125 30 112.054688 30 C 106.53125 30 102.054688 25.523438 102.054688 20 C 102.054688 14.476562 106.53125 10 112.054688 10 C 117.578125 10 122.054688 14.476562 122.054688 20 "/>
<path style="fill-rule:nonzero;fill:rgb(100%,0%,0%);fill-opacity:1;stroke-width:1;stroke-linecap:butt;stroke-linejoin:miter;stroke:rgb(0%,0%,0%);stroke-opacity:1;stroke-miterlimit:10;" d="M 30 140.980469 C 30 146.5 25.523438 150.980469 20 150.980469 C 14.476562 150.980469 10 146.5 10 140.980469 C 10 135.457031 14.476562 130.980469 20 130.980469 C 25.523438 130.980469 30 135.457031 30 140.980469 "/>
<path style="fill-rule:nonzero;fill:rgb(100%,0%,0%);fill-opacity:1;stroke-width:1;stroke-linecap:butt;stroke-linejoin:miter;stroke:rgb(0%,0%,0%);stroke-opacity:1;stroke-miterlimit:10;" d="M 190 83.207031 C 190 88.730469 185.523438 93.207031 180 93.207031 C 174.476562 93.207031 170 88.730469 170 83.207031 C 170 77.683594 174.476562 73.207031 180 73.207031 C 185.523438 73.207031 190 77.683594 190 83.207031 "/>
<path style="fill-rule:nonzero;fill:rgb(100%,0%,0%);fill-opacity:1;stroke-width:1;stroke-linecap:butt;stroke-linejoin:miter;stroke:rgb(0%,0%,0%);stroke-opacity:1;stroke-miterlimit:10;" d="M 133.976562 76.445312 C 133.976562 81.96875 129.496094 86.445312 123.976562 86.445312 C 118.453125 86.445312 113.976562 81.96875 113.976562 76.445312 C 113.976562 70.925781 118.453125 66.445312 123.976562 66.445312 C 129.496094 66.445312 133.976562 70.925781 133.976562 76.445312 "/>
<path style="fill-rule:nonzero;fill:rgb(100%,0%,0%);fill-opacity:1;stroke-width:1;stroke-linecap:butt;stroke-linejoin:miter;stroke:rgb(0%,0%,0%);stroke-opacity:1;stroke-miterlimit:10;" d="M 90.914062 118.796875 C 90.914062 124.320312 86.433594 128.796875 80.914062 128.796875 C 75.390625 128.796875 70.914062 124.320312 70.914062 118.796875 C 70.914062 113.273438 75.390625 108.796875 80.914062 108.796875 C 86.433594 108.796875 90.914062 113.273438 90.914062 118.796875 "/>
<path style="fill-rule:nonzero;fill:rgb(100%,0%,0%);fill-opacity:1;stroke-width:1;stroke-linecap:butt;stroke-linejoin:miter;stroke:rgb(0%,0%,0%);stroke-opacity:1;stroke-miterlimit:10;" d="M 154.703125 91.253906 C 154.703125 96.773438 150.226562 101.253906 144.703125 101.253906 C 139.179688 101.253906 134.703125 96.773438 134.703125 91.253906 C 134.703125 85.730469 139.179688 81.253906 144.703125 81.253906 C 150.226562 81.253906 154.703125 85.730469 154.703125 91.253906 "/>
<path style="fill-rule:nonzero;fill:rgb(100%,0%,0%);fill-opacity:1;stroke-width:1;stroke-linecap:butt;stroke-linejoin:miter;stroke:rgb(0%,0%,0%);stroke-opacity:1;stroke-miterlimit:10;" d="M 115.089844 158.507812 C 115.089844 164.03125 110.613281 168.507812 105.089844 168.507812 C 99.566406 168.507812 95.089844 164.03125 95.089844 158.507812 C 95.089844 152.984375 99.566406 148.507812 105.089844 148.507812 C 110.613281 148.507812 115.089844 152.984375 115.089844 158.507812 "/>
<path style="fill-rule:nonzero;fill:rgb(100%,0%,0%);fill-opacity:1;stroke-width:1;stroke-linecap:butt;stroke-linejoin:miter;stroke:rgb(0%,0%,0%);stroke-opacity:1;stroke-miterlimit:10;" d="M 54.773438 66.449219 C 54.773438 71.972656 50.296875 76.449219 44.773438 76.449219 C 39.25 76.449219 34.773438 71.972656 34.773438 66.449219 C 34.773438 60.925781 39.25 56.449219 44.773438 56.449219 C 50.296875 56.449219 54.773438 60.925781 54.773438 66.449219 "/>
<path style="fill-rule:nonzero;fill:rgb(100%,0%,0%);fill-opacity:1;stroke-width:1;stroke-linecap:butt;stroke-linejoin:miter;stroke:rgb(0%,0%,0%);stroke-opacity:1;stroke-miterlimit:10;" d="M 100.527344 130.027344 C 100.527344 135.550781 96.050781 140.027344 90.527344 140.027344 C 85.003906 140.027344 80.527344 135.550781 80.527344 130.027344 C 80.527344 124.503906 85.003906 120.027344 90.527344 120.027344 C 96.050781 120.027344 100.527344 124.503906 100.527344 130.027344 "/>
<path style="fill-rule:nonzero;fill:rgb(100%,0%,0%);fill-opacity:1;stroke-width:1;stroke-linecap:butt;stroke-linejoin:miter;stroke:rgb(0%,0%,0%);stroke-opacity:1;stroke-miterlimit:10;" d="M 70.261719 77.757812 C 70.261719 83.28125 65.785156 87.757812 60.261719 87.757812 C 54.738281 87.757812 50.261719 83.28125 50.261719 77.757812 C 50.261719 72.234375 54.738281 67.757812 60.261719 67.757812 C 65.785156 67.757812 70.261719 72.234375 70.261719 77.757812 "/>
<path style="fill-rule:nonzero;fill:rgb(100%,0%,0%);fill-opacity:1;stroke-width:1;stroke-linecap:butt;stroke-linejoin:miter;stroke:rgb(0%,0%,0%);stroke-opacity:1;stroke-miterlimit:10;" d="M 150.035156 169.023438 C 150.035156 174.546875 145.558594 179.023438 140.035156 179.023438 C 134.511719 179.023438 130.035156 174.546875 130.035156 169.023438 C 130.035156 163.5 134.511719 159.023438 140.035156 159.023438 C 145.558594 159.023438 150.035156 163.5 150.035156 169.023438 "/>
<path style="fill-rule:nonzero;fill:rgb(100%,0%,0%);fill-opacity:1;stroke-width:1;stroke-linecap:butt;stroke-linejoin:miter;stroke:rgb(0%,0%,0%);stroke-opacity:1;stroke-miterlimit:10;" d="M 111.5 73.605469 C 111.5 79.128906 107.019531 83.605469 101.5 83.605469 C 95.976562 83.605469 91.5 79.128906 91.5 73.605469 C 91.5 68.082031 95.976562 63.605469 101.5 63.605469 C 107.019531 63.605469 111.5 68.082031 111.5 73.605469 "/>
<path style="fill-rule:nonzero;fill:rgb(100%,0%,0%);fill-opacity:1;stroke-width:1;stroke-linecap:butt;stroke-linejoin:miter;stroke:rgb(0%,0%,0%);stroke-opacity:1;stroke-miterlimit:10;" d="M 82.074219 34.441406 C 82.074219 39.960938 77.597656 44.441406 72.074219 44.441406 C 66.550781 44.441406 62.074219 39.960938 62.074219 34.441406 C 62.074219 28.917969 66.550781 24.441406 72.074219 24.441406 C 77.597656 24.441406 82.074219 28.917969 82.074219 34.441406 "/>
<path style="fill-rule:nonzero;fill:rgb(100%,0%,0%);fill-opacity:1;stroke-width:1;stroke-linecap:butt;stroke-linejoin:miter;stroke:rgb(0%,0%,0%);stroke-opacity:1;stroke-miterlimit:10;" d="M 61.445312 120.785156 C 61.445312 126.308594 56.96875 130.785156 51.445312 130.785156 C 45.925781 130.785156 41.445312 126.308594 41.445312 120.785156 C 41.445312 115.261719 45.925781 110.785156 51.445312 110.785156 C 56.96875 110.785156 61.445312 115.261719 61.445312 120.785156 "/>
<path style="fill-rule:nonzero;fill:rgb(100%,0%,0%);fill-opacity:1;stroke-width:1;stroke-linecap:butt;stroke-linejoin:miter;stroke:rgb(0%,0%,0%);stroke-opacity:1;stroke-miterlimit:10;" d="M 133.238281 137.226562 C 133.238281 142.75 128.761719 147.226562 123.238281 147.226562 C 117.714844 147.226562 113.238281 142.75 113.238281 137.226562 C 113.238281 131.703125 117.714844 127.226562 123.238281 127.226562 C 128.761719 127.226562 133.238281 131.703125 133.238281 137.226562 "/>
<path style="fill-rule:nonzero;fill:rgb(100%,0%,0%);fill-opacity:1;stroke-width:1;stroke-linecap:butt;stroke-linejoin:miter;stroke:rgb(0%,0%,0%);stroke-opacity:1;stroke-miterlimit:10;" d="M 122.230469 112.046875 C 122.230469 117.570312 117.75 122.046875 112.230469 122.046875 C 106.707031 122.046875 102.230469 117.570312 102.230469 112.046875 C 102.230469 106.523438 106.707031 102.046875 112.230469 102.046875 C 117.75 102.046875 122.230469 106.523438 122.230469 112.046875 "/>
<path style="fill-rule:nonzero;fill:rgb(100%,0%,0%);fill-opacity:1;stroke-width:1;stroke-linecap:butt;stroke-linejoin:miter;stroke:rgb(0%,0%,0%);stroke-opacity:1;stroke-miterlimit:10;" d="M 86.796875 180 C 86.796875 185.523438 82.320312 190 76.796875 190 C 71.273438 190 66.796875 185.523438 66.796875 180 C 66.796875 174.476562 71.273438 170 76.796875 170 C 82.320312 170 86.796875 174.476562 86.796875 180 "/>
<path style="fill-rule:nonzero;fill:rgb(100%,0%,0%);fill-opacity:1;stroke-width:1;stroke-linecap:butt;stroke-linejoin:miter;stroke:rgb(0%,0%,0%);stroke-opacity:1;stroke-miterlimit:10;" d="M 128.367188 46.394531 C 128.367188 51.917969 123.890625 56.394531 118.367188 56.394531 C 112.84375 56.394531 108.367188 51.917969 108.367188 46.394531 C 108.367188 40.871094 112.84375 36.394531 118.367188 36.394531 C 123.890625 36.394531 128.367188 40.871094 128.367188 46.394531 "/>
</g>
</svg>
